<?xml version="1.0" encoding="utf-8" standalone="no"?>
<!DOCTYPE svg PUBLIC "-//W3C//DTD SVG 1.1//EN"
  "http://www.w3.org/Graphics/SVG/1.1/DTD/svg11.dtd">
<svg xmlns:xlink="http://www.w3.org/1999/xlink" width="568.11748pt" height="351.034375pt" viewBox="0 0 568.11748 351.034375" xmlns="http://www.w3.org/2000/svg" version="1.1">
 <metadata>
  <rdf:RDF xmlns:dc="http://purl.org/dc/elements/1.1/" xmlns:cc="http://creativecommons.org/ns#" xmlns:rdf="http://www.w3.org/1999/02/22-rdf-syntax-ns#">
   <cc:Work>
    <dc:type rdf:resource="http://purl.org/dc/dcmitype/StillImage"/>
    <dc:date>2025-05-21T10:57:11.584056</dc:date>
    <dc:format>image/svg+xml</dc:format>
    <dc:creator>
     <cc:Agent>
      <dc:title>Matplotlib v3.10.0, https://matplotlib.org/</dc:title>
     </cc:Agent>
    </dc:creator>
   </cc:Work>
  </rdf:RDF>
 </metadata>
 <defs>
  <style type="text/css">*{stroke-linejoin: round; stroke-linecap: butt}</style>
 </defs>
 <g id="figure_1">
  <g id="patch_1">
   <path d="M 0 351.034375 
L 568.11748 351.034375 
L 568.11748 0 
L 0 0 
z
" style="fill: #ffffff"/>
  </g>
  <g id="axes_1">
   <g id="patch_2">
    <path d="M 43.78125 313.478125 
L 366.31748 313.478125 
L 366.31748 22.318125 
L 43.78125 22.318125 
z
" style="fill: #eaeaf2"/>
   </g>
   <g id="matplotlib.axis_1">
    <g id="xtick_1">
     <g id="line2d_1">
      <path d="M 58.441988 313.478125 
L 58.441988 22.318125 
" clip-path="url(#p85ad1c5157)" style="fill: none; stroke-dasharray: 2.96,1.28; stroke-dashoffset: 0; stroke: #ffffff; stroke-opacity: 0.7; stroke-width: 0.8"/>
     </g>
     <g id="text_1">
      <!-- 0.0 -->
      <g style="fill: #262626" transform="translate(50.490425 328.076563) scale(0.1 -0.1)">
       <defs>
        <path id="DejaVuSans-30" d="M 2034 4250 
Q 1547 4250 1301 3770 
Q 1056 3291 1056 2328 
Q 1056 1369 1301 889 
Q 1547 409 2034 409 
Q 2525 409 2770 889 
Q 3016 1369 3016 2328 
Q 3016 3291 2770 3770 
Q 2525 4250 2034 4250 
z
M 2034 4750 
Q 2819 4750 3233 4129 
Q 3647 3509 3647 2328 
Q 3647 1150 3233 529 
Q 2819 -91 2034 -91 
Q 1250 -91 836 529 
Q 422 1150 422 2328 
Q 422 3509 836 4129 
Q 1250 4750 2034 4750 
z
" transform="scale(0.015625)"/>
        <path id="DejaVuSans-2e" d="M 684 794 
L 1344 794 
L 1344 0 
L 684 0 
L 684 794 
z
" transform="scale(0.015625)"/>
       </defs>
       <use xlink:href="#DejaVuSans-30"/>
       <use xlink:href="#DejaVuSans-2e" transform="translate(63.623047 0)"/>
       <use xlink:href="#DejaVuSans-30" transform="translate(95.410156 0)"/>
      </g>
     </g>
    </g>
    <g id="xtick_2">
     <g id="line2d_2">
      <path d="M 117.084939 313.478125 
L 117.084939 22.318125 
" clip-path="url(#p85ad1c5157)" style="fill: none; stroke-dasharray: 2.96,1.28; stroke-dashoffset: 0; stroke: #ffffff; stroke-opacity: 0.7; stroke-width: 0.8"/>
     </g>
     <g id="text_2">
      <!-- 0.2 -->
      <g style="fill: #262626" transform="translate(109.133376 328.076563) scale(0.1 -0.1)">
       <defs>
        <path id="DejaVuSans-32" d="M 1228 531 
L 3431 531 
L 3431 0 
L 469 0 
L 469 531 
Q 828 903 1448 1529 
Q 2069 2156 2228 2338 
Q 2531 2678 2651 2914 
Q 2772 3150 2772 3378 
Q 2772 3750 2511 3984 
Q 2250 4219 1831 4219 
Q 1534 4219 1204 4116 
Q 875 4013 500 3803 
L 500 4441 
Q 881 4594 1212 4672 
Q 1544 4750 1819 4750 
Q 2544 4750 2975 4387 
Q 3406 4025 3406 3419 
Q 3406 3131 3298 2873 
Q 3191 2616 2906 2266 
Q 2828 2175 2409 1742 
Q 1991 1309 1228 531 
z
" transform="scale(0.015625)"/>
       </defs>
       <use xlink:href="#DejaVuSans-30"/>
       <use xlink:href="#DejaVuSans-2e" transform="translate(63.623047 0)"/>
       <use xlink:href="#DejaVuSans-32" transform="translate(95.410156 0)"/>
      </g>
     </g>
    </g>
    <g id="xtick_3">
     <g id="line2d_3">
      <path d="M 175.72789 313.478125 
L 175.72789 22.318125 
" clip-path="url(#p85ad1c5157)" style="fill: none; stroke-dasharray: 2.96,1.28; stroke-dashoffset: 0; stroke: #ffffff; stroke-opacity: 0.7; stroke-width: 0.8"/>
     </g>
     <g id="text_3">
      <!-- 0.4 -->
      <g style="fill: #262626" transform="translate(167.776327 328.076563) scale(0.1 -0.1)">
       <defs>
        <path id="DejaVuSans-34" d="M 2419 4116 
L 825 1625 
L 2419 1625 
L 2419 4116 
z
M 2253 4666 
L 3047 4666 
L 3047 1625 
L 3713 1625 
L 3713 1100 
L 3047 1100 
L 3047 0 
L 2419 0 
L 2419 1100 
L 313 1100 
L 313 1709 
L 2253 4666 
z
" transform="scale(0.015625)"/>
       </defs>
       <use xlink:href="#DejaVuSans-30"/>
       <use xlink:href="#DejaVuSans-2e" transform="translate(63.623047 0)"/>
       <use xlink:href="#DejaVuSans-34" transform="translate(95.410156 0)"/>
      </g>
     </g>
    </g>
    <g id="xtick_4">
     <g id="line2d_4">
      <path d="M 234.370841 313.478125 
L 234.370841 22.318125 
" clip-path="url(#p85ad1c5157)" style="fill: none; stroke-dasharray: 2.96,1.28; stroke-dashoffset: 0; stroke: #ffffff; stroke-opacity: 0.7; stroke-width: 0.8"/>
     </g>
     <g id="text_4">
      <!-- 0.6 -->
      <g style="fill: #262626" transform="translate(226.419278 328.076563) scale(0.1 -0.1)">
       <defs>
        <path id="DejaVuSans-36" d="M 2113 2584 
Q 1688 2584 1439 2293 
Q 1191 2003 1191 1497 
Q 1191 994 1439 701 
Q 1688 409 2113 409 
Q 2538 409 2786 701 
Q 3034 994 3034 1497 
Q 3034 2003 2786 2293 
Q 2538 2584 2113 2584 
z
M 3366 4563 
L 3366 3988 
Q 3128 4100 2886 4159 
Q 2644 4219 2406 4219 
Q 1781 4219 1451 3797 
Q 1122 3375 1075 2522 
Q 1259 2794 1537 2939 
Q 1816 3084 2150 3084 
Q 2853 3084 3261 2657 
Q 3669 2231 3669 1497 
Q 3669 778 3244 343 
Q 2819 -91 2113 -91 
Q 1303 -91 875 529 
Q 447 1150 447 2328 
Q 447 3434 972 4092 
Q 1497 4750 2381 4750 
Q 2619 4750 2861 4703 
Q 3103 4656 3366 4563 
z
" transform="scale(0.015625)"/>
       </defs>
       <use xlink:href="#DejaVuSans-30"/>
       <use xlink:href="#DejaVuSans-2e" transform="translate(63.623047 0)"/>
       <use xlink:href="#DejaVuSans-36" transform="translate(95.410156 0)"/>
      </g>
     </g>
    </g>
    <g id="xtick_5">
     <g id="line2d_5">
      <path d="M 293.013792 313.478125 
L 293.013792 22.318125 
" clip-path="url(#p85ad1c5157)" style="fill: none; stroke-dasharray: 2.96,1.28; stroke-dashoffset: 0; stroke: #ffffff; stroke-opacity: 0.7; stroke-width: 0.8"/>
     </g>
     <g id="text_5">
      <!-- 0.8 -->
      <g style="fill: #262626" transform="translate(285.062229 328.076563) scale(0.1 -0.1)">
       <defs>
        <path id="DejaVuSans-38" d="M 2034 2216 
Q 1584 2216 1326 1975 
Q 1069 1734 1069 1313 
Q 1069 891 1326 650 
Q 1584 409 2034 409 
Q 2484 409 2743 651 
Q 3003 894 3003 1313 
Q 3003 1734 2745 1975 
Q 2488 2216 2034 2216 
z
M 1403 2484 
Q 997 2584 770 2862 
Q 544 3141 544 3541 
Q 544 4100 942 4425 
Q 1341 4750 2034 4750 
Q 2731 4750 3128 4425 
Q 3525 4100 3525 3541 
Q 3525 3141 3298 2862 
Q 3072 2584 2669 2484 
Q 3125 2378 3379 2068 
Q 3634 1759 3634 1313 
Q 3634 634 3220 271 
Q 2806 -91 2034 -91 
Q 1263 -91 848 271 
Q 434 634 434 1313 
Q 434 1759 690 2068 
Q 947 2378 1403 2484 
z
M 1172 3481 
Q 1172 3119 1398 2916 
Q 1625 2713 2034 2713 
Q 2441 2713 2670 2916 
Q 2900 3119 2900 3481 
Q 2900 3844 2670 4047 
Q 2441 4250 2034 4250 
Q 1625 4250 1398 4047 
Q 1172 3844 1172 3481 
z
" transform="scale(0.015625)"/>
       </defs>
       <use xlink:href="#DejaVuSans-30"/>
       <use xlink:href="#DejaVuSans-2e" transform="translate(63.623047 0)"/>
       <use xlink:href="#DejaVuSans-38" transform="translate(95.410156 0)"/>
      </g>
     </g>
    </g>
    <g id="xtick_6">
     <g id="line2d_6">
      <path d="M 351.656743 313.478125 
L 351.656743 22.318125 
" clip-path="url(#p85ad1c5157)" style="fill: none; stroke-dasharray: 2.96,1.28; stroke-dashoffset: 0; stroke: #ffffff; stroke-opacity: 0.7; stroke-width: 0.8"/>
     </g>
     <g id="text_6">
      <!-- 1.0 -->
      <g style="fill: #262626" transform="translate(343.70518 328.076563) scale(0.1 -0.1)">
       <defs>
        <path id="DejaVuSans-31" d="M 794 531 
L 1825 531 
L 1825 4091 
L 703 3866 
L 703 4441 
L 1819 4666 
L 2450 4666 
L 2450 531 
L 3481 531 
L 3481 0 
L 794 0 
L 794 531 
z
" transform="scale(0.015625)"/>
       </defs>
       <use xlink:href="#DejaVuSans-31"/>
       <use xlink:href="#DejaVuSans-2e" transform="translate(63.623047 0)"/>
       <use xlink:href="#DejaVuSans-30" transform="translate(95.410156 0)"/>
      </g>
     </g>
    </g>
    <g id="text_7">
     <!-- Recall -->
     <g style="fill: #262626" transform="translate(190.132178 341.754687) scale(0.1 -0.1)">
      <defs>
       <path id="DejaVuSans-52" d="M 2841 2188 
Q 3044 2119 3236 1894 
Q 3428 1669 3622 1275 
L 4263 0 
L 3584 0 
L 2988 1197 
Q 2756 1666 2539 1819 
Q 2322 1972 1947 1972 
L 1259 1972 
L 1259 0 
L 628 0 
L 628 4666 
L 2053 4666 
Q 2853 4666 3247 4331 
Q 3641 3997 3641 3322 
Q 3641 2881 3436 2590 
Q 3231 2300 2841 2188 
z
M 1259 4147 
L 1259 2491 
L 2053 2491 
Q 2509 2491 2742 2702 
Q 2975 2913 2975 3322 
Q 2975 3731 2742 3939 
Q 2509 4147 2053 4147 
L 1259 4147 
z
" transform="scale(0.015625)"/>
       <path id="DejaVuSans-65" d="M 3597 1894 
L 3597 1613 
L 953 1613 
Q 991 1019 1311 708 
Q 1631 397 2203 397 
Q 2534 397 2845 478 
Q 3156 559 3463 722 
L 3463 178 
Q 3153 47 2828 -22 
Q 2503 -91 2169 -91 
Q 1331 -91 842 396 
Q 353 884 353 1716 
Q 353 2575 817 3079 
Q 1281 3584 2069 3584 
Q 2775 3584 3186 3129 
Q 3597 2675 3597 1894 
z
M 3022 2063 
Q 3016 2534 2758 2815 
Q 2500 3097 2075 3097 
Q 1594 3097 1305 2825 
Q 1016 2553 972 2059 
L 3022 2063 
z
" transform="scale(0.015625)"/>
       <path id="DejaVuSans-63" d="M 3122 3366 
L 3122 2828 
Q 2878 2963 2633 3030 
Q 2388 3097 2138 3097 
Q 1578 3097 1268 2742 
Q 959 2388 959 1747 
Q 959 1106 1268 751 
Q 1578 397 2138 397 
Q 2388 397 2633 464 
Q 2878 531 3122 666 
L 3122 134 
Q 2881 22 2623 -34 
Q 2366 -91 2075 -91 
Q 1284 -91 818 406 
Q 353 903 353 1747 
Q 353 2603 823 3093 
Q 1294 3584 2113 3584 
Q 2378 3584 2631 3529 
Q 2884 3475 3122 3366 
z
" transform="scale(0.015625)"/>
       <path id="DejaVuSans-61" d="M 2194 1759 
Q 1497 1759 1228 1600 
Q 959 1441 959 1056 
Q 959 750 1161 570 
Q 1363 391 1709 391 
Q 2188 391 2477 730 
Q 2766 1069 2766 1631 
L 2766 1759 
L 2194 1759 
z
M 3341 1997 
L 3341 0 
L 2766 0 
L 2766 531 
Q 2569 213 2275 61 
Q 1981 -91 1556 -91 
Q 1019 -91 701 211 
Q 384 513 384 1019 
Q 384 1609 779 1909 
Q 1175 2209 1959 2209 
L 2766 2209 
L 2766 2266 
Q 2766 2663 2505 2880 
Q 2244 3097 1772 3097 
Q 1472 3097 1187 3025 
Q 903 2953 641 2809 
L 641 3341 
Q 956 3463 1253 3523 
Q 1550 3584 1831 3584 
Q 2591 3584 2966 3190 
Q 3341 2797 3341 1997 
z
" transform="scale(0.015625)"/>
       <path id="DejaVuSans-6c" d="M 603 4863 
L 1178 4863 
L 1178 0 
L 603 0 
L 603 4863 
z
" transform="scale(0.015625)"/>
      </defs>
      <use xlink:href="#DejaVuSans-52"/>
      <use xlink:href="#DejaVuSans-65" transform="translate(64.982422 0)"/>
      <use xlink:href="#DejaVuSans-63" transform="translate(126.505859 0)"/>
      <use xlink:href="#DejaVuSans-61" transform="translate(181.486328 0)"/>
      <use xlink:href="#DejaVuSans-6c" transform="translate(242.765625 0)"/>
      <use xlink:href="#DejaVuSans-6c" transform="translate(270.548828 0)"/>
     </g>
    </g>
   </g>
   <g id="matplotlib.axis_2">
    <g id="ytick_1">
     <g id="line2d_7">
      <path d="M 43.78125 300.24358 
L 366.31748 300.24358 
" clip-path="url(#p85ad1c5157)" style="fill: none; stroke-dasharray: 2.96,1.28; stroke-dashoffset: 0; stroke: #ffffff; stroke-opacity: 0.7; stroke-width: 0.8"/>
     </g>
     <g id="text_8">
      <!-- 0.0 -->
      <g style="fill: #262626" transform="translate(20.878125 304.042798) scale(0.1 -0.1)">
       <use xlink:href="#DejaVuSans-30"/>
       <use xlink:href="#DejaVuSans-2e" transform="translate(63.623047 0)"/>
       <use xlink:href="#DejaVuSans-30" transform="translate(95.410156 0)"/>
      </g>
     </g>
    </g>
    <g id="ytick_2">
     <g id="line2d_8">
      <path d="M 43.78125 249.33951 
L 366.31748 249.33951 
" clip-path="url(#p85ad1c5157)" style="fill: none; stroke-dasharray: 2.96,1.28; stroke-dashoffset: 0; stroke: #ffffff; stroke-opacity: 0.7; stroke-width: 0.8"/>
     </g>
     <g id="text_9">
      <!-- 0.2 -->
      <g style="fill: #262626" transform="translate(20.878125 253.138729) scale(0.1 -0.1)">
       <use xlink:href="#DejaVuSans-30"/>
       <use xlink:href="#DejaVuSans-2e" transform="translate(63.623047 0)"/>
       <use xlink:href="#DejaVuSans-32" transform="translate(95.410156 0)"/>
      </g>
     </g>
    </g>
    <g id="ytick_3">
     <g id="line2d_9">
      <path d="M 43.78125 198.43544 
L 366.31748 198.43544 
" clip-path="url(#p85ad1c5157)" style="fill: none; stroke-dasharray: 2.96,1.28; stroke-dashoffset: 0; stroke: #ffffff; stroke-opacity: 0.7; stroke-width: 0.8"/>
     </g>
     <g id="text_10">
      <!-- 0.4 -->
      <g style="fill: #262626" transform="translate(20.878125 202.234659) scale(0.1 -0.1)">
       <use xlink:href="#DejaVuSans-30"/>
       <use xlink:href="#DejaVuSans-2e" transform="translate(63.623047 0)"/>
       <use xlink:href="#DejaVuSans-34" transform="translate(95.410156 0)"/>
      </g>
     </g>
    </g>
    <g id="ytick_4">
     <g id="line2d_10">
      <path d="M 43.78125 147.53137 
L 366.31748 147.53137 
" clip-path="url(#p85ad1c5157)" style="fill: none; stroke-dasharray: 2.96,1.28; stroke-dashoffset: 0; stroke: #ffffff; stroke-opacity: 0.7; stroke-width: 0.8"/>
     </g>
     <g id="text_11">
      <!-- 0.6 -->
      <g style="fill: #262626" transform="translate(20.878125 151.330589) scale(0.1 -0.1)">
       <use xlink:href="#DejaVuSans-30"/>
       <use xlink:href="#DejaVuSans-2e" transform="translate(63.623047 0)"/>
       <use xlink:href="#DejaVuSans-36" transform="translate(95.410156 0)"/>
      </g>
     </g>
    </g>
    <g id="ytick_5">
     <g id="line2d_11">
      <path d="M 43.78125 96.627301 
L 366.31748 96.627301 
" clip-path="url(#p85ad1c5157)" style="fill: none; stroke-dasharray: 2.96,1.28; stroke-dashoffset: 0; stroke: #ffffff; stroke-opacity: 0.7; stroke-width: 0.8"/>
     </g>
     <g id="text_12">
      <!-- 0.8 -->
      <g style="fill: #262626" transform="translate(20.878125 100.426519) scale(0.1 -0.1)">
       <use xlink:href="#DejaVuSans-30"/>
       <use xlink:href="#DejaVuSans-2e" transform="translate(63.623047 0)"/>
       <use xlink:href="#DejaVuSans-38" transform="translate(95.410156 0)"/>
      </g>
     </g>
    </g>
    <g id="ytick_6">
     <g id="line2d_12">
      <path d="M 43.78125 45.723231 
L 366.31748 45.723231 
" clip-path="url(#p85ad1c5157)" style="fill: none; stroke-dasharray: 2.96,1.28; stroke-dashoffset: 0; stroke: #ffffff; stroke-opacity: 0.7; stroke-width: 0.8"/>
     </g>
     <g id="text_13">
      <!-- 1.0 -->
      <g style="fill: #262626" transform="translate(20.878125 49.52245) scale(0.1 -0.1)">
       <use xlink:href="#DejaVuSans-31"/>
       <use xlink:href="#DejaVuSans-2e" transform="translate(63.623047 0)"/>
       <use xlink:href="#DejaVuSans-30" transform="translate(95.410156 0)"/>
      </g>
     </g>
    </g>
    <g id="text_14">
     <!-- Precision -->
     <g style="fill: #262626" transform="translate(14.798438 190.205156) rotate(-90) scale(0.1 -0.1)">
      <defs>
       <path id="DejaVuSans-50" d="M 1259 4147 
L 1259 2394 
L 2053 2394 
Q 2494 2394 2734 2622 
Q 2975 2850 2975 3272 
Q 2975 3691 2734 3919 
Q 2494 4147 2053 4147 
L 1259 4147 
z
M 628 4666 
L 2053 4666 
Q 2838 4666 3239 4311 
Q 3641 3956 3641 3272 
Q 3641 2581 3239 2228 
Q 2838 1875 2053 1875 
L 1259 1875 
L 1259 0 
L 628 0 
L 628 4666 
z
" transform="scale(0.015625)"/>
       <path id="DejaVuSans-72" d="M 2631 2963 
Q 2534 3019 2420 3045 
Q 2306 3072 2169 3072 
Q 1681 3072 1420 2755 
Q 1159 2438 1159 1844 
L 1159 0 
L 581 0 
L 581 3500 
L 1159 3500 
L 1159 2956 
Q 1341 3275 1631 3429 
Q 1922 3584 2338 3584 
Q 2397 3584 2469 3576 
Q 2541 3569 2628 3553 
L 2631 2963 
z
" transform="scale(0.015625)"/>
       <path id="DejaVuSans-69" d="M 603 3500 
L 1178 3500 
L 1178 0 
L 603 0 
L 603 3500 
z
M 603 4863 
L 1178 4863 
L 1178 4134 
L 603 4134 
L 603 4863 
z
" transform="scale(0.015625)"/>
       <path id="DejaVuSans-73" d="M 2834 3397 
L 2834 2853 
Q 2591 2978 2328 3040 
Q 2066 3103 1784 3103 
Q 1356 3103 1142 2972 
Q 928 2841 928 2578 
Q 928 2378 1081 2264 
Q 1234 2150 1697 2047 
L 1894 2003 
Q 2506 1872 2764 1633 
Q 3022 1394 3022 966 
Q 3022 478 2636 193 
Q 2250 -91 1575 -91 
Q 1294 -91 989 -36 
Q 684 19 347 128 
L 347 722 
Q 666 556 975 473 
Q 1284 391 1588 391 
Q 1994 391 2212 530 
Q 2431 669 2431 922 
Q 2431 1156 2273 1281 
Q 2116 1406 1581 1522 
L 1381 1569 
Q 847 1681 609 1914 
Q 372 2147 372 2553 
Q 372 3047 722 3315 
Q 1072 3584 1716 3584 
Q 2034 3584 2315 3537 
Q 2597 3491 2834 3397 
z
" transform="scale(0.015625)"/>
       <path id="DejaVuSans-6f" d="M 1959 3097 
Q 1497 3097 1228 2736 
Q 959 2375 959 1747 
Q 959 1119 1226 758 
Q 1494 397 1959 397 
Q 2419 397 2687 759 
Q 2956 1122 2956 1747 
Q 2956 2369 2687 2733 
Q 2419 3097 1959 3097 
z
M 1959 3584 
Q 2709 3584 3137 3096 
Q 3566 2609 3566 1747 
Q 3566 888 3137 398 
Q 2709 -91 1959 -91 
Q 1206 -91 779 398 
Q 353 888 353 1747 
Q 353 2609 779 3096 
Q 1206 3584 1959 3584 
z
" transform="scale(0.015625)"/>
       <path id="DejaVuSans-6e" d="M 3513 2113 
L 3513 0 
L 2938 0 
L 2938 2094 
Q 2938 2591 2744 2837 
Q 2550 3084 2163 3084 
Q 1697 3084 1428 2787 
Q 1159 2491 1159 1978 
L 1159 0 
L 581 0 
L 581 3500 
L 1159 3500 
L 1159 2956 
Q 1366 3272 1645 3428 
Q 1925 3584 2291 3584 
Q 2894 3584 3203 3211 
Q 3513 2838 3513 2113 
z
" transform="scale(0.015625)"/>
      </defs>
      <use xlink:href="#DejaVuSans-50"/>
      <use xlink:href="#DejaVuSans-72" transform="translate(58.552734 0)"/>
      <use xlink:href="#DejaVuSans-65" transform="translate(97.416016 0)"/>
      <use xlink:href="#DejaVuSans-63" transform="translate(158.939453 0)"/>
      <use xlink:href="#DejaVuSans-69" transform="translate(213.919922 0)"/>
      <use xlink:href="#DejaVuSans-73" transform="translate(241.703125 0)"/>
      <use xlink:href="#DejaVuSans-69" transform="translate(293.802734 0)"/>
      <use xlink:href="#DejaVuSans-6f" transform="translate(321.585938 0)"/>
      <use xlink:href="#DejaVuSans-6e" transform="translate(382.767578 0)"/>
     </g>
    </g>
   </g>
   <g id="FillBetweenPolyCollection_1">
    <defs>
     <path id="m3de837c8e0" d="M 58.441988 -305.311144 
L 58.441988 -305.311144 
L 61.403753 -301.475344 
L 64.365518 -297.639545 
L 67.327283 -293.803745 
L 70.289049 -289.967945 
L 73.250814 -286.131696 
L 76.212579 -282.281528 
L 79.174344 -278.607007 
L 82.136109 -276.426699 
L 85.097875 -274.889971 
L 88.05964 -273.530686 
L 91.021405 -272.544141 
L 93.98317 -271.671193 
L 96.944935 -270.820572 
L 99.906701 -270.082605 
L 102.868466 -269.413546 
L 105.830231 -268.865063 
L 108.791996 -268.348173 
L 111.753761 -267.807325 
L 114.715527 -267.24235 
L 117.677292 -266.640533 
L 120.639057 -265.995466 
L 123.600822 -265.259631 
L 126.562587 -264.682838 
L 129.524353 -264.054378 
L 132.486118 -263.379103 
L 135.447883 -262.682506 
L 138.409648 -261.949971 
L 141.371413 -261.196979 
L 144.333179 -260.481891 
L 147.294944 -259.854325 
L 150.256709 -259.315264 
L 153.218474 -258.732804 
L 156.180239 -258.132438 
L 159.142005 -257.620546 
L 162.10377 -257.255257 
L 165.065535 -256.875978 
L 168.0273 -256.468696 
L 170.989065 -255.994702 
L 173.950831 -255.476608 
L 176.912596 -254.941456 
L 179.874361 -254.480553 
L 182.836126 -253.954757 
L 185.797891 -253.42809 
L 188.759657 -252.958193 
L 191.721422 -252.511587 
L 194.683187 -251.940165 
L 197.644952 -251.401598 
L 200.606717 -250.842953 
L 203.568483 -250.325662 
L 206.530248 -249.77625 
L 209.492013 -249.199446 
L 212.453778 -248.608791 
L 215.415543 -248.025151 
L 218.377309 -247.425016 
L 221.339074 -246.771593 
L 224.300839 -246.067102 
L 227.262604 -245.369249 
L 230.224369 -244.741601 
L 233.186135 -244.168479 
L 236.1479 -243.581831 
L 239.109665 -242.921265 
L 242.07143 -242.077815 
L 245.033195 -241.35457 
L 247.994961 -240.642108 
L 250.956726 -239.803168 
L 253.918491 -238.424179 
L 256.880256 -237.575243 
L 259.842021 -236.876834 
L 262.803787 -236.126421 
L 265.765552 -235.173904 
L 268.727317 -234.083532 
L 271.689082 -232.06561 
L 274.650847 -230.877828 
L 277.612613 -229.727 
L 280.574378 -228.730027 
L 283.536143 -227.612388 
L 286.497908 -226.266755 
L 289.459673 -224.828163 
L 292.421439 -223.244908 
L 295.383204 -221.33124 
L 298.344969 -219.745977 
L 301.306734 -217.957646 
L 304.268499 -215.753324 
L 307.230265 -213.073221 
L 310.19203 -210.114099 
L 313.153795 -207.249607 
L 316.11556 -205.087654 
L 319.077326 -202.926906 
L 322.039091 -199.898749 
L 325.000856 -197.489054 
L 327.962621 -194.61761 
L 330.924386 -191.742238 
L 333.886152 -189.170578 
L 336.847917 -185.350772 
L 339.809682 -182.307314 
L 342.771447 -179.241629 
L 345.733212 -175.325239 
L 348.694978 -172.212194 
L 351.656743 -164.754251 
L 351.656743 -191.284058 
L 351.656743 -191.284058 
L 348.694978 -207.664091 
L 345.733212 -211.335672 
L 342.771447 -216.324313 
L 339.809682 -219.863443 
L 336.847917 -224.86894 
L 333.886152 -228.690063 
L 330.924386 -231.323168 
L 327.962621 -235.492391 
L 325.000856 -237.776502 
L 322.039091 -240.045148 
L 319.077326 -242.103634 
L 316.11556 -243.930252 
L 313.153795 -246.112537 
L 310.19203 -248.054821 
L 307.230265 -250.213222 
L 304.268499 -252.088537 
L 301.306734 -254.066448 
L 298.344969 -255.716136 
L 295.383204 -257.485465 
L 292.421439 -258.587648 
L 289.459673 -260.038793 
L 286.497908 -261.081363 
L 283.536143 -262.11125 
L 280.574378 -263.134745 
L 277.612613 -264.062743 
L 274.650847 -265.209719 
L 271.689082 -266.306175 
L 268.727317 -267.366736 
L 265.765552 -268.408104 
L 262.803787 -269.336936 
L 259.842021 -270.454411 
L 256.880256 -271.600522 
L 253.918491 -272.678984 
L 250.956726 -273.655551 
L 247.994961 -274.355879 
L 245.033195 -275.013504 
L 242.07143 -275.655491 
L 239.109665 -276.782064 
L 236.1479 -277.534436 
L 233.186135 -278.294113 
L 230.224369 -279.080571 
L 227.262604 -279.815002 
L 224.300839 -280.550955 
L 221.339074 -281.333156 
L 218.377309 -282.037805 
L 215.415543 -282.680568 
L 212.453778 -283.319839 
L 209.492013 -283.909669 
L 206.530248 -284.539216 
L 203.568483 -285.209667 
L 200.606717 -285.894425 
L 197.644952 -286.619965 
L 194.683187 -287.408644 
L 191.721422 -288.26653 
L 188.759657 -289.062948 
L 185.797891 -289.677299 
L 182.836126 -290.283984 
L 179.874361 -290.925933 
L 176.912596 -291.651984 
L 173.950831 -292.470261 
L 170.989065 -293.242761 
L 168.0273 -293.922359 
L 165.065535 -294.636092 
L 162.10377 -295.305373 
L 159.142005 -295.977207 
L 156.180239 -296.624974 
L 153.218474 -297.302708 
L 150.256709 -298.02143 
L 147.294944 -298.805951 
L 144.333179 -299.499858 
L 141.371413 -300.20372 
L 138.409648 -300.950228 
L 135.447883 -301.753648 
L 132.486118 -302.647769 
L 129.524353 -303.63126 
L 126.562587 -304.634657 
L 123.600822 -305.657681 
L 120.639057 -306.622808 
L 117.677292 -307.583529 
L 114.715527 -308.560684 
L 111.753761 -309.603847 
L 108.791996 -310.631478 
L 105.830231 -311.456272 
L 102.868466 -312.241865 
L 99.906701 -312.906772 
L 96.944935 -313.511141 
L 93.98317 -314.025028 
L 91.021405 -314.451998 
L 88.05964 -314.798407 
L 85.097875 -314.94006 
L 82.136109 -314.940682 
L 79.174344 -314.578971 
L 76.212579 -313.372859 
L 73.250814 -312.060719 
L 70.289049 -310.711829 
L 67.327283 -309.361658 
L 64.365518 -308.011486 
L 61.403753 -306.661315 
L 58.441988 -305.311144 
z
" style="stroke: #ffffff; stroke-opacity: 0.2"/>
    </defs>
    <g clip-path="url(#p85ad1c5157)">
     <use xlink:href="#m3de837c8e0" x="0" y="351.034375" style="fill: #1f77b4; fill-opacity: 0.2; stroke: #ffffff; stroke-opacity: 0.2"/>
    </g>
   </g>
   <g id="FillBetweenPolyCollection_2">
    <defs>
     <path id="m36a475f4ff" d="M 58.441988 -305.311144 
L 58.441988 -305.311144 
L 61.403753 -301.8784 
L 64.365518 -298.445655 
L 67.327283 -295.012911 
L 70.289049 -291.580166 
L 73.250814 -288.138955 
L 76.212579 -284.68714 
L 79.174344 -281.220311 
L 82.136109 -278.030257 
L 85.097875 -274.964472 
L 88.05964 -272.386887 
L 91.021405 -270.315844 
L 93.98317 -268.911659 
L 96.944935 -267.64214 
L 99.906701 -266.278429 
L 102.868466 -265.126011 
L 105.830231 -264.185137 
L 108.791996 -263.218504 
L 111.753761 -262.32189 
L 114.715527 -261.447294 
L 117.677292 -260.66786 
L 120.639057 -259.829689 
L 123.600822 -258.851891 
L 126.562587 -257.810753 
L 129.524353 -256.741335 
L 132.486118 -255.571565 
L 135.447883 -254.355741 
L 138.409648 -253.121693 
L 141.371413 -252.172198 
L 144.333179 -251.397029 
L 147.294944 -250.819597 
L 150.256709 -250.542883 
L 153.218474 -250.201292 
L 156.180239 -249.72561 
L 159.142005 -249.185641 
L 162.10377 -248.816905 
L 165.065535 -248.377603 
L 168.0273 -247.859322 
L 170.989065 -247.371698 
L 173.950831 -246.821819 
L 176.912596 -246.2693 
L 179.874361 -245.668955 
L 182.836126 -245.110816 
L 185.797891 -244.716409 
L 188.759657 -244.336614 
L 191.721422 -243.923834 
L 194.683187 -243.577625 
L 197.644952 -243.178726 
L 200.606717 -242.692853 
L 203.568483 -242.243269 
L 206.530248 -241.788529 
L 209.492013 -240.890437 
L 212.453778 -240.24688 
L 215.415543 -239.776499 
L 218.377309 -239.262892 
L 221.339074 -238.716572 
L 224.300839 -238.144738 
L 227.262604 -237.513514 
L 230.224369 -236.902629 
L 233.186135 -236.141869 
L 236.1479 -235.215532 
L 239.109665 -234.183003 
L 242.07143 -233.328908 
L 245.033195 -232.227061 
L 247.994961 -230.856209 
L 250.956726 -229.622222 
L 253.918491 -228.389299 
L 256.880256 -227.722294 
L 259.842021 -227.02487 
L 262.803787 -226.347195 
L 265.765552 -225.48284 
L 268.727317 -224.44576 
L 271.689082 -223.255436 
L 274.650847 -222.164093 
L 277.612613 -220.823284 
L 280.574378 -219.68215 
L 283.536143 -218.253288 
L 286.497908 -216.452129 
L 289.459673 -214.67004 
L 292.421439 -213.032977 
L 295.383204 -211.520498 
L 298.344969 -209.780022 
L 301.306734 -208.081631 
L 304.268499 -206.517771 
L 307.230265 -204.418833 
L 310.19203 -202.938258 
L 313.153795 -200.606647 
L 316.11556 -198.871657 
L 319.077326 -197.280027 
L 322.039091 -195.940513 
L 325.000856 -194.545729 
L 327.962621 -192.788878 
L 330.924386 -190.678084 
L 333.886152 -188.803484 
L 336.847917 -184.894631 
L 339.809682 -182.324691 
L 342.771447 -180.035852 
L 345.733212 -175.572978 
L 348.694978 -173.250632 
L 351.656743 -164.754251 
L 351.656743 -191.284058 
L 351.656743 -191.284058 
L 348.694978 -205.4131 
L 345.733212 -208.935266 
L 342.771447 -214.569756 
L 339.809682 -217.199966 
L 336.847917 -221.470419 
L 333.886152 -223.782435 
L 330.924386 -226.072904 
L 327.962621 -228.919115 
L 325.000856 -231.980134 
L 322.039091 -234.447197 
L 319.077326 -236.4631 
L 316.11556 -238.450417 
L 313.153795 -241.070495 
L 310.19203 -242.621715 
L 307.230265 -244.137457 
L 304.268499 -245.649159 
L 301.306734 -247.246353 
L 298.344969 -248.935533 
L 295.383204 -250.483418 
L 292.421439 -251.853169 
L 289.459673 -253.096204 
L 286.497908 -254.210252 
L 283.536143 -255.038228 
L 280.574378 -255.92441 
L 277.612613 -256.815083 
L 274.650847 -257.669859 
L 271.689082 -258.534106 
L 268.727317 -259.565356 
L 265.765552 -260.70835 
L 262.803787 -261.799568 
L 259.842021 -262.946606 
L 256.880256 -264.08341 
L 253.918491 -265.088592 
L 250.956726 -266.097766 
L 247.994961 -267.313087 
L 245.033195 -268.874562 
L 242.07143 -269.851245 
L 239.109665 -270.877203 
L 236.1479 -271.735764 
L 233.186135 -272.613439 
L 230.224369 -273.585775 
L 227.262604 -274.647878 
L 224.300839 -275.663235 
L 221.339074 -276.744071 
L 218.377309 -277.813122 
L 215.415543 -278.879694 
L 212.453778 -279.939725 
L 209.492013 -280.993997 
L 206.530248 -282.353862 
L 203.568483 -283.459802 
L 200.606717 -284.530536 
L 197.644952 -285.53519 
L 194.683187 -286.227647 
L 191.721422 -286.941261 
L 188.759657 -287.687561 
L 185.797891 -288.481862 
L 182.836126 -289.332924 
L 179.874361 -290.15119 
L 176.912596 -290.927863 
L 173.950831 -291.746134 
L 170.989065 -292.611204 
L 168.0273 -293.495783 
L 165.065535 -294.41911 
L 162.10377 -295.385102 
L 159.142005 -296.324292 
L 156.180239 -297.12035 
L 153.218474 -297.785922 
L 150.256709 -298.536435 
L 147.294944 -299.386827 
L 144.333179 -300.088342 
L 141.371413 -300.678078 
L 138.409648 -301.149091 
L 135.447883 -301.510861 
L 132.486118 -301.955105 
L 129.524353 -302.506866 
L 126.562587 -303.0952 
L 123.600822 -303.739263 
L 120.639057 -304.462452 
L 117.677292 -305.239192 
L 114.715527 -306.076701 
L 111.753761 -306.867174 
L 108.791996 -307.680631 
L 105.830231 -308.502047 
L 102.868466 -309.396493 
L 99.906701 -310.108674 
L 96.944935 -310.705744 
L 93.98317 -311.325046 
L 91.021405 -311.770517 
L 88.05964 -311.85763 
L 85.097875 -311.757566 
L 82.136109 -311.456688 
L 79.174344 -311.013279 
L 76.212579 -310.255508 
L 73.250814 -309.461039 
L 70.289049 -308.653134 
L 67.327283 -307.817637 
L 64.365518 -306.982139 
L 61.403753 -306.146642 
L 58.441988 -305.311144 
z
" style="stroke: #ffffff; stroke-opacity: 0.2"/>
    </defs>
    <g clip-path="url(#p85ad1c5157)">
     <use xlink:href="#m36a475f4ff" x="0" y="351.034375" style="fill: #ff7f0e; fill-opacity: 0.2; stroke: #ffffff; stroke-opacity: 0.2"/>
    </g>
   </g>
   <g id="FillBetweenPolyCollection_3">
    <defs>
     <path id="m1af74842a6" d="M 58.441988 -305.311144 
L 58.441988 -305.311144 
L 61.403753 -298.233715 
L 64.365518 -291.156286 
L 67.327283 -284.064703 
L 70.289049 -277.076583 
L 73.250814 -273.903225 
L 76.212579 -271.984987 
L 79.174344 -269.847554 
L 82.136109 -267.55353 
L 85.097875 -265.892629 
L 88.05964 -264.394341 
L 91.021405 -262.679658 
L 93.98317 -260.780603 
L 96.944935 -259.299574 
L 99.906701 -258.241156 
L 102.868466 -257.313051 
L 105.830231 -256.673448 
L 108.791996 -256.018911 
L 111.753761 -255.39751 
L 114.715527 -254.838557 
L 117.677292 -254.436148 
L 120.639057 -253.955366 
L 123.600822 -253.199038 
L 126.562587 -252.650087 
L 129.524353 -251.999992 
L 132.486118 -251.328471 
L 135.447883 -250.505867 
L 138.409648 -249.718278 
L 141.371413 -249.326202 
L 144.333179 -248.872102 
L 147.294944 -248.418867 
L 150.256709 -247.930409 
L 153.218474 -247.413274 
L 156.180239 -246.912708 
L 159.142005 -246.348377 
L 162.10377 -245.632009 
L 165.065535 -244.851322 
L 168.0273 -243.993645 
L 170.989065 -243.208284 
L 173.950831 -242.44261 
L 176.912596 -241.661257 
L 179.874361 -240.903583 
L 182.836126 -240.132463 
L 185.797891 -239.316432 
L 188.759657 -238.701902 
L 191.721422 -238.251735 
L 194.683187 -237.786379 
L 197.644952 -237.196761 
L 200.606717 -236.562456 
L 203.568483 -235.903944 
L 206.530248 -235.298056 
L 209.492013 -234.76128 
L 212.453778 -234.157146 
L 215.415543 -233.501967 
L 218.377309 -232.658051 
L 221.339074 -231.749876 
L 224.300839 -230.975208 
L 227.262604 -230.297719 
L 230.224369 -229.566021 
L 233.186135 -228.788432 
L 236.1479 -227.534754 
L 239.109665 -226.44481 
L 242.07143 -225.640601 
L 245.033195 -224.854241 
L 247.994961 -224.038065 
L 250.956726 -223.076157 
L 253.918491 -221.981899 
L 256.880256 -220.864998 
L 259.842021 -219.991784 
L 262.803787 -219.059622 
L 265.765552 -218.120915 
L 268.727317 -217.076294 
L 271.689082 -216.005312 
L 274.650847 -214.905792 
L 277.612613 -213.669662 
L 280.574378 -212.149353 
L 283.536143 -209.970051 
L 286.497908 -208.650085 
L 289.459673 -207.454078 
L 292.421439 -206.376912 
L 295.383204 -205.231309 
L 298.344969 -203.539752 
L 301.306734 -202.564448 
L 304.268499 -201.425998 
L 307.230265 -199.859468 
L 310.19203 -198.668299 
L 313.153795 -197.078044 
L 316.11556 -195.308694 
L 319.077326 -193.986052 
L 322.039091 -192.543243 
L 325.000856 -191.116282 
L 327.962621 -189.113687 
L 330.924386 -187.088783 
L 333.886152 -185.19291 
L 336.847917 -181.794656 
L 339.809682 -180.059457 
L 342.771447 -177.142256 
L 345.733212 -173.873392 
L 348.694978 -171.877259 
L 351.656743 -164.754251 
L 351.656743 -191.284058 
L 351.656743 -191.284058 
L 348.694978 -204.790215 
L 345.733212 -207.694335 
L 342.771447 -212.657779 
L 339.809682 -214.709322 
L 336.847917 -217.602034 
L 333.886152 -220.846688 
L 330.924386 -223.324053 
L 327.962621 -225.613895 
L 325.000856 -228.205636 
L 322.039091 -230.505258 
L 319.077326 -232.342618 
L 316.11556 -234.136568 
L 313.153795 -235.380374 
L 310.19203 -236.883599 
L 307.230265 -238.414199 
L 304.268499 -239.841242 
L 301.306734 -241.260209 
L 298.344969 -242.634564 
L 295.383204 -243.923284 
L 292.421439 -245.405265 
L 289.459673 -246.969455 
L 286.497908 -248.710271 
L 283.536143 -250.360223 
L 280.574378 -251.625531 
L 277.612613 -253.288655 
L 274.650847 -255.070759 
L 271.689082 -256.691962 
L 268.727317 -258.075617 
L 265.765552 -259.37742 
L 262.803787 -260.720442 
L 259.842021 -261.971403 
L 256.880256 -263.08277 
L 253.918491 -264.090247 
L 250.956726 -265.144274 
L 247.994961 -266.102155 
L 245.033195 -266.934727 
L 242.07143 -267.693646 
L 239.109665 -268.816114 
L 236.1479 -269.623463 
L 233.186135 -270.647755 
L 230.224369 -271.628408 
L 227.262604 -272.503215 
L 224.300839 -273.266374 
L 221.339074 -273.939603 
L 218.377309 -274.629225 
L 215.415543 -275.333364 
L 212.453778 -276.056303 
L 209.492013 -276.645287 
L 206.530248 -277.265166 
L 203.568483 -277.895601 
L 200.606717 -278.531011 
L 197.644952 -279.218597 
L 194.683187 -279.836995 
L 191.721422 -280.418478 
L 188.759657 -281.069568 
L 185.797891 -281.696335 
L 182.836126 -282.300461 
L 179.874361 -282.927575 
L 176.912596 -283.639009 
L 173.950831 -284.414806 
L 170.989065 -285.218949 
L 168.0273 -286.029659 
L 165.065535 -286.923031 
L 162.10377 -287.794954 
L 159.142005 -288.604041 
L 156.180239 -289.436911 
L 153.218474 -290.328085 
L 150.256709 -291.183557 
L 147.294944 -292.082646 
L 144.333179 -293.098583 
L 141.371413 -294.135049 
L 138.409648 -295.063282 
L 135.447883 -295.787239 
L 132.486118 -296.523479 
L 129.524353 -297.298039 
L 126.562587 -298.070876 
L 123.600822 -298.932559 
L 120.639057 -299.898175 
L 117.677292 -300.819379 
L 114.715527 -301.839717 
L 111.753761 -302.953156 
L 108.791996 -304.147134 
L 105.830231 -305.426564 
L 102.868466 -306.69567 
L 99.906701 -307.914961 
L 96.944935 -309.168738 
L 93.98317 -310.27295 
L 91.021405 -311.121378 
L 88.05964 -312.032532 
L 85.097875 -312.854552 
L 82.136109 -313.59691 
L 79.174344 -314.009945 
L 76.212579 -314.529745 
L 73.250814 -315.245809 
L 70.289049 -315.32642 
L 67.327283 -312.896846 
L 64.365518 -310.390068 
L 61.403753 -307.850606 
L 58.441988 -305.311144 
z
" style="stroke: #ffffff; stroke-opacity: 0.2"/>
    </defs>
    <g clip-path="url(#p85ad1c5157)">
     <use xlink:href="#m1af74842a6" x="0" y="351.034375" style="fill: #2ca02c; fill-opacity: 0.2; stroke: #ffffff; stroke-opacity: 0.2"/>
    </g>
   </g>
   <g id="FillBetweenPolyCollection_4">
    <defs>
     <path id="mbc502156c5" d="M 58.441988 -305.311144 
L 58.441988 -305.311144 
L 61.403753 -296.562634 
L 64.365518 -287.814124 
L 67.327283 -279.062331 
L 70.289049 -272.394055 
L 73.250814 -268.137447 
L 76.212579 -265.07384 
L 79.174344 -262.661449 
L 82.136109 -260.8667 
L 85.097875 -259.40003 
L 88.05964 -257.892468 
L 91.021405 -256.974007 
L 93.98317 -256.128594 
L 96.944935 -255.237039 
L 99.906701 -254.510764 
L 102.868466 -254.016352 
L 105.830231 -253.402854 
L 108.791996 -252.459038 
L 111.753761 -251.471359 
L 114.715527 -250.898414 
L 117.677292 -250.269777 
L 120.639057 -249.41048 
L 123.600822 -248.469241 
L 126.562587 -247.363397 
L 129.524353 -246.376329 
L 132.486118 -245.500411 
L 135.447883 -244.980546 
L 138.409648 -244.490874 
L 141.371413 -243.910937 
L 144.333179 -243.379446 
L 147.294944 -242.772624 
L 150.256709 -242.004261 
L 153.218474 -241.21497 
L 156.180239 -240.562108 
L 159.142005 -239.956889 
L 162.10377 -239.284057 
L 165.065535 -238.11391 
L 168.0273 -237.60044 
L 170.989065 -237.024362 
L 173.950831 -236.452083 
L 176.912596 -235.90556 
L 179.874361 -235.253121 
L 182.836126 -234.440712 
L 185.797891 -233.632882 
L 188.759657 -232.724866 
L 191.721422 -231.841676 
L 194.683187 -230.973575 
L 197.644952 -230.2171 
L 200.606717 -229.551429 
L 203.568483 -228.817428 
L 206.530248 -228.124655 
L 209.492013 -227.504758 
L 212.453778 -226.896539 
L 215.415543 -226.331907 
L 218.377309 -225.939085 
L 221.339074 -225.459179 
L 224.300839 -225.021815 
L 227.262604 -224.64667 
L 230.224369 -224.196666 
L 233.186135 -222.835437 
L 236.1479 -222.287264 
L 239.109665 -221.553892 
L 242.07143 -220.712411 
L 245.033195 -220.106505 
L 247.994961 -219.409393 
L 250.956726 -218.686301 
L 253.918491 -217.831812 
L 256.880256 -216.567874 
L 259.842021 -215.726584 
L 262.803787 -214.917678 
L 265.765552 -214.050632 
L 268.727317 -213.121029 
L 271.689082 -211.032556 
L 274.650847 -209.592557 
L 277.612613 -208.37427 
L 280.574378 -206.768963 
L 283.536143 -205.7882 
L 286.497908 -204.624207 
L 289.459673 -203.405223 
L 292.421439 -202.400743 
L 295.383204 -201.52471 
L 298.344969 -200.210108 
L 301.306734 -199.312246 
L 304.268499 -198.322016 
L 307.230265 -196.83947 
L 310.19203 -195.540938 
L 313.153795 -194.036607 
L 316.11556 -192.624084 
L 319.077326 -191.449698 
L 322.039091 -189.769474 
L 325.000856 -187.787808 
L 327.962621 -186.10182 
L 330.924386 -184.201166 
L 333.886152 -182.208075 
L 336.847917 -180.367869 
L 339.809682 -178.301858 
L 342.771447 -176.471647 
L 345.733212 -173.382448 
L 348.694978 -171.395484 
L 351.656743 -164.754251 
L 351.656743 -191.284058 
L 351.656743 -191.284058 
L 348.694978 -203.675026 
L 345.733212 -206.76162 
L 342.771447 -210.647186 
L 339.809682 -213.221916 
L 336.847917 -216.948457 
L 333.886152 -219.464143 
L 330.924386 -221.481773 
L 327.962621 -223.639885 
L 325.000856 -225.340524 
L 322.039091 -226.686816 
L 319.077326 -228.088314 
L 316.11556 -229.808305 
L 313.153795 -231.886376 
L 310.19203 -233.792714 
L 307.230265 -235.422533 
L 304.268499 -236.803501 
L 301.306734 -238.131015 
L 298.344969 -239.486506 
L 295.383204 -240.729687 
L 292.421439 -242.088297 
L 289.459673 -243.534601 
L 286.497908 -245.052876 
L 283.536143 -246.979777 
L 280.574378 -248.485979 
L 277.612613 -250.225385 
L 274.650847 -251.444812 
L 271.689082 -252.826115 
L 268.727317 -253.724473 
L 265.765552 -254.654493 
L 262.803787 -255.539448 
L 259.842021 -256.332378 
L 256.880256 -256.996632 
L 253.918491 -257.695717 
L 250.956726 -258.492639 
L 247.994961 -259.270311 
L 245.033195 -260.147223 
L 242.07143 -261.064812 
L 239.109665 -261.947614 
L 236.1479 -262.868175 
L 233.186135 -263.826978 
L 230.224369 -264.442132 
L 227.262604 -265.506372 
L 224.300839 -266.498505 
L 221.339074 -267.464905 
L 218.377309 -268.461359 
L 215.415543 -269.464123 
L 212.453778 -270.348373 
L 209.492013 -271.164715 
L 206.530248 -271.871982 
L 203.568483 -272.450582 
L 200.606717 -272.979526 
L 197.644952 -273.5521 
L 194.683187 -274.151073 
L 191.721422 -274.729961 
L 188.759657 -275.379351 
L 185.797891 -276.099833 
L 182.836126 -276.937682 
L 179.874361 -277.932852 
L 176.912596 -278.975899 
L 173.950831 -279.969742 
L 170.989065 -280.831143 
L 168.0273 -281.67725 
L 165.065535 -282.563903 
L 162.10377 -283.98041 
L 159.142005 -284.927491 
L 156.180239 -285.938762 
L 153.218474 -287.033642 
L 150.256709 -288.038888 
L 147.294944 -289.029202 
L 144.333179 -290.139956 
L 141.371413 -291.310766 
L 138.409648 -292.373973 
L 135.447883 -293.508699 
L 132.486118 -294.639312 
L 129.524353 -295.477147 
L 126.562587 -296.223997 
L 123.600822 -297.140987 
L 120.639057 -298.255969 
L 117.677292 -299.532035 
L 114.715527 -300.786282 
L 111.753761 -302.114852 
L 108.791996 -303.157935 
L 105.830231 -304.142061 
L 102.868466 -305.117102 
L 99.906701 -306.10821 
L 96.944935 -307.094985 
L 93.98317 -308.134565 
L 91.021405 -309.322055 
L 88.05964 -310.586563 
L 85.097875 -311.560348 
L 82.136109 -312.560769 
L 79.174344 -313.498703 
L 76.212579 -314.271916 
L 73.250814 -314.896415 
L 70.289049 -314.918423 
L 67.327283 -313.651196 
L 64.365518 -310.877805 
L 61.403753 -308.094474 
L 58.441988 -305.311144 
z
" style="stroke: #ffffff; stroke-opacity: 0.2"/>
    </defs>
    <g clip-path="url(#p85ad1c5157)">
     <use xlink:href="#mbc502156c5" x="0" y="351.034375" style="fill: #d62728; fill-opacity: 0.2; stroke: #ffffff; stroke-opacity: 0.2"/>
    </g>
   </g>
   <g id="FillBetweenPolyCollection_5">
    <defs>
     <path id="m37abde4d14" d="M 58.441988 -305.311144 
L 58.441988 -305.311144 
L 61.403753 -293.310511 
L 64.365518 -281.309878 
L 67.327283 -273.623116 
L 70.289049 -268.754494 
L 73.250814 -264.603917 
L 76.212579 -261.422071 
L 79.174344 -258.284651 
L 82.136109 -255.635215 
L 85.097875 -253.362658 
L 88.05964 -251.303113 
L 91.021405 -249.64287 
L 93.98317 -247.885512 
L 96.944935 -246.920753 
L 99.906701 -246.365918 
L 102.868466 -245.987451 
L 105.830231 -245.629049 
L 108.791996 -245.41737 
L 111.753761 -245.243195 
L 114.715527 -244.976827 
L 117.677292 -244.539602 
L 120.639057 -244.087522 
L 123.600822 -243.656328 
L 126.562587 -243.153058 
L 129.524353 -242.318856 
L 132.486118 -241.246074 
L 135.447883 -240.569225 
L 138.409648 -239.715937 
L 141.371413 -238.936997 
L 144.333179 -238.072321 
L 147.294944 -237.194395 
L 150.256709 -236.676944 
L 153.218474 -236.243654 
L 156.180239 -235.770844 
L 159.142005 -235.19574 
L 162.10377 -234.502844 
L 165.065535 -233.802466 
L 168.0273 -233.117239 
L 170.989065 -232.407682 
L 173.950831 -231.642727 
L 176.912596 -230.718947 
L 179.874361 -229.768421 
L 182.836126 -228.799089 
L 185.797891 -227.960366 
L 188.759657 -227.081914 
L 191.721422 -226.340399 
L 194.683187 -225.843655 
L 197.644952 -225.181507 
L 200.606717 -224.755388 
L 203.568483 -223.934328 
L 206.530248 -223.531612 
L 209.492013 -223.085877 
L 212.453778 -222.548378 
L 215.415543 -221.980745 
L 218.377309 -221.361641 
L 221.339074 -220.566587 
L 224.300839 -219.854757 
L 227.262604 -219.135684 
L 230.224369 -218.418828 
L 233.186135 -217.829984 
L 236.1479 -216.628245 
L 239.109665 -215.809243 
L 242.07143 -215.038032 
L 245.033195 -214.336151 
L 247.994961 -213.448901 
L 250.956726 -212.370586 
L 253.918491 -211.197072 
L 256.880256 -210.422066 
L 259.842021 -209.543733 
L 262.803787 -208.568786 
L 265.765552 -207.515378 
L 268.727317 -206.284694 
L 271.689082 -205.279164 
L 274.650847 -204.127166 
L 277.612613 -202.953494 
L 280.574378 -201.956153 
L 283.536143 -201.21151 
L 286.497908 -200.519653 
L 289.459673 -199.828017 
L 292.421439 -199.112442 
L 295.383204 -198.250003 
L 298.344969 -196.978797 
L 301.306734 -195.86525 
L 304.268499 -194.76356 
L 307.230265 -193.749193 
L 310.19203 -192.101662 
L 313.153795 -190.761047 
L 316.11556 -189.603855 
L 319.077326 -188.498576 
L 322.039091 -187.448113 
L 325.000856 -186.155747 
L 327.962621 -184.331564 
L 330.924386 -182.676996 
L 333.886152 -180.858135 
L 336.847917 -178.805845 
L 339.809682 -177.509111 
L 342.771447 -175.792323 
L 345.733212 -173.315554 
L 348.694978 -171.305765 
L 351.656743 -164.754251 
L 351.656743 -191.284058 
L 351.656743 -191.284058 
L 348.694978 -201.794968 
L 345.733212 -204.512155 
L 342.771447 -208.896576 
L 339.809682 -211.620215 
L 336.847917 -214.46774 
L 333.886152 -216.762665 
L 330.924386 -218.449575 
L 327.962621 -220.039093 
L 325.000856 -222.178296 
L 322.039091 -224.040973 
L 319.077326 -225.630874 
L 316.11556 -227.231166 
L 313.153795 -228.639739 
L 310.19203 -230.128849 
L 307.230265 -231.752845 
L 304.268499 -233.078167 
L 301.306734 -234.562812 
L 298.344969 -236.205535 
L 295.383204 -237.765779 
L 292.421439 -239.313245 
L 289.459673 -240.675073 
L 286.497908 -241.98123 
L 283.536143 -243.099788 
L 280.574378 -244.340526 
L 277.612613 -245.422637 
L 274.650847 -246.324444 
L 271.689082 -247.232054 
L 268.727317 -248.141434 
L 265.765552 -248.982135 
L 262.803787 -249.813522 
L 259.842021 -250.666067 
L 256.880256 -251.459396 
L 253.918491 -252.280641 
L 250.956726 -253.126495 
L 247.994961 -254.09227 
L 245.033195 -255.056106 
L 242.07143 -255.983557 
L 239.109665 -256.797221 
L 236.1479 -257.664121 
L 233.186135 -258.581699 
L 230.224369 -259.479414 
L 227.262604 -260.332182 
L 224.300839 -261.082098 
L 221.339074 -261.866129 
L 218.377309 -262.8461 
L 215.415543 -263.891862 
L 212.453778 -264.83489 
L 209.492013 -265.905647 
L 206.530248 -267.064995 
L 203.568483 -268.309871 
L 200.606717 -269.388184 
L 197.644952 -270.372357 
L 194.683187 -271.58844 
L 191.721422 -273.071269 
L 188.759657 -274.48313 
L 185.797891 -275.624063 
L 182.836126 -276.745931 
L 179.874361 -277.70924 
L 176.912596 -278.75681 
L 173.950831 -279.787141 
L 170.989065 -280.845348 
L 168.0273 -281.893421 
L 165.065535 -282.900487 
L 162.10377 -283.862586 
L 159.142005 -284.77779 
L 156.180239 -285.619327 
L 153.218474 -286.52603 
L 150.256709 -287.48321 
L 147.294944 -288.42804 
L 144.333179 -289.168204 
L 141.371413 -289.795225 
L 138.409648 -290.447162 
L 135.447883 -291.136911 
L 132.486118 -292.03126 
L 129.524353 -292.834093 
L 126.562587 -293.966161 
L 123.600822 -294.96286 
L 120.639057 -295.751396 
L 117.677292 -296.535298 
L 114.715527 -297.438355 
L 111.753761 -298.477062 
L 108.791996 -299.560588 
L 105.830231 -300.613191 
L 102.868466 -301.699765 
L 99.906701 -302.958404 
L 96.944935 -304.311564 
L 93.98317 -305.804075 
L 91.021405 -307.197669 
L 88.05964 -308.55868 
L 85.097875 -309.90939 
L 82.136109 -311.392967 
L 79.174344 -312.38619 
L 76.212579 -313.253897 
L 73.250814 -314.314925 
L 70.289049 -315.0151 
L 67.327283 -315.481705 
L 64.365518 -314.156857 
L 61.403753 -309.734001 
L 58.441988 -305.311144 
z
" style="stroke: #ffffff; stroke-opacity: 0.2"/>
    </defs>
    <g clip-path="url(#p85ad1c5157)">
     <use xlink:href="#m37abde4d14" x="0" y="351.034375" style="fill: #9467bd; fill-opacity: 0.2; stroke: #ffffff; stroke-opacity: 0.2"/>
    </g>
   </g>
   <g id="line2d_13">
    <path d="M 58.441988 45.723231 
L 61.403753 46.966045 
L 64.365518 48.208859 
L 67.327283 49.451674 
L 70.289049 50.694488 
L 73.250814 51.938167 
L 76.212579 53.207182 
L 79.174344 54.441386 
L 82.136109 55.350685 
L 85.097875 56.119359 
L 88.05964 56.869829 
L 91.021405 57.536306 
L 93.98317 58.186264 
L 96.944935 58.868518 
L 99.906701 59.539687 
L 102.868466 60.20667 
L 105.830231 60.873707 
L 108.791996 61.54455 
L 111.753761 62.328789 
L 114.715527 63.132858 
L 117.677292 63.922344 
L 120.639057 64.725238 
L 123.600822 65.575719 
L 126.562587 66.375628 
L 129.524353 67.191556 
L 132.486118 68.020939 
L 135.447883 68.816298 
L 138.409648 69.584275 
L 141.371413 70.334026 
L 144.333179 71.0435 
L 147.294944 71.704237 
L 150.256709 72.366028 
L 153.218474 73.016619 
L 156.180239 73.655669 
L 159.142005 74.235498 
L 162.10377 74.75406 
L 165.065535 75.27834 
L 168.0273 75.838848 
L 170.989065 76.415643 
L 173.950831 77.060941 
L 176.912596 77.737655 
L 179.874361 78.331132 
L 182.836126 78.915004 
L 185.797891 79.48168 
L 188.759657 80.023804 
L 191.721422 80.645317 
L 194.683187 81.359971 
L 197.644952 82.023594 
L 200.606717 82.665686 
L 203.568483 83.266711 
L 206.530248 83.876642 
L 209.492013 84.479817 
L 212.453778 85.07006 
L 215.415543 85.681515 
L 218.377309 86.302964 
L 221.339074 86.982 
L 224.300839 87.725347 
L 227.262604 88.44225 
L 230.224369 89.123289 
L 233.186135 89.803079 
L 236.1479 90.476242 
L 239.109665 91.18271 
L 242.07143 92.167722 
L 245.033195 92.850338 
L 247.994961 93.535382 
L 250.956726 94.305016 
L 253.918491 95.482794 
L 256.880256 96.446492 
L 259.842021 97.368753 
L 262.803787 98.302697 
L 265.765552 99.243371 
L 268.727317 100.309241 
L 271.689082 101.848483 
L 274.650847 102.990601 
L 277.612613 104.139503 
L 280.574378 105.101989 
L 283.536143 106.172556 
L 286.497908 107.360316 
L 289.459673 108.600897 
L 292.421439 110.118097 
L 295.383204 111.626023 
L 298.344969 113.303318 
L 301.306734 115.022328 
L 304.268499 117.113445 
L 307.230265 119.391153 
L 310.19203 121.949915 
L 313.153795 124.353303 
L 316.11556 126.525422 
L 319.077326 128.519105 
L 322.039091 131.062427 
L 325.000856 133.401597 
L 327.962621 135.979374 
L 330.924386 139.501672 
L 333.886152 142.104055 
L 336.847917 145.924519 
L 339.809682 149.948997 
L 342.771447 153.251404 
L 345.733212 157.703919 
L 348.694978 161.096233 
L 351.656743 173.01522 
" clip-path="url(#p85ad1c5157)" style="fill: none; stroke: #1f77b4; stroke-width: 1.5; stroke-linecap: round"/>
   </g>
   <g id="line2d_14">
    <path d="M 58.441988 45.723231 
L 61.403753 47.021854 
L 64.365518 48.320478 
L 67.327283 49.619101 
L 70.289049 50.917725 
L 73.250814 52.234378 
L 76.212579 53.563051 
L 79.174344 54.91758 
L 82.136109 56.290902 
L 85.097875 57.673356 
L 88.05964 58.912117 
L 91.021405 59.991194 
L 93.98317 60.916023 
L 96.944935 61.860433 
L 99.906701 62.840824 
L 102.868466 63.773123 
L 105.830231 64.690783 
L 108.791996 65.584807 
L 111.753761 66.439843 
L 114.715527 67.272378 
L 117.677292 68.080849 
L 120.639057 68.888305 
L 123.600822 69.738798 
L 126.562587 70.581398 
L 129.524353 71.410274 
L 132.486118 72.27104 
L 135.447883 73.101074 
L 138.409648 73.898983 
L 141.371413 74.609237 
L 144.333179 75.29169 
L 147.294944 75.931163 
L 150.256709 76.494716 
L 153.218474 77.040768 
L 156.180239 77.611395 
L 159.142005 78.279409 
L 162.10377 78.933372 
L 165.065535 79.636019 
L 168.0273 80.356822 
L 170.989065 81.042924 
L 173.950831 81.750399 
L 176.912596 82.435793 
L 179.874361 83.124302 
L 182.836126 83.812505 
L 185.797891 84.435239 
L 188.759657 85.022288 
L 191.721422 85.601828 
L 194.683187 86.131739 
L 197.644952 86.677417 
L 200.606717 87.42268 
L 203.568483 88.182839 
L 206.530248 88.963179 
L 209.492013 90.092158 
L 212.453778 90.941073 
L 215.415543 91.706278 
L 218.377309 92.496368 
L 221.339074 93.304054 
L 224.300839 94.130388 
L 227.262604 94.953679 
L 230.224369 95.790173 
L 233.186135 96.656721 
L 236.1479 97.558727 
L 239.109665 98.504272 
L 242.07143 99.444299 
L 245.033195 100.483564 
L 247.994961 101.949727 
L 250.956726 103.174381 
L 253.918491 104.295429 
L 256.880256 105.131523 
L 259.842021 106.048637 
L 262.803787 106.960994 
L 265.765552 107.93878 
L 268.727317 109.028817 
L 271.689082 110.139604 
L 274.650847 111.117399 
L 277.612613 112.215192 
L 280.574378 113.231095 
L 283.536143 114.388617 
L 286.497908 115.703184 
L 289.459673 117.151253 
L 292.421439 118.591302 
L 295.383204 120.032417 
L 298.344969 121.676597 
L 301.306734 123.370383 
L 304.268499 124.95091 
L 307.230265 126.75623 
L 310.19203 128.254388 
L 313.153795 130.195804 
L 316.11556 132.373338 
L 319.077326 134.162811 
L 322.039091 135.84052 
L 325.000856 137.771443 
L 327.962621 140.180379 
L 330.924386 142.658881 
L 333.886152 144.741415 
L 336.847917 147.85185 
L 339.809682 151.272047 
L 342.771447 153.731571 
L 345.733212 158.780253 
L 348.694978 161.702509 
L 351.656743 173.01522 
" clip-path="url(#p85ad1c5157)" style="fill: none; stroke: #ff7f0e; stroke-width: 1.5; stroke-linecap: round"/>
   </g>
   <g id="line2d_15">
    <path d="M 58.441988 45.723231 
L 61.403753 47.992214 
L 64.365518 50.261198 
L 67.327283 52.5536 
L 70.289049 54.832873 
L 73.250814 56.459858 
L 76.212579 57.777009 
L 79.174344 59.105626 
L 82.136109 60.459155 
L 85.097875 61.660785 
L 88.05964 62.820939 
L 91.021405 64.133857 
L 93.98317 65.507599 
L 96.944935 66.800219 
L 99.906701 67.956317 
L 102.868466 69.030015 
L 105.830231 69.984369 
L 108.791996 70.951352 
L 111.753761 71.859042 
L 114.715527 72.695238 
L 117.677292 73.406611 
L 120.639057 74.107605 
L 123.600822 74.968576 
L 126.562587 75.673894 
L 129.524353 76.38536 
L 132.486118 77.1084 
L 135.447883 77.887822 
L 138.409648 78.643595 
L 141.371413 79.30375 
L 144.333179 80.049032 
L 147.294944 80.783618 
L 150.256709 81.477392 
L 153.218474 82.163695 
L 156.180239 82.859565 
L 159.142005 83.558166 
L 162.10377 84.320894 
L 165.065535 85.147198 
L 168.0273 86.022723 
L 170.989065 86.820758 
L 173.950831 87.605667 
L 176.912596 88.384242 
L 179.874361 89.118796 
L 182.836126 89.817913 
L 185.797891 90.527991 
L 188.759657 91.14864 
L 191.721422 91.699268 
L 194.683187 92.222688 
L 197.644952 92.826696 
L 200.606717 93.487642 
L 203.568483 94.134602 
L 206.530248 94.752764 
L 209.492013 95.331092 
L 212.453778 95.927651 
L 215.415543 96.61671 
L 218.377309 97.390737 
L 221.339074 98.189636 
L 224.300839 98.913584 
L 227.262604 99.633908 
L 230.224369 100.43716 
L 233.186135 101.316282 
L 236.1479 102.455267 
L 239.109665 103.403913 
L 242.07143 104.367251 
L 245.033195 105.139891 
L 247.994961 105.964265 
L 250.956726 106.924159 
L 253.918491 107.998302 
L 256.880256 109.060491 
L 259.842021 110.052782 
L 262.803787 111.144343 
L 265.765552 112.285207 
L 268.727317 113.458419 
L 271.689082 114.685738 
L 274.650847 116.046099 
L 277.612613 117.555217 
L 280.574378 119.146933 
L 283.536143 120.869238 
L 286.497908 122.354197 
L 289.459673 123.822609 
L 292.421439 125.143287 
L 295.383204 126.457078 
L 298.344969 127.947217 
L 301.306734 129.122046 
L 304.268499 130.400755 
L 307.230265 131.897542 
L 310.19203 133.258426 
L 313.153795 134.805166 
L 316.11556 136.311744 
L 319.077326 137.87004 
L 322.039091 139.510125 
L 325.000856 141.373416 
L 327.962621 143.670584 
L 330.924386 145.827957 
L 333.886152 148.014576 
L 336.847917 151.33603 
L 339.809682 153.649986 
L 342.771447 156.134357 
L 345.733212 160.250511 
L 348.694978 162.700638 
L 351.656743 173.01522 
" clip-path="url(#p85ad1c5157)" style="fill: none; stroke: #2ca02c; stroke-width: 1.5; stroke-linecap: round"/>
   </g>
   <g id="line2d_16">
    <path d="M 58.441988 45.723231 
L 61.403753 48.705821 
L 64.365518 51.688411 
L 67.327283 54.677611 
L 70.289049 57.378136 
L 73.250814 59.517444 
L 76.212579 61.361497 
L 79.174344 62.954299 
L 82.136109 64.320641 
L 85.097875 65.554186 
L 88.05964 66.794859 
L 91.021405 67.886344 
L 93.98317 68.902795 
L 96.944935 69.868363 
L 99.906701 70.724888 
L 102.868466 71.467648 
L 105.830231 72.261917 
L 108.791996 73.225889 
L 111.753761 74.241269 
L 114.715527 75.192027 
L 117.677292 76.133469 
L 120.639057 77.20115 
L 123.600822 78.229261 
L 126.562587 79.240678 
L 129.524353 80.107637 
L 132.486118 80.964514 
L 135.447883 81.789752 
L 138.409648 82.601951 
L 141.371413 83.423523 
L 144.333179 84.274674 
L 147.294944 85.133462 
L 150.256709 86.0128 
L 153.218474 86.910069 
L 156.180239 87.78394 
L 159.142005 88.592185 
L 162.10377 89.402142 
L 165.065535 90.695469 
L 168.0273 91.39553 
L 170.989065 92.106622 
L 173.950831 92.823462 
L 176.912596 93.593645 
L 179.874361 94.441389 
L 182.836126 95.345178 
L 185.797891 96.168018 
L 188.759657 96.982267 
L 191.721422 97.748557 
L 194.683187 98.472051 
L 197.644952 99.149775 
L 200.606717 99.768898 
L 203.568483 100.40037 
L 206.530248 101.036057 
L 209.492013 101.699638 
L 212.453778 102.411919 
L 215.415543 103.13636 
L 218.377309 103.834153 
L 221.339074 104.572333 
L 224.300839 105.274215 
L 227.262604 105.957854 
L 230.224369 106.714976 
L 233.186135 107.703168 
L 236.1479 108.456656 
L 239.109665 109.283622 
L 242.07143 110.145763 
L 245.033195 110.907511 
L 247.994961 111.694523 
L 250.956726 112.444905 
L 253.918491 113.270611 
L 256.880256 114.252122 
L 259.842021 115.004894 
L 262.803787 115.805812 
L 265.765552 116.681812 
L 268.727317 117.611624 
L 271.689082 119.105039 
L 274.650847 120.51569 
L 277.612613 121.734548 
L 280.574378 123.406904 
L 283.536143 124.650386 
L 286.497908 126.195833 
L 289.459673 127.564463 
L 292.421439 128.789855 
L 295.383204 129.907176 
L 298.344969 131.186068 
L 301.306734 132.312745 
L 304.268499 133.471617 
L 307.230265 134.903374 
L 310.19203 136.367549 
L 313.153795 138.072884 
L 316.11556 139.818181 
L 319.077326 141.265369 
L 322.039091 142.80623 
L 325.000856 144.470209 
L 327.962621 146.163522 
L 330.924386 148.192906 
L 333.886152 150.198266 
L 336.847917 152.376212 
L 339.809682 155.272488 
L 342.771447 157.474958 
L 345.733212 160.962341 
L 348.694978 163.49912 
L 351.656743 173.01522 
" clip-path="url(#p85ad1c5157)" style="fill: none; stroke: #d62728; stroke-width: 1.5; stroke-linecap: round"/>
   </g>
   <g id="line2d_17">
    <path d="M 58.441988 45.723231 
L 61.403753 49.512119 
L 64.365518 53.301008 
L 67.327283 56.481965 
L 70.289049 59.149578 
L 73.250814 61.574954 
L 76.212579 63.696391 
L 79.174344 65.698955 
L 82.136109 67.520284 
L 85.097875 69.398351 
L 88.05964 71.103478 
L 91.021405 72.614106 
L 93.98317 74.189581 
L 96.944935 75.418217 
L 99.906701 76.372214 
L 102.868466 77.190767 
L 105.830231 77.913255 
L 108.791996 78.545396 
L 111.753761 79.174247 
L 114.715527 79.826784 
L 117.677292 80.496925 
L 120.639057 81.114916 
L 123.600822 81.724781 
L 126.562587 82.474765 
L 129.524353 83.4579 
L 132.486118 84.395708 
L 135.447883 85.181307 
L 138.409648 85.952826 
L 141.371413 86.668264 
L 144.333179 87.414113 
L 147.294944 88.223158 
L 150.256709 88.954298 
L 153.218474 89.649533 
L 156.180239 90.33929 
L 159.142005 91.04761 
L 162.10377 91.85166 
L 165.065535 92.682898 
L 168.0273 93.529045 
L 170.989065 94.40786 
L 173.950831 95.319441 
L 176.912596 96.296497 
L 179.874361 97.295545 
L 182.836126 98.261865 
L 185.797891 99.24216 
L 188.759657 100.251853 
L 191.721422 101.328541 
L 194.683187 102.318327 
L 197.644952 103.257443 
L 200.606717 103.962589 
L 203.568483 104.912276 
L 206.530248 105.736072 
L 209.492013 106.538613 
L 212.453778 107.342741 
L 215.415543 108.098071 
L 218.377309 108.930505 
L 221.339074 109.818017 
L 224.300839 110.565947 
L 227.262604 111.300442 
L 230.224369 112.085254 
L 233.186135 112.828534 
L 236.1479 113.888192 
L 239.109665 114.731143 
L 242.07143 115.523581 
L 245.033195 116.338247 
L 247.994961 117.263789 
L 250.956726 118.285834 
L 253.918491 119.295519 
L 256.880256 120.093644 
L 259.842021 120.929475 
L 262.803787 121.843221 
L 265.765552 122.785619 
L 268.727317 123.821311 
L 271.689082 124.778766 
L 274.650847 125.80857 
L 277.612613 126.84631 
L 280.574378 127.886035 
L 283.536143 128.878726 
L 286.497908 129.783934 
L 289.459673 130.78283 
L 292.421439 131.821531 
L 295.383204 133.026484 
L 298.344969 134.442209 
L 301.306734 135.820344 
L 304.268499 137.113512 
L 307.230265 138.283356 
L 310.19203 139.91912 
L 313.153795 141.333982 
L 316.11556 142.616864 
L 319.077326 143.96965 
L 322.039091 145.289832 
L 325.000856 146.867353 
L 327.962621 148.849046 
L 330.924386 150.471089 
L 333.886152 152.223975 
L 336.847917 154.397583 
L 339.809682 156.469712 
L 342.771447 158.689925 
L 345.733212 162.120521 
L 348.694978 164.484009 
L 351.656743 173.01522 
" clip-path="url(#p85ad1c5157)" style="fill: none; stroke: #9467bd; stroke-width: 1.5; stroke-linecap: round"/>
   </g>
   <g id="line2d_18">
    <path d="M 58.441988 45.723231 
L 351.656743 300.24358 
" clip-path="url(#p85ad1c5157)" style="fill: none; stroke-dasharray: 7.4,3.2; stroke-dashoffset: 0; stroke: #000000; stroke-width: 2"/>
   </g>
   <g id="patch_3">
    <path d="M 43.78125 313.478125 
L 43.78125 22.318125 
" style="fill: none; stroke: #ffffff; stroke-width: 0.8; stroke-linejoin: miter; stroke-linecap: square"/>
   </g>
   <g id="patch_4">
    <path d="M 366.31748 313.478125 
L 366.31748 22.318125 
" style="fill: none; stroke: #ffffff; stroke-width: 0.8; stroke-linejoin: miter; stroke-linecap: square"/>
   </g>
   <g id="patch_5">
    <path d="M 43.78125 313.478125 
L 366.31748 313.478125 
" style="fill: none; stroke: #ffffff; stroke-width: 0.8; stroke-linejoin: miter; stroke-linecap: square"/>
   </g>
   <g id="patch_6">
    <path d="M 43.78125 22.318125 
L 366.31748 22.318125 
" style="fill: none; stroke: #ffffff; stroke-width: 0.8; stroke-linejoin: miter; stroke-linecap: square"/>
   </g>
   <g id="text_15">
    <!-- PR Curve -->
    <g style="fill: #262626" transform="translate(177.65374 16.318125) scale(0.12 -0.12)">
     <defs>
      <path id="DejaVuSans-20" transform="scale(0.015625)"/>
      <path id="DejaVuSans-43" d="M 4122 4306 
L 4122 3641 
Q 3803 3938 3442 4084 
Q 3081 4231 2675 4231 
Q 1875 4231 1450 3742 
Q 1025 3253 1025 2328 
Q 1025 1406 1450 917 
Q 1875 428 2675 428 
Q 3081 428 3442 575 
Q 3803 722 4122 1019 
L 4122 359 
Q 3791 134 3420 21 
Q 3050 -91 2638 -91 
Q 1578 -91 968 557 
Q 359 1206 359 2328 
Q 359 3453 968 4101 
Q 1578 4750 2638 4750 
Q 3056 4750 3426 4639 
Q 3797 4528 4122 4306 
z
" transform="scale(0.015625)"/>
      <path id="DejaVuSans-75" d="M 544 1381 
L 544 3500 
L 1119 3500 
L 1119 1403 
Q 1119 906 1312 657 
Q 1506 409 1894 409 
Q 2359 409 2629 706 
Q 2900 1003 2900 1516 
L 2900 3500 
L 3475 3500 
L 3475 0 
L 2900 0 
L 2900 538 
Q 2691 219 2414 64 
Q 2138 -91 1772 -91 
Q 1169 -91 856 284 
Q 544 659 544 1381 
z
M 1991 3584 
L 1991 3584 
z
" transform="scale(0.015625)"/>
      <path id="DejaVuSans-76" d="M 191 3500 
L 800 3500 
L 1894 563 
L 2988 3500 
L 3597 3500 
L 2284 0 
L 1503 0 
L 191 3500 
z
" transform="scale(0.015625)"/>
     </defs>
     <use xlink:href="#DejaVuSans-50"/>
     <use xlink:href="#DejaVuSans-52" transform="translate(60.302734 0)"/>
     <use xlink:href="#DejaVuSans-20" transform="translate(129.785156 0)"/>
     <use xlink:href="#DejaVuSans-43" transform="translate(161.572266 0)"/>
     <use xlink:href="#DejaVuSans-75" transform="translate(231.396484 0)"/>
     <use xlink:href="#DejaVuSans-72" transform="translate(294.775391 0)"/>
     <use xlink:href="#DejaVuSans-76" transform="translate(335.888672 0)"/>
     <use xlink:href="#DejaVuSans-65" transform="translate(395.068359 0)"/>
    </g>
   </g>
   <g id="legend_1">
    <g id="patch_7">
     <path d="M 373.31748 213.4325 
L 558.91748 213.4325 
Q 560.91748 213.4325 560.91748 211.4325 
L 560.91748 124.36375 
Q 560.91748 122.36375 558.91748 122.36375 
L 373.31748 122.36375 
Q 371.31748 122.36375 371.31748 124.36375 
L 371.31748 211.4325 
Q 371.31748 213.4325 373.31748 213.4325 
z
" style="fill: #eaeaf2; opacity: 0.8; stroke: #cccccc; stroke-linejoin: miter"/>
    </g>
    <g id="line2d_19">
     <path d="M 375.31748 130.462188 
L 385.31748 130.462188 
L 395.31748 130.462188 
" style="fill: none; stroke: #1f77b4; stroke-width: 1.5; stroke-linecap: round"/>
    </g>
    <g id="text_16">
     <!-- 0% Noise (AUC$ = 0.81 \pm  0.05$) -->
     <g style="fill: #262626" transform="translate(403.31748 133.962188) scale(0.1 -0.1)">
      <defs>
       <path id="DejaVuSans-25" d="M 4653 2053 
Q 4381 2053 4226 1822 
Q 4072 1591 4072 1178 
Q 4072 772 4226 539 
Q 4381 306 4653 306 
Q 4919 306 5073 539 
Q 5228 772 5228 1178 
Q 5228 1588 5073 1820 
Q 4919 2053 4653 2053 
z
M 4653 2450 
Q 5147 2450 5437 2106 
Q 5728 1763 5728 1178 
Q 5728 594 5436 251 
Q 5144 -91 4653 -91 
Q 4153 -91 3862 251 
Q 3572 594 3572 1178 
Q 3572 1766 3864 2108 
Q 4156 2450 4653 2450 
z
M 1428 4353 
Q 1159 4353 1004 4120 
Q 850 3888 850 3481 
Q 850 3069 1003 2837 
Q 1156 2606 1428 2606 
Q 1700 2606 1854 2837 
Q 2009 3069 2009 3481 
Q 2009 3884 1853 4118 
Q 1697 4353 1428 4353 
z
M 4250 4750 
L 4750 4750 
L 1831 -91 
L 1331 -91 
L 4250 4750 
z
M 1428 4750 
Q 1922 4750 2215 4408 
Q 2509 4066 2509 3481 
Q 2509 2891 2217 2550 
Q 1925 2209 1428 2209 
Q 931 2209 642 2551 
Q 353 2894 353 3481 
Q 353 4063 643 4406 
Q 934 4750 1428 4750 
z
" transform="scale(0.015625)"/>
       <path id="DejaVuSans-4e" d="M 628 4666 
L 1478 4666 
L 3547 763 
L 3547 4666 
L 4159 4666 
L 4159 0 
L 3309 0 
L 1241 3903 
L 1241 0 
L 628 0 
L 628 4666 
z
" transform="scale(0.015625)"/>
       <path id="DejaVuSans-28" d="M 1984 4856 
Q 1566 4138 1362 3434 
Q 1159 2731 1159 2009 
Q 1159 1288 1364 580 
Q 1569 -128 1984 -844 
L 1484 -844 
Q 1016 -109 783 600 
Q 550 1309 550 2009 
Q 550 2706 781 3412 
Q 1013 4119 1484 4856 
L 1984 4856 
z
" transform="scale(0.015625)"/>
       <path id="DejaVuSans-41" d="M 2188 4044 
L 1331 1722 
L 3047 1722 
L 2188 4044 
z
M 1831 4666 
L 2547 4666 
L 4325 0 
L 3669 0 
L 3244 1197 
L 1141 1197 
L 716 0 
L 50 0 
L 1831 4666 
z
" transform="scale(0.015625)"/>
       <path id="DejaVuSans-55" d="M 556 4666 
L 1191 4666 
L 1191 1831 
Q 1191 1081 1462 751 
Q 1734 422 2344 422 
Q 2950 422 3222 751 
Q 3494 1081 3494 1831 
L 3494 4666 
L 4128 4666 
L 4128 1753 
Q 4128 841 3676 375 
Q 3225 -91 2344 -91 
Q 1459 -91 1007 375 
Q 556 841 556 1753 
L 556 4666 
z
" transform="scale(0.015625)"/>
       <path id="DejaVuSans-3d" d="M 678 2906 
L 4684 2906 
L 4684 2381 
L 678 2381 
L 678 2906 
z
M 678 1631 
L 4684 1631 
L 4684 1100 
L 678 1100 
L 678 1631 
z
" transform="scale(0.015625)"/>
       <path id="DejaVuSans-b1" d="M 2944 4013 
L 2944 2803 
L 4684 2803 
L 4684 2272 
L 2944 2272 
L 2944 1063 
L 2419 1063 
L 2419 2272 
L 678 2272 
L 678 2803 
L 2419 2803 
L 2419 4013 
L 2944 4013 
z
M 678 531 
L 4684 531 
L 4684 0 
L 678 0 
L 678 531 
z
" transform="scale(0.015625)"/>
       <path id="DejaVuSans-35" d="M 691 4666 
L 3169 4666 
L 3169 4134 
L 1269 4134 
L 1269 2991 
Q 1406 3038 1543 3061 
Q 1681 3084 1819 3084 
Q 2600 3084 3056 2656 
Q 3513 2228 3513 1497 
Q 3513 744 3044 326 
Q 2575 -91 1722 -91 
Q 1428 -91 1123 -41 
Q 819 9 494 109 
L 494 744 
Q 775 591 1075 516 
Q 1375 441 1709 441 
Q 2250 441 2565 725 
Q 2881 1009 2881 1497 
Q 2881 1984 2565 2268 
Q 2250 2553 1709 2553 
Q 1456 2553 1204 2497 
Q 953 2441 691 2322 
L 691 4666 
z
" transform="scale(0.015625)"/>
       <path id="DejaVuSans-29" d="M 513 4856 
L 1013 4856 
Q 1481 4119 1714 3412 
Q 1947 2706 1947 2009 
Q 1947 1309 1714 600 
Q 1481 -109 1013 -844 
L 513 -844 
Q 928 -128 1133 580 
Q 1338 1288 1338 2009 
Q 1338 2731 1133 3434 
Q 928 4138 513 4856 
z
" transform="scale(0.015625)"/>
      </defs>
      <use xlink:href="#DejaVuSans-30" transform="translate(0 0.015625)"/>
      <use xlink:href="#DejaVuSans-25" transform="translate(63.623047 0.015625)"/>
      <use xlink:href="#DejaVuSans-20" transform="translate(158.642578 0.015625)"/>
      <use xlink:href="#DejaVuSans-4e" transform="translate(190.429688 0.015625)"/>
      <use xlink:href="#DejaVuSans-6f" transform="translate(265.234375 0.015625)"/>
      <use xlink:href="#DejaVuSans-69" transform="translate(326.416016 0.015625)"/>
      <use xlink:href="#DejaVuSans-73" transform="translate(354.199219 0.015625)"/>
      <use xlink:href="#DejaVuSans-65" transform="translate(406.298828 0.015625)"/>
      <use xlink:href="#DejaVuSans-20" transform="translate(467.822266 0.015625)"/>
      <use xlink:href="#DejaVuSans-28" transform="translate(499.609375 0.015625)"/>
      <use xlink:href="#DejaVuSans-41" transform="translate(538.623047 0.015625)"/>
      <use xlink:href="#DejaVuSans-55" transform="translate(607.03125 0.015625)"/>
      <use xlink:href="#DejaVuSans-43" transform="translate(680.224609 0.015625)"/>
      <use xlink:href="#DejaVuSans-3d" transform="translate(769.53125 0.015625)"/>
      <use xlink:href="#DejaVuSans-30" transform="translate(872.802734 0.015625)"/>
      <use xlink:href="#DejaVuSans-2e" transform="translate(936.425781 0.015625)"/>
      <use xlink:href="#DejaVuSans-38" transform="translate(965.587891 0.015625)"/>
      <use xlink:href="#DejaVuSans-31" transform="translate(1029.210938 0.015625)"/>
      <use xlink:href="#DejaVuSans-b1" transform="translate(1112.316406 0.015625)"/>
      <use xlink:href="#DejaVuSans-30" transform="translate(1215.587891 0.015625)"/>
      <use xlink:href="#DejaVuSans-2e" transform="translate(1279.210938 0.015625)"/>
      <use xlink:href="#DejaVuSans-30" transform="translate(1310.998047 0.015625)"/>
      <use xlink:href="#DejaVuSans-35" transform="translate(1374.621094 0.015625)"/>
      <use xlink:href="#DejaVuSans-29" transform="translate(1438.244141 0.015625)"/>
     </g>
    </g>
    <g id="line2d_20">
     <path d="M 375.31748 145.140313 
L 385.31748 145.140313 
L 395.31748 145.140313 
" style="fill: none; stroke: #ff7f0e; stroke-width: 1.5; stroke-linecap: round"/>
    </g>
    <g id="text_17">
     <!-- 5% Noise (AUC$ = 0.79 \pm  0.06$) -->
     <g style="fill: #262626" transform="translate(403.31748 148.640313) scale(0.1 -0.1)">
      <defs>
       <path id="DejaVuSans-37" d="M 525 4666 
L 3525 4666 
L 3525 4397 
L 1831 0 
L 1172 0 
L 2766 4134 
L 525 4134 
L 525 4666 
z
" transform="scale(0.015625)"/>
       <path id="DejaVuSans-39" d="M 703 97 
L 703 672 
Q 941 559 1184 500 
Q 1428 441 1663 441 
Q 2288 441 2617 861 
Q 2947 1281 2994 2138 
Q 2813 1869 2534 1725 
Q 2256 1581 1919 1581 
Q 1219 1581 811 2004 
Q 403 2428 403 3163 
Q 403 3881 828 4315 
Q 1253 4750 1959 4750 
Q 2769 4750 3195 4129 
Q 3622 3509 3622 2328 
Q 3622 1225 3098 567 
Q 2575 -91 1691 -91 
Q 1453 -91 1209 -44 
Q 966 3 703 97 
z
M 1959 2075 
Q 2384 2075 2632 2365 
Q 2881 2656 2881 3163 
Q 2881 3666 2632 3958 
Q 2384 4250 1959 4250 
Q 1534 4250 1286 3958 
Q 1038 3666 1038 3163 
Q 1038 2656 1286 2365 
Q 1534 2075 1959 2075 
z
" transform="scale(0.015625)"/>
      </defs>
      <use xlink:href="#DejaVuSans-35" transform="translate(0 0.015625)"/>
      <use xlink:href="#DejaVuSans-25" transform="translate(63.623047 0.015625)"/>
      <use xlink:href="#DejaVuSans-20" transform="translate(158.642578 0.015625)"/>
      <use xlink:href="#DejaVuSans-4e" transform="translate(190.429688 0.015625)"/>
      <use xlink:href="#DejaVuSans-6f" transform="translate(265.234375 0.015625)"/>
      <use xlink:href="#DejaVuSans-69" transform="translate(326.416016 0.015625)"/>
      <use xlink:href="#DejaVuSans-73" transform="translate(354.199219 0.015625)"/>
      <use xlink:href="#DejaVuSans-65" transform="translate(406.298828 0.015625)"/>
      <use xlink:href="#DejaVuSans-20" transform="translate(467.822266 0.015625)"/>
      <use xlink:href="#DejaVuSans-28" transform="translate(499.609375 0.015625)"/>
      <use xlink:href="#DejaVuSans-41" transform="translate(538.623047 0.015625)"/>
      <use xlink:href="#DejaVuSans-55" transform="translate(607.03125 0.015625)"/>
      <use xlink:href="#DejaVuSans-43" transform="translate(680.224609 0.015625)"/>
      <use xlink:href="#DejaVuSans-3d" transform="translate(769.53125 0.015625)"/>
      <use xlink:href="#DejaVuSans-30" transform="translate(872.802734 0.015625)"/>
      <use xlink:href="#DejaVuSans-2e" transform="translate(936.425781 0.015625)"/>
      <use xlink:href="#DejaVuSans-37" transform="translate(960.462891 0.015625)"/>
      <use xlink:href="#DejaVuSans-39" transform="translate(1024.085938 0.015625)"/>
      <use xlink:href="#DejaVuSans-b1" transform="translate(1107.191406 0.015625)"/>
      <use xlink:href="#DejaVuSans-30" transform="translate(1210.462891 0.015625)"/>
      <use xlink:href="#DejaVuSans-2e" transform="translate(1274.085938 0.015625)"/>
      <use xlink:href="#DejaVuSans-30" transform="translate(1305.873047 0.015625)"/>
      <use xlink:href="#DejaVuSans-36" transform="translate(1369.496094 0.015625)"/>
      <use xlink:href="#DejaVuSans-29" transform="translate(1433.119141 0.015625)"/>
     </g>
    </g>
    <g id="line2d_21">
     <path d="M 375.31748 159.818438 
L 385.31748 159.818438 
L 395.31748 159.818438 
" style="fill: none; stroke: #2ca02c; stroke-width: 1.5; stroke-linecap: round"/>
    </g>
    <g id="text_18">
     <!-- 10% Noise (AUC$ = 0.77 \pm  0.06$) -->
     <g style="fill: #262626" transform="translate(403.31748 163.318438) scale(0.1 -0.1)">
      <use xlink:href="#DejaVuSans-31" transform="translate(0 0.015625)"/>
      <use xlink:href="#DejaVuSans-30" transform="translate(63.623047 0.015625)"/>
      <use xlink:href="#DejaVuSans-25" transform="translate(127.246094 0.015625)"/>
      <use xlink:href="#DejaVuSans-20" transform="translate(222.265625 0.015625)"/>
      <use xlink:href="#DejaVuSans-4e" transform="translate(254.052734 0.015625)"/>
      <use xlink:href="#DejaVuSans-6f" transform="translate(328.857422 0.015625)"/>
      <use xlink:href="#DejaVuSans-69" transform="translate(390.039062 0.015625)"/>
      <use xlink:href="#DejaVuSans-73" transform="translate(417.822266 0.015625)"/>
      <use xlink:href="#DejaVuSans-65" transform="translate(469.921875 0.015625)"/>
      <use xlink:href="#DejaVuSans-20" transform="translate(531.445312 0.015625)"/>
      <use xlink:href="#DejaVuSans-28" transform="translate(563.232422 0.015625)"/>
      <use xlink:href="#DejaVuSans-41" transform="translate(602.246094 0.015625)"/>
      <use xlink:href="#DejaVuSans-55" transform="translate(670.654297 0.015625)"/>
      <use xlink:href="#DejaVuSans-43" transform="translate(743.847656 0.015625)"/>
      <use xlink:href="#DejaVuSans-3d" transform="translate(833.154297 0.015625)"/>
      <use xlink:href="#DejaVuSans-30" transform="translate(936.425781 0.015625)"/>
      <use xlink:href="#DejaVuSans-2e" transform="translate(1000.048828 0.015625)"/>
      <use xlink:href="#DejaVuSans-37" transform="translate(1024.085938 0.015625)"/>
      <use xlink:href="#DejaVuSans-37" transform="translate(1085.958984 0.015625)"/>
      <use xlink:href="#DejaVuSans-b1" transform="translate(1169.064453 0.015625)"/>
      <use xlink:href="#DejaVuSans-30" transform="translate(1272.335938 0.015625)"/>
      <use xlink:href="#DejaVuSans-2e" transform="translate(1335.958984 0.015625)"/>
      <use xlink:href="#DejaVuSans-30" transform="translate(1367.746094 0.015625)"/>
      <use xlink:href="#DejaVuSans-36" transform="translate(1431.369141 0.015625)"/>
      <use xlink:href="#DejaVuSans-29" transform="translate(1494.992188 0.015625)"/>
     </g>
    </g>
    <g id="line2d_22">
     <path d="M 375.31748 174.496563 
L 385.31748 174.496563 
L 395.31748 174.496563 
" style="fill: none; stroke: #d62728; stroke-width: 1.5; stroke-linecap: round"/>
    </g>
    <g id="text_19">
     <!-- 15% Noise (AUC$ = 0.76 \pm  0.06$) -->
     <g style="fill: #262626" transform="translate(403.31748 177.996563) scale(0.1 -0.1)">
      <use xlink:href="#DejaVuSans-31" transform="translate(0 0.015625)"/>
      <use xlink:href="#DejaVuSans-35" transform="translate(63.623047 0.015625)"/>
      <use xlink:href="#DejaVuSans-25" transform="translate(127.246094 0.015625)"/>
      <use xlink:href="#DejaVuSans-20" transform="translate(222.265625 0.015625)"/>
      <use xlink:href="#DejaVuSans-4e" transform="translate(254.052734 0.015625)"/>
      <use xlink:href="#DejaVuSans-6f" transform="translate(328.857422 0.015625)"/>
      <use xlink:href="#DejaVuSans-69" transform="translate(390.039062 0.015625)"/>
      <use xlink:href="#DejaVuSans-73" transform="translate(417.822266 0.015625)"/>
      <use xlink:href="#DejaVuSans-65" transform="translate(469.921875 0.015625)"/>
      <use xlink:href="#DejaVuSans-20" transform="translate(531.445312 0.015625)"/>
      <use xlink:href="#DejaVuSans-28" transform="translate(563.232422 0.015625)"/>
      <use xlink:href="#DejaVuSans-41" transform="translate(602.246094 0.015625)"/>
      <use xlink:href="#DejaVuSans-55" transform="translate(670.654297 0.015625)"/>
      <use xlink:href="#DejaVuSans-43" transform="translate(743.847656 0.015625)"/>
      <use xlink:href="#DejaVuSans-3d" transform="translate(833.154297 0.015625)"/>
      <use xlink:href="#DejaVuSans-30" transform="translate(936.425781 0.015625)"/>
      <use xlink:href="#DejaVuSans-2e" transform="translate(1000.048828 0.015625)"/>
      <use xlink:href="#DejaVuSans-37" transform="translate(1024.085938 0.015625)"/>
      <use xlink:href="#DejaVuSans-36" transform="translate(1087.708984 0.015625)"/>
      <use xlink:href="#DejaVuSans-b1" transform="translate(1170.814453 0.015625)"/>
      <use xlink:href="#DejaVuSans-30" transform="translate(1274.085938 0.015625)"/>
      <use xlink:href="#DejaVuSans-2e" transform="translate(1337.708984 0.015625)"/>
      <use xlink:href="#DejaVuSans-30" transform="translate(1369.496094 0.015625)"/>
      <use xlink:href="#DejaVuSans-36" transform="translate(1433.119141 0.015625)"/>
      <use xlink:href="#DejaVuSans-29" transform="translate(1496.742188 0.015625)"/>
     </g>
    </g>
    <g id="line2d_23">
     <path d="M 375.31748 189.174688 
L 385.31748 189.174688 
L 395.31748 189.174688 
" style="fill: none; stroke: #9467bd; stroke-width: 1.5; stroke-linecap: round"/>
    </g>
    <g id="text_20">
     <!-- 20% Noise (AUC$ = 0.74 \pm  0.06$) -->
     <g style="fill: #262626" transform="translate(403.31748 192.674688) scale(0.1 -0.1)">
      <use xlink:href="#DejaVuSans-32" transform="translate(0 0.015625)"/>
      <use xlink:href="#DejaVuSans-30" transform="translate(63.623047 0.015625)"/>
      <use xlink:href="#DejaVuSans-25" transform="translate(127.246094 0.015625)"/>
      <use xlink:href="#DejaVuSans-20" transform="translate(222.265625 0.015625)"/>
      <use xlink:href="#DejaVuSans-4e" transform="translate(254.052734 0.015625)"/>
      <use xlink:href="#DejaVuSans-6f" transform="translate(328.857422 0.015625)"/>
      <use xlink:href="#DejaVuSans-69" transform="translate(390.039062 0.015625)"/>
      <use xlink:href="#DejaVuSans-73" transform="translate(417.822266 0.015625)"/>
      <use xlink:href="#DejaVuSans-65" transform="translate(469.921875 0.015625)"/>
      <use xlink:href="#DejaVuSans-20" transform="translate(531.445312 0.015625)"/>
      <use xlink:href="#DejaVuSans-28" transform="translate(563.232422 0.015625)"/>
      <use xlink:href="#DejaVuSans-41" transform="translate(602.246094 0.015625)"/>
      <use xlink:href="#DejaVuSans-55" transform="translate(670.654297 0.015625)"/>
      <use xlink:href="#DejaVuSans-43" transform="translate(743.847656 0.015625)"/>
      <use xlink:href="#DejaVuSans-3d" transform="translate(833.154297 0.015625)"/>
      <use xlink:href="#DejaVuSans-30" transform="translate(936.425781 0.015625)"/>
      <use xlink:href="#DejaVuSans-2e" transform="translate(1000.048828 0.015625)"/>
      <use xlink:href="#DejaVuSans-37" transform="translate(1024.085938 0.015625)"/>
      <use xlink:href="#DejaVuSans-34" transform="translate(1087.708984 0.015625)"/>
      <use xlink:href="#DejaVuSans-b1" transform="translate(1170.814453 0.015625)"/>
      <use xlink:href="#DejaVuSans-30" transform="translate(1274.085938 0.015625)"/>
      <use xlink:href="#DejaVuSans-2e" transform="translate(1337.708984 0.015625)"/>
      <use xlink:href="#DejaVuSans-30" transform="translate(1369.496094 0.015625)"/>
      <use xlink:href="#DejaVuSans-36" transform="translate(1433.119141 0.015625)"/>
      <use xlink:href="#DejaVuSans-29" transform="translate(1496.742188 0.015625)"/>
     </g>
    </g>
    <g id="line2d_24">
     <path d="M 375.31748 203.852813 
L 385.31748 203.852813 
L 395.31748 203.852813 
" style="fill: none; stroke-dasharray: 7.4,3.2; stroke-dashoffset: 0; stroke: #000000; stroke-width: 2"/>
    </g>
    <g id="text_21">
     <!-- Random Chance -->
     <g style="fill: #262626" transform="translate(403.31748 207.352813) scale(0.1 -0.1)">
      <defs>
       <path id="DejaVuSans-64" d="M 2906 2969 
L 2906 4863 
L 3481 4863 
L 3481 0 
L 2906 0 
L 2906 525 
Q 2725 213 2448 61 
Q 2172 -91 1784 -91 
Q 1150 -91 751 415 
Q 353 922 353 1747 
Q 353 2572 751 3078 
Q 1150 3584 1784 3584 
Q 2172 3584 2448 3432 
Q 2725 3281 2906 2969 
z
M 947 1747 
Q 947 1113 1208 752 
Q 1469 391 1925 391 
Q 2381 391 2643 752 
Q 2906 1113 2906 1747 
Q 2906 2381 2643 2742 
Q 2381 3103 1925 3103 
Q 1469 3103 1208 2742 
Q 947 2381 947 1747 
z
" transform="scale(0.015625)"/>
       <path id="DejaVuSans-6d" d="M 3328 2828 
Q 3544 3216 3844 3400 
Q 4144 3584 4550 3584 
Q 5097 3584 5394 3201 
Q 5691 2819 5691 2113 
L 5691 0 
L 5113 0 
L 5113 2094 
Q 5113 2597 4934 2840 
Q 4756 3084 4391 3084 
Q 3944 3084 3684 2787 
Q 3425 2491 3425 1978 
L 3425 0 
L 2847 0 
L 2847 2094 
Q 2847 2600 2669 2842 
Q 2491 3084 2119 3084 
Q 1678 3084 1418 2786 
Q 1159 2488 1159 1978 
L 1159 0 
L 581 0 
L 581 3500 
L 1159 3500 
L 1159 2956 
Q 1356 3278 1631 3431 
Q 1906 3584 2284 3584 
Q 2666 3584 2933 3390 
Q 3200 3197 3328 2828 
z
" transform="scale(0.015625)"/>
       <path id="DejaVuSans-68" d="M 3513 2113 
L 3513 0 
L 2938 0 
L 2938 2094 
Q 2938 2591 2744 2837 
Q 2550 3084 2163 3084 
Q 1697 3084 1428 2787 
Q 1159 2491 1159 1978 
L 1159 0 
L 581 0 
L 581 4863 
L 1159 4863 
L 1159 2956 
Q 1366 3272 1645 3428 
Q 1925 3584 2291 3584 
Q 2894 3584 3203 3211 
Q 3513 2838 3513 2113 
z
" transform="scale(0.015625)"/>
      </defs>
      <use xlink:href="#DejaVuSans-52"/>
      <use xlink:href="#DejaVuSans-61" transform="translate(67.232422 0)"/>
      <use xlink:href="#DejaVuSans-6e" transform="translate(128.511719 0)"/>
      <use xlink:href="#DejaVuSans-64" transform="translate(191.890625 0)"/>
      <use xlink:href="#DejaVuSans-6f" transform="translate(255.367188 0)"/>
      <use xlink:href="#DejaVuSans-6d" transform="translate(316.548828 0)"/>
      <use xlink:href="#DejaVuSans-20" transform="translate(413.960938 0)"/>
      <use xlink:href="#DejaVuSans-43" transform="translate(445.748047 0)"/>
      <use xlink:href="#DejaVuSans-68" transform="translate(515.572266 0)"/>
      <use xlink:href="#DejaVuSans-61" transform="translate(578.951172 0)"/>
      <use xlink:href="#DejaVuSans-6e" transform="translate(640.230469 0)"/>
      <use xlink:href="#DejaVuSans-63" transform="translate(703.609375 0)"/>
      <use xlink:href="#DejaVuSans-65" transform="translate(758.589844 0)"/>
     </g>
    </g>
   </g>
  </g>
 </g>
 <defs>
  <clipPath id="p85ad1c5157">
   <rect x="43.78125" y="22.318125" width="322.53623" height="291.16"/>
  </clipPath>
 </defs>
</svg>
