<?xml version="1.0" encoding="utf-8" standalone="no"?>
<!DOCTYPE svg PUBLIC "-//W3C//DTD SVG 1.1//EN"
  "http://www.w3.org/Graphics/SVG/1.1/DTD/svg11.dtd">
<svg xmlns:xlink="http://www.w3.org/1999/xlink" width="568.07748pt" height="351.034375pt" viewBox="0 0 568.07748 351.034375" xmlns="http://www.w3.org/2000/svg" version="1.1">
 <metadata>
  <rdf:RDF xmlns:dc="http://purl.org/dc/elements/1.1/" xmlns:cc="http://creativecommons.org/ns#" xmlns:rdf="http://www.w3.org/1999/02/22-rdf-syntax-ns#">
   <cc:Work>
    <dc:type rdf:resource="http://purl.org/dc/dcmitype/StillImage"/>
    <dc:date>2025-05-21T10:57:01.403641</dc:date>
    <dc:format>image/svg+xml</dc:format>
    <dc:creator>
     <cc:Agent>
      <dc:title>Matplotlib v3.10.0, https://matplotlib.org/</dc:title>
     </cc:Agent>
    </dc:creator>
   </cc:Work>
  </rdf:RDF>
 </metadata>
 <defs>
  <style type="text/css">*{stroke-linejoin: round; stroke-linecap: butt}</style>
 </defs>
 <g id="figure_1">
  <g id="patch_1">
   <path d="M 0 351.034375 
L 568.07748 351.034375 
L 568.07748 0 
L 0 0 
z
" style="fill: #ffffff"/>
  </g>
  <g id="axes_1">
   <g id="patch_2">
    <path d="M 43.78125 313.478125 
L 365.77748 313.478125 
L 365.77748 22.318125 
L 43.78125 22.318125 
z
" style="fill: #eaeaf2"/>
   </g>
   <g id="matplotlib.axis_1">
    <g id="xtick_1">
     <g id="line2d_1">
      <path d="M 58.417442 313.478125 
L 58.417442 22.318125 
" clip-path="url(#pfafea71807)" style="fill: none; stroke-dasharray: 2.96,1.28; stroke-dashoffset: 0; stroke: #ffffff; stroke-opacity: 0.7; stroke-width: 0.8"/>
     </g>
     <g id="text_1">
      <!-- 0.0 -->
      <g style="fill: #262626" transform="translate(50.46588 328.076563) scale(0.1 -0.1)">
       <defs>
        <path id="DejaVuSans-30" d="M 2034 4250 
Q 1547 4250 1301 3770 
Q 1056 3291 1056 2328 
Q 1056 1369 1301 889 
Q 1547 409 2034 409 
Q 2525 409 2770 889 
Q 3016 1369 3016 2328 
Q 3016 3291 2770 3770 
Q 2525 4250 2034 4250 
z
M 2034 4750 
Q 2819 4750 3233 4129 
Q 3647 3509 3647 2328 
Q 3647 1150 3233 529 
Q 2819 -91 2034 -91 
Q 1250 -91 836 529 
Q 422 1150 422 2328 
Q 422 3509 836 4129 
Q 1250 4750 2034 4750 
z
" transform="scale(0.015625)"/>
        <path id="DejaVuSans-2e" d="M 684 794 
L 1344 794 
L 1344 0 
L 684 0 
L 684 794 
z
" transform="scale(0.015625)"/>
       </defs>
       <use xlink:href="#DejaVuSans-30"/>
       <use xlink:href="#DejaVuSans-2e" transform="translate(63.623047 0)"/>
       <use xlink:href="#DejaVuSans-30" transform="translate(95.410156 0)"/>
      </g>
     </g>
    </g>
    <g id="xtick_2">
     <g id="line2d_2">
      <path d="M 116.962211 313.478125 
L 116.962211 22.318125 
" clip-path="url(#pfafea71807)" style="fill: none; stroke-dasharray: 2.96,1.28; stroke-dashoffset: 0; stroke: #ffffff; stroke-opacity: 0.7; stroke-width: 0.8"/>
     </g>
     <g id="text_2">
      <!-- 0.2 -->
      <g style="fill: #262626" transform="translate(109.010649 328.076563) scale(0.1 -0.1)">
       <defs>
        <path id="DejaVuSans-32" d="M 1228 531 
L 3431 531 
L 3431 0 
L 469 0 
L 469 531 
Q 828 903 1448 1529 
Q 2069 2156 2228 2338 
Q 2531 2678 2651 2914 
Q 2772 3150 2772 3378 
Q 2772 3750 2511 3984 
Q 2250 4219 1831 4219 
Q 1534 4219 1204 4116 
Q 875 4013 500 3803 
L 500 4441 
Q 881 4594 1212 4672 
Q 1544 4750 1819 4750 
Q 2544 4750 2975 4387 
Q 3406 4025 3406 3419 
Q 3406 3131 3298 2873 
Q 3191 2616 2906 2266 
Q 2828 2175 2409 1742 
Q 1991 1309 1228 531 
z
" transform="scale(0.015625)"/>
       </defs>
       <use xlink:href="#DejaVuSans-30"/>
       <use xlink:href="#DejaVuSans-2e" transform="translate(63.623047 0)"/>
       <use xlink:href="#DejaVuSans-32" transform="translate(95.410156 0)"/>
      </g>
     </g>
    </g>
    <g id="xtick_3">
     <g id="line2d_3">
      <path d="M 175.506981 313.478125 
L 175.506981 22.318125 
" clip-path="url(#pfafea71807)" style="fill: none; stroke-dasharray: 2.96,1.28; stroke-dashoffset: 0; stroke: #ffffff; stroke-opacity: 0.7; stroke-width: 0.8"/>
     </g>
     <g id="text_3">
      <!-- 0.4 -->
      <g style="fill: #262626" transform="translate(167.555418 328.076563) scale(0.1 -0.1)">
       <defs>
        <path id="DejaVuSans-34" d="M 2419 4116 
L 825 1625 
L 2419 1625 
L 2419 4116 
z
M 2253 4666 
L 3047 4666 
L 3047 1625 
L 3713 1625 
L 3713 1100 
L 3047 1100 
L 3047 0 
L 2419 0 
L 2419 1100 
L 313 1100 
L 313 1709 
L 2253 4666 
z
" transform="scale(0.015625)"/>
       </defs>
       <use xlink:href="#DejaVuSans-30"/>
       <use xlink:href="#DejaVuSans-2e" transform="translate(63.623047 0)"/>
       <use xlink:href="#DejaVuSans-34" transform="translate(95.410156 0)"/>
      </g>
     </g>
    </g>
    <g id="xtick_4">
     <g id="line2d_4">
      <path d="M 234.05175 313.478125 
L 234.05175 22.318125 
" clip-path="url(#pfafea71807)" style="fill: none; stroke-dasharray: 2.96,1.28; stroke-dashoffset: 0; stroke: #ffffff; stroke-opacity: 0.7; stroke-width: 0.8"/>
     </g>
     <g id="text_4">
      <!-- 0.6 -->
      <g style="fill: #262626" transform="translate(226.100187 328.076563) scale(0.1 -0.1)">
       <defs>
        <path id="DejaVuSans-36" d="M 2113 2584 
Q 1688 2584 1439 2293 
Q 1191 2003 1191 1497 
Q 1191 994 1439 701 
Q 1688 409 2113 409 
Q 2538 409 2786 701 
Q 3034 994 3034 1497 
Q 3034 2003 2786 2293 
Q 2538 2584 2113 2584 
z
M 3366 4563 
L 3366 3988 
Q 3128 4100 2886 4159 
Q 2644 4219 2406 4219 
Q 1781 4219 1451 3797 
Q 1122 3375 1075 2522 
Q 1259 2794 1537 2939 
Q 1816 3084 2150 3084 
Q 2853 3084 3261 2657 
Q 3669 2231 3669 1497 
Q 3669 778 3244 343 
Q 2819 -91 2113 -91 
Q 1303 -91 875 529 
Q 447 1150 447 2328 
Q 447 3434 972 4092 
Q 1497 4750 2381 4750 
Q 2619 4750 2861 4703 
Q 3103 4656 3366 4563 
z
" transform="scale(0.015625)"/>
       </defs>
       <use xlink:href="#DejaVuSans-30"/>
       <use xlink:href="#DejaVuSans-2e" transform="translate(63.623047 0)"/>
       <use xlink:href="#DejaVuSans-36" transform="translate(95.410156 0)"/>
      </g>
     </g>
    </g>
    <g id="xtick_5">
     <g id="line2d_5">
      <path d="M 292.596519 313.478125 
L 292.596519 22.318125 
" clip-path="url(#pfafea71807)" style="fill: none; stroke-dasharray: 2.96,1.28; stroke-dashoffset: 0; stroke: #ffffff; stroke-opacity: 0.7; stroke-width: 0.8"/>
     </g>
     <g id="text_5">
      <!-- 0.8 -->
      <g style="fill: #262626" transform="translate(284.644956 328.076563) scale(0.1 -0.1)">
       <defs>
        <path id="DejaVuSans-38" d="M 2034 2216 
Q 1584 2216 1326 1975 
Q 1069 1734 1069 1313 
Q 1069 891 1326 650 
Q 1584 409 2034 409 
Q 2484 409 2743 651 
Q 3003 894 3003 1313 
Q 3003 1734 2745 1975 
Q 2488 2216 2034 2216 
z
M 1403 2484 
Q 997 2584 770 2862 
Q 544 3141 544 3541 
Q 544 4100 942 4425 
Q 1341 4750 2034 4750 
Q 2731 4750 3128 4425 
Q 3525 4100 3525 3541 
Q 3525 3141 3298 2862 
Q 3072 2584 2669 2484 
Q 3125 2378 3379 2068 
Q 3634 1759 3634 1313 
Q 3634 634 3220 271 
Q 2806 -91 2034 -91 
Q 1263 -91 848 271 
Q 434 634 434 1313 
Q 434 1759 690 2068 
Q 947 2378 1403 2484 
z
M 1172 3481 
Q 1172 3119 1398 2916 
Q 1625 2713 2034 2713 
Q 2441 2713 2670 2916 
Q 2900 3119 2900 3481 
Q 2900 3844 2670 4047 
Q 2441 4250 2034 4250 
Q 1625 4250 1398 4047 
Q 1172 3844 1172 3481 
z
" transform="scale(0.015625)"/>
       </defs>
       <use xlink:href="#DejaVuSans-30"/>
       <use xlink:href="#DejaVuSans-2e" transform="translate(63.623047 0)"/>
       <use xlink:href="#DejaVuSans-38" transform="translate(95.410156 0)"/>
      </g>
     </g>
    </g>
    <g id="xtick_6">
     <g id="line2d_6">
      <path d="M 351.141288 313.478125 
L 351.141288 22.318125 
" clip-path="url(#pfafea71807)" style="fill: none; stroke-dasharray: 2.96,1.28; stroke-dashoffset: 0; stroke: #ffffff; stroke-opacity: 0.7; stroke-width: 0.8"/>
     </g>
     <g id="text_6">
      <!-- 1.0 -->
      <g style="fill: #262626" transform="translate(343.189726 328.076563) scale(0.1 -0.1)">
       <defs>
        <path id="DejaVuSans-31" d="M 794 531 
L 1825 531 
L 1825 4091 
L 703 3866 
L 703 4441 
L 1819 4666 
L 2450 4666 
L 2450 531 
L 3481 531 
L 3481 0 
L 794 0 
L 794 531 
z
" transform="scale(0.015625)"/>
       </defs>
       <use xlink:href="#DejaVuSans-31"/>
       <use xlink:href="#DejaVuSans-2e" transform="translate(63.623047 0)"/>
       <use xlink:href="#DejaVuSans-30" transform="translate(95.410156 0)"/>
      </g>
     </g>
    </g>
    <g id="text_7">
     <!-- False Positive Rate -->
     <g style="fill: #262626" transform="translate(158.312959 341.754687) scale(0.1 -0.1)">
      <defs>
       <path id="DejaVuSans-46" d="M 628 4666 
L 3309 4666 
L 3309 4134 
L 1259 4134 
L 1259 2759 
L 3109 2759 
L 3109 2228 
L 1259 2228 
L 1259 0 
L 628 0 
L 628 4666 
z
" transform="scale(0.015625)"/>
       <path id="DejaVuSans-61" d="M 2194 1759 
Q 1497 1759 1228 1600 
Q 959 1441 959 1056 
Q 959 750 1161 570 
Q 1363 391 1709 391 
Q 2188 391 2477 730 
Q 2766 1069 2766 1631 
L 2766 1759 
L 2194 1759 
z
M 3341 1997 
L 3341 0 
L 2766 0 
L 2766 531 
Q 2569 213 2275 61 
Q 1981 -91 1556 -91 
Q 1019 -91 701 211 
Q 384 513 384 1019 
Q 384 1609 779 1909 
Q 1175 2209 1959 2209 
L 2766 2209 
L 2766 2266 
Q 2766 2663 2505 2880 
Q 2244 3097 1772 3097 
Q 1472 3097 1187 3025 
Q 903 2953 641 2809 
L 641 3341 
Q 956 3463 1253 3523 
Q 1550 3584 1831 3584 
Q 2591 3584 2966 3190 
Q 3341 2797 3341 1997 
z
" transform="scale(0.015625)"/>
       <path id="DejaVuSans-6c" d="M 603 4863 
L 1178 4863 
L 1178 0 
L 603 0 
L 603 4863 
z
" transform="scale(0.015625)"/>
       <path id="DejaVuSans-73" d="M 2834 3397 
L 2834 2853 
Q 2591 2978 2328 3040 
Q 2066 3103 1784 3103 
Q 1356 3103 1142 2972 
Q 928 2841 928 2578 
Q 928 2378 1081 2264 
Q 1234 2150 1697 2047 
L 1894 2003 
Q 2506 1872 2764 1633 
Q 3022 1394 3022 966 
Q 3022 478 2636 193 
Q 2250 -91 1575 -91 
Q 1294 -91 989 -36 
Q 684 19 347 128 
L 347 722 
Q 666 556 975 473 
Q 1284 391 1588 391 
Q 1994 391 2212 530 
Q 2431 669 2431 922 
Q 2431 1156 2273 1281 
Q 2116 1406 1581 1522 
L 1381 1569 
Q 847 1681 609 1914 
Q 372 2147 372 2553 
Q 372 3047 722 3315 
Q 1072 3584 1716 3584 
Q 2034 3584 2315 3537 
Q 2597 3491 2834 3397 
z
" transform="scale(0.015625)"/>
       <path id="DejaVuSans-65" d="M 3597 1894 
L 3597 1613 
L 953 1613 
Q 991 1019 1311 708 
Q 1631 397 2203 397 
Q 2534 397 2845 478 
Q 3156 559 3463 722 
L 3463 178 
Q 3153 47 2828 -22 
Q 2503 -91 2169 -91 
Q 1331 -91 842 396 
Q 353 884 353 1716 
Q 353 2575 817 3079 
Q 1281 3584 2069 3584 
Q 2775 3584 3186 3129 
Q 3597 2675 3597 1894 
z
M 3022 2063 
Q 3016 2534 2758 2815 
Q 2500 3097 2075 3097 
Q 1594 3097 1305 2825 
Q 1016 2553 972 2059 
L 3022 2063 
z
" transform="scale(0.015625)"/>
       <path id="DejaVuSans-20" transform="scale(0.015625)"/>
       <path id="DejaVuSans-50" d="M 1259 4147 
L 1259 2394 
L 2053 2394 
Q 2494 2394 2734 2622 
Q 2975 2850 2975 3272 
Q 2975 3691 2734 3919 
Q 2494 4147 2053 4147 
L 1259 4147 
z
M 628 4666 
L 2053 4666 
Q 2838 4666 3239 4311 
Q 3641 3956 3641 3272 
Q 3641 2581 3239 2228 
Q 2838 1875 2053 1875 
L 1259 1875 
L 1259 0 
L 628 0 
L 628 4666 
z
" transform="scale(0.015625)"/>
       <path id="DejaVuSans-6f" d="M 1959 3097 
Q 1497 3097 1228 2736 
Q 959 2375 959 1747 
Q 959 1119 1226 758 
Q 1494 397 1959 397 
Q 2419 397 2687 759 
Q 2956 1122 2956 1747 
Q 2956 2369 2687 2733 
Q 2419 3097 1959 3097 
z
M 1959 3584 
Q 2709 3584 3137 3096 
Q 3566 2609 3566 1747 
Q 3566 888 3137 398 
Q 2709 -91 1959 -91 
Q 1206 -91 779 398 
Q 353 888 353 1747 
Q 353 2609 779 3096 
Q 1206 3584 1959 3584 
z
" transform="scale(0.015625)"/>
       <path id="DejaVuSans-69" d="M 603 3500 
L 1178 3500 
L 1178 0 
L 603 0 
L 603 3500 
z
M 603 4863 
L 1178 4863 
L 1178 4134 
L 603 4134 
L 603 4863 
z
" transform="scale(0.015625)"/>
       <path id="DejaVuSans-74" d="M 1172 4494 
L 1172 3500 
L 2356 3500 
L 2356 3053 
L 1172 3053 
L 1172 1153 
Q 1172 725 1289 603 
Q 1406 481 1766 481 
L 2356 481 
L 2356 0 
L 1766 0 
Q 1100 0 847 248 
Q 594 497 594 1153 
L 594 3053 
L 172 3053 
L 172 3500 
L 594 3500 
L 594 4494 
L 1172 4494 
z
" transform="scale(0.015625)"/>
       <path id="DejaVuSans-76" d="M 191 3500 
L 800 3500 
L 1894 563 
L 2988 3500 
L 3597 3500 
L 2284 0 
L 1503 0 
L 191 3500 
z
" transform="scale(0.015625)"/>
       <path id="DejaVuSans-52" d="M 2841 2188 
Q 3044 2119 3236 1894 
Q 3428 1669 3622 1275 
L 4263 0 
L 3584 0 
L 2988 1197 
Q 2756 1666 2539 1819 
Q 2322 1972 1947 1972 
L 1259 1972 
L 1259 0 
L 628 0 
L 628 4666 
L 2053 4666 
Q 2853 4666 3247 4331 
Q 3641 3997 3641 3322 
Q 3641 2881 3436 2590 
Q 3231 2300 2841 2188 
z
M 1259 4147 
L 1259 2491 
L 2053 2491 
Q 2509 2491 2742 2702 
Q 2975 2913 2975 3322 
Q 2975 3731 2742 3939 
Q 2509 4147 2053 4147 
L 1259 4147 
z
" transform="scale(0.015625)"/>
      </defs>
      <use xlink:href="#DejaVuSans-46"/>
      <use xlink:href="#DejaVuSans-61" transform="translate(48.394531 0)"/>
      <use xlink:href="#DejaVuSans-6c" transform="translate(109.673828 0)"/>
      <use xlink:href="#DejaVuSans-73" transform="translate(137.457031 0)"/>
      <use xlink:href="#DejaVuSans-65" transform="translate(189.556641 0)"/>
      <use xlink:href="#DejaVuSans-20" transform="translate(251.080078 0)"/>
      <use xlink:href="#DejaVuSans-50" transform="translate(282.867188 0)"/>
      <use xlink:href="#DejaVuSans-6f" transform="translate(339.544922 0)"/>
      <use xlink:href="#DejaVuSans-73" transform="translate(400.726562 0)"/>
      <use xlink:href="#DejaVuSans-69" transform="translate(452.826172 0)"/>
      <use xlink:href="#DejaVuSans-74" transform="translate(480.609375 0)"/>
      <use xlink:href="#DejaVuSans-69" transform="translate(519.818359 0)"/>
      <use xlink:href="#DejaVuSans-76" transform="translate(547.601562 0)"/>
      <use xlink:href="#DejaVuSans-65" transform="translate(606.78125 0)"/>
      <use xlink:href="#DejaVuSans-20" transform="translate(668.304688 0)"/>
      <use xlink:href="#DejaVuSans-52" transform="translate(700.091797 0)"/>
      <use xlink:href="#DejaVuSans-61" transform="translate(767.324219 0)"/>
      <use xlink:href="#DejaVuSans-74" transform="translate(828.603516 0)"/>
      <use xlink:href="#DejaVuSans-65" transform="translate(867.8125 0)"/>
     </g>
    </g>
   </g>
   <g id="matplotlib.axis_2">
    <g id="ytick_1">
     <g id="line2d_7">
      <path d="M 43.78125 293.562784 
L 365.77748 293.562784 
" clip-path="url(#pfafea71807)" style="fill: none; stroke-dasharray: 2.96,1.28; stroke-dashoffset: 0; stroke: #ffffff; stroke-opacity: 0.7; stroke-width: 0.8"/>
     </g>
     <g id="text_8">
      <!-- 0.0 -->
      <g style="fill: #262626" transform="translate(20.878125 297.362002) scale(0.1 -0.1)">
       <use xlink:href="#DejaVuSans-30"/>
       <use xlink:href="#DejaVuSans-2e" transform="translate(63.623047 0)"/>
       <use xlink:href="#DejaVuSans-30" transform="translate(95.410156 0)"/>
      </g>
     </g>
    </g>
    <g id="ytick_2">
     <g id="line2d_8">
      <path d="M 43.78125 242.201534 
L 365.77748 242.201534 
" clip-path="url(#pfafea71807)" style="fill: none; stroke-dasharray: 2.96,1.28; stroke-dashoffset: 0; stroke: #ffffff; stroke-opacity: 0.7; stroke-width: 0.8"/>
     </g>
     <g id="text_9">
      <!-- 0.2 -->
      <g style="fill: #262626" transform="translate(20.878125 246.000753) scale(0.1 -0.1)">
       <use xlink:href="#DejaVuSans-30"/>
       <use xlink:href="#DejaVuSans-2e" transform="translate(63.623047 0)"/>
       <use xlink:href="#DejaVuSans-32" transform="translate(95.410156 0)"/>
      </g>
     </g>
    </g>
    <g id="ytick_3">
     <g id="line2d_9">
      <path d="M 43.78125 190.840285 
L 365.77748 190.840285 
" clip-path="url(#pfafea71807)" style="fill: none; stroke-dasharray: 2.96,1.28; stroke-dashoffset: 0; stroke: #ffffff; stroke-opacity: 0.7; stroke-width: 0.8"/>
     </g>
     <g id="text_10">
      <!-- 0.4 -->
      <g style="fill: #262626" transform="translate(20.878125 194.639504) scale(0.1 -0.1)">
       <use xlink:href="#DejaVuSans-30"/>
       <use xlink:href="#DejaVuSans-2e" transform="translate(63.623047 0)"/>
       <use xlink:href="#DejaVuSans-34" transform="translate(95.410156 0)"/>
      </g>
     </g>
    </g>
    <g id="ytick_4">
     <g id="line2d_10">
      <path d="M 43.78125 139.479036 
L 365.77748 139.479036 
" clip-path="url(#pfafea71807)" style="fill: none; stroke-dasharray: 2.96,1.28; stroke-dashoffset: 0; stroke: #ffffff; stroke-opacity: 0.7; stroke-width: 0.8"/>
     </g>
     <g id="text_11">
      <!-- 0.6 -->
      <g style="fill: #262626" transform="translate(20.878125 143.278254) scale(0.1 -0.1)">
       <use xlink:href="#DejaVuSans-30"/>
       <use xlink:href="#DejaVuSans-2e" transform="translate(63.623047 0)"/>
       <use xlink:href="#DejaVuSans-36" transform="translate(95.410156 0)"/>
      </g>
     </g>
    </g>
    <g id="ytick_5">
     <g id="line2d_11">
      <path d="M 43.78125 88.117786 
L 365.77748 88.117786 
" clip-path="url(#pfafea71807)" style="fill: none; stroke-dasharray: 2.96,1.28; stroke-dashoffset: 0; stroke: #ffffff; stroke-opacity: 0.7; stroke-width: 0.8"/>
     </g>
     <g id="text_12">
      <!-- 0.8 -->
      <g style="fill: #262626" transform="translate(20.878125 91.917005) scale(0.1 -0.1)">
       <use xlink:href="#DejaVuSans-30"/>
       <use xlink:href="#DejaVuSans-2e" transform="translate(63.623047 0)"/>
       <use xlink:href="#DejaVuSans-38" transform="translate(95.410156 0)"/>
      </g>
     </g>
    </g>
    <g id="ytick_6">
     <g id="line2d_12">
      <path d="M 43.78125 36.756537 
L 365.77748 36.756537 
" clip-path="url(#pfafea71807)" style="fill: none; stroke-dasharray: 2.96,1.28; stroke-dashoffset: 0; stroke: #ffffff; stroke-opacity: 0.7; stroke-width: 0.8"/>
     </g>
     <g id="text_13">
      <!-- 1.0 -->
      <g style="fill: #262626" transform="translate(20.878125 40.555756) scale(0.1 -0.1)">
       <use xlink:href="#DejaVuSans-31"/>
       <use xlink:href="#DejaVuSans-2e" transform="translate(63.623047 0)"/>
       <use xlink:href="#DejaVuSans-30" transform="translate(95.410156 0)"/>
      </g>
     </g>
    </g>
    <g id="text_14">
     <!-- True Positive Rate -->
     <g style="fill: #262626" transform="translate(14.798438 212.427813) rotate(-90) scale(0.1 -0.1)">
      <defs>
       <path id="DejaVuSans-54" d="M -19 4666 
L 3928 4666 
L 3928 4134 
L 2272 4134 
L 2272 0 
L 1638 0 
L 1638 4134 
L -19 4134 
L -19 4666 
z
" transform="scale(0.015625)"/>
       <path id="DejaVuSans-72" d="M 2631 2963 
Q 2534 3019 2420 3045 
Q 2306 3072 2169 3072 
Q 1681 3072 1420 2755 
Q 1159 2438 1159 1844 
L 1159 0 
L 581 0 
L 581 3500 
L 1159 3500 
L 1159 2956 
Q 1341 3275 1631 3429 
Q 1922 3584 2338 3584 
Q 2397 3584 2469 3576 
Q 2541 3569 2628 3553 
L 2631 2963 
z
" transform="scale(0.015625)"/>
       <path id="DejaVuSans-75" d="M 544 1381 
L 544 3500 
L 1119 3500 
L 1119 1403 
Q 1119 906 1312 657 
Q 1506 409 1894 409 
Q 2359 409 2629 706 
Q 2900 1003 2900 1516 
L 2900 3500 
L 3475 3500 
L 3475 0 
L 2900 0 
L 2900 538 
Q 2691 219 2414 64 
Q 2138 -91 1772 -91 
Q 1169 -91 856 284 
Q 544 659 544 1381 
z
M 1991 3584 
L 1991 3584 
z
" transform="scale(0.015625)"/>
      </defs>
      <use xlink:href="#DejaVuSans-54"/>
      <use xlink:href="#DejaVuSans-72" transform="translate(46.333984 0)"/>
      <use xlink:href="#DejaVuSans-75" transform="translate(87.447266 0)"/>
      <use xlink:href="#DejaVuSans-65" transform="translate(150.826172 0)"/>
      <use xlink:href="#DejaVuSans-20" transform="translate(212.349609 0)"/>
      <use xlink:href="#DejaVuSans-50" transform="translate(244.136719 0)"/>
      <use xlink:href="#DejaVuSans-6f" transform="translate(300.814453 0)"/>
      <use xlink:href="#DejaVuSans-73" transform="translate(361.996094 0)"/>
      <use xlink:href="#DejaVuSans-69" transform="translate(414.095703 0)"/>
      <use xlink:href="#DejaVuSans-74" transform="translate(441.878906 0)"/>
      <use xlink:href="#DejaVuSans-69" transform="translate(481.087891 0)"/>
      <use xlink:href="#DejaVuSans-76" transform="translate(508.871094 0)"/>
      <use xlink:href="#DejaVuSans-65" transform="translate(568.050781 0)"/>
      <use xlink:href="#DejaVuSans-20" transform="translate(629.574219 0)"/>
      <use xlink:href="#DejaVuSans-52" transform="translate(661.361328 0)"/>
      <use xlink:href="#DejaVuSans-61" transform="translate(728.59375 0)"/>
      <use xlink:href="#DejaVuSans-74" transform="translate(789.873047 0)"/>
      <use xlink:href="#DejaVuSans-65" transform="translate(829.082031 0)"/>
     </g>
    </g>
   </g>
   <g id="FillBetweenPolyCollection_1">
    <defs>
     <path id="m1b55614d22" d="M 58.417442 -127.010535 
L 58.417442 -59.143047 
L 61.374249 -73.631085 
L 64.331055 -86.557521 
L 67.287862 -98.547897 
L 70.244668 -110.294489 
L 73.201475 -119.158448 
L 76.158281 -128.542768 
L 79.115088 -135.835687 
L 82.071894 -143.551826 
L 85.028701 -150.898995 
L 87.985508 -160.326947 
L 90.942314 -168.470097 
L 93.899121 -175.287789 
L 96.855927 -181.267387 
L 99.812734 -186.599865 
L 102.76954 -191.786681 
L 105.726347 -197.518846 
L 108.683153 -203.386718 
L 111.63996 -208.395352 
L 114.596766 -213.366248 
L 117.553573 -218.158282 
L 120.510379 -222.463914 
L 123.467186 -226.276524 
L 126.423992 -229.862924 
L 129.380799 -233.060164 
L 132.337605 -236.425877 
L 135.294412 -239.209255 
L 138.251218 -241.794208 
L 141.208025 -244.1002 
L 144.164831 -246.126285 
L 147.121638 -248.231599 
L 150.078445 -250.426383 
L 153.035251 -252.578901 
L 155.992058 -254.630163 
L 158.948864 -256.657647 
L 161.905671 -258.55941 
L 164.862477 -260.385135 
L 167.819284 -262.164306 
L 170.77609 -264.5288 
L 173.732897 -266.323968 
L 176.689703 -268.383337 
L 179.64651 -270.189675 
L 182.603316 -271.701335 
L 185.560123 -273.109147 
L 188.516929 -274.408546 
L 191.473736 -275.617821 
L 194.430542 -276.856557 
L 197.387349 -277.917738 
L 200.344155 -278.900784 
L 203.300962 -280.016253 
L 206.257768 -281.144124 
L 209.214575 -282.179972 
L 212.171382 -283.112783 
L 215.128188 -283.999185 
L 218.084995 -284.946896 
L 221.041801 -285.923375 
L 223.998608 -286.878371 
L 226.955414 -287.835035 
L 229.912221 -288.766973 
L 232.869027 -289.635218 
L 235.825834 -290.459702 
L 238.78264 -291.239492 
L 241.739447 -291.991333 
L 244.696253 -292.759871 
L 247.65306 -293.485721 
L 250.609866 -294.179536 
L 253.566673 -294.959595 
L 256.523479 -295.720516 
L 259.480286 -296.429365 
L 262.437092 -297.138893 
L 265.393899 -297.796713 
L 268.350706 -298.427192 
L 271.307512 -299.031337 
L 274.264319 -299.570081 
L 277.221125 -300.103734 
L 280.177932 -300.661217 
L 283.134738 -301.184769 
L 286.091545 -301.694076 
L 289.048351 -302.284271 
L 292.005158 -302.918182 
L 294.961964 -303.57906 
L 297.918771 -304.18125 
L 300.875577 -304.751425 
L 303.832384 -305.299862 
L 306.78919 -305.835165 
L 309.745997 -306.374325 
L 312.702803 -306.898909 
L 315.65961 -307.428862 
L 318.616416 -307.95589 
L 321.573223 -308.469947 
L 324.530029 -308.949839 
L 327.486836 -309.419708 
L 330.443643 -309.880294 
L 333.400449 -310.317461 
L 336.357256 -310.731249 
L 339.314062 -311.147591 
L 342.270869 -311.547474 
L 345.227675 -312.427127 
L 348.184482 -313.352483 
L 351.141288 -314.277838 
L 351.141288 -314.277838 
L 351.141288 -314.277838 
L 348.184482 -314.628905 
L 345.227675 -314.979973 
L 342.270869 -315.286141 
L 339.314062 -315.213376 
L 336.357256 -315.167154 
L 333.400449 -315.133803 
L 330.443643 -315.10476 
L 327.486836 -315.067327 
L 324.530029 -315.035122 
L 321.573223 -314.977538 
L 318.616416 -314.915748 
L 315.65961 -314.862231 
L 312.702803 -314.789851 
L 309.745997 -314.699635 
L 306.78919 -314.582452 
L 303.832384 -314.453733 
L 300.875577 -314.328222 
L 297.918771 -314.177347 
L 294.961964 -314.039959 
L 292.005158 -313.91902 
L 289.048351 -313.75614 
L 286.091545 -313.566509 
L 283.134738 -313.345284 
L 280.177932 -313.135349 
L 277.221125 -312.936551 
L 274.264319 -312.738167 
L 271.307512 -312.494851 
L 268.350706 -312.180934 
L 265.393899 -311.853522 
L 262.437092 -311.557971 
L 259.480286 -311.261884 
L 256.523479 -310.913749 
L 253.566673 -310.594968 
L 250.609866 -310.255596 
L 247.65306 -309.809103 
L 244.696253 -309.355403 
L 241.739447 -308.926347 
L 238.78264 -308.45345 
L 235.825834 -307.892775 
L 232.869027 -307.322788 
L 229.912221 -306.748635 
L 226.955414 -306.164678 
L 223.998608 -305.587066 
L 221.041801 -305.038925 
L 218.084995 -304.508791 
L 215.128188 -303.977839 
L 212.171382 -303.402394 
L 209.214575 -302.848344 
L 206.257768 -302.252285 
L 203.300962 -301.687449 
L 200.344155 -301.139488 
L 197.387349 -300.541434 
L 194.430542 -299.92145 
L 191.473736 -299.195502 
L 188.516929 -298.42078 
L 185.560123 -297.560335 
L 182.603316 -296.724688 
L 179.64651 -295.924502 
L 176.689703 -295.261915 
L 173.732897 -294.411369 
L 170.77609 -293.315091 
L 167.819284 -292.331639 
L 164.862477 -291.098152 
L 161.905671 -289.899287 
L 158.948864 -288.715959 
L 155.992058 -287.54388 
L 153.035251 -286.464886 
L 150.078445 -285.355891 
L 147.121638 -284.107599 
L 144.164831 -282.712752 
L 141.208025 -280.774634 
L 138.251218 -279.069659 
L 135.294412 -277.336338 
L 132.337605 -275.561478 
L 129.380799 -273.429059 
L 126.423992 -271.468658 
L 123.467186 -269.179273 
L 120.510379 -266.908657 
L 117.553573 -264.448498 
L 114.596766 -261.799768 
L 111.63996 -259.132628 
L 108.683153 -256.050053 
L 105.726347 -252.377144 
L 102.76954 -249.677032 
L 99.812734 -246.439213 
L 96.855927 -242.787373 
L 93.899121 -238.908499 
L 90.942314 -233.675367 
L 87.985508 -228.188233 
L 85.028701 -221.93971 
L 82.071894 -215.078978 
L 79.115088 -207.109636 
L 76.158281 -198.826038 
L 73.201475 -189.806522 
L 70.244668 -180.171552 
L 67.287862 -169.207064 
L 64.331055 -152.883261 
L 61.374249 -139.166097 
L 58.417442 -127.010535 
z
" style="stroke: #ffffff; stroke-opacity: 0.2"/>
    </defs>
    <g clip-path="url(#pfafea71807)">
     <use xlink:href="#m1b55614d22" x="0" y="351.034375" style="fill: #1f77b4; fill-opacity: 0.2; stroke: #ffffff; stroke-opacity: 0.2"/>
    </g>
   </g>
   <g id="FillBetweenPolyCollection_2">
    <defs>
     <path id="m1c3875958d" d="M 58.417442 -121.961123 
L 58.417442 -58.157885 
L 61.374249 -70.725601 
L 64.331055 -81.936453 
L 67.287862 -96.50149 
L 70.244668 -105.278744 
L 73.201475 -113.866999 
L 76.158281 -122.996744 
L 79.115088 -129.639164 
L 82.071894 -136.916522 
L 85.028701 -142.777798 
L 87.985508 -147.965828 
L 90.942314 -153.62994 
L 93.899121 -159.64919 
L 96.855927 -164.683351 
L 99.812734 -170.058209 
L 102.76954 -175.554236 
L 105.726347 -181.025441 
L 108.683153 -187.01716 
L 111.63996 -191.797484 
L 114.596766 -196.607285 
L 117.553573 -200.994875 
L 120.510379 -205.18085 
L 123.467186 -209.49061 
L 126.423992 -213.703259 
L 129.380799 -218.064524 
L 132.337605 -221.854863 
L 135.294412 -225.616768 
L 138.251218 -228.439623 
L 141.208025 -231.14452 
L 144.164831 -233.828147 
L 147.121638 -236.312946 
L 150.078445 -238.666791 
L 153.035251 -240.999023 
L 155.992058 -243.071137 
L 158.948864 -245.157644 
L 161.905671 -247.991081 
L 164.862477 -250.179666 
L 167.819284 -252.617965 
L 170.77609 -254.446096 
L 173.732897 -256.14532 
L 176.689703 -257.799045 
L 179.64651 -259.344095 
L 182.603316 -260.986114 
L 185.560123 -262.680801 
L 188.516929 -264.413068 
L 191.473736 -265.982539 
L 194.430542 -267.35222 
L 197.387349 -268.645424 
L 200.344155 -269.86042 
L 203.300962 -271.008303 
L 206.257768 -272.120799 
L 209.214575 -273.234288 
L 212.171382 -274.404831 
L 215.128188 -275.594372 
L 218.084995 -276.911656 
L 221.041801 -278.214647 
L 223.998608 -279.485927 
L 226.955414 -280.749179 
L 229.912221 -281.995253 
L 232.869027 -283.165061 
L 235.825834 -284.329351 
L 238.78264 -285.619624 
L 241.739447 -286.940015 
L 244.696253 -288.211083 
L 247.65306 -289.530075 
L 250.609866 -290.691284 
L 253.566673 -291.704699 
L 256.523479 -292.569731 
L 259.480286 -293.648227 
L 262.437092 -294.779473 
L 265.393899 -295.866146 
L 268.350706 -296.906191 
L 271.307512 -297.914353 
L 274.264319 -298.872248 
L 277.221125 -299.727777 
L 280.177932 -300.512642 
L 283.134738 -301.251719 
L 286.091545 -301.870918 
L 289.048351 -302.453556 
L 292.005158 -302.997741 
L 294.961964 -303.529668 
L 297.918771 -304.024028 
L 300.875577 -304.501584 
L 303.832384 -304.965969 
L 306.78919 -305.409201 
L 309.745997 -305.834401 
L 312.702803 -306.255352 
L 315.65961 -306.704631 
L 318.616416 -307.20767 
L 321.573223 -307.684823 
L 324.530029 -308.143358 
L 327.486836 -308.628179 
L 330.443643 -309.100089 
L 333.400449 -309.680865 
L 336.357256 -310.408226 
L 339.314062 -311.182899 
L 342.270869 -311.957958 
L 345.227675 -312.731807 
L 348.184482 -313.504823 
L 351.141288 -314.277838 
L 351.141288 -314.277838 
L 351.141288 -314.277838 
L 348.184482 -314.451398 
L 345.227675 -314.624957 
L 342.270869 -314.79546 
L 339.314062 -314.963652 
L 336.357256 -315.126414 
L 333.400449 -315.263396 
L 330.443643 -315.32706 
L 327.486836 -315.338231 
L 324.530029 -315.339329 
L 321.573223 -315.291121 
L 318.616416 -315.240322 
L 315.65961 -315.192275 
L 312.702803 -315.101354 
L 309.745997 -314.975777 
L 306.78919 -314.837448 
L 303.832384 -314.672642 
L 300.875577 -314.49931 
L 297.918771 -314.240492 
L 294.961964 -313.91863 
L 292.005158 -313.602062 
L 289.048351 -313.257452 
L 286.091545 -312.915145 
L 283.134738 -312.538817 
L 280.177932 -312.196245 
L 277.221125 -311.862765 
L 274.264319 -311.565807 
L 271.307512 -311.3329 
L 268.350706 -311.088181 
L 265.393899 -310.885004 
L 262.437092 -310.738341 
L 259.480286 -310.617239 
L 256.523479 -310.43527 
L 253.566673 -310.053567 
L 250.609866 -309.641588 
L 247.65306 -309.135917 
L 244.696253 -308.726924 
L 241.739447 -308.313617 
L 238.78264 -307.754565 
L 235.825834 -307.148697 
L 232.869027 -306.512658 
L 229.912221 -305.945635 
L 226.955414 -305.382941 
L 223.998608 -304.707313 
L 221.041801 -303.932526 
L 218.084995 -303.148233 
L 215.128188 -302.413968 
L 212.171382 -301.664024 
L 209.214575 -300.878439 
L 206.257768 -300.038713 
L 203.300962 -299.219245 
L 200.344155 -298.422908 
L 197.387349 -297.633815 
L 194.430542 -296.798475 
L 191.473736 -295.987722 
L 188.516929 -295.136533 
L 185.560123 -294.30142 
L 182.603316 -293.451199 
L 179.64651 -292.553252 
L 176.689703 -291.525039 
L 173.732897 -290.509929 
L 170.77609 -289.527865 
L 167.819284 -288.540506 
L 164.862477 -287.375999 
L 161.905671 -286.22334 
L 158.948864 -285.134138 
L 155.992058 -283.786233 
L 153.035251 -282.396154 
L 150.078445 -280.762683 
L 147.121638 -279.194927 
L 144.164831 -277.652823 
L 141.208025 -275.90447 
L 138.251218 -273.95436 
L 135.294412 -271.532989 
L 132.337605 -269.408726 
L 129.380799 -267.154346 
L 126.423992 -264.260228 
L 123.467186 -261.525195 
L 120.510379 -258.098412 
L 117.553573 -254.849398 
L 114.596766 -251.339487 
L 111.63996 -247.8718 
L 108.683153 -244.704495 
L 105.726347 -241.185922 
L 102.76954 -236.993332 
L 99.812734 -233.000112 
L 96.855927 -229.214164 
L 93.899121 -225.50905 
L 90.942314 -221.495024 
L 87.985508 -217.267904 
L 85.028701 -212.148551 
L 82.071894 -206.483765 
L 79.115088 -200.193583 
L 76.158281 -192.734737 
L 73.201475 -184.006699 
L 70.244668 -172.930488 
L 67.287862 -163.863301 
L 64.331055 -145.92064 
L 61.374249 -133.262449 
L 58.417442 -121.961123 
z
" style="stroke: #ffffff; stroke-opacity: 0.2"/>
    </defs>
    <g clip-path="url(#pfafea71807)">
     <use xlink:href="#m1c3875958d" x="0" y="351.034375" style="fill: #ff7f0e; fill-opacity: 0.2; stroke: #ffffff; stroke-opacity: 0.2"/>
    </g>
   </g>
   <g id="FillBetweenPolyCollection_3">
    <defs>
     <path id="mae396fda0b" d="M 58.417442 -112.478189 
L 58.417442 -53.424155 
L 61.374249 -65.504727 
L 64.331055 -76.08271 
L 67.287862 -86.452655 
L 70.244668 -95.411349 
L 73.201475 -103.239307 
L 76.158281 -114.351667 
L 79.115088 -123.434785 
L 82.071894 -132.181144 
L 85.028701 -139.219707 
L 87.985508 -145.329281 
L 90.942314 -151.011547 
L 93.899121 -156.548858 
L 96.855927 -162.181828 
L 99.812734 -167.339055 
L 102.76954 -172.261455 
L 105.726347 -177.352763 
L 108.683153 -182.853889 
L 111.63996 -187.095106 
L 114.596766 -191.835686 
L 117.553573 -195.905395 
L 120.510379 -200.305058 
L 123.467186 -203.687149 
L 126.423992 -206.782074 
L 129.380799 -209.731729 
L 132.337605 -213.124184 
L 135.294412 -215.811571 
L 138.251218 -218.34343 
L 141.208025 -220.760969 
L 144.164831 -223.048835 
L 147.121638 -225.506797 
L 150.078445 -228.171735 
L 153.035251 -231.13648 
L 155.992058 -234.057656 
L 158.948864 -236.919622 
L 161.905671 -239.537941 
L 164.862477 -242.094255 
L 167.819284 -244.481655 
L 170.77609 -246.610818 
L 173.732897 -248.534602 
L 176.689703 -250.418413 
L 179.64651 -252.377823 
L 182.603316 -254.335691 
L 185.560123 -256.48609 
L 188.516929 -258.710679 
L 191.473736 -260.893923 
L 194.430542 -263.029131 
L 197.387349 -265.253849 
L 200.344155 -267.104226 
L 203.300962 -268.65465 
L 206.257768 -270.062133 
L 209.214575 -271.73821 
L 212.171382 -273.120597 
L 215.128188 -274.476136 
L 218.084995 -275.698971 
L 221.041801 -276.934297 
L 223.998608 -278.189039 
L 226.955414 -279.243899 
L 229.912221 -280.17773 
L 232.869027 -281.092196 
L 235.825834 -282.084109 
L 238.78264 -283.166616 
L 241.739447 -284.295404 
L 244.696253 -285.432766 
L 247.65306 -286.54967 
L 250.609866 -287.605142 
L 253.566673 -288.605885 
L 256.523479 -289.54831 
L 259.480286 -290.36997 
L 262.437092 -291.238563 
L 265.393899 -292.057518 
L 268.350706 -292.805831 
L 271.307512 -293.518783 
L 274.264319 -294.277755 
L 277.221125 -295.17817 
L 280.177932 -296.370945 
L 283.134738 -297.476025 
L 286.091545 -298.512539 
L 289.048351 -299.475314 
L 292.005158 -300.251845 
L 294.961964 -301.009817 
L 297.918771 -301.744019 
L 300.875577 -302.437029 
L 303.832384 -303.081509 
L 306.78919 -303.684828 
L 309.745997 -304.244038 
L 312.702803 -304.772889 
L 315.65961 -305.288126 
L 318.616416 -305.753015 
L 321.573223 -306.215714 
L 324.530029 -306.792618 
L 327.486836 -307.46805 
L 330.443643 -308.21142 
L 333.400449 -309.156981 
L 336.357256 -310.057758 
L 339.314062 -310.82756 
L 342.270869 -311.570945 
L 345.227675 -312.473242 
L 348.184482 -313.37554 
L 351.141288 -314.277838 
L 351.141288 -314.277838 
L 351.141288 -314.277838 
L 348.184482 -314.478797 
L 345.227675 -314.679756 
L 342.270869 -314.880715 
L 339.314062 -314.957589 
L 336.357256 -315.050514 
L 333.400449 -315.213217 
L 330.443643 -315.407618 
L 327.486836 -315.47392 
L 324.530029 -315.481705 
L 321.573223 -315.459283 
L 318.616416 -315.373165 
L 315.65961 -315.227934 
L 312.702803 -315.043635 
L 309.745997 -314.830346 
L 306.78919 -314.593083 
L 303.832384 -314.310226 
L 300.875577 -314.00927 
L 297.918771 -313.737025 
L 294.961964 -313.451948 
L 292.005158 -313.190121 
L 289.048351 -312.938066 
L 286.091545 -312.644683 
L 283.134738 -312.447468 
L 280.177932 -312.343897 
L 277.221125 -312.306631 
L 274.264319 -312.047692 
L 271.307512 -311.720764 
L 268.350706 -311.377267 
L 265.393899 -310.980173 
L 262.437092 -310.574526 
L 259.480286 -310.181046 
L 256.523479 -309.766115 
L 253.566673 -309.238658 
L 250.609866 -308.735668 
L 247.65306 -308.263006 
L 244.696253 -307.767934 
L 241.739447 -307.258184 
L 238.78264 -306.761619 
L 235.825834 -306.265123 
L 232.869027 -305.616826 
L 229.912221 -304.832013 
L 226.955414 -304.016822 
L 223.998608 -303.251999 
L 221.041801 -302.504618 
L 218.084995 -301.73026 
L 215.128188 -300.891333 
L 212.171382 -300.087296 
L 209.214575 -299.320263 
L 206.257768 -298.072353 
L 203.300962 -297.09456 
L 200.344155 -296.006548 
L 197.387349 -294.808823 
L 194.430542 -293.616134 
L 191.473736 -292.450904 
L 188.516929 -291.3235 
L 185.560123 -290.203645 
L 182.603316 -288.989131 
L 179.64651 -287.667881 
L 176.689703 -286.307701 
L 173.732897 -284.869196 
L 170.77609 -283.420647 
L 167.819284 -281.773566 
L 164.862477 -280.015438 
L 161.905671 -278.395978 
L 158.948864 -276.811015 
L 155.992058 -275.101656 
L 153.035251 -273.49158 
L 150.078445 -271.774874 
L 147.121638 -270.080594 
L 144.164831 -268.350869 
L 141.208025 -266.592851 
L 138.251218 -264.913155 
L 135.294412 -263.05949 
L 132.337605 -261.104551 
L 129.380799 -258.716138 
L 126.423992 -255.796801 
L 123.467186 -252.553418 
L 120.510379 -250.123378 
L 117.553573 -247.829907 
L 114.596766 -245.776675 
L 111.63996 -243.542415 
L 108.683153 -240.834951 
L 105.726347 -237.493568 
L 102.76954 -233.73834 
L 99.812734 -229.204638 
L 96.855927 -223.989009 
L 93.899121 -218.689491 
L 90.942314 -213.803019 
L 87.985508 -209.144731 
L 85.028701 -203.546567 
L 82.071894 -197.306014 
L 79.115088 -190.233232 
L 76.158281 -182.592168 
L 73.201475 -171.181887 
L 70.244668 -160.260118 
L 67.287862 -151.138735 
L 64.331055 -135.069033 
L 61.374249 -123.022316 
L 58.417442 -112.478189 
z
" style="stroke: #ffffff; stroke-opacity: 0.2"/>
    </defs>
    <g clip-path="url(#pfafea71807)">
     <use xlink:href="#mae396fda0b" x="0" y="351.034375" style="fill: #2ca02c; fill-opacity: 0.2; stroke: #ffffff; stroke-opacity: 0.2"/>
    </g>
   </g>
   <g id="FillBetweenPolyCollection_4">
    <defs>
     <path id="ma9338cf0cf" d="M 58.417442 -108.065495 
L 58.417442 -51.116997 
L 61.374249 -63.836979 
L 64.331055 -75.370107 
L 67.287862 -86.205955 
L 70.244668 -95.518404 
L 73.201475 -103.043976 
L 76.158281 -113.682295 
L 79.115088 -120.351015 
L 82.071894 -127.190774 
L 85.028701 -132.999047 
L 87.985508 -138.103393 
L 90.942314 -143.363534 
L 93.899121 -148.280096 
L 96.855927 -153.768986 
L 99.812734 -158.516329 
L 102.76954 -164.210776 
L 105.726347 -168.313324 
L 108.683153 -172.547915 
L 111.63996 -176.85171 
L 114.596766 -180.818681 
L 117.553573 -184.57679 
L 120.510379 -188.816436 
L 123.467186 -192.348613 
L 126.423992 -195.830288 
L 129.380799 -199.270746 
L 132.337605 -202.785855 
L 135.294412 -207.204227 
L 138.251218 -210.720439 
L 141.208025 -214.174377 
L 144.164831 -217.320011 
L 147.121638 -220.412516 
L 150.078445 -223.243677 
L 153.035251 -225.909607 
L 155.992058 -228.362465 
L 158.948864 -230.519817 
L 161.905671 -232.356823 
L 164.862477 -234.081605 
L 167.819284 -235.896619 
L 170.77609 -237.988938 
L 173.732897 -240.088582 
L 176.689703 -242.281985 
L 179.64651 -244.269863 
L 182.603316 -246.10248 
L 185.560123 -247.889433 
L 188.516929 -249.64296 
L 191.473736 -251.394964 
L 194.430542 -253.222323 
L 197.387349 -255.153575 
L 200.344155 -257.009051 
L 203.300962 -258.72594 
L 206.257768 -260.366592 
L 209.214575 -261.993965 
L 212.171382 -263.653454 
L 215.128188 -265.344832 
L 218.084995 -267.355677 
L 221.041801 -269.267066 
L 223.998608 -270.944593 
L 226.955414 -272.467099 
L 229.912221 -273.896129 
L 232.869027 -275.358032 
L 235.825834 -277.324768 
L 238.78264 -279.372064 
L 241.739447 -281.140951 
L 244.696253 -282.559819 
L 247.65306 -283.91185 
L 250.609866 -285.159246 
L 253.566673 -286.476588 
L 256.523479 -287.761569 
L 259.480286 -288.98078 
L 262.437092 -290.135833 
L 265.393899 -291.247112 
L 268.350706 -292.241854 
L 271.307512 -293.231894 
L 274.264319 -294.184524 
L 277.221125 -295.089121 
L 280.177932 -295.928389 
L 283.134738 -296.726119 
L 286.091545 -297.517219 
L 289.048351 -298.303984 
L 292.005158 -299.091759 
L 294.961964 -299.838473 
L 297.918771 -300.598685 
L 300.875577 -301.35998 
L 303.832384 -302.124974 
L 306.78919 -302.846786 
L 309.745997 -303.554472 
L 312.702803 -304.239086 
L 315.65961 -304.880565 
L 318.616416 -305.475892 
L 321.573223 -306.095508 
L 324.530029 -306.772682 
L 327.486836 -307.443962 
L 330.443643 -308.120919 
L 333.400449 -308.887894 
L 336.357256 -309.689593 
L 339.314062 -310.51077 
L 342.270869 -311.324169 
L 345.227675 -312.152777 
L 348.184482 -312.921272 
L 351.141288 -314.277838 
L 351.141288 -314.277838 
L 351.141288 -314.277838 
L 348.184482 -314.7359 
L 345.227675 -314.756954 
L 342.270869 -314.851753 
L 339.314062 -314.952766 
L 336.357256 -315.0657 
L 333.400449 -315.181906 
L 330.443643 -315.284863 
L 327.486836 -315.273998 
L 324.530029 -315.212085 
L 321.573223 -315.159685 
L 318.616416 -315.10075 
L 315.65961 -315.028393 
L 312.702803 -314.921907 
L 309.745997 -314.798224 
L 306.78919 -314.595626 
L 303.832384 -314.347412 
L 300.875577 -314.066069 
L 297.918771 -313.762397 
L 294.961964 -313.434349 
L 292.005158 -313.073674 
L 289.048351 -312.690749 
L 286.091545 -312.320282 
L 283.134738 -311.970033 
L 280.177932 -311.596932 
L 277.221125 -311.219172 
L 274.264319 -310.851331 
L 271.307512 -310.48142 
L 268.350706 -310.095502 
L 265.393899 -309.683135 
L 262.437092 -309.252578 
L 259.480286 -308.824108 
L 256.523479 -308.322612 
L 253.566673 -307.789251 
L 250.609866 -307.262227 
L 247.65306 -306.713333 
L 244.696253 -306.161378 
L 241.739447 -305.575723 
L 238.78264 -304.999602 
L 235.825834 -304.540283 
L 232.869027 -304.034245 
L 229.912221 -303.205695 
L 226.955414 -302.481421 
L 223.998608 -301.660204 
L 221.041801 -300.865481 
L 218.084995 -300.137185 
L 215.128188 -299.315388 
L 212.171382 -298.324332 
L 209.214575 -297.43063 
L 206.257768 -296.443215 
L 203.300962 -295.426332 
L 200.344155 -294.40442 
L 197.387349 -293.3496 
L 194.430542 -292.290547 
L 191.473736 -291.160705 
L 188.516929 -289.9186 
L 185.560123 -288.604912 
L 182.603316 -287.249494 
L 179.64651 -285.841343 
L 176.689703 -284.407827 
L 173.732897 -282.973575 
L 170.77609 -281.364486 
L 167.819284 -279.719333 
L 164.862477 -277.867647 
L 161.905671 -275.84531 
L 158.948864 -273.963106 
L 155.992058 -272.352317 
L 153.035251 -270.877651 
L 150.078445 -269.293185 
L 147.121638 -267.611029 
L 144.164831 -265.907814 
L 141.208025 -264.054537 
L 138.251218 -261.971864 
L 135.294412 -259.125839 
L 132.337605 -257.044796 
L 129.380799 -254.994944 
L 126.423992 -252.881689 
L 123.467186 -249.439684 
L 120.510379 -246.893534 
L 117.553573 -244.209385 
L 114.596766 -240.491732 
L 111.63996 -236.625316 
L 108.683153 -232.548801 
L 105.726347 -228.845734 
L 102.76954 -224.715273 
L 99.812734 -218.478615 
L 96.855927 -212.709806 
L 93.899121 -207.18573 
L 90.942314 -202.144615 
L 87.985508 -197.291964 
L 85.028701 -191.9964 
L 82.071894 -185.280227 
L 79.115088 -176.430619 
L 76.158281 -167.679925 
L 73.201475 -158.372257 
L 70.244668 -149.680407 
L 67.287862 -141.514569 
L 64.331055 -129.270017 
L 61.374249 -117.645973 
L 58.417442 -108.065495 
z
" style="stroke: #ffffff; stroke-opacity: 0.2"/>
    </defs>
    <g clip-path="url(#pfafea71807)">
     <use xlink:href="#ma9338cf0cf" x="0" y="351.034375" style="fill: #d62728; fill-opacity: 0.2; stroke: #ffffff; stroke-opacity: 0.2"/>
    </g>
   </g>
   <g id="FillBetweenPolyCollection_5">
    <defs>
     <path id="m6454d56041" d="M 58.417442 -103.510875 
L 58.417442 -50.790795 
L 61.374249 -61.067683 
L 64.331055 -69.473152 
L 67.287862 -80.812758 
L 70.244668 -88.710937 
L 73.201475 -96.832992 
L 76.158281 -107.060547 
L 79.115088 -113.982321 
L 82.071894 -120.91184 
L 85.028701 -126.972486 
L 87.985508 -133.43014 
L 90.942314 -138.929757 
L 93.899121 -144.133181 
L 96.855927 -149.017538 
L 99.812734 -153.439987 
L 102.76954 -157.804389 
L 105.726347 -162.282802 
L 108.683153 -166.253242 
L 111.63996 -170.51757 
L 114.596766 -174.36939 
L 117.553573 -177.594724 
L 120.510379 -180.718088 
L 123.467186 -184.132408 
L 126.423992 -188.170309 
L 129.380799 -191.537524 
L 132.337605 -195.736065 
L 135.294412 -199.207891 
L 138.251218 -202.199054 
L 141.208025 -205.505429 
L 144.164831 -208.308607 
L 147.121638 -211.154925 
L 150.078445 -213.966539 
L 153.035251 -216.699375 
L 155.992058 -219.079198 
L 158.948864 -221.494816 
L 161.905671 -224.036881 
L 164.862477 -226.575785 
L 167.819284 -229.378667 
L 170.77609 -231.83871 
L 173.732897 -233.992236 
L 176.689703 -236.0042 
L 179.64651 -237.808691 
L 182.603316 -239.534267 
L 185.560123 -241.648982 
L 188.516929 -243.620112 
L 191.473736 -245.698519 
L 194.430542 -247.528288 
L 197.387349 -249.190461 
L 200.344155 -250.829548 
L 203.300962 -252.389405 
L 206.257768 -254.148607 
L 209.214575 -255.564596 
L 212.171382 -256.961292 
L 215.128188 -258.70079 
L 218.084995 -260.450132 
L 221.041801 -262.388829 
L 223.998608 -264.052105 
L 226.955414 -265.659373 
L 229.912221 -267.126266 
L 232.869027 -268.56565 
L 235.825834 -270.024154 
L 238.78264 -271.611859 
L 241.739447 -273.169923 
L 244.696253 -275.153122 
L 247.65306 -277.727699 
L 250.609866 -279.98776 
L 253.566673 -281.484745 
L 256.523479 -282.838024 
L 259.480286 -284.114281 
L 262.437092 -285.368846 
L 265.393899 -286.581448 
L 268.350706 -287.741862 
L 271.307512 -288.832477 
L 274.264319 -289.814237 
L 277.221125 -290.773763 
L 280.177932 -291.749212 
L 283.134738 -292.733952 
L 286.091545 -293.715054 
L 289.048351 -294.850245 
L 292.005158 -296.06485 
L 294.961964 -297.222704 
L 297.918771 -298.365847 
L 300.875577 -299.391305 
L 303.832384 -300.428846 
L 306.78919 -301.395426 
L 309.745997 -302.413849 
L 312.702803 -303.358422 
L 315.65961 -304.239292 
L 318.616416 -305.029124 
L 321.573223 -305.782114 
L 324.530029 -306.461491 
L 327.486836 -307.118637 
L 330.443643 -307.820474 
L 333.400449 -308.523784 
L 336.357256 -309.209805 
L 339.314062 -309.964146 
L 342.270869 -310.73183 
L 345.227675 -311.634665 
L 348.184482 -312.956251 
L 351.141288 -314.277838 
L 351.141288 -314.277838 
L 351.141288 -314.277838 
L 348.184482 -314.68756 
L 345.227675 -315.097283 
L 342.270869 -315.197989 
L 339.314062 -315.229512 
L 336.357256 -315.274502 
L 333.400449 -315.286571 
L 330.443643 -315.322178 
L 327.486836 -315.325123 
L 324.530029 -315.250959 
L 321.573223 -315.158948 
L 318.616416 -315.070124 
L 315.65961 -314.966448 
L 312.702803 -314.78147 
L 309.745997 -314.590954 
L 306.78919 -314.421093 
L 303.832384 -314.197753 
L 300.875577 -313.90002 
L 297.918771 -313.49988 
L 294.961964 -313.141671 
L 292.005158 -312.818143 
L 289.048351 -312.490148 
L 286.091545 -312.087165 
L 283.134738 -311.554443 
L 280.177932 -311.039622 
L 277.221125 -310.557672 
L 274.264319 -310.087214 
L 271.307512 -309.616223 
L 268.350706 -309.107341 
L 265.393899 -308.599244 
L 262.437092 -307.998915 
L 259.480286 -307.395537 
L 256.523479 -306.816147 
L 253.566673 -306.274572 
L 250.609866 -305.764693 
L 247.65306 -305.327544 
L 244.696253 -305.168327 
L 241.739447 -304.709295 
L 238.78264 -304.126867 
L 235.825834 -303.462284 
L 232.869027 -302.709566 
L 229.912221 -301.919666 
L 226.955414 -301.046682 
L 223.998608 -300.159811 
L 221.041801 -299.210924 
L 218.084995 -298.239676 
L 215.128188 -297.322947 
L 212.171382 -296.426491 
L 209.214575 -295.255147 
L 206.257768 -294.110312 
L 203.300962 -292.914244 
L 200.344155 -291.851159 
L 197.387349 -290.881077 
L 194.430542 -289.86222 
L 191.473736 -288.668739 
L 188.516929 -287.405543 
L 185.560123 -286.098496 
L 182.603316 -284.569563 
L 179.64651 -283.18567 
L 176.689703 -281.648519 
L 173.732897 -280.139282 
L 170.77609 -278.62208 
L 167.819284 -277.015081 
L 164.862477 -275.320184 
L 161.905671 -273.329725 
L 158.948864 -271.489431 
L 155.992058 -269.693154 
L 153.035251 -267.684929 
L 150.078445 -265.775901 
L 147.121638 -263.895123 
L 144.164831 -261.551481 
L 141.208025 -259.263079 
L 138.251218 -256.709853 
L 135.294412 -254.225322 
L 132.337605 -251.714983 
L 129.380799 -249.496091 
L 126.423992 -246.821322 
L 123.467186 -243.726662 
L 120.510379 -240.017408 
L 117.553573 -236.049061 
L 114.596766 -230.883197 
L 111.63996 -226.387332 
L 108.683153 -222.165399 
L 105.726347 -218.376688 
L 102.76954 -214.407484 
L 99.812734 -210.374403 
L 96.855927 -205.002775 
L 93.899121 -200.151971 
L 90.942314 -194.491195 
L 87.985508 -189.1934 
L 85.028701 -183.611484 
L 82.071894 -176.538159 
L 79.115088 -168.640445 
L 76.158281 -161.817259 
L 73.201475 -155.550646 
L 70.244668 -148.033964 
L 67.287862 -140.642863 
L 64.331055 -126.890836 
L 61.374249 -114.265146 
L 58.417442 -103.510875 
z
" style="stroke: #ffffff; stroke-opacity: 0.2"/>
    </defs>
    <g clip-path="url(#pfafea71807)">
     <use xlink:href="#m6454d56041" x="0" y="351.034375" style="fill: #9467bd; fill-opacity: 0.2; stroke: #ffffff; stroke-opacity: 0.2"/>
    </g>
   </g>
   <g id="line2d_13">
    <path d="M 58.417442 257.957584 
L 61.374249 244.635784 
L 64.331055 231.313984 
L 67.287862 217.156894 
L 70.244668 205.801354 
L 73.201475 196.55189 
L 76.158281 187.349972 
L 79.115088 179.561713 
L 82.071894 171.718973 
L 85.028701 164.615022 
L 87.985508 156.776785 
L 90.942314 149.961643 
L 93.899121 143.936231 
L 96.855927 139.006995 
L 99.812734 134.514836 
L 102.76954 130.302518 
L 105.726347 126.08638 
L 108.683153 121.31599 
L 111.63996 117.270385 
L 114.596766 113.451367 
L 117.553573 109.730985 
L 120.510379 106.348089 
L 123.467186 103.306476 
L 126.423992 100.368584 
L 129.380799 97.789763 
L 132.337605 95.040698 
L 135.294412 92.761578 
L 138.251218 90.602441 
L 141.208025 88.596958 
L 144.164831 86.614857 
L 147.121638 84.864776 
L 150.078445 83.143238 
L 153.035251 81.512481 
L 155.992058 79.947354 
L 158.948864 78.347572 
L 161.905671 76.805027 
L 164.862477 75.292732 
L 167.819284 73.786402 
L 170.77609 72.112429 
L 173.732897 70.666707 
L 176.689703 69.211749 
L 179.64651 67.977287 
L 182.603316 66.821364 
L 185.560123 65.699634 
L 188.516929 64.619712 
L 191.473736 63.627714 
L 194.430542 62.645372 
L 197.387349 61.804789 
L 200.344155 61.014239 
L 203.300962 60.182524 
L 206.257768 59.336171 
L 209.214575 58.520217 
L 212.171382 57.776786 
L 215.128188 57.045863 
L 218.084995 56.306531 
L 221.041801 55.553225 
L 223.998608 54.801657 
L 226.955414 54.034518 
L 229.912221 53.276571 
L 232.869027 52.555372 
L 235.825834 51.858136 
L 238.78264 51.187904 
L 241.739447 50.575535 
L 244.696253 49.976738 
L 247.65306 49.386963 
L 250.609866 48.816809 
L 253.566673 48.257094 
L 256.523479 47.717243 
L 259.480286 47.18875 
L 262.437092 46.685943 
L 265.393899 46.209257 
L 268.350706 45.730312 
L 271.307512 45.271281 
L 274.264319 44.880251 
L 277.221125 44.514233 
L 280.177932 44.136092 
L 283.134738 43.769349 
L 286.091545 43.404083 
L 289.048351 43.01417 
L 292.005158 42.615774 
L 294.961964 42.224865 
L 297.918771 41.855076 
L 300.875577 41.494552 
L 303.832384 41.157578 
L 306.78919 40.825567 
L 309.745997 40.497395 
L 312.702803 40.189995 
L 315.65961 39.888828 
L 318.616416 39.598556 
L 321.573223 39.310633 
L 324.530029 39.041894 
L 327.486836 38.790857 
L 330.443643 38.541848 
L 333.400449 38.308743 
L 336.357256 38.085173 
L 339.314062 37.853892 
L 342.270869 37.617568 
L 345.227675 37.330825 
L 348.184482 37.043681 
L 351.141288 36.756537 
" clip-path="url(#pfafea71807)" style="fill: none; stroke: #1f77b4; stroke-width: 1.5; stroke-linecap: round"/>
   </g>
   <g id="line2d_14">
    <path d="M 58.417442 260.974871 
L 61.374249 249.04035 
L 64.331055 237.105829 
L 67.287862 220.851979 
L 70.244668 211.929759 
L 73.201475 202.097526 
L 76.158281 193.168635 
L 79.115088 186.118002 
L 82.071894 179.334232 
L 85.028701 173.571201 
L 87.985508 168.417509 
L 90.942314 163.471893 
L 93.899121 158.455255 
L 96.855927 154.085618 
L 99.812734 149.505215 
L 102.76954 144.760591 
L 105.726347 139.928693 
L 108.683153 135.173547 
L 111.63996 131.199733 
L 114.596766 127.060989 
L 117.553573 123.112239 
L 120.510379 119.394744 
L 123.467186 115.526472 
L 126.423992 112.052632 
L 129.380799 108.42494 
L 132.337605 105.40258 
L 135.294412 102.459497 
L 138.251218 99.837384 
L 141.208025 97.50988 
L 144.164831 95.29389 
L 147.121638 93.280439 
L 150.078445 91.319638 
L 153.035251 89.336787 
L 155.992058 87.60569 
L 158.948864 85.888484 
L 161.905671 83.927165 
L 164.862477 82.256543 
L 167.819284 80.455139 
L 170.77609 79.047394 
L 173.732897 77.706751 
L 176.689703 76.372333 
L 179.64651 75.085702 
L 182.603316 73.815719 
L 185.560123 72.543264 
L 188.516929 71.259575 
L 191.473736 70.049245 
L 194.430542 68.959028 
L 197.387349 67.894755 
L 200.344155 66.892711 
L 203.300962 65.920601 
L 206.257768 64.954619 
L 209.214575 63.978012 
L 212.171382 62.999947 
L 215.128188 62.030205 
L 218.084995 61.004431 
L 221.041801 59.960789 
L 223.998608 58.937755 
L 226.955414 57.968315 
L 229.912221 57.063931 
L 232.869027 56.195516 
L 235.825834 55.295351 
L 238.78264 54.34728 
L 241.739447 53.407559 
L 244.696253 52.565371 
L 247.65306 51.701379 
L 250.609866 50.867939 
L 253.566673 50.155242 
L 256.523479 49.531875 
L 259.480286 48.901642 
L 262.437092 48.275468 
L 265.393899 47.6588 
L 268.350706 47.037189 
L 271.307512 46.410748 
L 274.264319 45.815347 
L 277.221125 45.239104 
L 280.177932 44.679932 
L 283.134738 44.139107 
L 286.091545 43.641343 
L 289.048351 43.178871 
L 292.005158 42.734474 
L 294.961964 42.310226 
L 297.918771 41.902115 
L 300.875577 41.533928 
L 303.832384 41.215069 
L 306.78919 40.911051 
L 309.745997 40.629286 
L 312.702803 40.356022 
L 315.65961 40.085922 
L 318.616416 39.810379 
L 321.573223 39.546403 
L 324.530029 39.293032 
L 327.486836 39.05117 
L 330.443643 38.8208 
L 333.400449 38.562245 
L 336.357256 38.267055 
L 339.314062 37.9611 
L 342.270869 37.657666 
L 345.227675 37.355993 
L 348.184482 37.056265 
L 351.141288 36.756537 
" clip-path="url(#pfafea71807)" style="fill: none; stroke: #ff7f0e; stroke-width: 1.5; stroke-linecap: round"/>
   </g>
   <g id="line2d_15">
    <path d="M 58.417442 268.083203 
L 61.374249 256.770853 
L 64.331055 245.458503 
L 67.287862 232.23868 
L 70.244668 223.198641 
L 73.201475 213.823778 
L 76.158281 202.562458 
L 79.115088 194.200367 
L 82.071894 186.290796 
L 85.028701 179.651238 
L 87.985508 173.797369 
L 90.942314 168.627092 
L 93.899121 163.4152 
L 96.855927 157.948956 
L 99.812734 152.762528 
L 102.76954 148.034478 
L 105.726347 143.611209 
L 108.683153 139.189955 
L 111.63996 135.715614 
L 114.596766 132.228195 
L 117.553573 129.166724 
L 120.510379 125.820157 
L 123.467186 122.914091 
L 126.423992 119.744937 
L 129.380799 116.810441 
L 132.337605 113.920008 
L 135.294412 111.598844 
L 138.251218 109.406083 
L 141.208025 107.357465 
L 144.164831 105.334523 
L 147.121638 103.240679 
L 150.078445 101.061071 
L 153.035251 98.720345 
L 155.992058 96.454719 
L 158.948864 94.169056 
L 161.905671 92.067416 
L 164.862477 89.979529 
L 167.819284 87.906765 
L 170.77609 86.018642 
L 173.732897 84.332476 
L 176.689703 82.671318 
L 179.64651 81.011523 
L 182.603316 79.371964 
L 185.560123 77.689508 
L 188.516929 76.017286 
L 191.473736 74.361962 
L 194.430542 72.711742 
L 197.387349 71.003039 
L 200.344155 69.478988 
L 203.300962 68.15977 
L 206.257768 66.967132 
L 209.214575 65.505138 
L 212.171382 64.430429 
L 215.128188 63.35064 
L 218.084995 62.319759 
L 221.041801 61.314918 
L 223.998608 60.313856 
L 226.955414 59.404015 
L 229.912221 58.529504 
L 232.869027 57.679864 
L 235.825834 56.859759 
L 238.78264 56.070258 
L 241.739447 55.257581 
L 244.696253 54.434025 
L 247.65306 53.628037 
L 250.609866 52.86397 
L 253.566673 52.112104 
L 256.523479 51.377163 
L 259.480286 50.758867 
L 262.437092 50.127831 
L 265.393899 49.51553 
L 268.350706 48.942826 
L 271.307512 48.414601 
L 274.264319 47.871652 
L 277.221125 47.291974 
L 280.177932 46.676954 
L 283.134738 46.072629 
L 286.091545 45.455764 
L 289.048351 44.827685 
L 292.005158 44.313392 
L 294.961964 43.803493 
L 297.918771 43.293853 
L 300.875577 42.811226 
L 303.832384 42.338508 
L 306.78919 41.895419 
L 309.745997 41.497183 
L 312.702803 41.126113 
L 315.65961 40.776345 
L 318.616416 40.471285 
L 321.573223 40.196876 
L 324.530029 39.897214 
L 327.486836 39.56339 
L 330.443643 39.224856 
L 333.400449 38.849276 
L 336.357256 38.480239 
L 339.314062 38.141801 
L 342.270869 37.808545 
L 345.227675 37.457876 
L 348.184482 37.107206 
L 351.141288 36.756537 
" clip-path="url(#pfafea71807)" style="fill: none; stroke: #2ca02c; stroke-width: 1.5; stroke-linecap: round"/>
   </g>
   <g id="line2d_16">
    <path d="M 58.417442 271.443129 
L 61.374249 260.292899 
L 64.331055 248.714313 
L 67.287862 237.174113 
L 70.244668 228.434969 
L 73.201475 220.326258 
L 76.158281 210.353265 
L 79.115088 202.643558 
L 82.071894 194.798874 
L 85.028701 188.536651 
L 87.985508 183.336697 
L 90.942314 178.2803 
L 93.899121 173.301462 
L 96.855927 167.794979 
L 99.812734 162.536903 
L 102.76954 156.571351 
L 105.726347 152.454846 
L 108.683153 148.486017 
L 111.63996 144.295862 
L 114.596766 140.379168 
L 117.553573 136.641287 
L 120.510379 133.17939 
L 123.467186 130.140227 
L 126.423992 126.678387 
L 129.380799 123.90153 
L 132.337605 121.11905 
L 135.294412 117.869342 
L 138.251218 114.688223 
L 141.208025 111.919918 
L 144.164831 109.420462 
L 147.121638 107.022603 
L 150.078445 104.765944 
L 153.035251 102.640746 
L 155.992058 100.676984 
L 158.948864 98.792913 
L 161.905671 96.933308 
L 164.862477 95.059749 
L 167.819284 93.226399 
L 170.77609 91.357663 
L 173.732897 89.503297 
L 176.689703 87.689469 
L 179.64651 85.978772 
L 182.603316 84.358388 
L 185.560123 82.787203 
L 188.516929 81.253595 
L 191.473736 79.75654 
L 194.430542 78.27794 
L 197.387349 76.782788 
L 200.344155 75.327639 
L 203.300962 73.958239 
L 206.257768 72.629472 
L 209.214575 71.322077 
L 212.171382 70.045482 
L 215.128188 68.704265 
L 218.084995 67.287944 
L 221.041801 65.968102 
L 223.998608 64.731976 
L 226.955414 63.560115 
L 229.912221 62.483463 
L 232.869027 61.338237 
L 235.825834 60.10185 
L 238.78264 58.848542 
L 241.739447 57.676038 
L 244.696253 56.673777 
L 247.65306 55.721784 
L 250.609866 54.823639 
L 253.566673 53.901455 
L 256.523479 52.992285 
L 259.480286 52.131931 
L 262.437092 51.340169 
L 265.393899 50.569252 
L 268.350706 49.865697 
L 271.307512 49.177718 
L 274.264319 48.516447 
L 277.221125 47.880229 
L 280.177932 47.271714 
L 283.134738 46.686299 
L 286.091545 46.115624 
L 289.048351 45.537009 
L 292.005158 44.951659 
L 294.961964 44.397964 
L 297.918771 43.853834 
L 300.875577 43.321351 
L 303.832384 42.798182 
L 306.78919 42.313169 
L 309.745997 41.858027 
L 312.702803 41.453878 
L 315.65961 41.079896 
L 318.616416 40.746054 
L 321.573223 40.406779 
L 324.530029 40.041991 
L 327.486836 39.675395 
L 330.443643 39.331484 
L 333.400449 38.999475 
L 336.357256 38.656728 
L 339.314062 38.302607 
L 342.270869 37.946414 
L 345.227675 37.579509 
L 348.184482 37.205789 
L 351.141288 36.756537 
" clip-path="url(#pfafea71807)" style="fill: none; stroke: #d62728; stroke-width: 1.5; stroke-linecap: round"/>
   </g>
   <g id="line2d_17">
    <path d="M 58.417442 273.88354 
L 61.374249 263.36796 
L 64.331055 252.852381 
L 67.287862 240.306564 
L 70.244668 232.661924 
L 73.201475 224.842556 
L 76.158281 216.595472 
L 79.115088 209.722992 
L 82.071894 202.309376 
L 85.028701 195.74239 
L 87.985508 189.722605 
L 90.942314 184.323899 
L 93.899121 178.891799 
L 96.855927 174.024218 
L 99.812734 169.12718 
L 102.76954 164.928439 
L 105.726347 160.70463 
L 108.683153 156.825054 
L 111.63996 152.581924 
L 114.596766 148.408082 
L 117.553573 144.212482 
L 120.510379 140.666627 
L 123.467186 137.10484 
L 126.423992 133.538559 
L 129.380799 130.517568 
L 132.337605 127.308851 
L 135.294412 124.317769 
L 138.251218 121.579922 
L 141.208025 118.650121 
L 144.164831 116.104331 
L 147.121638 113.509351 
L 150.078445 111.163155 
L 153.035251 108.842223 
L 155.992058 106.648199 
L 158.948864 104.542251 
L 161.905671 102.351072 
L 164.862477 100.086391 
L 167.819284 97.837501 
L 170.77609 95.80398 
L 173.732897 93.968616 
L 176.689703 92.208015 
L 179.64651 90.537194 
L 182.603316 88.98246 
L 185.560123 87.160636 
L 188.516929 85.521548 
L 191.473736 83.850746 
L 194.430542 82.339121 
L 197.387349 80.998606 
L 200.344155 79.694022 
L 203.300962 78.382551 
L 206.257768 76.904915 
L 209.214575 75.624503 
L 212.171382 74.340483 
L 215.128188 73.022507 
L 218.084995 71.689471 
L 221.041801 70.234498 
L 223.998608 68.928417 
L 226.955414 67.681347 
L 229.912221 66.511409 
L 232.869027 65.396767 
L 235.825834 64.291156 
L 238.78264 63.165012 
L 241.739447 62.094766 
L 244.696253 60.87365 
L 247.65306 59.506754 
L 250.609866 58.158148 
L 253.566673 57.154717 
L 256.523479 56.20729 
L 259.480286 55.279466 
L 262.437092 54.350494 
L 265.393899 53.444029 
L 268.350706 52.609773 
L 271.307512 51.810025 
L 274.264319 51.08365 
L 277.221125 50.368658 
L 280.177932 49.639958 
L 283.134738 48.890177 
L 286.091545 48.133265 
L 289.048351 47.364179 
L 292.005158 46.592878 
L 294.961964 45.852188 
L 297.918771 45.101511 
L 300.875577 44.388712 
L 303.832384 43.721076 
L 306.78919 43.126116 
L 309.745997 42.531974 
L 312.702803 41.964429 
L 315.65961 41.431505 
L 318.616416 40.984751 
L 321.573223 40.563844 
L 324.530029 40.17815 
L 327.486836 39.812495 
L 330.443643 39.463049 
L 333.400449 39.129198 
L 336.357256 38.792221 
L 339.314062 38.437546 
L 342.270869 38.069466 
L 345.227675 37.668401 
L 348.184482 37.212469 
L 351.141288 36.756537 
" clip-path="url(#pfafea71807)" style="fill: none; stroke: #9467bd; stroke-width: 1.5; stroke-linecap: round"/>
   </g>
   <g id="line2d_18">
    <path d="M 58.417442 293.562784 
L 351.141288 36.756537 
" clip-path="url(#pfafea71807)" style="fill: none; stroke-dasharray: 7.4,3.2; stroke-dashoffset: 0; stroke: #000000; stroke-width: 2"/>
   </g>
   <g id="patch_3">
    <path d="M 43.78125 313.478125 
L 43.78125 22.318125 
" style="fill: none; stroke: #ffffff; stroke-width: 0.8; stroke-linejoin: miter; stroke-linecap: square"/>
   </g>
   <g id="patch_4">
    <path d="M 365.77748 313.478125 
L 365.77748 22.318125 
" style="fill: none; stroke: #ffffff; stroke-width: 0.8; stroke-linejoin: miter; stroke-linecap: square"/>
   </g>
   <g id="patch_5">
    <path d="M 43.78125 313.478125 
L 365.77748 313.478125 
" style="fill: none; stroke: #ffffff; stroke-width: 0.8; stroke-linejoin: miter; stroke-linecap: square"/>
   </g>
   <g id="patch_6">
    <path d="M 43.78125 22.318125 
L 365.77748 22.318125 
" style="fill: none; stroke: #ffffff; stroke-width: 0.8; stroke-linejoin: miter; stroke-linecap: square"/>
   </g>
   <g id="text_15">
    <!-- ROC Curve -->
    <g style="fill: #262626" transform="translate(172.08874 16.318125) scale(0.12 -0.12)">
     <defs>
      <path id="DejaVuSans-4f" d="M 2522 4238 
Q 1834 4238 1429 3725 
Q 1025 3213 1025 2328 
Q 1025 1447 1429 934 
Q 1834 422 2522 422 
Q 3209 422 3611 934 
Q 4013 1447 4013 2328 
Q 4013 3213 3611 3725 
Q 3209 4238 2522 4238 
z
M 2522 4750 
Q 3503 4750 4090 4092 
Q 4678 3434 4678 2328 
Q 4678 1225 4090 567 
Q 3503 -91 2522 -91 
Q 1538 -91 948 565 
Q 359 1222 359 2328 
Q 359 3434 948 4092 
Q 1538 4750 2522 4750 
z
" transform="scale(0.015625)"/>
      <path id="DejaVuSans-43" d="M 4122 4306 
L 4122 3641 
Q 3803 3938 3442 4084 
Q 3081 4231 2675 4231 
Q 1875 4231 1450 3742 
Q 1025 3253 1025 2328 
Q 1025 1406 1450 917 
Q 1875 428 2675 428 
Q 3081 428 3442 575 
Q 3803 722 4122 1019 
L 4122 359 
Q 3791 134 3420 21 
Q 3050 -91 2638 -91 
Q 1578 -91 968 557 
Q 359 1206 359 2328 
Q 359 3453 968 4101 
Q 1578 4750 2638 4750 
Q 3056 4750 3426 4639 
Q 3797 4528 4122 4306 
z
" transform="scale(0.015625)"/>
     </defs>
     <use xlink:href="#DejaVuSans-52"/>
     <use xlink:href="#DejaVuSans-4f" transform="translate(69.482422 0)"/>
     <use xlink:href="#DejaVuSans-43" transform="translate(148.193359 0)"/>
     <use xlink:href="#DejaVuSans-20" transform="translate(218.017578 0)"/>
     <use xlink:href="#DejaVuSans-43" transform="translate(249.804688 0)"/>
     <use xlink:href="#DejaVuSans-75" transform="translate(319.628906 0)"/>
     <use xlink:href="#DejaVuSans-72" transform="translate(383.007812 0)"/>
     <use xlink:href="#DejaVuSans-76" transform="translate(424.121094 0)"/>
     <use xlink:href="#DejaVuSans-65" transform="translate(483.300781 0)"/>
    </g>
   </g>
   <g id="legend_1">
    <g id="patch_7">
     <path d="M 372.77748 213.4325 
L 558.87748 213.4325 
Q 560.87748 213.4325 560.87748 211.4325 
L 560.87748 124.36375 
Q 560.87748 122.36375 558.87748 122.36375 
L 372.77748 122.36375 
Q 370.77748 122.36375 370.77748 124.36375 
L 370.77748 211.4325 
Q 370.77748 213.4325 372.77748 213.4325 
z
" style="fill: #eaeaf2; opacity: 0.8; stroke: #cccccc; stroke-linejoin: miter"/>
    </g>
    <g id="line2d_19">
     <path d="M 374.77748 130.462188 
L 384.77748 130.462188 
L 394.77748 130.462188 
" style="fill: none; stroke: #1f77b4; stroke-width: 1.5; stroke-linecap: round"/>
    </g>
    <g id="text_16">
     <!-- 0% Noise (AUC$ = 0.83 \pm  0.04$) -->
     <g style="fill: #262626" transform="translate(402.77748 133.962188) scale(0.1 -0.1)">
      <defs>
       <path id="DejaVuSans-25" d="M 4653 2053 
Q 4381 2053 4226 1822 
Q 4072 1591 4072 1178 
Q 4072 772 4226 539 
Q 4381 306 4653 306 
Q 4919 306 5073 539 
Q 5228 772 5228 1178 
Q 5228 1588 5073 1820 
Q 4919 2053 4653 2053 
z
M 4653 2450 
Q 5147 2450 5437 2106 
Q 5728 1763 5728 1178 
Q 5728 594 5436 251 
Q 5144 -91 4653 -91 
Q 4153 -91 3862 251 
Q 3572 594 3572 1178 
Q 3572 1766 3864 2108 
Q 4156 2450 4653 2450 
z
M 1428 4353 
Q 1159 4353 1004 4120 
Q 850 3888 850 3481 
Q 850 3069 1003 2837 
Q 1156 2606 1428 2606 
Q 1700 2606 1854 2837 
Q 2009 3069 2009 3481 
Q 2009 3884 1853 4118 
Q 1697 4353 1428 4353 
z
M 4250 4750 
L 4750 4750 
L 1831 -91 
L 1331 -91 
L 4250 4750 
z
M 1428 4750 
Q 1922 4750 2215 4408 
Q 2509 4066 2509 3481 
Q 2509 2891 2217 2550 
Q 1925 2209 1428 2209 
Q 931 2209 642 2551 
Q 353 2894 353 3481 
Q 353 4063 643 4406 
Q 934 4750 1428 4750 
z
" transform="scale(0.015625)"/>
       <path id="DejaVuSans-4e" d="M 628 4666 
L 1478 4666 
L 3547 763 
L 3547 4666 
L 4159 4666 
L 4159 0 
L 3309 0 
L 1241 3903 
L 1241 0 
L 628 0 
L 628 4666 
z
" transform="scale(0.015625)"/>
       <path id="DejaVuSans-28" d="M 1984 4856 
Q 1566 4138 1362 3434 
Q 1159 2731 1159 2009 
Q 1159 1288 1364 580 
Q 1569 -128 1984 -844 
L 1484 -844 
Q 1016 -109 783 600 
Q 550 1309 550 2009 
Q 550 2706 781 3412 
Q 1013 4119 1484 4856 
L 1984 4856 
z
" transform="scale(0.015625)"/>
       <path id="DejaVuSans-41" d="M 2188 4044 
L 1331 1722 
L 3047 1722 
L 2188 4044 
z
M 1831 4666 
L 2547 4666 
L 4325 0 
L 3669 0 
L 3244 1197 
L 1141 1197 
L 716 0 
L 50 0 
L 1831 4666 
z
" transform="scale(0.015625)"/>
       <path id="DejaVuSans-55" d="M 556 4666 
L 1191 4666 
L 1191 1831 
Q 1191 1081 1462 751 
Q 1734 422 2344 422 
Q 2950 422 3222 751 
Q 3494 1081 3494 1831 
L 3494 4666 
L 4128 4666 
L 4128 1753 
Q 4128 841 3676 375 
Q 3225 -91 2344 -91 
Q 1459 -91 1007 375 
Q 556 841 556 1753 
L 556 4666 
z
" transform="scale(0.015625)"/>
       <path id="DejaVuSans-3d" d="M 678 2906 
L 4684 2906 
L 4684 2381 
L 678 2381 
L 678 2906 
z
M 678 1631 
L 4684 1631 
L 4684 1100 
L 678 1100 
L 678 1631 
z
" transform="scale(0.015625)"/>
       <path id="DejaVuSans-33" d="M 2597 2516 
Q 3050 2419 3304 2112 
Q 3559 1806 3559 1356 
Q 3559 666 3084 287 
Q 2609 -91 1734 -91 
Q 1441 -91 1130 -33 
Q 819 25 488 141 
L 488 750 
Q 750 597 1062 519 
Q 1375 441 1716 441 
Q 2309 441 2620 675 
Q 2931 909 2931 1356 
Q 2931 1769 2642 2001 
Q 2353 2234 1838 2234 
L 1294 2234 
L 1294 2753 
L 1863 2753 
Q 2328 2753 2575 2939 
Q 2822 3125 2822 3475 
Q 2822 3834 2567 4026 
Q 2313 4219 1838 4219 
Q 1578 4219 1281 4162 
Q 984 4106 628 3988 
L 628 4550 
Q 988 4650 1302 4700 
Q 1616 4750 1894 4750 
Q 2613 4750 3031 4423 
Q 3450 4097 3450 3541 
Q 3450 3153 3228 2886 
Q 3006 2619 2597 2516 
z
" transform="scale(0.015625)"/>
       <path id="DejaVuSans-b1" d="M 2944 4013 
L 2944 2803 
L 4684 2803 
L 4684 2272 
L 2944 2272 
L 2944 1063 
L 2419 1063 
L 2419 2272 
L 678 2272 
L 678 2803 
L 2419 2803 
L 2419 4013 
L 2944 4013 
z
M 678 531 
L 4684 531 
L 4684 0 
L 678 0 
L 678 531 
z
" transform="scale(0.015625)"/>
       <path id="DejaVuSans-29" d="M 513 4856 
L 1013 4856 
Q 1481 4119 1714 3412 
Q 1947 2706 1947 2009 
Q 1947 1309 1714 600 
Q 1481 -109 1013 -844 
L 513 -844 
Q 928 -128 1133 580 
Q 1338 1288 1338 2009 
Q 1338 2731 1133 3434 
Q 928 4138 513 4856 
z
" transform="scale(0.015625)"/>
      </defs>
      <use xlink:href="#DejaVuSans-30" transform="translate(0 0.015625)"/>
      <use xlink:href="#DejaVuSans-25" transform="translate(63.623047 0.015625)"/>
      <use xlink:href="#DejaVuSans-20" transform="translate(158.642578 0.015625)"/>
      <use xlink:href="#DejaVuSans-4e" transform="translate(190.429688 0.015625)"/>
      <use xlink:href="#DejaVuSans-6f" transform="translate(265.234375 0.015625)"/>
      <use xlink:href="#DejaVuSans-69" transform="translate(326.416016 0.015625)"/>
      <use xlink:href="#DejaVuSans-73" transform="translate(354.199219 0.015625)"/>
      <use xlink:href="#DejaVuSans-65" transform="translate(406.298828 0.015625)"/>
      <use xlink:href="#DejaVuSans-20" transform="translate(467.822266 0.015625)"/>
      <use xlink:href="#DejaVuSans-28" transform="translate(499.609375 0.015625)"/>
      <use xlink:href="#DejaVuSans-41" transform="translate(538.623047 0.015625)"/>
      <use xlink:href="#DejaVuSans-55" transform="translate(607.03125 0.015625)"/>
      <use xlink:href="#DejaVuSans-43" transform="translate(680.224609 0.015625)"/>
      <use xlink:href="#DejaVuSans-3d" transform="translate(769.53125 0.015625)"/>
      <use xlink:href="#DejaVuSans-30" transform="translate(872.802734 0.015625)"/>
      <use xlink:href="#DejaVuSans-2e" transform="translate(936.425781 0.015625)"/>
      <use xlink:href="#DejaVuSans-38" transform="translate(965.587891 0.015625)"/>
      <use xlink:href="#DejaVuSans-33" transform="translate(1029.210938 0.015625)"/>
      <use xlink:href="#DejaVuSans-b1" transform="translate(1112.316406 0.015625)"/>
      <use xlink:href="#DejaVuSans-30" transform="translate(1215.587891 0.015625)"/>
      <use xlink:href="#DejaVuSans-2e" transform="translate(1279.210938 0.015625)"/>
      <use xlink:href="#DejaVuSans-30" transform="translate(1310.998047 0.015625)"/>
      <use xlink:href="#DejaVuSans-34" transform="translate(1374.621094 0.015625)"/>
      <use xlink:href="#DejaVuSans-29" transform="translate(1438.244141 0.015625)"/>
     </g>
    </g>
    <g id="line2d_20">
     <path d="M 374.77748 145.140313 
L 384.77748 145.140313 
L 394.77748 145.140313 
" style="fill: none; stroke: #ff7f0e; stroke-width: 1.5; stroke-linecap: round"/>
    </g>
    <g id="text_17">
     <!-- 5% Noise (AUC$ = 0.81 \pm  0.05$) -->
     <g style="fill: #262626" transform="translate(402.77748 148.640313) scale(0.1 -0.1)">
      <defs>
       <path id="DejaVuSans-35" d="M 691 4666 
L 3169 4666 
L 3169 4134 
L 1269 4134 
L 1269 2991 
Q 1406 3038 1543 3061 
Q 1681 3084 1819 3084 
Q 2600 3084 3056 2656 
Q 3513 2228 3513 1497 
Q 3513 744 3044 326 
Q 2575 -91 1722 -91 
Q 1428 -91 1123 -41 
Q 819 9 494 109 
L 494 744 
Q 775 591 1075 516 
Q 1375 441 1709 441 
Q 2250 441 2565 725 
Q 2881 1009 2881 1497 
Q 2881 1984 2565 2268 
Q 2250 2553 1709 2553 
Q 1456 2553 1204 2497 
Q 953 2441 691 2322 
L 691 4666 
z
" transform="scale(0.015625)"/>
      </defs>
      <use xlink:href="#DejaVuSans-35" transform="translate(0 0.015625)"/>
      <use xlink:href="#DejaVuSans-25" transform="translate(63.623047 0.015625)"/>
      <use xlink:href="#DejaVuSans-20" transform="translate(158.642578 0.015625)"/>
      <use xlink:href="#DejaVuSans-4e" transform="translate(190.429688 0.015625)"/>
      <use xlink:href="#DejaVuSans-6f" transform="translate(265.234375 0.015625)"/>
      <use xlink:href="#DejaVuSans-69" transform="translate(326.416016 0.015625)"/>
      <use xlink:href="#DejaVuSans-73" transform="translate(354.199219 0.015625)"/>
      <use xlink:href="#DejaVuSans-65" transform="translate(406.298828 0.015625)"/>
      <use xlink:href="#DejaVuSans-20" transform="translate(467.822266 0.015625)"/>
      <use xlink:href="#DejaVuSans-28" transform="translate(499.609375 0.015625)"/>
      <use xlink:href="#DejaVuSans-41" transform="translate(538.623047 0.015625)"/>
      <use xlink:href="#DejaVuSans-55" transform="translate(607.03125 0.015625)"/>
      <use xlink:href="#DejaVuSans-43" transform="translate(680.224609 0.015625)"/>
      <use xlink:href="#DejaVuSans-3d" transform="translate(769.53125 0.015625)"/>
      <use xlink:href="#DejaVuSans-30" transform="translate(872.802734 0.015625)"/>
      <use xlink:href="#DejaVuSans-2e" transform="translate(936.425781 0.015625)"/>
      <use xlink:href="#DejaVuSans-38" transform="translate(965.587891 0.015625)"/>
      <use xlink:href="#DejaVuSans-31" transform="translate(1029.210938 0.015625)"/>
      <use xlink:href="#DejaVuSans-b1" transform="translate(1112.316406 0.015625)"/>
      <use xlink:href="#DejaVuSans-30" transform="translate(1215.587891 0.015625)"/>
      <use xlink:href="#DejaVuSans-2e" transform="translate(1279.210938 0.015625)"/>
      <use xlink:href="#DejaVuSans-30" transform="translate(1310.998047 0.015625)"/>
      <use xlink:href="#DejaVuSans-35" transform="translate(1374.621094 0.015625)"/>
      <use xlink:href="#DejaVuSans-29" transform="translate(1438.244141 0.015625)"/>
     </g>
    </g>
    <g id="line2d_21">
     <path d="M 374.77748 159.818438 
L 384.77748 159.818438 
L 394.77748 159.818438 
" style="fill: none; stroke: #2ca02c; stroke-width: 1.5; stroke-linecap: round"/>
    </g>
    <g id="text_18">
     <!-- 10% Noise (AUC$ = 0.80 \pm  0.05$) -->
     <g style="fill: #262626" transform="translate(402.77748 163.318438) scale(0.1 -0.1)">
      <use xlink:href="#DejaVuSans-31" transform="translate(0 0.015625)"/>
      <use xlink:href="#DejaVuSans-30" transform="translate(63.623047 0.015625)"/>
      <use xlink:href="#DejaVuSans-25" transform="translate(127.246094 0.015625)"/>
      <use xlink:href="#DejaVuSans-20" transform="translate(222.265625 0.015625)"/>
      <use xlink:href="#DejaVuSans-4e" transform="translate(254.052734 0.015625)"/>
      <use xlink:href="#DejaVuSans-6f" transform="translate(328.857422 0.015625)"/>
      <use xlink:href="#DejaVuSans-69" transform="translate(390.039062 0.015625)"/>
      <use xlink:href="#DejaVuSans-73" transform="translate(417.822266 0.015625)"/>
      <use xlink:href="#DejaVuSans-65" transform="translate(469.921875 0.015625)"/>
      <use xlink:href="#DejaVuSans-20" transform="translate(531.445312 0.015625)"/>
      <use xlink:href="#DejaVuSans-28" transform="translate(563.232422 0.015625)"/>
      <use xlink:href="#DejaVuSans-41" transform="translate(602.246094 0.015625)"/>
      <use xlink:href="#DejaVuSans-55" transform="translate(670.654297 0.015625)"/>
      <use xlink:href="#DejaVuSans-43" transform="translate(743.847656 0.015625)"/>
      <use xlink:href="#DejaVuSans-3d" transform="translate(833.154297 0.015625)"/>
      <use xlink:href="#DejaVuSans-30" transform="translate(936.425781 0.015625)"/>
      <use xlink:href="#DejaVuSans-2e" transform="translate(1000.048828 0.015625)"/>
      <use xlink:href="#DejaVuSans-38" transform="translate(1029.210938 0.015625)"/>
      <use xlink:href="#DejaVuSans-30" transform="translate(1092.833984 0.015625)"/>
      <use xlink:href="#DejaVuSans-b1" transform="translate(1175.939453 0.015625)"/>
      <use xlink:href="#DejaVuSans-30" transform="translate(1279.210938 0.015625)"/>
      <use xlink:href="#DejaVuSans-2e" transform="translate(1342.833984 0.015625)"/>
      <use xlink:href="#DejaVuSans-30" transform="translate(1374.621094 0.015625)"/>
      <use xlink:href="#DejaVuSans-35" transform="translate(1438.244141 0.015625)"/>
      <use xlink:href="#DejaVuSans-29" transform="translate(1501.867188 0.015625)"/>
     </g>
    </g>
    <g id="line2d_22">
     <path d="M 374.77748 174.496563 
L 384.77748 174.496563 
L 394.77748 174.496563 
" style="fill: none; stroke: #d62728; stroke-width: 1.5; stroke-linecap: round"/>
    </g>
    <g id="text_19">
     <!-- 15% Noise (AUC$ = 0.78 \pm  0.05$) -->
     <g style="fill: #262626" transform="translate(402.77748 177.996563) scale(0.1 -0.1)">
      <defs>
       <path id="DejaVuSans-37" d="M 525 4666 
L 3525 4666 
L 3525 4397 
L 1831 0 
L 1172 0 
L 2766 4134 
L 525 4134 
L 525 4666 
z
" transform="scale(0.015625)"/>
      </defs>
      <use xlink:href="#DejaVuSans-31" transform="translate(0 0.015625)"/>
      <use xlink:href="#DejaVuSans-35" transform="translate(63.623047 0.015625)"/>
      <use xlink:href="#DejaVuSans-25" transform="translate(127.246094 0.015625)"/>
      <use xlink:href="#DejaVuSans-20" transform="translate(222.265625 0.015625)"/>
      <use xlink:href="#DejaVuSans-4e" transform="translate(254.052734 0.015625)"/>
      <use xlink:href="#DejaVuSans-6f" transform="translate(328.857422 0.015625)"/>
      <use xlink:href="#DejaVuSans-69" transform="translate(390.039062 0.015625)"/>
      <use xlink:href="#DejaVuSans-73" transform="translate(417.822266 0.015625)"/>
      <use xlink:href="#DejaVuSans-65" transform="translate(469.921875 0.015625)"/>
      <use xlink:href="#DejaVuSans-20" transform="translate(531.445312 0.015625)"/>
      <use xlink:href="#DejaVuSans-28" transform="translate(563.232422 0.015625)"/>
      <use xlink:href="#DejaVuSans-41" transform="translate(602.246094 0.015625)"/>
      <use xlink:href="#DejaVuSans-55" transform="translate(670.654297 0.015625)"/>
      <use xlink:href="#DejaVuSans-43" transform="translate(743.847656 0.015625)"/>
      <use xlink:href="#DejaVuSans-3d" transform="translate(833.154297 0.015625)"/>
      <use xlink:href="#DejaVuSans-30" transform="translate(936.425781 0.015625)"/>
      <use xlink:href="#DejaVuSans-2e" transform="translate(1000.048828 0.015625)"/>
      <use xlink:href="#DejaVuSans-37" transform="translate(1024.085938 0.015625)"/>
      <use xlink:href="#DejaVuSans-38" transform="translate(1087.708984 0.015625)"/>
      <use xlink:href="#DejaVuSans-b1" transform="translate(1170.814453 0.015625)"/>
      <use xlink:href="#DejaVuSans-30" transform="translate(1274.085938 0.015625)"/>
      <use xlink:href="#DejaVuSans-2e" transform="translate(1337.708984 0.015625)"/>
      <use xlink:href="#DejaVuSans-30" transform="translate(1369.496094 0.015625)"/>
      <use xlink:href="#DejaVuSans-35" transform="translate(1433.119141 0.015625)"/>
      <use xlink:href="#DejaVuSans-29" transform="translate(1496.742188 0.015625)"/>
     </g>
    </g>
    <g id="line2d_23">
     <path d="M 374.77748 189.174688 
L 384.77748 189.174688 
L 394.77748 189.174688 
" style="fill: none; stroke: #9467bd; stroke-width: 1.5; stroke-linecap: round"/>
    </g>
    <g id="text_20">
     <!-- 20% Noise (AUC$ = 0.76 \pm  0.05$) -->
     <g style="fill: #262626" transform="translate(402.77748 192.674688) scale(0.1 -0.1)">
      <use xlink:href="#DejaVuSans-32" transform="translate(0 0.015625)"/>
      <use xlink:href="#DejaVuSans-30" transform="translate(63.623047 0.015625)"/>
      <use xlink:href="#DejaVuSans-25" transform="translate(127.246094 0.015625)"/>
      <use xlink:href="#DejaVuSans-20" transform="translate(222.265625 0.015625)"/>
      <use xlink:href="#DejaVuSans-4e" transform="translate(254.052734 0.015625)"/>
      <use xlink:href="#DejaVuSans-6f" transform="translate(328.857422 0.015625)"/>
      <use xlink:href="#DejaVuSans-69" transform="translate(390.039062 0.015625)"/>
      <use xlink:href="#DejaVuSans-73" transform="translate(417.822266 0.015625)"/>
      <use xlink:href="#DejaVuSans-65" transform="translate(469.921875 0.015625)"/>
      <use xlink:href="#DejaVuSans-20" transform="translate(531.445312 0.015625)"/>
      <use xlink:href="#DejaVuSans-28" transform="translate(563.232422 0.015625)"/>
      <use xlink:href="#DejaVuSans-41" transform="translate(602.246094 0.015625)"/>
      <use xlink:href="#DejaVuSans-55" transform="translate(670.654297 0.015625)"/>
      <use xlink:href="#DejaVuSans-43" transform="translate(743.847656 0.015625)"/>
      <use xlink:href="#DejaVuSans-3d" transform="translate(833.154297 0.015625)"/>
      <use xlink:href="#DejaVuSans-30" transform="translate(936.425781 0.015625)"/>
      <use xlink:href="#DejaVuSans-2e" transform="translate(1000.048828 0.015625)"/>
      <use xlink:href="#DejaVuSans-37" transform="translate(1024.085938 0.015625)"/>
      <use xlink:href="#DejaVuSans-36" transform="translate(1087.708984 0.015625)"/>
      <use xlink:href="#DejaVuSans-b1" transform="translate(1170.814453 0.015625)"/>
      <use xlink:href="#DejaVuSans-30" transform="translate(1274.085938 0.015625)"/>
      <use xlink:href="#DejaVuSans-2e" transform="translate(1337.708984 0.015625)"/>
      <use xlink:href="#DejaVuSans-30" transform="translate(1369.496094 0.015625)"/>
      <use xlink:href="#DejaVuSans-35" transform="translate(1433.119141 0.015625)"/>
      <use xlink:href="#DejaVuSans-29" transform="translate(1496.742188 0.015625)"/>
     </g>
    </g>
    <g id="line2d_24">
     <path d="M 374.77748 203.852813 
L 384.77748 203.852813 
L 394.77748 203.852813 
" style="fill: none; stroke-dasharray: 7.4,3.2; stroke-dashoffset: 0; stroke: #000000; stroke-width: 2"/>
    </g>
    <g id="text_21">
     <!-- Random Chance -->
     <g style="fill: #262626" transform="translate(402.77748 207.352813) scale(0.1 -0.1)">
      <defs>
       <path id="DejaVuSans-6e" d="M 3513 2113 
L 3513 0 
L 2938 0 
L 2938 2094 
Q 2938 2591 2744 2837 
Q 2550 3084 2163 3084 
Q 1697 3084 1428 2787 
Q 1159 2491 1159 1978 
L 1159 0 
L 581 0 
L 581 3500 
L 1159 3500 
L 1159 2956 
Q 1366 3272 1645 3428 
Q 1925 3584 2291 3584 
Q 2894 3584 3203 3211 
Q 3513 2838 3513 2113 
z
" transform="scale(0.015625)"/>
       <path id="DejaVuSans-64" d="M 2906 2969 
L 2906 4863 
L 3481 4863 
L 3481 0 
L 2906 0 
L 2906 525 
Q 2725 213 2448 61 
Q 2172 -91 1784 -91 
Q 1150 -91 751 415 
Q 353 922 353 1747 
Q 353 2572 751 3078 
Q 1150 3584 1784 3584 
Q 2172 3584 2448 3432 
Q 2725 3281 2906 2969 
z
M 947 1747 
Q 947 1113 1208 752 
Q 1469 391 1925 391 
Q 2381 391 2643 752 
Q 2906 1113 2906 1747 
Q 2906 2381 2643 2742 
Q 2381 3103 1925 3103 
Q 1469 3103 1208 2742 
Q 947 2381 947 1747 
z
" transform="scale(0.015625)"/>
       <path id="DejaVuSans-6d" d="M 3328 2828 
Q 3544 3216 3844 3400 
Q 4144 3584 4550 3584 
Q 5097 3584 5394 3201 
Q 5691 2819 5691 2113 
L 5691 0 
L 5113 0 
L 5113 2094 
Q 5113 2597 4934 2840 
Q 4756 3084 4391 3084 
Q 3944 3084 3684 2787 
Q 3425 2491 3425 1978 
L 3425 0 
L 2847 0 
L 2847 2094 
Q 2847 2600 2669 2842 
Q 2491 3084 2119 3084 
Q 1678 3084 1418 2786 
Q 1159 2488 1159 1978 
L 1159 0 
L 581 0 
L 581 3500 
L 1159 3500 
L 1159 2956 
Q 1356 3278 1631 3431 
Q 1906 3584 2284 3584 
Q 2666 3584 2933 3390 
Q 3200 3197 3328 2828 
z
" transform="scale(0.015625)"/>
       <path id="DejaVuSans-68" d="M 3513 2113 
L 3513 0 
L 2938 0 
L 2938 2094 
Q 2938 2591 2744 2837 
Q 2550 3084 2163 3084 
Q 1697 3084 1428 2787 
Q 1159 2491 1159 1978 
L 1159 0 
L 581 0 
L 581 4863 
L 1159 4863 
L 1159 2956 
Q 1366 3272 1645 3428 
Q 1925 3584 2291 3584 
Q 2894 3584 3203 3211 
Q 3513 2838 3513 2113 
z
" transform="scale(0.015625)"/>
       <path id="DejaVuSans-63" d="M 3122 3366 
L 3122 2828 
Q 2878 2963 2633 3030 
Q 2388 3097 2138 3097 
Q 1578 3097 1268 2742 
Q 959 2388 959 1747 
Q 959 1106 1268 751 
Q 1578 397 2138 397 
Q 2388 397 2633 464 
Q 2878 531 3122 666 
L 3122 134 
Q 2881 22 2623 -34 
Q 2366 -91 2075 -91 
Q 1284 -91 818 406 
Q 353 903 353 1747 
Q 353 2603 823 3093 
Q 1294 3584 2113 3584 
Q 2378 3584 2631 3529 
Q 2884 3475 3122 3366 
z
" transform="scale(0.015625)"/>
      </defs>
      <use xlink:href="#DejaVuSans-52"/>
      <use xlink:href="#DejaVuSans-61" transform="translate(67.232422 0)"/>
      <use xlink:href="#DejaVuSans-6e" transform="translate(128.511719 0)"/>
      <use xlink:href="#DejaVuSans-64" transform="translate(191.890625 0)"/>
      <use xlink:href="#DejaVuSans-6f" transform="translate(255.367188 0)"/>
      <use xlink:href="#DejaVuSans-6d" transform="translate(316.548828 0)"/>
      <use xlink:href="#DejaVuSans-20" transform="translate(413.960938 0)"/>
      <use xlink:href="#DejaVuSans-43" transform="translate(445.748047 0)"/>
      <use xlink:href="#DejaVuSans-68" transform="translate(515.572266 0)"/>
      <use xlink:href="#DejaVuSans-61" transform="translate(578.951172 0)"/>
      <use xlink:href="#DejaVuSans-6e" transform="translate(640.230469 0)"/>
      <use xlink:href="#DejaVuSans-63" transform="translate(703.609375 0)"/>
      <use xlink:href="#DejaVuSans-65" transform="translate(758.589844 0)"/>
     </g>
    </g>
   </g>
  </g>
 </g>
 <defs>
  <clipPath id="pfafea71807">
   <rect x="43.78125" y="22.318125" width="321.99623" height="291.16"/>
  </clipPath>
 </defs>
</svg>
