<?xml version="1.0" encoding="utf-8" standalone="no"?>
<!DOCTYPE svg PUBLIC "-//W3C//DTD SVG 1.1//EN"
  "http://www.w3.org/Graphics/SVG/1.1/DTD/svg11.dtd">
<svg xmlns:xlink="http://www.w3.org/1999/xlink" width="568.07748pt" height="351.034375pt" viewBox="0 0 568.07748 351.034375" xmlns="http://www.w3.org/2000/svg" version="1.1">
 <metadata>
  <rdf:RDF xmlns:dc="http://purl.org/dc/elements/1.1/" xmlns:cc="http://creativecommons.org/ns#" xmlns:rdf="http://www.w3.org/1999/02/22-rdf-syntax-ns#">
   <cc:Work>
    <dc:type rdf:resource="http://purl.org/dc/dcmitype/StillImage"/>
    <dc:date>2025-05-21T11:17:59.238690</dc:date>
    <dc:format>image/svg+xml</dc:format>
    <dc:creator>
     <cc:Agent>
      <dc:title>Matplotlib v3.10.0, https://matplotlib.org/</dc:title>
     </cc:Agent>
    </dc:creator>
   </cc:Work>
  </rdf:RDF>
 </metadata>
 <defs>
  <style type="text/css">*{stroke-linejoin: round; stroke-linecap: butt}</style>
 </defs>
 <g id="figure_1">
  <g id="patch_1">
   <path d="M 0 351.034375 
L 568.07748 351.034375 
L 568.07748 0 
L 0 0 
z
" style="fill: #ffffff"/>
  </g>
  <g id="axes_1">
   <g id="patch_2">
    <path d="M 43.78125 313.478125 
L 365.77748 313.478125 
L 365.77748 22.318125 
L 43.78125 22.318125 
z
" style="fill: #eaeaf2"/>
   </g>
   <g id="matplotlib.axis_1">
    <g id="xtick_1">
     <g id="line2d_1">
      <path d="M 58.417442 313.478125 
L 58.417442 22.318125 
" clip-path="url(#pb3666d10b7)" style="fill: none; stroke-dasharray: 2.96,1.28; stroke-dashoffset: 0; stroke: #ffffff; stroke-opacity: 0.7; stroke-width: 0.8"/>
     </g>
     <g id="text_1">
      <!-- 0.0 -->
      <g style="fill: #262626" transform="translate(50.46588 328.076563) scale(0.1 -0.1)">
       <defs>
        <path id="DejaVuSans-30" d="M 2034 4250 
Q 1547 4250 1301 3770 
Q 1056 3291 1056 2328 
Q 1056 1369 1301 889 
Q 1547 409 2034 409 
Q 2525 409 2770 889 
Q 3016 1369 3016 2328 
Q 3016 3291 2770 3770 
Q 2525 4250 2034 4250 
z
M 2034 4750 
Q 2819 4750 3233 4129 
Q 3647 3509 3647 2328 
Q 3647 1150 3233 529 
Q 2819 -91 2034 -91 
Q 1250 -91 836 529 
Q 422 1150 422 2328 
Q 422 3509 836 4129 
Q 1250 4750 2034 4750 
z
" transform="scale(0.015625)"/>
        <path id="DejaVuSans-2e" d="M 684 794 
L 1344 794 
L 1344 0 
L 684 0 
L 684 794 
z
" transform="scale(0.015625)"/>
       </defs>
       <use xlink:href="#DejaVuSans-30"/>
       <use xlink:href="#DejaVuSans-2e" transform="translate(63.623047 0)"/>
       <use xlink:href="#DejaVuSans-30" transform="translate(95.410156 0)"/>
      </g>
     </g>
    </g>
    <g id="xtick_2">
     <g id="line2d_2">
      <path d="M 116.962211 313.478125 
L 116.962211 22.318125 
" clip-path="url(#pb3666d10b7)" style="fill: none; stroke-dasharray: 2.96,1.28; stroke-dashoffset: 0; stroke: #ffffff; stroke-opacity: 0.7; stroke-width: 0.8"/>
     </g>
     <g id="text_2">
      <!-- 0.2 -->
      <g style="fill: #262626" transform="translate(109.010649 328.076563) scale(0.1 -0.1)">
       <defs>
        <path id="DejaVuSans-32" d="M 1228 531 
L 3431 531 
L 3431 0 
L 469 0 
L 469 531 
Q 828 903 1448 1529 
Q 2069 2156 2228 2338 
Q 2531 2678 2651 2914 
Q 2772 3150 2772 3378 
Q 2772 3750 2511 3984 
Q 2250 4219 1831 4219 
Q 1534 4219 1204 4116 
Q 875 4013 500 3803 
L 500 4441 
Q 881 4594 1212 4672 
Q 1544 4750 1819 4750 
Q 2544 4750 2975 4387 
Q 3406 4025 3406 3419 
Q 3406 3131 3298 2873 
Q 3191 2616 2906 2266 
Q 2828 2175 2409 1742 
Q 1991 1309 1228 531 
z
" transform="scale(0.015625)"/>
       </defs>
       <use xlink:href="#DejaVuSans-30"/>
       <use xlink:href="#DejaVuSans-2e" transform="translate(63.623047 0)"/>
       <use xlink:href="#DejaVuSans-32" transform="translate(95.410156 0)"/>
      </g>
     </g>
    </g>
    <g id="xtick_3">
     <g id="line2d_3">
      <path d="M 175.506981 313.478125 
L 175.506981 22.318125 
" clip-path="url(#pb3666d10b7)" style="fill: none; stroke-dasharray: 2.96,1.28; stroke-dashoffset: 0; stroke: #ffffff; stroke-opacity: 0.7; stroke-width: 0.8"/>
     </g>
     <g id="text_3">
      <!-- 0.4 -->
      <g style="fill: #262626" transform="translate(167.555418 328.076563) scale(0.1 -0.1)">
       <defs>
        <path id="DejaVuSans-34" d="M 2419 4116 
L 825 1625 
L 2419 1625 
L 2419 4116 
z
M 2253 4666 
L 3047 4666 
L 3047 1625 
L 3713 1625 
L 3713 1100 
L 3047 1100 
L 3047 0 
L 2419 0 
L 2419 1100 
L 313 1100 
L 313 1709 
L 2253 4666 
z
" transform="scale(0.015625)"/>
       </defs>
       <use xlink:href="#DejaVuSans-30"/>
       <use xlink:href="#DejaVuSans-2e" transform="translate(63.623047 0)"/>
       <use xlink:href="#DejaVuSans-34" transform="translate(95.410156 0)"/>
      </g>
     </g>
    </g>
    <g id="xtick_4">
     <g id="line2d_4">
      <path d="M 234.05175 313.478125 
L 234.05175 22.318125 
" clip-path="url(#pb3666d10b7)" style="fill: none; stroke-dasharray: 2.96,1.28; stroke-dashoffset: 0; stroke: #ffffff; stroke-opacity: 0.7; stroke-width: 0.8"/>
     </g>
     <g id="text_4">
      <!-- 0.6 -->
      <g style="fill: #262626" transform="translate(226.100187 328.076563) scale(0.1 -0.1)">
       <defs>
        <path id="DejaVuSans-36" d="M 2113 2584 
Q 1688 2584 1439 2293 
Q 1191 2003 1191 1497 
Q 1191 994 1439 701 
Q 1688 409 2113 409 
Q 2538 409 2786 701 
Q 3034 994 3034 1497 
Q 3034 2003 2786 2293 
Q 2538 2584 2113 2584 
z
M 3366 4563 
L 3366 3988 
Q 3128 4100 2886 4159 
Q 2644 4219 2406 4219 
Q 1781 4219 1451 3797 
Q 1122 3375 1075 2522 
Q 1259 2794 1537 2939 
Q 1816 3084 2150 3084 
Q 2853 3084 3261 2657 
Q 3669 2231 3669 1497 
Q 3669 778 3244 343 
Q 2819 -91 2113 -91 
Q 1303 -91 875 529 
Q 447 1150 447 2328 
Q 447 3434 972 4092 
Q 1497 4750 2381 4750 
Q 2619 4750 2861 4703 
Q 3103 4656 3366 4563 
z
" transform="scale(0.015625)"/>
       </defs>
       <use xlink:href="#DejaVuSans-30"/>
       <use xlink:href="#DejaVuSans-2e" transform="translate(63.623047 0)"/>
       <use xlink:href="#DejaVuSans-36" transform="translate(95.410156 0)"/>
      </g>
     </g>
    </g>
    <g id="xtick_5">
     <g id="line2d_5">
      <path d="M 292.596519 313.478125 
L 292.596519 22.318125 
" clip-path="url(#pb3666d10b7)" style="fill: none; stroke-dasharray: 2.96,1.28; stroke-dashoffset: 0; stroke: #ffffff; stroke-opacity: 0.7; stroke-width: 0.8"/>
     </g>
     <g id="text_5">
      <!-- 0.8 -->
      <g style="fill: #262626" transform="translate(284.644956 328.076563) scale(0.1 -0.1)">
       <defs>
        <path id="DejaVuSans-38" d="M 2034 2216 
Q 1584 2216 1326 1975 
Q 1069 1734 1069 1313 
Q 1069 891 1326 650 
Q 1584 409 2034 409 
Q 2484 409 2743 651 
Q 3003 894 3003 1313 
Q 3003 1734 2745 1975 
Q 2488 2216 2034 2216 
z
M 1403 2484 
Q 997 2584 770 2862 
Q 544 3141 544 3541 
Q 544 4100 942 4425 
Q 1341 4750 2034 4750 
Q 2731 4750 3128 4425 
Q 3525 4100 3525 3541 
Q 3525 3141 3298 2862 
Q 3072 2584 2669 2484 
Q 3125 2378 3379 2068 
Q 3634 1759 3634 1313 
Q 3634 634 3220 271 
Q 2806 -91 2034 -91 
Q 1263 -91 848 271 
Q 434 634 434 1313 
Q 434 1759 690 2068 
Q 947 2378 1403 2484 
z
M 1172 3481 
Q 1172 3119 1398 2916 
Q 1625 2713 2034 2713 
Q 2441 2713 2670 2916 
Q 2900 3119 2900 3481 
Q 2900 3844 2670 4047 
Q 2441 4250 2034 4250 
Q 1625 4250 1398 4047 
Q 1172 3844 1172 3481 
z
" transform="scale(0.015625)"/>
       </defs>
       <use xlink:href="#DejaVuSans-30"/>
       <use xlink:href="#DejaVuSans-2e" transform="translate(63.623047 0)"/>
       <use xlink:href="#DejaVuSans-38" transform="translate(95.410156 0)"/>
      </g>
     </g>
    </g>
    <g id="xtick_6">
     <g id="line2d_6">
      <path d="M 351.141288 313.478125 
L 351.141288 22.318125 
" clip-path="url(#pb3666d10b7)" style="fill: none; stroke-dasharray: 2.96,1.28; stroke-dashoffset: 0; stroke: #ffffff; stroke-opacity: 0.7; stroke-width: 0.8"/>
     </g>
     <g id="text_6">
      <!-- 1.0 -->
      <g style="fill: #262626" transform="translate(343.189726 328.076563) scale(0.1 -0.1)">
       <defs>
        <path id="DejaVuSans-31" d="M 794 531 
L 1825 531 
L 1825 4091 
L 703 3866 
L 703 4441 
L 1819 4666 
L 2450 4666 
L 2450 531 
L 3481 531 
L 3481 0 
L 794 0 
L 794 531 
z
" transform="scale(0.015625)"/>
       </defs>
       <use xlink:href="#DejaVuSans-31"/>
       <use xlink:href="#DejaVuSans-2e" transform="translate(63.623047 0)"/>
       <use xlink:href="#DejaVuSans-30" transform="translate(95.410156 0)"/>
      </g>
     </g>
    </g>
    <g id="text_7">
     <!-- False Positive Rate -->
     <g style="fill: #262626" transform="translate(158.312959 341.754687) scale(0.1 -0.1)">
      <defs>
       <path id="DejaVuSans-46" d="M 628 4666 
L 3309 4666 
L 3309 4134 
L 1259 4134 
L 1259 2759 
L 3109 2759 
L 3109 2228 
L 1259 2228 
L 1259 0 
L 628 0 
L 628 4666 
z
" transform="scale(0.015625)"/>
       <path id="DejaVuSans-61" d="M 2194 1759 
Q 1497 1759 1228 1600 
Q 959 1441 959 1056 
Q 959 750 1161 570 
Q 1363 391 1709 391 
Q 2188 391 2477 730 
Q 2766 1069 2766 1631 
L 2766 1759 
L 2194 1759 
z
M 3341 1997 
L 3341 0 
L 2766 0 
L 2766 531 
Q 2569 213 2275 61 
Q 1981 -91 1556 -91 
Q 1019 -91 701 211 
Q 384 513 384 1019 
Q 384 1609 779 1909 
Q 1175 2209 1959 2209 
L 2766 2209 
L 2766 2266 
Q 2766 2663 2505 2880 
Q 2244 3097 1772 3097 
Q 1472 3097 1187 3025 
Q 903 2953 641 2809 
L 641 3341 
Q 956 3463 1253 3523 
Q 1550 3584 1831 3584 
Q 2591 3584 2966 3190 
Q 3341 2797 3341 1997 
z
" transform="scale(0.015625)"/>
       <path id="DejaVuSans-6c" d="M 603 4863 
L 1178 4863 
L 1178 0 
L 603 0 
L 603 4863 
z
" transform="scale(0.015625)"/>
       <path id="DejaVuSans-73" d="M 2834 3397 
L 2834 2853 
Q 2591 2978 2328 3040 
Q 2066 3103 1784 3103 
Q 1356 3103 1142 2972 
Q 928 2841 928 2578 
Q 928 2378 1081 2264 
Q 1234 2150 1697 2047 
L 1894 2003 
Q 2506 1872 2764 1633 
Q 3022 1394 3022 966 
Q 3022 478 2636 193 
Q 2250 -91 1575 -91 
Q 1294 -91 989 -36 
Q 684 19 347 128 
L 347 722 
Q 666 556 975 473 
Q 1284 391 1588 391 
Q 1994 391 2212 530 
Q 2431 669 2431 922 
Q 2431 1156 2273 1281 
Q 2116 1406 1581 1522 
L 1381 1569 
Q 847 1681 609 1914 
Q 372 2147 372 2553 
Q 372 3047 722 3315 
Q 1072 3584 1716 3584 
Q 2034 3584 2315 3537 
Q 2597 3491 2834 3397 
z
" transform="scale(0.015625)"/>
       <path id="DejaVuSans-65" d="M 3597 1894 
L 3597 1613 
L 953 1613 
Q 991 1019 1311 708 
Q 1631 397 2203 397 
Q 2534 397 2845 478 
Q 3156 559 3463 722 
L 3463 178 
Q 3153 47 2828 -22 
Q 2503 -91 2169 -91 
Q 1331 -91 842 396 
Q 353 884 353 1716 
Q 353 2575 817 3079 
Q 1281 3584 2069 3584 
Q 2775 3584 3186 3129 
Q 3597 2675 3597 1894 
z
M 3022 2063 
Q 3016 2534 2758 2815 
Q 2500 3097 2075 3097 
Q 1594 3097 1305 2825 
Q 1016 2553 972 2059 
L 3022 2063 
z
" transform="scale(0.015625)"/>
       <path id="DejaVuSans-20" transform="scale(0.015625)"/>
       <path id="DejaVuSans-50" d="M 1259 4147 
L 1259 2394 
L 2053 2394 
Q 2494 2394 2734 2622 
Q 2975 2850 2975 3272 
Q 2975 3691 2734 3919 
Q 2494 4147 2053 4147 
L 1259 4147 
z
M 628 4666 
L 2053 4666 
Q 2838 4666 3239 4311 
Q 3641 3956 3641 3272 
Q 3641 2581 3239 2228 
Q 2838 1875 2053 1875 
L 1259 1875 
L 1259 0 
L 628 0 
L 628 4666 
z
" transform="scale(0.015625)"/>
       <path id="DejaVuSans-6f" d="M 1959 3097 
Q 1497 3097 1228 2736 
Q 959 2375 959 1747 
Q 959 1119 1226 758 
Q 1494 397 1959 397 
Q 2419 397 2687 759 
Q 2956 1122 2956 1747 
Q 2956 2369 2687 2733 
Q 2419 3097 1959 3097 
z
M 1959 3584 
Q 2709 3584 3137 3096 
Q 3566 2609 3566 1747 
Q 3566 888 3137 398 
Q 2709 -91 1959 -91 
Q 1206 -91 779 398 
Q 353 888 353 1747 
Q 353 2609 779 3096 
Q 1206 3584 1959 3584 
z
" transform="scale(0.015625)"/>
       <path id="DejaVuSans-69" d="M 603 3500 
L 1178 3500 
L 1178 0 
L 603 0 
L 603 3500 
z
M 603 4863 
L 1178 4863 
L 1178 4134 
L 603 4134 
L 603 4863 
z
" transform="scale(0.015625)"/>
       <path id="DejaVuSans-74" d="M 1172 4494 
L 1172 3500 
L 2356 3500 
L 2356 3053 
L 1172 3053 
L 1172 1153 
Q 1172 725 1289 603 
Q 1406 481 1766 481 
L 2356 481 
L 2356 0 
L 1766 0 
Q 1100 0 847 248 
Q 594 497 594 1153 
L 594 3053 
L 172 3053 
L 172 3500 
L 594 3500 
L 594 4494 
L 1172 4494 
z
" transform="scale(0.015625)"/>
       <path id="DejaVuSans-76" d="M 191 3500 
L 800 3500 
L 1894 563 
L 2988 3500 
L 3597 3500 
L 2284 0 
L 1503 0 
L 191 3500 
z
" transform="scale(0.015625)"/>
       <path id="DejaVuSans-52" d="M 2841 2188 
Q 3044 2119 3236 1894 
Q 3428 1669 3622 1275 
L 4263 0 
L 3584 0 
L 2988 1197 
Q 2756 1666 2539 1819 
Q 2322 1972 1947 1972 
L 1259 1972 
L 1259 0 
L 628 0 
L 628 4666 
L 2053 4666 
Q 2853 4666 3247 4331 
Q 3641 3997 3641 3322 
Q 3641 2881 3436 2590 
Q 3231 2300 2841 2188 
z
M 1259 4147 
L 1259 2491 
L 2053 2491 
Q 2509 2491 2742 2702 
Q 2975 2913 2975 3322 
Q 2975 3731 2742 3939 
Q 2509 4147 2053 4147 
L 1259 4147 
z
" transform="scale(0.015625)"/>
      </defs>
      <use xlink:href="#DejaVuSans-46"/>
      <use xlink:href="#DejaVuSans-61" transform="translate(48.394531 0)"/>
      <use xlink:href="#DejaVuSans-6c" transform="translate(109.673828 0)"/>
      <use xlink:href="#DejaVuSans-73" transform="translate(137.457031 0)"/>
      <use xlink:href="#DejaVuSans-65" transform="translate(189.556641 0)"/>
      <use xlink:href="#DejaVuSans-20" transform="translate(251.080078 0)"/>
      <use xlink:href="#DejaVuSans-50" transform="translate(282.867188 0)"/>
      <use xlink:href="#DejaVuSans-6f" transform="translate(339.544922 0)"/>
      <use xlink:href="#DejaVuSans-73" transform="translate(400.726562 0)"/>
      <use xlink:href="#DejaVuSans-69" transform="translate(452.826172 0)"/>
      <use xlink:href="#DejaVuSans-74" transform="translate(480.609375 0)"/>
      <use xlink:href="#DejaVuSans-69" transform="translate(519.818359 0)"/>
      <use xlink:href="#DejaVuSans-76" transform="translate(547.601562 0)"/>
      <use xlink:href="#DejaVuSans-65" transform="translate(606.78125 0)"/>
      <use xlink:href="#DejaVuSans-20" transform="translate(668.304688 0)"/>
      <use xlink:href="#DejaVuSans-52" transform="translate(700.091797 0)"/>
      <use xlink:href="#DejaVuSans-61" transform="translate(767.324219 0)"/>
      <use xlink:href="#DejaVuSans-74" transform="translate(828.603516 0)"/>
      <use xlink:href="#DejaVuSans-65" transform="translate(867.8125 0)"/>
     </g>
    </g>
   </g>
   <g id="matplotlib.axis_2">
    <g id="ytick_1">
     <g id="line2d_7">
      <path d="M 43.78125 300.24358 
L 365.77748 300.24358 
" clip-path="url(#pb3666d10b7)" style="fill: none; stroke-dasharray: 2.96,1.28; stroke-dashoffset: 0; stroke: #ffffff; stroke-opacity: 0.7; stroke-width: 0.8"/>
     </g>
     <g id="text_8">
      <!-- 0.0 -->
      <g style="fill: #262626" transform="translate(20.878125 304.042798) scale(0.1 -0.1)">
       <use xlink:href="#DejaVuSans-30"/>
       <use xlink:href="#DejaVuSans-2e" transform="translate(63.623047 0)"/>
       <use xlink:href="#DejaVuSans-30" transform="translate(95.410156 0)"/>
      </g>
     </g>
    </g>
    <g id="ytick_2">
     <g id="line2d_8">
      <path d="M 43.78125 247.739627 
L 365.77748 247.739627 
" clip-path="url(#pb3666d10b7)" style="fill: none; stroke-dasharray: 2.96,1.28; stroke-dashoffset: 0; stroke: #ffffff; stroke-opacity: 0.7; stroke-width: 0.8"/>
     </g>
     <g id="text_9">
      <!-- 0.2 -->
      <g style="fill: #262626" transform="translate(20.878125 251.538846) scale(0.1 -0.1)">
       <use xlink:href="#DejaVuSans-30"/>
       <use xlink:href="#DejaVuSans-2e" transform="translate(63.623047 0)"/>
       <use xlink:href="#DejaVuSans-32" transform="translate(95.410156 0)"/>
      </g>
     </g>
    </g>
    <g id="ytick_3">
     <g id="line2d_9">
      <path d="M 43.78125 195.235675 
L 365.77748 195.235675 
" clip-path="url(#pb3666d10b7)" style="fill: none; stroke-dasharray: 2.96,1.28; stroke-dashoffset: 0; stroke: #ffffff; stroke-opacity: 0.7; stroke-width: 0.8"/>
     </g>
     <g id="text_10">
      <!-- 0.4 -->
      <g style="fill: #262626" transform="translate(20.878125 199.034894) scale(0.1 -0.1)">
       <use xlink:href="#DejaVuSans-30"/>
       <use xlink:href="#DejaVuSans-2e" transform="translate(63.623047 0)"/>
       <use xlink:href="#DejaVuSans-34" transform="translate(95.410156 0)"/>
      </g>
     </g>
    </g>
    <g id="ytick_4">
     <g id="line2d_10">
      <path d="M 43.78125 142.731722 
L 365.77748 142.731722 
" clip-path="url(#pb3666d10b7)" style="fill: none; stroke-dasharray: 2.96,1.28; stroke-dashoffset: 0; stroke: #ffffff; stroke-opacity: 0.7; stroke-width: 0.8"/>
     </g>
     <g id="text_11">
      <!-- 0.6 -->
      <g style="fill: #262626" transform="translate(20.878125 146.530941) scale(0.1 -0.1)">
       <use xlink:href="#DejaVuSans-30"/>
       <use xlink:href="#DejaVuSans-2e" transform="translate(63.623047 0)"/>
       <use xlink:href="#DejaVuSans-36" transform="translate(95.410156 0)"/>
      </g>
     </g>
    </g>
    <g id="ytick_5">
     <g id="line2d_11">
      <path d="M 43.78125 90.22777 
L 365.77748 90.22777 
" clip-path="url(#pb3666d10b7)" style="fill: none; stroke-dasharray: 2.96,1.28; stroke-dashoffset: 0; stroke: #ffffff; stroke-opacity: 0.7; stroke-width: 0.8"/>
     </g>
     <g id="text_12">
      <!-- 0.8 -->
      <g style="fill: #262626" transform="translate(20.878125 94.026989) scale(0.1 -0.1)">
       <use xlink:href="#DejaVuSans-30"/>
       <use xlink:href="#DejaVuSans-2e" transform="translate(63.623047 0)"/>
       <use xlink:href="#DejaVuSans-38" transform="translate(95.410156 0)"/>
      </g>
     </g>
    </g>
    <g id="ytick_6">
     <g id="line2d_12">
      <path d="M 43.78125 37.723818 
L 365.77748 37.723818 
" clip-path="url(#pb3666d10b7)" style="fill: none; stroke-dasharray: 2.96,1.28; stroke-dashoffset: 0; stroke: #ffffff; stroke-opacity: 0.7; stroke-width: 0.8"/>
     </g>
     <g id="text_13">
      <!-- 1.0 -->
      <g style="fill: #262626" transform="translate(20.878125 41.523036) scale(0.1 -0.1)">
       <use xlink:href="#DejaVuSans-31"/>
       <use xlink:href="#DejaVuSans-2e" transform="translate(63.623047 0)"/>
       <use xlink:href="#DejaVuSans-30" transform="translate(95.410156 0)"/>
      </g>
     </g>
    </g>
    <g id="text_14">
     <!-- True Positive Rate -->
     <g style="fill: #262626" transform="translate(14.798438 212.427813) rotate(-90) scale(0.1 -0.1)">
      <defs>
       <path id="DejaVuSans-54" d="M -19 4666 
L 3928 4666 
L 3928 4134 
L 2272 4134 
L 2272 0 
L 1638 0 
L 1638 4134 
L -19 4134 
L -19 4666 
z
" transform="scale(0.015625)"/>
       <path id="DejaVuSans-72" d="M 2631 2963 
Q 2534 3019 2420 3045 
Q 2306 3072 2169 3072 
Q 1681 3072 1420 2755 
Q 1159 2438 1159 1844 
L 1159 0 
L 581 0 
L 581 3500 
L 1159 3500 
L 1159 2956 
Q 1341 3275 1631 3429 
Q 1922 3584 2338 3584 
Q 2397 3584 2469 3576 
Q 2541 3569 2628 3553 
L 2631 2963 
z
" transform="scale(0.015625)"/>
       <path id="DejaVuSans-75" d="M 544 1381 
L 544 3500 
L 1119 3500 
L 1119 1403 
Q 1119 906 1312 657 
Q 1506 409 1894 409 
Q 2359 409 2629 706 
Q 2900 1003 2900 1516 
L 2900 3500 
L 3475 3500 
L 3475 0 
L 2900 0 
L 2900 538 
Q 2691 219 2414 64 
Q 2138 -91 1772 -91 
Q 1169 -91 856 284 
Q 544 659 544 1381 
z
M 1991 3584 
L 1991 3584 
z
" transform="scale(0.015625)"/>
      </defs>
      <use xlink:href="#DejaVuSans-54"/>
      <use xlink:href="#DejaVuSans-72" transform="translate(46.333984 0)"/>
      <use xlink:href="#DejaVuSans-75" transform="translate(87.447266 0)"/>
      <use xlink:href="#DejaVuSans-65" transform="translate(150.826172 0)"/>
      <use xlink:href="#DejaVuSans-20" transform="translate(212.349609 0)"/>
      <use xlink:href="#DejaVuSans-50" transform="translate(244.136719 0)"/>
      <use xlink:href="#DejaVuSans-6f" transform="translate(300.814453 0)"/>
      <use xlink:href="#DejaVuSans-73" transform="translate(361.996094 0)"/>
      <use xlink:href="#DejaVuSans-69" transform="translate(414.095703 0)"/>
      <use xlink:href="#DejaVuSans-74" transform="translate(441.878906 0)"/>
      <use xlink:href="#DejaVuSans-69" transform="translate(481.087891 0)"/>
      <use xlink:href="#DejaVuSans-76" transform="translate(508.871094 0)"/>
      <use xlink:href="#DejaVuSans-65" transform="translate(568.050781 0)"/>
      <use xlink:href="#DejaVuSans-20" transform="translate(629.574219 0)"/>
      <use xlink:href="#DejaVuSans-52" transform="translate(661.361328 0)"/>
      <use xlink:href="#DejaVuSans-61" transform="translate(728.59375 0)"/>
      <use xlink:href="#DejaVuSans-74" transform="translate(789.873047 0)"/>
      <use xlink:href="#DejaVuSans-65" transform="translate(829.082031 0)"/>
     </g>
    </g>
   </g>
   <g id="FillBetweenPolyCollection_1">
    <defs>
     <path id="mcab1f47433" d="M 58.417442 -147.333491 
L 58.417442 -87.161038 
L 61.374249 -87.161038 
L 64.331055 -87.276823 
L 67.287862 -108.006401 
L 70.244668 -110.017373 
L 73.201475 -116.455108 
L 76.158281 -125.565808 
L 79.115088 -131.825523 
L 82.071894 -140.951613 
L 85.028701 -151.971739 
L 87.985508 -160.513449 
L 90.942314 -166.827222 
L 93.899121 -173.130036 
L 96.855927 -185.055577 
L 99.812734 -190.255314 
L 102.76954 -197.702233 
L 105.726347 -205.096787 
L 108.683153 -211.945757 
L 111.63996 -216.748167 
L 114.596766 -220.179935 
L 117.553573 -224.613508 
L 120.510379 -227.579406 
L 123.467186 -231.08374 
L 126.423992 -234.486088 
L 129.380799 -235.56392 
L 132.337605 -239.750781 
L 135.294412 -241.708679 
L 138.251218 -243.285526 
L 141.208025 -246.404369 
L 144.164831 -249.624058 
L 147.121638 -251.312241 
L 150.078445 -252.921068 
L 153.035251 -254.155532 
L 155.992058 -256.428827 
L 158.948864 -257.09005 
L 161.905671 -257.449919 
L 164.862477 -258.776569 
L 167.819284 -260.890813 
L 170.77609 -262.845221 
L 173.732897 -263.54766 
L 176.689703 -264.810063 
L 179.64651 -265.848638 
L 182.603316 -268.581145 
L 185.560123 -269.445539 
L 188.516929 -271.607371 
L 191.473736 -272.618833 
L 194.430542 -273.309497 
L 197.387349 -274.807146 
L 200.344155 -275.113146 
L 203.300962 -275.428285 
L 206.257768 -276.267569 
L 209.214575 -277.446146 
L 212.171382 -278.199082 
L 215.128188 -278.88709 
L 218.084995 -280.202522 
L 221.041801 -280.794887 
L 223.998608 -282.139733 
L 226.955414 -283.241362 
L 229.912221 -284.621714 
L 232.869027 -286.087298 
L 235.825834 -286.933801 
L 238.78264 -288.155466 
L 241.739447 -289.11373 
L 244.696253 -289.924011 
L 247.65306 -290.70256 
L 250.609866 -291.686145 
L 253.566673 -293.128476 
L 256.523479 -293.96519 
L 259.480286 -294.719824 
L 262.437092 -295.504784 
L 265.393899 -296.340122 
L 268.350706 -297.259766 
L 271.307512 -298.867811 
L 274.264319 -300.056257 
L 277.221125 -300.302641 
L 280.177932 -301.18485 
L 283.134738 -301.755356 
L 286.091545 -303.165668 
L 289.048351 -303.453114 
L 292.005158 -304.046414 
L 294.961964 -304.341084 
L 297.918771 -304.617471 
L 300.875577 -304.955858 
L 303.832384 -305.878975 
L 306.78919 -305.942895 
L 309.745997 -306.67412 
L 312.702803 -306.983569 
L 315.65961 -307.235784 
L 318.616416 -307.633795 
L 321.573223 -307.802952 
L 324.530029 -308.513673 
L 327.486836 -308.513673 
L 330.443643 -308.826202 
L 333.400449 -309.575479 
L 336.357256 -310.068277 
L 339.314062 -310.697786 
L 342.270869 -310.697786 
L 345.227675 -312.353972 
L 348.184482 -312.353972 
L 351.141288 -313.310557 
L 351.141288 -313.310557 
L 351.141288 -313.310557 
L 348.184482 -314.029701 
L 345.227675 -314.029701 
L 342.270869 -314.928443 
L 339.314062 -314.928443 
L 336.357256 -315.000522 
L 333.400449 -315.12902 
L 330.443643 -315.27669 
L 327.486836 -315.339199 
L 324.530029 -315.339199 
L 321.573223 -315.325408 
L 318.616416 -315.244405 
L 315.65961 -315.074598 
L 312.702803 -314.929668 
L 309.745997 -314.721152 
L 306.78919 -314.686248 
L 303.832384 -314.625158 
L 300.875577 -314.54675 
L 297.918771 -314.26628 
L 294.961964 -314.198891 
L 292.005158 -314.227676 
L 289.048351 -314.027093 
L 286.091545 -313.919643 
L 283.134738 -313.921143 
L 280.177932 -313.807136 
L 277.221125 -313.392381 
L 274.264319 -312.936384 
L 271.307512 -312.854547 
L 268.350706 -312.658142 
L 265.393899 -312.16221 
L 262.437092 -311.667474 
L 259.480286 -311.207656 
L 256.523479 -310.545079 
L 253.566673 -310.275416 
L 250.609866 -309.967197 
L 247.65306 -309.83799 
L 244.696253 -309.359089 
L 241.739447 -308.396991 
L 238.78264 -307.814189 
L 235.825834 -307.309503 
L 232.869027 -306.41197 
L 229.912221 -306.261577 
L 226.955414 -305.491756 
L 223.998608 -304.867762 
L 221.041801 -304.053662 
L 218.084995 -303.543103 
L 215.128188 -303.159219 
L 212.171382 -302.42561 
L 209.214575 -301.96113 
L 206.257768 -301.280411 
L 203.300962 -300.807898 
L 200.344155 -300.087218 
L 197.387349 -299.868179 
L 194.430542 -299.619179 
L 191.473736 -299.095659 
L 188.516929 -298.629966 
L 185.560123 -298.209719 
L 182.603316 -297.274801 
L 179.64651 -298.049174 
L 176.689703 -297.888887 
L 173.732897 -297.144889 
L 170.77609 -296.529256 
L 167.819284 -296.29308 
L 164.862477 -295.210414 
L 161.905671 -294.229951 
L 158.948864 -293.864857 
L 155.992058 -293.102575 
L 153.035251 -291.407992 
L 150.078445 -290.465048 
L 147.121638 -289.495321 
L 144.164831 -288.997454 
L 141.208025 -287.194421 
L 138.251218 -286.125462 
L 135.294412 -284.027786 
L 132.337605 -282.283883 
L 129.380799 -281.528509 
L 126.423992 -280.570669 
L 123.467186 -278.639749 
L 120.510379 -277.812155 
L 117.553573 -273.100414 
L 114.596766 -270.673299 
L 111.63996 -269.57148 
L 108.683153 -267.015252 
L 105.726347 -263.932798 
L 102.76954 -257.973908 
L 99.812734 -253.379489 
L 96.855927 -247.611087 
L 93.899121 -242.651064 
L 90.942314 -237.68333 
L 87.985508 -234.004923 
L 85.028701 -226.895554 
L 82.071894 -218.926892 
L 79.115088 -209.483401 
L 76.158281 -204.971984 
L 73.201475 -196.903379 
L 70.244668 -178.613595 
L 67.287862 -176.559885 
L 64.331055 -147.392719 
L 61.374249 -147.333491 
L 58.417442 -147.333491 
z
" style="stroke: #ffffff; stroke-opacity: 0.2"/>
    </defs>
    <g clip-path="url(#pb3666d10b7)">
     <use xlink:href="#mcab1f47433" x="0" y="351.034375" style="fill: #1f77b4; fill-opacity: 0.2; stroke: #ffffff; stroke-opacity: 0.2"/>
    </g>
   </g>
   <g id="FillBetweenPolyCollection_2">
    <defs>
     <path id="m2716bc3144" d="M 58.417442 -143.108122 
L 58.417442 -86.323017 
L 61.374249 -86.323017 
L 64.331055 -87.288664 
L 67.287862 -103.365246 
L 70.244668 -106.32995 
L 73.201475 -112.681431 
L 76.158281 -123.185054 
L 79.115088 -128.578187 
L 82.071894 -136.6825 
L 85.028701 -145.156358 
L 87.985508 -155.365104 
L 90.942314 -162.500961 
L 93.899121 -169.177404 
L 96.855927 -177.997491 
L 99.812734 -183.179472 
L 102.76954 -192.642145 
L 105.726347 -198.696137 
L 108.683153 -204.824262 
L 111.63996 -211.485196 
L 114.596766 -215.190981 
L 117.553573 -220.065298 
L 120.510379 -223.670521 
L 123.467186 -226.776631 
L 126.423992 -230.117071 
L 129.380799 -230.940067 
L 132.337605 -235.050455 
L 135.294412 -236.426027 
L 138.251218 -237.599859 
L 141.208025 -240.057897 
L 144.164831 -243.202382 
L 147.121638 -246.059096 
L 150.078445 -248.239898 
L 153.035251 -250.668637 
L 155.992058 -253.789689 
L 158.948864 -254.932414 
L 161.905671 -257.711147 
L 164.862477 -259.406733 
L 167.819284 -261.444977 
L 170.77609 -263.01317 
L 173.732897 -264.137519 
L 176.689703 -265.65641 
L 179.64651 -267.21267 
L 182.603316 -268.451736 
L 185.560123 -269.90066 
L 188.516929 -271.365418 
L 191.473736 -271.753912 
L 194.430542 -273.291524 
L 197.387349 -273.977804 
L 200.344155 -274.116038 
L 203.300962 -275.10649 
L 206.257768 -276.933897 
L 209.214575 -277.596021 
L 212.171382 -278.201816 
L 215.128188 -278.495641 
L 218.084995 -279.85028 
L 221.041801 -281.130493 
L 223.998608 -282.462849 
L 226.955414 -283.555485 
L 229.912221 -285.247925 
L 232.869027 -286.652511 
L 235.825834 -288.018303 
L 238.78264 -288.675264 
L 241.739447 -289.904143 
L 244.696253 -290.66616 
L 247.65306 -290.956752 
L 250.609866 -291.935368 
L 253.566673 -293.474408 
L 256.523479 -294.163577 
L 259.480286 -295.125541 
L 262.437092 -295.61656 
L 265.393899 -297.125264 
L 268.350706 -297.84042 
L 271.307512 -298.770653 
L 274.264319 -299.521843 
L 277.221125 -299.803936 
L 280.177932 -301.021649 
L 283.134738 -301.705917 
L 286.091545 -302.329508 
L 289.048351 -303.358989 
L 292.005158 -303.992804 
L 294.961964 -304.252986 
L 297.918771 -304.761952 
L 300.875577 -305.143466 
L 303.832384 -305.549051 
L 306.78919 -305.598594 
L 309.745997 -306.217086 
L 312.702803 -306.644815 
L 315.65961 -306.863248 
L 318.616416 -307.191065 
L 321.573223 -307.623234 
L 324.530029 -308.377494 
L 327.486836 -308.377494 
L 330.443643 -308.700203 
L 333.400449 -308.962125 
L 336.357256 -309.416135 
L 339.314062 -309.72938 
L 342.270869 -309.72938 
L 345.227675 -311.563579 
L 348.184482 -311.563579 
L 351.141288 -313.310557 
L 351.141288 -313.310557 
L 351.141288 -313.310557 
L 348.184482 -314.566873 
L 345.227675 -314.566873 
L 342.270869 -315.348575 
L 339.314062 -315.348575 
L 336.357256 -315.355842 
L 333.400449 -315.431633 
L 330.443643 -315.3977 
L 327.486836 -315.316013 
L 324.530029 -315.316013 
L 321.573223 -315.367239 
L 318.616416 -315.430194 
L 315.65961 -315.243184 
L 312.702803 -315.091947 
L 309.745997 -314.761316 
L 306.78919 -314.755213 
L 303.832384 -314.695373 
L 300.875577 -314.584884 
L 297.918771 -314.304057 
L 294.961964 -314.387107 
L 292.005158 -314.246778 
L 289.048351 -314.111425 
L 286.091545 -313.822554 
L 283.134738 -313.454953 
L 280.177932 -312.924668 
L 277.221125 -312.487227 
L 274.264319 -311.984664 
L 271.307512 -311.930407 
L 268.350706 -311.550693 
L 265.393899 -311.327946 
L 262.437092 -311.380453 
L 259.480286 -311.331787 
L 256.523479 -310.831462 
L 253.566673 -310.350763 
L 250.609866 -309.333324 
L 247.65306 -309.203841 
L 244.696253 -308.871603 
L 241.739447 -308.291702 
L 238.78264 -307.753617 
L 235.825834 -307.368573 
L 232.869027 -306.550851 
L 229.912221 -306.272805 
L 226.955414 -306.139331 
L 223.998608 -305.551581 
L 221.041801 -305.099492 
L 218.084995 -304.401122 
L 215.128188 -303.960608 
L 212.171382 -303.674237 
L 209.214575 -303.363829 
L 206.257768 -302.52837 
L 203.300962 -301.884295 
L 200.344155 -300.688601 
L 197.387349 -300.41847 
L 194.430542 -299.979553 
L 191.473736 -299.054814 
L 188.516929 -298.45356 
L 185.560123 -298.273525 
L 182.603316 -297.68169 
L 179.64651 -297.613119 
L 176.689703 -297.606338 
L 173.732897 -296.81858 
L 170.77609 -295.888401 
L 167.819284 -294.526492 
L 164.862477 -294.135575 
L 161.905671 -293.691963 
L 158.948864 -293.678645 
L 155.992058 -292.764805 
L 153.035251 -291.612614 
L 150.078445 -290.54173 
L 147.121638 -289.379399 
L 144.164831 -288.061766 
L 141.208025 -286.357754 
L 138.251218 -284.694495 
L 135.294412 -283.591201 
L 132.337605 -281.97898 
L 129.380799 -280.725725 
L 126.423992 -279.168918 
L 123.467186 -276.791391 
L 120.510379 -275.861393 
L 117.553573 -272.937959 
L 114.596766 -269.632439 
L 111.63996 -266.864976 
L 108.683153 -262.914718 
L 105.726347 -258.800797 
L 102.76954 -254.200584 
L 99.812734 -249.469815 
L 96.855927 -244.901467 
L 93.899121 -237.973242 
L 90.942314 -233.005658 
L 87.985508 -227.255418 
L 85.028701 -221.669815 
L 82.071894 -214.247491 
L 79.115088 -204.912697 
L 76.158281 -196.471655 
L 73.201475 -186.902154 
L 70.244668 -172.701741 
L 67.287862 -171.671859 
L 64.331055 -143.367567 
L 61.374249 -143.108122 
L 58.417442 -143.108122 
z
" style="stroke: #ffffff; stroke-opacity: 0.2"/>
    </defs>
    <g clip-path="url(#pb3666d10b7)">
     <use xlink:href="#m2716bc3144" x="0" y="351.034375" style="fill: #ff7f0e; fill-opacity: 0.2; stroke: #ffffff; stroke-opacity: 0.2"/>
    </g>
   </g>
   <g id="FillBetweenPolyCollection_3">
    <defs>
     <path id="me3e5c800d1" d="M 58.417442 -138.992916 
L 58.417442 -82.565155 
L 61.374249 -82.565155 
L 64.331055 -82.917868 
L 67.287862 -100.165774 
L 70.244668 -102.837421 
L 73.201475 -111.934382 
L 76.158281 -122.839356 
L 79.115088 -127.324481 
L 82.071894 -134.481565 
L 85.028701 -138.531107 
L 87.985508 -148.09596 
L 90.942314 -156.523184 
L 93.899121 -161.666181 
L 96.855927 -168.012803 
L 99.812734 -172.42666 
L 102.76954 -182.023439 
L 105.726347 -190.308751 
L 108.683153 -198.273789 
L 111.63996 -203.725217 
L 114.596766 -206.393638 
L 117.553573 -210.674573 
L 120.510379 -215.949123 
L 123.467186 -219.338884 
L 126.423992 -222.715401 
L 129.380799 -226.217847 
L 132.337605 -230.594632 
L 135.294412 -233.999032 
L 138.251218 -235.731299 
L 141.208025 -238.797191 
L 144.164831 -241.649681 
L 147.121638 -244.989224 
L 150.078445 -246.488369 
L 153.035251 -247.394928 
L 155.992058 -250.711829 
L 158.948864 -251.676906 
L 161.905671 -254.204167 
L 164.862477 -255.389877 
L 167.819284 -257.263089 
L 170.77609 -259.147078 
L 173.732897 -260.848383 
L 176.689703 -262.615303 
L 179.64651 -263.809553 
L 182.603316 -267.170787 
L 185.560123 -268.440472 
L 188.516929 -269.901228 
L 191.473736 -270.751029 
L 194.430542 -271.814093 
L 197.387349 -273.122751 
L 200.344155 -273.694393 
L 203.300962 -274.397509 
L 206.257768 -275.76362 
L 209.214575 -276.842704 
L 212.171382 -277.833814 
L 215.128188 -278.085276 
L 218.084995 -280.305589 
L 221.041801 -280.498238 
L 223.998608 -281.034833 
L 226.955414 -282.174408 
L 229.912221 -282.731121 
L 232.869027 -283.750472 
L 235.825834 -284.707001 
L 238.78264 -285.304995 
L 241.739447 -287.18105 
L 244.696253 -288.477525 
L 247.65306 -289.117377 
L 250.609866 -289.798127 
L 253.566673 -291.250436 
L 256.523479 -291.915833 
L 259.480286 -292.513728 
L 262.437092 -293.048477 
L 265.393899 -294.271413 
L 268.350706 -295.230251 
L 271.307512 -296.790867 
L 274.264319 -297.987366 
L 277.221125 -298.424249 
L 280.177932 -299.115659 
L 283.134738 -300.774105 
L 286.091545 -302.056171 
L 289.048351 -302.816861 
L 292.005158 -303.261727 
L 294.961964 -303.499328 
L 297.918771 -304.269405 
L 300.875577 -304.752125 
L 303.832384 -305.169193 
L 306.78919 -305.703291 
L 309.745997 -306.312283 
L 312.702803 -306.825215 
L 315.65961 -307.077203 
L 318.616416 -307.613072 
L 321.573223 -307.780946 
L 324.530029 -308.317529 
L 327.486836 -308.487551 
L 330.443643 -308.811204 
L 333.400449 -309.109806 
L 336.357256 -309.210396 
L 339.314062 -310.244444 
L 342.270869 -310.347976 
L 345.227675 -312.302771 
L 348.184482 -312.302771 
L 351.141288 -313.310557 
L 351.141288 -313.310557 
L 351.141288 -313.310557 
L 348.184482 -314.067756 
L 345.227675 -314.067756 
L 342.270869 -315.126235 
L 339.314062 -315.120383 
L 336.357256 -315.290079 
L 333.400449 -315.268567 
L 330.443643 -315.421325 
L 327.486836 -315.344125 
L 324.530029 -315.277906 
L 321.573223 -315.272267 
L 318.616416 -315.190122 
L 315.65961 -314.979218 
L 312.702803 -314.83146 
L 309.745997 -314.835016 
L 306.78919 -314.651974 
L 303.832384 -314.501629 
L 300.875577 -314.249157 
L 297.918771 -314.223958 
L 294.961964 -314.2329 
L 292.005158 -314.073356 
L 289.048351 -313.848086 
L 286.091545 -313.709608 
L 283.134738 -313.260897 
L 280.177932 -313.45117 
L 277.221125 -313.268126 
L 274.264319 -312.993808 
L 271.307512 -312.888668 
L 268.350706 -312.580776 
L 265.393899 -312.583852 
L 262.437092 -311.847956 
L 259.480286 -311.723528 
L 256.523479 -311.121652 
L 253.566673 -310.751121 
L 250.609866 -310.335472 
L 247.65306 -309.834032 
L 244.696253 -309.623225 
L 241.739447 -309.254347 
L 238.78264 -309.204646 
L 235.825834 -308.7825 
L 232.869027 -307.674065 
L 229.912221 -306.630764 
L 226.955414 -305.708379 
L 223.998608 -305.568616 
L 221.041801 -304.939763 
L 218.084995 -304.438609 
L 215.128188 -304.427737 
L 212.171382 -304.038753 
L 209.214575 -303.959059 
L 206.257768 -303.342826 
L 203.300962 -302.734927 
L 200.344155 -301.814966 
L 197.387349 -301.431711 
L 194.430542 -301.250922 
L 191.473736 -300.730589 
L 188.516929 -300.569806 
L 185.560123 -299.855311 
L 182.603316 -298.867061 
L 179.64651 -298.75588 
L 176.689703 -298.582252 
L 173.732897 -297.474772 
L 170.77609 -297.627217 
L 167.819284 -296.555342 
L 164.862477 -295.243438 
L 161.905671 -293.407939 
L 158.948864 -293.374148 
L 155.992058 -292.978749 
L 153.035251 -290.440616 
L 150.078445 -289.094442 
L 147.121638 -287.623915 
L 144.164831 -286.383992 
L 141.208025 -285.081489 
L 138.251218 -283.094496 
L 135.294412 -281.695552 
L 132.337605 -280.211465 
L 129.380799 -278.760657 
L 126.423992 -277.299035 
L 123.467186 -273.418472 
L 120.510379 -271.569921 
L 117.553573 -267.347673 
L 114.596766 -262.032508 
L 111.63996 -259.68463 
L 108.683153 -255.521587 
L 105.726347 -253.064415 
L 102.76954 -248.783569 
L 99.812734 -242.308499 
L 96.855927 -237.101175 
L 93.899121 -231.293353 
L 90.942314 -224.047225 
L 87.985508 -215.884762 
L 85.028701 -208.464203 
L 82.071894 -200.348506 
L 79.115088 -194.5382 
L 76.158281 -186.183991 
L 73.201475 -175.520341 
L 70.244668 -163.710369 
L 67.287862 -163.083107 
L 64.331055 -139.515268 
L 61.374249 -138.992916 
L 58.417442 -138.992916 
z
" style="stroke: #ffffff; stroke-opacity: 0.2"/>
    </defs>
    <g clip-path="url(#pb3666d10b7)">
     <use xlink:href="#me3e5c800d1" x="0" y="351.034375" style="fill: #2ca02c; fill-opacity: 0.2; stroke: #ffffff; stroke-opacity: 0.2"/>
    </g>
   </g>
   <g id="FillBetweenPolyCollection_4">
    <defs>
     <path id="m47ed8b9811" d="M 58.417442 -135.504561 
L 58.417442 -83.001018 
L 61.374249 -83.001018 
L 64.331055 -83.474993 
L 67.287862 -99.32106 
L 70.244668 -101.758377 
L 73.201475 -109.152176 
L 76.158281 -116.807537 
L 79.115088 -121.112996 
L 82.071894 -130.719331 
L 85.028701 -135.665074 
L 87.985508 -140.202017 
L 90.942314 -147.173903 
L 93.899121 -152.935047 
L 96.855927 -162.466865 
L 99.812734 -167.706731 
L 102.76954 -175.65754 
L 105.726347 -179.406483 
L 108.683153 -186.288139 
L 111.63996 -192.190152 
L 114.596766 -196.119899 
L 117.553573 -201.717351 
L 120.510379 -205.13666 
L 123.467186 -208.070459 
L 126.423992 -213.92944 
L 129.380799 -215.629098 
L 132.337605 -219.822265 
L 135.294412 -222.347254 
L 138.251218 -224.838486 
L 141.208025 -228.333305 
L 144.164831 -229.626331 
L 147.121638 -231.416146 
L 150.078445 -234.59067 
L 153.035251 -238.836911 
L 155.992058 -244.235029 
L 158.948864 -245.772056 
L 161.905671 -248.806363 
L 164.862477 -251.675322 
L 167.819284 -253.285651 
L 170.77609 -255.787241 
L 173.732897 -257.016615 
L 176.689703 -258.964659 
L 179.64651 -261.12097 
L 182.603316 -262.572307 
L 185.560123 -264.020743 
L 188.516929 -266.703519 
L 191.473736 -267.336761 
L 194.430542 -268.13845 
L 197.387349 -269.964308 
L 200.344155 -270.764241 
L 203.300962 -273.166941 
L 206.257768 -274.848392 
L 209.214575 -276.245148 
L 212.171382 -276.515911 
L 215.128188 -277.369736 
L 218.084995 -278.816797 
L 221.041801 -279.672823 
L 223.998608 -280.179452 
L 226.955414 -280.860415 
L 229.912221 -281.202198 
L 232.869027 -282.28426 
L 235.825834 -283.011275 
L 238.78264 -284.352492 
L 241.739447 -285.100494 
L 244.696253 -286.221353 
L 247.65306 -286.932086 
L 250.609866 -287.424006 
L 253.566673 -288.303842 
L 256.523479 -289.876939 
L 259.480286 -290.297989 
L 262.437092 -290.80541 
L 265.393899 -291.918558 
L 268.350706 -292.620332 
L 271.307512 -294.184026 
L 274.264319 -295.043025 
L 277.221125 -296.031218 
L 280.177932 -296.931782 
L 283.134738 -297.127005 
L 286.091545 -298.766687 
L 289.048351 -300.409635 
L 292.005158 -300.717267 
L 294.961964 -301.875374 
L 297.918771 -302.794841 
L 300.875577 -303.305123 
L 303.832384 -304.094479 
L 306.78919 -305.266285 
L 309.745997 -306.026207 
L 312.702803 -306.471768 
L 315.65961 -307.261934 
L 318.616416 -307.40056 
L 321.573223 -307.636225 
L 324.530029 -308.333102 
L 327.486836 -308.333102 
L 330.443643 -308.666919 
L 333.400449 -308.915747 
L 336.357256 -309.546305 
L 339.314062 -309.958284 
L 342.270869 -309.958284 
L 345.227675 -312.046199 
L 348.184482 -312.046199 
L 351.141288 -313.310557 
L 351.141288 -313.310557 
L 351.141288 -313.310557 
L 348.184482 -314.199647 
L 345.227675 -314.199647 
L 342.270869 -315.369842 
L 339.314062 -315.369842 
L 336.357256 -315.365925 
L 333.400449 -315.446442 
L 330.443643 -315.407522 
L 327.486836 -315.481705 
L 324.530029 -315.481705 
L 321.573223 -315.234535 
L 318.616416 -315.103893 
L 315.65961 -315.011705 
L 312.702803 -314.920674 
L 309.745997 -314.726036 
L 306.78919 -314.823517 
L 303.832384 -314.939222 
L 300.875577 -314.806878 
L 297.918771 -314.712222 
L 294.961964 -314.682534 
L 292.005158 -314.653693 
L 289.048351 -314.651405 
L 286.091545 -314.926455 
L 283.134738 -314.464775 
L 280.177932 -314.375887 
L 277.221125 -313.825772 
L 274.264319 -313.420859 
L 271.307512 -313.267301 
L 268.350706 -313.06454 
L 265.393899 -312.658848 
L 262.437092 -312.299861 
L 259.480286 -311.293551 
L 256.523479 -310.691126 
L 253.566673 -310.474977 
L 250.609866 -309.299121 
L 247.65306 -308.823713 
L 244.696253 -308.571691 
L 241.739447 -307.614133 
L 238.78264 -307.458872 
L 235.825834 -307.071403 
L 232.869027 -306.588206 
L 229.912221 -306.242864 
L 226.955414 -305.898472 
L 223.998608 -305.319748 
L 221.041801 -304.720953 
L 218.084995 -304.506832 
L 215.128188 -303.415019 
L 212.171382 -303.13185 
L 209.214575 -302.872514 
L 206.257768 -301.683491 
L 203.300962 -300.596984 
L 200.344155 -299.767698 
L 197.387349 -299.573316 
L 194.430542 -299.179571 
L 191.473736 -298.720468 
L 188.516929 -298.460033 
L 185.560123 -298.146116 
L 182.603316 -296.854214 
L 179.64651 -295.821164 
L 176.689703 -294.936454 
L 173.732897 -293.840659 
L 170.77609 -292.680629 
L 167.819284 -291.827172 
L 164.862477 -290.836055 
L 161.905671 -289.696298 
L 158.948864 -288.787958 
L 155.992058 -287.849362 
L 153.035251 -286.79206 
L 150.078445 -286.173528 
L 147.121638 -284.267812 
L 144.164831 -282.611456 
L 141.208025 -281.884161 
L 138.251218 -281.036055 
L 135.294412 -277.165187 
L 132.337605 -274.601667 
L 129.380799 -272.584877 
L 126.423992 -271.287808 
L 123.467186 -268.493483 
L 120.510379 -265.182961 
L 117.553573 -262.109821 
L 114.596766 -259.002498 
L 111.63996 -256.561372 
L 108.683153 -251.890408 
L 105.726347 -247.395979 
L 102.76954 -240.906825 
L 99.812734 -234.557493 
L 96.855927 -229.407038 
L 93.899121 -222.671786 
L 90.942314 -216.733465 
L 87.985508 -210.930981 
L 85.028701 -203.033611 
L 82.071894 -194.160014 
L 79.115088 -182.485595 
L 76.158281 -174.905527 
L 73.201475 -166.431476 
L 70.244668 -154.569211 
L 67.287862 -153.841022 
L 64.331055 -136.080664 
L 61.374249 -135.504561 
L 58.417442 -135.504561 
z
" style="stroke: #ffffff; stroke-opacity: 0.2"/>
    </defs>
    <g clip-path="url(#pb3666d10b7)">
     <use xlink:href="#m47ed8b9811" x="0" y="351.034375" style="fill: #d62728; fill-opacity: 0.2; stroke: #ffffff; stroke-opacity: 0.2"/>
    </g>
   </g>
   <g id="FillBetweenPolyCollection_5">
    <defs>
     <path id="m1a5d2b4ab4" d="M 58.417442 -130.242578 
L 58.417442 -82.591288 
L 61.374249 -82.591288 
L 64.331055 -82.647432 
L 67.287862 -96.361191 
L 70.244668 -97.793704 
L 73.201475 -104.331197 
L 76.158281 -114.096474 
L 79.115088 -118.570434 
L 82.071894 -127.632004 
L 85.028701 -132.258983 
L 87.985508 -138.851061 
L 90.942314 -143.641065 
L 93.899121 -146.936919 
L 96.855927 -155.828362 
L 99.812734 -159.766246 
L 102.76954 -167.840934 
L 105.726347 -174.293429 
L 108.683153 -181.276777 
L 111.63996 -185.623361 
L 114.596766 -189.917901 
L 117.553573 -194.543139 
L 120.510379 -198.129235 
L 123.467186 -201.603345 
L 126.423992 -203.73129 
L 129.380799 -205.023291 
L 132.337605 -209.786568 
L 135.294412 -213.290915 
L 138.251218 -215.450476 
L 141.208025 -218.590385 
L 144.164831 -220.299912 
L 147.121638 -223.227453 
L 150.078445 -227.100508 
L 153.035251 -230.991646 
L 155.992058 -236.53454 
L 158.948864 -240.058812 
L 161.905671 -242.234381 
L 164.862477 -245.325928 
L 167.819284 -247.298758 
L 170.77609 -249.309321 
L 173.732897 -251.040938 
L 176.689703 -252.061065 
L 179.64651 -253.475156 
L 182.603316 -257.148533 
L 185.560123 -260.165914 
L 188.516929 -263.570679 
L 191.473736 -265.394574 
L 194.430542 -268.549568 
L 197.387349 -269.416086 
L 200.344155 -270.592062 
L 203.300962 -271.298866 
L 206.257768 -272.901651 
L 209.214575 -274.336792 
L 212.171382 -274.989804 
L 215.128188 -275.36365 
L 218.084995 -275.900582 
L 221.041801 -276.42428 
L 223.998608 -277.57736 
L 226.955414 -278.902751 
L 229.912221 -279.653831 
L 232.869027 -280.323476 
L 235.825834 -281.11964 
L 238.78264 -281.95106 
L 241.739447 -282.966748 
L 244.696253 -284.479415 
L 247.65306 -285.162188 
L 250.609866 -286.243209 
L 253.566673 -288.771997 
L 256.523479 -289.339182 
L 259.480286 -289.82653 
L 262.437092 -290.935128 
L 265.393899 -291.400933 
L 268.350706 -291.93143 
L 271.307512 -293.151342 
L 274.264319 -294.022211 
L 277.221125 -295.031154 
L 280.177932 -296.734984 
L 283.134738 -297.460515 
L 286.091545 -298.282965 
L 289.048351 -298.919885 
L 292.005158 -299.643283 
L 294.961964 -300.462861 
L 297.918771 -301.858861 
L 300.875577 -302.40552 
L 303.832384 -303.539984 
L 306.78919 -303.892114 
L 309.745997 -304.834729 
L 312.702803 -305.683862 
L 315.65961 -305.902401 
L 318.616416 -306.282649 
L 321.573223 -306.515524 
L 324.530029 -307.575598 
L 327.486836 -307.656354 
L 330.443643 -308.59054 
L 333.400449 -309.271283 
L 336.357256 -310.140383 
L 339.314062 -311.256536 
L 342.270869 -311.256536 
L 345.227675 -312.708949 
L 348.184482 -312.708949 
L 351.141288 -313.310557 
L 351.141288 -313.310557 
L 351.141288 -313.310557 
L 348.184482 -313.802782 
L 345.227675 -313.802782 
L 342.270869 -314.632213 
L 339.314062 -314.632213 
L 336.357256 -315.048313 
L 333.400449 -315.292225 
L 330.443643 -315.393532 
L 327.486836 -315.402004 
L 324.530029 -315.360658 
L 321.573223 -315.476685 
L 318.616416 -315.459541 
L 315.65961 -315.182627 
L 312.702803 -315.0061 
L 309.745997 -315.072095 
L 306.78919 -315.089928 
L 303.832384 -315.010928 
L 300.875577 -314.833197 
L 297.918771 -314.828185 
L 294.961964 -314.671979 
L 292.005158 -314.540918 
L 289.048351 -314.093324 
L 286.091545 -313.96589 
L 283.134738 -313.419376 
L 280.177932 -313.163123 
L 277.221125 -313.27896 
L 274.264319 -312.741864 
L 271.307512 -311.996962 
L 268.350706 -311.322518 
L 265.393899 -310.609978 
L 262.437092 -310.323634 
L 259.480286 -310.369377 
L 256.523479 -310.021451 
L 253.566673 -309.571313 
L 250.609866 -308.931123 
L 247.65306 -308.763336 
L 244.696253 -308.04869 
L 241.739447 -307.455578 
L 238.78264 -306.983183 
L 235.825834 -306.438771 
L 232.869027 -306.103374 
L 229.912221 -305.420233 
L 226.955414 -305.21438 
L 223.998608 -304.773203 
L 221.041801 -303.799272 
L 218.084995 -303.259732 
L 215.128188 -302.599077 
L 212.171382 -301.903223 
L 209.214575 -301.700729 
L 206.257768 -300.456467 
L 203.300962 -299.520766 
L 200.344155 -298.719804 
L 197.387349 -298.524707 
L 194.430542 -298.012906 
L 191.473736 -298.151505 
L 188.516929 -297.911194 
L 185.560123 -295.918492 
L 182.603316 -295.008958 
L 179.64651 -293.605976 
L 176.689703 -293.02172 
L 173.732897 -291.7631 
L 170.77609 -290.836958 
L 167.819284 -289.73274 
L 164.862477 -288.820866 
L 161.905671 -287.684784 
L 158.948864 -286.660081 
L 155.992058 -285.724809 
L 153.035251 -284.3895 
L 150.078445 -283.811024 
L 147.121638 -281.345898 
L 144.164831 -278.490238 
L 141.208025 -277.088382 
L 138.251218 -275.076725 
L 135.294412 -272.851488 
L 132.337605 -269.492716 
L 129.380799 -267.288842 
L 126.423992 -265.17081 
L 123.467186 -263.159837 
L 120.510379 -261.767095 
L 117.553573 -256.923889 
L 114.596766 -253.309323 
L 111.63996 -251.776624 
L 108.683153 -244.838078 
L 105.726347 -237.162027 
L 102.76954 -234.278862 
L 99.812734 -225.647891 
L 96.855927 -223.126064 
L 93.899121 -219.000664 
L 90.942314 -209.421908 
L 87.985508 -203.823355 
L 85.028701 -198.711464 
L 82.071894 -190.787474 
L 79.115088 -182.114774 
L 76.158281 -175.37943 
L 73.201475 -165.703132 
L 70.244668 -154.668519 
L 67.287862 -154.136599 
L 64.331055 -130.711474 
L 61.374249 -130.242578 
L 58.417442 -130.242578 
z
" style="stroke: #ffffff; stroke-opacity: 0.2"/>
    </defs>
    <g clip-path="url(#pb3666d10b7)">
     <use xlink:href="#m1a5d2b4ab4" x="0" y="351.034375" style="fill: #9467bd; fill-opacity: 0.2; stroke: #ffffff; stroke-opacity: 0.2"/>
    </g>
   </g>
   <g id="line2d_13">
    <path d="M 58.417442 233.787111 
L 61.374249 233.787111 
L 64.331055 233.699604 
L 67.287862 208.751232 
L 70.244668 206.718891 
L 73.201475 194.355131 
L 76.158281 185.765479 
L 79.115088 180.379913 
L 82.071894 171.095122 
L 85.028701 161.600728 
L 87.985508 153.775189 
L 90.942314 148.779099 
L 93.899121 143.143825 
L 96.855927 134.701043 
L 99.812734 129.216974 
L 102.76954 123.196305 
L 105.726347 116.519582 
L 108.683153 111.55387 
L 111.63996 107.874551 
L 114.596766 105.607758 
L 117.553573 102.177414 
L 120.510379 98.338595 
L 123.467186 96.172631 
L 126.423992 93.505996 
L 129.380799 92.488161 
L 132.337605 90.017043 
L 135.294412 88.166143 
L 138.251218 86.328881 
L 141.208025 84.23498 
L 144.164831 81.723619 
L 147.121638 80.630594 
L 150.078445 79.341317 
L 153.035251 78.252613 
L 155.992058 76.268674 
L 158.948864 75.556921 
L 161.905671 75.19444 
L 164.862477 74.040884 
L 167.819284 72.442428 
L 170.77609 71.347136 
L 173.732897 70.688101 
L 176.689703 69.6849 
L 179.64651 69.085469 
L 182.603316 68.106402 
L 185.560123 67.206746 
L 188.516929 65.915706 
L 191.473736 65.177129 
L 194.430542 64.570037 
L 197.387349 63.696713 
L 200.344155 63.434193 
L 203.300962 62.916284 
L 206.257768 62.260385 
L 209.214575 61.330737 
L 212.171382 60.722029 
L 215.128188 60.01122 
L 218.084995 59.161562 
L 221.041801 58.6101 
L 223.998608 57.530627 
L 226.955414 56.667816 
L 229.912221 55.59273 
L 232.869027 54.784741 
L 235.825834 53.912723 
L 238.78264 53.049548 
L 241.739447 52.279015 
L 244.696253 51.392825 
L 247.65306 50.7641 
L 250.609866 50.207704 
L 253.566673 49.332429 
L 256.523479 48.77924 
L 259.480286 48.070635 
L 262.437092 47.448246 
L 265.393899 46.783209 
L 268.350706 46.075421 
L 271.307512 45.173196 
L 274.264319 44.538055 
L 277.221125 44.186864 
L 280.177932 43.538382 
L 283.134738 43.196125 
L 286.091545 42.491719 
L 289.048351 42.294271 
L 292.005158 41.89733 
L 294.961964 41.764387 
L 297.918771 41.5925 
L 300.875577 41.283071 
L 303.832384 40.782308 
L 306.78919 40.719803 
L 309.745997 40.336739 
L 312.702803 40.077757 
L 315.65961 39.879184 
L 318.616416 39.595275 
L 321.573223 39.470195 
L 324.530029 39.107939 
L 327.486836 39.107939 
L 330.443643 38.982929 
L 333.400449 38.682125 
L 336.357256 38.499976 
L 339.314062 38.22126 
L 342.270869 38.22126 
L 345.227675 37.842539 
L 348.184482 37.842539 
L 351.141288 37.723818 
" clip-path="url(#pb3666d10b7)" style="fill: none; stroke: #1f77b4; stroke-width: 1.5; stroke-linecap: round"/>
   </g>
   <g id="line2d_14">
    <path d="M 58.417442 236.318806 
L 61.374249 236.318806 
L 64.331055 235.70626 
L 67.287862 213.515823 
L 70.244668 211.518529 
L 73.201475 201.242582 
L 76.158281 191.206021 
L 79.115088 184.288933 
L 82.071894 175.56938 
L 85.028701 167.621288 
L 87.985508 159.724114 
L 90.942314 153.281065 
L 93.899121 147.459052 
L 96.855927 139.584896 
L 99.812734 134.709732 
L 102.76954 127.61301 
L 105.726347 122.285908 
L 108.683153 117.164885 
L 111.63996 111.859289 
L 114.596766 108.622665 
L 117.553573 104.532746 
L 120.510379 101.268418 
L 123.467186 99.250364 
L 126.423992 96.39138 
L 129.380799 95.201479 
L 132.337605 92.519658 
L 135.294412 91.025761 
L 138.251218 89.887198 
L 141.208025 87.826549 
L 144.164831 85.402301 
L 147.121638 83.315127 
L 150.078445 81.643561 
L 153.035251 79.89375 
L 155.992058 77.757128 
L 158.948864 76.728846 
L 161.905671 75.33282 
L 164.862477 74.263221 
L 167.819284 73.048641 
L 170.77609 71.583589 
L 173.732897 70.556326 
L 176.689703 69.403001 
L 179.64651 68.621481 
L 182.603316 67.967662 
L 185.560123 66.947282 
L 188.516929 66.124886 
L 191.473736 65.630012 
L 194.430542 64.398837 
L 197.387349 63.836238 
L 200.344155 63.632056 
L 203.300962 62.538982 
L 206.257768 61.303242 
L 209.214575 60.55445 
L 212.171382 60.096348 
L 215.128188 59.80625 
L 218.084995 58.908674 
L 221.041801 57.919382 
L 223.998608 57.02716 
L 226.955414 56.186967 
L 229.912221 55.27401 
L 232.869027 54.432694 
L 235.825834 53.340937 
L 238.78264 52.819935 
L 241.739447 51.936452 
L 244.696253 51.265494 
L 247.65306 50.954079 
L 250.609866 50.400029 
L 253.566673 49.12179 
L 256.523479 48.536856 
L 259.480286 47.805711 
L 262.437092 47.535869 
L 265.393899 46.80777 
L 268.350706 46.338819 
L 271.307512 45.683845 
L 274.264319 45.281122 
L 277.221125 44.888794 
L 280.177932 44.061217 
L 283.134738 43.45394 
L 286.091545 42.958344 
L 289.048351 42.299168 
L 292.005158 41.914584 
L 294.961964 41.714328 
L 297.918771 41.501371 
L 300.875577 41.1702 
L 303.832384 40.912163 
L 306.78919 40.857471 
L 309.745997 40.545174 
L 312.702803 40.165994 
L 315.65961 39.981159 
L 318.616416 39.723745 
L 321.573223 39.539138 
L 324.530029 39.187621 
L 327.486836 39.187621 
L 330.443643 38.985424 
L 333.400449 38.837496 
L 336.357256 38.648386 
L 339.314062 38.495398 
L 342.270869 38.495398 
L 345.227675 37.969149 
L 348.184482 37.969149 
L 351.141288 37.723818 
" clip-path="url(#pb3666d10b7)" style="fill: none; stroke: #ff7f0e; stroke-width: 1.5; stroke-linecap: round"/>
   </g>
   <g id="line2d_15">
    <path d="M 58.417442 240.25534 
L 61.374249 240.25534 
L 64.331055 239.817807 
L 67.287862 219.409934 
L 70.244668 217.76048 
L 73.201475 207.307014 
L 76.158281 196.522701 
L 79.115088 190.103034 
L 82.071894 183.61934 
L 85.028701 177.53672 
L 87.985508 169.044014 
L 90.942314 160.74917 
L 93.899121 154.554608 
L 96.855927 148.477386 
L 99.812734 143.666795 
L 102.76954 135.630871 
L 105.726347 129.347792 
L 108.683153 124.136687 
L 111.63996 119.329451 
L 114.596766 116.821302 
L 117.553573 112.023252 
L 120.510379 107.274853 
L 123.467186 104.655697 
L 126.423992 101.027157 
L 129.380799 98.545123 
L 132.337605 95.631326 
L 135.294412 93.187083 
L 138.251218 91.621477 
L 141.208025 89.095035 
L 144.164831 87.017538 
L 147.121638 84.727805 
L 150.078445 83.24297 
L 153.035251 82.116603 
L 155.992058 79.189086 
L 158.948864 78.508848 
L 161.905671 77.228322 
L 164.862477 75.717717 
L 167.819284 74.12516 
L 170.77609 72.647228 
L 173.732897 71.872797 
L 176.689703 70.435597 
L 179.64651 69.751659 
L 182.603316 68.015451 
L 185.560123 66.886483 
L 188.516929 65.798858 
L 191.473736 65.293566 
L 194.430542 64.501867 
L 197.387349 63.757144 
L 200.344155 63.279696 
L 203.300962 62.468157 
L 206.257768 61.481152 
L 209.214575 60.633493 
L 212.171382 60.098091 
L 215.128188 59.777869 
L 218.084995 58.662276 
L 221.041801 58.315375 
L 223.998608 57.73265 
L 226.955414 57.092981 
L 229.912221 56.353433 
L 232.869027 55.322106 
L 235.825834 54.289624 
L 238.78264 53.779555 
L 241.739447 52.816677 
L 244.696253 51.984 
L 247.65306 51.55867 
L 250.609866 50.967575 
L 253.566673 50.033596 
L 256.523479 49.515632 
L 259.480286 48.915747 
L 262.437092 48.586158 
L 265.393899 47.606742 
L 268.350706 47.128862 
L 271.307512 46.194608 
L 274.264319 45.543788 
L 277.221125 45.188187 
L 280.177932 44.75096 
L 283.134738 44.016874 
L 286.091545 43.151486 
L 289.048351 42.701901 
L 292.005158 42.366834 
L 294.961964 42.168261 
L 297.918771 41.787693 
L 300.875577 41.533734 
L 303.832384 41.198964 
L 306.78919 40.856743 
L 309.745997 40.460725 
L 312.702803 40.206037 
L 315.65961 40.006164 
L 318.616416 39.632778 
L 321.573223 39.507769 
L 324.530029 39.236658 
L 327.486836 39.118537 
L 330.443643 38.918111 
L 333.400449 38.845189 
L 336.357256 38.784138 
L 339.314062 38.351961 
L 342.270869 38.29727 
L 345.227675 37.849111 
L 348.184482 37.849111 
L 351.141288 37.723818 
" clip-path="url(#pb3666d10b7)" style="fill: none; stroke: #2ca02c; stroke-width: 1.5; stroke-linecap: round"/>
   </g>
   <g id="line2d_16">
    <path d="M 58.417442 241.781586 
L 61.374249 241.781586 
L 64.331055 241.256546 
L 67.287862 224.453334 
L 70.244668 222.870581 
L 73.201475 213.242549 
L 76.158281 205.177843 
L 79.115088 199.23508 
L 82.071894 188.594703 
L 85.028701 181.685033 
L 87.985508 175.467876 
L 90.942314 169.080691 
L 93.899121 163.230958 
L 96.855927 155.097423 
L 99.812734 149.902263 
L 102.76954 142.752193 
L 105.726347 137.633144 
L 108.683153 131.945102 
L 111.63996 126.658613 
L 114.596766 123.473177 
L 117.553573 119.120789 
L 120.510379 115.874565 
L 123.467186 112.752404 
L 126.423992 108.425751 
L 129.380799 106.927388 
L 132.337605 103.822409 
L 135.294412 101.278155 
L 138.251218 98.097105 
L 141.208025 95.925642 
L 144.164831 94.915482 
L 147.121638 93.192396 
L 150.078445 90.652276 
L 153.035251 88.21989 
L 155.992058 84.99218 
L 158.948864 83.754368 
L 161.905671 81.783045 
L 164.862477 79.778687 
L 167.819284 78.477963 
L 170.77609 76.80044 
L 173.732897 75.605738 
L 176.689703 74.083819 
L 179.64651 72.563308 
L 182.603316 71.321114 
L 185.560123 69.950945 
L 188.516929 68.452599 
L 191.473736 68.00576 
L 194.430542 67.375365 
L 197.387349 66.265563 
L 200.344155 65.768406 
L 203.300962 64.152412 
L 206.257768 62.768433 
L 209.214575 61.475544 
L 212.171382 61.210494 
L 215.128188 60.641997 
L 218.084995 59.37256 
L 221.041801 58.837487 
L 223.998608 58.284775 
L 226.955414 57.654931 
L 229.912221 57.311844 
L 232.869027 56.598142 
L 235.825834 55.993036 
L 238.78264 55.128693 
L 241.739447 54.677061 
L 244.696253 53.637853 
L 247.65306 53.156476 
L 250.609866 52.672812 
L 253.566673 51.644966 
L 256.523479 50.750343 
L 259.480286 50.238605 
L 262.437092 49.48174 
L 265.393899 48.745672 
L 268.350706 48.191939 
L 271.307512 47.308711 
L 274.264319 46.802433 
L 277.221125 46.10588 
L 280.177932 45.380541 
L 283.134738 45.238485 
L 286.091545 44.187804 
L 289.048351 43.503855 
L 292.005158 43.348895 
L 294.961964 42.755421 
L 297.918771 42.280843 
L 300.875577 41.978375 
L 303.832384 41.517524 
L 306.78919 40.989474 
L 309.745997 40.658254 
L 312.702803 40.338154 
L 315.65961 39.897556 
L 318.616416 39.782148 
L 321.573223 39.598995 
L 324.530029 39.126972 
L 327.486836 39.126972 
L 330.443643 38.997154 
L 333.400449 38.853281 
L 336.357256 38.57826 
L 339.314062 38.370312 
L 342.270869 38.370312 
L 345.227675 37.911452 
L 348.184482 37.911452 
L 351.141288 37.723818 
" clip-path="url(#pb3666d10b7)" style="fill: none; stroke: #d62728; stroke-width: 1.5; stroke-linecap: round"/>
   </g>
   <g id="line2d_17">
    <path d="M 58.417442 244.617442 
L 61.374249 244.617442 
L 64.331055 244.354922 
L 67.287862 225.78548 
L 70.244668 224.803264 
L 73.201475 216.017211 
L 76.158281 206.296423 
L 79.115088 200.691771 
L 82.071894 191.824636 
L 85.028701 185.549152 
L 87.985508 179.697167 
L 90.942314 174.502889 
L 93.899121 168.065583 
L 96.855927 161.557162 
L 99.812734 158.327307 
L 102.76954 149.974477 
L 105.726347 145.306647 
L 108.683153 137.976948 
L 111.63996 132.334383 
L 114.596766 129.420763 
L 117.553573 125.300861 
L 120.510379 121.08621 
L 123.467186 118.652784 
L 126.423992 116.583325 
L 129.380799 114.878309 
L 132.337605 111.394733 
L 135.294412 107.963173 
L 138.251218 105.770774 
L 141.208025 103.194992 
L 144.164831 101.6393 
L 147.121638 98.747699 
L 150.078445 95.578609 
L 153.035251 93.343802 
L 155.992058 89.9047 
L 158.948864 87.674929 
L 161.905671 86.074792 
L 164.862477 83.960978 
L 167.819284 82.518626 
L 170.77609 80.961236 
L 173.732897 79.632356 
L 176.689703 78.492983 
L 179.64651 77.493809 
L 182.603316 74.955629 
L 185.560123 72.992172 
L 188.516929 70.293438 
L 191.473736 69.261335 
L 194.430542 67.753138 
L 197.387349 67.063978 
L 200.344155 66.378442 
L 203.300962 65.624559 
L 206.257768 64.355316 
L 209.214575 63.015615 
L 212.171382 62.587862 
L 215.128188 62.053012 
L 218.084995 61.454218 
L 221.041801 60.922599 
L 223.998608 59.859093 
L 226.955414 58.975809 
L 229.912221 58.497343 
L 232.869027 57.82095 
L 235.825834 57.25517 
L 238.78264 56.567254 
L 241.739447 55.823212 
L 244.696253 54.770323 
L 247.65306 54.071613 
L 250.609866 53.447209 
L 253.566673 51.86272 
L 256.523479 51.354059 
L 259.480286 50.936422 
L 262.437092 50.404994 
L 265.393899 50.028919 
L 268.350706 49.407401 
L 271.307512 48.460223 
L 274.264319 47.652337 
L 277.221125 46.879318 
L 280.177932 46.085322 
L 283.134738 45.59443 
L 286.091545 44.909948 
L 289.048351 44.527771 
L 292.005158 43.942275 
L 294.961964 43.466955 
L 297.918771 42.690852 
L 300.875577 42.415016 
L 303.832384 41.758919 
L 306.78919 41.543354 
L 309.745997 41.080963 
L 312.702803 40.689394 
L 315.65961 40.491861 
L 318.616416 40.16328 
L 321.573223 40.03827 
L 324.530029 39.566247 
L 327.486836 39.505196 
L 330.443643 39.042339 
L 333.400449 38.752621 
L 336.357256 38.440027 
L 339.314062 38.09 
L 342.270869 38.09 
L 345.227675 37.778509 
L 348.184482 37.778509 
L 351.141288 37.723818 
" clip-path="url(#pb3666d10b7)" style="fill: none; stroke: #9467bd; stroke-width: 1.5; stroke-linecap: round"/>
   </g>
   <g id="line2d_18">
    <path d="M 58.417442 300.24358 
L 351.141288 37.723818 
" clip-path="url(#pb3666d10b7)" style="fill: none; stroke-dasharray: 7.4,3.2; stroke-dashoffset: 0; stroke: #000000; stroke-width: 2"/>
   </g>
   <g id="patch_3">
    <path d="M 43.78125 313.478125 
L 43.78125 22.318125 
" style="fill: none; stroke: #ffffff; stroke-width: 0.8; stroke-linejoin: miter; stroke-linecap: square"/>
   </g>
   <g id="patch_4">
    <path d="M 365.77748 313.478125 
L 365.77748 22.318125 
" style="fill: none; stroke: #ffffff; stroke-width: 0.8; stroke-linejoin: miter; stroke-linecap: square"/>
   </g>
   <g id="patch_5">
    <path d="M 43.78125 313.478125 
L 365.77748 313.478125 
" style="fill: none; stroke: #ffffff; stroke-width: 0.8; stroke-linejoin: miter; stroke-linecap: square"/>
   </g>
   <g id="patch_6">
    <path d="M 43.78125 22.318125 
L 365.77748 22.318125 
" style="fill: none; stroke: #ffffff; stroke-width: 0.8; stroke-linejoin: miter; stroke-linecap: square"/>
   </g>
   <g id="text_15">
    <!-- ROC Curve -->
    <g style="fill: #262626" transform="translate(172.08874 16.318125) scale(0.12 -0.12)">
     <defs>
      <path id="DejaVuSans-4f" d="M 2522 4238 
Q 1834 4238 1429 3725 
Q 1025 3213 1025 2328 
Q 1025 1447 1429 934 
Q 1834 422 2522 422 
Q 3209 422 3611 934 
Q 4013 1447 4013 2328 
Q 4013 3213 3611 3725 
Q 3209 4238 2522 4238 
z
M 2522 4750 
Q 3503 4750 4090 4092 
Q 4678 3434 4678 2328 
Q 4678 1225 4090 567 
Q 3503 -91 2522 -91 
Q 1538 -91 948 565 
Q 359 1222 359 2328 
Q 359 3434 948 4092 
Q 1538 4750 2522 4750 
z
" transform="scale(0.015625)"/>
      <path id="DejaVuSans-43" d="M 4122 4306 
L 4122 3641 
Q 3803 3938 3442 4084 
Q 3081 4231 2675 4231 
Q 1875 4231 1450 3742 
Q 1025 3253 1025 2328 
Q 1025 1406 1450 917 
Q 1875 428 2675 428 
Q 3081 428 3442 575 
Q 3803 722 4122 1019 
L 4122 359 
Q 3791 134 3420 21 
Q 3050 -91 2638 -91 
Q 1578 -91 968 557 
Q 359 1206 359 2328 
Q 359 3453 968 4101 
Q 1578 4750 2638 4750 
Q 3056 4750 3426 4639 
Q 3797 4528 4122 4306 
z
" transform="scale(0.015625)"/>
     </defs>
     <use xlink:href="#DejaVuSans-52"/>
     <use xlink:href="#DejaVuSans-4f" transform="translate(69.482422 0)"/>
     <use xlink:href="#DejaVuSans-43" transform="translate(148.193359 0)"/>
     <use xlink:href="#DejaVuSans-20" transform="translate(218.017578 0)"/>
     <use xlink:href="#DejaVuSans-43" transform="translate(249.804688 0)"/>
     <use xlink:href="#DejaVuSans-75" transform="translate(319.628906 0)"/>
     <use xlink:href="#DejaVuSans-72" transform="translate(383.007812 0)"/>
     <use xlink:href="#DejaVuSans-76" transform="translate(424.121094 0)"/>
     <use xlink:href="#DejaVuSans-65" transform="translate(483.300781 0)"/>
    </g>
   </g>
   <g id="legend_1">
    <g id="patch_7">
     <path d="M 372.77748 213.4325 
L 558.87748 213.4325 
Q 560.87748 213.4325 560.87748 211.4325 
L 560.87748 124.36375 
Q 560.87748 122.36375 558.87748 122.36375 
L 372.77748 122.36375 
Q 370.77748 122.36375 370.77748 124.36375 
L 370.77748 211.4325 
Q 370.77748 213.4325 372.77748 213.4325 
z
" style="fill: #eaeaf2; opacity: 0.8; stroke: #cccccc; stroke-linejoin: miter"/>
    </g>
    <g id="line2d_19">
     <path d="M 374.77748 130.462188 
L 384.77748 130.462188 
L 394.77748 130.462188 
" style="fill: none; stroke: #1f77b4; stroke-width: 1.5; stroke-linecap: round"/>
    </g>
    <g id="text_16">
     <!-- 0% Noise (AUC$ = 0.84 \pm  0.04$) -->
     <g style="fill: #262626" transform="translate(402.77748 133.962188) scale(0.1 -0.1)">
      <defs>
       <path id="DejaVuSans-25" d="M 4653 2053 
Q 4381 2053 4226 1822 
Q 4072 1591 4072 1178 
Q 4072 772 4226 539 
Q 4381 306 4653 306 
Q 4919 306 5073 539 
Q 5228 772 5228 1178 
Q 5228 1588 5073 1820 
Q 4919 2053 4653 2053 
z
M 4653 2450 
Q 5147 2450 5437 2106 
Q 5728 1763 5728 1178 
Q 5728 594 5436 251 
Q 5144 -91 4653 -91 
Q 4153 -91 3862 251 
Q 3572 594 3572 1178 
Q 3572 1766 3864 2108 
Q 4156 2450 4653 2450 
z
M 1428 4353 
Q 1159 4353 1004 4120 
Q 850 3888 850 3481 
Q 850 3069 1003 2837 
Q 1156 2606 1428 2606 
Q 1700 2606 1854 2837 
Q 2009 3069 2009 3481 
Q 2009 3884 1853 4118 
Q 1697 4353 1428 4353 
z
M 4250 4750 
L 4750 4750 
L 1831 -91 
L 1331 -91 
L 4250 4750 
z
M 1428 4750 
Q 1922 4750 2215 4408 
Q 2509 4066 2509 3481 
Q 2509 2891 2217 2550 
Q 1925 2209 1428 2209 
Q 931 2209 642 2551 
Q 353 2894 353 3481 
Q 353 4063 643 4406 
Q 934 4750 1428 4750 
z
" transform="scale(0.015625)"/>
       <path id="DejaVuSans-4e" d="M 628 4666 
L 1478 4666 
L 3547 763 
L 3547 4666 
L 4159 4666 
L 4159 0 
L 3309 0 
L 1241 3903 
L 1241 0 
L 628 0 
L 628 4666 
z
" transform="scale(0.015625)"/>
       <path id="DejaVuSans-28" d="M 1984 4856 
Q 1566 4138 1362 3434 
Q 1159 2731 1159 2009 
Q 1159 1288 1364 580 
Q 1569 -128 1984 -844 
L 1484 -844 
Q 1016 -109 783 600 
Q 550 1309 550 2009 
Q 550 2706 781 3412 
Q 1013 4119 1484 4856 
L 1984 4856 
z
" transform="scale(0.015625)"/>
       <path id="DejaVuSans-41" d="M 2188 4044 
L 1331 1722 
L 3047 1722 
L 2188 4044 
z
M 1831 4666 
L 2547 4666 
L 4325 0 
L 3669 0 
L 3244 1197 
L 1141 1197 
L 716 0 
L 50 0 
L 1831 4666 
z
" transform="scale(0.015625)"/>
       <path id="DejaVuSans-55" d="M 556 4666 
L 1191 4666 
L 1191 1831 
Q 1191 1081 1462 751 
Q 1734 422 2344 422 
Q 2950 422 3222 751 
Q 3494 1081 3494 1831 
L 3494 4666 
L 4128 4666 
L 4128 1753 
Q 4128 841 3676 375 
Q 3225 -91 2344 -91 
Q 1459 -91 1007 375 
Q 556 841 556 1753 
L 556 4666 
z
" transform="scale(0.015625)"/>
       <path id="DejaVuSans-3d" d="M 678 2906 
L 4684 2906 
L 4684 2381 
L 678 2381 
L 678 2906 
z
M 678 1631 
L 4684 1631 
L 4684 1100 
L 678 1100 
L 678 1631 
z
" transform="scale(0.015625)"/>
       <path id="DejaVuSans-b1" d="M 2944 4013 
L 2944 2803 
L 4684 2803 
L 4684 2272 
L 2944 2272 
L 2944 1063 
L 2419 1063 
L 2419 2272 
L 678 2272 
L 678 2803 
L 2419 2803 
L 2419 4013 
L 2944 4013 
z
M 678 531 
L 4684 531 
L 4684 0 
L 678 0 
L 678 531 
z
" transform="scale(0.015625)"/>
       <path id="DejaVuSans-29" d="M 513 4856 
L 1013 4856 
Q 1481 4119 1714 3412 
Q 1947 2706 1947 2009 
Q 1947 1309 1714 600 
Q 1481 -109 1013 -844 
L 513 -844 
Q 928 -128 1133 580 
Q 1338 1288 1338 2009 
Q 1338 2731 1133 3434 
Q 928 4138 513 4856 
z
" transform="scale(0.015625)"/>
      </defs>
      <use xlink:href="#DejaVuSans-30" transform="translate(0 0.015625)"/>
      <use xlink:href="#DejaVuSans-25" transform="translate(63.623047 0.015625)"/>
      <use xlink:href="#DejaVuSans-20" transform="translate(158.642578 0.015625)"/>
      <use xlink:href="#DejaVuSans-4e" transform="translate(190.429688 0.015625)"/>
      <use xlink:href="#DejaVuSans-6f" transform="translate(265.234375 0.015625)"/>
      <use xlink:href="#DejaVuSans-69" transform="translate(326.416016 0.015625)"/>
      <use xlink:href="#DejaVuSans-73" transform="translate(354.199219 0.015625)"/>
      <use xlink:href="#DejaVuSans-65" transform="translate(406.298828 0.015625)"/>
      <use xlink:href="#DejaVuSans-20" transform="translate(467.822266 0.015625)"/>
      <use xlink:href="#DejaVuSans-28" transform="translate(499.609375 0.015625)"/>
      <use xlink:href="#DejaVuSans-41" transform="translate(538.623047 0.015625)"/>
      <use xlink:href="#DejaVuSans-55" transform="translate(607.03125 0.015625)"/>
      <use xlink:href="#DejaVuSans-43" transform="translate(680.224609 0.015625)"/>
      <use xlink:href="#DejaVuSans-3d" transform="translate(769.53125 0.015625)"/>
      <use xlink:href="#DejaVuSans-30" transform="translate(872.802734 0.015625)"/>
      <use xlink:href="#DejaVuSans-2e" transform="translate(936.425781 0.015625)"/>
      <use xlink:href="#DejaVuSans-38" transform="translate(965.587891 0.015625)"/>
      <use xlink:href="#DejaVuSans-34" transform="translate(1029.210938 0.015625)"/>
      <use xlink:href="#DejaVuSans-b1" transform="translate(1112.316406 0.015625)"/>
      <use xlink:href="#DejaVuSans-30" transform="translate(1215.587891 0.015625)"/>
      <use xlink:href="#DejaVuSans-2e" transform="translate(1279.210938 0.015625)"/>
      <use xlink:href="#DejaVuSans-30" transform="translate(1310.998047 0.015625)"/>
      <use xlink:href="#DejaVuSans-34" transform="translate(1374.621094 0.015625)"/>
      <use xlink:href="#DejaVuSans-29" transform="translate(1438.244141 0.015625)"/>
     </g>
    </g>
    <g id="line2d_20">
     <path d="M 374.77748 145.140313 
L 384.77748 145.140313 
L 394.77748 145.140313 
" style="fill: none; stroke: #ff7f0e; stroke-width: 1.5; stroke-linecap: round"/>
    </g>
    <g id="text_17">
     <!-- 5% Noise (AUC$ = 0.84 \pm  0.04$) -->
     <g style="fill: #262626" transform="translate(402.77748 148.640313) scale(0.1 -0.1)">
      <defs>
       <path id="DejaVuSans-35" d="M 691 4666 
L 3169 4666 
L 3169 4134 
L 1269 4134 
L 1269 2991 
Q 1406 3038 1543 3061 
Q 1681 3084 1819 3084 
Q 2600 3084 3056 2656 
Q 3513 2228 3513 1497 
Q 3513 744 3044 326 
Q 2575 -91 1722 -91 
Q 1428 -91 1123 -41 
Q 819 9 494 109 
L 494 744 
Q 775 591 1075 516 
Q 1375 441 1709 441 
Q 2250 441 2565 725 
Q 2881 1009 2881 1497 
Q 2881 1984 2565 2268 
Q 2250 2553 1709 2553 
Q 1456 2553 1204 2497 
Q 953 2441 691 2322 
L 691 4666 
z
" transform="scale(0.015625)"/>
      </defs>
      <use xlink:href="#DejaVuSans-35" transform="translate(0 0.015625)"/>
      <use xlink:href="#DejaVuSans-25" transform="translate(63.623047 0.015625)"/>
      <use xlink:href="#DejaVuSans-20" transform="translate(158.642578 0.015625)"/>
      <use xlink:href="#DejaVuSans-4e" transform="translate(190.429688 0.015625)"/>
      <use xlink:href="#DejaVuSans-6f" transform="translate(265.234375 0.015625)"/>
      <use xlink:href="#DejaVuSans-69" transform="translate(326.416016 0.015625)"/>
      <use xlink:href="#DejaVuSans-73" transform="translate(354.199219 0.015625)"/>
      <use xlink:href="#DejaVuSans-65" transform="translate(406.298828 0.015625)"/>
      <use xlink:href="#DejaVuSans-20" transform="translate(467.822266 0.015625)"/>
      <use xlink:href="#DejaVuSans-28" transform="translate(499.609375 0.015625)"/>
      <use xlink:href="#DejaVuSans-41" transform="translate(538.623047 0.015625)"/>
      <use xlink:href="#DejaVuSans-55" transform="translate(607.03125 0.015625)"/>
      <use xlink:href="#DejaVuSans-43" transform="translate(680.224609 0.015625)"/>
      <use xlink:href="#DejaVuSans-3d" transform="translate(769.53125 0.015625)"/>
      <use xlink:href="#DejaVuSans-30" transform="translate(872.802734 0.015625)"/>
      <use xlink:href="#DejaVuSans-2e" transform="translate(936.425781 0.015625)"/>
      <use xlink:href="#DejaVuSans-38" transform="translate(965.587891 0.015625)"/>
      <use xlink:href="#DejaVuSans-34" transform="translate(1029.210938 0.015625)"/>
      <use xlink:href="#DejaVuSans-b1" transform="translate(1112.316406 0.015625)"/>
      <use xlink:href="#DejaVuSans-30" transform="translate(1215.587891 0.015625)"/>
      <use xlink:href="#DejaVuSans-2e" transform="translate(1279.210938 0.015625)"/>
      <use xlink:href="#DejaVuSans-30" transform="translate(1310.998047 0.015625)"/>
      <use xlink:href="#DejaVuSans-34" transform="translate(1374.621094 0.015625)"/>
      <use xlink:href="#DejaVuSans-29" transform="translate(1438.244141 0.015625)"/>
     </g>
    </g>
    <g id="line2d_21">
     <path d="M 374.77748 159.818438 
L 384.77748 159.818438 
L 394.77748 159.818438 
" style="fill: none; stroke: #2ca02c; stroke-width: 1.5; stroke-linecap: round"/>
    </g>
    <g id="text_18">
     <!-- 10% Noise (AUC$ = 0.83 \pm  0.04$) -->
     <g style="fill: #262626" transform="translate(402.77748 163.318438) scale(0.1 -0.1)">
      <defs>
       <path id="DejaVuSans-33" d="M 2597 2516 
Q 3050 2419 3304 2112 
Q 3559 1806 3559 1356 
Q 3559 666 3084 287 
Q 2609 -91 1734 -91 
Q 1441 -91 1130 -33 
Q 819 25 488 141 
L 488 750 
Q 750 597 1062 519 
Q 1375 441 1716 441 
Q 2309 441 2620 675 
Q 2931 909 2931 1356 
Q 2931 1769 2642 2001 
Q 2353 2234 1838 2234 
L 1294 2234 
L 1294 2753 
L 1863 2753 
Q 2328 2753 2575 2939 
Q 2822 3125 2822 3475 
Q 2822 3834 2567 4026 
Q 2313 4219 1838 4219 
Q 1578 4219 1281 4162 
Q 984 4106 628 3988 
L 628 4550 
Q 988 4650 1302 4700 
Q 1616 4750 1894 4750 
Q 2613 4750 3031 4423 
Q 3450 4097 3450 3541 
Q 3450 3153 3228 2886 
Q 3006 2619 2597 2516 
z
" transform="scale(0.015625)"/>
      </defs>
      <use xlink:href="#DejaVuSans-31" transform="translate(0 0.015625)"/>
      <use xlink:href="#DejaVuSans-30" transform="translate(63.623047 0.015625)"/>
      <use xlink:href="#DejaVuSans-25" transform="translate(127.246094 0.015625)"/>
      <use xlink:href="#DejaVuSans-20" transform="translate(222.265625 0.015625)"/>
      <use xlink:href="#DejaVuSans-4e" transform="translate(254.052734 0.015625)"/>
      <use xlink:href="#DejaVuSans-6f" transform="translate(328.857422 0.015625)"/>
      <use xlink:href="#DejaVuSans-69" transform="translate(390.039062 0.015625)"/>
      <use xlink:href="#DejaVuSans-73" transform="translate(417.822266 0.015625)"/>
      <use xlink:href="#DejaVuSans-65" transform="translate(469.921875 0.015625)"/>
      <use xlink:href="#DejaVuSans-20" transform="translate(531.445312 0.015625)"/>
      <use xlink:href="#DejaVuSans-28" transform="translate(563.232422 0.015625)"/>
      <use xlink:href="#DejaVuSans-41" transform="translate(602.246094 0.015625)"/>
      <use xlink:href="#DejaVuSans-55" transform="translate(670.654297 0.015625)"/>
      <use xlink:href="#DejaVuSans-43" transform="translate(743.847656 0.015625)"/>
      <use xlink:href="#DejaVuSans-3d" transform="translate(833.154297 0.015625)"/>
      <use xlink:href="#DejaVuSans-30" transform="translate(936.425781 0.015625)"/>
      <use xlink:href="#DejaVuSans-2e" transform="translate(1000.048828 0.015625)"/>
      <use xlink:href="#DejaVuSans-38" transform="translate(1029.210938 0.015625)"/>
      <use xlink:href="#DejaVuSans-33" transform="translate(1092.833984 0.015625)"/>
      <use xlink:href="#DejaVuSans-b1" transform="translate(1175.939453 0.015625)"/>
      <use xlink:href="#DejaVuSans-30" transform="translate(1279.210938 0.015625)"/>
      <use xlink:href="#DejaVuSans-2e" transform="translate(1342.833984 0.015625)"/>
      <use xlink:href="#DejaVuSans-30" transform="translate(1374.621094 0.015625)"/>
      <use xlink:href="#DejaVuSans-34" transform="translate(1438.244141 0.015625)"/>
      <use xlink:href="#DejaVuSans-29" transform="translate(1501.867188 0.015625)"/>
     </g>
    </g>
    <g id="line2d_22">
     <path d="M 374.77748 174.496563 
L 384.77748 174.496563 
L 394.77748 174.496563 
" style="fill: none; stroke: #d62728; stroke-width: 1.5; stroke-linecap: round"/>
    </g>
    <g id="text_19">
     <!-- 15% Noise (AUC$ = 0.82 \pm  0.04$) -->
     <g style="fill: #262626" transform="translate(402.77748 177.996563) scale(0.1 -0.1)">
      <use xlink:href="#DejaVuSans-31" transform="translate(0 0.015625)"/>
      <use xlink:href="#DejaVuSans-35" transform="translate(63.623047 0.015625)"/>
      <use xlink:href="#DejaVuSans-25" transform="translate(127.246094 0.015625)"/>
      <use xlink:href="#DejaVuSans-20" transform="translate(222.265625 0.015625)"/>
      <use xlink:href="#DejaVuSans-4e" transform="translate(254.052734 0.015625)"/>
      <use xlink:href="#DejaVuSans-6f" transform="translate(328.857422 0.015625)"/>
      <use xlink:href="#DejaVuSans-69" transform="translate(390.039062 0.015625)"/>
      <use xlink:href="#DejaVuSans-73" transform="translate(417.822266 0.015625)"/>
      <use xlink:href="#DejaVuSans-65" transform="translate(469.921875 0.015625)"/>
      <use xlink:href="#DejaVuSans-20" transform="translate(531.445312 0.015625)"/>
      <use xlink:href="#DejaVuSans-28" transform="translate(563.232422 0.015625)"/>
      <use xlink:href="#DejaVuSans-41" transform="translate(602.246094 0.015625)"/>
      <use xlink:href="#DejaVuSans-55" transform="translate(670.654297 0.015625)"/>
      <use xlink:href="#DejaVuSans-43" transform="translate(743.847656 0.015625)"/>
      <use xlink:href="#DejaVuSans-3d" transform="translate(833.154297 0.015625)"/>
      <use xlink:href="#DejaVuSans-30" transform="translate(936.425781 0.015625)"/>
      <use xlink:href="#DejaVuSans-2e" transform="translate(1000.048828 0.015625)"/>
      <use xlink:href="#DejaVuSans-38" transform="translate(1029.210938 0.015625)"/>
      <use xlink:href="#DejaVuSans-32" transform="translate(1092.833984 0.015625)"/>
      <use xlink:href="#DejaVuSans-b1" transform="translate(1175.939453 0.015625)"/>
      <use xlink:href="#DejaVuSans-30" transform="translate(1279.210938 0.015625)"/>
      <use xlink:href="#DejaVuSans-2e" transform="translate(1342.833984 0.015625)"/>
      <use xlink:href="#DejaVuSans-30" transform="translate(1374.621094 0.015625)"/>
      <use xlink:href="#DejaVuSans-34" transform="translate(1438.244141 0.015625)"/>
      <use xlink:href="#DejaVuSans-29" transform="translate(1501.867188 0.015625)"/>
     </g>
    </g>
    <g id="line2d_23">
     <path d="M 374.77748 189.174688 
L 384.77748 189.174688 
L 394.77748 189.174688 
" style="fill: none; stroke: #9467bd; stroke-width: 1.5; stroke-linecap: round"/>
    </g>
    <g id="text_20">
     <!-- 20% Noise (AUC$ = 0.81 \pm  0.05$) -->
     <g style="fill: #262626" transform="translate(402.77748 192.674688) scale(0.1 -0.1)">
      <use xlink:href="#DejaVuSans-32" transform="translate(0 0.015625)"/>
      <use xlink:href="#DejaVuSans-30" transform="translate(63.623047 0.015625)"/>
      <use xlink:href="#DejaVuSans-25" transform="translate(127.246094 0.015625)"/>
      <use xlink:href="#DejaVuSans-20" transform="translate(222.265625 0.015625)"/>
      <use xlink:href="#DejaVuSans-4e" transform="translate(254.052734 0.015625)"/>
      <use xlink:href="#DejaVuSans-6f" transform="translate(328.857422 0.015625)"/>
      <use xlink:href="#DejaVuSans-69" transform="translate(390.039062 0.015625)"/>
      <use xlink:href="#DejaVuSans-73" transform="translate(417.822266 0.015625)"/>
      <use xlink:href="#DejaVuSans-65" transform="translate(469.921875 0.015625)"/>
      <use xlink:href="#DejaVuSans-20" transform="translate(531.445312 0.015625)"/>
      <use xlink:href="#DejaVuSans-28" transform="translate(563.232422 0.015625)"/>
      <use xlink:href="#DejaVuSans-41" transform="translate(602.246094 0.015625)"/>
      <use xlink:href="#DejaVuSans-55" transform="translate(670.654297 0.015625)"/>
      <use xlink:href="#DejaVuSans-43" transform="translate(743.847656 0.015625)"/>
      <use xlink:href="#DejaVuSans-3d" transform="translate(833.154297 0.015625)"/>
      <use xlink:href="#DejaVuSans-30" transform="translate(936.425781 0.015625)"/>
      <use xlink:href="#DejaVuSans-2e" transform="translate(1000.048828 0.015625)"/>
      <use xlink:href="#DejaVuSans-38" transform="translate(1029.210938 0.015625)"/>
      <use xlink:href="#DejaVuSans-31" transform="translate(1092.833984 0.015625)"/>
      <use xlink:href="#DejaVuSans-b1" transform="translate(1175.939453 0.015625)"/>
      <use xlink:href="#DejaVuSans-30" transform="translate(1279.210938 0.015625)"/>
      <use xlink:href="#DejaVuSans-2e" transform="translate(1342.833984 0.015625)"/>
      <use xlink:href="#DejaVuSans-30" transform="translate(1374.621094 0.015625)"/>
      <use xlink:href="#DejaVuSans-35" transform="translate(1438.244141 0.015625)"/>
      <use xlink:href="#DejaVuSans-29" transform="translate(1501.867188 0.015625)"/>
     </g>
    </g>
    <g id="line2d_24">
     <path d="M 374.77748 203.852813 
L 384.77748 203.852813 
L 394.77748 203.852813 
" style="fill: none; stroke-dasharray: 7.4,3.2; stroke-dashoffset: 0; stroke: #000000; stroke-width: 2"/>
    </g>
    <g id="text_21">
     <!-- Random Chance -->
     <g style="fill: #262626" transform="translate(402.77748 207.352813) scale(0.1 -0.1)">
      <defs>
       <path id="DejaVuSans-6e" d="M 3513 2113 
L 3513 0 
L 2938 0 
L 2938 2094 
Q 2938 2591 2744 2837 
Q 2550 3084 2163 3084 
Q 1697 3084 1428 2787 
Q 1159 2491 1159 1978 
L 1159 0 
L 581 0 
L 581 3500 
L 1159 3500 
L 1159 2956 
Q 1366 3272 1645 3428 
Q 1925 3584 2291 3584 
Q 2894 3584 3203 3211 
Q 3513 2838 3513 2113 
z
" transform="scale(0.015625)"/>
       <path id="DejaVuSans-64" d="M 2906 2969 
L 2906 4863 
L 3481 4863 
L 3481 0 
L 2906 0 
L 2906 525 
Q 2725 213 2448 61 
Q 2172 -91 1784 -91 
Q 1150 -91 751 415 
Q 353 922 353 1747 
Q 353 2572 751 3078 
Q 1150 3584 1784 3584 
Q 2172 3584 2448 3432 
Q 2725 3281 2906 2969 
z
M 947 1747 
Q 947 1113 1208 752 
Q 1469 391 1925 391 
Q 2381 391 2643 752 
Q 2906 1113 2906 1747 
Q 2906 2381 2643 2742 
Q 2381 3103 1925 3103 
Q 1469 3103 1208 2742 
Q 947 2381 947 1747 
z
" transform="scale(0.015625)"/>
       <path id="DejaVuSans-6d" d="M 3328 2828 
Q 3544 3216 3844 3400 
Q 4144 3584 4550 3584 
Q 5097 3584 5394 3201 
Q 5691 2819 5691 2113 
L 5691 0 
L 5113 0 
L 5113 2094 
Q 5113 2597 4934 2840 
Q 4756 3084 4391 3084 
Q 3944 3084 3684 2787 
Q 3425 2491 3425 1978 
L 3425 0 
L 2847 0 
L 2847 2094 
Q 2847 2600 2669 2842 
Q 2491 3084 2119 3084 
Q 1678 3084 1418 2786 
Q 1159 2488 1159 1978 
L 1159 0 
L 581 0 
L 581 3500 
L 1159 3500 
L 1159 2956 
Q 1356 3278 1631 3431 
Q 1906 3584 2284 3584 
Q 2666 3584 2933 3390 
Q 3200 3197 3328 2828 
z
" transform="scale(0.015625)"/>
       <path id="DejaVuSans-68" d="M 3513 2113 
L 3513 0 
L 2938 0 
L 2938 2094 
Q 2938 2591 2744 2837 
Q 2550 3084 2163 3084 
Q 1697 3084 1428 2787 
Q 1159 2491 1159 1978 
L 1159 0 
L 581 0 
L 581 4863 
L 1159 4863 
L 1159 2956 
Q 1366 3272 1645 3428 
Q 1925 3584 2291 3584 
Q 2894 3584 3203 3211 
Q 3513 2838 3513 2113 
z
" transform="scale(0.015625)"/>
       <path id="DejaVuSans-63" d="M 3122 3366 
L 3122 2828 
Q 2878 2963 2633 3030 
Q 2388 3097 2138 3097 
Q 1578 3097 1268 2742 
Q 959 2388 959 1747 
Q 959 1106 1268 751 
Q 1578 397 2138 397 
Q 2388 397 2633 464 
Q 2878 531 3122 666 
L 3122 134 
Q 2881 22 2623 -34 
Q 2366 -91 2075 -91 
Q 1284 -91 818 406 
Q 353 903 353 1747 
Q 353 2603 823 3093 
Q 1294 3584 2113 3584 
Q 2378 3584 2631 3529 
Q 2884 3475 3122 3366 
z
" transform="scale(0.015625)"/>
      </defs>
      <use xlink:href="#DejaVuSans-52"/>
      <use xlink:href="#DejaVuSans-61" transform="translate(67.232422 0)"/>
      <use xlink:href="#DejaVuSans-6e" transform="translate(128.511719 0)"/>
      <use xlink:href="#DejaVuSans-64" transform="translate(191.890625 0)"/>
      <use xlink:href="#DejaVuSans-6f" transform="translate(255.367188 0)"/>
      <use xlink:href="#DejaVuSans-6d" transform="translate(316.548828 0)"/>
      <use xlink:href="#DejaVuSans-20" transform="translate(413.960938 0)"/>
      <use xlink:href="#DejaVuSans-43" transform="translate(445.748047 0)"/>
      <use xlink:href="#DejaVuSans-68" transform="translate(515.572266 0)"/>
      <use xlink:href="#DejaVuSans-61" transform="translate(578.951172 0)"/>
      <use xlink:href="#DejaVuSans-6e" transform="translate(640.230469 0)"/>
      <use xlink:href="#DejaVuSans-63" transform="translate(703.609375 0)"/>
      <use xlink:href="#DejaVuSans-65" transform="translate(758.589844 0)"/>
     </g>
    </g>
   </g>
  </g>
 </g>
 <defs>
  <clipPath id="pb3666d10b7">
   <rect x="43.78125" y="22.318125" width="321.99623" height="291.16"/>
  </clipPath>
 </defs>
</svg>
