<?xml version="1.0" encoding="utf-8" standalone="no"?>
<!DOCTYPE svg PUBLIC "-//W3C//DTD SVG 1.1//EN"
  "http://www.w3.org/Graphics/SVG/1.1/DTD/svg11.dtd">
<svg xmlns:xlink="http://www.w3.org/1999/xlink" width="568.07748pt" height="351.034375pt" viewBox="0 0 568.07748 351.034375" xmlns="http://www.w3.org/2000/svg" version="1.1">
 <metadata>
  <rdf:RDF xmlns:dc="http://purl.org/dc/elements/1.1/" xmlns:cc="http://creativecommons.org/ns#" xmlns:rdf="http://www.w3.org/1999/02/22-rdf-syntax-ns#">
   <cc:Work>
    <dc:type rdf:resource="http://purl.org/dc/dcmitype/StillImage"/>
    <dc:date>2025-05-21T11:18:10.349143</dc:date>
    <dc:format>image/svg+xml</dc:format>
    <dc:creator>
     <cc:Agent>
      <dc:title>Matplotlib v3.10.0, https://matplotlib.org/</dc:title>
     </cc:Agent>
    </dc:creator>
   </cc:Work>
  </rdf:RDF>
 </metadata>
 <defs>
  <style type="text/css">*{stroke-linejoin: round; stroke-linecap: butt}</style>
 </defs>
 <g id="figure_1">
  <g id="patch_1">
   <path d="M 0 351.034375 
L 568.07748 351.034375 
L 568.07748 0 
L 0 0 
z
" style="fill: #ffffff"/>
  </g>
  <g id="axes_1">
   <g id="patch_2">
    <path d="M 43.78125 313.478125 
L 365.77748 313.478125 
L 365.77748 22.318125 
L 43.78125 22.318125 
z
" style="fill: #eaeaf2"/>
   </g>
   <g id="matplotlib.axis_1">
    <g id="xtick_1">
     <g id="line2d_1">
      <path d="M 58.417442 313.478125 
L 58.417442 22.318125 
" clip-path="url(#p5f4aad66ff)" style="fill: none; stroke-dasharray: 2.96,1.28; stroke-dashoffset: 0; stroke: #ffffff; stroke-opacity: 0.7; stroke-width: 0.8"/>
     </g>
     <g id="text_1">
      <!-- 0.0 -->
      <g style="fill: #262626" transform="translate(50.46588 328.076563) scale(0.1 -0.1)">
       <defs>
        <path id="DejaVuSans-30" d="M 2034 4250 
Q 1547 4250 1301 3770 
Q 1056 3291 1056 2328 
Q 1056 1369 1301 889 
Q 1547 409 2034 409 
Q 2525 409 2770 889 
Q 3016 1369 3016 2328 
Q 3016 3291 2770 3770 
Q 2525 4250 2034 4250 
z
M 2034 4750 
Q 2819 4750 3233 4129 
Q 3647 3509 3647 2328 
Q 3647 1150 3233 529 
Q 2819 -91 2034 -91 
Q 1250 -91 836 529 
Q 422 1150 422 2328 
Q 422 3509 836 4129 
Q 1250 4750 2034 4750 
z
" transform="scale(0.015625)"/>
        <path id="DejaVuSans-2e" d="M 684 794 
L 1344 794 
L 1344 0 
L 684 0 
L 684 794 
z
" transform="scale(0.015625)"/>
       </defs>
       <use xlink:href="#DejaVuSans-30"/>
       <use xlink:href="#DejaVuSans-2e" transform="translate(63.623047 0)"/>
       <use xlink:href="#DejaVuSans-30" transform="translate(95.410156 0)"/>
      </g>
     </g>
    </g>
    <g id="xtick_2">
     <g id="line2d_2">
      <path d="M 116.962211 313.478125 
L 116.962211 22.318125 
" clip-path="url(#p5f4aad66ff)" style="fill: none; stroke-dasharray: 2.96,1.28; stroke-dashoffset: 0; stroke: #ffffff; stroke-opacity: 0.7; stroke-width: 0.8"/>
     </g>
     <g id="text_2">
      <!-- 0.2 -->
      <g style="fill: #262626" transform="translate(109.010649 328.076563) scale(0.1 -0.1)">
       <defs>
        <path id="DejaVuSans-32" d="M 1228 531 
L 3431 531 
L 3431 0 
L 469 0 
L 469 531 
Q 828 903 1448 1529 
Q 2069 2156 2228 2338 
Q 2531 2678 2651 2914 
Q 2772 3150 2772 3378 
Q 2772 3750 2511 3984 
Q 2250 4219 1831 4219 
Q 1534 4219 1204 4116 
Q 875 4013 500 3803 
L 500 4441 
Q 881 4594 1212 4672 
Q 1544 4750 1819 4750 
Q 2544 4750 2975 4387 
Q 3406 4025 3406 3419 
Q 3406 3131 3298 2873 
Q 3191 2616 2906 2266 
Q 2828 2175 2409 1742 
Q 1991 1309 1228 531 
z
" transform="scale(0.015625)"/>
       </defs>
       <use xlink:href="#DejaVuSans-30"/>
       <use xlink:href="#DejaVuSans-2e" transform="translate(63.623047 0)"/>
       <use xlink:href="#DejaVuSans-32" transform="translate(95.410156 0)"/>
      </g>
     </g>
    </g>
    <g id="xtick_3">
     <g id="line2d_3">
      <path d="M 175.506981 313.478125 
L 175.506981 22.318125 
" clip-path="url(#p5f4aad66ff)" style="fill: none; stroke-dasharray: 2.96,1.28; stroke-dashoffset: 0; stroke: #ffffff; stroke-opacity: 0.7; stroke-width: 0.8"/>
     </g>
     <g id="text_3">
      <!-- 0.4 -->
      <g style="fill: #262626" transform="translate(167.555418 328.076563) scale(0.1 -0.1)">
       <defs>
        <path id="DejaVuSans-34" d="M 2419 4116 
L 825 1625 
L 2419 1625 
L 2419 4116 
z
M 2253 4666 
L 3047 4666 
L 3047 1625 
L 3713 1625 
L 3713 1100 
L 3047 1100 
L 3047 0 
L 2419 0 
L 2419 1100 
L 313 1100 
L 313 1709 
L 2253 4666 
z
" transform="scale(0.015625)"/>
       </defs>
       <use xlink:href="#DejaVuSans-30"/>
       <use xlink:href="#DejaVuSans-2e" transform="translate(63.623047 0)"/>
       <use xlink:href="#DejaVuSans-34" transform="translate(95.410156 0)"/>
      </g>
     </g>
    </g>
    <g id="xtick_4">
     <g id="line2d_4">
      <path d="M 234.05175 313.478125 
L 234.05175 22.318125 
" clip-path="url(#p5f4aad66ff)" style="fill: none; stroke-dasharray: 2.96,1.28; stroke-dashoffset: 0; stroke: #ffffff; stroke-opacity: 0.7; stroke-width: 0.8"/>
     </g>
     <g id="text_4">
      <!-- 0.6 -->
      <g style="fill: #262626" transform="translate(226.100187 328.076563) scale(0.1 -0.1)">
       <defs>
        <path id="DejaVuSans-36" d="M 2113 2584 
Q 1688 2584 1439 2293 
Q 1191 2003 1191 1497 
Q 1191 994 1439 701 
Q 1688 409 2113 409 
Q 2538 409 2786 701 
Q 3034 994 3034 1497 
Q 3034 2003 2786 2293 
Q 2538 2584 2113 2584 
z
M 3366 4563 
L 3366 3988 
Q 3128 4100 2886 4159 
Q 2644 4219 2406 4219 
Q 1781 4219 1451 3797 
Q 1122 3375 1075 2522 
Q 1259 2794 1537 2939 
Q 1816 3084 2150 3084 
Q 2853 3084 3261 2657 
Q 3669 2231 3669 1497 
Q 3669 778 3244 343 
Q 2819 -91 2113 -91 
Q 1303 -91 875 529 
Q 447 1150 447 2328 
Q 447 3434 972 4092 
Q 1497 4750 2381 4750 
Q 2619 4750 2861 4703 
Q 3103 4656 3366 4563 
z
" transform="scale(0.015625)"/>
       </defs>
       <use xlink:href="#DejaVuSans-30"/>
       <use xlink:href="#DejaVuSans-2e" transform="translate(63.623047 0)"/>
       <use xlink:href="#DejaVuSans-36" transform="translate(95.410156 0)"/>
      </g>
     </g>
    </g>
    <g id="xtick_5">
     <g id="line2d_5">
      <path d="M 292.596519 313.478125 
L 292.596519 22.318125 
" clip-path="url(#p5f4aad66ff)" style="fill: none; stroke-dasharray: 2.96,1.28; stroke-dashoffset: 0; stroke: #ffffff; stroke-opacity: 0.7; stroke-width: 0.8"/>
     </g>
     <g id="text_5">
      <!-- 0.8 -->
      <g style="fill: #262626" transform="translate(284.644956 328.076563) scale(0.1 -0.1)">
       <defs>
        <path id="DejaVuSans-38" d="M 2034 2216 
Q 1584 2216 1326 1975 
Q 1069 1734 1069 1313 
Q 1069 891 1326 650 
Q 1584 409 2034 409 
Q 2484 409 2743 651 
Q 3003 894 3003 1313 
Q 3003 1734 2745 1975 
Q 2488 2216 2034 2216 
z
M 1403 2484 
Q 997 2584 770 2862 
Q 544 3141 544 3541 
Q 544 4100 942 4425 
Q 1341 4750 2034 4750 
Q 2731 4750 3128 4425 
Q 3525 4100 3525 3541 
Q 3525 3141 3298 2862 
Q 3072 2584 2669 2484 
Q 3125 2378 3379 2068 
Q 3634 1759 3634 1313 
Q 3634 634 3220 271 
Q 2806 -91 2034 -91 
Q 1263 -91 848 271 
Q 434 634 434 1313 
Q 434 1759 690 2068 
Q 947 2378 1403 2484 
z
M 1172 3481 
Q 1172 3119 1398 2916 
Q 1625 2713 2034 2713 
Q 2441 2713 2670 2916 
Q 2900 3119 2900 3481 
Q 2900 3844 2670 4047 
Q 2441 4250 2034 4250 
Q 1625 4250 1398 4047 
Q 1172 3844 1172 3481 
z
" transform="scale(0.015625)"/>
       </defs>
       <use xlink:href="#DejaVuSans-30"/>
       <use xlink:href="#DejaVuSans-2e" transform="translate(63.623047 0)"/>
       <use xlink:href="#DejaVuSans-38" transform="translate(95.410156 0)"/>
      </g>
     </g>
    </g>
    <g id="xtick_6">
     <g id="line2d_6">
      <path d="M 351.141288 313.478125 
L 351.141288 22.318125 
" clip-path="url(#p5f4aad66ff)" style="fill: none; stroke-dasharray: 2.96,1.28; stroke-dashoffset: 0; stroke: #ffffff; stroke-opacity: 0.7; stroke-width: 0.8"/>
     </g>
     <g id="text_6">
      <!-- 1.0 -->
      <g style="fill: #262626" transform="translate(343.189726 328.076563) scale(0.1 -0.1)">
       <defs>
        <path id="DejaVuSans-31" d="M 794 531 
L 1825 531 
L 1825 4091 
L 703 3866 
L 703 4441 
L 1819 4666 
L 2450 4666 
L 2450 531 
L 3481 531 
L 3481 0 
L 794 0 
L 794 531 
z
" transform="scale(0.015625)"/>
       </defs>
       <use xlink:href="#DejaVuSans-31"/>
       <use xlink:href="#DejaVuSans-2e" transform="translate(63.623047 0)"/>
       <use xlink:href="#DejaVuSans-30" transform="translate(95.410156 0)"/>
      </g>
     </g>
    </g>
    <g id="text_7">
     <!-- Recall -->
     <g style="fill: #262626" transform="translate(189.862178 341.754687) scale(0.1 -0.1)">
      <defs>
       <path id="DejaVuSans-52" d="M 2841 2188 
Q 3044 2119 3236 1894 
Q 3428 1669 3622 1275 
L 4263 0 
L 3584 0 
L 2988 1197 
Q 2756 1666 2539 1819 
Q 2322 1972 1947 1972 
L 1259 1972 
L 1259 0 
L 628 0 
L 628 4666 
L 2053 4666 
Q 2853 4666 3247 4331 
Q 3641 3997 3641 3322 
Q 3641 2881 3436 2590 
Q 3231 2300 2841 2188 
z
M 1259 4147 
L 1259 2491 
L 2053 2491 
Q 2509 2491 2742 2702 
Q 2975 2913 2975 3322 
Q 2975 3731 2742 3939 
Q 2509 4147 2053 4147 
L 1259 4147 
z
" transform="scale(0.015625)"/>
       <path id="DejaVuSans-65" d="M 3597 1894 
L 3597 1613 
L 953 1613 
Q 991 1019 1311 708 
Q 1631 397 2203 397 
Q 2534 397 2845 478 
Q 3156 559 3463 722 
L 3463 178 
Q 3153 47 2828 -22 
Q 2503 -91 2169 -91 
Q 1331 -91 842 396 
Q 353 884 353 1716 
Q 353 2575 817 3079 
Q 1281 3584 2069 3584 
Q 2775 3584 3186 3129 
Q 3597 2675 3597 1894 
z
M 3022 2063 
Q 3016 2534 2758 2815 
Q 2500 3097 2075 3097 
Q 1594 3097 1305 2825 
Q 1016 2553 972 2059 
L 3022 2063 
z
" transform="scale(0.015625)"/>
       <path id="DejaVuSans-63" d="M 3122 3366 
L 3122 2828 
Q 2878 2963 2633 3030 
Q 2388 3097 2138 3097 
Q 1578 3097 1268 2742 
Q 959 2388 959 1747 
Q 959 1106 1268 751 
Q 1578 397 2138 397 
Q 2388 397 2633 464 
Q 2878 531 3122 666 
L 3122 134 
Q 2881 22 2623 -34 
Q 2366 -91 2075 -91 
Q 1284 -91 818 406 
Q 353 903 353 1747 
Q 353 2603 823 3093 
Q 1294 3584 2113 3584 
Q 2378 3584 2631 3529 
Q 2884 3475 3122 3366 
z
" transform="scale(0.015625)"/>
       <path id="DejaVuSans-61" d="M 2194 1759 
Q 1497 1759 1228 1600 
Q 959 1441 959 1056 
Q 959 750 1161 570 
Q 1363 391 1709 391 
Q 2188 391 2477 730 
Q 2766 1069 2766 1631 
L 2766 1759 
L 2194 1759 
z
M 3341 1997 
L 3341 0 
L 2766 0 
L 2766 531 
Q 2569 213 2275 61 
Q 1981 -91 1556 -91 
Q 1019 -91 701 211 
Q 384 513 384 1019 
Q 384 1609 779 1909 
Q 1175 2209 1959 2209 
L 2766 2209 
L 2766 2266 
Q 2766 2663 2505 2880 
Q 2244 3097 1772 3097 
Q 1472 3097 1187 3025 
Q 903 2953 641 2809 
L 641 3341 
Q 956 3463 1253 3523 
Q 1550 3584 1831 3584 
Q 2591 3584 2966 3190 
Q 3341 2797 3341 1997 
z
" transform="scale(0.015625)"/>
       <path id="DejaVuSans-6c" d="M 603 4863 
L 1178 4863 
L 1178 0 
L 603 0 
L 603 4863 
z
" transform="scale(0.015625)"/>
      </defs>
      <use xlink:href="#DejaVuSans-52"/>
      <use xlink:href="#DejaVuSans-65" transform="translate(64.982422 0)"/>
      <use xlink:href="#DejaVuSans-63" transform="translate(126.505859 0)"/>
      <use xlink:href="#DejaVuSans-61" transform="translate(181.486328 0)"/>
      <use xlink:href="#DejaVuSans-6c" transform="translate(242.765625 0)"/>
      <use xlink:href="#DejaVuSans-6c" transform="translate(270.548828 0)"/>
     </g>
    </g>
   </g>
   <g id="matplotlib.axis_2">
    <g id="ytick_1">
     <g id="line2d_7">
      <path d="M 43.78125 300.24358 
L 365.77748 300.24358 
" clip-path="url(#p5f4aad66ff)" style="fill: none; stroke-dasharray: 2.96,1.28; stroke-dashoffset: 0; stroke: #ffffff; stroke-opacity: 0.7; stroke-width: 0.8"/>
     </g>
     <g id="text_8">
      <!-- 0.0 -->
      <g style="fill: #262626" transform="translate(20.878125 304.042798) scale(0.1 -0.1)">
       <use xlink:href="#DejaVuSans-30"/>
       <use xlink:href="#DejaVuSans-2e" transform="translate(63.623047 0)"/>
       <use xlink:href="#DejaVuSans-30" transform="translate(95.410156 0)"/>
      </g>
     </g>
    </g>
    <g id="ytick_2">
     <g id="line2d_8">
      <path d="M 43.78125 250.165931 
L 365.77748 250.165931 
" clip-path="url(#p5f4aad66ff)" style="fill: none; stroke-dasharray: 2.96,1.28; stroke-dashoffset: 0; stroke: #ffffff; stroke-opacity: 0.7; stroke-width: 0.8"/>
     </g>
     <g id="text_9">
      <!-- 0.2 -->
      <g style="fill: #262626" transform="translate(20.878125 253.96515) scale(0.1 -0.1)">
       <use xlink:href="#DejaVuSans-30"/>
       <use xlink:href="#DejaVuSans-2e" transform="translate(63.623047 0)"/>
       <use xlink:href="#DejaVuSans-32" transform="translate(95.410156 0)"/>
      </g>
     </g>
    </g>
    <g id="ytick_3">
     <g id="line2d_9">
      <path d="M 43.78125 200.088282 
L 365.77748 200.088282 
" clip-path="url(#p5f4aad66ff)" style="fill: none; stroke-dasharray: 2.96,1.28; stroke-dashoffset: 0; stroke: #ffffff; stroke-opacity: 0.7; stroke-width: 0.8"/>
     </g>
     <g id="text_10">
      <!-- 0.4 -->
      <g style="fill: #262626" transform="translate(20.878125 203.887501) scale(0.1 -0.1)">
       <use xlink:href="#DejaVuSans-30"/>
       <use xlink:href="#DejaVuSans-2e" transform="translate(63.623047 0)"/>
       <use xlink:href="#DejaVuSans-34" transform="translate(95.410156 0)"/>
      </g>
     </g>
    </g>
    <g id="ytick_4">
     <g id="line2d_10">
      <path d="M 43.78125 150.010633 
L 365.77748 150.010633 
" clip-path="url(#p5f4aad66ff)" style="fill: none; stroke-dasharray: 2.96,1.28; stroke-dashoffset: 0; stroke: #ffffff; stroke-opacity: 0.7; stroke-width: 0.8"/>
     </g>
     <g id="text_11">
      <!-- 0.6 -->
      <g style="fill: #262626" transform="translate(20.878125 153.809852) scale(0.1 -0.1)">
       <use xlink:href="#DejaVuSans-30"/>
       <use xlink:href="#DejaVuSans-2e" transform="translate(63.623047 0)"/>
       <use xlink:href="#DejaVuSans-36" transform="translate(95.410156 0)"/>
      </g>
     </g>
    </g>
    <g id="ytick_5">
     <g id="line2d_11">
      <path d="M 43.78125 99.932985 
L 365.77748 99.932985 
" clip-path="url(#p5f4aad66ff)" style="fill: none; stroke-dasharray: 2.96,1.28; stroke-dashoffset: 0; stroke: #ffffff; stroke-opacity: 0.7; stroke-width: 0.8"/>
     </g>
     <g id="text_12">
      <!-- 0.8 -->
      <g style="fill: #262626" transform="translate(20.878125 103.732203) scale(0.1 -0.1)">
       <use xlink:href="#DejaVuSans-30"/>
       <use xlink:href="#DejaVuSans-2e" transform="translate(63.623047 0)"/>
       <use xlink:href="#DejaVuSans-38" transform="translate(95.410156 0)"/>
      </g>
     </g>
    </g>
    <g id="ytick_6">
     <g id="line2d_12">
      <path d="M 43.78125 49.855336 
L 365.77748 49.855336 
" clip-path="url(#p5f4aad66ff)" style="fill: none; stroke-dasharray: 2.96,1.28; stroke-dashoffset: 0; stroke: #ffffff; stroke-opacity: 0.7; stroke-width: 0.8"/>
     </g>
     <g id="text_13">
      <!-- 1.0 -->
      <g style="fill: #262626" transform="translate(20.878125 53.654555) scale(0.1 -0.1)">
       <use xlink:href="#DejaVuSans-31"/>
       <use xlink:href="#DejaVuSans-2e" transform="translate(63.623047 0)"/>
       <use xlink:href="#DejaVuSans-30" transform="translate(95.410156 0)"/>
      </g>
     </g>
    </g>
    <g id="text_14">
     <!-- Precision -->
     <g style="fill: #262626" transform="translate(14.798438 190.205156) rotate(-90) scale(0.1 -0.1)">
      <defs>
       <path id="DejaVuSans-50" d="M 1259 4147 
L 1259 2394 
L 2053 2394 
Q 2494 2394 2734 2622 
Q 2975 2850 2975 3272 
Q 2975 3691 2734 3919 
Q 2494 4147 2053 4147 
L 1259 4147 
z
M 628 4666 
L 2053 4666 
Q 2838 4666 3239 4311 
Q 3641 3956 3641 3272 
Q 3641 2581 3239 2228 
Q 2838 1875 2053 1875 
L 1259 1875 
L 1259 0 
L 628 0 
L 628 4666 
z
" transform="scale(0.015625)"/>
       <path id="DejaVuSans-72" d="M 2631 2963 
Q 2534 3019 2420 3045 
Q 2306 3072 2169 3072 
Q 1681 3072 1420 2755 
Q 1159 2438 1159 1844 
L 1159 0 
L 581 0 
L 581 3500 
L 1159 3500 
L 1159 2956 
Q 1341 3275 1631 3429 
Q 1922 3584 2338 3584 
Q 2397 3584 2469 3576 
Q 2541 3569 2628 3553 
L 2631 2963 
z
" transform="scale(0.015625)"/>
       <path id="DejaVuSans-69" d="M 603 3500 
L 1178 3500 
L 1178 0 
L 603 0 
L 603 3500 
z
M 603 4863 
L 1178 4863 
L 1178 4134 
L 603 4134 
L 603 4863 
z
" transform="scale(0.015625)"/>
       <path id="DejaVuSans-73" d="M 2834 3397 
L 2834 2853 
Q 2591 2978 2328 3040 
Q 2066 3103 1784 3103 
Q 1356 3103 1142 2972 
Q 928 2841 928 2578 
Q 928 2378 1081 2264 
Q 1234 2150 1697 2047 
L 1894 2003 
Q 2506 1872 2764 1633 
Q 3022 1394 3022 966 
Q 3022 478 2636 193 
Q 2250 -91 1575 -91 
Q 1294 -91 989 -36 
Q 684 19 347 128 
L 347 722 
Q 666 556 975 473 
Q 1284 391 1588 391 
Q 1994 391 2212 530 
Q 2431 669 2431 922 
Q 2431 1156 2273 1281 
Q 2116 1406 1581 1522 
L 1381 1569 
Q 847 1681 609 1914 
Q 372 2147 372 2553 
Q 372 3047 722 3315 
Q 1072 3584 1716 3584 
Q 2034 3584 2315 3537 
Q 2597 3491 2834 3397 
z
" transform="scale(0.015625)"/>
       <path id="DejaVuSans-6f" d="M 1959 3097 
Q 1497 3097 1228 2736 
Q 959 2375 959 1747 
Q 959 1119 1226 758 
Q 1494 397 1959 397 
Q 2419 397 2687 759 
Q 2956 1122 2956 1747 
Q 2956 2369 2687 2733 
Q 2419 3097 1959 3097 
z
M 1959 3584 
Q 2709 3584 3137 3096 
Q 3566 2609 3566 1747 
Q 3566 888 3137 398 
Q 2709 -91 1959 -91 
Q 1206 -91 779 398 
Q 353 888 353 1747 
Q 353 2609 779 3096 
Q 1206 3584 1959 3584 
z
" transform="scale(0.015625)"/>
       <path id="DejaVuSans-6e" d="M 3513 2113 
L 3513 0 
L 2938 0 
L 2938 2094 
Q 2938 2591 2744 2837 
Q 2550 3084 2163 3084 
Q 1697 3084 1428 2787 
Q 1159 2491 1159 1978 
L 1159 0 
L 581 0 
L 581 3500 
L 1159 3500 
L 1159 2956 
Q 1366 3272 1645 3428 
Q 1925 3584 2291 3584 
Q 2894 3584 3203 3211 
Q 3513 2838 3513 2113 
z
" transform="scale(0.015625)"/>
      </defs>
      <use xlink:href="#DejaVuSans-50"/>
      <use xlink:href="#DejaVuSans-72" transform="translate(58.552734 0)"/>
      <use xlink:href="#DejaVuSans-65" transform="translate(97.416016 0)"/>
      <use xlink:href="#DejaVuSans-63" transform="translate(158.939453 0)"/>
      <use xlink:href="#DejaVuSans-69" transform="translate(213.919922 0)"/>
      <use xlink:href="#DejaVuSans-73" transform="translate(241.703125 0)"/>
      <use xlink:href="#DejaVuSans-69" transform="translate(293.802734 0)"/>
      <use xlink:href="#DejaVuSans-6f" transform="translate(321.585938 0)"/>
      <use xlink:href="#DejaVuSans-6e" transform="translate(382.767578 0)"/>
     </g>
    </g>
   </g>
   <g id="FillBetweenPolyCollection_1">
    <defs>
     <path id="maea2ce6aa1" d="M 58.417442 -301.179039 
L 58.417442 -301.179039 
L 61.374249 -301.179039 
L 64.331055 -301.179039 
L 67.287862 -301.179039 
L 70.244668 -301.179039 
L 73.201475 -292.044505 
L 76.158281 -288.8805 
L 79.115088 -287.919685 
L 82.071894 -289.268214 
L 85.028701 -280.241184 
L 87.985508 -280.454094 
L 90.942314 -279.846987 
L 93.899121 -280.327538 
L 96.855927 -277.80338 
L 99.812734 -274.141975 
L 102.76954 -273.630249 
L 105.726347 -273.103555 
L 108.683153 -271.021344 
L 111.63996 -268.181604 
L 114.596766 -268.260433 
L 117.553573 -266.417411 
L 120.510379 -264.566369 
L 123.467186 -264.534383 
L 126.423992 -263.418343 
L 129.380799 -263.323682 
L 132.337605 -261.282249 
L 135.294412 -261.216869 
L 138.251218 -257.49543 
L 141.208025 -256.746961 
L 144.164831 -257.090735 
L 147.121638 -257.417409 
L 150.078445 -255.643504 
L 153.035251 -256.061871 
L 155.992058 -253.500809 
L 158.948864 -254.034574 
L 161.905671 -253.131665 
L 164.862477 -253.309524 
L 167.819284 -253.652352 
L 170.77609 -253.929468 
L 173.732897 -252.648345 
L 176.689703 -252.109244 
L 179.64651 -252.164978 
L 182.603316 -250.668106 
L 185.560123 -249.060497 
L 188.516929 -248.195504 
L 191.473736 -248.018046 
L 194.430542 -248.155292 
L 197.387349 -248.063634 
L 200.344155 -248.369791 
L 203.300962 -248.548707 
L 206.257768 -247.474196 
L 209.214575 -246.750829 
L 212.171382 -247.500764 
L 215.128188 -246.288697 
L 218.084995 -245.257601 
L 221.041801 -245.10807 
L 223.998608 -244.843535 
L 226.955414 -243.232007 
L 229.912221 -242.202708 
L 232.869027 -241.580899 
L 235.825834 -241.458758 
L 238.78264 -241.281137 
L 241.739447 -240.879241 
L 244.696253 -240.347604 
L 247.65306 -240.154886 
L 250.609866 -239.238089 
L 253.566673 -238.022655 
L 256.523479 -237.912292 
L 259.480286 -237.749958 
L 262.437092 -236.48324 
L 265.393899 -235.67946 
L 268.350706 -234.755175 
L 271.307512 -233.57379 
L 274.264319 -232.495246 
L 277.221125 -232.229049 
L 280.177932 -230.271138 
L 283.134738 -229.816032 
L 286.091545 -227.707702 
L 289.048351 -225.202043 
L 292.005158 -224.45287 
L 294.961964 -221.599832 
L 297.918771 -219.003959 
L 300.875577 -218.044966 
L 303.832384 -213.58461 
L 306.78919 -209.284444 
L 309.745997 -207.615578 
L 312.702803 -204.947241 
L 315.65961 -200.751664 
L 318.616416 -199.084696 
L 321.573223 -197.70151 
L 324.530029 -196.031538 
L 327.486836 -192.507058 
L 330.443643 -189.615579 
L 333.400449 -187.668843 
L 336.357256 -183.932815 
L 339.314062 -181.6013 
L 342.270869 -181.000968 
L 345.227675 -174.644299 
L 348.184482 -175.286855 
L 351.141288 -162.904069 
L 351.141288 -189.003168 
L 351.141288 -189.003168 
L 348.184482 -206.594782 
L 345.227675 -205.994352 
L 342.270869 -217.991332 
L 339.314062 -217.392408 
L 336.357256 -223.241353 
L 333.400449 -227.168289 
L 330.443643 -228.230642 
L 327.486836 -233.695968 
L 324.530029 -237.779986 
L 321.573223 -242.126143 
L 318.616416 -244.209575 
L 315.65961 -246.960932 
L 312.702803 -248.657388 
L 309.745997 -250.361203 
L 306.78919 -252.97947 
L 303.832384 -257.113035 
L 300.875577 -257.798454 
L 297.918771 -260.220764 
L 294.961964 -260.271212 
L 292.005158 -261.652613 
L 289.048351 -263.083282 
L 286.091545 -264.508197 
L 283.134738 -266.400756 
L 280.177932 -266.652414 
L 277.221125 -269.167174 
L 274.264319 -269.883841 
L 271.307512 -269.875012 
L 268.350706 -270.862868 
L 265.393899 -271.586664 
L 262.437092 -271.916237 
L 259.480286 -272.024424 
L 256.523479 -273.181097 
L 253.566673 -273.348298 
L 250.609866 -274.701238 
L 247.65306 -274.905102 
L 244.696253 -275.897647 
L 241.739447 -275.74382 
L 238.78264 -276.671937 
L 235.825834 -276.327964 
L 232.869027 -277.256643 
L 229.912221 -278.303282 
L 226.955414 -279.429571 
L 223.998608 -280.221802 
L 221.041801 -280.158827 
L 218.084995 -280.782616 
L 215.128188 -280.705396 
L 212.171382 -280.578627 
L 209.214575 -280.909834 
L 206.257768 -281.362165 
L 203.300962 -282.694665 
L 200.344155 -282.931249 
L 197.387349 -283.096876 
L 194.430542 -283.729951 
L 191.473736 -284.157949 
L 188.516929 -285.383151 
L 185.560123 -286.797133 
L 182.603316 -288.208718 
L 179.64651 -289.635277 
L 176.689703 -290.9598 
L 173.732897 -291.427386 
L 170.77609 -292.67191 
L 167.819284 -293.242265 
L 164.862477 -293.709441 
L 161.905671 -294.560193 
L 158.948864 -295.028054 
L 155.992058 -295.550299 
L 153.035251 -296.708604 
L 150.078445 -297.019013 
L 147.121638 -298.241633 
L 144.164831 -297.746762 
L 141.208025 -298.708798 
L 138.251218 -301.530927 
L 135.294412 -302.243123 
L 132.337605 -303.195458 
L 129.380799 -305.46182 
L 126.423992 -306.016904 
L 123.467186 -306.050924 
L 120.510379 -307.663783 
L 117.553573 -307.497636 
L 114.596766 -308.984495 
L 111.63996 -309.754571 
L 108.683153 -310.191072 
L 105.726347 -311.306219 
L 102.76954 -311.552328 
L 99.812734 -312.092618 
L 96.855927 -311.860653 
L 93.899121 -312.691023 
L 90.942314 -313.401728 
L 87.985508 -314.065712 
L 85.028701 -314.758081 
L 82.071894 -309.547335 
L 79.115088 -310.496254 
L 76.158281 -310.417277 
L 73.201475 -308.652749 
L 70.244668 -301.179039 
L 67.287862 -301.179039 
L 64.331055 -301.179039 
L 61.374249 -301.179039 
L 58.417442 -301.179039 
z
" style="stroke: #ffffff; stroke-opacity: 0.2"/>
    </defs>
    <g clip-path="url(#p5f4aad66ff)">
     <use xlink:href="#maea2ce6aa1" x="0" y="351.034375" style="fill: #1f77b4; fill-opacity: 0.2; stroke: #ffffff; stroke-opacity: 0.2"/>
    </g>
   </g>
   <g id="FillBetweenPolyCollection_2">
    <defs>
     <path id="mf89aaf5208" d="M 58.417442 -301.179039 
L 58.417442 -301.179039 
L 61.374249 -301.179039 
L 64.331055 -301.179039 
L 67.287862 -301.179039 
L 70.244668 -301.179039 
L 73.201475 -292.044505 
L 76.158281 -288.8805 
L 79.115088 -282.872194 
L 82.071894 -284.592251 
L 85.028701 -280.682143 
L 87.985508 -281.070705 
L 90.942314 -280.238315 
L 93.899121 -277.428772 
L 96.855927 -274.086711 
L 99.812734 -272.327296 
L 102.76954 -271.203854 
L 105.726347 -270.5757 
L 108.683153 -270.622096 
L 111.63996 -268.449261 
L 114.596766 -267.555952 
L 117.553573 -266.658835 
L 120.510379 -264.971006 
L 123.467186 -261.37693 
L 126.423992 -260.918491 
L 129.380799 -261.140464 
L 132.337605 -260.627658 
L 135.294412 -259.778659 
L 138.251218 -258.285776 
L 141.208025 -255.894043 
L 144.164831 -255.025793 
L 147.121638 -253.440873 
L 150.078445 -250.694791 
L 153.035251 -251.343023 
L 155.992058 -249.680609 
L 158.948864 -249.969933 
L 161.905671 -249.630692 
L 164.862477 -248.638281 
L 167.819284 -248.894792 
L 170.77609 -249.248491 
L 173.732897 -248.888165 
L 176.689703 -248.216436 
L 179.64651 -247.861899 
L 182.603316 -247.985803 
L 185.560123 -247.811559 
L 188.516929 -246.474952 
L 191.473736 -246.247883 
L 194.430542 -246.264284 
L 197.387349 -245.913558 
L 200.344155 -246.529213 
L 203.300962 -244.851546 
L 206.257768 -243.35671 
L 209.214575 -242.308009 
L 212.171382 -241.768099 
L 215.128188 -241.080919 
L 218.084995 -241.201946 
L 221.041801 -240.994875 
L 223.998608 -241.23997 
L 226.955414 -241.225733 
L 229.912221 -240.797239 
L 232.869027 -240.11909 
L 235.825834 -238.201385 
L 238.78264 -238.397435 
L 241.739447 -237.796568 
L 244.696253 -237.614509 
L 247.65306 -237.635312 
L 250.609866 -237.674553 
L 253.566673 -236.101154 
L 256.523479 -236.20545 
L 259.480286 -235.705239 
L 262.437092 -233.497996 
L 265.393899 -232.112746 
L 268.350706 -231.776182 
L 271.307512 -231.590183 
L 274.264319 -230.96933 
L 277.221125 -230.90486 
L 280.177932 -229.227762 
L 283.134738 -228.663551 
L 286.091545 -225.32627 
L 289.048351 -221.503615 
L 292.005158 -221.144581 
L 294.961964 -219.887459 
L 297.918771 -218.119603 
L 300.875577 -216.894497 
L 303.832384 -212.830784 
L 306.78919 -210.287512 
L 309.745997 -208.06953 
L 312.702803 -205.233236 
L 315.65961 -201.357488 
L 318.616416 -198.631604 
L 321.573223 -197.434852 
L 324.530029 -194.592256 
L 327.486836 -191.760309 
L 330.443643 -189.398537 
L 333.400449 -188.477244 
L 336.357256 -183.646048 
L 339.314062 -181.30265 
L 342.270869 -180.36087 
L 345.227675 -173.845847 
L 348.184482 -174.667311 
L 351.141288 -162.904069 
L 351.141288 -189.003168 
L 351.141288 -189.003168 
L 348.184482 -206.016348 
L 345.227675 -205.84782 
L 342.270869 -218.852583 
L 339.314062 -217.997425 
L 336.357256 -224.113255 
L 333.400449 -226.780831 
L 330.443643 -230.148363 
L 327.486836 -234.200078 
L 324.530029 -237.683213 
L 321.573223 -241.39151 
L 318.616416 -242.643113 
L 315.65961 -245.423239 
L 312.702803 -248.213066 
L 309.745997 -249.411934 
L 306.78919 -251.557861 
L 303.832384 -254.240872 
L 300.875577 -254.860071 
L 297.918771 -257.277198 
L 294.961964 -258.459869 
L 292.005158 -260.455496 
L 289.048351 -261.645804 
L 286.091545 -262.405009 
L 283.134738 -264.746206 
L 280.177932 -264.486397 
L 277.221125 -266.039233 
L 274.264319 -266.420709 
L 271.307512 -267.402226 
L 268.350706 -267.975788 
L 265.393899 -268.776468 
L 262.437092 -269.243168 
L 259.480286 -270.763262 
L 256.523479 -272.125841 
L 253.566673 -271.980093 
L 250.609866 -273.146384 
L 247.65306 -272.985082 
L 244.696253 -273.469369 
L 241.739447 -273.596068 
L 238.78264 -274.933955 
L 235.825834 -275.655848 
L 232.869027 -277.378196 
L 229.912221 -277.714955 
L 226.955414 -277.85422 
L 223.998608 -278.442438 
L 221.041801 -278.160307 
L 218.084995 -278.471246 
L 215.128188 -278.775436 
L 212.171382 -279.7205 
L 209.214575 -280.256219 
L 206.257768 -280.77061 
L 203.300962 -281.021674 
L 200.344155 -281.232699 
L 197.387349 -281.740057 
L 194.430542 -281.334562 
L 191.473736 -281.102803 
L 188.516929 -282.321312 
L 185.560123 -283.483458 
L 182.603316 -283.598629 
L 179.64651 -285.08523 
L 176.689703 -285.264019 
L 173.732897 -286.75784 
L 170.77609 -288.004069 
L 167.819284 -289.375259 
L 164.862477 -290.50448 
L 161.905671 -291.635008 
L 158.948864 -292.348117 
L 155.992058 -292.090564 
L 153.035251 -294.102432 
L 150.078445 -294.551885 
L 147.121638 -295.823936 
L 144.164831 -297.370587 
L 141.208025 -299.482761 
L 138.251218 -301.617277 
L 135.294412 -303.285118 
L 132.337605 -303.759884 
L 129.380799 -304.605848 
L 126.423992 -305.222828 
L 123.467186 -306.193049 
L 120.510379 -306.881152 
L 117.553573 -307.480835 
L 114.596766 -308.528749 
L 111.63996 -309.134867 
L 108.683153 -310.321986 
L 105.726347 -311.031869 
L 102.76954 -311.908112 
L 99.812734 -311.258288 
L 96.855927 -311.049739 
L 93.899121 -312.476375 
L 90.942314 -312.26586 
L 87.985508 -312.781399 
L 85.028701 -313.532355 
L 82.071894 -311.638481 
L 79.115088 -312.718657 
L 76.158281 -310.417277 
L 73.201475 -308.652749 
L 70.244668 -301.179039 
L 67.287862 -301.179039 
L 64.331055 -301.179039 
L 61.374249 -301.179039 
L 58.417442 -301.179039 
z
" style="stroke: #ffffff; stroke-opacity: 0.2"/>
    </defs>
    <g clip-path="url(#p5f4aad66ff)">
     <use xlink:href="#mf89aaf5208" x="0" y="351.034375" style="fill: #ff7f0e; fill-opacity: 0.2; stroke: #ffffff; stroke-opacity: 0.2"/>
    </g>
   </g>
   <g id="FillBetweenPolyCollection_3">
    <defs>
     <path id="m8f3621d55e" d="M 58.417442 -301.179039 
L 58.417442 -301.179039 
L 61.374249 -301.179039 
L 64.331055 -301.179039 
L 67.287862 -287.54679 
L 70.244668 -289.123309 
L 73.201475 -287.21169 
L 76.158281 -279.850328 
L 79.115088 -280.126106 
L 82.071894 -277.644961 
L 85.028701 -275.87426 
L 87.985508 -276.739438 
L 90.942314 -271.940465 
L 93.899121 -273.185416 
L 96.855927 -273.212367 
L 99.812734 -270.521948 
L 102.76954 -268.965541 
L 105.726347 -268.044251 
L 108.683153 -267.984165 
L 111.63996 -264.752197 
L 114.596766 -265.317801 
L 117.553573 -265.775444 
L 120.510379 -264.380717 
L 123.467186 -262.870722 
L 126.423992 -260.848509 
L 129.380799 -259.609671 
L 132.337605 -256.774596 
L 135.294412 -257.443817 
L 138.251218 -255.541582 
L 141.208025 -253.03975 
L 144.164831 -252.03289 
L 147.121638 -250.412113 
L 150.078445 -248.28491 
L 153.035251 -248.307006 
L 155.992058 -244.673409 
L 158.948864 -244.759464 
L 161.905671 -243.765814 
L 164.862477 -243.271542 
L 167.819284 -243.301698 
L 170.77609 -242.88291 
L 173.732897 -242.585557 
L 176.689703 -242.988633 
L 179.64651 -243.223987 
L 182.603316 -243.482665 
L 185.560123 -243.615479 
L 188.516929 -242.967949 
L 191.473736 -243.238238 
L 194.430542 -242.73843 
L 197.387349 -242.511397 
L 200.344155 -242.318127 
L 203.300962 -242.084819 
L 206.257768 -241.038839 
L 209.214575 -239.52158 
L 212.171382 -238.78074 
L 215.128188 -238.323721 
L 218.084995 -238.329512 
L 221.041801 -237.815412 
L 223.998608 -236.791518 
L 226.955414 -236.105425 
L 229.912221 -235.979421 
L 232.869027 -235.853366 
L 235.825834 -235.404293 
L 238.78264 -235.273123 
L 241.739447 -234.048878 
L 244.696253 -233.278069 
L 247.65306 -232.829343 
L 250.609866 -232.501251 
L 253.566673 -230.907025 
L 256.523479 -231.400172 
L 259.480286 -231.475054 
L 262.437092 -230.305173 
L 265.393899 -229.201086 
L 268.350706 -228.443947 
L 271.307512 -227.22228 
L 274.264319 -226.669108 
L 277.221125 -226.124636 
L 280.177932 -224.272329 
L 283.134738 -223.958925 
L 286.091545 -223.059166 
L 289.048351 -221.644384 
L 292.005158 -219.320517 
L 294.961964 -218.035041 
L 297.918771 -215.78442 
L 300.875577 -214.803439 
L 303.832384 -210.527891 
L 306.78919 -207.794184 
L 309.745997 -206.051678 
L 312.702803 -203.48488 
L 315.65961 -199.331502 
L 318.616416 -198.042843 
L 321.573223 -197.313531 
L 324.530029 -193.910583 
L 327.486836 -190.770959 
L 330.443643 -188.704961 
L 333.400449 -188.193282 
L 336.357256 -183.210677 
L 339.314062 -180.762293 
L 342.270869 -179.76759 
L 345.227675 -173.956289 
L 348.184482 -174.597176 
L 351.141288 -162.904069 
L 351.141288 -189.003168 
L 351.141288 -189.003168 
L 348.184482 -206.671445 
L 345.227675 -206.069602 
L 342.270869 -218.95593 
L 339.314062 -218.322918 
L 336.357256 -225.930654 
L 333.400449 -227.891787 
L 330.443643 -229.636461 
L 327.486836 -233.846432 
L 324.530029 -236.910723 
L 321.573223 -239.108895 
L 318.616416 -240.612468 
L 315.65961 -243.128427 
L 312.702803 -246.203364 
L 309.745997 -247.041254 
L 306.78919 -249.3748 
L 303.832384 -252.207385 
L 300.875577 -253.779601 
L 297.918771 -256.030237 
L 294.961964 -256.57239 
L 292.005158 -257.511464 
L 289.048351 -258.465632 
L 286.091545 -259.292406 
L 283.134738 -261.016491 
L 280.177932 -261.160008 
L 277.221125 -262.934054 
L 274.264319 -263.770393 
L 271.307512 -263.949127 
L 268.350706 -263.943822 
L 265.393899 -265.060331 
L 262.437092 -265.143544 
L 259.480286 -265.882833 
L 256.523479 -266.407061 
L 253.566673 -266.558199 
L 250.609866 -268.678562 
L 247.65306 -268.531713 
L 244.696253 -269.812827 
L 241.739447 -269.443898 
L 238.78264 -271.363052 
L 235.825834 -271.549047 
L 232.869027 -272.313183 
L 229.912221 -272.262993 
L 226.955414 -272.818112 
L 223.998608 -272.965289 
L 221.041801 -273.066984 
L 218.084995 -273.41897 
L 215.128188 -273.469307 
L 212.171382 -273.867376 
L 209.214575 -273.614298 
L 206.257768 -273.861627 
L 203.300962 -274.529846 
L 200.344155 -276.415369 
L 197.387349 -278.045003 
L 194.430542 -280.353627 
L 191.473736 -280.664489 
L 188.516929 -281.143547 
L 185.560123 -282.553722 
L 182.603316 -283.607863 
L 179.64651 -285.618571 
L 176.689703 -285.489068 
L 173.732897 -286.631356 
L 170.77609 -288.220355 
L 167.819284 -288.3496 
L 164.862477 -288.572702 
L 161.905671 -289.166065 
L 158.948864 -289.535078 
L 155.992058 -289.072421 
L 153.035251 -292.647088 
L 150.078445 -292.623196 
L 147.121638 -293.881319 
L 144.164831 -294.635923 
L 141.208025 -297.367757 
L 138.251218 -297.429964 
L 135.294412 -299.657639 
L 132.337605 -299.477859 
L 129.380799 -301.348723 
L 126.423992 -301.999844 
L 123.467186 -303.848084 
L 120.510379 -306.358269 
L 117.553573 -305.643961 
L 114.596766 -306.385828 
L 111.63996 -307.147266 
L 108.683153 -309.478028 
L 105.726347 -310.892751 
L 102.76954 -310.931062 
L 99.812734 -311.210112 
L 96.855927 -311.517969 
L 93.899121 -311.847458 
L 90.942314 -312.732784 
L 87.985508 -313.286628 
L 85.028701 -314.198535 
L 82.071894 -314.297978 
L 79.115088 -314.634333 
L 76.158281 -315.481705 
L 73.201475 -311.685635 
L 70.244668 -311.042818 
L 67.287862 -312.332697 
L 64.331055 -301.179039 
L 61.374249 -301.179039 
L 58.417442 -301.179039 
z
" style="stroke: #ffffff; stroke-opacity: 0.2"/>
    </defs>
    <g clip-path="url(#p5f4aad66ff)">
     <use xlink:href="#m8f3621d55e" x="0" y="351.034375" style="fill: #2ca02c; fill-opacity: 0.2; stroke: #ffffff; stroke-opacity: 0.2"/>
    </g>
   </g>
   <g id="FillBetweenPolyCollection_4">
    <defs>
     <path id="m6e3f189af8" d="M 58.417442 -301.179039 
L 58.417442 -301.179039 
L 61.374249 -301.179039 
L 64.331055 -301.179039 
L 67.287862 -301.179039 
L 70.244668 -301.179039 
L 73.201475 -292.624108 
L 76.158281 -289.580842 
L 79.115088 -287.751272 
L 82.071894 -283.11651 
L 85.028701 -278.764559 
L 87.985508 -279.525389 
L 90.942314 -275.472028 
L 93.899121 -276.096729 
L 96.855927 -273.910999 
L 99.812734 -272.870539 
L 102.76954 -271.157173 
L 105.726347 -267.950138 
L 108.683153 -267.654039 
L 111.63996 -267.277457 
L 114.596766 -261.41964 
L 117.553573 -258.861925 
L 120.510379 -256.22821 
L 123.467186 -254.656769 
L 126.423992 -252.868584 
L 129.380799 -252.521244 
L 132.337605 -250.444264 
L 135.294412 -250.531352 
L 138.251218 -248.059551 
L 141.208025 -246.561761 
L 144.164831 -246.647369 
L 147.121638 -244.606971 
L 150.078445 -244.545567 
L 153.035251 -244.372134 
L 155.992058 -242.595433 
L 158.948864 -242.216041 
L 161.905671 -241.384393 
L 164.862477 -239.860206 
L 167.819284 -240.247101 
L 170.77609 -240.092317 
L 173.732897 -239.961669 
L 176.689703 -239.737081 
L 179.64651 -239.0724 
L 182.603316 -238.761647 
L 185.560123 -238.278761 
L 188.516929 -236.509515 
L 191.473736 -235.76701 
L 194.430542 -235.878794 
L 197.387349 -235.316038 
L 200.344155 -235.699527 
L 203.300962 -235.283347 
L 206.257768 -234.6889 
L 209.214575 -234.349869 
L 212.171382 -234.756501 
L 215.128188 -233.891889 
L 218.084995 -233.281841 
L 221.041801 -233.394974 
L 223.998608 -233.626795 
L 226.955414 -233.182481 
L 229.912221 -233.033686 
L 232.869027 -231.608241 
L 235.825834 -230.299421 
L 238.78264 -229.802728 
L 241.739447 -228.275384 
L 244.696253 -227.055743 
L 247.65306 -226.516183 
L 250.609866 -226.030733 
L 253.566673 -225.989481 
L 256.523479 -225.940856 
L 259.480286 -225.845975 
L 262.437092 -224.987072 
L 265.393899 -224.70182 
L 268.350706 -223.550709 
L 271.307512 -221.448695 
L 274.264319 -221.020671 
L 277.221125 -220.453252 
L 280.177932 -219.934448 
L 283.134738 -219.834232 
L 286.091545 -217.484153 
L 289.048351 -215.107234 
L 292.005158 -213.905034 
L 294.961964 -211.985106 
L 297.918771 -210.980924 
L 300.875577 -210.535909 
L 303.832384 -207.164454 
L 306.78919 -204.045232 
L 309.745997 -202.711584 
L 312.702803 -200.831801 
L 315.65961 -197.646525 
L 318.616416 -194.87749 
L 321.573223 -193.262908 
L 324.530029 -190.846309 
L 327.486836 -188.341868 
L 330.443643 -185.910066 
L 333.400449 -184.410592 
L 336.357256 -181.069858 
L 339.314062 -180.061086 
L 342.270869 -179.311728 
L 345.227675 -173.671503 
L 348.184482 -174.31266 
L 351.141288 -162.904069 
L 351.141288 -189.003168 
L 351.141288 -189.003168 
L 348.184482 -205.564337 
L 345.227675 -204.960106 
L 342.270869 -217.333223 
L 339.314062 -216.886192 
L 336.357256 -224.296294 
L 333.400449 -225.503147 
L 330.443643 -227.586508 
L 327.486836 -231.053793 
L 324.530029 -233.150578 
L 321.573223 -236.116977 
L 318.616416 -237.344965 
L 315.65961 -240.054378 
L 312.702803 -242.242866 
L 309.745997 -243.567459 
L 306.78919 -244.877465 
L 303.832384 -246.558852 
L 300.875577 -247.953042 
L 297.918771 -249.891387 
L 294.961964 -251.958788 
L 292.005158 -254.837819 
L 289.048351 -255.213958 
L 286.091545 -256.023457 
L 283.134738 -257.149423 
L 280.177932 -257.435309 
L 277.221125 -258.191628 
L 274.264319 -259.001027 
L 271.307512 -259.512941 
L 268.350706 -260.649197 
L 265.393899 -262.441334 
L 262.437092 -262.395755 
L 259.480286 -262.899651 
L 256.523479 -263.152085 
L 253.566673 -263.563323 
L 250.609866 -265.012174 
L 247.65306 -265.67644 
L 244.696253 -266.530894 
L 241.739447 -267.525813 
L 238.78264 -268.281891 
L 235.825834 -269.519454 
L 232.869027 -269.158062 
L 229.912221 -269.160318 
L 226.955414 -269.870849 
L 223.998608 -269.892006 
L 221.041801 -269.740685 
L 218.084995 -271.195748 
L 215.128188 -271.950646 
L 212.171382 -271.82883 
L 209.214575 -271.655776 
L 206.257768 -273.237295 
L 203.300962 -273.765044 
L 200.344155 -274.667894 
L 197.387349 -275.231277 
L 194.430542 -276.734113 
L 191.473736 -277.120188 
L 188.516929 -278.510519 
L 185.560123 -280.069188 
L 182.603316 -280.350411 
L 179.64651 -280.545421 
L 176.689703 -281.593398 
L 173.732897 -282.742885 
L 170.77609 -284.10923 
L 167.819284 -285.712474 
L 164.862477 -285.85513 
L 161.905671 -287.390647 
L 158.948864 -287.557125 
L 155.992058 -287.523844 
L 153.035251 -290.626218 
L 150.078445 -291.022209 
L 147.121638 -292.372884 
L 144.164831 -293.440914 
L 141.208025 -295.438104 
L 138.251218 -295.628786 
L 135.294412 -297.778108 
L 132.337605 -298.445655 
L 129.380799 -301.271551 
L 126.423992 -302.876552 
L 123.467186 -303.445684 
L 120.510379 -304.372795 
L 117.553573 -306.917399 
L 114.596766 -308.708896 
L 111.63996 -307.978155 
L 108.683153 -308.366143 
L 105.726347 -310.053679 
L 102.76954 -309.923926 
L 99.812734 -310.418409 
L 96.855927 -311.573754 
L 93.899121 -312.265984 
L 90.942314 -312.983541 
L 87.985508 -312.163188 
L 85.028701 -313.015429 
L 82.071894 -312.615132 
L 79.115088 -311.311292 
L 76.158281 -309.893977 
L 73.201475 -308.178529 
L 70.244668 -301.179039 
L 67.287862 -301.179039 
L 64.331055 -301.179039 
L 61.374249 -301.179039 
L 58.417442 -301.179039 
z
" style="stroke: #ffffff; stroke-opacity: 0.2"/>
    </defs>
    <g clip-path="url(#p5f4aad66ff)">
     <use xlink:href="#m6e3f189af8" x="0" y="351.034375" style="fill: #d62728; fill-opacity: 0.2; stroke: #ffffff; stroke-opacity: 0.2"/>
    </g>
   </g>
   <g id="FillBetweenPolyCollection_5">
    <defs>
     <path id="med31d6ed63" d="M 58.417442 -301.179039 
L 58.417442 -301.179039 
L 61.374249 -301.179039 
L 64.331055 -301.179039 
L 67.287862 -301.179039 
L 70.244668 -301.179039 
L 73.201475 -292.160426 
L 76.158281 -293.110974 
L 79.115088 -288.780558 
L 82.071894 -285.584613 
L 85.028701 -283.629159 
L 87.985508 -279.348908 
L 90.942314 -275.617715 
L 93.899121 -274.256746 
L 96.855927 -269.105819 
L 99.812734 -267.896056 
L 102.76954 -267.394928 
L 105.726347 -266.517636 
L 108.683153 -262.000048 
L 111.63996 -259.242465 
L 114.596766 -259.363844 
L 117.553573 -256.939192 
L 120.510379 -255.360447 
L 123.467186 -252.423017 
L 126.423992 -250.010012 
L 129.380799 -248.548541 
L 132.337605 -246.263146 
L 135.294412 -245.00302 
L 138.251218 -243.646491 
L 141.208025 -242.776052 
L 144.164831 -241.018905 
L 147.121638 -240.232126 
L 150.078445 -240.417731 
L 153.035251 -240.661228 
L 155.992058 -238.987268 
L 158.948864 -239.866949 
L 161.905671 -238.803651 
L 164.862477 -237.735974 
L 167.819284 -238.196425 
L 170.77609 -238.687136 
L 173.732897 -237.935388 
L 176.689703 -237.558072 
L 179.64651 -236.657949 
L 182.603316 -236.628915 
L 185.560123 -236.402033 
L 188.516929 -236.139579 
L 191.473736 -237.011248 
L 194.430542 -235.277408 
L 197.387349 -234.259623 
L 200.344155 -233.999766 
L 203.300962 -232.125548 
L 206.257768 -230.356262 
L 209.214575 -230.219996 
L 212.171382 -230.252741 
L 215.128188 -229.295931 
L 218.084995 -229.113056 
L 221.041801 -228.53906 
L 223.998608 -227.545334 
L 226.955414 -226.859254 
L 229.912221 -225.898382 
L 232.869027 -224.54041 
L 235.825834 -223.824093 
L 238.78264 -223.851665 
L 241.739447 -222.564411 
L 244.696253 -221.89704 
L 247.65306 -221.486472 
L 250.609866 -221.306953 
L 253.566673 -220.444668 
L 256.523479 -220.544459 
L 259.480286 -220.786535 
L 262.437092 -220.474196 
L 265.393899 -219.627251 
L 268.350706 -219.012779 
L 271.307512 -216.976697 
L 274.264319 -216.325064 
L 277.221125 -215.099237 
L 280.177932 -213.676479 
L 283.134738 -213.942134 
L 286.091545 -212.889452 
L 289.048351 -212.389265 
L 292.005158 -211.10947 
L 294.961964 -209.129418 
L 297.918771 -207.541446 
L 300.875577 -207.371886 
L 303.832384 -204.300611 
L 306.78919 -201.765276 
L 309.745997 -200.860599 
L 312.702803 -199.516993 
L 315.65961 -196.810235 
L 318.616416 -194.692818 
L 321.573223 -192.895532 
L 324.530029 -188.367172 
L 327.486836 -186.340408 
L 330.443643 -183.402318 
L 333.400449 -182.771677 
L 336.357256 -180.186739 
L 339.314062 -178.564133 
L 342.270869 -178.455974 
L 345.227675 -173.666408 
L 348.184482 -174.30876 
L 351.141288 -162.904069 
L 351.141288 -189.003168 
L 351.141288 -189.003168 
L 348.184482 -203.961762 
L 345.227675 -203.354989 
L 342.270869 -216.483549 
L 339.314062 -215.861065 
L 336.357256 -220.11183 
L 333.400449 -221.618104 
L 330.443643 -223.963316 
L 327.486836 -227.726029 
L 324.530029 -230.271174 
L 321.573223 -233.739586 
L 318.616416 -234.812571 
L 315.65961 -237.813542 
L 312.702803 -241.020783 
L 309.745997 -241.550096 
L 306.78919 -243.344107 
L 303.832384 -245.786942 
L 300.875577 -246.981841 
L 297.918771 -248.344957 
L 294.961964 -249.015495 
L 292.005158 -249.806654 
L 289.048351 -250.05934 
L 286.091545 -251.13278 
L 283.134738 -252.864584 
L 280.177932 -253.246957 
L 277.221125 -255.408872 
L 274.264319 -256.059003 
L 271.307512 -256.366621 
L 268.350706 -256.923868 
L 265.393899 -258.239081 
L 262.437092 -258.466524 
L 259.480286 -259.657938 
L 256.523479 -260.08162 
L 253.566673 -260.638852 
L 250.609866 -261.920537 
L 247.65306 -262.041688 
L 244.696253 -263.027278 
L 241.739447 -263.578728 
L 238.78264 -264.826635 
L 235.825834 -265.550887 
L 232.869027 -266.721464 
L 229.912221 -267.772624 
L 226.955414 -268.753568 
L 223.998608 -268.59916 
L 221.041801 -268.414082 
L 218.084995 -269.677606 
L 215.128188 -269.796453 
L 212.171382 -270.731914 
L 209.214575 -270.958574 
L 206.257768 -271.675756 
L 203.300962 -273.377966 
L 200.344155 -273.551138 
L 197.387349 -274.549094 
L 194.430542 -275.644225 
L 191.473736 -276.409781 
L 188.516929 -276.52508 
L 185.560123 -277.846682 
L 182.603316 -278.88643 
L 179.64651 -279.825573 
L 176.689703 -280.32095 
L 173.732897 -282.518633 
L 170.77609 -283.678018 
L 167.819284 -283.836686 
L 164.862477 -285.480785 
L 161.905671 -286.187737 
L 158.948864 -285.959169 
L 155.992058 -286.419063 
L 153.035251 -289.680302 
L 150.078445 -289.998333 
L 147.121638 -292.665545 
L 144.164831 -294.440472 
L 141.208025 -295.149333 
L 138.251218 -296.170261 
L 135.294412 -297.181115 
L 132.337605 -297.039742 
L 129.380799 -297.146599 
L 126.423992 -298.193735 
L 123.467186 -300.673509 
L 120.510379 -303.016641 
L 117.553573 -304.309436 
L 114.596766 -305.133662 
L 111.63996 -305.584311 
L 108.683153 -306.450177 
L 105.726347 -309.364606 
L 102.76954 -310.663206 
L 99.812734 -311.268893 
L 96.855927 -312.453054 
L 93.899121 -312.2846 
L 90.942314 -312.408617 
L 87.985508 -312.307391 
L 85.028701 -311.22486 
L 82.071894 -310.986715 
L 79.115088 -309.888298 
L 76.158281 -307.780184 
L 73.201475 -308.557905 
L 70.244668 -301.179039 
L 67.287862 -301.179039 
L 64.331055 -301.179039 
L 61.374249 -301.179039 
L 58.417442 -301.179039 
z
" style="stroke: #ffffff; stroke-opacity: 0.2"/>
    </defs>
    <g clip-path="url(#p5f4aad66ff)">
     <use xlink:href="#med31d6ed63" x="0" y="351.034375" style="fill: #9467bd; fill-opacity: 0.2; stroke: #ffffff; stroke-opacity: 0.2"/>
    </g>
   </g>
   <g id="line2d_13">
    <path d="M 58.417442 49.855336 
L 61.374249 49.855336 
L 64.331055 49.855336 
L 67.287862 49.855336 
L 70.244668 49.855336 
L 73.201475 50.685748 
L 76.158281 51.385486 
L 79.115088 51.826406 
L 82.071894 51.626601 
L 85.028701 53.534742 
L 87.985508 53.774472 
L 90.942314 54.410017 
L 93.899121 54.525095 
L 96.855927 56.202359 
L 99.812734 57.917079 
L 102.76954 58.443087 
L 105.726347 58.829488 
L 108.683153 60.428167 
L 111.63996 62.066287 
L 114.596766 62.411911 
L 117.553573 64.076851 
L 120.510379 64.919299 
L 123.467186 65.741721 
L 126.423992 66.316751 
L 129.380799 66.641624 
L 132.337605 68.795521 
L 135.294412 69.304379 
L 138.251218 71.521197 
L 141.208025 73.306496 
L 144.164831 73.615627 
L 147.121638 73.204854 
L 150.078445 74.703116 
L 153.035251 74.649138 
L 155.992058 76.508821 
L 158.948864 76.503061 
L 161.905671 77.188446 
L 164.862477 77.524893 
L 167.819284 77.587067 
L 170.77609 77.733686 
L 173.732897 78.996509 
L 176.689703 79.499853 
L 179.64651 80.134248 
L 182.603316 81.595963 
L 185.560123 83.10556 
L 188.516929 84.245048 
L 191.473736 84.946378 
L 194.430542 85.091753 
L 197.387349 85.45412 
L 200.344155 85.383855 
L 203.300962 85.412689 
L 206.257768 86.616194 
L 209.214575 87.204043 
L 212.171382 86.994679 
L 215.128188 87.537329 
L 218.084995 88.014266 
L 221.041801 88.400926 
L 223.998608 88.501706 
L 226.955414 89.703586 
L 229.912221 90.78138 
L 232.869027 91.615604 
L 235.825834 92.141014 
L 238.78264 92.057838 
L 241.739447 92.722844 
L 244.696253 92.911749 
L 247.65306 93.504381 
L 250.609866 94.064712 
L 253.566673 95.348898 
L 256.523479 95.487681 
L 259.480286 96.147184 
L 262.437092 96.834637 
L 265.393899 97.401313 
L 268.350706 98.225353 
L 271.307512 99.309974 
L 274.264319 99.844832 
L 277.221125 100.336264 
L 280.177932 102.572599 
L 283.134738 102.925981 
L 286.091545 104.926426 
L 289.048351 106.891713 
L 292.005158 107.981634 
L 294.961964 110.098853 
L 297.918771 111.422013 
L 300.875577 113.112665 
L 303.832384 115.685552 
L 306.78919 119.902418 
L 309.745997 122.045985 
L 312.702803 124.23206 
L 315.65961 127.178077 
L 318.616416 129.387239 
L 321.573223 131.120549 
L 324.530029 134.128613 
L 327.486836 137.932862 
L 330.443643 142.111265 
L 333.400449 143.615809 
L 336.357256 147.447291 
L 339.314062 151.537521 
L 342.270869 151.538225 
L 345.227675 160.715049 
L 348.184482 160.093556 
L 351.141288 175.080756 
" clip-path="url(#p5f4aad66ff)" style="fill: none; stroke: #1f77b4; stroke-width: 1.5; stroke-linecap: round"/>
   </g>
   <g id="line2d_14">
    <path d="M 58.417442 49.855336 
L 61.374249 49.855336 
L 64.331055 49.855336 
L 67.287862 49.855336 
L 70.244668 49.855336 
L 73.201475 50.685748 
L 76.158281 51.385486 
L 79.115088 53.238949 
L 82.071894 52.919009 
L 85.028701 53.927126 
L 87.985508 54.108323 
L 90.942314 54.782288 
L 93.899121 56.081801 
L 96.855927 58.46615 
L 99.812734 59.241583 
L 102.76954 59.478392 
L 105.726347 60.23059 
L 108.683153 60.562334 
L 111.63996 62.242311 
L 114.596766 62.992024 
L 117.553573 63.96454 
L 120.510379 65.108296 
L 123.467186 67.249385 
L 126.423992 67.963715 
L 129.380799 68.161219 
L 132.337605 68.840604 
L 135.294412 69.502487 
L 138.251218 71.082849 
L 141.208025 73.345973 
L 144.164831 74.836185 
L 147.121638 76.401971 
L 150.078445 78.411037 
L 153.035251 78.311647 
L 155.992058 80.148788 
L 158.948864 79.87535 
L 161.905671 80.401525 
L 164.862477 81.462995 
L 167.819284 81.89935 
L 170.77609 82.408095 
L 173.732897 83.211372 
L 176.689703 84.294147 
L 179.64651 84.56081 
L 182.603316 85.242159 
L 185.560123 85.386867 
L 188.516929 86.636243 
L 191.473736 87.359032 
L 194.430542 87.234952 
L 197.387349 87.207568 
L 200.344155 87.153419 
L 203.300962 88.097765 
L 206.257768 88.970715 
L 209.214575 89.752261 
L 212.171382 90.290076 
L 215.128188 91.106198 
L 218.084995 91.197779 
L 221.041801 91.456784 
L 223.998608 91.193171 
L 226.955414 91.494399 
L 229.912221 91.778278 
L 232.869027 92.285732 
L 235.825834 94.105758 
L 238.78264 94.36868 
L 241.739447 95.338057 
L 244.696253 95.492436 
L 247.65306 95.724178 
L 250.609866 95.623906 
L 253.566673 96.993752 
L 256.523479 96.868729 
L 259.480286 97.800125 
L 262.437092 99.663793 
L 265.393899 100.589768 
L 268.350706 101.15839 
L 271.307512 101.538171 
L 274.264319 102.339355 
L 277.221125 102.562329 
L 280.177932 104.177295 
L 283.134738 104.329497 
L 286.091545 107.168736 
L 289.048351 109.459666 
L 292.005158 110.234336 
L 294.961964 111.860711 
L 297.918771 113.335974 
L 300.875577 115.157091 
L 303.832384 117.498547 
L 306.78919 120.111689 
L 309.745997 122.293643 
L 312.702803 124.311224 
L 315.65961 127.644012 
L 318.616416 130.397017 
L 321.573223 131.621194 
L 324.530029 134.89664 
L 327.486836 138.054181 
L 330.443643 141.260925 
L 333.400449 143.405337 
L 336.357256 147.154723 
L 339.314062 151.384338 
L 342.270869 151.427649 
L 345.227675 161.187542 
L 348.184482 160.692545 
L 351.141288 175.080756 
" clip-path="url(#p5f4aad66ff)" style="fill: none; stroke: #ff7f0e; stroke-width: 1.5; stroke-linecap: round"/>
   </g>
   <g id="line2d_15">
    <path d="M 58.417442 49.855336 
L 61.374249 49.855336 
L 64.331055 49.855336 
L 67.287862 51.094631 
L 70.244668 50.951311 
L 73.201475 51.585712 
L 76.158281 53.368359 
L 79.115088 53.654155 
L 82.071894 55.062905 
L 85.028701 55.997977 
L 87.985508 56.021342 
L 90.942314 58.69775 
L 93.899121 58.517938 
L 96.855927 58.669207 
L 99.812734 60.168345 
L 102.76954 61.086074 
L 105.726347 61.565874 
L 108.683153 62.303279 
L 111.63996 65.084643 
L 114.596766 65.18256 
L 117.553573 65.324672 
L 120.510379 65.664882 
L 123.467186 67.674972 
L 126.423992 69.610199 
L 129.380799 70.555178 
L 132.337605 72.908147 
L 135.294412 72.483647 
L 138.251218 74.548602 
L 141.208025 75.830621 
L 144.164831 77.699968 
L 147.121638 78.887659 
L 150.078445 80.580322 
L 153.035251 80.557328 
L 155.992058 84.16146 
L 158.948864 83.887104 
L 161.905671 84.568436 
L 164.862477 85.112253 
L 167.819284 85.208726 
L 170.77609 85.482743 
L 173.732897 86.425918 
L 176.689703 86.795524 
L 179.64651 86.613096 
L 182.603316 87.489111 
L 185.560123 87.949775 
L 188.516929 88.978627 
L 191.473736 89.083011 
L 194.430542 89.488346 
L 197.387349 90.756175 
L 200.344155 91.667627 
L 203.300962 92.727043 
L 206.257768 93.584142 
L 209.214575 94.466436 
L 212.171382 94.710317 
L 215.128188 95.137861 
L 218.084995 95.160134 
L 221.041801 95.593177 
L 223.998608 96.155971 
L 226.955414 96.572607 
L 229.912221 96.913168 
L 232.869027 96.951101 
L 235.825834 97.557705 
L 238.78264 97.716287 
L 241.739447 99.287987 
L 244.696253 99.488927 
L 247.65306 100.353847 
L 250.609866 100.444468 
L 253.566673 102.301763 
L 256.523479 102.130759 
L 259.480286 102.355432 
L 262.437092 103.310016 
L 265.393899 103.903667 
L 268.350706 104.840491 
L 271.307512 105.448671 
L 274.264319 105.814625 
L 277.221125 106.50503 
L 280.177932 108.318206 
L 283.134738 108.546667 
L 286.091545 109.858589 
L 289.048351 110.979367 
L 292.005158 112.618385 
L 294.961964 113.73066 
L 297.918771 115.127047 
L 300.875577 116.742855 
L 303.832384 119.666737 
L 306.78919 122.449883 
L 309.745997 124.487909 
L 312.702803 126.190253 
L 315.65961 129.80441 
L 318.616416 131.70672 
L 321.573223 132.823162 
L 324.530029 135.623722 
L 327.486836 138.72568 
L 330.443643 141.863664 
L 333.400449 142.99184 
L 336.357256 146.463709 
L 339.314062 151.491769 
L 342.270869 151.672615 
L 345.227675 161.02143 
L 348.184482 160.400064 
L 351.141288 175.080756 
" clip-path="url(#p5f4aad66ff)" style="fill: none; stroke: #2ca02c; stroke-width: 1.5; stroke-linecap: round"/>
   </g>
   <g id="line2d_16">
    <path d="M 58.417442 49.855336 
L 61.374249 49.855336 
L 64.331055 49.855336 
L 67.287862 49.855336 
L 70.244668 49.855336 
L 73.201475 50.633057 
L 76.158281 51.296965 
L 79.115088 51.503093 
L 82.071894 53.168554 
L 85.028701 55.144381 
L 87.985508 55.190087 
L 90.942314 56.80659 
L 93.899121 56.853019 
L 96.855927 58.291998 
L 99.812734 59.389901 
L 102.76954 60.493825 
L 105.726347 62.032466 
L 108.683153 63.024284 
L 111.63996 63.406569 
L 114.596766 65.970107 
L 117.553573 68.144713 
L 120.510379 70.733872 
L 123.467186 71.983149 
L 126.423992 73.161807 
L 129.380799 74.137977 
L 132.337605 76.589415 
L 135.294412 76.879645 
L 138.251218 79.190207 
L 141.208025 80.034443 
L 144.164831 80.990233 
L 147.121638 82.544447 
L 150.078445 83.250487 
L 153.035251 83.535199 
L 155.992058 85.974737 
L 158.948864 86.147792 
L 161.905671 86.646855 
L 164.862477 88.176707 
L 167.819284 88.054587 
L 170.77609 88.933601 
L 173.732897 89.682098 
L 176.689703 90.369135 
L 179.64651 91.225464 
L 182.603316 91.478346 
L 185.560123 91.8604 
L 188.516929 93.524358 
L 191.473736 94.590776 
L 194.430542 94.727921 
L 197.387349 95.760718 
L 200.344155 95.850665 
L 203.300962 96.510179 
L 206.257768 97.071277 
L 209.214575 98.031552 
L 212.171382 97.74171 
L 215.128188 98.113108 
L 218.084995 98.795581 
L 221.041801 99.466546 
L 223.998608 99.274974 
L 226.955414 99.50771 
L 229.912221 99.937373 
L 232.869027 100.651224 
L 235.825834 101.124938 
L 238.78264 101.992065 
L 241.739447 103.133776 
L 244.696253 104.241057 
L 247.65306 104.938064 
L 250.609866 105.512922 
L 253.566673 106.257973 
L 256.523479 106.487905 
L 259.480286 106.661562 
L 262.437092 107.342961 
L 265.393899 107.462798 
L 268.350706 108.934422 
L 271.307512 110.553557 
L 274.264319 111.023526 
L 277.221125 111.711935 
L 280.177932 112.349496 
L 283.134738 112.542547 
L 286.091545 114.28057 
L 289.048351 115.873779 
L 292.005158 116.662949 
L 294.961964 119.062428 
L 297.918771 120.59822 
L 300.875577 121.7899 
L 303.832384 124.172722 
L 306.78919 126.573026 
L 309.745997 127.894853 
L 312.702803 129.497042 
L 315.65961 132.183924 
L 318.616416 134.923147 
L 321.573223 136.344432 
L 324.530029 139.035932 
L 327.486836 141.336544 
L 330.443643 144.286088 
L 333.400449 146.077505 
L 336.357256 148.351299 
L 339.314062 152.560736 
L 342.270869 152.7119 
L 345.227675 161.71857 
L 348.184482 161.095876 
L 351.141288 175.080756 
" clip-path="url(#p5f4aad66ff)" style="fill: none; stroke: #d62728; stroke-width: 1.5; stroke-linecap: round"/>
   </g>
   <g id="line2d_17">
    <path d="M 58.417442 49.855336 
L 61.374249 49.855336 
L 64.331055 49.855336 
L 67.287862 49.855336 
L 70.244668 49.855336 
L 73.201475 50.67521 
L 76.158281 50.588796 
L 79.115088 51.699947 
L 82.071894 52.748711 
L 85.028701 53.607366 
L 87.985508 55.206225 
L 90.942314 57.021209 
L 93.899121 57.763702 
L 96.855927 60.254939 
L 99.812734 61.451901 
L 102.76954 62.005308 
L 105.726347 63.093254 
L 108.683153 66.809263 
L 111.63996 68.620987 
L 114.596766 68.785622 
L 117.553573 70.410061 
L 120.510379 71.845831 
L 123.467186 74.486112 
L 126.423992 76.932501 
L 129.380799 78.186805 
L 132.337605 79.382931 
L 135.294412 79.942307 
L 138.251218 81.125999 
L 141.208025 82.071683 
L 144.164831 83.304687 
L 147.121638 84.58554 
L 150.078445 85.826343 
L 153.035251 85.86361 
L 155.992058 88.331209 
L 158.948864 88.121316 
L 161.905671 88.538681 
L 164.862477 89.425995 
L 167.819284 90.017819 
L 170.77609 89.851798 
L 173.732897 90.807364 
L 176.689703 92.094864 
L 179.64651 92.792614 
L 182.603316 93.276702 
L 185.560123 93.910017 
L 188.516929 94.702045 
L 191.473736 94.32386 
L 194.430542 95.573558 
L 197.387349 96.630016 
L 200.344155 97.258923 
L 203.300962 98.282618 
L 206.257768 100.018366 
L 209.214575 100.44509 
L 212.171382 100.542048 
L 215.128188 101.488183 
L 218.084995 101.639044 
L 221.041801 102.557804 
L 223.998608 102.962128 
L 226.955414 103.227964 
L 229.912221 104.198872 
L 232.869027 105.403438 
L 235.825834 106.346885 
L 238.78264 106.695225 
L 241.739447 107.962806 
L 244.696253 108.572216 
L 247.65306 109.270295 
L 250.609866 109.42063 
L 253.566673 110.492615 
L 256.523479 110.721335 
L 259.480286 110.812138 
L 262.437092 111.564015 
L 265.393899 112.101209 
L 268.350706 113.066052 
L 271.307512 114.362716 
L 274.264319 114.842341 
L 277.221125 115.78032 
L 280.177932 117.572657 
L 283.134738 117.631016 
L 286.091545 119.023259 
L 289.048351 119.810073 
L 292.005158 120.576313 
L 294.961964 121.961918 
L 297.918771 123.091173 
L 300.875577 123.857511 
L 303.832384 125.990599 
L 306.78919 128.479684 
L 309.745997 129.829027 
L 312.702803 130.765487 
L 315.65961 133.722487 
L 318.616416 136.281681 
L 321.573223 137.716816 
L 324.530029 141.715202 
L 327.486836 144.001156 
L 330.443643 147.351558 
L 333.400449 148.839485 
L 336.357256 150.885091 
L 339.314062 153.821776 
L 342.270869 153.564613 
L 345.227675 162.523676 
L 348.184482 161.899114 
L 351.141288 175.080756 
" clip-path="url(#p5f4aad66ff)" style="fill: none; stroke: #9467bd; stroke-width: 1.5; stroke-linecap: round"/>
   </g>
   <g id="line2d_18">
    <path d="M 58.417442 49.855336 
L 351.141288 300.24358 
" clip-path="url(#p5f4aad66ff)" style="fill: none; stroke-dasharray: 7.4,3.2; stroke-dashoffset: 0; stroke: #000000; stroke-width: 2"/>
   </g>
   <g id="patch_3">
    <path d="M 43.78125 313.478125 
L 43.78125 22.318125 
" style="fill: none; stroke: #ffffff; stroke-width: 0.8; stroke-linejoin: miter; stroke-linecap: square"/>
   </g>
   <g id="patch_4">
    <path d="M 365.77748 313.478125 
L 365.77748 22.318125 
" style="fill: none; stroke: #ffffff; stroke-width: 0.8; stroke-linejoin: miter; stroke-linecap: square"/>
   </g>
   <g id="patch_5">
    <path d="M 43.78125 313.478125 
L 365.77748 313.478125 
" style="fill: none; stroke: #ffffff; stroke-width: 0.8; stroke-linejoin: miter; stroke-linecap: square"/>
   </g>
   <g id="patch_6">
    <path d="M 43.78125 22.318125 
L 365.77748 22.318125 
" style="fill: none; stroke: #ffffff; stroke-width: 0.8; stroke-linejoin: miter; stroke-linecap: square"/>
   </g>
   <g id="text_15">
    <!-- PR Curve -->
    <g style="fill: #262626" transform="translate(177.38374 16.318125) scale(0.12 -0.12)">
     <defs>
      <path id="DejaVuSans-20" transform="scale(0.015625)"/>
      <path id="DejaVuSans-43" d="M 4122 4306 
L 4122 3641 
Q 3803 3938 3442 4084 
Q 3081 4231 2675 4231 
Q 1875 4231 1450 3742 
Q 1025 3253 1025 2328 
Q 1025 1406 1450 917 
Q 1875 428 2675 428 
Q 3081 428 3442 575 
Q 3803 722 4122 1019 
L 4122 359 
Q 3791 134 3420 21 
Q 3050 -91 2638 -91 
Q 1578 -91 968 557 
Q 359 1206 359 2328 
Q 359 3453 968 4101 
Q 1578 4750 2638 4750 
Q 3056 4750 3426 4639 
Q 3797 4528 4122 4306 
z
" transform="scale(0.015625)"/>
      <path id="DejaVuSans-75" d="M 544 1381 
L 544 3500 
L 1119 3500 
L 1119 1403 
Q 1119 906 1312 657 
Q 1506 409 1894 409 
Q 2359 409 2629 706 
Q 2900 1003 2900 1516 
L 2900 3500 
L 3475 3500 
L 3475 0 
L 2900 0 
L 2900 538 
Q 2691 219 2414 64 
Q 2138 -91 1772 -91 
Q 1169 -91 856 284 
Q 544 659 544 1381 
z
M 1991 3584 
L 1991 3584 
z
" transform="scale(0.015625)"/>
      <path id="DejaVuSans-76" d="M 191 3500 
L 800 3500 
L 1894 563 
L 2988 3500 
L 3597 3500 
L 2284 0 
L 1503 0 
L 191 3500 
z
" transform="scale(0.015625)"/>
     </defs>
     <use xlink:href="#DejaVuSans-50"/>
     <use xlink:href="#DejaVuSans-52" transform="translate(60.302734 0)"/>
     <use xlink:href="#DejaVuSans-20" transform="translate(129.785156 0)"/>
     <use xlink:href="#DejaVuSans-43" transform="translate(161.572266 0)"/>
     <use xlink:href="#DejaVuSans-75" transform="translate(231.396484 0)"/>
     <use xlink:href="#DejaVuSans-72" transform="translate(294.775391 0)"/>
     <use xlink:href="#DejaVuSans-76" transform="translate(335.888672 0)"/>
     <use xlink:href="#DejaVuSans-65" transform="translate(395.068359 0)"/>
    </g>
   </g>
   <g id="legend_1">
    <g id="patch_7">
     <path d="M 372.77748 213.4325 
L 558.87748 213.4325 
Q 560.87748 213.4325 560.87748 211.4325 
L 560.87748 124.36375 
Q 560.87748 122.36375 558.87748 122.36375 
L 372.77748 122.36375 
Q 370.77748 122.36375 370.77748 124.36375 
L 370.77748 211.4325 
Q 370.77748 213.4325 372.77748 213.4325 
z
" style="fill: #eaeaf2; opacity: 0.8; stroke: #cccccc; stroke-linejoin: miter"/>
    </g>
    <g id="line2d_19">
     <path d="M 374.77748 130.462188 
L 384.77748 130.462188 
L 394.77748 130.462188 
" style="fill: none; stroke: #1f77b4; stroke-width: 1.5; stroke-linecap: round"/>
    </g>
    <g id="text_16">
     <!-- 0% Noise (AUC$ = 0.85 \pm  0.05$) -->
     <g style="fill: #262626" transform="translate(402.77748 133.962188) scale(0.1 -0.1)">
      <defs>
       <path id="DejaVuSans-25" d="M 4653 2053 
Q 4381 2053 4226 1822 
Q 4072 1591 4072 1178 
Q 4072 772 4226 539 
Q 4381 306 4653 306 
Q 4919 306 5073 539 
Q 5228 772 5228 1178 
Q 5228 1588 5073 1820 
Q 4919 2053 4653 2053 
z
M 4653 2450 
Q 5147 2450 5437 2106 
Q 5728 1763 5728 1178 
Q 5728 594 5436 251 
Q 5144 -91 4653 -91 
Q 4153 -91 3862 251 
Q 3572 594 3572 1178 
Q 3572 1766 3864 2108 
Q 4156 2450 4653 2450 
z
M 1428 4353 
Q 1159 4353 1004 4120 
Q 850 3888 850 3481 
Q 850 3069 1003 2837 
Q 1156 2606 1428 2606 
Q 1700 2606 1854 2837 
Q 2009 3069 2009 3481 
Q 2009 3884 1853 4118 
Q 1697 4353 1428 4353 
z
M 4250 4750 
L 4750 4750 
L 1831 -91 
L 1331 -91 
L 4250 4750 
z
M 1428 4750 
Q 1922 4750 2215 4408 
Q 2509 4066 2509 3481 
Q 2509 2891 2217 2550 
Q 1925 2209 1428 2209 
Q 931 2209 642 2551 
Q 353 2894 353 3481 
Q 353 4063 643 4406 
Q 934 4750 1428 4750 
z
" transform="scale(0.015625)"/>
       <path id="DejaVuSans-4e" d="M 628 4666 
L 1478 4666 
L 3547 763 
L 3547 4666 
L 4159 4666 
L 4159 0 
L 3309 0 
L 1241 3903 
L 1241 0 
L 628 0 
L 628 4666 
z
" transform="scale(0.015625)"/>
       <path id="DejaVuSans-28" d="M 1984 4856 
Q 1566 4138 1362 3434 
Q 1159 2731 1159 2009 
Q 1159 1288 1364 580 
Q 1569 -128 1984 -844 
L 1484 -844 
Q 1016 -109 783 600 
Q 550 1309 550 2009 
Q 550 2706 781 3412 
Q 1013 4119 1484 4856 
L 1984 4856 
z
" transform="scale(0.015625)"/>
       <path id="DejaVuSans-41" d="M 2188 4044 
L 1331 1722 
L 3047 1722 
L 2188 4044 
z
M 1831 4666 
L 2547 4666 
L 4325 0 
L 3669 0 
L 3244 1197 
L 1141 1197 
L 716 0 
L 50 0 
L 1831 4666 
z
" transform="scale(0.015625)"/>
       <path id="DejaVuSans-55" d="M 556 4666 
L 1191 4666 
L 1191 1831 
Q 1191 1081 1462 751 
Q 1734 422 2344 422 
Q 2950 422 3222 751 
Q 3494 1081 3494 1831 
L 3494 4666 
L 4128 4666 
L 4128 1753 
Q 4128 841 3676 375 
Q 3225 -91 2344 -91 
Q 1459 -91 1007 375 
Q 556 841 556 1753 
L 556 4666 
z
" transform="scale(0.015625)"/>
       <path id="DejaVuSans-3d" d="M 678 2906 
L 4684 2906 
L 4684 2381 
L 678 2381 
L 678 2906 
z
M 678 1631 
L 4684 1631 
L 4684 1100 
L 678 1100 
L 678 1631 
z
" transform="scale(0.015625)"/>
       <path id="DejaVuSans-35" d="M 691 4666 
L 3169 4666 
L 3169 4134 
L 1269 4134 
L 1269 2991 
Q 1406 3038 1543 3061 
Q 1681 3084 1819 3084 
Q 2600 3084 3056 2656 
Q 3513 2228 3513 1497 
Q 3513 744 3044 326 
Q 2575 -91 1722 -91 
Q 1428 -91 1123 -41 
Q 819 9 494 109 
L 494 744 
Q 775 591 1075 516 
Q 1375 441 1709 441 
Q 2250 441 2565 725 
Q 2881 1009 2881 1497 
Q 2881 1984 2565 2268 
Q 2250 2553 1709 2553 
Q 1456 2553 1204 2497 
Q 953 2441 691 2322 
L 691 4666 
z
" transform="scale(0.015625)"/>
       <path id="DejaVuSans-b1" d="M 2944 4013 
L 2944 2803 
L 4684 2803 
L 4684 2272 
L 2944 2272 
L 2944 1063 
L 2419 1063 
L 2419 2272 
L 678 2272 
L 678 2803 
L 2419 2803 
L 2419 4013 
L 2944 4013 
z
M 678 531 
L 4684 531 
L 4684 0 
L 678 0 
L 678 531 
z
" transform="scale(0.015625)"/>
       <path id="DejaVuSans-29" d="M 513 4856 
L 1013 4856 
Q 1481 4119 1714 3412 
Q 1947 2706 1947 2009 
Q 1947 1309 1714 600 
Q 1481 -109 1013 -844 
L 513 -844 
Q 928 -128 1133 580 
Q 1338 1288 1338 2009 
Q 1338 2731 1133 3434 
Q 928 4138 513 4856 
z
" transform="scale(0.015625)"/>
      </defs>
      <use xlink:href="#DejaVuSans-30" transform="translate(0 0.015625)"/>
      <use xlink:href="#DejaVuSans-25" transform="translate(63.623047 0.015625)"/>
      <use xlink:href="#DejaVuSans-20" transform="translate(158.642578 0.015625)"/>
      <use xlink:href="#DejaVuSans-4e" transform="translate(190.429688 0.015625)"/>
      <use xlink:href="#DejaVuSans-6f" transform="translate(265.234375 0.015625)"/>
      <use xlink:href="#DejaVuSans-69" transform="translate(326.416016 0.015625)"/>
      <use xlink:href="#DejaVuSans-73" transform="translate(354.199219 0.015625)"/>
      <use xlink:href="#DejaVuSans-65" transform="translate(406.298828 0.015625)"/>
      <use xlink:href="#DejaVuSans-20" transform="translate(467.822266 0.015625)"/>
      <use xlink:href="#DejaVuSans-28" transform="translate(499.609375 0.015625)"/>
      <use xlink:href="#DejaVuSans-41" transform="translate(538.623047 0.015625)"/>
      <use xlink:href="#DejaVuSans-55" transform="translate(607.03125 0.015625)"/>
      <use xlink:href="#DejaVuSans-43" transform="translate(680.224609 0.015625)"/>
      <use xlink:href="#DejaVuSans-3d" transform="translate(769.53125 0.015625)"/>
      <use xlink:href="#DejaVuSans-30" transform="translate(872.802734 0.015625)"/>
      <use xlink:href="#DejaVuSans-2e" transform="translate(936.425781 0.015625)"/>
      <use xlink:href="#DejaVuSans-38" transform="translate(965.587891 0.015625)"/>
      <use xlink:href="#DejaVuSans-35" transform="translate(1029.210938 0.015625)"/>
      <use xlink:href="#DejaVuSans-b1" transform="translate(1112.316406 0.015625)"/>
      <use xlink:href="#DejaVuSans-30" transform="translate(1215.587891 0.015625)"/>
      <use xlink:href="#DejaVuSans-2e" transform="translate(1279.210938 0.015625)"/>
      <use xlink:href="#DejaVuSans-30" transform="translate(1310.998047 0.015625)"/>
      <use xlink:href="#DejaVuSans-35" transform="translate(1374.621094 0.015625)"/>
      <use xlink:href="#DejaVuSans-29" transform="translate(1438.244141 0.015625)"/>
     </g>
    </g>
    <g id="line2d_20">
     <path d="M 374.77748 145.140313 
L 384.77748 145.140313 
L 394.77748 145.140313 
" style="fill: none; stroke: #ff7f0e; stroke-width: 1.5; stroke-linecap: round"/>
    </g>
    <g id="text_17">
     <!-- 5% Noise (AUC$ = 0.84 \pm  0.05$) -->
     <g style="fill: #262626" transform="translate(402.77748 148.640313) scale(0.1 -0.1)">
      <use xlink:href="#DejaVuSans-35" transform="translate(0 0.015625)"/>
      <use xlink:href="#DejaVuSans-25" transform="translate(63.623047 0.015625)"/>
      <use xlink:href="#DejaVuSans-20" transform="translate(158.642578 0.015625)"/>
      <use xlink:href="#DejaVuSans-4e" transform="translate(190.429688 0.015625)"/>
      <use xlink:href="#DejaVuSans-6f" transform="translate(265.234375 0.015625)"/>
      <use xlink:href="#DejaVuSans-69" transform="translate(326.416016 0.015625)"/>
      <use xlink:href="#DejaVuSans-73" transform="translate(354.199219 0.015625)"/>
      <use xlink:href="#DejaVuSans-65" transform="translate(406.298828 0.015625)"/>
      <use xlink:href="#DejaVuSans-20" transform="translate(467.822266 0.015625)"/>
      <use xlink:href="#DejaVuSans-28" transform="translate(499.609375 0.015625)"/>
      <use xlink:href="#DejaVuSans-41" transform="translate(538.623047 0.015625)"/>
      <use xlink:href="#DejaVuSans-55" transform="translate(607.03125 0.015625)"/>
      <use xlink:href="#DejaVuSans-43" transform="translate(680.224609 0.015625)"/>
      <use xlink:href="#DejaVuSans-3d" transform="translate(769.53125 0.015625)"/>
      <use xlink:href="#DejaVuSans-30" transform="translate(872.802734 0.015625)"/>
      <use xlink:href="#DejaVuSans-2e" transform="translate(936.425781 0.015625)"/>
      <use xlink:href="#DejaVuSans-38" transform="translate(965.587891 0.015625)"/>
      <use xlink:href="#DejaVuSans-34" transform="translate(1029.210938 0.015625)"/>
      <use xlink:href="#DejaVuSans-b1" transform="translate(1112.316406 0.015625)"/>
      <use xlink:href="#DejaVuSans-30" transform="translate(1215.587891 0.015625)"/>
      <use xlink:href="#DejaVuSans-2e" transform="translate(1279.210938 0.015625)"/>
      <use xlink:href="#DejaVuSans-30" transform="translate(1310.998047 0.015625)"/>
      <use xlink:href="#DejaVuSans-35" transform="translate(1374.621094 0.015625)"/>
      <use xlink:href="#DejaVuSans-29" transform="translate(1438.244141 0.015625)"/>
     </g>
    </g>
    <g id="line2d_21">
     <path d="M 374.77748 159.818438 
L 384.77748 159.818438 
L 394.77748 159.818438 
" style="fill: none; stroke: #2ca02c; stroke-width: 1.5; stroke-linecap: round"/>
    </g>
    <g id="text_18">
     <!-- 10% Noise (AUC$ = 0.83 \pm  0.05$) -->
     <g style="fill: #262626" transform="translate(402.77748 163.318438) scale(0.1 -0.1)">
      <defs>
       <path id="DejaVuSans-33" d="M 2597 2516 
Q 3050 2419 3304 2112 
Q 3559 1806 3559 1356 
Q 3559 666 3084 287 
Q 2609 -91 1734 -91 
Q 1441 -91 1130 -33 
Q 819 25 488 141 
L 488 750 
Q 750 597 1062 519 
Q 1375 441 1716 441 
Q 2309 441 2620 675 
Q 2931 909 2931 1356 
Q 2931 1769 2642 2001 
Q 2353 2234 1838 2234 
L 1294 2234 
L 1294 2753 
L 1863 2753 
Q 2328 2753 2575 2939 
Q 2822 3125 2822 3475 
Q 2822 3834 2567 4026 
Q 2313 4219 1838 4219 
Q 1578 4219 1281 4162 
Q 984 4106 628 3988 
L 628 4550 
Q 988 4650 1302 4700 
Q 1616 4750 1894 4750 
Q 2613 4750 3031 4423 
Q 3450 4097 3450 3541 
Q 3450 3153 3228 2886 
Q 3006 2619 2597 2516 
z
" transform="scale(0.015625)"/>
      </defs>
      <use xlink:href="#DejaVuSans-31" transform="translate(0 0.015625)"/>
      <use xlink:href="#DejaVuSans-30" transform="translate(63.623047 0.015625)"/>
      <use xlink:href="#DejaVuSans-25" transform="translate(127.246094 0.015625)"/>
      <use xlink:href="#DejaVuSans-20" transform="translate(222.265625 0.015625)"/>
      <use xlink:href="#DejaVuSans-4e" transform="translate(254.052734 0.015625)"/>
      <use xlink:href="#DejaVuSans-6f" transform="translate(328.857422 0.015625)"/>
      <use xlink:href="#DejaVuSans-69" transform="translate(390.039062 0.015625)"/>
      <use xlink:href="#DejaVuSans-73" transform="translate(417.822266 0.015625)"/>
      <use xlink:href="#DejaVuSans-65" transform="translate(469.921875 0.015625)"/>
      <use xlink:href="#DejaVuSans-20" transform="translate(531.445312 0.015625)"/>
      <use xlink:href="#DejaVuSans-28" transform="translate(563.232422 0.015625)"/>
      <use xlink:href="#DejaVuSans-41" transform="translate(602.246094 0.015625)"/>
      <use xlink:href="#DejaVuSans-55" transform="translate(670.654297 0.015625)"/>
      <use xlink:href="#DejaVuSans-43" transform="translate(743.847656 0.015625)"/>
      <use xlink:href="#DejaVuSans-3d" transform="translate(833.154297 0.015625)"/>
      <use xlink:href="#DejaVuSans-30" transform="translate(936.425781 0.015625)"/>
      <use xlink:href="#DejaVuSans-2e" transform="translate(1000.048828 0.015625)"/>
      <use xlink:href="#DejaVuSans-38" transform="translate(1029.210938 0.015625)"/>
      <use xlink:href="#DejaVuSans-33" transform="translate(1092.833984 0.015625)"/>
      <use xlink:href="#DejaVuSans-b1" transform="translate(1175.939453 0.015625)"/>
      <use xlink:href="#DejaVuSans-30" transform="translate(1279.210938 0.015625)"/>
      <use xlink:href="#DejaVuSans-2e" transform="translate(1342.833984 0.015625)"/>
      <use xlink:href="#DejaVuSans-30" transform="translate(1374.621094 0.015625)"/>
      <use xlink:href="#DejaVuSans-35" transform="translate(1438.244141 0.015625)"/>
      <use xlink:href="#DejaVuSans-29" transform="translate(1501.867188 0.015625)"/>
     </g>
    </g>
    <g id="line2d_22">
     <path d="M 374.77748 174.496563 
L 384.77748 174.496563 
L 394.77748 174.496563 
" style="fill: none; stroke: #d62728; stroke-width: 1.5; stroke-linecap: round"/>
    </g>
    <g id="text_19">
     <!-- 15% Noise (AUC$ = 0.82 \pm  0.05$) -->
     <g style="fill: #262626" transform="translate(402.77748 177.996563) scale(0.1 -0.1)">
      <use xlink:href="#DejaVuSans-31" transform="translate(0 0.015625)"/>
      <use xlink:href="#DejaVuSans-35" transform="translate(63.623047 0.015625)"/>
      <use xlink:href="#DejaVuSans-25" transform="translate(127.246094 0.015625)"/>
      <use xlink:href="#DejaVuSans-20" transform="translate(222.265625 0.015625)"/>
      <use xlink:href="#DejaVuSans-4e" transform="translate(254.052734 0.015625)"/>
      <use xlink:href="#DejaVuSans-6f" transform="translate(328.857422 0.015625)"/>
      <use xlink:href="#DejaVuSans-69" transform="translate(390.039062 0.015625)"/>
      <use xlink:href="#DejaVuSans-73" transform="translate(417.822266 0.015625)"/>
      <use xlink:href="#DejaVuSans-65" transform="translate(469.921875 0.015625)"/>
      <use xlink:href="#DejaVuSans-20" transform="translate(531.445312 0.015625)"/>
      <use xlink:href="#DejaVuSans-28" transform="translate(563.232422 0.015625)"/>
      <use xlink:href="#DejaVuSans-41" transform="translate(602.246094 0.015625)"/>
      <use xlink:href="#DejaVuSans-55" transform="translate(670.654297 0.015625)"/>
      <use xlink:href="#DejaVuSans-43" transform="translate(743.847656 0.015625)"/>
      <use xlink:href="#DejaVuSans-3d" transform="translate(833.154297 0.015625)"/>
      <use xlink:href="#DejaVuSans-30" transform="translate(936.425781 0.015625)"/>
      <use xlink:href="#DejaVuSans-2e" transform="translate(1000.048828 0.015625)"/>
      <use xlink:href="#DejaVuSans-38" transform="translate(1029.210938 0.015625)"/>
      <use xlink:href="#DejaVuSans-32" transform="translate(1092.833984 0.015625)"/>
      <use xlink:href="#DejaVuSans-b1" transform="translate(1175.939453 0.015625)"/>
      <use xlink:href="#DejaVuSans-30" transform="translate(1279.210938 0.015625)"/>
      <use xlink:href="#DejaVuSans-2e" transform="translate(1342.833984 0.015625)"/>
      <use xlink:href="#DejaVuSans-30" transform="translate(1374.621094 0.015625)"/>
      <use xlink:href="#DejaVuSans-35" transform="translate(1438.244141 0.015625)"/>
      <use xlink:href="#DejaVuSans-29" transform="translate(1501.867188 0.015625)"/>
     </g>
    </g>
    <g id="line2d_23">
     <path d="M 374.77748 189.174688 
L 384.77748 189.174688 
L 394.77748 189.174688 
" style="fill: none; stroke: #9467bd; stroke-width: 1.5; stroke-linecap: round"/>
    </g>
    <g id="text_20">
     <!-- 20% Noise (AUC$ = 0.81 \pm  0.05$) -->
     <g style="fill: #262626" transform="translate(402.77748 192.674688) scale(0.1 -0.1)">
      <use xlink:href="#DejaVuSans-32" transform="translate(0 0.015625)"/>
      <use xlink:href="#DejaVuSans-30" transform="translate(63.623047 0.015625)"/>
      <use xlink:href="#DejaVuSans-25" transform="translate(127.246094 0.015625)"/>
      <use xlink:href="#DejaVuSans-20" transform="translate(222.265625 0.015625)"/>
      <use xlink:href="#DejaVuSans-4e" transform="translate(254.052734 0.015625)"/>
      <use xlink:href="#DejaVuSans-6f" transform="translate(328.857422 0.015625)"/>
      <use xlink:href="#DejaVuSans-69" transform="translate(390.039062 0.015625)"/>
      <use xlink:href="#DejaVuSans-73" transform="translate(417.822266 0.015625)"/>
      <use xlink:href="#DejaVuSans-65" transform="translate(469.921875 0.015625)"/>
      <use xlink:href="#DejaVuSans-20" transform="translate(531.445312 0.015625)"/>
      <use xlink:href="#DejaVuSans-28" transform="translate(563.232422 0.015625)"/>
      <use xlink:href="#DejaVuSans-41" transform="translate(602.246094 0.015625)"/>
      <use xlink:href="#DejaVuSans-55" transform="translate(670.654297 0.015625)"/>
      <use xlink:href="#DejaVuSans-43" transform="translate(743.847656 0.015625)"/>
      <use xlink:href="#DejaVuSans-3d" transform="translate(833.154297 0.015625)"/>
      <use xlink:href="#DejaVuSans-30" transform="translate(936.425781 0.015625)"/>
      <use xlink:href="#DejaVuSans-2e" transform="translate(1000.048828 0.015625)"/>
      <use xlink:href="#DejaVuSans-38" transform="translate(1029.210938 0.015625)"/>
      <use xlink:href="#DejaVuSans-31" transform="translate(1092.833984 0.015625)"/>
      <use xlink:href="#DejaVuSans-b1" transform="translate(1175.939453 0.015625)"/>
      <use xlink:href="#DejaVuSans-30" transform="translate(1279.210938 0.015625)"/>
      <use xlink:href="#DejaVuSans-2e" transform="translate(1342.833984 0.015625)"/>
      <use xlink:href="#DejaVuSans-30" transform="translate(1374.621094 0.015625)"/>
      <use xlink:href="#DejaVuSans-35" transform="translate(1438.244141 0.015625)"/>
      <use xlink:href="#DejaVuSans-29" transform="translate(1501.867188 0.015625)"/>
     </g>
    </g>
    <g id="line2d_24">
     <path d="M 374.77748 203.852813 
L 384.77748 203.852813 
L 394.77748 203.852813 
" style="fill: none; stroke-dasharray: 7.4,3.2; stroke-dashoffset: 0; stroke: #000000; stroke-width: 2"/>
    </g>
    <g id="text_21">
     <!-- Random Chance -->
     <g style="fill: #262626" transform="translate(402.77748 207.352813) scale(0.1 -0.1)">
      <defs>
       <path id="DejaVuSans-64" d="M 2906 2969 
L 2906 4863 
L 3481 4863 
L 3481 0 
L 2906 0 
L 2906 525 
Q 2725 213 2448 61 
Q 2172 -91 1784 -91 
Q 1150 -91 751 415 
Q 353 922 353 1747 
Q 353 2572 751 3078 
Q 1150 3584 1784 3584 
Q 2172 3584 2448 3432 
Q 2725 3281 2906 2969 
z
M 947 1747 
Q 947 1113 1208 752 
Q 1469 391 1925 391 
Q 2381 391 2643 752 
Q 2906 1113 2906 1747 
Q 2906 2381 2643 2742 
Q 2381 3103 1925 3103 
Q 1469 3103 1208 2742 
Q 947 2381 947 1747 
z
" transform="scale(0.015625)"/>
       <path id="DejaVuSans-6d" d="M 3328 2828 
Q 3544 3216 3844 3400 
Q 4144 3584 4550 3584 
Q 5097 3584 5394 3201 
Q 5691 2819 5691 2113 
L 5691 0 
L 5113 0 
L 5113 2094 
Q 5113 2597 4934 2840 
Q 4756 3084 4391 3084 
Q 3944 3084 3684 2787 
Q 3425 2491 3425 1978 
L 3425 0 
L 2847 0 
L 2847 2094 
Q 2847 2600 2669 2842 
Q 2491 3084 2119 3084 
Q 1678 3084 1418 2786 
Q 1159 2488 1159 1978 
L 1159 0 
L 581 0 
L 581 3500 
L 1159 3500 
L 1159 2956 
Q 1356 3278 1631 3431 
Q 1906 3584 2284 3584 
Q 2666 3584 2933 3390 
Q 3200 3197 3328 2828 
z
" transform="scale(0.015625)"/>
       <path id="DejaVuSans-68" d="M 3513 2113 
L 3513 0 
L 2938 0 
L 2938 2094 
Q 2938 2591 2744 2837 
Q 2550 3084 2163 3084 
Q 1697 3084 1428 2787 
Q 1159 2491 1159 1978 
L 1159 0 
L 581 0 
L 581 4863 
L 1159 4863 
L 1159 2956 
Q 1366 3272 1645 3428 
Q 1925 3584 2291 3584 
Q 2894 3584 3203 3211 
Q 3513 2838 3513 2113 
z
" transform="scale(0.015625)"/>
      </defs>
      <use xlink:href="#DejaVuSans-52"/>
      <use xlink:href="#DejaVuSans-61" transform="translate(67.232422 0)"/>
      <use xlink:href="#DejaVuSans-6e" transform="translate(128.511719 0)"/>
      <use xlink:href="#DejaVuSans-64" transform="translate(191.890625 0)"/>
      <use xlink:href="#DejaVuSans-6f" transform="translate(255.367188 0)"/>
      <use xlink:href="#DejaVuSans-6d" transform="translate(316.548828 0)"/>
      <use xlink:href="#DejaVuSans-20" transform="translate(413.960938 0)"/>
      <use xlink:href="#DejaVuSans-43" transform="translate(445.748047 0)"/>
      <use xlink:href="#DejaVuSans-68" transform="translate(515.572266 0)"/>
      <use xlink:href="#DejaVuSans-61" transform="translate(578.951172 0)"/>
      <use xlink:href="#DejaVuSans-6e" transform="translate(640.230469 0)"/>
      <use xlink:href="#DejaVuSans-63" transform="translate(703.609375 0)"/>
      <use xlink:href="#DejaVuSans-65" transform="translate(758.589844 0)"/>
     </g>
    </g>
   </g>
  </g>
 </g>
 <defs>
  <clipPath id="p5f4aad66ff">
   <rect x="43.78125" y="22.318125" width="321.99623" height="291.16"/>
  </clipPath>
 </defs>
</svg>
