<?xml version="1.0" encoding="utf-8" standalone="no"?>
<!DOCTYPE svg PUBLIC "-//W3C//DTD SVG 1.1//EN"
  "http://www.w3.org/Graphics/SVG/1.1/DTD/svg11.dtd">
<svg xmlns:xlink="http://www.w3.org/1999/xlink" width="568.110308pt" height="351.034375pt" viewBox="0 0 568.110308 351.034375" xmlns="http://www.w3.org/2000/svg" version="1.1">
 <metadata>
  <rdf:RDF xmlns:dc="http://purl.org/dc/elements/1.1/" xmlns:cc="http://creativecommons.org/ns#" xmlns:rdf="http://www.w3.org/1999/02/22-rdf-syntax-ns#">
   <cc:Work>
    <dc:type rdf:resource="http://purl.org/dc/dcmitype/StillImage"/>
    <dc:date>2025-05-21T10:56:41.691245</dc:date>
    <dc:format>image/svg+xml</dc:format>
    <dc:creator>
     <cc:Agent>
      <dc:title>Matplotlib v3.10.0, https://matplotlib.org/</dc:title>
     </cc:Agent>
    </dc:creator>
   </cc:Work>
  </rdf:RDF>
 </metadata>
 <defs>
  <style type="text/css">*{stroke-linejoin: round; stroke-linecap: butt}</style>
 </defs>
 <g id="figure_1">
  <g id="patch_1">
   <path d="M 0 351.034375 
L 568.110308 351.034375 
L 568.110308 0 
L 0 0 
z
" style="fill: #ffffff"/>
  </g>
  <g id="axes_1">
   <g id="patch_2">
    <path d="M 43.78125 313.478125 
L 349.610308 313.478125 
L 349.610308 22.318125 
L 43.78125 22.318125 
z
" style="fill: #eaeaf2"/>
   </g>
   <g id="matplotlib.axis_1">
    <g id="xtick_1">
     <g id="line2d_1">
      <path d="M 57.682571 313.478125 
L 57.682571 22.318125 
" clip-path="url(#pcb1555d0cb)" style="fill: none; stroke-dasharray: 2.96,1.28; stroke-dashoffset: 0; stroke: #ffffff; stroke-opacity: 0.7; stroke-width: 0.8"/>
     </g>
     <g id="text_1">
      <!-- 0.0 -->
      <g style="fill: #262626" transform="translate(49.731008 328.076563) scale(0.1 -0.1)">
       <defs>
        <path id="DejaVuSans-30" d="M 2034 4250 
Q 1547 4250 1301 3770 
Q 1056 3291 1056 2328 
Q 1056 1369 1301 889 
Q 1547 409 2034 409 
Q 2525 409 2770 889 
Q 3016 1369 3016 2328 
Q 3016 3291 2770 3770 
Q 2525 4250 2034 4250 
z
M 2034 4750 
Q 2819 4750 3233 4129 
Q 3647 3509 3647 2328 
Q 3647 1150 3233 529 
Q 2819 -91 2034 -91 
Q 1250 -91 836 529 
Q 422 1150 422 2328 
Q 422 3509 836 4129 
Q 1250 4750 2034 4750 
z
" transform="scale(0.015625)"/>
        <path id="DejaVuSans-2e" d="M 684 794 
L 1344 794 
L 1344 0 
L 684 0 
L 684 794 
z
" transform="scale(0.015625)"/>
       </defs>
       <use xlink:href="#DejaVuSans-30"/>
       <use xlink:href="#DejaVuSans-2e" transform="translate(63.623047 0)"/>
       <use xlink:href="#DejaVuSans-30" transform="translate(95.410156 0)"/>
      </g>
     </g>
    </g>
    <g id="xtick_2">
     <g id="line2d_2">
      <path d="M 113.287854 313.478125 
L 113.287854 22.318125 
" clip-path="url(#pcb1555d0cb)" style="fill: none; stroke-dasharray: 2.96,1.28; stroke-dashoffset: 0; stroke: #ffffff; stroke-opacity: 0.7; stroke-width: 0.8"/>
     </g>
     <g id="text_2">
      <!-- 0.2 -->
      <g style="fill: #262626" transform="translate(105.336292 328.076563) scale(0.1 -0.1)">
       <defs>
        <path id="DejaVuSans-32" d="M 1228 531 
L 3431 531 
L 3431 0 
L 469 0 
L 469 531 
Q 828 903 1448 1529 
Q 2069 2156 2228 2338 
Q 2531 2678 2651 2914 
Q 2772 3150 2772 3378 
Q 2772 3750 2511 3984 
Q 2250 4219 1831 4219 
Q 1534 4219 1204 4116 
Q 875 4013 500 3803 
L 500 4441 
Q 881 4594 1212 4672 
Q 1544 4750 1819 4750 
Q 2544 4750 2975 4387 
Q 3406 4025 3406 3419 
Q 3406 3131 3298 2873 
Q 3191 2616 2906 2266 
Q 2828 2175 2409 1742 
Q 1991 1309 1228 531 
z
" transform="scale(0.015625)"/>
       </defs>
       <use xlink:href="#DejaVuSans-30"/>
       <use xlink:href="#DejaVuSans-2e" transform="translate(63.623047 0)"/>
       <use xlink:href="#DejaVuSans-32" transform="translate(95.410156 0)"/>
      </g>
     </g>
    </g>
    <g id="xtick_3">
     <g id="line2d_3">
      <path d="M 168.893137 313.478125 
L 168.893137 22.318125 
" clip-path="url(#pcb1555d0cb)" style="fill: none; stroke-dasharray: 2.96,1.28; stroke-dashoffset: 0; stroke: #ffffff; stroke-opacity: 0.7; stroke-width: 0.8"/>
     </g>
     <g id="text_3">
      <!-- 0.4 -->
      <g style="fill: #262626" transform="translate(160.941575 328.076563) scale(0.1 -0.1)">
       <defs>
        <path id="DejaVuSans-34" d="M 2419 4116 
L 825 1625 
L 2419 1625 
L 2419 4116 
z
M 2253 4666 
L 3047 4666 
L 3047 1625 
L 3713 1625 
L 3713 1100 
L 3047 1100 
L 3047 0 
L 2419 0 
L 2419 1100 
L 313 1100 
L 313 1709 
L 2253 4666 
z
" transform="scale(0.015625)"/>
       </defs>
       <use xlink:href="#DejaVuSans-30"/>
       <use xlink:href="#DejaVuSans-2e" transform="translate(63.623047 0)"/>
       <use xlink:href="#DejaVuSans-34" transform="translate(95.410156 0)"/>
      </g>
     </g>
    </g>
    <g id="xtick_4">
     <g id="line2d_4">
      <path d="M 224.49842 313.478125 
L 224.49842 22.318125 
" clip-path="url(#pcb1555d0cb)" style="fill: none; stroke-dasharray: 2.96,1.28; stroke-dashoffset: 0; stroke: #ffffff; stroke-opacity: 0.7; stroke-width: 0.8"/>
     </g>
     <g id="text_4">
      <!-- 0.6 -->
      <g style="fill: #262626" transform="translate(216.546858 328.076563) scale(0.1 -0.1)">
       <defs>
        <path id="DejaVuSans-36" d="M 2113 2584 
Q 1688 2584 1439 2293 
Q 1191 2003 1191 1497 
Q 1191 994 1439 701 
Q 1688 409 2113 409 
Q 2538 409 2786 701 
Q 3034 994 3034 1497 
Q 3034 2003 2786 2293 
Q 2538 2584 2113 2584 
z
M 3366 4563 
L 3366 3988 
Q 3128 4100 2886 4159 
Q 2644 4219 2406 4219 
Q 1781 4219 1451 3797 
Q 1122 3375 1075 2522 
Q 1259 2794 1537 2939 
Q 1816 3084 2150 3084 
Q 2853 3084 3261 2657 
Q 3669 2231 3669 1497 
Q 3669 778 3244 343 
Q 2819 -91 2113 -91 
Q 1303 -91 875 529 
Q 447 1150 447 2328 
Q 447 3434 972 4092 
Q 1497 4750 2381 4750 
Q 2619 4750 2861 4703 
Q 3103 4656 3366 4563 
z
" transform="scale(0.015625)"/>
       </defs>
       <use xlink:href="#DejaVuSans-30"/>
       <use xlink:href="#DejaVuSans-2e" transform="translate(63.623047 0)"/>
       <use xlink:href="#DejaVuSans-36" transform="translate(95.410156 0)"/>
      </g>
     </g>
    </g>
    <g id="xtick_5">
     <g id="line2d_5">
      <path d="M 280.103704 313.478125 
L 280.103704 22.318125 
" clip-path="url(#pcb1555d0cb)" style="fill: none; stroke-dasharray: 2.96,1.28; stroke-dashoffset: 0; stroke: #ffffff; stroke-opacity: 0.7; stroke-width: 0.8"/>
     </g>
     <g id="text_5">
      <!-- 0.8 -->
      <g style="fill: #262626" transform="translate(272.152141 328.076563) scale(0.1 -0.1)">
       <defs>
        <path id="DejaVuSans-38" d="M 2034 2216 
Q 1584 2216 1326 1975 
Q 1069 1734 1069 1313 
Q 1069 891 1326 650 
Q 1584 409 2034 409 
Q 2484 409 2743 651 
Q 3003 894 3003 1313 
Q 3003 1734 2745 1975 
Q 2488 2216 2034 2216 
z
M 1403 2484 
Q 997 2584 770 2862 
Q 544 3141 544 3541 
Q 544 4100 942 4425 
Q 1341 4750 2034 4750 
Q 2731 4750 3128 4425 
Q 3525 4100 3525 3541 
Q 3525 3141 3298 2862 
Q 3072 2584 2669 2484 
Q 3125 2378 3379 2068 
Q 3634 1759 3634 1313 
Q 3634 634 3220 271 
Q 2806 -91 2034 -91 
Q 1263 -91 848 271 
Q 434 634 434 1313 
Q 434 1759 690 2068 
Q 947 2378 1403 2484 
z
M 1172 3481 
Q 1172 3119 1398 2916 
Q 1625 2713 2034 2713 
Q 2441 2713 2670 2916 
Q 2900 3119 2900 3481 
Q 2900 3844 2670 4047 
Q 2441 4250 2034 4250 
Q 1625 4250 1398 4047 
Q 1172 3844 1172 3481 
z
" transform="scale(0.015625)"/>
       </defs>
       <use xlink:href="#DejaVuSans-30"/>
       <use xlink:href="#DejaVuSans-2e" transform="translate(63.623047 0)"/>
       <use xlink:href="#DejaVuSans-38" transform="translate(95.410156 0)"/>
      </g>
     </g>
    </g>
    <g id="xtick_6">
     <g id="line2d_6">
      <path d="M 335.708987 313.478125 
L 335.708987 22.318125 
" clip-path="url(#pcb1555d0cb)" style="fill: none; stroke-dasharray: 2.96,1.28; stroke-dashoffset: 0; stroke: #ffffff; stroke-opacity: 0.7; stroke-width: 0.8"/>
     </g>
     <g id="text_6">
      <!-- 1.0 -->
      <g style="fill: #262626" transform="translate(327.757424 328.076563) scale(0.1 -0.1)">
       <defs>
        <path id="DejaVuSans-31" d="M 794 531 
L 1825 531 
L 1825 4091 
L 703 3866 
L 703 4441 
L 1819 4666 
L 2450 4666 
L 2450 531 
L 3481 531 
L 3481 0 
L 794 0 
L 794 531 
z
" transform="scale(0.015625)"/>
       </defs>
       <use xlink:href="#DejaVuSans-31"/>
       <use xlink:href="#DejaVuSans-2e" transform="translate(63.623047 0)"/>
       <use xlink:href="#DejaVuSans-30" transform="translate(95.410156 0)"/>
      </g>
     </g>
    </g>
    <g id="text_7">
     <!-- False Positive Rate -->
     <g style="fill: #262626" transform="translate(150.229373 341.754687) scale(0.1 -0.1)">
      <defs>
       <path id="DejaVuSans-46" d="M 628 4666 
L 3309 4666 
L 3309 4134 
L 1259 4134 
L 1259 2759 
L 3109 2759 
L 3109 2228 
L 1259 2228 
L 1259 0 
L 628 0 
L 628 4666 
z
" transform="scale(0.015625)"/>
       <path id="DejaVuSans-61" d="M 2194 1759 
Q 1497 1759 1228 1600 
Q 959 1441 959 1056 
Q 959 750 1161 570 
Q 1363 391 1709 391 
Q 2188 391 2477 730 
Q 2766 1069 2766 1631 
L 2766 1759 
L 2194 1759 
z
M 3341 1997 
L 3341 0 
L 2766 0 
L 2766 531 
Q 2569 213 2275 61 
Q 1981 -91 1556 -91 
Q 1019 -91 701 211 
Q 384 513 384 1019 
Q 384 1609 779 1909 
Q 1175 2209 1959 2209 
L 2766 2209 
L 2766 2266 
Q 2766 2663 2505 2880 
Q 2244 3097 1772 3097 
Q 1472 3097 1187 3025 
Q 903 2953 641 2809 
L 641 3341 
Q 956 3463 1253 3523 
Q 1550 3584 1831 3584 
Q 2591 3584 2966 3190 
Q 3341 2797 3341 1997 
z
" transform="scale(0.015625)"/>
       <path id="DejaVuSans-6c" d="M 603 4863 
L 1178 4863 
L 1178 0 
L 603 0 
L 603 4863 
z
" transform="scale(0.015625)"/>
       <path id="DejaVuSans-73" d="M 2834 3397 
L 2834 2853 
Q 2591 2978 2328 3040 
Q 2066 3103 1784 3103 
Q 1356 3103 1142 2972 
Q 928 2841 928 2578 
Q 928 2378 1081 2264 
Q 1234 2150 1697 2047 
L 1894 2003 
Q 2506 1872 2764 1633 
Q 3022 1394 3022 966 
Q 3022 478 2636 193 
Q 2250 -91 1575 -91 
Q 1294 -91 989 -36 
Q 684 19 347 128 
L 347 722 
Q 666 556 975 473 
Q 1284 391 1588 391 
Q 1994 391 2212 530 
Q 2431 669 2431 922 
Q 2431 1156 2273 1281 
Q 2116 1406 1581 1522 
L 1381 1569 
Q 847 1681 609 1914 
Q 372 2147 372 2553 
Q 372 3047 722 3315 
Q 1072 3584 1716 3584 
Q 2034 3584 2315 3537 
Q 2597 3491 2834 3397 
z
" transform="scale(0.015625)"/>
       <path id="DejaVuSans-65" d="M 3597 1894 
L 3597 1613 
L 953 1613 
Q 991 1019 1311 708 
Q 1631 397 2203 397 
Q 2534 397 2845 478 
Q 3156 559 3463 722 
L 3463 178 
Q 3153 47 2828 -22 
Q 2503 -91 2169 -91 
Q 1331 -91 842 396 
Q 353 884 353 1716 
Q 353 2575 817 3079 
Q 1281 3584 2069 3584 
Q 2775 3584 3186 3129 
Q 3597 2675 3597 1894 
z
M 3022 2063 
Q 3016 2534 2758 2815 
Q 2500 3097 2075 3097 
Q 1594 3097 1305 2825 
Q 1016 2553 972 2059 
L 3022 2063 
z
" transform="scale(0.015625)"/>
       <path id="DejaVuSans-20" transform="scale(0.015625)"/>
       <path id="DejaVuSans-50" d="M 1259 4147 
L 1259 2394 
L 2053 2394 
Q 2494 2394 2734 2622 
Q 2975 2850 2975 3272 
Q 2975 3691 2734 3919 
Q 2494 4147 2053 4147 
L 1259 4147 
z
M 628 4666 
L 2053 4666 
Q 2838 4666 3239 4311 
Q 3641 3956 3641 3272 
Q 3641 2581 3239 2228 
Q 2838 1875 2053 1875 
L 1259 1875 
L 1259 0 
L 628 0 
L 628 4666 
z
" transform="scale(0.015625)"/>
       <path id="DejaVuSans-6f" d="M 1959 3097 
Q 1497 3097 1228 2736 
Q 959 2375 959 1747 
Q 959 1119 1226 758 
Q 1494 397 1959 397 
Q 2419 397 2687 759 
Q 2956 1122 2956 1747 
Q 2956 2369 2687 2733 
Q 2419 3097 1959 3097 
z
M 1959 3584 
Q 2709 3584 3137 3096 
Q 3566 2609 3566 1747 
Q 3566 888 3137 398 
Q 2709 -91 1959 -91 
Q 1206 -91 779 398 
Q 353 888 353 1747 
Q 353 2609 779 3096 
Q 1206 3584 1959 3584 
z
" transform="scale(0.015625)"/>
       <path id="DejaVuSans-69" d="M 603 3500 
L 1178 3500 
L 1178 0 
L 603 0 
L 603 3500 
z
M 603 4863 
L 1178 4863 
L 1178 4134 
L 603 4134 
L 603 4863 
z
" transform="scale(0.015625)"/>
       <path id="DejaVuSans-74" d="M 1172 4494 
L 1172 3500 
L 2356 3500 
L 2356 3053 
L 1172 3053 
L 1172 1153 
Q 1172 725 1289 603 
Q 1406 481 1766 481 
L 2356 481 
L 2356 0 
L 1766 0 
Q 1100 0 847 248 
Q 594 497 594 1153 
L 594 3053 
L 172 3053 
L 172 3500 
L 594 3500 
L 594 4494 
L 1172 4494 
z
" transform="scale(0.015625)"/>
       <path id="DejaVuSans-76" d="M 191 3500 
L 800 3500 
L 1894 563 
L 2988 3500 
L 3597 3500 
L 2284 0 
L 1503 0 
L 191 3500 
z
" transform="scale(0.015625)"/>
       <path id="DejaVuSans-52" d="M 2841 2188 
Q 3044 2119 3236 1894 
Q 3428 1669 3622 1275 
L 4263 0 
L 3584 0 
L 2988 1197 
Q 2756 1666 2539 1819 
Q 2322 1972 1947 1972 
L 1259 1972 
L 1259 0 
L 628 0 
L 628 4666 
L 2053 4666 
Q 2853 4666 3247 4331 
Q 3641 3997 3641 3322 
Q 3641 2881 3436 2590 
Q 3231 2300 2841 2188 
z
M 1259 4147 
L 1259 2491 
L 2053 2491 
Q 2509 2491 2742 2702 
Q 2975 2913 2975 3322 
Q 2975 3731 2742 3939 
Q 2509 4147 2053 4147 
L 1259 4147 
z
" transform="scale(0.015625)"/>
      </defs>
      <use xlink:href="#DejaVuSans-46"/>
      <use xlink:href="#DejaVuSans-61" transform="translate(48.394531 0)"/>
      <use xlink:href="#DejaVuSans-6c" transform="translate(109.673828 0)"/>
      <use xlink:href="#DejaVuSans-73" transform="translate(137.457031 0)"/>
      <use xlink:href="#DejaVuSans-65" transform="translate(189.556641 0)"/>
      <use xlink:href="#DejaVuSans-20" transform="translate(251.080078 0)"/>
      <use xlink:href="#DejaVuSans-50" transform="translate(282.867188 0)"/>
      <use xlink:href="#DejaVuSans-6f" transform="translate(339.544922 0)"/>
      <use xlink:href="#DejaVuSans-73" transform="translate(400.726562 0)"/>
      <use xlink:href="#DejaVuSans-69" transform="translate(452.826172 0)"/>
      <use xlink:href="#DejaVuSans-74" transform="translate(480.609375 0)"/>
      <use xlink:href="#DejaVuSans-69" transform="translate(519.818359 0)"/>
      <use xlink:href="#DejaVuSans-76" transform="translate(547.601562 0)"/>
      <use xlink:href="#DejaVuSans-65" transform="translate(606.78125 0)"/>
      <use xlink:href="#DejaVuSans-20" transform="translate(668.304688 0)"/>
      <use xlink:href="#DejaVuSans-52" transform="translate(700.091797 0)"/>
      <use xlink:href="#DejaVuSans-61" transform="translate(767.324219 0)"/>
      <use xlink:href="#DejaVuSans-74" transform="translate(828.603516 0)"/>
      <use xlink:href="#DejaVuSans-65" transform="translate(867.8125 0)"/>
     </g>
    </g>
   </g>
   <g id="matplotlib.axis_2">
    <g id="ytick_1">
     <g id="line2d_7">
      <path d="M 43.78125 296.168858 
L 349.610308 296.168858 
" clip-path="url(#pcb1555d0cb)" style="fill: none; stroke-dasharray: 2.96,1.28; stroke-dashoffset: 0; stroke: #ffffff; stroke-opacity: 0.7; stroke-width: 0.8"/>
     </g>
     <g id="text_8">
      <!-- 0.0 -->
      <g style="fill: #262626" transform="translate(20.878125 299.968077) scale(0.1 -0.1)">
       <use xlink:href="#DejaVuSans-30"/>
       <use xlink:href="#DejaVuSans-2e" transform="translate(63.623047 0)"/>
       <use xlink:href="#DejaVuSans-30" transform="translate(95.410156 0)"/>
      </g>
     </g>
    </g>
    <g id="ytick_2">
     <g id="line2d_8">
      <path d="M 43.78125 244.46137 
L 349.610308 244.46137 
" clip-path="url(#pcb1555d0cb)" style="fill: none; stroke-dasharray: 2.96,1.28; stroke-dashoffset: 0; stroke: #ffffff; stroke-opacity: 0.7; stroke-width: 0.8"/>
     </g>
     <g id="text_9">
      <!-- 0.2 -->
      <g style="fill: #262626" transform="translate(20.878125 248.260589) scale(0.1 -0.1)">
       <use xlink:href="#DejaVuSans-30"/>
       <use xlink:href="#DejaVuSans-2e" transform="translate(63.623047 0)"/>
       <use xlink:href="#DejaVuSans-32" transform="translate(95.410156 0)"/>
      </g>
     </g>
    </g>
    <g id="ytick_3">
     <g id="line2d_9">
      <path d="M 43.78125 192.753882 
L 349.610308 192.753882 
" clip-path="url(#pcb1555d0cb)" style="fill: none; stroke-dasharray: 2.96,1.28; stroke-dashoffset: 0; stroke: #ffffff; stroke-opacity: 0.7; stroke-width: 0.8"/>
     </g>
     <g id="text_10">
      <!-- 0.4 -->
      <g style="fill: #262626" transform="translate(20.878125 196.553101) scale(0.1 -0.1)">
       <use xlink:href="#DejaVuSans-30"/>
       <use xlink:href="#DejaVuSans-2e" transform="translate(63.623047 0)"/>
       <use xlink:href="#DejaVuSans-34" transform="translate(95.410156 0)"/>
      </g>
     </g>
    </g>
    <g id="ytick_4">
     <g id="line2d_10">
      <path d="M 43.78125 141.046394 
L 349.610308 141.046394 
" clip-path="url(#pcb1555d0cb)" style="fill: none; stroke-dasharray: 2.96,1.28; stroke-dashoffset: 0; stroke: #ffffff; stroke-opacity: 0.7; stroke-width: 0.8"/>
     </g>
     <g id="text_11">
      <!-- 0.6 -->
      <g style="fill: #262626" transform="translate(20.878125 144.845613) scale(0.1 -0.1)">
       <use xlink:href="#DejaVuSans-30"/>
       <use xlink:href="#DejaVuSans-2e" transform="translate(63.623047 0)"/>
       <use xlink:href="#DejaVuSans-36" transform="translate(95.410156 0)"/>
      </g>
     </g>
    </g>
    <g id="ytick_5">
     <g id="line2d_11">
      <path d="M 43.78125 89.338906 
L 349.610308 89.338906 
" clip-path="url(#pcb1555d0cb)" style="fill: none; stroke-dasharray: 2.96,1.28; stroke-dashoffset: 0; stroke: #ffffff; stroke-opacity: 0.7; stroke-width: 0.8"/>
     </g>
     <g id="text_12">
      <!-- 0.8 -->
      <g style="fill: #262626" transform="translate(20.878125 93.138125) scale(0.1 -0.1)">
       <use xlink:href="#DejaVuSans-30"/>
       <use xlink:href="#DejaVuSans-2e" transform="translate(63.623047 0)"/>
       <use xlink:href="#DejaVuSans-38" transform="translate(95.410156 0)"/>
      </g>
     </g>
    </g>
    <g id="ytick_6">
     <g id="line2d_12">
      <path d="M 43.78125 37.631418 
L 349.610308 37.631418 
" clip-path="url(#pcb1555d0cb)" style="fill: none; stroke-dasharray: 2.96,1.28; stroke-dashoffset: 0; stroke: #ffffff; stroke-opacity: 0.7; stroke-width: 0.8"/>
     </g>
     <g id="text_13">
      <!-- 1.0 -->
      <g style="fill: #262626" transform="translate(20.878125 41.430637) scale(0.1 -0.1)">
       <use xlink:href="#DejaVuSans-31"/>
       <use xlink:href="#DejaVuSans-2e" transform="translate(63.623047 0)"/>
       <use xlink:href="#DejaVuSans-30" transform="translate(95.410156 0)"/>
      </g>
     </g>
    </g>
    <g id="text_14">
     <!-- True Positive Rate -->
     <g style="fill: #262626" transform="translate(14.798438 212.427813) rotate(-90) scale(0.1 -0.1)">
      <defs>
       <path id="DejaVuSans-54" d="M -19 4666 
L 3928 4666 
L 3928 4134 
L 2272 4134 
L 2272 0 
L 1638 0 
L 1638 4134 
L -19 4134 
L -19 4666 
z
" transform="scale(0.015625)"/>
       <path id="DejaVuSans-72" d="M 2631 2963 
Q 2534 3019 2420 3045 
Q 2306 3072 2169 3072 
Q 1681 3072 1420 2755 
Q 1159 2438 1159 1844 
L 1159 0 
L 581 0 
L 581 3500 
L 1159 3500 
L 1159 2956 
Q 1341 3275 1631 3429 
Q 1922 3584 2338 3584 
Q 2397 3584 2469 3576 
Q 2541 3569 2628 3553 
L 2631 2963 
z
" transform="scale(0.015625)"/>
       <path id="DejaVuSans-75" d="M 544 1381 
L 544 3500 
L 1119 3500 
L 1119 1403 
Q 1119 906 1312 657 
Q 1506 409 1894 409 
Q 2359 409 2629 706 
Q 2900 1003 2900 1516 
L 2900 3500 
L 3475 3500 
L 3475 0 
L 2900 0 
L 2900 538 
Q 2691 219 2414 64 
Q 2138 -91 1772 -91 
Q 1169 -91 856 284 
Q 544 659 544 1381 
z
M 1991 3584 
L 1991 3584 
z
" transform="scale(0.015625)"/>
      </defs>
      <use xlink:href="#DejaVuSans-54"/>
      <use xlink:href="#DejaVuSans-72" transform="translate(46.333984 0)"/>
      <use xlink:href="#DejaVuSans-75" transform="translate(87.447266 0)"/>
      <use xlink:href="#DejaVuSans-65" transform="translate(150.826172 0)"/>
      <use xlink:href="#DejaVuSans-20" transform="translate(212.349609 0)"/>
      <use xlink:href="#DejaVuSans-50" transform="translate(244.136719 0)"/>
      <use xlink:href="#DejaVuSans-6f" transform="translate(300.814453 0)"/>
      <use xlink:href="#DejaVuSans-73" transform="translate(361.996094 0)"/>
      <use xlink:href="#DejaVuSans-69" transform="translate(414.095703 0)"/>
      <use xlink:href="#DejaVuSans-74" transform="translate(441.878906 0)"/>
      <use xlink:href="#DejaVuSans-69" transform="translate(481.087891 0)"/>
      <use xlink:href="#DejaVuSans-76" transform="translate(508.871094 0)"/>
      <use xlink:href="#DejaVuSans-65" transform="translate(568.050781 0)"/>
      <use xlink:href="#DejaVuSans-20" transform="translate(629.574219 0)"/>
      <use xlink:href="#DejaVuSans-52" transform="translate(661.361328 0)"/>
      <use xlink:href="#DejaVuSans-61" transform="translate(728.59375 0)"/>
      <use xlink:href="#DejaVuSans-74" transform="translate(789.873047 0)"/>
      <use xlink:href="#DejaVuSans-65" transform="translate(829.082031 0)"/>
     </g>
    </g>
   </g>
   <g id="FillBetweenPolyCollection_1">
    <defs>
     <path id="m4d69eb3d25" d="M 57.682571 -110.242927 
L 57.682571 -50.790795 
L 60.490918 -62.952806 
L 63.299266 -73.602097 
L 66.107614 -84.041949 
L 68.915961 -93.061036 
L 71.724309 -100.941764 
L 74.532657 -112.129035 
L 77.341004 -121.273384 
L 80.149352 -130.078705 
L 82.9577 -137.164717 
L 85.766047 -143.315477 
L 88.574395 -149.036048 
L 91.382742 -154.610687 
L 94.19109 -160.281631 
L 96.999438 -165.473624 
L 99.807785 -170.429206 
L 102.616133 -175.554837 
L 105.424481 -181.093047 
L 108.232828 -185.362856 
L 111.041176 -190.135393 
L 113.849524 -194.232537 
L 116.657871 -198.661859 
L 119.466219 -202.066749 
L 122.274566 -205.182538 
L 125.082914 -208.152077 
L 127.891262 -211.567401 
L 130.699609 -214.272905 
L 133.507957 -216.821832 
L 136.316305 -219.255668 
L 139.124652 -221.558957 
L 141.933 -224.033489 
L 144.741348 -226.716392 
L 147.549695 -229.701122 
L 150.358043 -232.641991 
L 153.16639 -235.523251 
L 155.974738 -238.15922 
L 158.783086 -240.732767 
L 161.591433 -243.136261 
L 164.399781 -245.279777 
L 167.208129 -247.21653 
L 170.016476 -249.11304 
L 172.824824 -251.085659 
L 175.633172 -253.056725 
L 178.441519 -255.22162 
L 181.249867 -257.461206 
L 184.058214 -259.659168 
L 186.866562 -261.80877 
L 189.67491 -264.048485 
L 192.483257 -265.911336 
L 195.291605 -267.472212 
L 198.099953 -268.889183 
L 200.9083 -270.576559 
L 203.716648 -271.968265 
L 206.524996 -273.332942 
L 209.333343 -274.564021 
L 212.141691 -275.807674 
L 214.950038 -277.070875 
L 217.758386 -278.132845 
L 220.566734 -279.072972 
L 223.375081 -279.993602 
L 226.183429 -280.992202 
L 228.991777 -282.082006 
L 231.800124 -283.218404 
L 234.608472 -284.363433 
L 237.41682 -285.487866 
L 240.225167 -286.550454 
L 243.033515 -287.557943 
L 245.841862 -288.506721 
L 248.65021 -289.333921 
L 251.458558 -290.208368 
L 254.266905 -291.032844 
L 257.075253 -291.786202 
L 259.883601 -292.50396 
L 262.691948 -293.268048 
L 265.500296 -294.174533 
L 268.308644 -295.37535 
L 271.116991 -296.487878 
L 273.925339 -297.53138 
L 276.733686 -298.500646 
L 279.542034 -299.282411 
L 282.350382 -300.045493 
L 285.158729 -300.784644 
L 287.967077 -301.482326 
L 290.775425 -302.13115 
L 293.583772 -302.738537 
L 296.39212 -303.301517 
L 299.200468 -303.833933 
L 302.008815 -304.352643 
L 304.817163 -304.820666 
L 307.62551 -305.286485 
L 310.433858 -305.867277 
L 313.242206 -306.547263 
L 316.050553 -307.295644 
L 318.858901 -308.247579 
L 321.667249 -309.154428 
L 324.475596 -309.929419 
L 327.283944 -310.677816 
L 330.092292 -311.586196 
L 332.900639 -312.494577 
L 335.708987 -313.402957 
L 335.708987 -313.402957 
L 335.708987 -313.402957 
L 332.900639 -313.605271 
L 330.092292 -313.807584 
L 327.283944 -314.009898 
L 324.475596 -314.08729 
L 321.667249 -314.180841 
L 318.858901 -314.344642 
L 316.050553 -314.540353 
L 313.242206 -314.607102 
L 310.433858 -314.614939 
L 307.62551 -314.592366 
L 304.817163 -314.505667 
L 302.008815 -314.359458 
L 299.200468 -314.173917 
L 296.39212 -313.95919 
L 293.583772 -313.720327 
L 290.775425 -313.435563 
L 287.967077 -313.132578 
L 285.158729 -312.858498 
L 282.350382 -312.571499 
L 279.542034 -312.307908 
L 276.733686 -312.054153 
L 273.925339 -311.758793 
L 271.116991 -311.560248 
L 268.308644 -311.455979 
L 265.500296 -311.418462 
L 262.691948 -311.157777 
L 259.883601 -310.828646 
L 257.075253 -310.482832 
L 254.266905 -310.083061 
L 251.458558 -309.67468 
L 248.65021 -309.278547 
L 245.841862 -308.860819 
L 243.033515 -308.329807 
L 240.225167 -307.823425 
L 237.41682 -307.347577 
L 234.608472 -306.849168 
L 231.800124 -306.335982 
L 228.991777 -305.836069 
L 226.183429 -305.336226 
L 223.375081 -304.683559 
L 220.566734 -303.893455 
L 217.758386 -303.072769 
L 214.950038 -302.30279 
L 212.141691 -301.550371 
L 209.333343 -300.770793 
L 206.524996 -299.926211 
L 203.716648 -299.116753 
L 200.9083 -298.344549 
L 198.099953 -297.088226 
L 195.291605 -296.103842 
L 192.483257 -295.008496 
L 189.67491 -293.802696 
L 186.866562 -292.601967 
L 184.058214 -291.428883 
L 181.249867 -290.293878 
L 178.441519 -289.166474 
L 175.633172 -287.943773 
L 172.824824 -286.613616 
L 170.016476 -285.244266 
L 167.208129 -283.796065 
L 164.399781 -282.337751 
L 161.591433 -280.679565 
L 158.783086 -278.909585 
L 155.974738 -277.279208 
L 153.16639 -275.683561 
L 150.358043 -273.962679 
L 147.549695 -272.341749 
L 144.741348 -270.61347 
L 141.933 -268.907769 
L 139.124652 -267.166383 
L 136.316305 -265.396514 
L 133.507957 -263.705494 
L 130.699609 -261.839334 
L 127.891262 -259.871216 
L 125.082914 -257.466702 
L 122.274566 -254.527685 
L 119.466219 -251.262437 
L 116.657871 -248.816017 
L 113.849524 -246.507085 
L 111.041176 -244.440011 
L 108.232828 -242.190689 
L 105.424481 -239.464974 
L 102.616133 -236.101066 
L 99.807785 -232.320522 
L 96.999438 -227.756258 
L 94.19109 -222.505469 
L 91.382742 -217.170226 
L 88.574395 -212.250812 
L 85.766047 -207.561122 
L 82.9577 -201.925219 
L 80.149352 -195.642598 
L 77.341004 -188.522136 
L 74.532657 -180.829561 
L 71.724309 -169.342361 
L 68.915961 -158.346966 
L 66.107614 -149.164094 
L 63.299266 -132.986062 
L 60.490918 -120.858135 
L 57.682571 -110.242927 
z
" style="stroke: #ffffff; stroke-opacity: 0.2"/>
    </defs>
    <g clip-path="url(#pcb1555d0cb)">
     <use xlink:href="#m4d69eb3d25" x="0" y="351.034375" style="fill: #1f77b4; fill-opacity: 0.2; stroke: #ffffff; stroke-opacity: 0.2"/>
    </g>
   </g>
   <g id="FillBetweenPolyCollection_2">
    <defs>
     <path id="m278ff401d1" d="M 57.682571 -141.729646 
L 57.682571 -86.157872 
L 60.490918 -86.157872 
L 63.299266 -86.505235 
L 66.107614 -103.491496 
L 68.915961 -106.122615 
L 71.724309 -115.081579 
L 74.532657 -125.821129 
L 77.341004 -130.238216 
L 80.149352 -137.28673 
L 82.9577 -141.274842 
L 85.766047 -150.6946 
L 88.574395 -158.993987 
L 91.382742 -164.058966 
L 94.19109 -170.309312 
L 96.999438 -174.656213 
L 99.807785 -184.107413 
L 102.616133 -192.26704 
L 105.424481 -200.111251 
L 108.232828 -205.479983 
L 111.041176 -208.107926 
L 113.849524 -212.32392 
L 116.657871 -217.518457 
L 119.466219 -220.856797 
L 122.274566 -224.182094 
L 125.082914 -227.631409 
L 127.891262 -231.9418 
L 130.699609 -235.294557 
L 133.507957 -237.000546 
L 136.316305 -240.01993 
L 139.124652 -242.829148 
L 141.933 -246.118032 
L 144.741348 -247.594435 
L 147.549695 -248.487242 
L 150.358043 -251.753827 
L 153.16639 -252.704264 
L 155.974738 -255.193187 
L 158.783086 -256.360911 
L 161.591433 -258.205706 
L 164.399781 -260.061116 
L 167.208129 -261.736614 
L 170.016476 -263.47673 
L 172.824824 -264.652863 
L 175.633172 -267.963109 
L 178.441519 -269.213533 
L 181.249867 -270.65213 
L 184.058214 -271.489039 
L 186.866562 -272.535977 
L 189.67491 -273.824784 
L 192.483257 -274.387754 
L 195.291605 -275.080204 
L 198.099953 -276.425592 
L 200.9083 -277.488306 
L 203.716648 -278.464382 
L 206.524996 -278.712029 
L 209.333343 -280.898661 
L 212.141691 -281.088387 
L 214.950038 -281.616843 
L 217.758386 -282.739131 
L 220.566734 -283.287398 
L 223.375081 -284.291287 
L 226.183429 -285.233305 
L 228.991777 -285.822228 
L 231.800124 -287.669824 
L 234.608472 -288.946632 
L 237.41682 -289.576778 
L 240.225167 -290.247201 
L 243.033515 -291.677479 
L 245.841862 -292.332782 
L 248.65021 -292.921607 
L 251.458558 -293.448245 
L 254.266905 -294.652629 
L 257.075253 -295.596922 
L 259.883601 -297.133864 
L 262.691948 -298.312213 
L 265.500296 -298.742468 
L 268.308644 -299.42339 
L 271.116991 -301.056678 
L 273.925339 -302.319295 
L 276.733686 -303.068446 
L 279.542034 -303.506563 
L 282.350382 -303.74056 
L 285.158729 -304.498955 
L 287.967077 -304.974352 
L 290.775425 -305.385094 
L 293.583772 -305.91109 
L 296.39212 -306.510844 
L 299.200468 -307.015995 
L 302.008815 -307.26416 
L 304.817163 -307.7919 
L 307.62551 -307.957227 
L 310.433858 -308.485671 
L 313.242206 -308.653114 
L 316.050553 -308.971857 
L 318.858901 -309.265929 
L 321.667249 -309.364993 
L 324.475596 -310.383356 
L 327.283944 -310.485317 
L 330.092292 -312.410459 
L 332.900639 -312.410459 
L 335.708987 -313.402957 
L 335.708987 -313.402957 
L 335.708987 -313.402957 
L 332.900639 -314.148669 
L 330.092292 -314.148669 
L 327.283944 -315.191091 
L 324.475596 -315.185329 
L 321.667249 -315.35245 
L 318.858901 -315.331264 
L 316.050553 -315.481705 
L 313.242206 -315.405676 
L 310.433858 -315.340462 
L 307.62551 -315.334909 
L 304.817163 -315.25401 
L 302.008815 -315.046305 
L 299.200468 -314.900788 
L 296.39212 -314.90429 
L 293.583772 -314.724025 
L 290.775425 -314.575961 
L 287.967077 -314.327318 
L 285.158729 -314.302502 
L 282.350382 -314.311308 
L 279.542034 -314.154184 
L 276.733686 -313.932332 
L 273.925339 -313.795954 
L 271.116991 -313.35405 
L 268.308644 -313.541437 
L 265.500296 -313.36117 
L 262.691948 -313.091013 
L 259.883601 -312.987467 
L 257.075253 -312.684246 
L 254.266905 -312.687276 
L 251.458558 -311.962542 
L 248.65021 -311.840002 
L 245.841862 -311.247257 
L 243.033515 -310.882346 
L 240.225167 -310.473003 
L 237.41682 -309.979169 
L 234.608472 -309.77156 
L 231.800124 -309.408278 
L 228.991777 -309.35933 
L 226.183429 -308.943589 
L 223.375081 -307.851968 
L 220.566734 -306.824493 
L 217.758386 -305.916101 
L 214.950038 -305.778458 
L 212.141691 -305.159144 
L 209.333343 -304.665593 
L 206.524996 -304.654885 
L 203.716648 -304.271802 
L 200.9083 -304.193317 
L 198.099953 -303.586432 
L 195.291605 -302.987755 
L 192.483257 -302.081749 
L 189.67491 -301.704308 
L 186.866562 -301.526262 
L 184.058214 -301.013821 
L 181.249867 -300.855478 
L 178.441519 -300.151821 
L 175.633172 -299.178563 
L 172.824824 -299.069068 
L 170.016476 -298.898074 
L 167.208129 -297.807394 
L 164.399781 -297.957527 
L 161.591433 -296.901912 
L 158.783086 -295.609909 
L 155.974738 -293.802254 
L 153.16639 -293.768975 
L 150.358043 -293.379574 
L 147.549695 -290.879943 
L 144.741348 -289.55419 
L 141.933 -288.105971 
L 139.124652 -286.884857 
L 136.316305 -285.602112 
L 133.507957 -283.645261 
L 130.699609 -282.267539 
L 127.891262 -280.805965 
L 125.082914 -279.377165 
L 122.274566 -277.937715 
L 119.466219 -274.116019 
L 116.657871 -272.29551 
L 113.849524 -268.137312 
L 111.041176 -262.902775 
L 108.232828 -260.590514 
L 105.424481 -256.490622 
L 102.616133 -254.070725 
L 99.807785 -249.854818 
L 96.999438 -243.477972 
L 94.19109 -238.349641 
L 91.382742 -232.629921 
L 88.574395 -225.493715 
L 85.766047 -217.455073 
L 82.9577 -210.147081 
L 80.149352 -202.154495 
L 77.341004 -196.43233 
L 74.532657 -188.204851 
L 71.724309 -177.702964 
L 68.915961 -166.072145 
L 66.107614 -165.454398 
L 63.299266 -142.244074 
L 60.490918 -141.729646 
L 57.682571 -141.729646 
z
" style="stroke: #ffffff; stroke-opacity: 0.2"/>
    </defs>
    <g clip-path="url(#pcb1555d0cb)">
     <use xlink:href="#m278ff401d1" x="0" y="351.034375" style="fill: #ff7f0e; fill-opacity: 0.2; stroke: #ffffff; stroke-opacity: 0.2"/>
    </g>
   </g>
   <g id="FillBetweenPolyCollection_3">
    <defs>
     <path id="m3dc4df839f" d="M 57.682571 -313.650475 
L 57.682571 -286.317348 
L 60.490918 -286.317348 
L 63.299266 -287.418295 
L 66.107614 -298.139448 
L 68.915961 -299.252467 
L 71.724309 -300.30608 
L 74.532657 -301.34429 
L 77.341004 -301.641528 
L 80.149352 -302.393015 
L 82.9577 -303.31519 
L 85.766047 -304.480058 
L 88.574395 -304.480058 
L 91.382742 -304.867859 
L 94.19109 -305.791843 
L 96.999438 -305.932901 
L 99.807785 -306.008981 
L 102.616133 -306.786803 
L 105.424481 -307.715988 
L 108.232828 -307.796849 
L 111.041176 -307.875642 
L 113.849524 -307.949551 
L 116.657871 -308.030708 
L 119.466219 -308.347206 
L 122.274566 -309.32219 
L 125.082914 -309.32219 
L 127.891262 -309.529988 
L 130.699609 -309.858718 
L 133.507957 -310.139377 
L 136.316305 -310.264848 
L 139.124652 -310.264848 
L 141.933 -310.399304 
L 144.741348 -310.399304 
L 147.549695 -310.755735 
L 150.358043 -310.755735 
L 153.16639 -311.085902 
L 155.974738 -311.216934 
L 158.783086 -311.216934 
L 161.591433 -311.593895 
L 164.399781 -312.036353 
L 167.208129 -312.345665 
L 170.016476 -312.345665 
L 172.824824 -312.345665 
L 175.633172 -312.345665 
L 178.441519 -312.345665 
L 181.249867 -312.810475 
L 184.058214 -312.810475 
L 186.866562 -312.810475 
L 189.67491 -312.810475 
L 192.483257 -312.810475 
L 195.291605 -312.810475 
L 198.099953 -313.402957 
L 200.9083 -313.402957 
L 203.716648 -313.402957 
L 206.524996 -313.402957 
L 209.333343 -313.402957 
L 212.141691 -313.402957 
L 214.950038 -313.402957 
L 217.758386 -313.402957 
L 220.566734 -313.402957 
L 223.375081 -313.402957 
L 226.183429 -313.402957 
L 228.991777 -313.402957 
L 231.800124 -313.402957 
L 234.608472 -313.402957 
L 237.41682 -313.402957 
L 240.225167 -313.402957 
L 243.033515 -313.402957 
L 245.841862 -313.402957 
L 248.65021 -313.402957 
L 251.458558 -313.402957 
L 254.266905 -313.402957 
L 257.075253 -313.402957 
L 259.883601 -313.402957 
L 262.691948 -313.402957 
L 265.500296 -313.402957 
L 268.308644 -313.402957 
L 271.116991 -313.402957 
L 273.925339 -313.402957 
L 276.733686 -313.402957 
L 279.542034 -313.402957 
L 282.350382 -313.402957 
L 285.158729 -313.402957 
L 287.967077 -313.402957 
L 290.775425 -313.402957 
L 293.583772 -313.402957 
L 296.39212 -313.402957 
L 299.200468 -313.402957 
L 302.008815 -313.402957 
L 304.817163 -313.402957 
L 307.62551 -313.402957 
L 310.433858 -313.402957 
L 313.242206 -313.402957 
L 316.050553 -313.402957 
L 318.858901 -313.402957 
L 321.667249 -313.402957 
L 324.475596 -313.402957 
L 327.283944 -313.402957 
L 330.092292 -313.402957 
L 332.900639 -313.402957 
L 335.708987 -313.402957 
L 335.708987 -313.402957 
L 335.708987 -313.402957 
L 332.900639 -313.402957 
L 330.092292 -313.402957 
L 327.283944 -313.402957 
L 324.475596 -313.402957 
L 321.667249 -313.402957 
L 318.858901 -313.402957 
L 316.050553 -313.402957 
L 313.242206 -313.402957 
L 310.433858 -313.402957 
L 307.62551 -313.402957 
L 304.817163 -313.402957 
L 302.008815 -313.402957 
L 299.200468 -313.402957 
L 296.39212 -313.402957 
L 293.583772 -313.402957 
L 290.775425 -313.402957 
L 287.967077 -313.402957 
L 285.158729 -313.402957 
L 282.350382 -313.402957 
L 279.542034 -313.402957 
L 276.733686 -313.402957 
L 273.925339 -313.402957 
L 271.116991 -313.402957 
L 268.308644 -313.402957 
L 265.500296 -313.402957 
L 262.691948 -313.402957 
L 259.883601 -313.402957 
L 257.075253 -313.402957 
L 254.266905 -313.402957 
L 251.458558 -313.402957 
L 248.65021 -313.402957 
L 245.841862 -313.402957 
L 243.033515 -313.402957 
L 240.225167 -313.402957 
L 237.41682 -313.402957 
L 234.608472 -313.402957 
L 231.800124 -313.402957 
L 228.991777 -313.402957 
L 226.183429 -313.402957 
L 223.375081 -313.402957 
L 220.566734 -313.402957 
L 217.758386 -313.402957 
L 214.950038 -313.402957 
L 212.141691 -313.402957 
L 209.333343 -313.402957 
L 206.524996 -313.402957 
L 203.716648 -313.402957 
L 200.9083 -313.402957 
L 198.099953 -313.402957 
L 195.291605 -313.887715 
L 192.483257 -313.887715 
L 189.67491 -313.887715 
L 186.866562 -313.887715 
L 184.058214 -313.887715 
L 181.249867 -313.887715 
L 178.441519 -314.200444 
L 175.633172 -314.200444 
L 172.824824 -314.200444 
L 170.016476 -314.200444 
L 167.208129 -314.200444 
L 164.399781 -314.366124 
L 161.591433 -314.543241 
L 158.783086 -314.655036 
L 155.974738 -314.655036 
L 153.16639 -314.67366 
L 150.358043 -314.737082 
L 147.549695 -314.737082 
L 144.741348 -314.960929 
L 141.933 -314.960929 
L 139.124652 -314.966117 
L 136.316305 -314.966117 
L 133.507957 -314.965471 
L 130.699609 -314.969916 
L 127.891262 -314.929084 
L 125.082914 -314.890097 
L 122.274566 -314.890097 
L 119.466219 -314.930598 
L 116.657871 -314.830941 
L 113.849524 -314.788985 
L 111.041176 -314.745377 
L 108.232828 -314.701057 
L 105.424481 -314.655802 
L 102.616133 -314.950259 
L 99.807785 -315.129791 
L 96.999438 -315.069798 
L 94.19109 -314.947994 
L 91.382742 -315.05216 
L 88.574395 -314.939323 
L 85.766047 -314.939323 
L 82.9577 -315.089579 
L 80.149352 -315.312293 
L 77.341004 -315.241602 
L 74.532657 -314.973518 
L 71.724309 -314.559908 
L 68.915961 -314.691891 
L 66.107614 -315.042226 
L 63.299266 -313.066602 
L 60.490918 -313.650475 
L 57.682571 -313.650475 
z
" style="stroke: #ffffff; stroke-opacity: 0.2"/>
    </defs>
    <g clip-path="url(#pcb1555d0cb)">
     <use xlink:href="#m3dc4df839f" x="0" y="351.034375" style="fill: #2ca02c; fill-opacity: 0.2; stroke: #ffffff; stroke-opacity: 0.2"/>
    </g>
   </g>
   <g id="line2d_13">
    <path d="M 57.682571 270.517514 
L 60.490918 259.128904 
L 63.299266 247.740295 
L 66.107614 234.431354 
L 68.915961 225.330374 
L 71.724309 215.892313 
L 74.532657 204.555077 
L 77.341004 196.136615 
L 80.149352 188.173724 
L 82.9577 181.489407 
L 85.766047 175.596075 
L 88.574395 170.390945 
L 91.382742 165.143918 
L 94.19109 159.640825 
L 96.999438 154.419434 
L 99.807785 149.659511 
L 102.616133 145.206424 
L 105.424481 140.755365 
L 108.232828 137.257603 
L 111.041176 133.746673 
L 113.849524 130.664564 
L 116.657871 127.295437 
L 119.466219 124.369782 
L 122.274566 121.179263 
L 125.082914 118.224985 
L 127.891262 115.315067 
L 130.699609 112.978255 
L 133.507957 110.770712 
L 136.316305 108.708284 
L 139.124652 106.671705 
L 141.933 104.563746 
L 144.741348 102.369444 
L 147.549695 100.012939 
L 150.358043 97.73204 
L 153.16639 95.430969 
L 155.974738 93.315161 
L 158.783086 91.213199 
L 161.591433 89.126462 
L 164.399781 87.225611 
L 167.208129 85.528078 
L 170.016476 83.855722 
L 172.824824 82.184737 
L 175.633172 80.534126 
L 178.441519 78.840328 
L 181.249867 77.156833 
L 184.058214 75.49035 
L 186.866562 73.829006 
L 189.67491 72.108784 
L 192.483257 70.574459 
L 195.291605 69.246348 
L 198.099953 68.04567 
L 200.9083 66.573821 
L 203.716648 65.491866 
L 206.524996 64.404799 
L 209.333343 63.366968 
L 212.141691 62.355353 
L 214.950038 61.347542 
L 217.758386 60.431568 
L 220.566734 59.551162 
L 223.375081 58.695795 
L 226.183429 57.870161 
L 228.991777 57.075337 
L 231.800124 56.257182 
L 234.608472 55.428074 
L 237.41682 54.616653 
L 240.225167 53.847435 
L 243.033515 53.0905 
L 245.841862 52.350605 
L 248.65021 51.728141 
L 251.458558 51.092851 
L 254.266905 50.476422 
L 257.075253 49.899858 
L 259.883601 49.368072 
L 262.691948 48.821462 
L 265.500296 48.237878 
L 268.308644 47.618711 
L 271.116991 47.010312 
L 273.925339 46.389289 
L 276.733686 45.756976 
L 279.542034 45.239216 
L 282.350382 44.725879 
L 285.158729 44.212804 
L 287.967077 43.726923 
L 290.775425 43.251018 
L 293.583772 42.804943 
L 296.39212 42.404022 
L 299.200468 42.03045 
L 302.008815 41.678325 
L 304.817163 41.371208 
L 307.62551 41.09495 
L 310.433858 40.793267 
L 313.242206 40.457193 
L 316.050553 40.116377 
L 318.858901 39.738265 
L 321.667249 39.36674 
L 324.475596 39.02602 
L 327.283944 38.690518 
L 330.092292 38.337485 
L 332.900639 37.984451 
L 335.708987 37.631418 
" clip-path="url(#pcb1555d0cb)" style="fill: none; stroke: #1f77b4; stroke-width: 1.5; stroke-linecap: round"/>
   </g>
   <g id="line2d_14">
    <path d="M 57.682571 237.090616 
L 60.490918 237.090616 
L 63.299266 236.659721 
L 66.107614 216.561428 
L 68.915961 214.936995 
L 71.724309 204.642103 
L 74.532657 194.021385 
L 77.341004 187.699102 
L 80.149352 181.313762 
L 82.9577 175.323414 
L 85.766047 166.959539 
L 88.574395 158.790524 
L 91.382742 152.689932 
L 94.19109 146.704899 
L 96.999438 141.967282 
L 99.807785 134.05326 
L 102.616133 127.865493 
L 105.424481 122.733438 
L 108.232828 117.999126 
L 111.041176 115.529025 
L 113.849524 110.803759 
L 116.657871 106.127392 
L 119.466219 103.547967 
L 122.274566 99.974471 
L 125.082914 97.530088 
L 127.891262 94.660493 
L 130.699609 92.253327 
L 133.507957 90.711472 
L 136.316305 88.223354 
L 139.124652 86.177372 
L 141.933 83.922373 
L 144.741348 82.460063 
L 147.549695 81.350782 
L 150.358043 78.467674 
L 153.16639 77.797756 
L 155.974738 76.536654 
L 158.783086 75.048965 
L 161.591433 73.480566 
L 164.399781 72.025054 
L 167.208129 71.262371 
L 170.016476 69.846973 
L 172.824824 69.17341 
L 175.633172 67.463539 
L 178.441519 66.351698 
L 181.249867 65.280571 
L 184.058214 64.782945 
L 186.866562 64.003255 
L 189.67491 63.269829 
L 192.483257 62.799623 
L 195.291605 62.000395 
L 198.099953 61.028363 
L 200.9083 60.193563 
L 203.716648 59.666283 
L 206.524996 59.350918 
L 209.333343 58.252248 
L 212.141691 57.910609 
L 214.950038 57.336725 
L 217.758386 56.706759 
L 220.566734 55.978429 
L 223.375081 54.962748 
L 226.183429 53.945928 
L 228.991777 53.443596 
L 231.800124 52.495324 
L 234.608472 51.675279 
L 237.41682 51.256402 
L 240.225167 50.674273 
L 243.033515 49.754462 
L 245.841862 49.244356 
L 248.65021 48.653571 
L 251.458558 48.328981 
L 254.266905 47.364423 
L 257.075253 46.893791 
L 259.883601 45.973709 
L 262.691948 45.332762 
L 265.500296 44.982556 
L 268.308644 44.551962 
L 271.116991 43.829011 
L 273.925339 42.97675 
L 276.733686 42.533986 
L 279.542034 42.204001 
L 282.350382 42.008441 
L 285.158729 41.633646 
L 287.967077 41.38354 
L 290.775425 41.053848 
L 293.583772 40.716818 
L 296.39212 40.326808 
L 299.200468 40.075983 
L 302.008815 39.879142 
L 304.817163 39.51142 
L 307.62551 39.388307 
L 310.433858 39.121309 
L 313.242206 39.00498 
L 316.050553 38.807594 
L 318.858901 38.735778 
L 321.667249 38.675653 
L 324.475596 38.250033 
L 327.283944 38.196171 
L 330.092292 37.754811 
L 332.900639 37.754811 
L 335.708987 37.631418 
" clip-path="url(#pcb1555d0cb)" style="fill: none; stroke: #ff7f0e; stroke-width: 1.5; stroke-linecap: round"/>
   </g>
   <g id="line2d_15">
    <path d="M 57.682571 51.050464 
L 60.490918 51.050464 
L 63.299266 50.791926 
L 66.107614 44.443538 
L 68.915961 44.062196 
L 71.724309 43.601381 
L 74.532657 42.875471 
L 77.341004 42.59281 
L 80.149352 42.181721 
L 82.9577 41.83199 
L 85.766047 41.324685 
L 88.574395 41.324685 
L 91.382742 41.074366 
L 94.19109 40.664457 
L 96.999438 40.533025 
L 99.807785 40.464989 
L 102.616133 40.165844 
L 105.424481 39.84848 
L 108.232828 39.785422 
L 111.041176 39.723865 
L 113.849524 39.665107 
L 116.657871 39.60355 
L 119.466219 39.395473 
L 122.274566 38.928232 
L 125.082914 38.928232 
L 127.891262 38.804839 
L 130.699609 38.620058 
L 133.507957 38.481951 
L 136.316305 38.418893 
L 139.124652 38.418893 
L 141.933 38.354258 
L 144.741348 38.354258 
L 147.549695 38.287967 
L 150.358043 38.287967 
L 153.16639 38.154594 
L 155.974738 38.09839 
L 158.783086 38.09839 
L 161.591433 37.965807 
L 164.399781 37.833137 
L 167.208129 37.761321 
L 170.016476 37.761321 
L 172.824824 37.761321 
L 175.633172 37.761321 
L 178.441519 37.761321 
L 181.249867 37.68528 
L 184.058214 37.68528 
L 186.866562 37.68528 
L 189.67491 37.68528 
L 192.483257 37.68528 
L 195.291605 37.68528 
L 198.099953 37.631418 
L 200.9083 37.631418 
L 203.716648 37.631418 
L 206.524996 37.631418 
L 209.333343 37.631418 
L 212.141691 37.631418 
L 214.950038 37.631418 
L 217.758386 37.631418 
L 220.566734 37.631418 
L 223.375081 37.631418 
L 226.183429 37.631418 
L 228.991777 37.631418 
L 231.800124 37.631418 
L 234.608472 37.631418 
L 237.41682 37.631418 
L 240.225167 37.631418 
L 243.033515 37.631418 
L 245.841862 37.631418 
L 248.65021 37.631418 
L 251.458558 37.631418 
L 254.266905 37.631418 
L 257.075253 37.631418 
L 259.883601 37.631418 
L 262.691948 37.631418 
L 265.500296 37.631418 
L 268.308644 37.631418 
L 271.116991 37.631418 
L 273.925339 37.631418 
L 276.733686 37.631418 
L 279.542034 37.631418 
L 282.350382 37.631418 
L 285.158729 37.631418 
L 287.967077 37.631418 
L 290.775425 37.631418 
L 293.583772 37.631418 
L 296.39212 37.631418 
L 299.200468 37.631418 
L 302.008815 37.631418 
L 304.817163 37.631418 
L 307.62551 37.631418 
L 310.433858 37.631418 
L 313.242206 37.631418 
L 316.050553 37.631418 
L 318.858901 37.631418 
L 321.667249 37.631418 
L 324.475596 37.631418 
L 327.283944 37.631418 
L 330.092292 37.631418 
L 332.900639 37.631418 
L 335.708987 37.631418 
" clip-path="url(#pcb1555d0cb)" style="fill: none; stroke: #2ca02c; stroke-width: 1.5; stroke-linecap: round"/>
   </g>
   <g id="line2d_16">
    <path d="M 57.682571 296.168858 
L 335.708987 37.631418 
" clip-path="url(#pcb1555d0cb)" style="fill: none; stroke-dasharray: 7.4,3.2; stroke-dashoffset: 0; stroke: #000000; stroke-width: 2"/>
   </g>
   <g id="patch_3">
    <path d="M 43.78125 313.478125 
L 43.78125 22.318125 
" style="fill: none; stroke: #ffffff; stroke-width: 0.8; stroke-linejoin: miter; stroke-linecap: square"/>
   </g>
   <g id="patch_4">
    <path d="M 349.610308 313.478125 
L 349.610308 22.318125 
" style="fill: none; stroke: #ffffff; stroke-width: 0.8; stroke-linejoin: miter; stroke-linecap: square"/>
   </g>
   <g id="patch_5">
    <path d="M 43.78125 313.478125 
L 349.610308 313.478125 
" style="fill: none; stroke: #ffffff; stroke-width: 0.8; stroke-linejoin: miter; stroke-linecap: square"/>
   </g>
   <g id="patch_6">
    <path d="M 43.78125 22.318125 
L 349.610308 22.318125 
" style="fill: none; stroke: #ffffff; stroke-width: 0.8; stroke-linejoin: miter; stroke-linecap: square"/>
   </g>
   <g id="text_15">
    <!-- 10% Noise ROC Curve Comparison -->
    <g style="fill: #262626" transform="translate(92.380154 16.318125) scale(0.12 -0.12)">
     <defs>
      <path id="DejaVuSans-25" d="M 4653 2053 
Q 4381 2053 4226 1822 
Q 4072 1591 4072 1178 
Q 4072 772 4226 539 
Q 4381 306 4653 306 
Q 4919 306 5073 539 
Q 5228 772 5228 1178 
Q 5228 1588 5073 1820 
Q 4919 2053 4653 2053 
z
M 4653 2450 
Q 5147 2450 5437 2106 
Q 5728 1763 5728 1178 
Q 5728 594 5436 251 
Q 5144 -91 4653 -91 
Q 4153 -91 3862 251 
Q 3572 594 3572 1178 
Q 3572 1766 3864 2108 
Q 4156 2450 4653 2450 
z
M 1428 4353 
Q 1159 4353 1004 4120 
Q 850 3888 850 3481 
Q 850 3069 1003 2837 
Q 1156 2606 1428 2606 
Q 1700 2606 1854 2837 
Q 2009 3069 2009 3481 
Q 2009 3884 1853 4118 
Q 1697 4353 1428 4353 
z
M 4250 4750 
L 4750 4750 
L 1831 -91 
L 1331 -91 
L 4250 4750 
z
M 1428 4750 
Q 1922 4750 2215 4408 
Q 2509 4066 2509 3481 
Q 2509 2891 2217 2550 
Q 1925 2209 1428 2209 
Q 931 2209 642 2551 
Q 353 2894 353 3481 
Q 353 4063 643 4406 
Q 934 4750 1428 4750 
z
" transform="scale(0.015625)"/>
      <path id="DejaVuSans-4e" d="M 628 4666 
L 1478 4666 
L 3547 763 
L 3547 4666 
L 4159 4666 
L 4159 0 
L 3309 0 
L 1241 3903 
L 1241 0 
L 628 0 
L 628 4666 
z
" transform="scale(0.015625)"/>
      <path id="DejaVuSans-4f" d="M 2522 4238 
Q 1834 4238 1429 3725 
Q 1025 3213 1025 2328 
Q 1025 1447 1429 934 
Q 1834 422 2522 422 
Q 3209 422 3611 934 
Q 4013 1447 4013 2328 
Q 4013 3213 3611 3725 
Q 3209 4238 2522 4238 
z
M 2522 4750 
Q 3503 4750 4090 4092 
Q 4678 3434 4678 2328 
Q 4678 1225 4090 567 
Q 3503 -91 2522 -91 
Q 1538 -91 948 565 
Q 359 1222 359 2328 
Q 359 3434 948 4092 
Q 1538 4750 2522 4750 
z
" transform="scale(0.015625)"/>
      <path id="DejaVuSans-43" d="M 4122 4306 
L 4122 3641 
Q 3803 3938 3442 4084 
Q 3081 4231 2675 4231 
Q 1875 4231 1450 3742 
Q 1025 3253 1025 2328 
Q 1025 1406 1450 917 
Q 1875 428 2675 428 
Q 3081 428 3442 575 
Q 3803 722 4122 1019 
L 4122 359 
Q 3791 134 3420 21 
Q 3050 -91 2638 -91 
Q 1578 -91 968 557 
Q 359 1206 359 2328 
Q 359 3453 968 4101 
Q 1578 4750 2638 4750 
Q 3056 4750 3426 4639 
Q 3797 4528 4122 4306 
z
" transform="scale(0.015625)"/>
      <path id="DejaVuSans-6d" d="M 3328 2828 
Q 3544 3216 3844 3400 
Q 4144 3584 4550 3584 
Q 5097 3584 5394 3201 
Q 5691 2819 5691 2113 
L 5691 0 
L 5113 0 
L 5113 2094 
Q 5113 2597 4934 2840 
Q 4756 3084 4391 3084 
Q 3944 3084 3684 2787 
Q 3425 2491 3425 1978 
L 3425 0 
L 2847 0 
L 2847 2094 
Q 2847 2600 2669 2842 
Q 2491 3084 2119 3084 
Q 1678 3084 1418 2786 
Q 1159 2488 1159 1978 
L 1159 0 
L 581 0 
L 581 3500 
L 1159 3500 
L 1159 2956 
Q 1356 3278 1631 3431 
Q 1906 3584 2284 3584 
Q 2666 3584 2933 3390 
Q 3200 3197 3328 2828 
z
" transform="scale(0.015625)"/>
      <path id="DejaVuSans-70" d="M 1159 525 
L 1159 -1331 
L 581 -1331 
L 581 3500 
L 1159 3500 
L 1159 2969 
Q 1341 3281 1617 3432 
Q 1894 3584 2278 3584 
Q 2916 3584 3314 3078 
Q 3713 2572 3713 1747 
Q 3713 922 3314 415 
Q 2916 -91 2278 -91 
Q 1894 -91 1617 61 
Q 1341 213 1159 525 
z
M 3116 1747 
Q 3116 2381 2855 2742 
Q 2594 3103 2138 3103 
Q 1681 3103 1420 2742 
Q 1159 2381 1159 1747 
Q 1159 1113 1420 752 
Q 1681 391 2138 391 
Q 2594 391 2855 752 
Q 3116 1113 3116 1747 
z
" transform="scale(0.015625)"/>
      <path id="DejaVuSans-6e" d="M 3513 2113 
L 3513 0 
L 2938 0 
L 2938 2094 
Q 2938 2591 2744 2837 
Q 2550 3084 2163 3084 
Q 1697 3084 1428 2787 
Q 1159 2491 1159 1978 
L 1159 0 
L 581 0 
L 581 3500 
L 1159 3500 
L 1159 2956 
Q 1366 3272 1645 3428 
Q 1925 3584 2291 3584 
Q 2894 3584 3203 3211 
Q 3513 2838 3513 2113 
z
" transform="scale(0.015625)"/>
     </defs>
     <use xlink:href="#DejaVuSans-31"/>
     <use xlink:href="#DejaVuSans-30" transform="translate(63.623047 0)"/>
     <use xlink:href="#DejaVuSans-25" transform="translate(127.246094 0)"/>
     <use xlink:href="#DejaVuSans-20" transform="translate(222.265625 0)"/>
     <use xlink:href="#DejaVuSans-4e" transform="translate(254.052734 0)"/>
     <use xlink:href="#DejaVuSans-6f" transform="translate(328.857422 0)"/>
     <use xlink:href="#DejaVuSans-69" transform="translate(390.039062 0)"/>
     <use xlink:href="#DejaVuSans-73" transform="translate(417.822266 0)"/>
     <use xlink:href="#DejaVuSans-65" transform="translate(469.921875 0)"/>
     <use xlink:href="#DejaVuSans-20" transform="translate(531.445312 0)"/>
     <use xlink:href="#DejaVuSans-52" transform="translate(563.232422 0)"/>
     <use xlink:href="#DejaVuSans-4f" transform="translate(632.714844 0)"/>
     <use xlink:href="#DejaVuSans-43" transform="translate(711.425781 0)"/>
     <use xlink:href="#DejaVuSans-20" transform="translate(781.25 0)"/>
     <use xlink:href="#DejaVuSans-43" transform="translate(813.037109 0)"/>
     <use xlink:href="#DejaVuSans-75" transform="translate(882.861328 0)"/>
     <use xlink:href="#DejaVuSans-72" transform="translate(946.240234 0)"/>
     <use xlink:href="#DejaVuSans-76" transform="translate(987.353516 0)"/>
     <use xlink:href="#DejaVuSans-65" transform="translate(1046.533203 0)"/>
     <use xlink:href="#DejaVuSans-20" transform="translate(1108.056641 0)"/>
     <use xlink:href="#DejaVuSans-43" transform="translate(1139.84375 0)"/>
     <use xlink:href="#DejaVuSans-6f" transform="translate(1209.667969 0)"/>
     <use xlink:href="#DejaVuSans-6d" transform="translate(1270.849609 0)"/>
     <use xlink:href="#DejaVuSans-70" transform="translate(1368.261719 0)"/>
     <use xlink:href="#DejaVuSans-61" transform="translate(1431.738281 0)"/>
     <use xlink:href="#DejaVuSans-72" transform="translate(1493.017578 0)"/>
     <use xlink:href="#DejaVuSans-69" transform="translate(1534.130859 0)"/>
     <use xlink:href="#DejaVuSans-73" transform="translate(1561.914062 0)"/>
     <use xlink:href="#DejaVuSans-6f" transform="translate(1614.013672 0)"/>
     <use xlink:href="#DejaVuSans-6e" transform="translate(1675.195312 0)"/>
    </g>
   </g>
   <g id="legend_1">
    <g id="patch_7">
     <path d="M 356.610308 198.765313 
L 558.910308 198.765313 
Q 560.910308 198.765313 560.910308 196.765313 
L 560.910308 139.030938 
Q 560.910308 137.030938 558.910308 137.030938 
L 356.610308 137.030938 
Q 354.610308 137.030938 354.610308 139.030938 
L 354.610308 196.765313 
Q 354.610308 198.765313 356.610308 198.765313 
z
" style="fill: #eaeaf2; opacity: 0.8; stroke: #cccccc; stroke-linejoin: miter"/>
    </g>
    <g id="line2d_17">
     <path d="M 358.610308 145.130938 
L 368.610308 145.130938 
L 378.610308 145.130938 
" style="fill: none; stroke: #1f77b4; stroke-width: 1.5; stroke-linecap: round"/>
    </g>
    <g id="text_16">
     <!-- Bagging (AUC$ = 0.80 \pm  0.05$) -->
     <g style="fill: #262626" transform="translate(386.610308 148.630938) scale(0.1 -0.1)">
      <defs>
       <path id="DejaVuSans-42" d="M 1259 2228 
L 1259 519 
L 2272 519 
Q 2781 519 3026 730 
Q 3272 941 3272 1375 
Q 3272 1813 3026 2020 
Q 2781 2228 2272 2228 
L 1259 2228 
z
M 1259 4147 
L 1259 2741 
L 2194 2741 
Q 2656 2741 2882 2914 
Q 3109 3088 3109 3444 
Q 3109 3797 2882 3972 
Q 2656 4147 2194 4147 
L 1259 4147 
z
M 628 4666 
L 2241 4666 
Q 2963 4666 3353 4366 
Q 3744 4066 3744 3513 
Q 3744 3084 3544 2831 
Q 3344 2578 2956 2516 
Q 3422 2416 3680 2098 
Q 3938 1781 3938 1306 
Q 3938 681 3513 340 
Q 3088 0 2303 0 
L 628 0 
L 628 4666 
z
" transform="scale(0.015625)"/>
       <path id="DejaVuSans-67" d="M 2906 1791 
Q 2906 2416 2648 2759 
Q 2391 3103 1925 3103 
Q 1463 3103 1205 2759 
Q 947 2416 947 1791 
Q 947 1169 1205 825 
Q 1463 481 1925 481 
Q 2391 481 2648 825 
Q 2906 1169 2906 1791 
z
M 3481 434 
Q 3481 -459 3084 -895 
Q 2688 -1331 1869 -1331 
Q 1566 -1331 1297 -1286 
Q 1028 -1241 775 -1147 
L 775 -588 
Q 1028 -725 1275 -790 
Q 1522 -856 1778 -856 
Q 2344 -856 2625 -561 
Q 2906 -266 2906 331 
L 2906 616 
Q 2728 306 2450 153 
Q 2172 0 1784 0 
Q 1141 0 747 490 
Q 353 981 353 1791 
Q 353 2603 747 3093 
Q 1141 3584 1784 3584 
Q 2172 3584 2450 3431 
Q 2728 3278 2906 2969 
L 2906 3500 
L 3481 3500 
L 3481 434 
z
" transform="scale(0.015625)"/>
       <path id="DejaVuSans-28" d="M 1984 4856 
Q 1566 4138 1362 3434 
Q 1159 2731 1159 2009 
Q 1159 1288 1364 580 
Q 1569 -128 1984 -844 
L 1484 -844 
Q 1016 -109 783 600 
Q 550 1309 550 2009 
Q 550 2706 781 3412 
Q 1013 4119 1484 4856 
L 1984 4856 
z
" transform="scale(0.015625)"/>
       <path id="DejaVuSans-41" d="M 2188 4044 
L 1331 1722 
L 3047 1722 
L 2188 4044 
z
M 1831 4666 
L 2547 4666 
L 4325 0 
L 3669 0 
L 3244 1197 
L 1141 1197 
L 716 0 
L 50 0 
L 1831 4666 
z
" transform="scale(0.015625)"/>
       <path id="DejaVuSans-55" d="M 556 4666 
L 1191 4666 
L 1191 1831 
Q 1191 1081 1462 751 
Q 1734 422 2344 422 
Q 2950 422 3222 751 
Q 3494 1081 3494 1831 
L 3494 4666 
L 4128 4666 
L 4128 1753 
Q 4128 841 3676 375 
Q 3225 -91 2344 -91 
Q 1459 -91 1007 375 
Q 556 841 556 1753 
L 556 4666 
z
" transform="scale(0.015625)"/>
       <path id="DejaVuSans-3d" d="M 678 2906 
L 4684 2906 
L 4684 2381 
L 678 2381 
L 678 2906 
z
M 678 1631 
L 4684 1631 
L 4684 1100 
L 678 1100 
L 678 1631 
z
" transform="scale(0.015625)"/>
       <path id="DejaVuSans-b1" d="M 2944 4013 
L 2944 2803 
L 4684 2803 
L 4684 2272 
L 2944 2272 
L 2944 1063 
L 2419 1063 
L 2419 2272 
L 678 2272 
L 678 2803 
L 2419 2803 
L 2419 4013 
L 2944 4013 
z
M 678 531 
L 4684 531 
L 4684 0 
L 678 0 
L 678 531 
z
" transform="scale(0.015625)"/>
       <path id="DejaVuSans-35" d="M 691 4666 
L 3169 4666 
L 3169 4134 
L 1269 4134 
L 1269 2991 
Q 1406 3038 1543 3061 
Q 1681 3084 1819 3084 
Q 2600 3084 3056 2656 
Q 3513 2228 3513 1497 
Q 3513 744 3044 326 
Q 2575 -91 1722 -91 
Q 1428 -91 1123 -41 
Q 819 9 494 109 
L 494 744 
Q 775 591 1075 516 
Q 1375 441 1709 441 
Q 2250 441 2565 725 
Q 2881 1009 2881 1497 
Q 2881 1984 2565 2268 
Q 2250 2553 1709 2553 
Q 1456 2553 1204 2497 
Q 953 2441 691 2322 
L 691 4666 
z
" transform="scale(0.015625)"/>
       <path id="DejaVuSans-29" d="M 513 4856 
L 1013 4856 
Q 1481 4119 1714 3412 
Q 1947 2706 1947 2009 
Q 1947 1309 1714 600 
Q 1481 -109 1013 -844 
L 513 -844 
Q 928 -128 1133 580 
Q 1338 1288 1338 2009 
Q 1338 2731 1133 3434 
Q 928 4138 513 4856 
z
" transform="scale(0.015625)"/>
      </defs>
      <use xlink:href="#DejaVuSans-42" transform="translate(0 0.015625)"/>
      <use xlink:href="#DejaVuSans-61" transform="translate(68.603516 0.015625)"/>
      <use xlink:href="#DejaVuSans-67" transform="translate(129.882812 0.015625)"/>
      <use xlink:href="#DejaVuSans-67" transform="translate(193.359375 0.015625)"/>
      <use xlink:href="#DejaVuSans-69" transform="translate(256.835938 0.015625)"/>
      <use xlink:href="#DejaVuSans-6e" transform="translate(284.619141 0.015625)"/>
      <use xlink:href="#DejaVuSans-67" transform="translate(347.998047 0.015625)"/>
      <use xlink:href="#DejaVuSans-20" transform="translate(411.474609 0.015625)"/>
      <use xlink:href="#DejaVuSans-28" transform="translate(443.261719 0.015625)"/>
      <use xlink:href="#DejaVuSans-41" transform="translate(482.275391 0.015625)"/>
      <use xlink:href="#DejaVuSans-55" transform="translate(550.683594 0.015625)"/>
      <use xlink:href="#DejaVuSans-43" transform="translate(623.876953 0.015625)"/>
      <use xlink:href="#DejaVuSans-3d" transform="translate(713.183594 0.015625)"/>
      <use xlink:href="#DejaVuSans-30" transform="translate(816.455078 0.015625)"/>
      <use xlink:href="#DejaVuSans-2e" transform="translate(880.078125 0.015625)"/>
      <use xlink:href="#DejaVuSans-38" transform="translate(909.240234 0.015625)"/>
      <use xlink:href="#DejaVuSans-30" transform="translate(972.863281 0.015625)"/>
      <use xlink:href="#DejaVuSans-b1" transform="translate(1055.96875 0.015625)"/>
      <use xlink:href="#DejaVuSans-30" transform="translate(1159.240234 0.015625)"/>
      <use xlink:href="#DejaVuSans-2e" transform="translate(1222.863281 0.015625)"/>
      <use xlink:href="#DejaVuSans-30" transform="translate(1254.650391 0.015625)"/>
      <use xlink:href="#DejaVuSans-35" transform="translate(1318.273438 0.015625)"/>
      <use xlink:href="#DejaVuSans-29" transform="translate(1381.896484 0.015625)"/>
     </g>
    </g>
    <g id="line2d_18">
     <path d="M 358.610308 159.829375 
L 368.610308 159.829375 
L 378.610308 159.829375 
" style="fill: none; stroke: #ff7f0e; stroke-width: 1.5; stroke-linecap: round"/>
    </g>
    <g id="text_17">
     <!-- CatBoost (AUC$ = 0.83 \pm  0.04$) -->
     <g style="fill: #262626" transform="translate(386.610308 163.329375) scale(0.1 -0.1)">
      <defs>
       <path id="DejaVuSans-33" d="M 2597 2516 
Q 3050 2419 3304 2112 
Q 3559 1806 3559 1356 
Q 3559 666 3084 287 
Q 2609 -91 1734 -91 
Q 1441 -91 1130 -33 
Q 819 25 488 141 
L 488 750 
Q 750 597 1062 519 
Q 1375 441 1716 441 
Q 2309 441 2620 675 
Q 2931 909 2931 1356 
Q 2931 1769 2642 2001 
Q 2353 2234 1838 2234 
L 1294 2234 
L 1294 2753 
L 1863 2753 
Q 2328 2753 2575 2939 
Q 2822 3125 2822 3475 
Q 2822 3834 2567 4026 
Q 2313 4219 1838 4219 
Q 1578 4219 1281 4162 
Q 984 4106 628 3988 
L 628 4550 
Q 988 4650 1302 4700 
Q 1616 4750 1894 4750 
Q 2613 4750 3031 4423 
Q 3450 4097 3450 3541 
Q 3450 3153 3228 2886 
Q 3006 2619 2597 2516 
z
" transform="scale(0.015625)"/>
      </defs>
      <use xlink:href="#DejaVuSans-43" transform="translate(0 0.125)"/>
      <use xlink:href="#DejaVuSans-61" transform="translate(69.824219 0.125)"/>
      <use xlink:href="#DejaVuSans-74" transform="translate(131.103516 0.125)"/>
      <use xlink:href="#DejaVuSans-42" transform="translate(170.3125 0.125)"/>
      <use xlink:href="#DejaVuSans-6f" transform="translate(238.916016 0.125)"/>
      <use xlink:href="#DejaVuSans-6f" transform="translate(300.097656 0.125)"/>
      <use xlink:href="#DejaVuSans-73" transform="translate(361.279297 0.125)"/>
      <use xlink:href="#DejaVuSans-74" transform="translate(413.378906 0.125)"/>
      <use xlink:href="#DejaVuSans-20" transform="translate(452.587891 0.125)"/>
      <use xlink:href="#DejaVuSans-28" transform="translate(484.375 0.125)"/>
      <use xlink:href="#DejaVuSans-41" transform="translate(523.388672 0.125)"/>
      <use xlink:href="#DejaVuSans-55" transform="translate(591.796875 0.125)"/>
      <use xlink:href="#DejaVuSans-43" transform="translate(664.990234 0.125)"/>
      <use xlink:href="#DejaVuSans-3d" transform="translate(754.296875 0.125)"/>
      <use xlink:href="#DejaVuSans-30" transform="translate(857.568359 0.125)"/>
      <use xlink:href="#DejaVuSans-2e" transform="translate(921.191406 0.125)"/>
      <use xlink:href="#DejaVuSans-38" transform="translate(950.353516 0.125)"/>
      <use xlink:href="#DejaVuSans-33" transform="translate(1013.976562 0.125)"/>
      <use xlink:href="#DejaVuSans-b1" transform="translate(1097.082031 0.125)"/>
      <use xlink:href="#DejaVuSans-30" transform="translate(1200.353516 0.125)"/>
      <use xlink:href="#DejaVuSans-2e" transform="translate(1263.976562 0.125)"/>
      <use xlink:href="#DejaVuSans-30" transform="translate(1295.763672 0.125)"/>
      <use xlink:href="#DejaVuSans-34" transform="translate(1359.386719 0.125)"/>
      <use xlink:href="#DejaVuSans-29" transform="translate(1423.009766 0.125)"/>
     </g>
    </g>
    <g id="line2d_19">
     <path d="M 358.610308 174.5075 
L 368.610308 174.5075 
L 378.610308 174.5075 
" style="fill: none; stroke: #2ca02c; stroke-width: 1.5; stroke-linecap: round"/>
    </g>
    <g id="text_18">
     <!-- MLP Classifier (AUC$ = 1.00 \pm  0.01$) -->
     <g style="fill: #262626" transform="translate(386.610308 178.0075) scale(0.1 -0.1)">
      <defs>
       <path id="DejaVuSans-4d" d="M 628 4666 
L 1569 4666 
L 2759 1491 
L 3956 4666 
L 4897 4666 
L 4897 0 
L 4281 0 
L 4281 4097 
L 3078 897 
L 2444 897 
L 1241 4097 
L 1241 0 
L 628 0 
L 628 4666 
z
" transform="scale(0.015625)"/>
       <path id="DejaVuSans-4c" d="M 628 4666 
L 1259 4666 
L 1259 531 
L 3531 531 
L 3531 0 
L 628 0 
L 628 4666 
z
" transform="scale(0.015625)"/>
       <path id="DejaVuSans-66" d="M 2375 4863 
L 2375 4384 
L 1825 4384 
Q 1516 4384 1395 4259 
Q 1275 4134 1275 3809 
L 1275 3500 
L 2222 3500 
L 2222 3053 
L 1275 3053 
L 1275 0 
L 697 0 
L 697 3053 
L 147 3053 
L 147 3500 
L 697 3500 
L 697 3744 
Q 697 4328 969 4595 
Q 1241 4863 1831 4863 
L 2375 4863 
z
" transform="scale(0.015625)"/>
      </defs>
      <use xlink:href="#DejaVuSans-4d" transform="translate(0 0.015625)"/>
      <use xlink:href="#DejaVuSans-4c" transform="translate(86.279297 0.015625)"/>
      <use xlink:href="#DejaVuSans-50" transform="translate(141.992188 0.015625)"/>
      <use xlink:href="#DejaVuSans-20" transform="translate(202.294922 0.015625)"/>
      <use xlink:href="#DejaVuSans-43" transform="translate(234.082031 0.015625)"/>
      <use xlink:href="#DejaVuSans-6c" transform="translate(303.90625 0.015625)"/>
      <use xlink:href="#DejaVuSans-61" transform="translate(331.689453 0.015625)"/>
      <use xlink:href="#DejaVuSans-73" transform="translate(392.96875 0.015625)"/>
      <use xlink:href="#DejaVuSans-73" transform="translate(445.068359 0.015625)"/>
      <use xlink:href="#DejaVuSans-69" transform="translate(497.167969 0.015625)"/>
      <use xlink:href="#DejaVuSans-66" transform="translate(524.951172 0.015625)"/>
      <use xlink:href="#DejaVuSans-69" transform="translate(560.15625 0.015625)"/>
      <use xlink:href="#DejaVuSans-65" transform="translate(587.939453 0.015625)"/>
      <use xlink:href="#DejaVuSans-72" transform="translate(649.462891 0.015625)"/>
      <use xlink:href="#DejaVuSans-20" transform="translate(690.576172 0.015625)"/>
      <use xlink:href="#DejaVuSans-28" transform="translate(722.363281 0.015625)"/>
      <use xlink:href="#DejaVuSans-41" transform="translate(761.376953 0.015625)"/>
      <use xlink:href="#DejaVuSans-55" transform="translate(829.785156 0.015625)"/>
      <use xlink:href="#DejaVuSans-43" transform="translate(902.978516 0.015625)"/>
      <use xlink:href="#DejaVuSans-3d" transform="translate(992.285156 0.015625)"/>
      <use xlink:href="#DejaVuSans-31" transform="translate(1095.556641 0.015625)"/>
      <use xlink:href="#DejaVuSans-2e" transform="translate(1159.179688 0.015625)"/>
      <use xlink:href="#DejaVuSans-30" transform="translate(1190.966797 0.015625)"/>
      <use xlink:href="#DejaVuSans-30" transform="translate(1254.589844 0.015625)"/>
      <use xlink:href="#DejaVuSans-b1" transform="translate(1337.695312 0.015625)"/>
      <use xlink:href="#DejaVuSans-30" transform="translate(1440.966797 0.015625)"/>
      <use xlink:href="#DejaVuSans-2e" transform="translate(1504.589844 0.015625)"/>
      <use xlink:href="#DejaVuSans-30" transform="translate(1536.376953 0.015625)"/>
      <use xlink:href="#DejaVuSans-31" transform="translate(1600 0.015625)"/>
      <use xlink:href="#DejaVuSans-29" transform="translate(1663.623047 0.015625)"/>
     </g>
    </g>
    <g id="line2d_20">
     <path d="M 358.610308 189.185625 
L 368.610308 189.185625 
L 378.610308 189.185625 
" style="fill: none; stroke-dasharray: 7.4,3.2; stroke-dashoffset: 0; stroke: #000000; stroke-width: 2"/>
    </g>
    <g id="text_19">
     <!-- Random Chance -->
     <g style="fill: #262626" transform="translate(386.610308 192.685625) scale(0.1 -0.1)">
      <defs>
       <path id="DejaVuSans-64" d="M 2906 2969 
L 2906 4863 
L 3481 4863 
L 3481 0 
L 2906 0 
L 2906 525 
Q 2725 213 2448 61 
Q 2172 -91 1784 -91 
Q 1150 -91 751 415 
Q 353 922 353 1747 
Q 353 2572 751 3078 
Q 1150 3584 1784 3584 
Q 2172 3584 2448 3432 
Q 2725 3281 2906 2969 
z
M 947 1747 
Q 947 1113 1208 752 
Q 1469 391 1925 391 
Q 2381 391 2643 752 
Q 2906 1113 2906 1747 
Q 2906 2381 2643 2742 
Q 2381 3103 1925 3103 
Q 1469 3103 1208 2742 
Q 947 2381 947 1747 
z
" transform="scale(0.015625)"/>
       <path id="DejaVuSans-68" d="M 3513 2113 
L 3513 0 
L 2938 0 
L 2938 2094 
Q 2938 2591 2744 2837 
Q 2550 3084 2163 3084 
Q 1697 3084 1428 2787 
Q 1159 2491 1159 1978 
L 1159 0 
L 581 0 
L 581 4863 
L 1159 4863 
L 1159 2956 
Q 1366 3272 1645 3428 
Q 1925 3584 2291 3584 
Q 2894 3584 3203 3211 
Q 3513 2838 3513 2113 
z
" transform="scale(0.015625)"/>
       <path id="DejaVuSans-63" d="M 3122 3366 
L 3122 2828 
Q 2878 2963 2633 3030 
Q 2388 3097 2138 3097 
Q 1578 3097 1268 2742 
Q 959 2388 959 1747 
Q 959 1106 1268 751 
Q 1578 397 2138 397 
Q 2388 397 2633 464 
Q 2878 531 3122 666 
L 3122 134 
Q 2881 22 2623 -34 
Q 2366 -91 2075 -91 
Q 1284 -91 818 406 
Q 353 903 353 1747 
Q 353 2603 823 3093 
Q 1294 3584 2113 3584 
Q 2378 3584 2631 3529 
Q 2884 3475 3122 3366 
z
" transform="scale(0.015625)"/>
      </defs>
      <use xlink:href="#DejaVuSans-52"/>
      <use xlink:href="#DejaVuSans-61" transform="translate(67.232422 0)"/>
      <use xlink:href="#DejaVuSans-6e" transform="translate(128.511719 0)"/>
      <use xlink:href="#DejaVuSans-64" transform="translate(191.890625 0)"/>
      <use xlink:href="#DejaVuSans-6f" transform="translate(255.367188 0)"/>
      <use xlink:href="#DejaVuSans-6d" transform="translate(316.548828 0)"/>
      <use xlink:href="#DejaVuSans-20" transform="translate(413.960938 0)"/>
      <use xlink:href="#DejaVuSans-43" transform="translate(445.748047 0)"/>
      <use xlink:href="#DejaVuSans-68" transform="translate(515.572266 0)"/>
      <use xlink:href="#DejaVuSans-61" transform="translate(578.951172 0)"/>
      <use xlink:href="#DejaVuSans-6e" transform="translate(640.230469 0)"/>
      <use xlink:href="#DejaVuSans-63" transform="translate(703.609375 0)"/>
      <use xlink:href="#DejaVuSans-65" transform="translate(758.589844 0)"/>
     </g>
    </g>
   </g>
  </g>
 </g>
 <defs>
  <clipPath id="pcb1555d0cb">
   <rect x="43.78125" y="22.318125" width="305.829058" height="291.16"/>
  </clipPath>
 </defs>
</svg>
