<?xml version="1.0" encoding="utf-8" standalone="no"?>
<!DOCTYPE svg PUBLIC "-//W3C//DTD SVG 1.1//EN"
  "http://www.w3.org/Graphics/SVG/1.1/DTD/svg11.dtd">
<svg xmlns:xlink="http://www.w3.org/1999/xlink" width="568.110308pt" height="351.034375pt" viewBox="0 0 568.110308 351.034375" xmlns="http://www.w3.org/2000/svg" version="1.1">
 <metadata>
  <rdf:RDF xmlns:dc="http://purl.org/dc/elements/1.1/" xmlns:cc="http://creativecommons.org/ns#" xmlns:rdf="http://www.w3.org/1999/02/22-rdf-syntax-ns#">
   <cc:Work>
    <dc:type rdf:resource="http://purl.org/dc/dcmitype/StillImage"/>
    <dc:date>2025-05-21T10:56:40.088448</dc:date>
    <dc:format>image/svg+xml</dc:format>
    <dc:creator>
     <cc:Agent>
      <dc:title>Matplotlib v3.10.0, https://matplotlib.org/</dc:title>
     </cc:Agent>
    </dc:creator>
   </cc:Work>
  </rdf:RDF>
 </metadata>
 <defs>
  <style type="text/css">*{stroke-linejoin: round; stroke-linecap: butt}</style>
 </defs>
 <g id="figure_1">
  <g id="patch_1">
   <path d="M 0 351.034375 
L 568.110308 351.034375 
L 568.110308 0 
L 0 0 
z
" style="fill: #ffffff"/>
  </g>
  <g id="axes_1">
   <g id="patch_2">
    <path d="M 43.78125 313.478125 
L 349.610308 313.478125 
L 349.610308 22.318125 
L 43.78125 22.318125 
z
" style="fill: #eaeaf2"/>
   </g>
   <g id="matplotlib.axis_1">
    <g id="xtick_1">
     <g id="line2d_1">
      <path d="M 57.682571 313.478125 
L 57.682571 22.318125 
" clip-path="url(#p95000fc3d1)" style="fill: none; stroke-dasharray: 2.96,1.28; stroke-dashoffset: 0; stroke: #ffffff; stroke-opacity: 0.7; stroke-width: 0.8"/>
     </g>
     <g id="text_1">
      <!-- 0.0 -->
      <g style="fill: #262626" transform="translate(49.731008 328.076563) scale(0.1 -0.1)">
       <defs>
        <path id="DejaVuSans-30" d="M 2034 4250 
Q 1547 4250 1301 3770 
Q 1056 3291 1056 2328 
Q 1056 1369 1301 889 
Q 1547 409 2034 409 
Q 2525 409 2770 889 
Q 3016 1369 3016 2328 
Q 3016 3291 2770 3770 
Q 2525 4250 2034 4250 
z
M 2034 4750 
Q 2819 4750 3233 4129 
Q 3647 3509 3647 2328 
Q 3647 1150 3233 529 
Q 2819 -91 2034 -91 
Q 1250 -91 836 529 
Q 422 1150 422 2328 
Q 422 3509 836 4129 
Q 1250 4750 2034 4750 
z
" transform="scale(0.015625)"/>
        <path id="DejaVuSans-2e" d="M 684 794 
L 1344 794 
L 1344 0 
L 684 0 
L 684 794 
z
" transform="scale(0.015625)"/>
       </defs>
       <use xlink:href="#DejaVuSans-30"/>
       <use xlink:href="#DejaVuSans-2e" transform="translate(63.623047 0)"/>
       <use xlink:href="#DejaVuSans-30" transform="translate(95.410156 0)"/>
      </g>
     </g>
    </g>
    <g id="xtick_2">
     <g id="line2d_2">
      <path d="M 113.287854 313.478125 
L 113.287854 22.318125 
" clip-path="url(#p95000fc3d1)" style="fill: none; stroke-dasharray: 2.96,1.28; stroke-dashoffset: 0; stroke: #ffffff; stroke-opacity: 0.7; stroke-width: 0.8"/>
     </g>
     <g id="text_2">
      <!-- 0.2 -->
      <g style="fill: #262626" transform="translate(105.336292 328.076563) scale(0.1 -0.1)">
       <defs>
        <path id="DejaVuSans-32" d="M 1228 531 
L 3431 531 
L 3431 0 
L 469 0 
L 469 531 
Q 828 903 1448 1529 
Q 2069 2156 2228 2338 
Q 2531 2678 2651 2914 
Q 2772 3150 2772 3378 
Q 2772 3750 2511 3984 
Q 2250 4219 1831 4219 
Q 1534 4219 1204 4116 
Q 875 4013 500 3803 
L 500 4441 
Q 881 4594 1212 4672 
Q 1544 4750 1819 4750 
Q 2544 4750 2975 4387 
Q 3406 4025 3406 3419 
Q 3406 3131 3298 2873 
Q 3191 2616 2906 2266 
Q 2828 2175 2409 1742 
Q 1991 1309 1228 531 
z
" transform="scale(0.015625)"/>
       </defs>
       <use xlink:href="#DejaVuSans-30"/>
       <use xlink:href="#DejaVuSans-2e" transform="translate(63.623047 0)"/>
       <use xlink:href="#DejaVuSans-32" transform="translate(95.410156 0)"/>
      </g>
     </g>
    </g>
    <g id="xtick_3">
     <g id="line2d_3">
      <path d="M 168.893137 313.478125 
L 168.893137 22.318125 
" clip-path="url(#p95000fc3d1)" style="fill: none; stroke-dasharray: 2.96,1.28; stroke-dashoffset: 0; stroke: #ffffff; stroke-opacity: 0.7; stroke-width: 0.8"/>
     </g>
     <g id="text_3">
      <!-- 0.4 -->
      <g style="fill: #262626" transform="translate(160.941575 328.076563) scale(0.1 -0.1)">
       <defs>
        <path id="DejaVuSans-34" d="M 2419 4116 
L 825 1625 
L 2419 1625 
L 2419 4116 
z
M 2253 4666 
L 3047 4666 
L 3047 1625 
L 3713 1625 
L 3713 1100 
L 3047 1100 
L 3047 0 
L 2419 0 
L 2419 1100 
L 313 1100 
L 313 1709 
L 2253 4666 
z
" transform="scale(0.015625)"/>
       </defs>
       <use xlink:href="#DejaVuSans-30"/>
       <use xlink:href="#DejaVuSans-2e" transform="translate(63.623047 0)"/>
       <use xlink:href="#DejaVuSans-34" transform="translate(95.410156 0)"/>
      </g>
     </g>
    </g>
    <g id="xtick_4">
     <g id="line2d_4">
      <path d="M 224.49842 313.478125 
L 224.49842 22.318125 
" clip-path="url(#p95000fc3d1)" style="fill: none; stroke-dasharray: 2.96,1.28; stroke-dashoffset: 0; stroke: #ffffff; stroke-opacity: 0.7; stroke-width: 0.8"/>
     </g>
     <g id="text_4">
      <!-- 0.6 -->
      <g style="fill: #262626" transform="translate(216.546858 328.076563) scale(0.1 -0.1)">
       <defs>
        <path id="DejaVuSans-36" d="M 2113 2584 
Q 1688 2584 1439 2293 
Q 1191 2003 1191 1497 
Q 1191 994 1439 701 
Q 1688 409 2113 409 
Q 2538 409 2786 701 
Q 3034 994 3034 1497 
Q 3034 2003 2786 2293 
Q 2538 2584 2113 2584 
z
M 3366 4563 
L 3366 3988 
Q 3128 4100 2886 4159 
Q 2644 4219 2406 4219 
Q 1781 4219 1451 3797 
Q 1122 3375 1075 2522 
Q 1259 2794 1537 2939 
Q 1816 3084 2150 3084 
Q 2853 3084 3261 2657 
Q 3669 2231 3669 1497 
Q 3669 778 3244 343 
Q 2819 -91 2113 -91 
Q 1303 -91 875 529 
Q 447 1150 447 2328 
Q 447 3434 972 4092 
Q 1497 4750 2381 4750 
Q 2619 4750 2861 4703 
Q 3103 4656 3366 4563 
z
" transform="scale(0.015625)"/>
       </defs>
       <use xlink:href="#DejaVuSans-30"/>
       <use xlink:href="#DejaVuSans-2e" transform="translate(63.623047 0)"/>
       <use xlink:href="#DejaVuSans-36" transform="translate(95.410156 0)"/>
      </g>
     </g>
    </g>
    <g id="xtick_5">
     <g id="line2d_5">
      <path d="M 280.103704 313.478125 
L 280.103704 22.318125 
" clip-path="url(#p95000fc3d1)" style="fill: none; stroke-dasharray: 2.96,1.28; stroke-dashoffset: 0; stroke: #ffffff; stroke-opacity: 0.7; stroke-width: 0.8"/>
     </g>
     <g id="text_5">
      <!-- 0.8 -->
      <g style="fill: #262626" transform="translate(272.152141 328.076563) scale(0.1 -0.1)">
       <defs>
        <path id="DejaVuSans-38" d="M 2034 2216 
Q 1584 2216 1326 1975 
Q 1069 1734 1069 1313 
Q 1069 891 1326 650 
Q 1584 409 2034 409 
Q 2484 409 2743 651 
Q 3003 894 3003 1313 
Q 3003 1734 2745 1975 
Q 2488 2216 2034 2216 
z
M 1403 2484 
Q 997 2584 770 2862 
Q 544 3141 544 3541 
Q 544 4100 942 4425 
Q 1341 4750 2034 4750 
Q 2731 4750 3128 4425 
Q 3525 4100 3525 3541 
Q 3525 3141 3298 2862 
Q 3072 2584 2669 2484 
Q 3125 2378 3379 2068 
Q 3634 1759 3634 1313 
Q 3634 634 3220 271 
Q 2806 -91 2034 -91 
Q 1263 -91 848 271 
Q 434 634 434 1313 
Q 434 1759 690 2068 
Q 947 2378 1403 2484 
z
M 1172 3481 
Q 1172 3119 1398 2916 
Q 1625 2713 2034 2713 
Q 2441 2713 2670 2916 
Q 2900 3119 2900 3481 
Q 2900 3844 2670 4047 
Q 2441 4250 2034 4250 
Q 1625 4250 1398 4047 
Q 1172 3844 1172 3481 
z
" transform="scale(0.015625)"/>
       </defs>
       <use xlink:href="#DejaVuSans-30"/>
       <use xlink:href="#DejaVuSans-2e" transform="translate(63.623047 0)"/>
       <use xlink:href="#DejaVuSans-38" transform="translate(95.410156 0)"/>
      </g>
     </g>
    </g>
    <g id="xtick_6">
     <g id="line2d_6">
      <path d="M 335.708987 313.478125 
L 335.708987 22.318125 
" clip-path="url(#p95000fc3d1)" style="fill: none; stroke-dasharray: 2.96,1.28; stroke-dashoffset: 0; stroke: #ffffff; stroke-opacity: 0.7; stroke-width: 0.8"/>
     </g>
     <g id="text_6">
      <!-- 1.0 -->
      <g style="fill: #262626" transform="translate(327.757424 328.076563) scale(0.1 -0.1)">
       <defs>
        <path id="DejaVuSans-31" d="M 794 531 
L 1825 531 
L 1825 4091 
L 703 3866 
L 703 4441 
L 1819 4666 
L 2450 4666 
L 2450 531 
L 3481 531 
L 3481 0 
L 794 0 
L 794 531 
z
" transform="scale(0.015625)"/>
       </defs>
       <use xlink:href="#DejaVuSans-31"/>
       <use xlink:href="#DejaVuSans-2e" transform="translate(63.623047 0)"/>
       <use xlink:href="#DejaVuSans-30" transform="translate(95.410156 0)"/>
      </g>
     </g>
    </g>
    <g id="text_7">
     <!-- Recall -->
     <g style="fill: #262626" transform="translate(181.778591 341.754687) scale(0.1 -0.1)">
      <defs>
       <path id="DejaVuSans-52" d="M 2841 2188 
Q 3044 2119 3236 1894 
Q 3428 1669 3622 1275 
L 4263 0 
L 3584 0 
L 2988 1197 
Q 2756 1666 2539 1819 
Q 2322 1972 1947 1972 
L 1259 1972 
L 1259 0 
L 628 0 
L 628 4666 
L 2053 4666 
Q 2853 4666 3247 4331 
Q 3641 3997 3641 3322 
Q 3641 2881 3436 2590 
Q 3231 2300 2841 2188 
z
M 1259 4147 
L 1259 2491 
L 2053 2491 
Q 2509 2491 2742 2702 
Q 2975 2913 2975 3322 
Q 2975 3731 2742 3939 
Q 2509 4147 2053 4147 
L 1259 4147 
z
" transform="scale(0.015625)"/>
       <path id="DejaVuSans-65" d="M 3597 1894 
L 3597 1613 
L 953 1613 
Q 991 1019 1311 708 
Q 1631 397 2203 397 
Q 2534 397 2845 478 
Q 3156 559 3463 722 
L 3463 178 
Q 3153 47 2828 -22 
Q 2503 -91 2169 -91 
Q 1331 -91 842 396 
Q 353 884 353 1716 
Q 353 2575 817 3079 
Q 1281 3584 2069 3584 
Q 2775 3584 3186 3129 
Q 3597 2675 3597 1894 
z
M 3022 2063 
Q 3016 2534 2758 2815 
Q 2500 3097 2075 3097 
Q 1594 3097 1305 2825 
Q 1016 2553 972 2059 
L 3022 2063 
z
" transform="scale(0.015625)"/>
       <path id="DejaVuSans-63" d="M 3122 3366 
L 3122 2828 
Q 2878 2963 2633 3030 
Q 2388 3097 2138 3097 
Q 1578 3097 1268 2742 
Q 959 2388 959 1747 
Q 959 1106 1268 751 
Q 1578 397 2138 397 
Q 2388 397 2633 464 
Q 2878 531 3122 666 
L 3122 134 
Q 2881 22 2623 -34 
Q 2366 -91 2075 -91 
Q 1284 -91 818 406 
Q 353 903 353 1747 
Q 353 2603 823 3093 
Q 1294 3584 2113 3584 
Q 2378 3584 2631 3529 
Q 2884 3475 3122 3366 
z
" transform="scale(0.015625)"/>
       <path id="DejaVuSans-61" d="M 2194 1759 
Q 1497 1759 1228 1600 
Q 959 1441 959 1056 
Q 959 750 1161 570 
Q 1363 391 1709 391 
Q 2188 391 2477 730 
Q 2766 1069 2766 1631 
L 2766 1759 
L 2194 1759 
z
M 3341 1997 
L 3341 0 
L 2766 0 
L 2766 531 
Q 2569 213 2275 61 
Q 1981 -91 1556 -91 
Q 1019 -91 701 211 
Q 384 513 384 1019 
Q 384 1609 779 1909 
Q 1175 2209 1959 2209 
L 2766 2209 
L 2766 2266 
Q 2766 2663 2505 2880 
Q 2244 3097 1772 3097 
Q 1472 3097 1187 3025 
Q 903 2953 641 2809 
L 641 3341 
Q 956 3463 1253 3523 
Q 1550 3584 1831 3584 
Q 2591 3584 2966 3190 
Q 3341 2797 3341 1997 
z
" transform="scale(0.015625)"/>
       <path id="DejaVuSans-6c" d="M 603 4863 
L 1178 4863 
L 1178 0 
L 603 0 
L 603 4863 
z
" transform="scale(0.015625)"/>
      </defs>
      <use xlink:href="#DejaVuSans-52"/>
      <use xlink:href="#DejaVuSans-65" transform="translate(64.982422 0)"/>
      <use xlink:href="#DejaVuSans-63" transform="translate(126.505859 0)"/>
      <use xlink:href="#DejaVuSans-61" transform="translate(181.486328 0)"/>
      <use xlink:href="#DejaVuSans-6c" transform="translate(242.765625 0)"/>
      <use xlink:href="#DejaVuSans-6c" transform="translate(270.548828 0)"/>
     </g>
    </g>
   </g>
   <g id="matplotlib.axis_2">
    <g id="ytick_1">
     <g id="line2d_7">
      <path d="M 43.78125 300.24358 
L 349.610308 300.24358 
" clip-path="url(#p95000fc3d1)" style="fill: none; stroke-dasharray: 2.96,1.28; stroke-dashoffset: 0; stroke: #ffffff; stroke-opacity: 0.7; stroke-width: 0.8"/>
     </g>
     <g id="text_8">
      <!-- 0.0 -->
      <g style="fill: #262626" transform="translate(20.878125 304.042798) scale(0.1 -0.1)">
       <use xlink:href="#DejaVuSans-30"/>
       <use xlink:href="#DejaVuSans-2e" transform="translate(63.623047 0)"/>
       <use xlink:href="#DejaVuSans-30" transform="translate(95.410156 0)"/>
      </g>
     </g>
    </g>
    <g id="ytick_2">
     <g id="line2d_8">
      <path d="M 43.78125 250.165931 
L 349.610308 250.165931 
" clip-path="url(#p95000fc3d1)" style="fill: none; stroke-dasharray: 2.96,1.28; stroke-dashoffset: 0; stroke: #ffffff; stroke-opacity: 0.7; stroke-width: 0.8"/>
     </g>
     <g id="text_9">
      <!-- 0.2 -->
      <g style="fill: #262626" transform="translate(20.878125 253.96515) scale(0.1 -0.1)">
       <use xlink:href="#DejaVuSans-30"/>
       <use xlink:href="#DejaVuSans-2e" transform="translate(63.623047 0)"/>
       <use xlink:href="#DejaVuSans-32" transform="translate(95.410156 0)"/>
      </g>
     </g>
    </g>
    <g id="ytick_3">
     <g id="line2d_9">
      <path d="M 43.78125 200.088282 
L 349.610308 200.088282 
" clip-path="url(#p95000fc3d1)" style="fill: none; stroke-dasharray: 2.96,1.28; stroke-dashoffset: 0; stroke: #ffffff; stroke-opacity: 0.7; stroke-width: 0.8"/>
     </g>
     <g id="text_10">
      <!-- 0.4 -->
      <g style="fill: #262626" transform="translate(20.878125 203.887501) scale(0.1 -0.1)">
       <use xlink:href="#DejaVuSans-30"/>
       <use xlink:href="#DejaVuSans-2e" transform="translate(63.623047 0)"/>
       <use xlink:href="#DejaVuSans-34" transform="translate(95.410156 0)"/>
      </g>
     </g>
    </g>
    <g id="ytick_4">
     <g id="line2d_10">
      <path d="M 43.78125 150.010633 
L 349.610308 150.010633 
" clip-path="url(#p95000fc3d1)" style="fill: none; stroke-dasharray: 2.96,1.28; stroke-dashoffset: 0; stroke: #ffffff; stroke-opacity: 0.7; stroke-width: 0.8"/>
     </g>
     <g id="text_11">
      <!-- 0.6 -->
      <g style="fill: #262626" transform="translate(20.878125 153.809852) scale(0.1 -0.1)">
       <use xlink:href="#DejaVuSans-30"/>
       <use xlink:href="#DejaVuSans-2e" transform="translate(63.623047 0)"/>
       <use xlink:href="#DejaVuSans-36" transform="translate(95.410156 0)"/>
      </g>
     </g>
    </g>
    <g id="ytick_5">
     <g id="line2d_11">
      <path d="M 43.78125 99.932985 
L 349.610308 99.932985 
" clip-path="url(#p95000fc3d1)" style="fill: none; stroke-dasharray: 2.96,1.28; stroke-dashoffset: 0; stroke: #ffffff; stroke-opacity: 0.7; stroke-width: 0.8"/>
     </g>
     <g id="text_12">
      <!-- 0.8 -->
      <g style="fill: #262626" transform="translate(20.878125 103.732203) scale(0.1 -0.1)">
       <use xlink:href="#DejaVuSans-30"/>
       <use xlink:href="#DejaVuSans-2e" transform="translate(63.623047 0)"/>
       <use xlink:href="#DejaVuSans-38" transform="translate(95.410156 0)"/>
      </g>
     </g>
    </g>
    <g id="ytick_6">
     <g id="line2d_12">
      <path d="M 43.78125 49.855336 
L 349.610308 49.855336 
" clip-path="url(#p95000fc3d1)" style="fill: none; stroke-dasharray: 2.96,1.28; stroke-dashoffset: 0; stroke: #ffffff; stroke-opacity: 0.7; stroke-width: 0.8"/>
     </g>
     <g id="text_13">
      <!-- 1.0 -->
      <g style="fill: #262626" transform="translate(20.878125 53.654555) scale(0.1 -0.1)">
       <use xlink:href="#DejaVuSans-31"/>
       <use xlink:href="#DejaVuSans-2e" transform="translate(63.623047 0)"/>
       <use xlink:href="#DejaVuSans-30" transform="translate(95.410156 0)"/>
      </g>
     </g>
    </g>
    <g id="text_14">
     <!-- Precision -->
     <g style="fill: #262626" transform="translate(14.798438 190.205156) rotate(-90) scale(0.1 -0.1)">
      <defs>
       <path id="DejaVuSans-50" d="M 1259 4147 
L 1259 2394 
L 2053 2394 
Q 2494 2394 2734 2622 
Q 2975 2850 2975 3272 
Q 2975 3691 2734 3919 
Q 2494 4147 2053 4147 
L 1259 4147 
z
M 628 4666 
L 2053 4666 
Q 2838 4666 3239 4311 
Q 3641 3956 3641 3272 
Q 3641 2581 3239 2228 
Q 2838 1875 2053 1875 
L 1259 1875 
L 1259 0 
L 628 0 
L 628 4666 
z
" transform="scale(0.015625)"/>
       <path id="DejaVuSans-72" d="M 2631 2963 
Q 2534 3019 2420 3045 
Q 2306 3072 2169 3072 
Q 1681 3072 1420 2755 
Q 1159 2438 1159 1844 
L 1159 0 
L 581 0 
L 581 3500 
L 1159 3500 
L 1159 2956 
Q 1341 3275 1631 3429 
Q 1922 3584 2338 3584 
Q 2397 3584 2469 3576 
Q 2541 3569 2628 3553 
L 2631 2963 
z
" transform="scale(0.015625)"/>
       <path id="DejaVuSans-69" d="M 603 3500 
L 1178 3500 
L 1178 0 
L 603 0 
L 603 3500 
z
M 603 4863 
L 1178 4863 
L 1178 4134 
L 603 4134 
L 603 4863 
z
" transform="scale(0.015625)"/>
       <path id="DejaVuSans-73" d="M 2834 3397 
L 2834 2853 
Q 2591 2978 2328 3040 
Q 2066 3103 1784 3103 
Q 1356 3103 1142 2972 
Q 928 2841 928 2578 
Q 928 2378 1081 2264 
Q 1234 2150 1697 2047 
L 1894 2003 
Q 2506 1872 2764 1633 
Q 3022 1394 3022 966 
Q 3022 478 2636 193 
Q 2250 -91 1575 -91 
Q 1294 -91 989 -36 
Q 684 19 347 128 
L 347 722 
Q 666 556 975 473 
Q 1284 391 1588 391 
Q 1994 391 2212 530 
Q 2431 669 2431 922 
Q 2431 1156 2273 1281 
Q 2116 1406 1581 1522 
L 1381 1569 
Q 847 1681 609 1914 
Q 372 2147 372 2553 
Q 372 3047 722 3315 
Q 1072 3584 1716 3584 
Q 2034 3584 2315 3537 
Q 2597 3491 2834 3397 
z
" transform="scale(0.015625)"/>
       <path id="DejaVuSans-6f" d="M 1959 3097 
Q 1497 3097 1228 2736 
Q 959 2375 959 1747 
Q 959 1119 1226 758 
Q 1494 397 1959 397 
Q 2419 397 2687 759 
Q 2956 1122 2956 1747 
Q 2956 2369 2687 2733 
Q 2419 3097 1959 3097 
z
M 1959 3584 
Q 2709 3584 3137 3096 
Q 3566 2609 3566 1747 
Q 3566 888 3137 398 
Q 2709 -91 1959 -91 
Q 1206 -91 779 398 
Q 353 888 353 1747 
Q 353 2609 779 3096 
Q 1206 3584 1959 3584 
z
" transform="scale(0.015625)"/>
       <path id="DejaVuSans-6e" d="M 3513 2113 
L 3513 0 
L 2938 0 
L 2938 2094 
Q 2938 2591 2744 2837 
Q 2550 3084 2163 3084 
Q 1697 3084 1428 2787 
Q 1159 2491 1159 1978 
L 1159 0 
L 581 0 
L 581 3500 
L 1159 3500 
L 1159 2956 
Q 1366 3272 1645 3428 
Q 1925 3584 2291 3584 
Q 2894 3584 3203 3211 
Q 3513 2838 3513 2113 
z
" transform="scale(0.015625)"/>
      </defs>
      <use xlink:href="#DejaVuSans-50"/>
      <use xlink:href="#DejaVuSans-72" transform="translate(58.552734 0)"/>
      <use xlink:href="#DejaVuSans-65" transform="translate(97.416016 0)"/>
      <use xlink:href="#DejaVuSans-63" transform="translate(158.939453 0)"/>
      <use xlink:href="#DejaVuSans-69" transform="translate(213.919922 0)"/>
      <use xlink:href="#DejaVuSans-73" transform="translate(241.703125 0)"/>
      <use xlink:href="#DejaVuSans-69" transform="translate(293.802734 0)"/>
      <use xlink:href="#DejaVuSans-6f" transform="translate(321.585938 0)"/>
      <use xlink:href="#DejaVuSans-6e" transform="translate(382.767578 0)"/>
     </g>
    </g>
   </g>
   <g id="FillBetweenPolyCollection_1">
    <defs>
     <path id="m6c45ef7c45" d="M 57.682571 -301.179039 
L 57.682571 -301.179039 
L 60.490918 -294.216511 
L 63.299266 -287.253984 
L 66.107614 -280.277531 
L 68.915961 -273.402863 
L 71.724309 -270.281023 
L 74.532657 -268.393928 
L 77.341004 -266.291196 
L 80.149352 -264.034415 
L 82.9577 -262.400478 
L 85.766047 -260.926515 
L 88.574395 -259.239669 
L 91.382742 -257.371446 
L 94.19109 -255.914461 
L 96.999438 -254.873226 
L 99.807785 -253.960188 
L 102.616133 -253.33097 
L 105.424481 -252.687059 
L 108.232828 -252.075746 
L 111.041176 -251.525868 
L 113.849524 -251.129992 
L 116.657871 -250.657015 
L 119.466219 -249.912967 
L 122.274566 -249.372928 
L 125.082914 -248.733387 
L 127.891262 -248.072768 
L 130.699609 -247.263519 
L 133.507957 -246.488716 
L 136.316305 -246.103005 
L 139.124652 -245.656278 
L 141.933 -245.210401 
L 144.741348 -244.729873 
L 147.549695 -244.221134 
L 150.358043 -243.728694 
L 153.16639 -243.173525 
L 155.974738 -242.468787 
L 158.783086 -241.700775 
L 161.591433 -240.857022 
L 164.399781 -240.084411 
L 167.208129 -239.331168 
L 170.016476 -238.562499 
L 172.824824 -237.817127 
L 175.633172 -237.058525 
L 178.441519 -236.255743 
L 181.249867 -235.65119 
L 184.058214 -235.208331 
L 186.866562 -234.75053 
L 189.67491 -234.170484 
L 192.483257 -233.546477 
L 195.291605 -232.898656 
L 198.099953 -232.302605 
L 200.9083 -231.774543 
L 203.716648 -231.180217 
L 206.524996 -230.535675 
L 209.333343 -229.70546 
L 212.141691 -228.812029 
L 214.950038 -228.049937 
L 217.758386 -227.383448 
L 220.566734 -226.663629 
L 223.375081 -225.898663 
L 226.183429 -224.665338 
L 228.991777 -223.59309 
L 231.800124 -222.801937 
L 234.608472 -222.028344 
L 237.41682 -221.225418 
L 240.225167 -220.279127 
L 243.033515 -219.202634 
L 245.841862 -218.103865 
L 248.65021 -217.244828 
L 251.458558 -216.327799 
L 254.266905 -215.404333 
L 257.075253 -214.37667 
L 259.883601 -213.323076 
L 262.691948 -212.241406 
L 265.500296 -211.025344 
L 268.308644 -209.529718 
L 271.116991 -207.385797 
L 273.925339 -206.08726 
L 276.733686 -204.91067 
L 279.542034 -203.850992 
L 282.350382 -202.723988 
L 285.158729 -201.059893 
L 287.967077 -200.100423 
L 290.775425 -198.980455 
L 293.583772 -197.439358 
L 296.39212 -196.267527 
L 299.200468 -194.703089 
L 302.008815 -192.962465 
L 304.817163 -191.661296 
L 307.62551 -190.24191 
L 310.433858 -188.838116 
L 313.242206 -186.868033 
L 316.050553 -184.876002 
L 318.858901 -183.010909 
L 321.667249 -179.667826 
L 324.475596 -177.960797 
L 327.283944 -175.090957 
L 330.092292 -171.875162 
L 332.900639 -169.911436 
L 335.708987 -162.904069 
L 335.708987 -189.003168 
L 335.708987 -189.003168 
L 332.900639 -202.290054 
L 330.092292 -205.147026 
L 327.283944 -210.029889 
L 324.475596 -212.048126 
L 321.667249 -214.893875 
L 318.858901 -218.085853 
L 316.050553 -220.522998 
L 313.242206 -222.775664 
L 310.433858 -225.325329 
L 307.62551 -227.587617 
L 304.817163 -229.395147 
L 302.008815 -231.159973 
L 299.200468 -232.383586 
L 296.39212 -233.862407 
L 293.583772 -235.368157 
L 290.775425 -236.772033 
L 287.967077 -238.167963 
L 285.158729 -239.520006 
L 282.350382 -240.787803 
L 279.542034 -242.245724 
L 276.733686 -243.78452 
L 273.925339 -245.497074 
L 271.116991 -247.120239 
L 268.308644 -248.365005 
L 265.500296 -250.001128 
L 262.691948 -251.754301 
L 259.883601 -253.349183 
L 257.075253 -254.710375 
L 254.266905 -255.991043 
L 251.458558 -257.312261 
L 248.65021 -258.542913 
L 245.841862 -259.636237 
L 243.033515 -260.627358 
L 240.225167 -261.664273 
L 237.41682 -262.606603 
L 234.608472 -263.425659 
L 231.800124 -264.172257 
L 228.991777 -265.276501 
L 226.183429 -266.070743 
L 223.375081 -267.078406 
L 220.566734 -268.043138 
L 217.758386 -268.903742 
L 214.950038 -269.654511 
L 212.141691 -270.316811 
L 209.333343 -270.995237 
L 206.524996 -271.687944 
L 203.716648 -272.399146 
L 200.9083 -272.978568 
L 198.099953 -273.588384 
L 195.291605 -274.208584 
L 192.483257 -274.833678 
L 189.67491 -275.510102 
L 186.866562 -276.118459 
L 184.058214 -276.690503 
L 181.249867 -277.331022 
L 178.441519 -277.947614 
L 175.633172 -278.541931 
L 172.824824 -279.158865 
L 170.016476 -279.858748 
L 167.208129 -280.621951 
L 164.399781 -281.413039 
L 161.591433 -282.210586 
L 158.783086 -283.089455 
L 155.974738 -283.947222 
L 153.16639 -284.743174 
L 150.358043 -285.562522 
L 147.549695 -286.439228 
L 144.741348 -287.280812 
L 141.933 -288.165304 
L 139.124652 -289.164748 
L 136.316305 -290.184386 
L 133.507957 -291.09755 
L 130.699609 -291.809754 
L 127.891262 -292.53404 
L 125.082914 -293.296026 
L 122.274566 -294.056316 
L 119.466219 -294.90401 
L 116.657871 -295.853949 
L 113.849524 -296.760198 
L 111.041176 -297.76397 
L 108.232828 -298.859333 
L 105.424481 -300.033927 
L 102.616133 -301.292585 
L 99.807785 -302.541087 
L 96.999438 -303.740584 
L 94.19109 -304.974005 
L 91.382742 -306.060291 
L 88.574395 -306.894944 
L 85.766047 -307.791306 
L 82.9577 -308.599981 
L 80.149352 -309.330287 
L 77.341004 -309.736616 
L 74.532657 -310.247977 
L 71.724309 -310.952416 
L 68.915961 -311.031719 
L 66.107614 -308.641589 
L 63.299266 -306.175508 
L 60.490918 -303.677273 
L 57.682571 -301.179039 
z
" style="stroke: #ffffff; stroke-opacity: 0.2"/>
    </defs>
    <g clip-path="url(#p95000fc3d1)">
     <use xlink:href="#m6c45ef7c45" x="0" y="351.034375" style="fill: #1f77b4; fill-opacity: 0.2; stroke: #ffffff; stroke-opacity: 0.2"/>
    </g>
   </g>
   <g id="FillBetweenPolyCollection_2">
    <defs>
     <path id="m832aae869b" d="M 57.682571 -301.179039 
L 57.682571 -301.179039 
L 60.490918 -301.179039 
L 63.299266 -301.179039 
L 66.107614 -287.54679 
L 68.915961 -289.123309 
L 71.724309 -287.21169 
L 74.532657 -279.850328 
L 77.341004 -280.126106 
L 80.149352 -277.644961 
L 82.9577 -275.87426 
L 85.766047 -276.739438 
L 88.574395 -271.940465 
L 91.382742 -273.185416 
L 94.19109 -273.212367 
L 96.999438 -270.521948 
L 99.807785 -268.965541 
L 102.616133 -268.044251 
L 105.424481 -267.984165 
L 108.232828 -264.752197 
L 111.041176 -265.317801 
L 113.849524 -265.775444 
L 116.657871 -264.380717 
L 119.466219 -262.870722 
L 122.274566 -260.848509 
L 125.082914 -259.609671 
L 127.891262 -256.774596 
L 130.699609 -257.443817 
L 133.507957 -255.541582 
L 136.316305 -253.03975 
L 139.124652 -252.03289 
L 141.933 -250.412113 
L 144.741348 -248.28491 
L 147.549695 -248.307006 
L 150.358043 -244.673409 
L 153.16639 -244.759464 
L 155.974738 -243.765814 
L 158.783086 -243.271542 
L 161.591433 -243.301698 
L 164.399781 -242.88291 
L 167.208129 -242.585557 
L 170.016476 -242.988633 
L 172.824824 -243.223987 
L 175.633172 -243.482665 
L 178.441519 -243.615479 
L 181.249867 -242.967949 
L 184.058214 -243.238238 
L 186.866562 -242.73843 
L 189.67491 -242.511397 
L 192.483257 -242.318127 
L 195.291605 -242.084819 
L 198.099953 -241.038839 
L 200.9083 -239.52158 
L 203.716648 -238.78074 
L 206.524996 -238.323721 
L 209.333343 -238.329512 
L 212.141691 -237.815412 
L 214.950038 -236.791518 
L 217.758386 -236.105425 
L 220.566734 -235.979421 
L 223.375081 -235.853366 
L 226.183429 -235.404293 
L 228.991777 -235.273123 
L 231.800124 -234.048878 
L 234.608472 -233.278069 
L 237.41682 -232.829343 
L 240.225167 -232.501251 
L 243.033515 -230.907025 
L 245.841862 -231.400172 
L 248.65021 -231.475054 
L 251.458558 -230.305173 
L 254.266905 -229.201086 
L 257.075253 -228.443947 
L 259.883601 -227.22228 
L 262.691948 -226.669108 
L 265.500296 -226.124636 
L 268.308644 -224.272329 
L 271.116991 -223.958925 
L 273.925339 -223.059166 
L 276.733686 -221.644384 
L 279.542034 -219.320517 
L 282.350382 -218.035041 
L 285.158729 -215.78442 
L 287.967077 -214.803439 
L 290.775425 -210.527891 
L 293.583772 -207.794184 
L 296.39212 -206.051678 
L 299.200468 -203.48488 
L 302.008815 -199.331502 
L 304.817163 -198.042843 
L 307.62551 -197.313531 
L 310.433858 -193.910583 
L 313.242206 -190.770959 
L 316.050553 -188.704961 
L 318.858901 -188.193282 
L 321.667249 -183.210677 
L 324.475596 -180.762293 
L 327.283944 -179.76759 
L 330.092292 -173.956289 
L 332.900639 -174.597176 
L 335.708987 -162.904069 
L 335.708987 -189.003168 
L 335.708987 -189.003168 
L 332.900639 -206.671445 
L 330.092292 -206.069602 
L 327.283944 -218.95593 
L 324.475596 -218.322918 
L 321.667249 -225.930654 
L 318.858901 -227.891787 
L 316.050553 -229.636461 
L 313.242206 -233.846432 
L 310.433858 -236.910723 
L 307.62551 -239.108895 
L 304.817163 -240.612468 
L 302.008815 -243.128427 
L 299.200468 -246.203364 
L 296.39212 -247.041254 
L 293.583772 -249.3748 
L 290.775425 -252.207385 
L 287.967077 -253.779601 
L 285.158729 -256.030237 
L 282.350382 -256.57239 
L 279.542034 -257.511464 
L 276.733686 -258.465632 
L 273.925339 -259.292406 
L 271.116991 -261.016491 
L 268.308644 -261.160008 
L 265.500296 -262.934054 
L 262.691948 -263.770393 
L 259.883601 -263.949127 
L 257.075253 -263.943822 
L 254.266905 -265.060331 
L 251.458558 -265.143544 
L 248.65021 -265.882833 
L 245.841862 -266.407061 
L 243.033515 -266.558199 
L 240.225167 -268.678562 
L 237.41682 -268.531713 
L 234.608472 -269.812827 
L 231.800124 -269.443898 
L 228.991777 -271.363052 
L 226.183429 -271.549047 
L 223.375081 -272.313183 
L 220.566734 -272.262993 
L 217.758386 -272.818112 
L 214.950038 -272.965289 
L 212.141691 -273.066984 
L 209.333343 -273.41897 
L 206.524996 -273.469307 
L 203.716648 -273.867376 
L 200.9083 -273.614298 
L 198.099953 -273.861627 
L 195.291605 -274.529846 
L 192.483257 -276.415369 
L 189.67491 -278.045003 
L 186.866562 -280.353627 
L 184.058214 -280.664489 
L 181.249867 -281.143547 
L 178.441519 -282.553722 
L 175.633172 -283.607863 
L 172.824824 -285.618571 
L 170.016476 -285.489068 
L 167.208129 -286.631356 
L 164.399781 -288.220355 
L 161.591433 -288.3496 
L 158.783086 -288.572702 
L 155.974738 -289.166065 
L 153.16639 -289.535078 
L 150.358043 -289.072421 
L 147.549695 -292.647088 
L 144.741348 -292.623196 
L 141.933 -293.881319 
L 139.124652 -294.635923 
L 136.316305 -297.367757 
L 133.507957 -297.429964 
L 130.699609 -299.657639 
L 127.891262 -299.477859 
L 125.082914 -301.348723 
L 122.274566 -301.999844 
L 119.466219 -303.848084 
L 116.657871 -306.358269 
L 113.849524 -305.643961 
L 111.041176 -306.385828 
L 108.232828 -307.147266 
L 105.424481 -309.478028 
L 102.616133 -310.892751 
L 99.807785 -310.931062 
L 96.999438 -311.210112 
L 94.19109 -311.517969 
L 91.382742 -311.847458 
L 88.574395 -312.732784 
L 85.766047 -313.286628 
L 82.9577 -314.198535 
L 80.149352 -314.297978 
L 77.341004 -314.634333 
L 74.532657 -315.481705 
L 71.724309 -311.685635 
L 68.915961 -311.042818 
L 66.107614 -312.332697 
L 63.299266 -301.179039 
L 60.490918 -301.179039 
L 57.682571 -301.179039 
z
" style="stroke: #ffffff; stroke-opacity: 0.2"/>
    </defs>
    <g clip-path="url(#p95000fc3d1)">
     <use xlink:href="#m832aae869b" x="0" y="351.034375" style="fill: #ff7f0e; fill-opacity: 0.2; stroke: #ffffff; stroke-opacity: 0.2"/>
    </g>
   </g>
   <g id="FillBetweenPolyCollection_3">
    <defs>
     <path id="ma7515a66c2" d="M 57.682571 -301.179039 
L 57.682571 -301.179039 
L 60.490918 -301.179039 
L 63.299266 -301.179039 
L 66.107614 -301.179039 
L 68.915961 -301.179039 
L 71.724309 -301.179039 
L 74.532657 -301.179039 
L 77.341004 -301.179039 
L 80.149352 -301.179039 
L 82.9577 -301.179039 
L 85.766047 -301.179039 
L 88.574395 -301.179039 
L 91.382742 -301.179039 
L 94.19109 -301.179039 
L 96.999438 -301.179039 
L 99.807785 -301.179039 
L 102.616133 -301.179039 
L 105.424481 -301.179039 
L 108.232828 -301.179039 
L 111.041176 -301.179039 
L 113.849524 -301.179039 
L 116.657871 -301.179039 
L 119.466219 -301.179039 
L 122.274566 -301.179039 
L 125.082914 -301.179039 
L 127.891262 -301.179039 
L 130.699609 -301.179039 
L 133.507957 -301.179039 
L 136.316305 -301.179039 
L 139.124652 -301.179039 
L 141.933 -301.179039 
L 144.741348 -301.179039 
L 147.549695 -301.179039 
L 150.358043 -301.179039 
L 153.16639 -301.179039 
L 155.974738 -301.179039 
L 158.783086 -301.179039 
L 161.591433 -301.179039 
L 164.399781 -301.179039 
L 167.208129 -301.179039 
L 170.016476 -301.179039 
L 172.824824 -301.179039 
L 175.633172 -301.179039 
L 178.441519 -301.179039 
L 181.249867 -301.179039 
L 184.058214 -301.179039 
L 186.866562 -301.179039 
L 189.67491 -301.179039 
L 192.483257 -301.179039 
L 195.291605 -301.179039 
L 198.099953 -301.179039 
L 200.9083 -301.179039 
L 203.716648 -301.179039 
L 206.524996 -301.179039 
L 209.333343 -301.179039 
L 212.141691 -301.179039 
L 214.950038 -301.179039 
L 217.758386 -301.179039 
L 220.566734 -301.179039 
L 223.375081 -301.179039 
L 226.183429 -301.179039 
L 228.991777 -301.179039 
L 231.800124 -301.179039 
L 234.608472 -301.179039 
L 237.41682 -301.179039 
L 240.225167 -301.179039 
L 243.033515 -301.179039 
L 245.841862 -301.179039 
L 248.65021 -301.179039 
L 251.458558 -301.179039 
L 254.266905 -301.179039 
L 257.075253 -301.179039 
L 259.883601 -301.179039 
L 262.691948 -299.987578 
L 265.500296 -300.002698 
L 268.308644 -300.017818 
L 271.116991 -300.032817 
L 273.925339 -300.046728 
L 276.733686 -300.060638 
L 279.542034 -300.074549 
L 282.350382 -299.830284 
L 285.158729 -299.308433 
L 287.967077 -299.330628 
L 290.775425 -298.602719 
L 293.583772 -298.448963 
L 296.39212 -298.319666 
L 299.200468 -297.83091 
L 302.008815 -295.395033 
L 304.817163 -295.362039 
L 307.62551 -294.732583 
L 310.433858 -293.570727 
L 313.242206 -293.452146 
L 316.050553 -291.041379 
L 318.858901 -286.961981 
L 321.667249 -281.998808 
L 324.475596 -279.021675 
L 327.283944 -277.951511 
L 330.092292 -252.264173 
L 332.900639 -252.631391 
L 335.708987 -162.904069 
L 335.708987 -189.003168 
L 335.708987 -189.003168 
L 332.900639 -301.203127 
L 330.092292 -301.265308 
L 327.283944 -306.819642 
L 324.475596 -306.91551 
L 321.667249 -308.107539 
L 318.858901 -307.197981 
L 316.050553 -305.141284 
L 313.242206 -304.499153 
L 310.433858 -304.433073 
L 307.62551 -304.043421 
L 304.817163 -304.065319 
L 302.008815 -304.132739 
L 299.200468 -303.032306 
L 296.39212 -302.985305 
L 293.583772 -302.983943 
L 290.775425 -302.96827 
L 287.967077 -302.410532 
L 285.158729 -302.425319 
L 282.350382 -302.198149 
L 279.542034 -302.082713 
L 276.733686 -302.094094 
L 273.925339 -302.105476 
L 271.116991 -302.116857 
L 268.308644 -302.129129 
L 265.500296 -302.1415 
L 262.691948 -302.153871 
L 259.883601 -301.179039 
L 257.075253 -301.179039 
L 254.266905 -301.179039 
L 251.458558 -301.179039 
L 248.65021 -301.179039 
L 245.841862 -301.179039 
L 243.033515 -301.179039 
L 240.225167 -301.179039 
L 237.41682 -301.179039 
L 234.608472 -301.179039 
L 231.800124 -301.179039 
L 228.991777 -301.179039 
L 226.183429 -301.179039 
L 223.375081 -301.179039 
L 220.566734 -301.179039 
L 217.758386 -301.179039 
L 214.950038 -301.179039 
L 212.141691 -301.179039 
L 209.333343 -301.179039 
L 206.524996 -301.179039 
L 203.716648 -301.179039 
L 200.9083 -301.179039 
L 198.099953 -301.179039 
L 195.291605 -301.179039 
L 192.483257 -301.179039 
L 189.67491 -301.179039 
L 186.866562 -301.179039 
L 184.058214 -301.179039 
L 181.249867 -301.179039 
L 178.441519 -301.179039 
L 175.633172 -301.179039 
L 172.824824 -301.179039 
L 170.016476 -301.179039 
L 167.208129 -301.179039 
L 164.399781 -301.179039 
L 161.591433 -301.179039 
L 158.783086 -301.179039 
L 155.974738 -301.179039 
L 153.16639 -301.179039 
L 150.358043 -301.179039 
L 147.549695 -301.179039 
L 144.741348 -301.179039 
L 141.933 -301.179039 
L 139.124652 -301.179039 
L 136.316305 -301.179039 
L 133.507957 -301.179039 
L 130.699609 -301.179039 
L 127.891262 -301.179039 
L 125.082914 -301.179039 
L 122.274566 -301.179039 
L 119.466219 -301.179039 
L 116.657871 -301.179039 
L 113.849524 -301.179039 
L 111.041176 -301.179039 
L 108.232828 -301.179039 
L 105.424481 -301.179039 
L 102.616133 -301.179039 
L 99.807785 -301.179039 
L 96.999438 -301.179039 
L 94.19109 -301.179039 
L 91.382742 -301.179039 
L 88.574395 -301.179039 
L 85.766047 -301.179039 
L 82.9577 -301.179039 
L 80.149352 -301.179039 
L 77.341004 -301.179039 
L 74.532657 -301.179039 
L 71.724309 -301.179039 
L 68.915961 -301.179039 
L 66.107614 -301.179039 
L 63.299266 -301.179039 
L 60.490918 -301.179039 
L 57.682571 -301.179039 
z
" style="stroke: #ffffff; stroke-opacity: 0.2"/>
    </defs>
    <g clip-path="url(#p95000fc3d1)">
     <use xlink:href="#ma7515a66c2" x="0" y="351.034375" style="fill: #2ca02c; fill-opacity: 0.2; stroke: #ffffff; stroke-opacity: 0.2"/>
    </g>
   </g>
   <g id="line2d_13">
    <path d="M 57.682571 49.855336 
L 60.490918 52.087483 
L 63.299266 54.319629 
L 66.107614 56.574815 
L 68.915961 58.817084 
L 71.724309 60.417655 
L 74.532657 61.713422 
L 77.341004 63.020469 
L 80.149352 64.352024 
L 82.9577 65.534145 
L 85.766047 66.675464 
L 88.574395 67.967068 
L 91.382742 69.318507 
L 94.19109 70.590142 
L 96.999438 71.72747 
L 99.807785 72.783737 
L 102.616133 73.722598 
L 105.424481 74.673882 
L 108.232828 75.566835 
L 111.041176 76.389456 
L 113.849524 77.08928 
L 116.657871 77.778893 
L 119.466219 78.625887 
L 122.274566 79.319753 
L 125.082914 80.019669 
L 127.891262 80.730971 
L 130.699609 81.497739 
L 133.507957 82.241242 
L 136.316305 82.890679 
L 139.124652 83.623862 
L 141.933 84.346522 
L 144.741348 85.029033 
L 147.549695 85.704194 
L 150.358043 86.388767 
L 153.16639 87.076025 
L 155.974738 87.826371 
L 158.783086 88.63926 
L 161.591433 89.500571 
L 164.399781 90.28565 
L 167.208129 91.057816 
L 170.016476 91.823751 
L 172.824824 92.546379 
L 175.633172 93.234147 
L 178.441519 93.932697 
L 181.249867 94.543269 
L 184.058214 95.084958 
L 186.866562 95.59988 
L 189.67491 96.194082 
L 192.483257 96.844297 
L 195.291605 97.480755 
L 198.099953 98.088881 
L 200.9083 98.65782 
L 203.716648 99.244693 
L 206.524996 99.922566 
L 209.333343 100.684027 
L 212.141691 101.469955 
L 214.950038 102.182151 
L 217.758386 102.89078 
L 220.566734 103.680992 
L 223.375081 104.545841 
L 226.183429 105.666334 
L 228.991777 106.59958 
L 231.800124 107.547278 
L 234.608472 108.307374 
L 237.41682 109.118365 
L 240.225167 110.062675 
L 243.033515 111.119379 
L 245.841862 112.164324 
L 248.65021 113.140505 
L 251.458558 114.214345 
L 254.266905 115.336687 
L 257.075253 116.490852 
L 259.883601 117.698245 
L 262.691948 119.036522 
L 265.500296 120.521139 
L 268.308644 122.087013 
L 271.116991 123.781357 
L 273.925339 125.242208 
L 276.733686 126.68678 
L 279.542034 127.986017 
L 282.350382 129.27848 
L 285.158729 130.744426 
L 287.967077 131.900182 
L 290.775425 133.158131 
L 293.583772 134.630618 
L 296.39212 135.969408 
L 299.200468 137.491037 
L 302.008815 138.973156 
L 304.817163 140.506153 
L 307.62551 142.119611 
L 310.433858 143.952652 
L 313.242206 146.212526 
L 316.050553 148.334875 
L 318.858901 150.485994 
L 321.667249 153.753525 
L 324.475596 156.029914 
L 327.283944 158.473952 
L 330.092292 162.523281 
L 332.900639 164.93363 
L 335.708987 175.080756 
" clip-path="url(#p95000fc3d1)" style="fill: none; stroke: #1f77b4; stroke-width: 1.5; stroke-linecap: round"/>
   </g>
   <g id="line2d_14">
    <path d="M 57.682571 49.855336 
L 60.490918 49.855336 
L 63.299266 49.855336 
L 66.107614 51.094631 
L 68.915961 50.951311 
L 71.724309 51.585712 
L 74.532657 53.368359 
L 77.341004 53.654155 
L 80.149352 55.062905 
L 82.9577 55.997977 
L 85.766047 56.021342 
L 88.574395 58.69775 
L 91.382742 58.517938 
L 94.19109 58.669207 
L 96.999438 60.168345 
L 99.807785 61.086074 
L 102.616133 61.565874 
L 105.424481 62.303279 
L 108.232828 65.084643 
L 111.041176 65.18256 
L 113.849524 65.324672 
L 116.657871 65.664882 
L 119.466219 67.674972 
L 122.274566 69.610199 
L 125.082914 70.555178 
L 127.891262 72.908147 
L 130.699609 72.483647 
L 133.507957 74.548602 
L 136.316305 75.830621 
L 139.124652 77.699968 
L 141.933 78.887659 
L 144.741348 80.580322 
L 147.549695 80.557328 
L 150.358043 84.16146 
L 153.16639 83.887104 
L 155.974738 84.568436 
L 158.783086 85.112253 
L 161.591433 85.208726 
L 164.399781 85.482743 
L 167.208129 86.425918 
L 170.016476 86.795524 
L 172.824824 86.613096 
L 175.633172 87.489111 
L 178.441519 87.949775 
L 181.249867 88.978627 
L 184.058214 89.083011 
L 186.866562 89.488346 
L 189.67491 90.756175 
L 192.483257 91.667627 
L 195.291605 92.727043 
L 198.099953 93.584142 
L 200.9083 94.466436 
L 203.716648 94.710317 
L 206.524996 95.137861 
L 209.333343 95.160134 
L 212.141691 95.593177 
L 214.950038 96.155971 
L 217.758386 96.572607 
L 220.566734 96.913168 
L 223.375081 96.951101 
L 226.183429 97.557705 
L 228.991777 97.716287 
L 231.800124 99.287987 
L 234.608472 99.488927 
L 237.41682 100.353847 
L 240.225167 100.444468 
L 243.033515 102.301763 
L 245.841862 102.130759 
L 248.65021 102.355432 
L 251.458558 103.310016 
L 254.266905 103.903667 
L 257.075253 104.840491 
L 259.883601 105.448671 
L 262.691948 105.814625 
L 265.500296 106.50503 
L 268.308644 108.318206 
L 271.116991 108.546667 
L 273.925339 109.858589 
L 276.733686 110.979367 
L 279.542034 112.618385 
L 282.350382 113.73066 
L 285.158729 115.127047 
L 287.967077 116.742855 
L 290.775425 119.666737 
L 293.583772 122.449883 
L 296.39212 124.487909 
L 299.200468 126.190253 
L 302.008815 129.80441 
L 304.817163 131.70672 
L 307.62551 132.823162 
L 310.433858 135.623722 
L 313.242206 138.72568 
L 316.050553 141.863664 
L 318.858901 142.99184 
L 321.667249 146.463709 
L 324.475596 151.491769 
L 327.283944 151.672615 
L 330.092292 161.02143 
L 332.900639 160.400064 
L 335.708987 175.080756 
" clip-path="url(#p95000fc3d1)" style="fill: none; stroke: #ff7f0e; stroke-width: 1.5; stroke-linecap: round"/>
   </g>
   <g id="line2d_15">
    <path d="M 57.682571 49.855336 
L 60.490918 49.855336 
L 63.299266 49.855336 
L 66.107614 49.855336 
L 68.915961 49.855336 
L 71.724309 49.855336 
L 74.532657 49.855336 
L 77.341004 49.855336 
L 80.149352 49.855336 
L 82.9577 49.855336 
L 85.766047 49.855336 
L 88.574395 49.855336 
L 91.382742 49.855336 
L 94.19109 49.855336 
L 96.999438 49.855336 
L 99.807785 49.855336 
L 102.616133 49.855336 
L 105.424481 49.855336 
L 108.232828 49.855336 
L 111.041176 49.855336 
L 113.849524 49.855336 
L 116.657871 49.855336 
L 119.466219 49.855336 
L 122.274566 49.855336 
L 125.082914 49.855336 
L 127.891262 49.855336 
L 130.699609 49.855336 
L 133.507957 49.855336 
L 136.316305 49.855336 
L 139.124652 49.855336 
L 141.933 49.855336 
L 144.741348 49.855336 
L 147.549695 49.855336 
L 150.358043 49.855336 
L 153.16639 49.855336 
L 155.974738 49.855336 
L 158.783086 49.855336 
L 161.591433 49.855336 
L 164.399781 49.855336 
L 167.208129 49.855336 
L 170.016476 49.855336 
L 172.824824 49.855336 
L 175.633172 49.855336 
L 178.441519 49.855336 
L 181.249867 49.855336 
L 184.058214 49.855336 
L 186.866562 49.855336 
L 189.67491 49.855336 
L 192.483257 49.855336 
L 195.291605 49.855336 
L 198.099953 49.855336 
L 200.9083 49.855336 
L 203.716648 49.855336 
L 206.524996 49.855336 
L 209.333343 49.855336 
L 212.141691 49.855336 
L 214.950038 49.855336 
L 217.758386 49.855336 
L 220.566734 49.855336 
L 223.375081 49.855336 
L 226.183429 49.855336 
L 228.991777 49.855336 
L 231.800124 49.855336 
L 234.608472 49.855336 
L 237.41682 49.855336 
L 240.225167 49.855336 
L 243.033515 49.855336 
L 245.841862 49.855336 
L 248.65021 49.855336 
L 251.458558 49.855336 
L 254.266905 49.855336 
L 257.075253 49.855336 
L 259.883601 49.855336 
L 262.691948 49.96365 
L 265.500296 49.962276 
L 268.308644 49.960901 
L 271.116991 49.959538 
L 273.925339 49.958273 
L 276.733686 49.957009 
L 279.542034 49.955744 
L 282.350382 50.020159 
L 285.158729 50.167499 
L 287.967077 50.163795 
L 290.775425 50.24888 
L 293.583772 50.317922 
L 296.39212 50.381889 
L 299.200468 50.602767 
L 302.008815 51.270489 
L 304.817163 51.320696 
L 307.62551 51.646373 
L 310.433858 52.032475 
L 313.242206 52.058725 
L 316.050553 52.943044 
L 318.858901 53.954394 
L 321.667249 55.981201 
L 324.475596 58.065782 
L 327.283944 58.648798 
L 330.092292 74.269635 
L 332.900639 74.117116 
L 335.708987 175.080756 
" clip-path="url(#p95000fc3d1)" style="fill: none; stroke: #2ca02c; stroke-width: 1.5; stroke-linecap: round"/>
   </g>
   <g id="line2d_16">
    <path d="M 57.682571 49.855336 
L 335.708987 300.24358 
" clip-path="url(#p95000fc3d1)" style="fill: none; stroke-dasharray: 7.4,3.2; stroke-dashoffset: 0; stroke: #000000; stroke-width: 2"/>
   </g>
   <g id="patch_3">
    <path d="M 43.78125 313.478125 
L 43.78125 22.318125 
" style="fill: none; stroke: #ffffff; stroke-width: 0.8; stroke-linejoin: miter; stroke-linecap: square"/>
   </g>
   <g id="patch_4">
    <path d="M 349.610308 313.478125 
L 349.610308 22.318125 
" style="fill: none; stroke: #ffffff; stroke-width: 0.8; stroke-linejoin: miter; stroke-linecap: square"/>
   </g>
   <g id="patch_5">
    <path d="M 43.78125 313.478125 
L 349.610308 313.478125 
" style="fill: none; stroke: #ffffff; stroke-width: 0.8; stroke-linejoin: miter; stroke-linecap: square"/>
   </g>
   <g id="patch_6">
    <path d="M 43.78125 22.318125 
L 349.610308 22.318125 
" style="fill: none; stroke: #ffffff; stroke-width: 0.8; stroke-linejoin: miter; stroke-linecap: square"/>
   </g>
   <g id="text_15">
    <!-- 10% Noise PR Curve Comparison -->
    <g style="fill: #262626" transform="translate(97.675154 16.318125) scale(0.12 -0.12)">
     <defs>
      <path id="DejaVuSans-25" d="M 4653 2053 
Q 4381 2053 4226 1822 
Q 4072 1591 4072 1178 
Q 4072 772 4226 539 
Q 4381 306 4653 306 
Q 4919 306 5073 539 
Q 5228 772 5228 1178 
Q 5228 1588 5073 1820 
Q 4919 2053 4653 2053 
z
M 4653 2450 
Q 5147 2450 5437 2106 
Q 5728 1763 5728 1178 
Q 5728 594 5436 251 
Q 5144 -91 4653 -91 
Q 4153 -91 3862 251 
Q 3572 594 3572 1178 
Q 3572 1766 3864 2108 
Q 4156 2450 4653 2450 
z
M 1428 4353 
Q 1159 4353 1004 4120 
Q 850 3888 850 3481 
Q 850 3069 1003 2837 
Q 1156 2606 1428 2606 
Q 1700 2606 1854 2837 
Q 2009 3069 2009 3481 
Q 2009 3884 1853 4118 
Q 1697 4353 1428 4353 
z
M 4250 4750 
L 4750 4750 
L 1831 -91 
L 1331 -91 
L 4250 4750 
z
M 1428 4750 
Q 1922 4750 2215 4408 
Q 2509 4066 2509 3481 
Q 2509 2891 2217 2550 
Q 1925 2209 1428 2209 
Q 931 2209 642 2551 
Q 353 2894 353 3481 
Q 353 4063 643 4406 
Q 934 4750 1428 4750 
z
" transform="scale(0.015625)"/>
      <path id="DejaVuSans-20" transform="scale(0.015625)"/>
      <path id="DejaVuSans-4e" d="M 628 4666 
L 1478 4666 
L 3547 763 
L 3547 4666 
L 4159 4666 
L 4159 0 
L 3309 0 
L 1241 3903 
L 1241 0 
L 628 0 
L 628 4666 
z
" transform="scale(0.015625)"/>
      <path id="DejaVuSans-43" d="M 4122 4306 
L 4122 3641 
Q 3803 3938 3442 4084 
Q 3081 4231 2675 4231 
Q 1875 4231 1450 3742 
Q 1025 3253 1025 2328 
Q 1025 1406 1450 917 
Q 1875 428 2675 428 
Q 3081 428 3442 575 
Q 3803 722 4122 1019 
L 4122 359 
Q 3791 134 3420 21 
Q 3050 -91 2638 -91 
Q 1578 -91 968 557 
Q 359 1206 359 2328 
Q 359 3453 968 4101 
Q 1578 4750 2638 4750 
Q 3056 4750 3426 4639 
Q 3797 4528 4122 4306 
z
" transform="scale(0.015625)"/>
      <path id="DejaVuSans-75" d="M 544 1381 
L 544 3500 
L 1119 3500 
L 1119 1403 
Q 1119 906 1312 657 
Q 1506 409 1894 409 
Q 2359 409 2629 706 
Q 2900 1003 2900 1516 
L 2900 3500 
L 3475 3500 
L 3475 0 
L 2900 0 
L 2900 538 
Q 2691 219 2414 64 
Q 2138 -91 1772 -91 
Q 1169 -91 856 284 
Q 544 659 544 1381 
z
M 1991 3584 
L 1991 3584 
z
" transform="scale(0.015625)"/>
      <path id="DejaVuSans-76" d="M 191 3500 
L 800 3500 
L 1894 563 
L 2988 3500 
L 3597 3500 
L 2284 0 
L 1503 0 
L 191 3500 
z
" transform="scale(0.015625)"/>
      <path id="DejaVuSans-6d" d="M 3328 2828 
Q 3544 3216 3844 3400 
Q 4144 3584 4550 3584 
Q 5097 3584 5394 3201 
Q 5691 2819 5691 2113 
L 5691 0 
L 5113 0 
L 5113 2094 
Q 5113 2597 4934 2840 
Q 4756 3084 4391 3084 
Q 3944 3084 3684 2787 
Q 3425 2491 3425 1978 
L 3425 0 
L 2847 0 
L 2847 2094 
Q 2847 2600 2669 2842 
Q 2491 3084 2119 3084 
Q 1678 3084 1418 2786 
Q 1159 2488 1159 1978 
L 1159 0 
L 581 0 
L 581 3500 
L 1159 3500 
L 1159 2956 
Q 1356 3278 1631 3431 
Q 1906 3584 2284 3584 
Q 2666 3584 2933 3390 
Q 3200 3197 3328 2828 
z
" transform="scale(0.015625)"/>
      <path id="DejaVuSans-70" d="M 1159 525 
L 1159 -1331 
L 581 -1331 
L 581 3500 
L 1159 3500 
L 1159 2969 
Q 1341 3281 1617 3432 
Q 1894 3584 2278 3584 
Q 2916 3584 3314 3078 
Q 3713 2572 3713 1747 
Q 3713 922 3314 415 
Q 2916 -91 2278 -91 
Q 1894 -91 1617 61 
Q 1341 213 1159 525 
z
M 3116 1747 
Q 3116 2381 2855 2742 
Q 2594 3103 2138 3103 
Q 1681 3103 1420 2742 
Q 1159 2381 1159 1747 
Q 1159 1113 1420 752 
Q 1681 391 2138 391 
Q 2594 391 2855 752 
Q 3116 1113 3116 1747 
z
" transform="scale(0.015625)"/>
     </defs>
     <use xlink:href="#DejaVuSans-31"/>
     <use xlink:href="#DejaVuSans-30" transform="translate(63.623047 0)"/>
     <use xlink:href="#DejaVuSans-25" transform="translate(127.246094 0)"/>
     <use xlink:href="#DejaVuSans-20" transform="translate(222.265625 0)"/>
     <use xlink:href="#DejaVuSans-4e" transform="translate(254.052734 0)"/>
     <use xlink:href="#DejaVuSans-6f" transform="translate(328.857422 0)"/>
     <use xlink:href="#DejaVuSans-69" transform="translate(390.039062 0)"/>
     <use xlink:href="#DejaVuSans-73" transform="translate(417.822266 0)"/>
     <use xlink:href="#DejaVuSans-65" transform="translate(469.921875 0)"/>
     <use xlink:href="#DejaVuSans-20" transform="translate(531.445312 0)"/>
     <use xlink:href="#DejaVuSans-50" transform="translate(563.232422 0)"/>
     <use xlink:href="#DejaVuSans-52" transform="translate(623.535156 0)"/>
     <use xlink:href="#DejaVuSans-20" transform="translate(693.017578 0)"/>
     <use xlink:href="#DejaVuSans-43" transform="translate(724.804688 0)"/>
     <use xlink:href="#DejaVuSans-75" transform="translate(794.628906 0)"/>
     <use xlink:href="#DejaVuSans-72" transform="translate(858.007812 0)"/>
     <use xlink:href="#DejaVuSans-76" transform="translate(899.121094 0)"/>
     <use xlink:href="#DejaVuSans-65" transform="translate(958.300781 0)"/>
     <use xlink:href="#DejaVuSans-20" transform="translate(1019.824219 0)"/>
     <use xlink:href="#DejaVuSans-43" transform="translate(1051.611328 0)"/>
     <use xlink:href="#DejaVuSans-6f" transform="translate(1121.435547 0)"/>
     <use xlink:href="#DejaVuSans-6d" transform="translate(1182.617188 0)"/>
     <use xlink:href="#DejaVuSans-70" transform="translate(1280.029297 0)"/>
     <use xlink:href="#DejaVuSans-61" transform="translate(1343.505859 0)"/>
     <use xlink:href="#DejaVuSans-72" transform="translate(1404.785156 0)"/>
     <use xlink:href="#DejaVuSans-69" transform="translate(1445.898438 0)"/>
     <use xlink:href="#DejaVuSans-73" transform="translate(1473.681641 0)"/>
     <use xlink:href="#DejaVuSans-6f" transform="translate(1525.78125 0)"/>
     <use xlink:href="#DejaVuSans-6e" transform="translate(1586.962891 0)"/>
    </g>
   </g>
   <g id="legend_1">
    <g id="patch_7">
     <path d="M 356.610308 198.765313 
L 558.910308 198.765313 
Q 560.910308 198.765313 560.910308 196.765313 
L 560.910308 139.030938 
Q 560.910308 137.030938 558.910308 137.030938 
L 356.610308 137.030938 
Q 354.610308 137.030938 354.610308 139.030938 
L 354.610308 196.765313 
Q 354.610308 198.765313 356.610308 198.765313 
z
" style="fill: #eaeaf2; opacity: 0.8; stroke: #cccccc; stroke-linejoin: miter"/>
    </g>
    <g id="line2d_17">
     <path d="M 358.610308 145.130938 
L 368.610308 145.130938 
L 378.610308 145.130938 
" style="fill: none; stroke: #1f77b4; stroke-width: 1.5; stroke-linecap: round"/>
    </g>
    <g id="text_16">
     <!-- Bagging (AUC$ = 0.77 \pm  0.06$) -->
     <g style="fill: #262626" transform="translate(386.610308 148.630938) scale(0.1 -0.1)">
      <defs>
       <path id="DejaVuSans-42" d="M 1259 2228 
L 1259 519 
L 2272 519 
Q 2781 519 3026 730 
Q 3272 941 3272 1375 
Q 3272 1813 3026 2020 
Q 2781 2228 2272 2228 
L 1259 2228 
z
M 1259 4147 
L 1259 2741 
L 2194 2741 
Q 2656 2741 2882 2914 
Q 3109 3088 3109 3444 
Q 3109 3797 2882 3972 
Q 2656 4147 2194 4147 
L 1259 4147 
z
M 628 4666 
L 2241 4666 
Q 2963 4666 3353 4366 
Q 3744 4066 3744 3513 
Q 3744 3084 3544 2831 
Q 3344 2578 2956 2516 
Q 3422 2416 3680 2098 
Q 3938 1781 3938 1306 
Q 3938 681 3513 340 
Q 3088 0 2303 0 
L 628 0 
L 628 4666 
z
" transform="scale(0.015625)"/>
       <path id="DejaVuSans-67" d="M 2906 1791 
Q 2906 2416 2648 2759 
Q 2391 3103 1925 3103 
Q 1463 3103 1205 2759 
Q 947 2416 947 1791 
Q 947 1169 1205 825 
Q 1463 481 1925 481 
Q 2391 481 2648 825 
Q 2906 1169 2906 1791 
z
M 3481 434 
Q 3481 -459 3084 -895 
Q 2688 -1331 1869 -1331 
Q 1566 -1331 1297 -1286 
Q 1028 -1241 775 -1147 
L 775 -588 
Q 1028 -725 1275 -790 
Q 1522 -856 1778 -856 
Q 2344 -856 2625 -561 
Q 2906 -266 2906 331 
L 2906 616 
Q 2728 306 2450 153 
Q 2172 0 1784 0 
Q 1141 0 747 490 
Q 353 981 353 1791 
Q 353 2603 747 3093 
Q 1141 3584 1784 3584 
Q 2172 3584 2450 3431 
Q 2728 3278 2906 2969 
L 2906 3500 
L 3481 3500 
L 3481 434 
z
" transform="scale(0.015625)"/>
       <path id="DejaVuSans-28" d="M 1984 4856 
Q 1566 4138 1362 3434 
Q 1159 2731 1159 2009 
Q 1159 1288 1364 580 
Q 1569 -128 1984 -844 
L 1484 -844 
Q 1016 -109 783 600 
Q 550 1309 550 2009 
Q 550 2706 781 3412 
Q 1013 4119 1484 4856 
L 1984 4856 
z
" transform="scale(0.015625)"/>
       <path id="DejaVuSans-41" d="M 2188 4044 
L 1331 1722 
L 3047 1722 
L 2188 4044 
z
M 1831 4666 
L 2547 4666 
L 4325 0 
L 3669 0 
L 3244 1197 
L 1141 1197 
L 716 0 
L 50 0 
L 1831 4666 
z
" transform="scale(0.015625)"/>
       <path id="DejaVuSans-55" d="M 556 4666 
L 1191 4666 
L 1191 1831 
Q 1191 1081 1462 751 
Q 1734 422 2344 422 
Q 2950 422 3222 751 
Q 3494 1081 3494 1831 
L 3494 4666 
L 4128 4666 
L 4128 1753 
Q 4128 841 3676 375 
Q 3225 -91 2344 -91 
Q 1459 -91 1007 375 
Q 556 841 556 1753 
L 556 4666 
z
" transform="scale(0.015625)"/>
       <path id="DejaVuSans-3d" d="M 678 2906 
L 4684 2906 
L 4684 2381 
L 678 2381 
L 678 2906 
z
M 678 1631 
L 4684 1631 
L 4684 1100 
L 678 1100 
L 678 1631 
z
" transform="scale(0.015625)"/>
       <path id="DejaVuSans-37" d="M 525 4666 
L 3525 4666 
L 3525 4397 
L 1831 0 
L 1172 0 
L 2766 4134 
L 525 4134 
L 525 4666 
z
" transform="scale(0.015625)"/>
       <path id="DejaVuSans-b1" d="M 2944 4013 
L 2944 2803 
L 4684 2803 
L 4684 2272 
L 2944 2272 
L 2944 1063 
L 2419 1063 
L 2419 2272 
L 678 2272 
L 678 2803 
L 2419 2803 
L 2419 4013 
L 2944 4013 
z
M 678 531 
L 4684 531 
L 4684 0 
L 678 0 
L 678 531 
z
" transform="scale(0.015625)"/>
       <path id="DejaVuSans-29" d="M 513 4856 
L 1013 4856 
Q 1481 4119 1714 3412 
Q 1947 2706 1947 2009 
Q 1947 1309 1714 600 
Q 1481 -109 1013 -844 
L 513 -844 
Q 928 -128 1133 580 
Q 1338 1288 1338 2009 
Q 1338 2731 1133 3434 
Q 928 4138 513 4856 
z
" transform="scale(0.015625)"/>
      </defs>
      <use xlink:href="#DejaVuSans-42" transform="translate(0 0.015625)"/>
      <use xlink:href="#DejaVuSans-61" transform="translate(68.603516 0.015625)"/>
      <use xlink:href="#DejaVuSans-67" transform="translate(129.882812 0.015625)"/>
      <use xlink:href="#DejaVuSans-67" transform="translate(193.359375 0.015625)"/>
      <use xlink:href="#DejaVuSans-69" transform="translate(256.835938 0.015625)"/>
      <use xlink:href="#DejaVuSans-6e" transform="translate(284.619141 0.015625)"/>
      <use xlink:href="#DejaVuSans-67" transform="translate(347.998047 0.015625)"/>
      <use xlink:href="#DejaVuSans-20" transform="translate(411.474609 0.015625)"/>
      <use xlink:href="#DejaVuSans-28" transform="translate(443.261719 0.015625)"/>
      <use xlink:href="#DejaVuSans-41" transform="translate(482.275391 0.015625)"/>
      <use xlink:href="#DejaVuSans-55" transform="translate(550.683594 0.015625)"/>
      <use xlink:href="#DejaVuSans-43" transform="translate(623.876953 0.015625)"/>
      <use xlink:href="#DejaVuSans-3d" transform="translate(713.183594 0.015625)"/>
      <use xlink:href="#DejaVuSans-30" transform="translate(816.455078 0.015625)"/>
      <use xlink:href="#DejaVuSans-2e" transform="translate(880.078125 0.015625)"/>
      <use xlink:href="#DejaVuSans-37" transform="translate(904.115234 0.015625)"/>
      <use xlink:href="#DejaVuSans-37" transform="translate(965.988281 0.015625)"/>
      <use xlink:href="#DejaVuSans-b1" transform="translate(1049.09375 0.015625)"/>
      <use xlink:href="#DejaVuSans-30" transform="translate(1152.365234 0.015625)"/>
      <use xlink:href="#DejaVuSans-2e" transform="translate(1215.988281 0.015625)"/>
      <use xlink:href="#DejaVuSans-30" transform="translate(1247.775391 0.015625)"/>
      <use xlink:href="#DejaVuSans-36" transform="translate(1311.398438 0.015625)"/>
      <use xlink:href="#DejaVuSans-29" transform="translate(1375.021484 0.015625)"/>
     </g>
    </g>
    <g id="line2d_18">
     <path d="M 358.610308 159.829375 
L 368.610308 159.829375 
L 378.610308 159.829375 
" style="fill: none; stroke: #ff7f0e; stroke-width: 1.5; stroke-linecap: round"/>
    </g>
    <g id="text_17">
     <!-- CatBoost (AUC$ = 0.83 \pm  0.05$) -->
     <g style="fill: #262626" transform="translate(386.610308 163.329375) scale(0.1 -0.1)">
      <defs>
       <path id="DejaVuSans-74" d="M 1172 4494 
L 1172 3500 
L 2356 3500 
L 2356 3053 
L 1172 3053 
L 1172 1153 
Q 1172 725 1289 603 
Q 1406 481 1766 481 
L 2356 481 
L 2356 0 
L 1766 0 
Q 1100 0 847 248 
Q 594 497 594 1153 
L 594 3053 
L 172 3053 
L 172 3500 
L 594 3500 
L 594 4494 
L 1172 4494 
z
" transform="scale(0.015625)"/>
       <path id="DejaVuSans-33" d="M 2597 2516 
Q 3050 2419 3304 2112 
Q 3559 1806 3559 1356 
Q 3559 666 3084 287 
Q 2609 -91 1734 -91 
Q 1441 -91 1130 -33 
Q 819 25 488 141 
L 488 750 
Q 750 597 1062 519 
Q 1375 441 1716 441 
Q 2309 441 2620 675 
Q 2931 909 2931 1356 
Q 2931 1769 2642 2001 
Q 2353 2234 1838 2234 
L 1294 2234 
L 1294 2753 
L 1863 2753 
Q 2328 2753 2575 2939 
Q 2822 3125 2822 3475 
Q 2822 3834 2567 4026 
Q 2313 4219 1838 4219 
Q 1578 4219 1281 4162 
Q 984 4106 628 3988 
L 628 4550 
Q 988 4650 1302 4700 
Q 1616 4750 1894 4750 
Q 2613 4750 3031 4423 
Q 3450 4097 3450 3541 
Q 3450 3153 3228 2886 
Q 3006 2619 2597 2516 
z
" transform="scale(0.015625)"/>
       <path id="DejaVuSans-35" d="M 691 4666 
L 3169 4666 
L 3169 4134 
L 1269 4134 
L 1269 2991 
Q 1406 3038 1543 3061 
Q 1681 3084 1819 3084 
Q 2600 3084 3056 2656 
Q 3513 2228 3513 1497 
Q 3513 744 3044 326 
Q 2575 -91 1722 -91 
Q 1428 -91 1123 -41 
Q 819 9 494 109 
L 494 744 
Q 775 591 1075 516 
Q 1375 441 1709 441 
Q 2250 441 2565 725 
Q 2881 1009 2881 1497 
Q 2881 1984 2565 2268 
Q 2250 2553 1709 2553 
Q 1456 2553 1204 2497 
Q 953 2441 691 2322 
L 691 4666 
z
" transform="scale(0.015625)"/>
      </defs>
      <use xlink:href="#DejaVuSans-43" transform="translate(0 0.125)"/>
      <use xlink:href="#DejaVuSans-61" transform="translate(69.824219 0.125)"/>
      <use xlink:href="#DejaVuSans-74" transform="translate(131.103516 0.125)"/>
      <use xlink:href="#DejaVuSans-42" transform="translate(170.3125 0.125)"/>
      <use xlink:href="#DejaVuSans-6f" transform="translate(238.916016 0.125)"/>
      <use xlink:href="#DejaVuSans-6f" transform="translate(300.097656 0.125)"/>
      <use xlink:href="#DejaVuSans-73" transform="translate(361.279297 0.125)"/>
      <use xlink:href="#DejaVuSans-74" transform="translate(413.378906 0.125)"/>
      <use xlink:href="#DejaVuSans-20" transform="translate(452.587891 0.125)"/>
      <use xlink:href="#DejaVuSans-28" transform="translate(484.375 0.125)"/>
      <use xlink:href="#DejaVuSans-41" transform="translate(523.388672 0.125)"/>
      <use xlink:href="#DejaVuSans-55" transform="translate(591.796875 0.125)"/>
      <use xlink:href="#DejaVuSans-43" transform="translate(664.990234 0.125)"/>
      <use xlink:href="#DejaVuSans-3d" transform="translate(754.296875 0.125)"/>
      <use xlink:href="#DejaVuSans-30" transform="translate(857.568359 0.125)"/>
      <use xlink:href="#DejaVuSans-2e" transform="translate(921.191406 0.125)"/>
      <use xlink:href="#DejaVuSans-38" transform="translate(950.353516 0.125)"/>
      <use xlink:href="#DejaVuSans-33" transform="translate(1013.976562 0.125)"/>
      <use xlink:href="#DejaVuSans-b1" transform="translate(1097.082031 0.125)"/>
      <use xlink:href="#DejaVuSans-30" transform="translate(1200.353516 0.125)"/>
      <use xlink:href="#DejaVuSans-2e" transform="translate(1263.976562 0.125)"/>
      <use xlink:href="#DejaVuSans-30" transform="translate(1295.763672 0.125)"/>
      <use xlink:href="#DejaVuSans-35" transform="translate(1359.386719 0.125)"/>
      <use xlink:href="#DejaVuSans-29" transform="translate(1423.009766 0.125)"/>
     </g>
    </g>
    <g id="line2d_19">
     <path d="M 358.610308 174.5075 
L 368.610308 174.5075 
L 378.610308 174.5075 
" style="fill: none; stroke: #2ca02c; stroke-width: 1.5; stroke-linecap: round"/>
    </g>
    <g id="text_18">
     <!-- MLP Classifier (AUC$ = 1.00 \pm  0.01$) -->
     <g style="fill: #262626" transform="translate(386.610308 178.0075) scale(0.1 -0.1)">
      <defs>
       <path id="DejaVuSans-4d" d="M 628 4666 
L 1569 4666 
L 2759 1491 
L 3956 4666 
L 4897 4666 
L 4897 0 
L 4281 0 
L 4281 4097 
L 3078 897 
L 2444 897 
L 1241 4097 
L 1241 0 
L 628 0 
L 628 4666 
z
" transform="scale(0.015625)"/>
       <path id="DejaVuSans-4c" d="M 628 4666 
L 1259 4666 
L 1259 531 
L 3531 531 
L 3531 0 
L 628 0 
L 628 4666 
z
" transform="scale(0.015625)"/>
       <path id="DejaVuSans-66" d="M 2375 4863 
L 2375 4384 
L 1825 4384 
Q 1516 4384 1395 4259 
Q 1275 4134 1275 3809 
L 1275 3500 
L 2222 3500 
L 2222 3053 
L 1275 3053 
L 1275 0 
L 697 0 
L 697 3053 
L 147 3053 
L 147 3500 
L 697 3500 
L 697 3744 
Q 697 4328 969 4595 
Q 1241 4863 1831 4863 
L 2375 4863 
z
" transform="scale(0.015625)"/>
      </defs>
      <use xlink:href="#DejaVuSans-4d" transform="translate(0 0.015625)"/>
      <use xlink:href="#DejaVuSans-4c" transform="translate(86.279297 0.015625)"/>
      <use xlink:href="#DejaVuSans-50" transform="translate(141.992188 0.015625)"/>
      <use xlink:href="#DejaVuSans-20" transform="translate(202.294922 0.015625)"/>
      <use xlink:href="#DejaVuSans-43" transform="translate(234.082031 0.015625)"/>
      <use xlink:href="#DejaVuSans-6c" transform="translate(303.90625 0.015625)"/>
      <use xlink:href="#DejaVuSans-61" transform="translate(331.689453 0.015625)"/>
      <use xlink:href="#DejaVuSans-73" transform="translate(392.96875 0.015625)"/>
      <use xlink:href="#DejaVuSans-73" transform="translate(445.068359 0.015625)"/>
      <use xlink:href="#DejaVuSans-69" transform="translate(497.167969 0.015625)"/>
      <use xlink:href="#DejaVuSans-66" transform="translate(524.951172 0.015625)"/>
      <use xlink:href="#DejaVuSans-69" transform="translate(560.15625 0.015625)"/>
      <use xlink:href="#DejaVuSans-65" transform="translate(587.939453 0.015625)"/>
      <use xlink:href="#DejaVuSans-72" transform="translate(649.462891 0.015625)"/>
      <use xlink:href="#DejaVuSans-20" transform="translate(690.576172 0.015625)"/>
      <use xlink:href="#DejaVuSans-28" transform="translate(722.363281 0.015625)"/>
      <use xlink:href="#DejaVuSans-41" transform="translate(761.376953 0.015625)"/>
      <use xlink:href="#DejaVuSans-55" transform="translate(829.785156 0.015625)"/>
      <use xlink:href="#DejaVuSans-43" transform="translate(902.978516 0.015625)"/>
      <use xlink:href="#DejaVuSans-3d" transform="translate(992.285156 0.015625)"/>
      <use xlink:href="#DejaVuSans-31" transform="translate(1095.556641 0.015625)"/>
      <use xlink:href="#DejaVuSans-2e" transform="translate(1159.179688 0.015625)"/>
      <use xlink:href="#DejaVuSans-30" transform="translate(1190.966797 0.015625)"/>
      <use xlink:href="#DejaVuSans-30" transform="translate(1254.589844 0.015625)"/>
      <use xlink:href="#DejaVuSans-b1" transform="translate(1337.695312 0.015625)"/>
      <use xlink:href="#DejaVuSans-30" transform="translate(1440.966797 0.015625)"/>
      <use xlink:href="#DejaVuSans-2e" transform="translate(1504.589844 0.015625)"/>
      <use xlink:href="#DejaVuSans-30" transform="translate(1536.376953 0.015625)"/>
      <use xlink:href="#DejaVuSans-31" transform="translate(1600 0.015625)"/>
      <use xlink:href="#DejaVuSans-29" transform="translate(1663.623047 0.015625)"/>
     </g>
    </g>
    <g id="line2d_20">
     <path d="M 358.610308 189.185625 
L 368.610308 189.185625 
L 378.610308 189.185625 
" style="fill: none; stroke-dasharray: 7.4,3.2; stroke-dashoffset: 0; stroke: #000000; stroke-width: 2"/>
    </g>
    <g id="text_19">
     <!-- Random Chance -->
     <g style="fill: #262626" transform="translate(386.610308 192.685625) scale(0.1 -0.1)">
      <defs>
       <path id="DejaVuSans-64" d="M 2906 2969 
L 2906 4863 
L 3481 4863 
L 3481 0 
L 2906 0 
L 2906 525 
Q 2725 213 2448 61 
Q 2172 -91 1784 -91 
Q 1150 -91 751 415 
Q 353 922 353 1747 
Q 353 2572 751 3078 
Q 1150 3584 1784 3584 
Q 2172 3584 2448 3432 
Q 2725 3281 2906 2969 
z
M 947 1747 
Q 947 1113 1208 752 
Q 1469 391 1925 391 
Q 2381 391 2643 752 
Q 2906 1113 2906 1747 
Q 2906 2381 2643 2742 
Q 2381 3103 1925 3103 
Q 1469 3103 1208 2742 
Q 947 2381 947 1747 
z
" transform="scale(0.015625)"/>
       <path id="DejaVuSans-68" d="M 3513 2113 
L 3513 0 
L 2938 0 
L 2938 2094 
Q 2938 2591 2744 2837 
Q 2550 3084 2163 3084 
Q 1697 3084 1428 2787 
Q 1159 2491 1159 1978 
L 1159 0 
L 581 0 
L 581 4863 
L 1159 4863 
L 1159 2956 
Q 1366 3272 1645 3428 
Q 1925 3584 2291 3584 
Q 2894 3584 3203 3211 
Q 3513 2838 3513 2113 
z
" transform="scale(0.015625)"/>
      </defs>
      <use xlink:href="#DejaVuSans-52"/>
      <use xlink:href="#DejaVuSans-61" transform="translate(67.232422 0)"/>
      <use xlink:href="#DejaVuSans-6e" transform="translate(128.511719 0)"/>
      <use xlink:href="#DejaVuSans-64" transform="translate(191.890625 0)"/>
      <use xlink:href="#DejaVuSans-6f" transform="translate(255.367188 0)"/>
      <use xlink:href="#DejaVuSans-6d" transform="translate(316.548828 0)"/>
      <use xlink:href="#DejaVuSans-20" transform="translate(413.960938 0)"/>
      <use xlink:href="#DejaVuSans-43" transform="translate(445.748047 0)"/>
      <use xlink:href="#DejaVuSans-68" transform="translate(515.572266 0)"/>
      <use xlink:href="#DejaVuSans-61" transform="translate(578.951172 0)"/>
      <use xlink:href="#DejaVuSans-6e" transform="translate(640.230469 0)"/>
      <use xlink:href="#DejaVuSans-63" transform="translate(703.609375 0)"/>
      <use xlink:href="#DejaVuSans-65" transform="translate(758.589844 0)"/>
     </g>
    </g>
   </g>
  </g>
 </g>
 <defs>
  <clipPath id="p95000fc3d1">
   <rect x="43.78125" y="22.318125" width="305.829058" height="291.16"/>
  </clipPath>
 </defs>
</svg>
