<?xml version="1.0" encoding="utf-8" standalone="no"?>
<!DOCTYPE svg PUBLIC "-//W3C//DTD SVG 1.1//EN"
  "http://www.w3.org/Graphics/SVG/1.1/DTD/svg11.dtd">
<svg xmlns:xlink="http://www.w3.org/1999/xlink" width="568.10748pt" height="351.034375pt" viewBox="0 0 568.10748 351.034375" xmlns="http://www.w3.org/2000/svg" version="1.1">
 <metadata>
  <rdf:RDF xmlns:dc="http://purl.org/dc/elements/1.1/" xmlns:cc="http://creativecommons.org/ns#" xmlns:rdf="http://www.w3.org/1999/02/22-rdf-syntax-ns#">
   <cc:Work>
    <dc:type rdf:resource="http://purl.org/dc/dcmitype/StillImage"/>
    <dc:date>2025-05-21T11:06:27.963784</dc:date>
    <dc:format>image/svg+xml</dc:format>
    <dc:creator>
     <cc:Agent>
      <dc:title>Matplotlib v3.10.0, https://matplotlib.org/</dc:title>
     </cc:Agent>
    </dc:creator>
   </cc:Work>
  </rdf:RDF>
 </metadata>
 <defs>
  <style type="text/css">*{stroke-linejoin: round; stroke-linecap: butt}</style>
 </defs>
 <g id="figure_1">
  <g id="patch_1">
   <path d="M 0 351.034375 
L 568.10748 351.034375 
L 568.10748 0 
L 0 0 
z
" style="fill: #ffffff"/>
  </g>
  <g id="axes_1">
   <g id="patch_2">
    <path d="M 43.78125 313.478125 
L 365.50748 313.478125 
L 365.50748 22.318125 
L 43.78125 22.318125 
z
" style="fill: #eaeaf2"/>
   </g>
   <g id="matplotlib.axis_1">
    <g id="xtick_1">
     <g id="line2d_1">
      <path d="M 58.40517 313.478125 
L 58.40517 22.318125 
" clip-path="url(#p0ac397f154)" style="fill: none; stroke-dasharray: 2.96,1.28; stroke-dashoffset: 0; stroke: #ffffff; stroke-opacity: 0.7; stroke-width: 0.8"/>
     </g>
     <g id="text_1">
      <!-- 0.0 -->
      <g style="fill: #262626" transform="translate(50.453607 328.076563) scale(0.1 -0.1)">
       <defs>
        <path id="DejaVuSans-30" d="M 2034 4250 
Q 1547 4250 1301 3770 
Q 1056 3291 1056 2328 
Q 1056 1369 1301 889 
Q 1547 409 2034 409 
Q 2525 409 2770 889 
Q 3016 1369 3016 2328 
Q 3016 3291 2770 3770 
Q 2525 4250 2034 4250 
z
M 2034 4750 
Q 2819 4750 3233 4129 
Q 3647 3509 3647 2328 
Q 3647 1150 3233 529 
Q 2819 -91 2034 -91 
Q 1250 -91 836 529 
Q 422 1150 422 2328 
Q 422 3509 836 4129 
Q 1250 4750 2034 4750 
z
" transform="scale(0.015625)"/>
        <path id="DejaVuSans-2e" d="M 684 794 
L 1344 794 
L 1344 0 
L 684 0 
L 684 794 
z
" transform="scale(0.015625)"/>
       </defs>
       <use xlink:href="#DejaVuSans-30"/>
       <use xlink:href="#DejaVuSans-2e" transform="translate(63.623047 0)"/>
       <use xlink:href="#DejaVuSans-30" transform="translate(95.410156 0)"/>
      </g>
     </g>
    </g>
    <g id="xtick_2">
     <g id="line2d_2">
      <path d="M 116.900848 313.478125 
L 116.900848 22.318125 
" clip-path="url(#p0ac397f154)" style="fill: none; stroke-dasharray: 2.96,1.28; stroke-dashoffset: 0; stroke: #ffffff; stroke-opacity: 0.7; stroke-width: 0.8"/>
     </g>
     <g id="text_2">
      <!-- 0.2 -->
      <g style="fill: #262626" transform="translate(108.949285 328.076563) scale(0.1 -0.1)">
       <defs>
        <path id="DejaVuSans-32" d="M 1228 531 
L 3431 531 
L 3431 0 
L 469 0 
L 469 531 
Q 828 903 1448 1529 
Q 2069 2156 2228 2338 
Q 2531 2678 2651 2914 
Q 2772 3150 2772 3378 
Q 2772 3750 2511 3984 
Q 2250 4219 1831 4219 
Q 1534 4219 1204 4116 
Q 875 4013 500 3803 
L 500 4441 
Q 881 4594 1212 4672 
Q 1544 4750 1819 4750 
Q 2544 4750 2975 4387 
Q 3406 4025 3406 3419 
Q 3406 3131 3298 2873 
Q 3191 2616 2906 2266 
Q 2828 2175 2409 1742 
Q 1991 1309 1228 531 
z
" transform="scale(0.015625)"/>
       </defs>
       <use xlink:href="#DejaVuSans-30"/>
       <use xlink:href="#DejaVuSans-2e" transform="translate(63.623047 0)"/>
       <use xlink:href="#DejaVuSans-32" transform="translate(95.410156 0)"/>
      </g>
     </g>
    </g>
    <g id="xtick_3">
     <g id="line2d_3">
      <path d="M 175.396526 313.478125 
L 175.396526 22.318125 
" clip-path="url(#p0ac397f154)" style="fill: none; stroke-dasharray: 2.96,1.28; stroke-dashoffset: 0; stroke: #ffffff; stroke-opacity: 0.7; stroke-width: 0.8"/>
     </g>
     <g id="text_3">
      <!-- 0.4 -->
      <g style="fill: #262626" transform="translate(167.444964 328.076563) scale(0.1 -0.1)">
       <defs>
        <path id="DejaVuSans-34" d="M 2419 4116 
L 825 1625 
L 2419 1625 
L 2419 4116 
z
M 2253 4666 
L 3047 4666 
L 3047 1625 
L 3713 1625 
L 3713 1100 
L 3047 1100 
L 3047 0 
L 2419 0 
L 2419 1100 
L 313 1100 
L 313 1709 
L 2253 4666 
z
" transform="scale(0.015625)"/>
       </defs>
       <use xlink:href="#DejaVuSans-30"/>
       <use xlink:href="#DejaVuSans-2e" transform="translate(63.623047 0)"/>
       <use xlink:href="#DejaVuSans-34" transform="translate(95.410156 0)"/>
      </g>
     </g>
    </g>
    <g id="xtick_4">
     <g id="line2d_4">
      <path d="M 233.892204 313.478125 
L 233.892204 22.318125 
" clip-path="url(#p0ac397f154)" style="fill: none; stroke-dasharray: 2.96,1.28; stroke-dashoffset: 0; stroke: #ffffff; stroke-opacity: 0.7; stroke-width: 0.8"/>
     </g>
     <g id="text_4">
      <!-- 0.6 -->
      <g style="fill: #262626" transform="translate(225.940642 328.076563) scale(0.1 -0.1)">
       <defs>
        <path id="DejaVuSans-36" d="M 2113 2584 
Q 1688 2584 1439 2293 
Q 1191 2003 1191 1497 
Q 1191 994 1439 701 
Q 1688 409 2113 409 
Q 2538 409 2786 701 
Q 3034 994 3034 1497 
Q 3034 2003 2786 2293 
Q 2538 2584 2113 2584 
z
M 3366 4563 
L 3366 3988 
Q 3128 4100 2886 4159 
Q 2644 4219 2406 4219 
Q 1781 4219 1451 3797 
Q 1122 3375 1075 2522 
Q 1259 2794 1537 2939 
Q 1816 3084 2150 3084 
Q 2853 3084 3261 2657 
Q 3669 2231 3669 1497 
Q 3669 778 3244 343 
Q 2819 -91 2113 -91 
Q 1303 -91 875 529 
Q 447 1150 447 2328 
Q 447 3434 972 4092 
Q 1497 4750 2381 4750 
Q 2619 4750 2861 4703 
Q 3103 4656 3366 4563 
z
" transform="scale(0.015625)"/>
       </defs>
       <use xlink:href="#DejaVuSans-30"/>
       <use xlink:href="#DejaVuSans-2e" transform="translate(63.623047 0)"/>
       <use xlink:href="#DejaVuSans-36" transform="translate(95.410156 0)"/>
      </g>
     </g>
    </g>
    <g id="xtick_5">
     <g id="line2d_5">
      <path d="M 292.387883 313.478125 
L 292.387883 22.318125 
" clip-path="url(#p0ac397f154)" style="fill: none; stroke-dasharray: 2.96,1.28; stroke-dashoffset: 0; stroke: #ffffff; stroke-opacity: 0.7; stroke-width: 0.8"/>
     </g>
     <g id="text_5">
      <!-- 0.8 -->
      <g style="fill: #262626" transform="translate(284.43632 328.076563) scale(0.1 -0.1)">
       <defs>
        <path id="DejaVuSans-38" d="M 2034 2216 
Q 1584 2216 1326 1975 
Q 1069 1734 1069 1313 
Q 1069 891 1326 650 
Q 1584 409 2034 409 
Q 2484 409 2743 651 
Q 3003 894 3003 1313 
Q 3003 1734 2745 1975 
Q 2488 2216 2034 2216 
z
M 1403 2484 
Q 997 2584 770 2862 
Q 544 3141 544 3541 
Q 544 4100 942 4425 
Q 1341 4750 2034 4750 
Q 2731 4750 3128 4425 
Q 3525 4100 3525 3541 
Q 3525 3141 3298 2862 
Q 3072 2584 2669 2484 
Q 3125 2378 3379 2068 
Q 3634 1759 3634 1313 
Q 3634 634 3220 271 
Q 2806 -91 2034 -91 
Q 1263 -91 848 271 
Q 434 634 434 1313 
Q 434 1759 690 2068 
Q 947 2378 1403 2484 
z
M 1172 3481 
Q 1172 3119 1398 2916 
Q 1625 2713 2034 2713 
Q 2441 2713 2670 2916 
Q 2900 3119 2900 3481 
Q 2900 3844 2670 4047 
Q 2441 4250 2034 4250 
Q 1625 4250 1398 4047 
Q 1172 3844 1172 3481 
z
" transform="scale(0.015625)"/>
       </defs>
       <use xlink:href="#DejaVuSans-30"/>
       <use xlink:href="#DejaVuSans-2e" transform="translate(63.623047 0)"/>
       <use xlink:href="#DejaVuSans-38" transform="translate(95.410156 0)"/>
      </g>
     </g>
    </g>
    <g id="xtick_6">
     <g id="line2d_6">
      <path d="M 350.883561 313.478125 
L 350.883561 22.318125 
" clip-path="url(#p0ac397f154)" style="fill: none; stroke-dasharray: 2.96,1.28; stroke-dashoffset: 0; stroke: #ffffff; stroke-opacity: 0.7; stroke-width: 0.8"/>
     </g>
     <g id="text_6">
      <!-- 1.0 -->
      <g style="fill: #262626" transform="translate(342.931998 328.076563) scale(0.1 -0.1)">
       <defs>
        <path id="DejaVuSans-31" d="M 794 531 
L 1825 531 
L 1825 4091 
L 703 3866 
L 703 4441 
L 1819 4666 
L 2450 4666 
L 2450 531 
L 3481 531 
L 3481 0 
L 794 0 
L 794 531 
z
" transform="scale(0.015625)"/>
       </defs>
       <use xlink:href="#DejaVuSans-31"/>
       <use xlink:href="#DejaVuSans-2e" transform="translate(63.623047 0)"/>
       <use xlink:href="#DejaVuSans-30" transform="translate(95.410156 0)"/>
      </g>
     </g>
    </g>
    <g id="text_7">
     <!-- Recall -->
     <g style="fill: #262626" transform="translate(189.727178 341.754687) scale(0.1 -0.1)">
      <defs>
       <path id="DejaVuSans-52" d="M 2841 2188 
Q 3044 2119 3236 1894 
Q 3428 1669 3622 1275 
L 4263 0 
L 3584 0 
L 2988 1197 
Q 2756 1666 2539 1819 
Q 2322 1972 1947 1972 
L 1259 1972 
L 1259 0 
L 628 0 
L 628 4666 
L 2053 4666 
Q 2853 4666 3247 4331 
Q 3641 3997 3641 3322 
Q 3641 2881 3436 2590 
Q 3231 2300 2841 2188 
z
M 1259 4147 
L 1259 2491 
L 2053 2491 
Q 2509 2491 2742 2702 
Q 2975 2913 2975 3322 
Q 2975 3731 2742 3939 
Q 2509 4147 2053 4147 
L 1259 4147 
z
" transform="scale(0.015625)"/>
       <path id="DejaVuSans-65" d="M 3597 1894 
L 3597 1613 
L 953 1613 
Q 991 1019 1311 708 
Q 1631 397 2203 397 
Q 2534 397 2845 478 
Q 3156 559 3463 722 
L 3463 178 
Q 3153 47 2828 -22 
Q 2503 -91 2169 -91 
Q 1331 -91 842 396 
Q 353 884 353 1716 
Q 353 2575 817 3079 
Q 1281 3584 2069 3584 
Q 2775 3584 3186 3129 
Q 3597 2675 3597 1894 
z
M 3022 2063 
Q 3016 2534 2758 2815 
Q 2500 3097 2075 3097 
Q 1594 3097 1305 2825 
Q 1016 2553 972 2059 
L 3022 2063 
z
" transform="scale(0.015625)"/>
       <path id="DejaVuSans-63" d="M 3122 3366 
L 3122 2828 
Q 2878 2963 2633 3030 
Q 2388 3097 2138 3097 
Q 1578 3097 1268 2742 
Q 959 2388 959 1747 
Q 959 1106 1268 751 
Q 1578 397 2138 397 
Q 2388 397 2633 464 
Q 2878 531 3122 666 
L 3122 134 
Q 2881 22 2623 -34 
Q 2366 -91 2075 -91 
Q 1284 -91 818 406 
Q 353 903 353 1747 
Q 353 2603 823 3093 
Q 1294 3584 2113 3584 
Q 2378 3584 2631 3529 
Q 2884 3475 3122 3366 
z
" transform="scale(0.015625)"/>
       <path id="DejaVuSans-61" d="M 2194 1759 
Q 1497 1759 1228 1600 
Q 959 1441 959 1056 
Q 959 750 1161 570 
Q 1363 391 1709 391 
Q 2188 391 2477 730 
Q 2766 1069 2766 1631 
L 2766 1759 
L 2194 1759 
z
M 3341 1997 
L 3341 0 
L 2766 0 
L 2766 531 
Q 2569 213 2275 61 
Q 1981 -91 1556 -91 
Q 1019 -91 701 211 
Q 384 513 384 1019 
Q 384 1609 779 1909 
Q 1175 2209 1959 2209 
L 2766 2209 
L 2766 2266 
Q 2766 2663 2505 2880 
Q 2244 3097 1772 3097 
Q 1472 3097 1187 3025 
Q 903 2953 641 2809 
L 641 3341 
Q 956 3463 1253 3523 
Q 1550 3584 1831 3584 
Q 2591 3584 2966 3190 
Q 3341 2797 3341 1997 
z
" transform="scale(0.015625)"/>
       <path id="DejaVuSans-6c" d="M 603 4863 
L 1178 4863 
L 1178 0 
L 603 0 
L 603 4863 
z
" transform="scale(0.015625)"/>
      </defs>
      <use xlink:href="#DejaVuSans-52"/>
      <use xlink:href="#DejaVuSans-65" transform="translate(64.982422 0)"/>
      <use xlink:href="#DejaVuSans-63" transform="translate(126.505859 0)"/>
      <use xlink:href="#DejaVuSans-61" transform="translate(181.486328 0)"/>
      <use xlink:href="#DejaVuSans-6c" transform="translate(242.765625 0)"/>
      <use xlink:href="#DejaVuSans-6c" transform="translate(270.548828 0)"/>
     </g>
    </g>
   </g>
   <g id="matplotlib.axis_2">
    <g id="ytick_1">
     <g id="line2d_7">
      <path d="M 43.78125 300.24358 
L 365.50748 300.24358 
" clip-path="url(#p0ac397f154)" style="fill: none; stroke-dasharray: 2.96,1.28; stroke-dashoffset: 0; stroke: #ffffff; stroke-opacity: 0.7; stroke-width: 0.8"/>
     </g>
     <g id="text_8">
      <!-- 0.0 -->
      <g style="fill: #262626" transform="translate(20.878125 304.042798) scale(0.1 -0.1)">
       <use xlink:href="#DejaVuSans-30"/>
       <use xlink:href="#DejaVuSans-2e" transform="translate(63.623047 0)"/>
       <use xlink:href="#DejaVuSans-30" transform="translate(95.410156 0)"/>
      </g>
     </g>
    </g>
    <g id="ytick_2">
     <g id="line2d_8">
      <path d="M 43.78125 248.730809 
L 365.50748 248.730809 
" clip-path="url(#p0ac397f154)" style="fill: none; stroke-dasharray: 2.96,1.28; stroke-dashoffset: 0; stroke: #ffffff; stroke-opacity: 0.7; stroke-width: 0.8"/>
     </g>
     <g id="text_9">
      <!-- 0.2 -->
      <g style="fill: #262626" transform="translate(20.878125 252.530028) scale(0.1 -0.1)">
       <use xlink:href="#DejaVuSans-30"/>
       <use xlink:href="#DejaVuSans-2e" transform="translate(63.623047 0)"/>
       <use xlink:href="#DejaVuSans-32" transform="translate(95.410156 0)"/>
      </g>
     </g>
    </g>
    <g id="ytick_3">
     <g id="line2d_9">
      <path d="M 43.78125 197.218038 
L 365.50748 197.218038 
" clip-path="url(#p0ac397f154)" style="fill: none; stroke-dasharray: 2.96,1.28; stroke-dashoffset: 0; stroke: #ffffff; stroke-opacity: 0.7; stroke-width: 0.8"/>
     </g>
     <g id="text_10">
      <!-- 0.4 -->
      <g style="fill: #262626" transform="translate(20.878125 201.017257) scale(0.1 -0.1)">
       <use xlink:href="#DejaVuSans-30"/>
       <use xlink:href="#DejaVuSans-2e" transform="translate(63.623047 0)"/>
       <use xlink:href="#DejaVuSans-34" transform="translate(95.410156 0)"/>
      </g>
     </g>
    </g>
    <g id="ytick_4">
     <g id="line2d_10">
      <path d="M 43.78125 145.705268 
L 365.50748 145.705268 
" clip-path="url(#p0ac397f154)" style="fill: none; stroke-dasharray: 2.96,1.28; stroke-dashoffset: 0; stroke: #ffffff; stroke-opacity: 0.7; stroke-width: 0.8"/>
     </g>
     <g id="text_11">
      <!-- 0.6 -->
      <g style="fill: #262626" transform="translate(20.878125 149.504487) scale(0.1 -0.1)">
       <use xlink:href="#DejaVuSans-30"/>
       <use xlink:href="#DejaVuSans-2e" transform="translate(63.623047 0)"/>
       <use xlink:href="#DejaVuSans-36" transform="translate(95.410156 0)"/>
      </g>
     </g>
    </g>
    <g id="ytick_5">
     <g id="line2d_11">
      <path d="M 43.78125 94.192497 
L 365.50748 94.192497 
" clip-path="url(#p0ac397f154)" style="fill: none; stroke-dasharray: 2.96,1.28; stroke-dashoffset: 0; stroke: #ffffff; stroke-opacity: 0.7; stroke-width: 0.8"/>
     </g>
     <g id="text_12">
      <!-- 0.8 -->
      <g style="fill: #262626" transform="translate(20.878125 97.991716) scale(0.1 -0.1)">
       <use xlink:href="#DejaVuSans-30"/>
       <use xlink:href="#DejaVuSans-2e" transform="translate(63.623047 0)"/>
       <use xlink:href="#DejaVuSans-38" transform="translate(95.410156 0)"/>
      </g>
     </g>
    </g>
    <g id="ytick_6">
     <g id="line2d_12">
      <path d="M 43.78125 42.679727 
L 365.50748 42.679727 
" clip-path="url(#p0ac397f154)" style="fill: none; stroke-dasharray: 2.96,1.28; stroke-dashoffset: 0; stroke: #ffffff; stroke-opacity: 0.7; stroke-width: 0.8"/>
     </g>
     <g id="text_13">
      <!-- 1.0 -->
      <g style="fill: #262626" transform="translate(20.878125 46.478946) scale(0.1 -0.1)">
       <use xlink:href="#DejaVuSans-31"/>
       <use xlink:href="#DejaVuSans-2e" transform="translate(63.623047 0)"/>
       <use xlink:href="#DejaVuSans-30" transform="translate(95.410156 0)"/>
      </g>
     </g>
    </g>
    <g id="text_14">
     <!-- Precision -->
     <g style="fill: #262626" transform="translate(14.798438 190.205156) rotate(-90) scale(0.1 -0.1)">
      <defs>
       <path id="DejaVuSans-50" d="M 1259 4147 
L 1259 2394 
L 2053 2394 
Q 2494 2394 2734 2622 
Q 2975 2850 2975 3272 
Q 2975 3691 2734 3919 
Q 2494 4147 2053 4147 
L 1259 4147 
z
M 628 4666 
L 2053 4666 
Q 2838 4666 3239 4311 
Q 3641 3956 3641 3272 
Q 3641 2581 3239 2228 
Q 2838 1875 2053 1875 
L 1259 1875 
L 1259 0 
L 628 0 
L 628 4666 
z
" transform="scale(0.015625)"/>
       <path id="DejaVuSans-72" d="M 2631 2963 
Q 2534 3019 2420 3045 
Q 2306 3072 2169 3072 
Q 1681 3072 1420 2755 
Q 1159 2438 1159 1844 
L 1159 0 
L 581 0 
L 581 3500 
L 1159 3500 
L 1159 2956 
Q 1341 3275 1631 3429 
Q 1922 3584 2338 3584 
Q 2397 3584 2469 3576 
Q 2541 3569 2628 3553 
L 2631 2963 
z
" transform="scale(0.015625)"/>
       <path id="DejaVuSans-69" d="M 603 3500 
L 1178 3500 
L 1178 0 
L 603 0 
L 603 3500 
z
M 603 4863 
L 1178 4863 
L 1178 4134 
L 603 4134 
L 603 4863 
z
" transform="scale(0.015625)"/>
       <path id="DejaVuSans-73" d="M 2834 3397 
L 2834 2853 
Q 2591 2978 2328 3040 
Q 2066 3103 1784 3103 
Q 1356 3103 1142 2972 
Q 928 2841 928 2578 
Q 928 2378 1081 2264 
Q 1234 2150 1697 2047 
L 1894 2003 
Q 2506 1872 2764 1633 
Q 3022 1394 3022 966 
Q 3022 478 2636 193 
Q 2250 -91 1575 -91 
Q 1294 -91 989 -36 
Q 684 19 347 128 
L 347 722 
Q 666 556 975 473 
Q 1284 391 1588 391 
Q 1994 391 2212 530 
Q 2431 669 2431 922 
Q 2431 1156 2273 1281 
Q 2116 1406 1581 1522 
L 1381 1569 
Q 847 1681 609 1914 
Q 372 2147 372 2553 
Q 372 3047 722 3315 
Q 1072 3584 1716 3584 
Q 2034 3584 2315 3537 
Q 2597 3491 2834 3397 
z
" transform="scale(0.015625)"/>
       <path id="DejaVuSans-6f" d="M 1959 3097 
Q 1497 3097 1228 2736 
Q 959 2375 959 1747 
Q 959 1119 1226 758 
Q 1494 397 1959 397 
Q 2419 397 2687 759 
Q 2956 1122 2956 1747 
Q 2956 2369 2687 2733 
Q 2419 3097 1959 3097 
z
M 1959 3584 
Q 2709 3584 3137 3096 
Q 3566 2609 3566 1747 
Q 3566 888 3137 398 
Q 2709 -91 1959 -91 
Q 1206 -91 779 398 
Q 353 888 353 1747 
Q 353 2609 779 3096 
Q 1206 3584 1959 3584 
z
" transform="scale(0.015625)"/>
       <path id="DejaVuSans-6e" d="M 3513 2113 
L 3513 0 
L 2938 0 
L 2938 2094 
Q 2938 2591 2744 2837 
Q 2550 3084 2163 3084 
Q 1697 3084 1428 2787 
Q 1159 2491 1159 1978 
L 1159 0 
L 581 0 
L 581 3500 
L 1159 3500 
L 1159 2956 
Q 1366 3272 1645 3428 
Q 1925 3584 2291 3584 
Q 2894 3584 3203 3211 
Q 3513 2838 3513 2113 
z
" transform="scale(0.015625)"/>
      </defs>
      <use xlink:href="#DejaVuSans-50"/>
      <use xlink:href="#DejaVuSans-72" transform="translate(58.552734 0)"/>
      <use xlink:href="#DejaVuSans-65" transform="translate(97.416016 0)"/>
      <use xlink:href="#DejaVuSans-63" transform="translate(158.939453 0)"/>
      <use xlink:href="#DejaVuSans-69" transform="translate(213.919922 0)"/>
      <use xlink:href="#DejaVuSans-73" transform="translate(241.703125 0)"/>
      <use xlink:href="#DejaVuSans-69" transform="translate(293.802734 0)"/>
      <use xlink:href="#DejaVuSans-6f" transform="translate(321.585938 0)"/>
      <use xlink:href="#DejaVuSans-6e" transform="translate(382.767578 0)"/>
     </g>
    </g>
   </g>
   <g id="FillBetweenPolyCollection_1">
    <defs>
     <path id="m5236a9dbf2" d="M 58.40517 -308.354648 
L 58.40517 -308.354648 
L 61.359497 -308.354648 
L 64.313824 -308.354648 
L 67.268151 -308.354648 
L 70.222478 -308.354648 
L 73.176805 -308.354648 
L 76.131133 -308.354648 
L 79.08546 -308.354648 
L 82.039787 -308.354648 
L 84.994114 -308.354648 
L 87.948441 -308.354648 
L 90.902769 -308.354648 
L 93.857096 -308.354648 
L 96.811423 -308.354648 
L 99.76575 -308.354648 
L 102.720077 -308.354648 
L 105.674405 -308.354648 
L 108.628732 -308.354648 
L 111.583059 -308.354648 
L 114.537386 -308.354648 
L 117.491713 -308.354648 
L 120.44604 -308.354648 
L 123.400368 -308.354648 
L 126.354695 -308.354648 
L 129.309022 -308.354648 
L 132.263349 -308.354648 
L 135.217676 -308.354648 
L 138.172004 -308.354648 
L 141.126331 -308.354648 
L 144.080658 -308.354648 
L 147.034985 -308.354648 
L 149.989312 -308.354648 
L 152.943639 -308.354648 
L 155.897967 -308.354648 
L 158.852294 -308.354648 
L 161.806621 -308.354648 
L 164.760948 -308.354648 
L 167.715275 -308.354648 
L 170.669603 -308.354648 
L 173.62393 -308.354648 
L 176.578257 -308.354648 
L 179.532584 -308.354648 
L 182.486911 -308.354648 
L 185.441239 -308.354648 
L 188.395566 -308.354648 
L 191.349893 -308.354648 
L 194.30422 -308.354648 
L 197.258547 -308.354648 
L 200.212874 -308.354648 
L 203.167202 -308.354648 
L 206.121529 -308.354648 
L 209.075856 -308.354648 
L 212.030183 -308.354648 
L 214.98451 -308.354648 
L 217.938838 -308.354648 
L 220.893165 -308.354648 
L 223.847492 -308.354648 
L 226.801819 -308.354648 
L 229.756146 -308.354648 
L 232.710473 -308.354648 
L 235.664801 -308.354648 
L 238.619128 -308.354648 
L 241.573455 -308.354648 
L 244.527782 -308.354648 
L 247.482109 -308.354648 
L 250.436437 -308.354648 
L 253.390764 -308.354648 
L 256.345091 -307.266586 
L 259.299418 -307.281669 
L 262.253745 -307.296753 
L 265.208073 -307.311371 
L 268.1624 -307.325377 
L 271.116727 -307.339383 
L 274.071054 -307.352659 
L 277.025381 -307.365699 
L 279.979708 -307.378669 
L 282.934036 -307.39084 
L 285.888363 -307.403011 
L 288.84269 -307.414863 
L 291.797017 -307.426249 
L 294.751344 -307.437635 
L 297.705672 -307.117746 
L 300.659999 -307.132325 
L 303.614326 -306.789218 
L 306.568653 -306.290983 
L 309.52298 -306.314612 
L 312.477307 -305.826974 
L 315.431635 -305.075429 
L 318.385962 -305.111258 
L 321.340289 -303.73824 
L 324.294616 -301.865501 
L 327.248943 -300.723483 
L 330.203271 -299.264524 
L 333.157598 -296.282102 
L 336.111925 -291.786198 
L 339.066252 -287.592371 
L 342.020579 -285.695784 
L 344.974907 -262.562811 
L 347.929234 -262.926119 
L 350.883561 -166.117004 
L 350.883561 -192.964049 
L 350.883561 -192.964049 
L 347.929234 -309.605304 
L 344.974907 -309.597636 
L 342.020579 -315.397108 
L 339.066252 -314.828518 
L 336.111925 -315.427954 
L 333.157598 -313.783269 
L 330.203271 -311.963349 
L 327.248943 -312.036943 
L 324.294616 -311.720837 
L 321.340289 -310.902412 
L 318.385962 -310.179399 
L 315.431635 -310.199521 
L 312.477307 -309.987384 
L 309.52298 -309.637513 
L 306.568653 -309.652372 
L 303.614326 -309.454935 
L 300.659999 -309.27345 
L 297.705672 -309.284409 
L 294.751344 -309.104932 
L 291.797017 -309.114248 
L 288.84269 -309.123563 
L 285.888363 -309.133261 
L 282.934036 -309.143219 
L 279.979708 -309.153177 
L 277.025381 -309.163789 
L 274.071054 -309.174458 
L 271.116727 -309.185319 
L 268.1624 -309.196779 
L 265.208073 -309.208239 
L 262.253745 -309.220199 
L 259.299418 -309.23254 
L 256.345091 -309.244881 
L 253.390764 -308.354648 
L 250.436437 -308.354648 
L 247.482109 -308.354648 
L 244.527782 -308.354648 
L 241.573455 -308.354648 
L 238.619128 -308.354648 
L 235.664801 -308.354648 
L 232.710473 -308.354648 
L 229.756146 -308.354648 
L 226.801819 -308.354648 
L 223.847492 -308.354648 
L 220.893165 -308.354648 
L 217.938838 -308.354648 
L 214.98451 -308.354648 
L 212.030183 -308.354648 
L 209.075856 -308.354648 
L 206.121529 -308.354648 
L 203.167202 -308.354648 
L 200.212874 -308.354648 
L 197.258547 -308.354648 
L 194.30422 -308.354648 
L 191.349893 -308.354648 
L 188.395566 -308.354648 
L 185.441239 -308.354648 
L 182.486911 -308.354648 
L 179.532584 -308.354648 
L 176.578257 -308.354648 
L 173.62393 -308.354648 
L 170.669603 -308.354648 
L 167.715275 -308.354648 
L 164.760948 -308.354648 
L 161.806621 -308.354648 
L 158.852294 -308.354648 
L 155.897967 -308.354648 
L 152.943639 -308.354648 
L 149.989312 -308.354648 
L 147.034985 -308.354648 
L 144.080658 -308.354648 
L 141.126331 -308.354648 
L 138.172004 -308.354648 
L 135.217676 -308.354648 
L 132.263349 -308.354648 
L 129.309022 -308.354648 
L 126.354695 -308.354648 
L 123.400368 -308.354648 
L 120.44604 -308.354648 
L 117.491713 -308.354648 
L 114.537386 -308.354648 
L 111.583059 -308.354648 
L 108.628732 -308.354648 
L 105.674405 -308.354648 
L 102.720077 -308.354648 
L 99.76575 -308.354648 
L 96.811423 -308.354648 
L 93.857096 -308.354648 
L 90.902769 -308.354648 
L 87.948441 -308.354648 
L 84.994114 -308.354648 
L 82.039787 -308.354648 
L 79.08546 -308.354648 
L 76.131133 -308.354648 
L 73.176805 -308.354648 
L 70.222478 -308.354648 
L 67.268151 -308.354648 
L 64.313824 -308.354648 
L 61.359497 -308.354648 
L 58.40517 -308.354648 
z
" style="stroke: #ffffff; stroke-opacity: 0.2"/>
    </defs>
    <g clip-path="url(#p0ac397f154)">
     <use xlink:href="#m5236a9dbf2" x="0" y="351.034375" style="fill: #1f77b4; fill-opacity: 0.2; stroke: #ffffff; stroke-opacity: 0.2"/>
    </g>
   </g>
   <g id="FillBetweenPolyCollection_2">
    <defs>
     <path id="m241be0b97c" d="M 58.40517 -308.354648 
L 58.40517 -308.354648 
L 61.359497 -308.354648 
L 64.313824 -308.354648 
L 67.268151 -308.354648 
L 70.222478 -308.354648 
L 73.176805 -308.354648 
L 76.131133 -308.354648 
L 79.08546 -308.354648 
L 82.039787 -308.354648 
L 84.994114 -308.354648 
L 87.948441 -308.354648 
L 90.902769 -308.354648 
L 93.857096 -308.354648 
L 96.811423 -308.354648 
L 99.76575 -308.354648 
L 102.720077 -308.354648 
L 105.674405 -308.354648 
L 108.628732 -308.354648 
L 111.583059 -308.354648 
L 114.537386 -308.354648 
L 117.491713 -308.354648 
L 120.44604 -308.354648 
L 123.400368 -308.354648 
L 126.354695 -308.354648 
L 129.309022 -308.354648 
L 132.263349 -308.354648 
L 135.217676 -308.354648 
L 138.172004 -308.354648 
L 141.126331 -308.354648 
L 144.080658 -308.354648 
L 147.034985 -308.354648 
L 149.989312 -308.354648 
L 152.943639 -308.354648 
L 155.897967 -308.354648 
L 158.852294 -308.354648 
L 161.806621 -308.354648 
L 164.760948 -308.354648 
L 167.715275 -308.354648 
L 170.669603 -308.354648 
L 173.62393 -308.354648 
L 176.578257 -308.354648 
L 179.532584 -308.354648 
L 182.486911 -308.354648 
L 185.441239 -308.354648 
L 188.395566 -308.354648 
L 191.349893 -308.354648 
L 194.30422 -308.354648 
L 197.258547 -308.354648 
L 200.212874 -308.354648 
L 203.167202 -308.354648 
L 206.121529 -308.354648 
L 209.075856 -308.354648 
L 212.030183 -308.354648 
L 214.98451 -308.354648 
L 217.938838 -308.354648 
L 220.893165 -308.354648 
L 223.847492 -308.354648 
L 226.801819 -308.354648 
L 229.756146 -308.354648 
L 232.710473 -308.354648 
L 235.664801 -308.354648 
L 238.619128 -308.354648 
L 241.573455 -308.354648 
L 244.527782 -308.354648 
L 247.482109 -308.354648 
L 250.436437 -308.354648 
L 253.390764 -308.354648 
L 256.345091 -308.354648 
L 259.299418 -308.354648 
L 262.253745 -308.354648 
L 265.208073 -308.354648 
L 268.1624 -308.354648 
L 271.116727 -308.354648 
L 274.071054 -308.354648 
L 277.025381 -308.354648 
L 279.979708 -308.354648 
L 282.934036 -308.354648 
L 285.888363 -308.354648 
L 288.84269 -308.354648 
L 291.797017 -307.472525 
L 294.751344 -307.483094 
L 297.705672 -307.152453 
L 300.659999 -306.8421 
L 303.614326 -306.85986 
L 306.568653 -306.877208 
L 309.52298 -306.894008 
L 312.477307 -306.121052 
L 315.431635 -305.214356 
L 318.385962 -305.068962 
L 321.340289 -304.702108 
L 324.294616 -300.297364 
L 327.248943 -299.839063 
L 330.203271 -297.751946 
L 333.157598 -294.80033 
L 336.111925 -290.715574 
L 339.066252 -285.725704 
L 342.020579 -285.257531 
L 344.974907 -257.721445 
L 347.929234 -258.113447 
L 350.883561 -166.117004 
L 350.883561 -192.964049 
L 350.883561 -192.964049 
L 347.929234 -309.63476 
L 344.974907 -309.625044 
L 342.020579 -313.99223 
L 339.066252 -314.039449 
L 336.111925 -314.721601 
L 333.157598 -314.279131 
L 330.203271 -312.923387 
L 327.248943 -312.42441 
L 324.294616 -312.588223 
L 321.340289 -310.02111 
L 318.385962 -310.041708 
L 315.431635 -310.036386 
L 312.477307 -309.691944 
L 309.52298 -309.380613 
L 306.568653 -309.392412 
L 303.614326 -309.404599 
L 300.659999 -309.417073 
L 297.705672 -309.257913 
L 294.751344 -309.067738 
L 291.797017 -309.076386 
L 288.84269 -308.354648 
L 285.888363 -308.354648 
L 282.934036 -308.354648 
L 279.979708 -308.354648 
L 277.025381 -308.354648 
L 274.071054 -308.354648 
L 271.116727 -308.354648 
L 268.1624 -308.354648 
L 265.208073 -308.354648 
L 262.253745 -308.354648 
L 259.299418 -308.354648 
L 256.345091 -308.354648 
L 253.390764 -308.354648 
L 250.436437 -308.354648 
L 247.482109 -308.354648 
L 244.527782 -308.354648 
L 241.573455 -308.354648 
L 238.619128 -308.354648 
L 235.664801 -308.354648 
L 232.710473 -308.354648 
L 229.756146 -308.354648 
L 226.801819 -308.354648 
L 223.847492 -308.354648 
L 220.893165 -308.354648 
L 217.938838 -308.354648 
L 214.98451 -308.354648 
L 212.030183 -308.354648 
L 209.075856 -308.354648 
L 206.121529 -308.354648 
L 203.167202 -308.354648 
L 200.212874 -308.354648 
L 197.258547 -308.354648 
L 194.30422 -308.354648 
L 191.349893 -308.354648 
L 188.395566 -308.354648 
L 185.441239 -308.354648 
L 182.486911 -308.354648 
L 179.532584 -308.354648 
L 176.578257 -308.354648 
L 173.62393 -308.354648 
L 170.669603 -308.354648 
L 167.715275 -308.354648 
L 164.760948 -308.354648 
L 161.806621 -308.354648 
L 158.852294 -308.354648 
L 155.897967 -308.354648 
L 152.943639 -308.354648 
L 149.989312 -308.354648 
L 147.034985 -308.354648 
L 144.080658 -308.354648 
L 141.126331 -308.354648 
L 138.172004 -308.354648 
L 135.217676 -308.354648 
L 132.263349 -308.354648 
L 129.309022 -308.354648 
L 126.354695 -308.354648 
L 123.400368 -308.354648 
L 120.44604 -308.354648 
L 117.491713 -308.354648 
L 114.537386 -308.354648 
L 111.583059 -308.354648 
L 108.628732 -308.354648 
L 105.674405 -308.354648 
L 102.720077 -308.354648 
L 99.76575 -308.354648 
L 96.811423 -308.354648 
L 93.857096 -308.354648 
L 90.902769 -308.354648 
L 87.948441 -308.354648 
L 84.994114 -308.354648 
L 82.039787 -308.354648 
L 79.08546 -308.354648 
L 76.131133 -308.354648 
L 73.176805 -308.354648 
L 70.222478 -308.354648 
L 67.268151 -308.354648 
L 64.313824 -308.354648 
L 61.359497 -308.354648 
L 58.40517 -308.354648 
z
" style="stroke: #ffffff; stroke-opacity: 0.2"/>
    </defs>
    <g clip-path="url(#p0ac397f154)">
     <use xlink:href="#m241be0b97c" x="0" y="351.034375" style="fill: #ff7f0e; fill-opacity: 0.2; stroke: #ffffff; stroke-opacity: 0.2"/>
    </g>
   </g>
   <g id="FillBetweenPolyCollection_3">
    <defs>
     <path id="mee758de04b" d="M 58.40517 -308.354648 
L 58.40517 -308.354648 
L 61.359497 -308.354648 
L 64.313824 -308.354648 
L 67.268151 -308.354648 
L 70.222478 -308.354648 
L 73.176805 -308.354648 
L 76.131133 -308.354648 
L 79.08546 -308.354648 
L 82.039787 -308.354648 
L 84.994114 -308.354648 
L 87.948441 -308.354648 
L 90.902769 -308.354648 
L 93.857096 -308.354648 
L 96.811423 -308.354648 
L 99.76575 -308.354648 
L 102.720077 -308.354648 
L 105.674405 -308.354648 
L 108.628732 -308.354648 
L 111.583059 -308.354648 
L 114.537386 -308.354648 
L 117.491713 -308.354648 
L 120.44604 -308.354648 
L 123.400368 -308.354648 
L 126.354695 -308.354648 
L 129.309022 -308.354648 
L 132.263349 -308.354648 
L 135.217676 -308.354648 
L 138.172004 -308.354648 
L 141.126331 -308.354648 
L 144.080658 -308.354648 
L 147.034985 -308.354648 
L 149.989312 -308.354648 
L 152.943639 -308.354648 
L 155.897967 -308.354648 
L 158.852294 -308.354648 
L 161.806621 -308.354648 
L 164.760948 -308.354648 
L 167.715275 -308.354648 
L 170.669603 -308.354648 
L 173.62393 -308.354648 
L 176.578257 -308.354648 
L 179.532584 -308.354648 
L 182.486911 -308.354648 
L 185.441239 -308.354648 
L 188.395566 -308.354648 
L 191.349893 -308.354648 
L 194.30422 -308.354648 
L 197.258547 -308.354648 
L 200.212874 -308.354648 
L 203.167202 -308.354648 
L 206.121529 -308.354648 
L 209.075856 -308.354648 
L 212.030183 -308.354648 
L 214.98451 -308.354648 
L 217.938838 -308.354648 
L 220.893165 -308.354648 
L 223.847492 -308.354648 
L 226.801819 -308.354648 
L 229.756146 -308.354648 
L 232.710473 -308.354648 
L 235.664801 -308.354648 
L 238.619128 -308.354648 
L 241.573455 -308.354648 
L 244.527782 -308.354648 
L 247.482109 -308.354648 
L 250.436437 -308.354648 
L 253.390764 -308.354648 
L 256.345091 -308.354648 
L 259.299418 -308.354648 
L 262.253745 -308.354648 
L 265.208073 -308.354648 
L 268.1624 -308.354648 
L 271.116727 -308.354648 
L 274.071054 -307.129042 
L 277.025381 -307.144596 
L 279.979708 -307.160149 
L 282.934036 -307.175578 
L 285.888363 -307.189887 
L 288.84269 -307.204196 
L 291.797017 -307.218505 
L 294.751344 -306.96724 
L 297.705672 -306.430435 
L 300.659999 -306.453265 
L 303.614326 -305.704496 
L 306.568653 -305.546334 
L 309.52298 -305.413331 
L 312.477307 -304.910569 
L 315.431635 -302.404885 
L 318.385962 -302.370945 
L 321.340289 -301.72345 
L 324.294616 -300.528297 
L 327.248943 -300.406318 
L 330.203271 -297.926464 
L 333.157598 -293.730158 
L 336.111925 -288.624752 
L 339.066252 -285.5623 
L 342.020579 -284.461467 
L 344.974907 -258.037983 
L 347.929234 -258.415725 
L 350.883561 -166.117004 
L 350.883561 -192.964049 
L 350.883561 -192.964049 
L 347.929234 -308.379427 
L 344.974907 -308.443389 
L 342.020579 -314.156899 
L 339.066252 -314.255514 
L 336.111925 -315.481705 
L 333.157598 -314.54608 
L 330.203271 -312.430442 
L 327.248943 -311.76991 
L 324.294616 -311.701936 
L 321.340289 -311.301117 
L 318.385962 -311.323643 
L 315.431635 -311.392995 
L 312.477307 -310.261026 
L 309.52298 -310.212678 
L 306.568653 -310.211276 
L 303.614326 -310.195155 
L 300.659999 -309.621433 
L 297.705672 -309.636643 
L 294.751344 -309.402963 
L 291.797017 -309.28422 
L 288.84269 -309.295927 
L 285.888363 -309.307634 
L 282.934036 -309.319342 
L 279.979708 -309.331966 
L 277.025381 -309.344691 
L 274.071054 -309.357417 
L 271.116727 -308.354648 
L 268.1624 -308.354648 
L 265.208073 -308.354648 
L 262.253745 -308.354648 
L 259.299418 -308.354648 
L 256.345091 -308.354648 
L 253.390764 -308.354648 
L 250.436437 -308.354648 
L 247.482109 -308.354648 
L 244.527782 -308.354648 
L 241.573455 -308.354648 
L 238.619128 -308.354648 
L 235.664801 -308.354648 
L 232.710473 -308.354648 
L 229.756146 -308.354648 
L 226.801819 -308.354648 
L 223.847492 -308.354648 
L 220.893165 -308.354648 
L 217.938838 -308.354648 
L 214.98451 -308.354648 
L 212.030183 -308.354648 
L 209.075856 -308.354648 
L 206.121529 -308.354648 
L 203.167202 -308.354648 
L 200.212874 -308.354648 
L 197.258547 -308.354648 
L 194.30422 -308.354648 
L 191.349893 -308.354648 
L 188.395566 -308.354648 
L 185.441239 -308.354648 
L 182.486911 -308.354648 
L 179.532584 -308.354648 
L 176.578257 -308.354648 
L 173.62393 -308.354648 
L 170.669603 -308.354648 
L 167.715275 -308.354648 
L 164.760948 -308.354648 
L 161.806621 -308.354648 
L 158.852294 -308.354648 
L 155.897967 -308.354648 
L 152.943639 -308.354648 
L 149.989312 -308.354648 
L 147.034985 -308.354648 
L 144.080658 -308.354648 
L 141.126331 -308.354648 
L 138.172004 -308.354648 
L 135.217676 -308.354648 
L 132.263349 -308.354648 
L 129.309022 -308.354648 
L 126.354695 -308.354648 
L 123.400368 -308.354648 
L 120.44604 -308.354648 
L 117.491713 -308.354648 
L 114.537386 -308.354648 
L 111.583059 -308.354648 
L 108.628732 -308.354648 
L 105.674405 -308.354648 
L 102.720077 -308.354648 
L 99.76575 -308.354648 
L 96.811423 -308.354648 
L 93.857096 -308.354648 
L 90.902769 -308.354648 
L 87.948441 -308.354648 
L 84.994114 -308.354648 
L 82.039787 -308.354648 
L 79.08546 -308.354648 
L 76.131133 -308.354648 
L 73.176805 -308.354648 
L 70.222478 -308.354648 
L 67.268151 -308.354648 
L 64.313824 -308.354648 
L 61.359497 -308.354648 
L 58.40517 -308.354648 
z
" style="stroke: #ffffff; stroke-opacity: 0.2"/>
    </defs>
    <g clip-path="url(#p0ac397f154)">
     <use xlink:href="#mee758de04b" x="0" y="351.034375" style="fill: #2ca02c; fill-opacity: 0.2; stroke: #ffffff; stroke-opacity: 0.2"/>
    </g>
   </g>
   <g id="FillBetweenPolyCollection_4">
    <defs>
     <path id="mf3f97957e9" d="M 58.40517 -308.354648 
L 58.40517 -308.354648 
L 61.359497 -308.354648 
L 64.313824 -308.354648 
L 67.268151 -308.354648 
L 70.222478 -308.354648 
L 73.176805 -308.354648 
L 76.131133 -308.354648 
L 79.08546 -308.354648 
L 82.039787 -308.354648 
L 84.994114 -308.354648 
L 87.948441 -308.354648 
L 90.902769 -308.354648 
L 93.857096 -308.354648 
L 96.811423 -308.354648 
L 99.76575 -308.354648 
L 102.720077 -308.354648 
L 105.674405 -308.354648 
L 108.628732 -308.354648 
L 111.583059 -308.354648 
L 114.537386 -308.354648 
L 117.491713 -308.354648 
L 120.44604 -308.354648 
L 123.400368 -308.354648 
L 126.354695 -308.354648 
L 129.309022 -308.354648 
L 132.263349 -308.354648 
L 135.217676 -308.354648 
L 138.172004 -308.354648 
L 141.126331 -308.354648 
L 144.080658 -308.354648 
L 147.034985 -308.354648 
L 149.989312 -308.354648 
L 152.943639 -308.354648 
L 155.897967 -308.354648 
L 158.852294 -308.354648 
L 161.806621 -308.354648 
L 164.760948 -308.354648 
L 167.715275 -308.354648 
L 170.669603 -308.354648 
L 173.62393 -308.354648 
L 176.578257 -308.354648 
L 179.532584 -308.354648 
L 182.486911 -308.354648 
L 185.441239 -308.354648 
L 188.395566 -308.354648 
L 191.349893 -308.354648 
L 194.30422 -308.354648 
L 197.258547 -308.354648 
L 200.212874 -308.354648 
L 203.167202 -308.354648 
L 206.121529 -308.354648 
L 209.075856 -308.354648 
L 212.030183 -308.354648 
L 214.98451 -308.354648 
L 217.938838 -308.354648 
L 220.893165 -308.354648 
L 223.847492 -308.354648 
L 226.801819 -308.354648 
L 229.756146 -308.354648 
L 232.710473 -308.354648 
L 235.664801 -308.354648 
L 238.619128 -308.354648 
L 241.573455 -308.354648 
L 244.527782 -308.354648 
L 247.482109 -308.354648 
L 250.436437 -308.354648 
L 253.390764 -307.005504 
L 256.345091 -307.024087 
L 259.299418 -307.042671 
L 262.253745 -307.061254 
L 265.208073 -307.078706 
L 268.1624 -307.095673 
L 271.116727 -307.112641 
L 274.071054 -307.129042 
L 277.025381 -307.144596 
L 279.979708 -306.465236 
L 282.934036 -305.784657 
L 285.888363 -305.816192 
L 288.84269 -305.847372 
L 291.797017 -305.877808 
L 294.751344 -305.22388 
L 297.705672 -305.260047 
L 300.659999 -305.118814 
L 303.614326 -304.818447 
L 306.568653 -304.642646 
L 309.52298 -304.087658 
L 312.477307 -303.696054 
L 315.431635 -300.570161 
L 318.385962 -300.64838 
L 321.340289 -299.68113 
L 324.294616 -295.16858 
L 327.248943 -293.123099 
L 330.203271 -290.521905 
L 333.157598 -287.812438 
L 336.111925 -281.228782 
L 339.066252 -276.870582 
L 342.020579 -275.657086 
L 344.974907 -244.827496 
L 347.929234 -245.301459 
L 350.883561 -166.117004 
L 350.883561 -192.964049 
L 350.883561 -192.964049 
L 347.929234 -303.083078 
L 344.974907 -303.01559 
L 342.020579 -313.629531 
L 339.066252 -313.451282 
L 336.111925 -315.209248 
L 333.157598 -314.742973 
L 330.203271 -314.430733 
L 327.248943 -314.837834 
L 324.294616 -314.525544 
L 321.340289 -312.005082 
L 318.385962 -312.050002 
L 315.431635 -312.085502 
L 312.477307 -310.770211 
L 309.52298 -310.605858 
L 306.568653 -310.478927 
L 303.614326 -310.470103 
L 300.659999 -310.464289 
L 297.705672 -310.466373 
L 294.751344 -310.490977 
L 291.797017 -310.015864 
L 288.84269 -310.036244 
L 285.888363 -310.057145 
L 282.934036 -310.078251 
L 279.979708 -309.684831 
L 277.025381 -309.344691 
L 274.071054 -309.357417 
L 271.116727 -309.370836 
L 268.1624 -309.384719 
L 265.208073 -309.398601 
L 262.253745 -309.41288 
L 259.299418 -309.428084 
L 256.345091 -309.443289 
L 253.390764 -309.458493 
L 250.436437 -308.354648 
L 247.482109 -308.354648 
L 244.527782 -308.354648 
L 241.573455 -308.354648 
L 238.619128 -308.354648 
L 235.664801 -308.354648 
L 232.710473 -308.354648 
L 229.756146 -308.354648 
L 226.801819 -308.354648 
L 223.847492 -308.354648 
L 220.893165 -308.354648 
L 217.938838 -308.354648 
L 214.98451 -308.354648 
L 212.030183 -308.354648 
L 209.075856 -308.354648 
L 206.121529 -308.354648 
L 203.167202 -308.354648 
L 200.212874 -308.354648 
L 197.258547 -308.354648 
L 194.30422 -308.354648 
L 191.349893 -308.354648 
L 188.395566 -308.354648 
L 185.441239 -308.354648 
L 182.486911 -308.354648 
L 179.532584 -308.354648 
L 176.578257 -308.354648 
L 173.62393 -308.354648 
L 170.669603 -308.354648 
L 167.715275 -308.354648 
L 164.760948 -308.354648 
L 161.806621 -308.354648 
L 158.852294 -308.354648 
L 155.897967 -308.354648 
L 152.943639 -308.354648 
L 149.989312 -308.354648 
L 147.034985 -308.354648 
L 144.080658 -308.354648 
L 141.126331 -308.354648 
L 138.172004 -308.354648 
L 135.217676 -308.354648 
L 132.263349 -308.354648 
L 129.309022 -308.354648 
L 126.354695 -308.354648 
L 123.400368 -308.354648 
L 120.44604 -308.354648 
L 117.491713 -308.354648 
L 114.537386 -308.354648 
L 111.583059 -308.354648 
L 108.628732 -308.354648 
L 105.674405 -308.354648 
L 102.720077 -308.354648 
L 99.76575 -308.354648 
L 96.811423 -308.354648 
L 93.857096 -308.354648 
L 90.902769 -308.354648 
L 87.948441 -308.354648 
L 84.994114 -308.354648 
L 82.039787 -308.354648 
L 79.08546 -308.354648 
L 76.131133 -308.354648 
L 73.176805 -308.354648 
L 70.222478 -308.354648 
L 67.268151 -308.354648 
L 64.313824 -308.354648 
L 61.359497 -308.354648 
L 58.40517 -308.354648 
z
" style="stroke: #ffffff; stroke-opacity: 0.2"/>
    </defs>
    <g clip-path="url(#p0ac397f154)">
     <use xlink:href="#mf3f97957e9" x="0" y="351.034375" style="fill: #d62728; fill-opacity: 0.2; stroke: #ffffff; stroke-opacity: 0.2"/>
    </g>
   </g>
   <g id="FillBetweenPolyCollection_5">
    <defs>
     <path id="md8b86bbf63" d="M 58.40517 -308.354648 
L 58.40517 -308.354648 
L 61.359497 -308.354648 
L 64.313824 -308.354648 
L 67.268151 -308.354648 
L 70.222478 -308.354648 
L 73.176805 -308.354648 
L 76.131133 -308.354648 
L 79.08546 -308.354648 
L 82.039787 -308.354648 
L 84.994114 -308.354648 
L 87.948441 -308.354648 
L 90.902769 -308.354648 
L 93.857096 -308.354648 
L 96.811423 -308.354648 
L 99.76575 -308.354648 
L 102.720077 -308.354648 
L 105.674405 -308.354648 
L 108.628732 -308.354648 
L 111.583059 -308.354648 
L 114.537386 -308.354648 
L 117.491713 -308.354648 
L 120.44604 -308.354648 
L 123.400368 -308.354648 
L 126.354695 -308.354648 
L 129.309022 -308.354648 
L 132.263349 -308.354648 
L 135.217676 -308.354648 
L 138.172004 -308.354648 
L 141.126331 -308.354648 
L 144.080658 -308.354648 
L 147.034985 -308.354648 
L 149.989312 -308.354648 
L 152.943639 -308.354648 
L 155.897967 -308.354648 
L 158.852294 -308.354648 
L 161.806621 -308.354648 
L 164.760948 -308.354648 
L 167.715275 -308.354648 
L 170.669603 -308.354648 
L 173.62393 -308.354648 
L 176.578257 -308.354648 
L 179.532584 -308.354648 
L 182.486911 -308.354648 
L 185.441239 -308.354648 
L 188.395566 -308.354648 
L 191.349893 -308.354648 
L 194.30422 -308.354648 
L 197.258547 -308.354648 
L 200.212874 -308.354648 
L 203.167202 -308.354648 
L 206.121529 -308.354648 
L 209.075856 -308.354648 
L 212.030183 -308.354648 
L 214.98451 -306.956444 
L 217.938838 -306.980974 
L 220.893165 -307.005504 
L 223.847492 -307.027804 
L 226.801819 -307.050104 
L 229.756146 -307.071919 
L 232.710473 -307.09228 
L 235.664801 -307.112641 
L 238.619128 -307.132153 
L 241.573455 -307.150817 
L 244.527782 -306.452223 
L 247.482109 -306.480041 
L 250.436437 -306.507609 
L 253.390764 -306.535177 
L 256.345091 -306.560399 
L 259.299418 -306.585622 
L 262.253745 -306.232555 
L 265.208073 -305.34585 
L 268.1624 -305.385044 
L 271.116727 -305.423797 
L 274.071054 -305.222869 
L 277.025381 -305.262216 
L 279.979708 -304.923561 
L 282.934036 -304.96646 
L 285.888363 -305.007796 
L 288.84269 -304.641607 
L 291.797017 -304.5474 
L 294.751344 -303.739268 
L 297.705672 -303.791741 
L 300.659999 -303.566898 
L 303.614326 -302.832814 
L 306.568653 -302.40813 
L 309.52298 -302.14613 
L 312.477307 -301.587794 
L 315.431635 -298.95032 
L 318.385962 -298.902558 
L 321.340289 -297.693806 
L 324.294616 -293.414556 
L 327.248943 -290.973246 
L 330.203271 -285.649994 
L 333.157598 -281.900133 
L 336.111925 -272.0478 
L 339.066252 -263.900377 
L 342.020579 -260.003667 
L 344.974907 -234.378554 
L 347.929234 -234.899614 
L 350.883561 -166.117004 
L 350.883561 -192.964049 
L 350.883561 -192.964049 
L 347.929234 -296.600969 
L 344.974907 -296.468426 
L 342.020579 -311.634401 
L 339.066252 -310.609626 
L 336.111925 -314.582365 
L 333.157598 -313.046239 
L 330.203271 -313.178134 
L 327.248943 -313.486236 
L 324.294616 -314.127155 
L 321.340289 -312.277329 
L 318.385962 -312.355403 
L 315.431635 -312.512521 
L 312.477307 -311.632667 
L 309.52298 -311.180717 
L 306.568653 -311.181608 
L 303.614326 -311.341032 
L 300.659999 -310.866246 
L 297.705672 -310.927684 
L 294.751344 -310.956774 
L 291.797017 -310.453798 
L 288.84269 -310.482993 
L 285.888363 -310.449319 
L 282.934036 -310.474942 
L 279.979708 -310.501733 
L 277.025381 -310.476096 
L 274.071054 -310.502913 
L 271.116727 -310.473734 
L 268.1624 -310.501686 
L 265.208073 -310.529888 
L 262.253745 -309.846661 
L 259.299418 -309.684845 
L 256.345091 -309.703808 
L 253.390764 -309.72277 
L 250.436437 -309.743499 
L 247.482109 -309.764228 
L 244.527782 -309.78514 
L 241.573455 -309.339601 
L 238.619128 -309.354871 
L 235.664801 -309.370836 
L 232.710473 -309.387495 
L 229.756146 -309.404154 
L 226.801819 -309.422003 
L 223.847492 -309.440248 
L 220.893165 -309.458493 
L 217.938838 -309.478563 
L 214.98451 -309.498633 
L 212.030183 -308.354648 
L 209.075856 -308.354648 
L 206.121529 -308.354648 
L 203.167202 -308.354648 
L 200.212874 -308.354648 
L 197.258547 -308.354648 
L 194.30422 -308.354648 
L 191.349893 -308.354648 
L 188.395566 -308.354648 
L 185.441239 -308.354648 
L 182.486911 -308.354648 
L 179.532584 -308.354648 
L 176.578257 -308.354648 
L 173.62393 -308.354648 
L 170.669603 -308.354648 
L 167.715275 -308.354648 
L 164.760948 -308.354648 
L 161.806621 -308.354648 
L 158.852294 -308.354648 
L 155.897967 -308.354648 
L 152.943639 -308.354648 
L 149.989312 -308.354648 
L 147.034985 -308.354648 
L 144.080658 -308.354648 
L 141.126331 -308.354648 
L 138.172004 -308.354648 
L 135.217676 -308.354648 
L 132.263349 -308.354648 
L 129.309022 -308.354648 
L 126.354695 -308.354648 
L 123.400368 -308.354648 
L 120.44604 -308.354648 
L 117.491713 -308.354648 
L 114.537386 -308.354648 
L 111.583059 -308.354648 
L 108.628732 -308.354648 
L 105.674405 -308.354648 
L 102.720077 -308.354648 
L 99.76575 -308.354648 
L 96.811423 -308.354648 
L 93.857096 -308.354648 
L 90.902769 -308.354648 
L 87.948441 -308.354648 
L 84.994114 -308.354648 
L 82.039787 -308.354648 
L 79.08546 -308.354648 
L 76.131133 -308.354648 
L 73.176805 -308.354648 
L 70.222478 -308.354648 
L 67.268151 -308.354648 
L 64.313824 -308.354648 
L 61.359497 -308.354648 
L 58.40517 -308.354648 
z
" style="stroke: #ffffff; stroke-opacity: 0.2"/>
    </defs>
    <g clip-path="url(#p0ac397f154)">
     <use xlink:href="#md8b86bbf63" x="0" y="351.034375" style="fill: #9467bd; fill-opacity: 0.2; stroke: #ffffff; stroke-opacity: 0.2"/>
    </g>
   </g>
   <g id="line2d_13">
    <path d="M 58.40517 42.679727 
L 61.359497 42.679727 
L 64.313824 42.679727 
L 67.268151 42.679727 
L 70.222478 42.679727 
L 73.176805 42.679727 
L 76.131133 42.679727 
L 79.08546 42.679727 
L 82.039787 42.679727 
L 84.994114 42.679727 
L 87.948441 42.679727 
L 90.902769 42.679727 
L 93.857096 42.679727 
L 96.811423 42.679727 
L 99.76575 42.679727 
L 102.720077 42.679727 
L 105.674405 42.679727 
L 108.628732 42.679727 
L 111.583059 42.679727 
L 114.537386 42.679727 
L 117.491713 42.679727 
L 120.44604 42.679727 
L 123.400368 42.679727 
L 126.354695 42.679727 
L 129.309022 42.679727 
L 132.263349 42.679727 
L 135.217676 42.679727 
L 138.172004 42.679727 
L 141.126331 42.679727 
L 144.080658 42.679727 
L 147.034985 42.679727 
L 149.989312 42.679727 
L 152.943639 42.679727 
L 155.897967 42.679727 
L 158.852294 42.679727 
L 161.806621 42.679727 
L 164.760948 42.679727 
L 167.715275 42.679727 
L 170.669603 42.679727 
L 173.62393 42.679727 
L 176.578257 42.679727 
L 179.532584 42.679727 
L 182.486911 42.679727 
L 185.441239 42.679727 
L 188.395566 42.679727 
L 191.349893 42.679727 
L 194.30422 42.679727 
L 197.258547 42.679727 
L 200.212874 42.679727 
L 203.167202 42.679727 
L 206.121529 42.679727 
L 209.075856 42.679727 
L 212.030183 42.679727 
L 214.98451 42.679727 
L 217.938838 42.679727 
L 220.893165 42.679727 
L 223.847492 42.679727 
L 226.801819 42.679727 
L 229.756146 42.679727 
L 232.710473 42.679727 
L 235.664801 42.679727 
L 238.619128 42.679727 
L 241.573455 42.679727 
L 244.527782 42.679727 
L 247.482109 42.679727 
L 250.436437 42.679727 
L 253.390764 42.679727 
L 256.345091 42.778642 
L 259.299418 42.77727 
L 262.253745 42.775899 
L 265.208073 42.77457 
L 268.1624 42.773297 
L 271.116727 42.772024 
L 274.071054 42.770817 
L 277.025381 42.769631 
L 279.979708 42.768452 
L 282.934036 42.767346 
L 285.888363 42.766239 
L 288.84269 42.765162 
L 291.797017 42.764127 
L 294.751344 42.763092 
L 297.705672 42.833298 
L 300.659999 42.831487 
L 303.614326 42.912299 
L 306.568653 43.062698 
L 309.52298 43.058313 
L 312.477307 43.127196 
L 315.431635 43.3969 
L 318.385962 43.389047 
L 321.340289 43.714049 
L 324.294616 44.241206 
L 327.248943 44.654162 
L 330.203271 45.420438 
L 333.157598 46.00169 
L 336.111925 47.427299 
L 339.066252 49.82393 
L 342.020579 50.487929 
L 344.974907 64.954152 
L 347.929234 64.768664 
L 350.883561 171.493849 
" clip-path="url(#p0ac397f154)" style="fill: none; stroke: #1f77b4; stroke-width: 1.5; stroke-linecap: round"/>
   </g>
   <g id="line2d_14">
    <path d="M 58.40517 42.679727 
L 61.359497 42.679727 
L 64.313824 42.679727 
L 67.268151 42.679727 
L 70.222478 42.679727 
L 73.176805 42.679727 
L 76.131133 42.679727 
L 79.08546 42.679727 
L 82.039787 42.679727 
L 84.994114 42.679727 
L 87.948441 42.679727 
L 90.902769 42.679727 
L 93.857096 42.679727 
L 96.811423 42.679727 
L 99.76575 42.679727 
L 102.720077 42.679727 
L 105.674405 42.679727 
L 108.628732 42.679727 
L 111.583059 42.679727 
L 114.537386 42.679727 
L 117.491713 42.679727 
L 120.44604 42.679727 
L 123.400368 42.679727 
L 126.354695 42.679727 
L 129.309022 42.679727 
L 132.263349 42.679727 
L 135.217676 42.679727 
L 138.172004 42.679727 
L 141.126331 42.679727 
L 144.080658 42.679727 
L 147.034985 42.679727 
L 149.989312 42.679727 
L 152.943639 42.679727 
L 155.897967 42.679727 
L 158.852294 42.679727 
L 161.806621 42.679727 
L 164.760948 42.679727 
L 167.715275 42.679727 
L 170.669603 42.679727 
L 173.62393 42.679727 
L 176.578257 42.679727 
L 179.532584 42.679727 
L 182.486911 42.679727 
L 185.441239 42.679727 
L 188.395566 42.679727 
L 191.349893 42.679727 
L 194.30422 42.679727 
L 197.258547 42.679727 
L 200.212874 42.679727 
L 203.167202 42.679727 
L 206.121529 42.679727 
L 209.075856 42.679727 
L 212.030183 42.679727 
L 214.98451 42.679727 
L 217.938838 42.679727 
L 220.893165 42.679727 
L 223.847492 42.679727 
L 226.801819 42.679727 
L 229.756146 42.679727 
L 232.710473 42.679727 
L 235.664801 42.679727 
L 238.619128 42.679727 
L 241.573455 42.679727 
L 244.527782 42.679727 
L 247.482109 42.679727 
L 250.436437 42.679727 
L 253.390764 42.679727 
L 256.345091 42.679727 
L 259.299418 42.679727 
L 262.253745 42.679727 
L 265.208073 42.679727 
L 268.1624 42.679727 
L 271.116727 42.679727 
L 274.071054 42.679727 
L 277.025381 42.679727 
L 279.979708 42.679727 
L 282.934036 42.679727 
L 285.888363 42.679727 
L 288.84269 42.679727 
L 291.797017 42.75992 
L 294.751344 42.758959 
L 297.705672 42.829192 
L 300.659999 42.904789 
L 303.614326 42.902146 
L 306.568653 42.899565 
L 309.52298 42.897064 
L 312.477307 43.127877 
L 315.431635 43.409004 
L 318.385962 43.47904 
L 321.340289 43.672766 
L 324.294616 44.591582 
L 327.248943 44.902639 
L 330.203271 45.696709 
L 333.157598 46.494645 
L 336.111925 48.315788 
L 339.066252 51.151799 
L 342.020579 51.409495 
L 344.974907 67.36113 
L 347.929234 67.160271 
L 350.883561 171.493849 
" clip-path="url(#p0ac397f154)" style="fill: none; stroke: #ff7f0e; stroke-width: 1.5; stroke-linecap: round"/>
   </g>
   <g id="line2d_15">
    <path d="M 58.40517 42.679727 
L 61.359497 42.679727 
L 64.313824 42.679727 
L 67.268151 42.679727 
L 70.222478 42.679727 
L 73.176805 42.679727 
L 76.131133 42.679727 
L 79.08546 42.679727 
L 82.039787 42.679727 
L 84.994114 42.679727 
L 87.948441 42.679727 
L 90.902769 42.679727 
L 93.857096 42.679727 
L 96.811423 42.679727 
L 99.76575 42.679727 
L 102.720077 42.679727 
L 105.674405 42.679727 
L 108.628732 42.679727 
L 111.583059 42.679727 
L 114.537386 42.679727 
L 117.491713 42.679727 
L 120.44604 42.679727 
L 123.400368 42.679727 
L 126.354695 42.679727 
L 129.309022 42.679727 
L 132.263349 42.679727 
L 135.217676 42.679727 
L 138.172004 42.679727 
L 141.126331 42.679727 
L 144.080658 42.679727 
L 147.034985 42.679727 
L 149.989312 42.679727 
L 152.943639 42.679727 
L 155.897967 42.679727 
L 158.852294 42.679727 
L 161.806621 42.679727 
L 164.760948 42.679727 
L 167.715275 42.679727 
L 170.669603 42.679727 
L 173.62393 42.679727 
L 176.578257 42.679727 
L 179.532584 42.679727 
L 182.486911 42.679727 
L 185.441239 42.679727 
L 188.395566 42.679727 
L 191.349893 42.679727 
L 194.30422 42.679727 
L 197.258547 42.679727 
L 200.212874 42.679727 
L 203.167202 42.679727 
L 206.121529 42.679727 
L 209.075856 42.679727 
L 212.030183 42.679727 
L 214.98451 42.679727 
L 217.938838 42.679727 
L 220.893165 42.679727 
L 223.847492 42.679727 
L 226.801819 42.679727 
L 229.756146 42.679727 
L 232.710473 42.679727 
L 235.664801 42.679727 
L 238.619128 42.679727 
L 241.573455 42.679727 
L 244.527782 42.679727 
L 247.482109 42.679727 
L 250.436437 42.679727 
L 253.390764 42.679727 
L 256.345091 42.679727 
L 259.299418 42.679727 
L 262.253745 42.679727 
L 265.208073 42.679727 
L 268.1624 42.679727 
L 271.116727 42.679727 
L 274.071054 42.791146 
L 277.025381 42.789732 
L 279.979708 42.788318 
L 282.934036 42.786915 
L 285.888363 42.785614 
L 288.84269 42.784313 
L 291.797017 42.783013 
L 294.751344 42.849273 
L 297.705672 43.000836 
L 300.659999 42.997026 
L 303.614326 43.084549 
L 306.568653 43.15557 
L 309.52298 43.22137 
L 312.477307 43.448578 
L 315.431635 44.135435 
L 318.385962 44.187081 
L 321.340289 44.522091 
L 324.294616 44.919259 
L 327.248943 44.946261 
L 330.203271 45.855922 
L 333.157598 46.896256 
L 336.111925 48.981147 
L 339.066252 51.125468 
L 342.020579 51.725192 
L 344.974907 67.793689 
L 347.929234 67.636799 
L 350.883561 171.493849 
" clip-path="url(#p0ac397f154)" style="fill: none; stroke: #2ca02c; stroke-width: 1.5; stroke-linecap: round"/>
   </g>
   <g id="line2d_16">
    <path d="M 58.40517 42.679727 
L 61.359497 42.679727 
L 64.313824 42.679727 
L 67.268151 42.679727 
L 70.222478 42.679727 
L 73.176805 42.679727 
L 76.131133 42.679727 
L 79.08546 42.679727 
L 82.039787 42.679727 
L 84.994114 42.679727 
L 87.948441 42.679727 
L 90.902769 42.679727 
L 93.857096 42.679727 
L 96.811423 42.679727 
L 99.76575 42.679727 
L 102.720077 42.679727 
L 105.674405 42.679727 
L 108.628732 42.679727 
L 111.583059 42.679727 
L 114.537386 42.679727 
L 117.491713 42.679727 
L 120.44604 42.679727 
L 123.400368 42.679727 
L 126.354695 42.679727 
L 129.309022 42.679727 
L 132.263349 42.679727 
L 135.217676 42.679727 
L 138.172004 42.679727 
L 141.126331 42.679727 
L 144.080658 42.679727 
L 147.034985 42.679727 
L 149.989312 42.679727 
L 152.943639 42.679727 
L 155.897967 42.679727 
L 158.852294 42.679727 
L 161.806621 42.679727 
L 164.760948 42.679727 
L 167.715275 42.679727 
L 170.669603 42.679727 
L 173.62393 42.679727 
L 176.578257 42.679727 
L 179.532584 42.679727 
L 182.486911 42.679727 
L 185.441239 42.679727 
L 188.395566 42.679727 
L 191.349893 42.679727 
L 194.30422 42.679727 
L 197.258547 42.679727 
L 200.212874 42.679727 
L 203.167202 42.679727 
L 206.121529 42.679727 
L 209.075856 42.679727 
L 212.030183 42.679727 
L 214.98451 42.679727 
L 217.938838 42.679727 
L 220.893165 42.679727 
L 223.847492 42.679727 
L 226.801819 42.679727 
L 229.756146 42.679727 
L 232.710473 42.679727 
L 235.664801 42.679727 
L 238.619128 42.679727 
L 241.573455 42.679727 
L 244.527782 42.679727 
L 247.482109 42.679727 
L 250.436437 42.679727 
L 253.390764 42.802376 
L 256.345091 42.800687 
L 259.299418 42.798997 
L 262.253745 42.797308 
L 265.208073 42.795722 
L 268.1624 42.794179 
L 271.116727 42.792637 
L 274.071054 42.791146 
L 277.025381 42.789732 
L 279.979708 42.959341 
L 282.934036 43.102921 
L 285.888363 43.097707 
L 288.84269 43.092567 
L 291.797017 43.087539 
L 294.751344 43.176947 
L 297.705672 43.171165 
L 300.659999 43.242823 
L 303.614326 43.3901 
L 306.568653 43.473589 
L 309.52298 43.687617 
L 312.477307 43.801242 
L 315.431635 44.706543 
L 318.385962 44.685184 
L 321.340289 45.191269 
L 324.294616 46.187313 
L 327.248943 47.053909 
L 330.203271 48.558056 
L 333.157598 49.75667 
L 336.111925 52.81536 
L 339.066252 55.873443 
L 342.020579 56.391067 
L 344.974907 77.112832 
L 347.929234 76.842107 
L 350.883561 171.493849 
" clip-path="url(#p0ac397f154)" style="fill: none; stroke: #d62728; stroke-width: 1.5; stroke-linecap: round"/>
   </g>
   <g id="line2d_17">
    <path d="M 58.40517 42.679727 
L 61.359497 42.679727 
L 64.313824 42.679727 
L 67.268151 42.679727 
L 70.222478 42.679727 
L 73.176805 42.679727 
L 76.131133 42.679727 
L 79.08546 42.679727 
L 82.039787 42.679727 
L 84.994114 42.679727 
L 87.948441 42.679727 
L 90.902769 42.679727 
L 93.857096 42.679727 
L 96.811423 42.679727 
L 99.76575 42.679727 
L 102.720077 42.679727 
L 105.674405 42.679727 
L 108.628732 42.679727 
L 111.583059 42.679727 
L 114.537386 42.679727 
L 117.491713 42.679727 
L 120.44604 42.679727 
L 123.400368 42.679727 
L 126.354695 42.679727 
L 129.309022 42.679727 
L 132.263349 42.679727 
L 135.217676 42.679727 
L 138.172004 42.679727 
L 141.126331 42.679727 
L 144.080658 42.679727 
L 147.034985 42.679727 
L 149.989312 42.679727 
L 152.943639 42.679727 
L 155.897967 42.679727 
L 158.852294 42.679727 
L 161.806621 42.679727 
L 164.760948 42.679727 
L 167.715275 42.679727 
L 170.669603 42.679727 
L 173.62393 42.679727 
L 176.578257 42.679727 
L 179.532584 42.679727 
L 182.486911 42.679727 
L 185.441239 42.679727 
L 188.395566 42.679727 
L 191.349893 42.679727 
L 194.30422 42.679727 
L 197.258547 42.679727 
L 200.212874 42.679727 
L 203.167202 42.679727 
L 206.121529 42.679727 
L 209.075856 42.679727 
L 212.030183 42.679727 
L 214.98451 42.806836 
L 217.938838 42.804606 
L 220.893165 42.802376 
L 223.847492 42.800349 
L 226.801819 42.798322 
L 229.756146 42.796339 
L 232.710473 42.794488 
L 235.664801 42.792637 
L 238.619128 42.790863 
L 241.573455 42.789166 
L 244.527782 42.915694 
L 247.482109 42.91224 
L 250.436437 42.908821 
L 253.390764 42.905402 
L 256.345091 42.902271 
L 259.299418 42.899141 
L 262.253745 42.994767 
L 265.208073 43.096506 
L 268.1624 43.09101 
L 271.116727 43.085609 
L 274.071054 43.171484 
L 277.025381 43.165219 
L 279.979708 43.321728 
L 282.934036 43.313674 
L 285.888363 43.305817 
L 288.84269 43.472075 
L 291.797017 43.533776 
L 294.751344 43.686354 
L 297.705672 43.674662 
L 300.659999 43.817803 
L 303.614326 43.947452 
L 306.568653 44.239506 
L 309.52298 44.370952 
L 312.477307 44.424144 
L 315.431635 45.302955 
L 318.385962 45.405394 
L 321.340289 46.048807 
L 324.294616 47.263519 
L 327.248943 48.804634 
L 330.203271 51.620311 
L 333.157598 53.561189 
L 336.111925 57.719293 
L 339.066252 63.779374 
L 342.020579 65.215341 
L 344.974907 85.610885 
L 347.929234 85.284083 
L 350.883561 171.493849 
" clip-path="url(#p0ac397f154)" style="fill: none; stroke: #9467bd; stroke-width: 1.5; stroke-linecap: round"/>
   </g>
   <g id="line2d_18">
    <path d="M 58.40517 42.679727 
L 350.883561 300.24358 
" clip-path="url(#p0ac397f154)" style="fill: none; stroke-dasharray: 7.4,3.2; stroke-dashoffset: 0; stroke: #000000; stroke-width: 2"/>
   </g>
   <g id="patch_3">
    <path d="M 43.78125 313.478125 
L 43.78125 22.318125 
" style="fill: none; stroke: #ffffff; stroke-width: 0.8; stroke-linejoin: miter; stroke-linecap: square"/>
   </g>
   <g id="patch_4">
    <path d="M 365.50748 313.478125 
L 365.50748 22.318125 
" style="fill: none; stroke: #ffffff; stroke-width: 0.8; stroke-linejoin: miter; stroke-linecap: square"/>
   </g>
   <g id="patch_5">
    <path d="M 43.78125 313.478125 
L 365.50748 313.478125 
" style="fill: none; stroke: #ffffff; stroke-width: 0.8; stroke-linejoin: miter; stroke-linecap: square"/>
   </g>
   <g id="patch_6">
    <path d="M 43.78125 22.318125 
L 365.50748 22.318125 
" style="fill: none; stroke: #ffffff; stroke-width: 0.8; stroke-linejoin: miter; stroke-linecap: square"/>
   </g>
   <g id="text_15">
    <!-- PR Curve -->
    <g style="fill: #262626" transform="translate(177.24874 16.318125) scale(0.12 -0.12)">
     <defs>
      <path id="DejaVuSans-20" transform="scale(0.015625)"/>
      <path id="DejaVuSans-43" d="M 4122 4306 
L 4122 3641 
Q 3803 3938 3442 4084 
Q 3081 4231 2675 4231 
Q 1875 4231 1450 3742 
Q 1025 3253 1025 2328 
Q 1025 1406 1450 917 
Q 1875 428 2675 428 
Q 3081 428 3442 575 
Q 3803 722 4122 1019 
L 4122 359 
Q 3791 134 3420 21 
Q 3050 -91 2638 -91 
Q 1578 -91 968 557 
Q 359 1206 359 2328 
Q 359 3453 968 4101 
Q 1578 4750 2638 4750 
Q 3056 4750 3426 4639 
Q 3797 4528 4122 4306 
z
" transform="scale(0.015625)"/>
      <path id="DejaVuSans-75" d="M 544 1381 
L 544 3500 
L 1119 3500 
L 1119 1403 
Q 1119 906 1312 657 
Q 1506 409 1894 409 
Q 2359 409 2629 706 
Q 2900 1003 2900 1516 
L 2900 3500 
L 3475 3500 
L 3475 0 
L 2900 0 
L 2900 538 
Q 2691 219 2414 64 
Q 2138 -91 1772 -91 
Q 1169 -91 856 284 
Q 544 659 544 1381 
z
M 1991 3584 
L 1991 3584 
z
" transform="scale(0.015625)"/>
      <path id="DejaVuSans-76" d="M 191 3500 
L 800 3500 
L 1894 563 
L 2988 3500 
L 3597 3500 
L 2284 0 
L 1503 0 
L 191 3500 
z
" transform="scale(0.015625)"/>
     </defs>
     <use xlink:href="#DejaVuSans-50"/>
     <use xlink:href="#DejaVuSans-52" transform="translate(60.302734 0)"/>
     <use xlink:href="#DejaVuSans-20" transform="translate(129.785156 0)"/>
     <use xlink:href="#DejaVuSans-43" transform="translate(161.572266 0)"/>
     <use xlink:href="#DejaVuSans-75" transform="translate(231.396484 0)"/>
     <use xlink:href="#DejaVuSans-72" transform="translate(294.775391 0)"/>
     <use xlink:href="#DejaVuSans-76" transform="translate(335.888672 0)"/>
     <use xlink:href="#DejaVuSans-65" transform="translate(395.068359 0)"/>
    </g>
   </g>
   <g id="legend_1">
    <g id="patch_7">
     <path d="M 372.50748 213.4325 
L 558.90748 213.4325 
Q 560.90748 213.4325 560.90748 211.4325 
L 560.90748 124.36375 
Q 560.90748 122.36375 558.90748 122.36375 
L 372.50748 122.36375 
Q 370.50748 122.36375 370.50748 124.36375 
L 370.50748 211.4325 
Q 370.50748 213.4325 372.50748 213.4325 
z
" style="fill: #eaeaf2; opacity: 0.8; stroke: #cccccc; stroke-linejoin: miter"/>
    </g>
    <g id="line2d_19">
     <path d="M 374.50748 130.462188 
L 384.50748 130.462188 
L 394.50748 130.462188 
" style="fill: none; stroke: #1f77b4; stroke-width: 1.5; stroke-linecap: round"/>
    </g>
    <g id="text_16">
     <!-- 0% Noise (AUC$ = 1.00 \pm  0.00$) -->
     <g style="fill: #262626" transform="translate(402.50748 133.962188) scale(0.1 -0.1)">
      <defs>
       <path id="DejaVuSans-25" d="M 4653 2053 
Q 4381 2053 4226 1822 
Q 4072 1591 4072 1178 
Q 4072 772 4226 539 
Q 4381 306 4653 306 
Q 4919 306 5073 539 
Q 5228 772 5228 1178 
Q 5228 1588 5073 1820 
Q 4919 2053 4653 2053 
z
M 4653 2450 
Q 5147 2450 5437 2106 
Q 5728 1763 5728 1178 
Q 5728 594 5436 251 
Q 5144 -91 4653 -91 
Q 4153 -91 3862 251 
Q 3572 594 3572 1178 
Q 3572 1766 3864 2108 
Q 4156 2450 4653 2450 
z
M 1428 4353 
Q 1159 4353 1004 4120 
Q 850 3888 850 3481 
Q 850 3069 1003 2837 
Q 1156 2606 1428 2606 
Q 1700 2606 1854 2837 
Q 2009 3069 2009 3481 
Q 2009 3884 1853 4118 
Q 1697 4353 1428 4353 
z
M 4250 4750 
L 4750 4750 
L 1831 -91 
L 1331 -91 
L 4250 4750 
z
M 1428 4750 
Q 1922 4750 2215 4408 
Q 2509 4066 2509 3481 
Q 2509 2891 2217 2550 
Q 1925 2209 1428 2209 
Q 931 2209 642 2551 
Q 353 2894 353 3481 
Q 353 4063 643 4406 
Q 934 4750 1428 4750 
z
" transform="scale(0.015625)"/>
       <path id="DejaVuSans-4e" d="M 628 4666 
L 1478 4666 
L 3547 763 
L 3547 4666 
L 4159 4666 
L 4159 0 
L 3309 0 
L 1241 3903 
L 1241 0 
L 628 0 
L 628 4666 
z
" transform="scale(0.015625)"/>
       <path id="DejaVuSans-28" d="M 1984 4856 
Q 1566 4138 1362 3434 
Q 1159 2731 1159 2009 
Q 1159 1288 1364 580 
Q 1569 -128 1984 -844 
L 1484 -844 
Q 1016 -109 783 600 
Q 550 1309 550 2009 
Q 550 2706 781 3412 
Q 1013 4119 1484 4856 
L 1984 4856 
z
" transform="scale(0.015625)"/>
       <path id="DejaVuSans-41" d="M 2188 4044 
L 1331 1722 
L 3047 1722 
L 2188 4044 
z
M 1831 4666 
L 2547 4666 
L 4325 0 
L 3669 0 
L 3244 1197 
L 1141 1197 
L 716 0 
L 50 0 
L 1831 4666 
z
" transform="scale(0.015625)"/>
       <path id="DejaVuSans-55" d="M 556 4666 
L 1191 4666 
L 1191 1831 
Q 1191 1081 1462 751 
Q 1734 422 2344 422 
Q 2950 422 3222 751 
Q 3494 1081 3494 1831 
L 3494 4666 
L 4128 4666 
L 4128 1753 
Q 4128 841 3676 375 
Q 3225 -91 2344 -91 
Q 1459 -91 1007 375 
Q 556 841 556 1753 
L 556 4666 
z
" transform="scale(0.015625)"/>
       <path id="DejaVuSans-3d" d="M 678 2906 
L 4684 2906 
L 4684 2381 
L 678 2381 
L 678 2906 
z
M 678 1631 
L 4684 1631 
L 4684 1100 
L 678 1100 
L 678 1631 
z
" transform="scale(0.015625)"/>
       <path id="DejaVuSans-b1" d="M 2944 4013 
L 2944 2803 
L 4684 2803 
L 4684 2272 
L 2944 2272 
L 2944 1063 
L 2419 1063 
L 2419 2272 
L 678 2272 
L 678 2803 
L 2419 2803 
L 2419 4013 
L 2944 4013 
z
M 678 531 
L 4684 531 
L 4684 0 
L 678 0 
L 678 531 
z
" transform="scale(0.015625)"/>
       <path id="DejaVuSans-29" d="M 513 4856 
L 1013 4856 
Q 1481 4119 1714 3412 
Q 1947 2706 1947 2009 
Q 1947 1309 1714 600 
Q 1481 -109 1013 -844 
L 513 -844 
Q 928 -128 1133 580 
Q 1338 1288 1338 2009 
Q 1338 2731 1133 3434 
Q 928 4138 513 4856 
z
" transform="scale(0.015625)"/>
      </defs>
      <use xlink:href="#DejaVuSans-30" transform="translate(0 0.015625)"/>
      <use xlink:href="#DejaVuSans-25" transform="translate(63.623047 0.015625)"/>
      <use xlink:href="#DejaVuSans-20" transform="translate(158.642578 0.015625)"/>
      <use xlink:href="#DejaVuSans-4e" transform="translate(190.429688 0.015625)"/>
      <use xlink:href="#DejaVuSans-6f" transform="translate(265.234375 0.015625)"/>
      <use xlink:href="#DejaVuSans-69" transform="translate(326.416016 0.015625)"/>
      <use xlink:href="#DejaVuSans-73" transform="translate(354.199219 0.015625)"/>
      <use xlink:href="#DejaVuSans-65" transform="translate(406.298828 0.015625)"/>
      <use xlink:href="#DejaVuSans-20" transform="translate(467.822266 0.015625)"/>
      <use xlink:href="#DejaVuSans-28" transform="translate(499.609375 0.015625)"/>
      <use xlink:href="#DejaVuSans-41" transform="translate(538.623047 0.015625)"/>
      <use xlink:href="#DejaVuSans-55" transform="translate(607.03125 0.015625)"/>
      <use xlink:href="#DejaVuSans-43" transform="translate(680.224609 0.015625)"/>
      <use xlink:href="#DejaVuSans-3d" transform="translate(769.53125 0.015625)"/>
      <use xlink:href="#DejaVuSans-31" transform="translate(872.802734 0.015625)"/>
      <use xlink:href="#DejaVuSans-2e" transform="translate(936.425781 0.015625)"/>
      <use xlink:href="#DejaVuSans-30" transform="translate(968.212891 0.015625)"/>
      <use xlink:href="#DejaVuSans-30" transform="translate(1031.835938 0.015625)"/>
      <use xlink:href="#DejaVuSans-b1" transform="translate(1114.941406 0.015625)"/>
      <use xlink:href="#DejaVuSans-30" transform="translate(1218.212891 0.015625)"/>
      <use xlink:href="#DejaVuSans-2e" transform="translate(1281.835938 0.015625)"/>
      <use xlink:href="#DejaVuSans-30" transform="translate(1313.623047 0.015625)"/>
      <use xlink:href="#DejaVuSans-30" transform="translate(1377.246094 0.015625)"/>
      <use xlink:href="#DejaVuSans-29" transform="translate(1440.869141 0.015625)"/>
     </g>
    </g>
    <g id="line2d_20">
     <path d="M 374.50748 145.140313 
L 384.50748 145.140313 
L 394.50748 145.140313 
" style="fill: none; stroke: #ff7f0e; stroke-width: 1.5; stroke-linecap: round"/>
    </g>
    <g id="text_17">
     <!-- 5% Noise (AUC$ = 1.00 \pm  0.00$) -->
     <g style="fill: #262626" transform="translate(402.50748 148.640313) scale(0.1 -0.1)">
      <defs>
       <path id="DejaVuSans-35" d="M 691 4666 
L 3169 4666 
L 3169 4134 
L 1269 4134 
L 1269 2991 
Q 1406 3038 1543 3061 
Q 1681 3084 1819 3084 
Q 2600 3084 3056 2656 
Q 3513 2228 3513 1497 
Q 3513 744 3044 326 
Q 2575 -91 1722 -91 
Q 1428 -91 1123 -41 
Q 819 9 494 109 
L 494 744 
Q 775 591 1075 516 
Q 1375 441 1709 441 
Q 2250 441 2565 725 
Q 2881 1009 2881 1497 
Q 2881 1984 2565 2268 
Q 2250 2553 1709 2553 
Q 1456 2553 1204 2497 
Q 953 2441 691 2322 
L 691 4666 
z
" transform="scale(0.015625)"/>
      </defs>
      <use xlink:href="#DejaVuSans-35" transform="translate(0 0.015625)"/>
      <use xlink:href="#DejaVuSans-25" transform="translate(63.623047 0.015625)"/>
      <use xlink:href="#DejaVuSans-20" transform="translate(158.642578 0.015625)"/>
      <use xlink:href="#DejaVuSans-4e" transform="translate(190.429688 0.015625)"/>
      <use xlink:href="#DejaVuSans-6f" transform="translate(265.234375 0.015625)"/>
      <use xlink:href="#DejaVuSans-69" transform="translate(326.416016 0.015625)"/>
      <use xlink:href="#DejaVuSans-73" transform="translate(354.199219 0.015625)"/>
      <use xlink:href="#DejaVuSans-65" transform="translate(406.298828 0.015625)"/>
      <use xlink:href="#DejaVuSans-20" transform="translate(467.822266 0.015625)"/>
      <use xlink:href="#DejaVuSans-28" transform="translate(499.609375 0.015625)"/>
      <use xlink:href="#DejaVuSans-41" transform="translate(538.623047 0.015625)"/>
      <use xlink:href="#DejaVuSans-55" transform="translate(607.03125 0.015625)"/>
      <use xlink:href="#DejaVuSans-43" transform="translate(680.224609 0.015625)"/>
      <use xlink:href="#DejaVuSans-3d" transform="translate(769.53125 0.015625)"/>
      <use xlink:href="#DejaVuSans-31" transform="translate(872.802734 0.015625)"/>
      <use xlink:href="#DejaVuSans-2e" transform="translate(936.425781 0.015625)"/>
      <use xlink:href="#DejaVuSans-30" transform="translate(968.212891 0.015625)"/>
      <use xlink:href="#DejaVuSans-30" transform="translate(1031.835938 0.015625)"/>
      <use xlink:href="#DejaVuSans-b1" transform="translate(1114.941406 0.015625)"/>
      <use xlink:href="#DejaVuSans-30" transform="translate(1218.212891 0.015625)"/>
      <use xlink:href="#DejaVuSans-2e" transform="translate(1281.835938 0.015625)"/>
      <use xlink:href="#DejaVuSans-30" transform="translate(1313.623047 0.015625)"/>
      <use xlink:href="#DejaVuSans-30" transform="translate(1377.246094 0.015625)"/>
      <use xlink:href="#DejaVuSans-29" transform="translate(1440.869141 0.015625)"/>
     </g>
    </g>
    <g id="line2d_21">
     <path d="M 374.50748 159.818438 
L 384.50748 159.818438 
L 394.50748 159.818438 
" style="fill: none; stroke: #2ca02c; stroke-width: 1.5; stroke-linecap: round"/>
    </g>
    <g id="text_18">
     <!-- 10% Noise (AUC$ = 1.00 \pm  0.01$) -->
     <g style="fill: #262626" transform="translate(402.50748 163.318438) scale(0.1 -0.1)">
      <use xlink:href="#DejaVuSans-31" transform="translate(0 0.015625)"/>
      <use xlink:href="#DejaVuSans-30" transform="translate(63.623047 0.015625)"/>
      <use xlink:href="#DejaVuSans-25" transform="translate(127.246094 0.015625)"/>
      <use xlink:href="#DejaVuSans-20" transform="translate(222.265625 0.015625)"/>
      <use xlink:href="#DejaVuSans-4e" transform="translate(254.052734 0.015625)"/>
      <use xlink:href="#DejaVuSans-6f" transform="translate(328.857422 0.015625)"/>
      <use xlink:href="#DejaVuSans-69" transform="translate(390.039062 0.015625)"/>
      <use xlink:href="#DejaVuSans-73" transform="translate(417.822266 0.015625)"/>
      <use xlink:href="#DejaVuSans-65" transform="translate(469.921875 0.015625)"/>
      <use xlink:href="#DejaVuSans-20" transform="translate(531.445312 0.015625)"/>
      <use xlink:href="#DejaVuSans-28" transform="translate(563.232422 0.015625)"/>
      <use xlink:href="#DejaVuSans-41" transform="translate(602.246094 0.015625)"/>
      <use xlink:href="#DejaVuSans-55" transform="translate(670.654297 0.015625)"/>
      <use xlink:href="#DejaVuSans-43" transform="translate(743.847656 0.015625)"/>
      <use xlink:href="#DejaVuSans-3d" transform="translate(833.154297 0.015625)"/>
      <use xlink:href="#DejaVuSans-31" transform="translate(936.425781 0.015625)"/>
      <use xlink:href="#DejaVuSans-2e" transform="translate(1000.048828 0.015625)"/>
      <use xlink:href="#DejaVuSans-30" transform="translate(1031.835938 0.015625)"/>
      <use xlink:href="#DejaVuSans-30" transform="translate(1095.458984 0.015625)"/>
      <use xlink:href="#DejaVuSans-b1" transform="translate(1178.564453 0.015625)"/>
      <use xlink:href="#DejaVuSans-30" transform="translate(1281.835938 0.015625)"/>
      <use xlink:href="#DejaVuSans-2e" transform="translate(1345.458984 0.015625)"/>
      <use xlink:href="#DejaVuSans-30" transform="translate(1377.246094 0.015625)"/>
      <use xlink:href="#DejaVuSans-31" transform="translate(1440.869141 0.015625)"/>
      <use xlink:href="#DejaVuSans-29" transform="translate(1504.492188 0.015625)"/>
     </g>
    </g>
    <g id="line2d_22">
     <path d="M 374.50748 174.496563 
L 384.50748 174.496563 
L 394.50748 174.496563 
" style="fill: none; stroke: #d62728; stroke-width: 1.5; stroke-linecap: round"/>
    </g>
    <g id="text_19">
     <!-- 15% Noise (AUC$ = 0.99 \pm  0.01$) -->
     <g style="fill: #262626" transform="translate(402.50748 177.996563) scale(0.1 -0.1)">
      <defs>
       <path id="DejaVuSans-39" d="M 703 97 
L 703 672 
Q 941 559 1184 500 
Q 1428 441 1663 441 
Q 2288 441 2617 861 
Q 2947 1281 2994 2138 
Q 2813 1869 2534 1725 
Q 2256 1581 1919 1581 
Q 1219 1581 811 2004 
Q 403 2428 403 3163 
Q 403 3881 828 4315 
Q 1253 4750 1959 4750 
Q 2769 4750 3195 4129 
Q 3622 3509 3622 2328 
Q 3622 1225 3098 567 
Q 2575 -91 1691 -91 
Q 1453 -91 1209 -44 
Q 966 3 703 97 
z
M 1959 2075 
Q 2384 2075 2632 2365 
Q 2881 2656 2881 3163 
Q 2881 3666 2632 3958 
Q 2384 4250 1959 4250 
Q 1534 4250 1286 3958 
Q 1038 3666 1038 3163 
Q 1038 2656 1286 2365 
Q 1534 2075 1959 2075 
z
" transform="scale(0.015625)"/>
      </defs>
      <use xlink:href="#DejaVuSans-31" transform="translate(0 0.015625)"/>
      <use xlink:href="#DejaVuSans-35" transform="translate(63.623047 0.015625)"/>
      <use xlink:href="#DejaVuSans-25" transform="translate(127.246094 0.015625)"/>
      <use xlink:href="#DejaVuSans-20" transform="translate(222.265625 0.015625)"/>
      <use xlink:href="#DejaVuSans-4e" transform="translate(254.052734 0.015625)"/>
      <use xlink:href="#DejaVuSans-6f" transform="translate(328.857422 0.015625)"/>
      <use xlink:href="#DejaVuSans-69" transform="translate(390.039062 0.015625)"/>
      <use xlink:href="#DejaVuSans-73" transform="translate(417.822266 0.015625)"/>
      <use xlink:href="#DejaVuSans-65" transform="translate(469.921875 0.015625)"/>
      <use xlink:href="#DejaVuSans-20" transform="translate(531.445312 0.015625)"/>
      <use xlink:href="#DejaVuSans-28" transform="translate(563.232422 0.015625)"/>
      <use xlink:href="#DejaVuSans-41" transform="translate(602.246094 0.015625)"/>
      <use xlink:href="#DejaVuSans-55" transform="translate(670.654297 0.015625)"/>
      <use xlink:href="#DejaVuSans-43" transform="translate(743.847656 0.015625)"/>
      <use xlink:href="#DejaVuSans-3d" transform="translate(833.154297 0.015625)"/>
      <use xlink:href="#DejaVuSans-30" transform="translate(936.425781 0.015625)"/>
      <use xlink:href="#DejaVuSans-2e" transform="translate(1000.048828 0.015625)"/>
      <use xlink:href="#DejaVuSans-39" transform="translate(1031.835938 0.015625)"/>
      <use xlink:href="#DejaVuSans-39" transform="translate(1095.458984 0.015625)"/>
      <use xlink:href="#DejaVuSans-b1" transform="translate(1178.564453 0.015625)"/>
      <use xlink:href="#DejaVuSans-30" transform="translate(1281.835938 0.015625)"/>
      <use xlink:href="#DejaVuSans-2e" transform="translate(1345.458984 0.015625)"/>
      <use xlink:href="#DejaVuSans-30" transform="translate(1377.246094 0.015625)"/>
      <use xlink:href="#DejaVuSans-31" transform="translate(1440.869141 0.015625)"/>
      <use xlink:href="#DejaVuSans-29" transform="translate(1504.492188 0.015625)"/>
     </g>
    </g>
    <g id="line2d_23">
     <path d="M 374.50748 189.174688 
L 384.50748 189.174688 
L 394.50748 189.174688 
" style="fill: none; stroke: #9467bd; stroke-width: 1.5; stroke-linecap: round"/>
    </g>
    <g id="text_20">
     <!-- 20% Noise (AUC$ = 0.99 \pm  0.01$) -->
     <g style="fill: #262626" transform="translate(402.50748 192.674688) scale(0.1 -0.1)">
      <use xlink:href="#DejaVuSans-32" transform="translate(0 0.015625)"/>
      <use xlink:href="#DejaVuSans-30" transform="translate(63.623047 0.015625)"/>
      <use xlink:href="#DejaVuSans-25" transform="translate(127.246094 0.015625)"/>
      <use xlink:href="#DejaVuSans-20" transform="translate(222.265625 0.015625)"/>
      <use xlink:href="#DejaVuSans-4e" transform="translate(254.052734 0.015625)"/>
      <use xlink:href="#DejaVuSans-6f" transform="translate(328.857422 0.015625)"/>
      <use xlink:href="#DejaVuSans-69" transform="translate(390.039062 0.015625)"/>
      <use xlink:href="#DejaVuSans-73" transform="translate(417.822266 0.015625)"/>
      <use xlink:href="#DejaVuSans-65" transform="translate(469.921875 0.015625)"/>
      <use xlink:href="#DejaVuSans-20" transform="translate(531.445312 0.015625)"/>
      <use xlink:href="#DejaVuSans-28" transform="translate(563.232422 0.015625)"/>
      <use xlink:href="#DejaVuSans-41" transform="translate(602.246094 0.015625)"/>
      <use xlink:href="#DejaVuSans-55" transform="translate(670.654297 0.015625)"/>
      <use xlink:href="#DejaVuSans-43" transform="translate(743.847656 0.015625)"/>
      <use xlink:href="#DejaVuSans-3d" transform="translate(833.154297 0.015625)"/>
      <use xlink:href="#DejaVuSans-30" transform="translate(936.425781 0.015625)"/>
      <use xlink:href="#DejaVuSans-2e" transform="translate(1000.048828 0.015625)"/>
      <use xlink:href="#DejaVuSans-39" transform="translate(1031.835938 0.015625)"/>
      <use xlink:href="#DejaVuSans-39" transform="translate(1095.458984 0.015625)"/>
      <use xlink:href="#DejaVuSans-b1" transform="translate(1178.564453 0.015625)"/>
      <use xlink:href="#DejaVuSans-30" transform="translate(1281.835938 0.015625)"/>
      <use xlink:href="#DejaVuSans-2e" transform="translate(1345.458984 0.015625)"/>
      <use xlink:href="#DejaVuSans-30" transform="translate(1377.246094 0.015625)"/>
      <use xlink:href="#DejaVuSans-31" transform="translate(1440.869141 0.015625)"/>
      <use xlink:href="#DejaVuSans-29" transform="translate(1504.492188 0.015625)"/>
     </g>
    </g>
    <g id="line2d_24">
     <path d="M 374.50748 203.852813 
L 384.50748 203.852813 
L 394.50748 203.852813 
" style="fill: none; stroke-dasharray: 7.4,3.2; stroke-dashoffset: 0; stroke: #000000; stroke-width: 2"/>
    </g>
    <g id="text_21">
     <!-- Random Chance -->
     <g style="fill: #262626" transform="translate(402.50748 207.352813) scale(0.1 -0.1)">
      <defs>
       <path id="DejaVuSans-64" d="M 2906 2969 
L 2906 4863 
L 3481 4863 
L 3481 0 
L 2906 0 
L 2906 525 
Q 2725 213 2448 61 
Q 2172 -91 1784 -91 
Q 1150 -91 751 415 
Q 353 922 353 1747 
Q 353 2572 751 3078 
Q 1150 3584 1784 3584 
Q 2172 3584 2448 3432 
Q 2725 3281 2906 2969 
z
M 947 1747 
Q 947 1113 1208 752 
Q 1469 391 1925 391 
Q 2381 391 2643 752 
Q 2906 1113 2906 1747 
Q 2906 2381 2643 2742 
Q 2381 3103 1925 3103 
Q 1469 3103 1208 2742 
Q 947 2381 947 1747 
z
" transform="scale(0.015625)"/>
       <path id="DejaVuSans-6d" d="M 3328 2828 
Q 3544 3216 3844 3400 
Q 4144 3584 4550 3584 
Q 5097 3584 5394 3201 
Q 5691 2819 5691 2113 
L 5691 0 
L 5113 0 
L 5113 2094 
Q 5113 2597 4934 2840 
Q 4756 3084 4391 3084 
Q 3944 3084 3684 2787 
Q 3425 2491 3425 1978 
L 3425 0 
L 2847 0 
L 2847 2094 
Q 2847 2600 2669 2842 
Q 2491 3084 2119 3084 
Q 1678 3084 1418 2786 
Q 1159 2488 1159 1978 
L 1159 0 
L 581 0 
L 581 3500 
L 1159 3500 
L 1159 2956 
Q 1356 3278 1631 3431 
Q 1906 3584 2284 3584 
Q 2666 3584 2933 3390 
Q 3200 3197 3328 2828 
z
" transform="scale(0.015625)"/>
       <path id="DejaVuSans-68" d="M 3513 2113 
L 3513 0 
L 2938 0 
L 2938 2094 
Q 2938 2591 2744 2837 
Q 2550 3084 2163 3084 
Q 1697 3084 1428 2787 
Q 1159 2491 1159 1978 
L 1159 0 
L 581 0 
L 581 4863 
L 1159 4863 
L 1159 2956 
Q 1366 3272 1645 3428 
Q 1925 3584 2291 3584 
Q 2894 3584 3203 3211 
Q 3513 2838 3513 2113 
z
" transform="scale(0.015625)"/>
      </defs>
      <use xlink:href="#DejaVuSans-52"/>
      <use xlink:href="#DejaVuSans-61" transform="translate(67.232422 0)"/>
      <use xlink:href="#DejaVuSans-6e" transform="translate(128.511719 0)"/>
      <use xlink:href="#DejaVuSans-64" transform="translate(191.890625 0)"/>
      <use xlink:href="#DejaVuSans-6f" transform="translate(255.367188 0)"/>
      <use xlink:href="#DejaVuSans-6d" transform="translate(316.548828 0)"/>
      <use xlink:href="#DejaVuSans-20" transform="translate(413.960938 0)"/>
      <use xlink:href="#DejaVuSans-43" transform="translate(445.748047 0)"/>
      <use xlink:href="#DejaVuSans-68" transform="translate(515.572266 0)"/>
      <use xlink:href="#DejaVuSans-61" transform="translate(578.951172 0)"/>
      <use xlink:href="#DejaVuSans-6e" transform="translate(640.230469 0)"/>
      <use xlink:href="#DejaVuSans-63" transform="translate(703.609375 0)"/>
      <use xlink:href="#DejaVuSans-65" transform="translate(758.589844 0)"/>
     </g>
    </g>
   </g>
  </g>
 </g>
 <defs>
  <clipPath id="p0ac397f154">
   <rect x="43.78125" y="22.318125" width="321.72623" height="291.16"/>
  </clipPath>
 </defs>
</svg>
