<?xml version="1.0" encoding="utf-8" standalone="no"?>
<!DOCTYPE svg PUBLIC "-//W3C//DTD SVG 1.1//EN"
  "http://www.w3.org/Graphics/SVG/1.1/DTD/svg11.dtd">
<svg xmlns:xlink="http://www.w3.org/1999/xlink" width="568.10748pt" height="351.034375pt" viewBox="0 0 568.10748 351.034375" xmlns="http://www.w3.org/2000/svg" version="1.1">
 <metadata>
  <rdf:RDF xmlns:dc="http://purl.org/dc/elements/1.1/" xmlns:cc="http://creativecommons.org/ns#" xmlns:rdf="http://www.w3.org/1999/02/22-rdf-syntax-ns#">
   <cc:Work>
    <dc:type rdf:resource="http://purl.org/dc/dcmitype/StillImage"/>
    <dc:date>2025-05-21T11:06:08.208737</dc:date>
    <dc:format>image/svg+xml</dc:format>
    <dc:creator>
     <cc:Agent>
      <dc:title>Matplotlib v3.10.0, https://matplotlib.org/</dc:title>
     </cc:Agent>
    </dc:creator>
   </cc:Work>
  </rdf:RDF>
 </metadata>
 <defs>
  <style type="text/css">*{stroke-linejoin: round; stroke-linecap: butt}</style>
 </defs>
 <g id="figure_1">
  <g id="patch_1">
   <path d="M 0 351.034375 
L 568.10748 351.034375 
L 568.10748 0 
L 0 0 
z
" style="fill: #ffffff"/>
  </g>
  <g id="axes_1">
   <g id="patch_2">
    <path d="M 43.78125 313.478125 
L 365.50748 313.478125 
L 365.50748 22.318125 
L 43.78125 22.318125 
z
" style="fill: #eaeaf2"/>
   </g>
   <g id="matplotlib.axis_1">
    <g id="xtick_1">
     <g id="line2d_1">
      <path d="M 58.40517 313.478125 
L 58.40517 22.318125 
" clip-path="url(#pee49da36fd)" style="fill: none; stroke-dasharray: 2.96,1.28; stroke-dashoffset: 0; stroke: #ffffff; stroke-opacity: 0.7; stroke-width: 0.8"/>
     </g>
     <g id="text_1">
      <!-- 0.0 -->
      <g style="fill: #262626" transform="translate(50.453607 328.076563) scale(0.1 -0.1)">
       <defs>
        <path id="DejaVuSans-30" d="M 2034 4250 
Q 1547 4250 1301 3770 
Q 1056 3291 1056 2328 
Q 1056 1369 1301 889 
Q 1547 409 2034 409 
Q 2525 409 2770 889 
Q 3016 1369 3016 2328 
Q 3016 3291 2770 3770 
Q 2525 4250 2034 4250 
z
M 2034 4750 
Q 2819 4750 3233 4129 
Q 3647 3509 3647 2328 
Q 3647 1150 3233 529 
Q 2819 -91 2034 -91 
Q 1250 -91 836 529 
Q 422 1150 422 2328 
Q 422 3509 836 4129 
Q 1250 4750 2034 4750 
z
" transform="scale(0.015625)"/>
        <path id="DejaVuSans-2e" d="M 684 794 
L 1344 794 
L 1344 0 
L 684 0 
L 684 794 
z
" transform="scale(0.015625)"/>
       </defs>
       <use xlink:href="#DejaVuSans-30"/>
       <use xlink:href="#DejaVuSans-2e" transform="translate(63.623047 0)"/>
       <use xlink:href="#DejaVuSans-30" transform="translate(95.410156 0)"/>
      </g>
     </g>
    </g>
    <g id="xtick_2">
     <g id="line2d_2">
      <path d="M 116.900848 313.478125 
L 116.900848 22.318125 
" clip-path="url(#pee49da36fd)" style="fill: none; stroke-dasharray: 2.96,1.28; stroke-dashoffset: 0; stroke: #ffffff; stroke-opacity: 0.7; stroke-width: 0.8"/>
     </g>
     <g id="text_2">
      <!-- 0.2 -->
      <g style="fill: #262626" transform="translate(108.949285 328.076563) scale(0.1 -0.1)">
       <defs>
        <path id="DejaVuSans-32" d="M 1228 531 
L 3431 531 
L 3431 0 
L 469 0 
L 469 531 
Q 828 903 1448 1529 
Q 2069 2156 2228 2338 
Q 2531 2678 2651 2914 
Q 2772 3150 2772 3378 
Q 2772 3750 2511 3984 
Q 2250 4219 1831 4219 
Q 1534 4219 1204 4116 
Q 875 4013 500 3803 
L 500 4441 
Q 881 4594 1212 4672 
Q 1544 4750 1819 4750 
Q 2544 4750 2975 4387 
Q 3406 4025 3406 3419 
Q 3406 3131 3298 2873 
Q 3191 2616 2906 2266 
Q 2828 2175 2409 1742 
Q 1991 1309 1228 531 
z
" transform="scale(0.015625)"/>
       </defs>
       <use xlink:href="#DejaVuSans-30"/>
       <use xlink:href="#DejaVuSans-2e" transform="translate(63.623047 0)"/>
       <use xlink:href="#DejaVuSans-32" transform="translate(95.410156 0)"/>
      </g>
     </g>
    </g>
    <g id="xtick_3">
     <g id="line2d_3">
      <path d="M 175.396526 313.478125 
L 175.396526 22.318125 
" clip-path="url(#pee49da36fd)" style="fill: none; stroke-dasharray: 2.96,1.28; stroke-dashoffset: 0; stroke: #ffffff; stroke-opacity: 0.7; stroke-width: 0.8"/>
     </g>
     <g id="text_3">
      <!-- 0.4 -->
      <g style="fill: #262626" transform="translate(167.444964 328.076563) scale(0.1 -0.1)">
       <defs>
        <path id="DejaVuSans-34" d="M 2419 4116 
L 825 1625 
L 2419 1625 
L 2419 4116 
z
M 2253 4666 
L 3047 4666 
L 3047 1625 
L 3713 1625 
L 3713 1100 
L 3047 1100 
L 3047 0 
L 2419 0 
L 2419 1100 
L 313 1100 
L 313 1709 
L 2253 4666 
z
" transform="scale(0.015625)"/>
       </defs>
       <use xlink:href="#DejaVuSans-30"/>
       <use xlink:href="#DejaVuSans-2e" transform="translate(63.623047 0)"/>
       <use xlink:href="#DejaVuSans-34" transform="translate(95.410156 0)"/>
      </g>
     </g>
    </g>
    <g id="xtick_4">
     <g id="line2d_4">
      <path d="M 233.892204 313.478125 
L 233.892204 22.318125 
" clip-path="url(#pee49da36fd)" style="fill: none; stroke-dasharray: 2.96,1.28; stroke-dashoffset: 0; stroke: #ffffff; stroke-opacity: 0.7; stroke-width: 0.8"/>
     </g>
     <g id="text_4">
      <!-- 0.6 -->
      <g style="fill: #262626" transform="translate(225.940642 328.076563) scale(0.1 -0.1)">
       <defs>
        <path id="DejaVuSans-36" d="M 2113 2584 
Q 1688 2584 1439 2293 
Q 1191 2003 1191 1497 
Q 1191 994 1439 701 
Q 1688 409 2113 409 
Q 2538 409 2786 701 
Q 3034 994 3034 1497 
Q 3034 2003 2786 2293 
Q 2538 2584 2113 2584 
z
M 3366 4563 
L 3366 3988 
Q 3128 4100 2886 4159 
Q 2644 4219 2406 4219 
Q 1781 4219 1451 3797 
Q 1122 3375 1075 2522 
Q 1259 2794 1537 2939 
Q 1816 3084 2150 3084 
Q 2853 3084 3261 2657 
Q 3669 2231 3669 1497 
Q 3669 778 3244 343 
Q 2819 -91 2113 -91 
Q 1303 -91 875 529 
Q 447 1150 447 2328 
Q 447 3434 972 4092 
Q 1497 4750 2381 4750 
Q 2619 4750 2861 4703 
Q 3103 4656 3366 4563 
z
" transform="scale(0.015625)"/>
       </defs>
       <use xlink:href="#DejaVuSans-30"/>
       <use xlink:href="#DejaVuSans-2e" transform="translate(63.623047 0)"/>
       <use xlink:href="#DejaVuSans-36" transform="translate(95.410156 0)"/>
      </g>
     </g>
    </g>
    <g id="xtick_5">
     <g id="line2d_5">
      <path d="M 292.387883 313.478125 
L 292.387883 22.318125 
" clip-path="url(#pee49da36fd)" style="fill: none; stroke-dasharray: 2.96,1.28; stroke-dashoffset: 0; stroke: #ffffff; stroke-opacity: 0.7; stroke-width: 0.8"/>
     </g>
     <g id="text_5">
      <!-- 0.8 -->
      <g style="fill: #262626" transform="translate(284.43632 328.076563) scale(0.1 -0.1)">
       <defs>
        <path id="DejaVuSans-38" d="M 2034 2216 
Q 1584 2216 1326 1975 
Q 1069 1734 1069 1313 
Q 1069 891 1326 650 
Q 1584 409 2034 409 
Q 2484 409 2743 651 
Q 3003 894 3003 1313 
Q 3003 1734 2745 1975 
Q 2488 2216 2034 2216 
z
M 1403 2484 
Q 997 2584 770 2862 
Q 544 3141 544 3541 
Q 544 4100 942 4425 
Q 1341 4750 2034 4750 
Q 2731 4750 3128 4425 
Q 3525 4100 3525 3541 
Q 3525 3141 3298 2862 
Q 3072 2584 2669 2484 
Q 3125 2378 3379 2068 
Q 3634 1759 3634 1313 
Q 3634 634 3220 271 
Q 2806 -91 2034 -91 
Q 1263 -91 848 271 
Q 434 634 434 1313 
Q 434 1759 690 2068 
Q 947 2378 1403 2484 
z
M 1172 3481 
Q 1172 3119 1398 2916 
Q 1625 2713 2034 2713 
Q 2441 2713 2670 2916 
Q 2900 3119 2900 3481 
Q 2900 3844 2670 4047 
Q 2441 4250 2034 4250 
Q 1625 4250 1398 4047 
Q 1172 3844 1172 3481 
z
" transform="scale(0.015625)"/>
       </defs>
       <use xlink:href="#DejaVuSans-30"/>
       <use xlink:href="#DejaVuSans-2e" transform="translate(63.623047 0)"/>
       <use xlink:href="#DejaVuSans-38" transform="translate(95.410156 0)"/>
      </g>
     </g>
    </g>
    <g id="xtick_6">
     <g id="line2d_6">
      <path d="M 350.883561 313.478125 
L 350.883561 22.318125 
" clip-path="url(#pee49da36fd)" style="fill: none; stroke-dasharray: 2.96,1.28; stroke-dashoffset: 0; stroke: #ffffff; stroke-opacity: 0.7; stroke-width: 0.8"/>
     </g>
     <g id="text_6">
      <!-- 1.0 -->
      <g style="fill: #262626" transform="translate(342.931998 328.076563) scale(0.1 -0.1)">
       <defs>
        <path id="DejaVuSans-31" d="M 794 531 
L 1825 531 
L 1825 4091 
L 703 3866 
L 703 4441 
L 1819 4666 
L 2450 4666 
L 2450 531 
L 3481 531 
L 3481 0 
L 794 0 
L 794 531 
z
" transform="scale(0.015625)"/>
       </defs>
       <use xlink:href="#DejaVuSans-31"/>
       <use xlink:href="#DejaVuSans-2e" transform="translate(63.623047 0)"/>
       <use xlink:href="#DejaVuSans-30" transform="translate(95.410156 0)"/>
      </g>
     </g>
    </g>
    <g id="text_7">
     <!-- False Positive Rate -->
     <g style="fill: #262626" transform="translate(158.177959 341.754687) scale(0.1 -0.1)">
      <defs>
       <path id="DejaVuSans-46" d="M 628 4666 
L 3309 4666 
L 3309 4134 
L 1259 4134 
L 1259 2759 
L 3109 2759 
L 3109 2228 
L 1259 2228 
L 1259 0 
L 628 0 
L 628 4666 
z
" transform="scale(0.015625)"/>
       <path id="DejaVuSans-61" d="M 2194 1759 
Q 1497 1759 1228 1600 
Q 959 1441 959 1056 
Q 959 750 1161 570 
Q 1363 391 1709 391 
Q 2188 391 2477 730 
Q 2766 1069 2766 1631 
L 2766 1759 
L 2194 1759 
z
M 3341 1997 
L 3341 0 
L 2766 0 
L 2766 531 
Q 2569 213 2275 61 
Q 1981 -91 1556 -91 
Q 1019 -91 701 211 
Q 384 513 384 1019 
Q 384 1609 779 1909 
Q 1175 2209 1959 2209 
L 2766 2209 
L 2766 2266 
Q 2766 2663 2505 2880 
Q 2244 3097 1772 3097 
Q 1472 3097 1187 3025 
Q 903 2953 641 2809 
L 641 3341 
Q 956 3463 1253 3523 
Q 1550 3584 1831 3584 
Q 2591 3584 2966 3190 
Q 3341 2797 3341 1997 
z
" transform="scale(0.015625)"/>
       <path id="DejaVuSans-6c" d="M 603 4863 
L 1178 4863 
L 1178 0 
L 603 0 
L 603 4863 
z
" transform="scale(0.015625)"/>
       <path id="DejaVuSans-73" d="M 2834 3397 
L 2834 2853 
Q 2591 2978 2328 3040 
Q 2066 3103 1784 3103 
Q 1356 3103 1142 2972 
Q 928 2841 928 2578 
Q 928 2378 1081 2264 
Q 1234 2150 1697 2047 
L 1894 2003 
Q 2506 1872 2764 1633 
Q 3022 1394 3022 966 
Q 3022 478 2636 193 
Q 2250 -91 1575 -91 
Q 1294 -91 989 -36 
Q 684 19 347 128 
L 347 722 
Q 666 556 975 473 
Q 1284 391 1588 391 
Q 1994 391 2212 530 
Q 2431 669 2431 922 
Q 2431 1156 2273 1281 
Q 2116 1406 1581 1522 
L 1381 1569 
Q 847 1681 609 1914 
Q 372 2147 372 2553 
Q 372 3047 722 3315 
Q 1072 3584 1716 3584 
Q 2034 3584 2315 3537 
Q 2597 3491 2834 3397 
z
" transform="scale(0.015625)"/>
       <path id="DejaVuSans-65" d="M 3597 1894 
L 3597 1613 
L 953 1613 
Q 991 1019 1311 708 
Q 1631 397 2203 397 
Q 2534 397 2845 478 
Q 3156 559 3463 722 
L 3463 178 
Q 3153 47 2828 -22 
Q 2503 -91 2169 -91 
Q 1331 -91 842 396 
Q 353 884 353 1716 
Q 353 2575 817 3079 
Q 1281 3584 2069 3584 
Q 2775 3584 3186 3129 
Q 3597 2675 3597 1894 
z
M 3022 2063 
Q 3016 2534 2758 2815 
Q 2500 3097 2075 3097 
Q 1594 3097 1305 2825 
Q 1016 2553 972 2059 
L 3022 2063 
z
" transform="scale(0.015625)"/>
       <path id="DejaVuSans-20" transform="scale(0.015625)"/>
       <path id="DejaVuSans-50" d="M 1259 4147 
L 1259 2394 
L 2053 2394 
Q 2494 2394 2734 2622 
Q 2975 2850 2975 3272 
Q 2975 3691 2734 3919 
Q 2494 4147 2053 4147 
L 1259 4147 
z
M 628 4666 
L 2053 4666 
Q 2838 4666 3239 4311 
Q 3641 3956 3641 3272 
Q 3641 2581 3239 2228 
Q 2838 1875 2053 1875 
L 1259 1875 
L 1259 0 
L 628 0 
L 628 4666 
z
" transform="scale(0.015625)"/>
       <path id="DejaVuSans-6f" d="M 1959 3097 
Q 1497 3097 1228 2736 
Q 959 2375 959 1747 
Q 959 1119 1226 758 
Q 1494 397 1959 397 
Q 2419 397 2687 759 
Q 2956 1122 2956 1747 
Q 2956 2369 2687 2733 
Q 2419 3097 1959 3097 
z
M 1959 3584 
Q 2709 3584 3137 3096 
Q 3566 2609 3566 1747 
Q 3566 888 3137 398 
Q 2709 -91 1959 -91 
Q 1206 -91 779 398 
Q 353 888 353 1747 
Q 353 2609 779 3096 
Q 1206 3584 1959 3584 
z
" transform="scale(0.015625)"/>
       <path id="DejaVuSans-69" d="M 603 3500 
L 1178 3500 
L 1178 0 
L 603 0 
L 603 3500 
z
M 603 4863 
L 1178 4863 
L 1178 4134 
L 603 4134 
L 603 4863 
z
" transform="scale(0.015625)"/>
       <path id="DejaVuSans-74" d="M 1172 4494 
L 1172 3500 
L 2356 3500 
L 2356 3053 
L 1172 3053 
L 1172 1153 
Q 1172 725 1289 603 
Q 1406 481 1766 481 
L 2356 481 
L 2356 0 
L 1766 0 
Q 1100 0 847 248 
Q 594 497 594 1153 
L 594 3053 
L 172 3053 
L 172 3500 
L 594 3500 
L 594 4494 
L 1172 4494 
z
" transform="scale(0.015625)"/>
       <path id="DejaVuSans-76" d="M 191 3500 
L 800 3500 
L 1894 563 
L 2988 3500 
L 3597 3500 
L 2284 0 
L 1503 0 
L 191 3500 
z
" transform="scale(0.015625)"/>
       <path id="DejaVuSans-52" d="M 2841 2188 
Q 3044 2119 3236 1894 
Q 3428 1669 3622 1275 
L 4263 0 
L 3584 0 
L 2988 1197 
Q 2756 1666 2539 1819 
Q 2322 1972 1947 1972 
L 1259 1972 
L 1259 0 
L 628 0 
L 628 4666 
L 2053 4666 
Q 2853 4666 3247 4331 
Q 3641 3997 3641 3322 
Q 3641 2881 3436 2590 
Q 3231 2300 2841 2188 
z
M 1259 4147 
L 1259 2491 
L 2053 2491 
Q 2509 2491 2742 2702 
Q 2975 2913 2975 3322 
Q 2975 3731 2742 3939 
Q 2509 4147 2053 4147 
L 1259 4147 
z
" transform="scale(0.015625)"/>
      </defs>
      <use xlink:href="#DejaVuSans-46"/>
      <use xlink:href="#DejaVuSans-61" transform="translate(48.394531 0)"/>
      <use xlink:href="#DejaVuSans-6c" transform="translate(109.673828 0)"/>
      <use xlink:href="#DejaVuSans-73" transform="translate(137.457031 0)"/>
      <use xlink:href="#DejaVuSans-65" transform="translate(189.556641 0)"/>
      <use xlink:href="#DejaVuSans-20" transform="translate(251.080078 0)"/>
      <use xlink:href="#DejaVuSans-50" transform="translate(282.867188 0)"/>
      <use xlink:href="#DejaVuSans-6f" transform="translate(339.544922 0)"/>
      <use xlink:href="#DejaVuSans-73" transform="translate(400.726562 0)"/>
      <use xlink:href="#DejaVuSans-69" transform="translate(452.826172 0)"/>
      <use xlink:href="#DejaVuSans-74" transform="translate(480.609375 0)"/>
      <use xlink:href="#DejaVuSans-69" transform="translate(519.818359 0)"/>
      <use xlink:href="#DejaVuSans-76" transform="translate(547.601562 0)"/>
      <use xlink:href="#DejaVuSans-65" transform="translate(606.78125 0)"/>
      <use xlink:href="#DejaVuSans-20" transform="translate(668.304688 0)"/>
      <use xlink:href="#DejaVuSans-52" transform="translate(700.091797 0)"/>
      <use xlink:href="#DejaVuSans-61" transform="translate(767.324219 0)"/>
      <use xlink:href="#DejaVuSans-74" transform="translate(828.603516 0)"/>
      <use xlink:href="#DejaVuSans-65" transform="translate(867.8125 0)"/>
     </g>
    </g>
   </g>
   <g id="matplotlib.axis_2">
    <g id="ytick_1">
     <g id="line2d_7">
      <path d="M 43.78125 300.24358 
L 365.50748 300.24358 
" clip-path="url(#pee49da36fd)" style="fill: none; stroke-dasharray: 2.96,1.28; stroke-dashoffset: 0; stroke: #ffffff; stroke-opacity: 0.7; stroke-width: 0.8"/>
     </g>
     <g id="text_8">
      <!-- 0.0 -->
      <g style="fill: #262626" transform="translate(20.878125 304.042798) scale(0.1 -0.1)">
       <use xlink:href="#DejaVuSans-30"/>
       <use xlink:href="#DejaVuSans-2e" transform="translate(63.623047 0)"/>
       <use xlink:href="#DejaVuSans-30" transform="translate(95.410156 0)"/>
      </g>
     </g>
    </g>
    <g id="ytick_2">
     <g id="line2d_8">
      <path d="M 43.78125 247.749676 
L 365.50748 247.749676 
" clip-path="url(#pee49da36fd)" style="fill: none; stroke-dasharray: 2.96,1.28; stroke-dashoffset: 0; stroke: #ffffff; stroke-opacity: 0.7; stroke-width: 0.8"/>
     </g>
     <g id="text_9">
      <!-- 0.2 -->
      <g style="fill: #262626" transform="translate(20.878125 251.548894) scale(0.1 -0.1)">
       <use xlink:href="#DejaVuSans-30"/>
       <use xlink:href="#DejaVuSans-2e" transform="translate(63.623047 0)"/>
       <use xlink:href="#DejaVuSans-32" transform="translate(95.410156 0)"/>
      </g>
     </g>
    </g>
    <g id="ytick_3">
     <g id="line2d_9">
      <path d="M 43.78125 195.255772 
L 365.50748 195.255772 
" clip-path="url(#pee49da36fd)" style="fill: none; stroke-dasharray: 2.96,1.28; stroke-dashoffset: 0; stroke: #ffffff; stroke-opacity: 0.7; stroke-width: 0.8"/>
     </g>
     <g id="text_10">
      <!-- 0.4 -->
      <g style="fill: #262626" transform="translate(20.878125 199.05499) scale(0.1 -0.1)">
       <use xlink:href="#DejaVuSans-30"/>
       <use xlink:href="#DejaVuSans-2e" transform="translate(63.623047 0)"/>
       <use xlink:href="#DejaVuSans-34" transform="translate(95.410156 0)"/>
      </g>
     </g>
    </g>
    <g id="ytick_4">
     <g id="line2d_10">
      <path d="M 43.78125 142.761868 
L 365.50748 142.761868 
" clip-path="url(#pee49da36fd)" style="fill: none; stroke-dasharray: 2.96,1.28; stroke-dashoffset: 0; stroke: #ffffff; stroke-opacity: 0.7; stroke-width: 0.8"/>
     </g>
     <g id="text_11">
      <!-- 0.6 -->
      <g style="fill: #262626" transform="translate(20.878125 146.561086) scale(0.1 -0.1)">
       <use xlink:href="#DejaVuSans-30"/>
       <use xlink:href="#DejaVuSans-2e" transform="translate(63.623047 0)"/>
       <use xlink:href="#DejaVuSans-36" transform="translate(95.410156 0)"/>
      </g>
     </g>
    </g>
    <g id="ytick_5">
     <g id="line2d_11">
      <path d="M 43.78125 90.267964 
L 365.50748 90.267964 
" clip-path="url(#pee49da36fd)" style="fill: none; stroke-dasharray: 2.96,1.28; stroke-dashoffset: 0; stroke: #ffffff; stroke-opacity: 0.7; stroke-width: 0.8"/>
     </g>
     <g id="text_12">
      <!-- 0.8 -->
      <g style="fill: #262626" transform="translate(20.878125 94.067183) scale(0.1 -0.1)">
       <use xlink:href="#DejaVuSans-30"/>
       <use xlink:href="#DejaVuSans-2e" transform="translate(63.623047 0)"/>
       <use xlink:href="#DejaVuSans-38" transform="translate(95.410156 0)"/>
      </g>
     </g>
    </g>
    <g id="ytick_6">
     <g id="line2d_12">
      <path d="M 43.78125 37.77406 
L 365.50748 37.77406 
" clip-path="url(#pee49da36fd)" style="fill: none; stroke-dasharray: 2.96,1.28; stroke-dashoffset: 0; stroke: #ffffff; stroke-opacity: 0.7; stroke-width: 0.8"/>
     </g>
     <g id="text_13">
      <!-- 1.0 -->
      <g style="fill: #262626" transform="translate(20.878125 41.573279) scale(0.1 -0.1)">
       <use xlink:href="#DejaVuSans-31"/>
       <use xlink:href="#DejaVuSans-2e" transform="translate(63.623047 0)"/>
       <use xlink:href="#DejaVuSans-30" transform="translate(95.410156 0)"/>
      </g>
     </g>
    </g>
    <g id="text_14">
     <!-- True Positive Rate -->
     <g style="fill: #262626" transform="translate(14.798438 212.427813) rotate(-90) scale(0.1 -0.1)">
      <defs>
       <path id="DejaVuSans-54" d="M -19 4666 
L 3928 4666 
L 3928 4134 
L 2272 4134 
L 2272 0 
L 1638 0 
L 1638 4134 
L -19 4134 
L -19 4666 
z
" transform="scale(0.015625)"/>
       <path id="DejaVuSans-72" d="M 2631 2963 
Q 2534 3019 2420 3045 
Q 2306 3072 2169 3072 
Q 1681 3072 1420 2755 
Q 1159 2438 1159 1844 
L 1159 0 
L 581 0 
L 581 3500 
L 1159 3500 
L 1159 2956 
Q 1341 3275 1631 3429 
Q 1922 3584 2338 3584 
Q 2397 3584 2469 3576 
Q 2541 3569 2628 3553 
L 2631 2963 
z
" transform="scale(0.015625)"/>
       <path id="DejaVuSans-75" d="M 544 1381 
L 544 3500 
L 1119 3500 
L 1119 1403 
Q 1119 906 1312 657 
Q 1506 409 1894 409 
Q 2359 409 2629 706 
Q 2900 1003 2900 1516 
L 2900 3500 
L 3475 3500 
L 3475 0 
L 2900 0 
L 2900 538 
Q 2691 219 2414 64 
Q 2138 -91 1772 -91 
Q 1169 -91 856 284 
Q 544 659 544 1381 
z
M 1991 3584 
L 1991 3584 
z
" transform="scale(0.015625)"/>
      </defs>
      <use xlink:href="#DejaVuSans-54"/>
      <use xlink:href="#DejaVuSans-72" transform="translate(46.333984 0)"/>
      <use xlink:href="#DejaVuSans-75" transform="translate(87.447266 0)"/>
      <use xlink:href="#DejaVuSans-65" transform="translate(150.826172 0)"/>
      <use xlink:href="#DejaVuSans-20" transform="translate(212.349609 0)"/>
      <use xlink:href="#DejaVuSans-50" transform="translate(244.136719 0)"/>
      <use xlink:href="#DejaVuSans-6f" transform="translate(300.814453 0)"/>
      <use xlink:href="#DejaVuSans-73" transform="translate(361.996094 0)"/>
      <use xlink:href="#DejaVuSans-69" transform="translate(414.095703 0)"/>
      <use xlink:href="#DejaVuSans-74" transform="translate(441.878906 0)"/>
      <use xlink:href="#DejaVuSans-69" transform="translate(481.087891 0)"/>
      <use xlink:href="#DejaVuSans-76" transform="translate(508.871094 0)"/>
      <use xlink:href="#DejaVuSans-65" transform="translate(568.050781 0)"/>
      <use xlink:href="#DejaVuSans-20" transform="translate(629.574219 0)"/>
      <use xlink:href="#DejaVuSans-52" transform="translate(661.361328 0)"/>
      <use xlink:href="#DejaVuSans-61" transform="translate(728.59375 0)"/>
      <use xlink:href="#DejaVuSans-74" transform="translate(789.873047 0)"/>
      <use xlink:href="#DejaVuSans-65" transform="translate(829.082031 0)"/>
     </g>
    </g>
   </g>
   <g id="FillBetweenPolyCollection_1">
    <defs>
     <path id="m4d0d7b9d3b" d="M 58.40517 -315.481705 
L 58.40517 -288.67654 
L 61.359497 -288.67654 
L 64.313824 -288.67654 
L 67.268151 -299.824487 
L 70.222478 -300.134318 
L 73.176805 -300.939352 
L 76.131133 -301.217083 
L 79.08546 -302.351606 
L 82.039787 -303.41933 
L 84.994114 -304.052456 
L 87.948441 -304.719247 
L 90.902769 -304.771935 
L 93.857096 -305.484177 
L 96.811423 -306.053168 
L 99.76575 -306.398602 
L 102.720077 -306.804918 
L 105.674405 -307.341942 
L 108.628732 -307.600451 
L 111.583059 -308.433665 
L 114.537386 -308.527031 
L 117.491713 -308.880707 
L 120.44604 -309.111326 
L 123.400368 -309.111326 
L 126.354695 -309.467228 
L 129.309022 -309.467228 
L 132.263349 -309.869304 
L 135.217676 -309.869304 
L 138.172004 -310.025883 
L 141.126331 -310.30012 
L 144.080658 -310.55359 
L 147.034985 -310.55359 
L 149.989312 -310.699863 
L 152.943639 -310.699863 
L 155.897967 -311.572966 
L 158.852294 -311.572966 
L 161.806621 -311.572966 
L 164.760948 -311.572966 
L 167.715275 -311.572966 
L 170.669603 -311.729788 
L 173.62393 -311.729788 
L 176.578257 -312.004025 
L 179.532584 -312.004025 
L 182.486911 -312.004025 
L 185.441239 -312.353061 
L 188.395566 -312.646025 
L 191.349893 -312.646025 
L 194.30422 -312.646025 
L 197.258547 -312.646025 
L 200.212874 -312.646025 
L 203.167202 -312.646025 
L 206.121529 -312.646025 
L 209.075856 -312.646025 
L 212.030183 -312.646025 
L 214.98451 -312.646025 
L 217.938838 -312.646025 
L 220.893165 -312.646025 
L 223.847492 -312.646025 
L 226.801819 -313.260315 
L 229.756146 -313.260315 
L 232.710473 -313.260315 
L 235.664801 -313.260315 
L 238.619128 -313.260315 
L 241.573455 -313.260315 
L 244.527782 -313.260315 
L 247.482109 -313.260315 
L 250.436437 -313.260315 
L 253.390764 -313.260315 
L 256.345091 -313.260315 
L 259.299418 -313.260315 
L 262.253745 -313.260315 
L 265.208073 -313.260315 
L 268.1624 -313.260315 
L 271.116727 -313.260315 
L 274.071054 -313.260315 
L 277.025381 -313.260315 
L 279.979708 -313.260315 
L 282.934036 -313.260315 
L 285.888363 -313.260315 
L 288.84269 -313.260315 
L 291.797017 -313.260315 
L 294.751344 -313.260315 
L 297.705672 -313.260315 
L 300.659999 -313.260315 
L 303.614326 -313.260315 
L 306.568653 -313.260315 
L 309.52298 -313.260315 
L 312.477307 -313.260315 
L 315.431635 -313.260315 
L 318.385962 -313.260315 
L 321.340289 -313.260315 
L 324.294616 -313.260315 
L 327.248943 -313.260315 
L 330.203271 -313.260315 
L 333.157598 -313.260315 
L 336.111925 -313.260315 
L 339.066252 -313.260315 
L 342.020579 -313.260315 
L 344.974907 -313.260315 
L 347.929234 -313.260315 
L 350.883561 -313.260315 
L 350.883561 -313.260315 
L 350.883561 -313.260315 
L 347.929234 -313.260315 
L 344.974907 -313.260315 
L 342.020579 -313.260315 
L 339.066252 -313.260315 
L 336.111925 -313.260315 
L 333.157598 -313.260315 
L 330.203271 -313.260315 
L 327.248943 -313.260315 
L 324.294616 -313.260315 
L 321.340289 -313.260315 
L 318.385962 -313.260315 
L 315.431635 -313.260315 
L 312.477307 -313.260315 
L 309.52298 -313.260315 
L 306.568653 -313.260315 
L 303.614326 -313.260315 
L 300.659999 -313.260315 
L 297.705672 -313.260315 
L 294.751344 -313.260315 
L 291.797017 -313.260315 
L 288.84269 -313.260315 
L 285.888363 -313.260315 
L 282.934036 -313.260315 
L 279.979708 -313.260315 
L 277.025381 -313.260315 
L 274.071054 -313.260315 
L 271.116727 -313.260315 
L 268.1624 -313.260315 
L 265.208073 -313.260315 
L 262.253745 -313.260315 
L 259.299418 -313.260315 
L 256.345091 -313.260315 
L 253.390764 -313.260315 
L 250.436437 -313.260315 
L 247.482109 -313.260315 
L 244.527782 -313.260315 
L 241.573455 -313.260315 
L 238.619128 -313.260315 
L 235.664801 -313.260315 
L 232.710473 -313.260315 
L 229.756146 -313.260315 
L 226.801819 -313.260315 
L 223.847492 -313.762916 
L 220.893165 -313.762916 
L 217.938838 -313.762916 
L 214.98451 -313.762916 
L 212.030183 -313.762916 
L 209.075856 -313.762916 
L 206.121529 -313.762916 
L 203.167202 -313.762916 
L 200.212874 -313.762916 
L 197.258547 -313.762916 
L 194.30422 -313.762916 
L 191.349893 -313.762916 
L 188.395566 -313.762916 
L 185.441239 -313.941763 
L 182.486911 -314.144982 
L 179.532584 -314.144982 
L 176.578257 -314.144982 
L 173.62393 -314.277344 
L 170.669603 -314.277344 
L 167.715275 -314.324804 
L 164.760948 -314.324804 
L 161.806621 -314.324804 
L 158.852294 -314.324804 
L 155.897967 -314.324804 
L 152.943639 -314.78752 
L 149.989312 -314.78752 
L 147.034985 -314.80576 
L 144.080658 -314.80576 
L 141.126331 -314.817591 
L 138.172004 -314.829358 
L 135.217676 -314.840121 
L 132.263349 -314.840121 
L 129.309022 -314.834191 
L 126.354695 -314.834191 
L 123.400368 -314.927624 
L 120.44604 -314.927624 
L 117.491713 -314.888334 
L 114.537386 -314.976175 
L 111.583059 -314.944556 
L 108.628732 -315.018559 
L 105.674405 -314.887674 
L 102.720077 -315.077939 
L 99.76575 -314.978207 
L 96.811423 -314.933534 
L 93.857096 -314.604458 
L 90.902769 -314.696759 
L 87.948441 -314.630142 
L 84.994114 -314.787137 
L 82.039787 -314.853444 
L 79.08546 -314.853453 
L 76.131133 -315.167063 
L 73.176805 -314.818542 
L 70.222478 -314.661764 
L 67.268151 -314.687252 
L 64.313824 -315.481705 
L 61.359497 -315.481705 
L 58.40517 -315.481705 
z
" style="stroke: #ffffff; stroke-opacity: 0.2"/>
    </defs>
    <g clip-path="url(#pee49da36fd)">
     <use xlink:href="#m4d0d7b9d3b" x="0" y="351.034375" style="fill: #1f77b4; fill-opacity: 0.2; stroke: #ffffff; stroke-opacity: 0.2"/>
    </g>
   </g>
   <g id="FillBetweenPolyCollection_2">
    <defs>
     <path id="m50d224bdd8" d="M 58.40517 -313.491725 
L 58.40517 -289.121845 
L 61.359497 -289.121845 
L 64.313824 -289.121845 
L 67.268151 -299.82468 
L 70.222478 -299.82468 
L 73.176805 -300.493222 
L 76.131133 -302.34271 
L 79.08546 -302.529134 
L 82.039787 -303.266642 
L 84.994114 -303.634972 
L 87.948441 -304.423478 
L 90.902769 -304.531511 
L 93.857096 -304.755137 
L 96.811423 -304.932734 
L 99.76575 -304.932734 
L 102.720077 -305.571662 
L 105.674405 -306.19185 
L 108.628732 -307.443281 
L 111.583059 -307.808945 
L 114.537386 -308.144104 
L 117.491713 -308.630409 
L 120.44604 -308.729597 
L 123.400368 -308.898077 
L 126.354695 -309.119466 
L 129.309022 -309.484327 
L 132.263349 -309.484327 
L 135.217676 -309.484327 
L 138.172004 -309.484327 
L 141.126331 -309.884192 
L 144.080658 -309.884192 
L 147.034985 -310.015267 
L 149.989312 -310.144515 
L 152.943639 -310.67866 
L 155.897967 -310.891415 
L 158.852294 -310.891415 
L 161.806621 -311.024035 
L 164.760948 -311.237795 
L 167.715275 -311.237795 
L 170.669603 -311.237795 
L 173.62393 -311.237795 
L 176.578257 -311.237795 
L 179.532584 -311.469047 
L 182.486911 -311.469047 
L 185.441239 -311.638037 
L 188.395566 -311.799898 
L 191.349893 -311.799898 
L 194.30422 -311.799898 
L 197.258547 -311.799898 
L 200.212874 -311.799898 
L 203.167202 -311.799898 
L 206.121529 -311.989224 
L 209.075856 -312.192213 
L 212.030183 -312.520017 
L 214.98451 -312.520017 
L 217.938838 -312.520017 
L 220.893165 -312.520017 
L 223.847492 -313.260315 
L 226.801819 -313.260315 
L 229.756146 -313.260315 
L 232.710473 -313.260315 
L 235.664801 -313.260315 
L 238.619128 -313.260315 
L 241.573455 -313.260315 
L 244.527782 -313.260315 
L 247.482109 -313.260315 
L 250.436437 -313.260315 
L 253.390764 -313.260315 
L 256.345091 -313.260315 
L 259.299418 -313.260315 
L 262.253745 -313.260315 
L 265.208073 -313.260315 
L 268.1624 -313.260315 
L 271.116727 -313.260315 
L 274.071054 -313.260315 
L 277.025381 -313.260315 
L 279.979708 -313.260315 
L 282.934036 -313.260315 
L 285.888363 -313.260315 
L 288.84269 -313.260315 
L 291.797017 -313.260315 
L 294.751344 -313.260315 
L 297.705672 -313.260315 
L 300.659999 -313.260315 
L 303.614326 -313.260315 
L 306.568653 -313.260315 
L 309.52298 -313.260315 
L 312.477307 -313.260315 
L 315.431635 -313.260315 
L 318.385962 -313.260315 
L 321.340289 -313.260315 
L 324.294616 -313.260315 
L 327.248943 -313.260315 
L 330.203271 -313.260315 
L 333.157598 -313.260315 
L 336.111925 -313.260315 
L 339.066252 -313.260315 
L 342.020579 -313.260315 
L 344.974907 -313.260315 
L 347.929234 -313.260315 
L 350.883561 -313.260315 
L 350.883561 -313.260315 
L 350.883561 -313.260315 
L 347.929234 -313.260315 
L 344.974907 -313.260315 
L 342.020579 -313.260315 
L 339.066252 -313.260315 
L 336.111925 -313.260315 
L 333.157598 -313.260315 
L 330.203271 -313.260315 
L 327.248943 -313.260315 
L 324.294616 -313.260315 
L 321.340289 -313.260315 
L 318.385962 -313.260315 
L 315.431635 -313.260315 
L 312.477307 -313.260315 
L 309.52298 -313.260315 
L 306.568653 -313.260315 
L 303.614326 -313.260315 
L 300.659999 -313.260315 
L 297.705672 -313.260315 
L 294.751344 -313.260315 
L 291.797017 -313.260315 
L 288.84269 -313.260315 
L 285.888363 -313.260315 
L 282.934036 -313.260315 
L 279.979708 -313.260315 
L 277.025381 -313.260315 
L 274.071054 -313.260315 
L 271.116727 -313.260315 
L 268.1624 -313.260315 
L 265.208073 -313.260315 
L 262.253745 -313.260315 
L 259.299418 -313.260315 
L 256.345091 -313.260315 
L 253.390764 -313.260315 
L 250.436437 -313.260315 
L 247.482109 -313.260315 
L 244.527782 -313.260315 
L 241.573455 -313.260315 
L 238.619128 -313.260315 
L 235.664801 -313.260315 
L 232.710473 -313.260315 
L 229.756146 -313.260315 
L 226.801819 -313.260315 
L 223.847492 -313.260315 
L 220.893165 -313.866014 
L 217.938838 -313.866014 
L 214.98451 -313.866014 
L 212.030183 -313.866014 
L 209.075856 -314.062582 
L 206.121529 -314.153883 
L 203.167202 -314.229092 
L 200.212874 -314.229092 
L 197.258547 -314.229092 
L 194.30422 -314.229092 
L 191.349893 -314.229092 
L 188.395566 -314.229092 
L 185.441239 -314.28159 
L 182.486911 -314.333927 
L 179.532584 -314.333927 
L 176.578257 -314.419363 
L 173.62393 -314.419363 
L 170.669603 -314.419363 
L 167.715275 -314.419363 
L 164.760948 -314.419363 
L 161.806621 -314.487307 
L 158.852294 -314.505809 
L 155.897967 -314.505809 
L 152.943639 -314.564171 
L 149.989312 -314.740024 
L 147.034985 -314.741237 
L 144.080658 -314.741078 
L 141.126331 -314.741078 
L 138.172004 -314.884875 
L 135.217676 -314.884875 
L 132.263349 -314.884875 
L 129.309022 -314.884875 
L 126.354695 -314.844733 
L 123.400368 -314.803653 
L 120.44604 -314.743466 
L 117.491713 -314.71462 
L 114.537386 -314.610128 
L 111.583059 -314.50496 
L 108.628732 -314.695645 
L 105.674405 -314.978829 
L 102.720077 -315.061411 
L 99.76575 -315.022573 
L 96.811423 -315.022573 
L 93.857096 -314.827205 
L 90.902769 -314.825024 
L 87.948441 -314.688768 
L 84.994114 -314.701465 
L 82.039787 -314.724908 
L 79.08546 -314.401444 
L 76.131133 -314.478506 
L 73.176805 -314.654344 
L 70.222478 -314.328841 
L 67.268151 -314.328841 
L 64.313824 -313.491725 
L 61.359497 -313.491725 
L 58.40517 -313.491725 
z
" style="stroke: #ffffff; stroke-opacity: 0.2"/>
    </defs>
    <g clip-path="url(#pee49da36fd)">
     <use xlink:href="#m50d224bdd8" x="0" y="351.034375" style="fill: #ff7f0e; fill-opacity: 0.2; stroke: #ffffff; stroke-opacity: 0.2"/>
    </g>
   </g>
   <g id="FillBetweenPolyCollection_3">
    <defs>
     <path id="m3777aeedb5" d="M 58.40517 -313.511598 
L 58.40517 -285.762763 
L 61.359497 -285.762763 
L 64.313824 -286.880455 
L 67.268151 -297.764664 
L 70.222478 -298.894612 
L 73.176805 -299.964248 
L 76.131133 -301.018249 
L 79.08546 -301.320008 
L 82.039787 -302.082924 
L 84.994114 -303.019125 
L 87.948441 -304.201709 
L 90.902769 -304.201709 
L 93.857096 -304.595407 
L 96.811423 -305.533444 
L 99.76575 -305.676648 
L 102.720077 -305.753885 
L 105.674405 -306.543537 
L 108.628732 -307.486854 
L 111.583059 -307.568944 
L 114.537386 -307.648936 
L 117.491713 -307.723969 
L 120.44604 -307.80636 
L 123.400368 -308.127671 
L 126.354695 -309.117485 
L 129.309022 -309.117485 
L 132.263349 -309.328443 
L 135.217676 -309.662172 
L 138.172004 -309.9471 
L 141.126331 -310.074479 
L 144.080658 -310.074479 
L 147.034985 -310.21098 
L 149.989312 -310.21098 
L 152.943639 -310.572832 
L 155.897967 -310.572832 
L 158.852294 -310.90802 
L 161.806621 -311.041045 
L 164.760948 -311.041045 
L 167.715275 -311.423739 
L 170.669603 -311.872927 
L 173.62393 -312.186943 
L 176.578257 -312.186943 
L 179.532584 -312.186943 
L 182.486911 -312.186943 
L 185.441239 -312.186943 
L 188.395566 -312.658823 
L 191.349893 -312.658823 
L 194.30422 -312.658823 
L 197.258547 -312.658823 
L 200.212874 -312.658823 
L 203.167202 -312.658823 
L 206.121529 -313.260315 
L 209.075856 -313.260315 
L 212.030183 -313.260315 
L 214.98451 -313.260315 
L 217.938838 -313.260315 
L 220.893165 -313.260315 
L 223.847492 -313.260315 
L 226.801819 -313.260315 
L 229.756146 -313.260315 
L 232.710473 -313.260315 
L 235.664801 -313.260315 
L 238.619128 -313.260315 
L 241.573455 -313.260315 
L 244.527782 -313.260315 
L 247.482109 -313.260315 
L 250.436437 -313.260315 
L 253.390764 -313.260315 
L 256.345091 -313.260315 
L 259.299418 -313.260315 
L 262.253745 -313.260315 
L 265.208073 -313.260315 
L 268.1624 -313.260315 
L 271.116727 -313.260315 
L 274.071054 -313.260315 
L 277.025381 -313.260315 
L 279.979708 -313.260315 
L 282.934036 -313.260315 
L 285.888363 -313.260315 
L 288.84269 -313.260315 
L 291.797017 -313.260315 
L 294.751344 -313.260315 
L 297.705672 -313.260315 
L 300.659999 -313.260315 
L 303.614326 -313.260315 
L 306.568653 -313.260315 
L 309.52298 -313.260315 
L 312.477307 -313.260315 
L 315.431635 -313.260315 
L 318.385962 -313.260315 
L 321.340289 -313.260315 
L 324.294616 -313.260315 
L 327.248943 -313.260315 
L 330.203271 -313.260315 
L 333.157598 -313.260315 
L 336.111925 -313.260315 
L 339.066252 -313.260315 
L 342.020579 -313.260315 
L 344.974907 -313.260315 
L 347.929234 -313.260315 
L 350.883561 -313.260315 
L 350.883561 -313.260315 
L 350.883561 -313.260315 
L 347.929234 -313.260315 
L 344.974907 -313.260315 
L 342.020579 -313.260315 
L 339.066252 -313.260315 
L 336.111925 -313.260315 
L 333.157598 -313.260315 
L 330.203271 -313.260315 
L 327.248943 -313.260315 
L 324.294616 -313.260315 
L 321.340289 -313.260315 
L 318.385962 -313.260315 
L 315.431635 -313.260315 
L 312.477307 -313.260315 
L 309.52298 -313.260315 
L 306.568653 -313.260315 
L 303.614326 -313.260315 
L 300.659999 -313.260315 
L 297.705672 -313.260315 
L 294.751344 -313.260315 
L 291.797017 -313.260315 
L 288.84269 -313.260315 
L 285.888363 -313.260315 
L 282.934036 -313.260315 
L 279.979708 -313.260315 
L 277.025381 -313.260315 
L 274.071054 -313.260315 
L 271.116727 -313.260315 
L 268.1624 -313.260315 
L 265.208073 -313.260315 
L 262.253745 -313.260315 
L 259.299418 -313.260315 
L 256.345091 -313.260315 
L 253.390764 -313.260315 
L 250.436437 -313.260315 
L 247.482109 -313.260315 
L 244.527782 -313.260315 
L 241.573455 -313.260315 
L 238.619128 -313.260315 
L 235.664801 -313.260315 
L 232.710473 -313.260315 
L 229.756146 -313.260315 
L 226.801819 -313.260315 
L 223.847492 -313.260315 
L 220.893165 -313.260315 
L 217.938838 -313.260315 
L 214.98451 -313.260315 
L 212.030183 -313.260315 
L 209.075856 -313.260315 
L 206.121529 -313.260315 
L 203.167202 -313.752446 
L 200.212874 -313.752446 
L 197.258547 -313.752446 
L 194.30422 -313.752446 
L 191.349893 -313.752446 
L 188.395566 -313.752446 
L 185.441239 -314.069931 
L 182.486911 -314.069931 
L 179.532584 -314.069931 
L 176.578257 -314.069931 
L 173.62393 -314.069931 
L 170.669603 -314.238131 
L 167.715275 -314.417942 
L 164.760948 -314.531437 
L 161.806621 -314.531437 
L 158.852294 -314.550344 
L 155.897967 -314.614731 
L 152.943639 -314.614731 
L 149.989312 -314.841983 
L 147.034985 -314.841983 
L 144.080658 -314.847249 
L 141.126331 -314.847249 
L 138.172004 -314.846594 
L 135.217676 -314.851106 
L 132.263349 -314.809654 
L 129.309022 -314.770073 
L 126.354695 -314.770073 
L 123.400368 -314.81119 
L 120.44604 -314.710017 
L 117.491713 -314.667423 
L 114.537386 -314.623152 
L 111.583059 -314.578158 
L 108.628732 -314.532215 
L 105.674405 -314.83115 
L 102.720077 -315.013413 
L 99.76575 -314.952507 
L 96.811423 -314.82885 
L 93.857096 -314.934601 
L 90.902769 -314.820047 
L 87.948441 -314.820047 
L 84.994114 -314.972589 
L 82.039787 -315.198691 
L 79.08546 -315.126924 
L 76.131133 -314.854763 
L 73.176805 -314.434862 
L 70.222478 -314.568853 
L 67.268151 -314.924515 
L 64.313824 -312.918845 
L 61.359497 -313.511598 
L 58.40517 -313.511598 
z
" style="stroke: #ffffff; stroke-opacity: 0.2"/>
    </defs>
    <g clip-path="url(#pee49da36fd)">
     <use xlink:href="#m3777aeedb5" x="0" y="351.034375" style="fill: #2ca02c; fill-opacity: 0.2; stroke: #ffffff; stroke-opacity: 0.2"/>
    </g>
   </g>
   <g id="FillBetweenPolyCollection_4">
    <defs>
     <path id="m16fd42fe3e" d="M 58.40517 -312.274095 
L 58.40517 -279.796461 
L 61.359497 -279.796461 
L 64.313824 -281.342967 
L 67.268151 -292.675837 
L 70.222478 -294.185139 
L 73.176805 -295.657447 
L 76.131133 -297.305117 
L 79.08546 -297.933368 
L 82.039787 -298.510422 
L 84.994114 -299.378828 
L 87.948441 -300.29037 
L 90.902769 -301.101694 
L 93.857096 -301.709032 
L 96.811423 -302.791662 
L 99.76575 -303.141773 
L 102.720077 -303.784889 
L 105.674405 -304.03739 
L 108.628732 -304.273214 
L 111.583059 -304.637867 
L 114.537386 -304.637867 
L 117.491713 -304.847572 
L 120.44604 -305.545763 
L 123.400368 -305.903318 
L 126.354695 -306.21364 
L 129.309022 -306.432117 
L 132.263349 -307.557241 
L 135.217676 -307.728705 
L 138.172004 -308.049386 
L 141.126331 -308.21918 
L 144.080658 -308.340533 
L 147.034985 -308.604205 
L 149.989312 -308.7028 
L 152.943639 -308.916071 
L 155.897967 -309.135953 
L 158.852294 -309.135953 
L 161.806621 -309.634383 
L 164.760948 -309.634383 
L 167.715275 -309.735824 
L 170.669603 -309.735824 
L 173.62393 -309.949545 
L 176.578257 -310.370053 
L 179.532584 -310.658719 
L 182.486911 -310.658719 
L 185.441239 -311.140498 
L 188.395566 -311.38748 
L 191.349893 -311.57215 
L 194.30422 -311.801497 
L 197.258547 -312.572895 
L 200.212874 -312.572895 
L 203.167202 -312.572895 
L 206.121529 -312.572895 
L 209.075856 -312.572895 
L 212.030183 -312.572895 
L 214.98451 -312.572895 
L 217.938838 -312.572895 
L 220.893165 -312.572895 
L 223.847492 -312.572895 
L 226.801819 -312.572895 
L 229.756146 -312.572895 
L 232.710473 -312.572895 
L 235.664801 -312.572895 
L 238.619128 -312.572895 
L 241.573455 -312.572895 
L 244.527782 -313.260315 
L 247.482109 -313.260315 
L 250.436437 -313.260315 
L 253.390764 -313.260315 
L 256.345091 -313.260315 
L 259.299418 -313.260315 
L 262.253745 -313.260315 
L 265.208073 -313.260315 
L 268.1624 -313.260315 
L 271.116727 -313.260315 
L 274.071054 -313.260315 
L 277.025381 -313.260315 
L 279.979708 -313.260315 
L 282.934036 -313.260315 
L 285.888363 -313.260315 
L 288.84269 -313.260315 
L 291.797017 -313.260315 
L 294.751344 -313.260315 
L 297.705672 -313.260315 
L 300.659999 -313.260315 
L 303.614326 -313.260315 
L 306.568653 -313.260315 
L 309.52298 -313.260315 
L 312.477307 -313.260315 
L 315.431635 -313.260315 
L 318.385962 -313.260315 
L 321.340289 -313.260315 
L 324.294616 -313.260315 
L 327.248943 -313.260315 
L 330.203271 -313.260315 
L 333.157598 -313.260315 
L 336.111925 -313.260315 
L 339.066252 -313.260315 
L 342.020579 -313.260315 
L 344.974907 -313.260315 
L 347.929234 -313.260315 
L 350.883561 -313.260315 
L 350.883561 -313.260315 
L 350.883561 -313.260315 
L 347.929234 -313.260315 
L 344.974907 -313.260315 
L 342.020579 -313.260315 
L 339.066252 -313.260315 
L 336.111925 -313.260315 
L 333.157598 -313.260315 
L 330.203271 -313.260315 
L 327.248943 -313.260315 
L 324.294616 -313.260315 
L 321.340289 -313.260315 
L 318.385962 -313.260315 
L 315.431635 -313.260315 
L 312.477307 -313.260315 
L 309.52298 -313.260315 
L 306.568653 -313.260315 
L 303.614326 -313.260315 
L 300.659999 -313.260315 
L 297.705672 -313.260315 
L 294.751344 -313.260315 
L 291.797017 -313.260315 
L 288.84269 -313.260315 
L 285.888363 -313.260315 
L 282.934036 -313.260315 
L 279.979708 -313.260315 
L 277.025381 -313.260315 
L 274.071054 -313.260315 
L 271.116727 -313.260315 
L 268.1624 -313.260315 
L 265.208073 -313.260315 
L 262.253745 -313.260315 
L 259.299418 -313.260315 
L 256.345091 -313.260315 
L 253.390764 -313.260315 
L 250.436437 -313.260315 
L 247.482109 -313.260315 
L 244.527782 -313.260315 
L 241.573455 -313.82275 
L 238.619128 -313.82275 
L 235.664801 -313.82275 
L 232.710473 -313.82275 
L 229.756146 -313.82275 
L 226.801819 -313.82275 
L 223.847492 -313.82275 
L 220.893165 -313.82275 
L 217.938838 -313.82275 
L 214.98451 -313.82275 
L 212.030183 -313.82275 
L 209.075856 -313.82275 
L 206.121529 -313.82275 
L 203.167202 -313.82275 
L 200.212874 -313.82275 
L 197.258547 -313.82275 
L 194.30422 -314.228793 
L 191.349893 -314.32354 
L 188.395566 -314.383225 
L 185.441239 -314.475813 
L 182.486911 -314.571563 
L 179.532584 -314.571563 
L 176.578257 -314.605049 
L 173.62393 -314.627462 
L 170.669603 -314.606018 
L 167.715275 -314.606018 
L 164.760948 -314.590806 
L 161.806621 -314.590806 
L 158.852294 -314.803608 
L 155.897967 -314.803608 
L 152.943639 -314.76102 
L 149.989312 -314.711822 
L 147.034985 -314.682382 
L 144.080658 -314.63984 
L 141.126331 -314.611211 
L 138.172004 -314.533667 
L 135.217676 -314.421105 
L 132.263349 -314.475915 
L 129.309022 -314.875883 
L 126.354695 -314.842102 
L 123.400368 -314.76192 
L 120.44604 -314.809895 
L 117.491713 -314.715248 
L 114.537386 -314.671049 
L 111.583059 -314.671049 
L 108.628732 -314.776434 
L 105.674405 -314.626405 
L 102.720077 -314.660181 
L 99.76575 -314.527044 
L 96.811423 -314.610294 
L 93.857096 -314.881119 
L 90.902769 -314.68706 
L 87.948441 -314.568568 
L 84.994114 -314.591206 
L 82.039787 -314.639689 
L 79.08546 -314.303527 
L 76.131133 -313.861687 
L 73.176805 -314.417948 
L 70.222478 -313.936946 
L 67.268151 -314.48386 
L 64.313824 -311.427509 
L 61.359497 -312.274095 
L 58.40517 -312.274095 
z
" style="stroke: #ffffff; stroke-opacity: 0.2"/>
    </defs>
    <g clip-path="url(#pee49da36fd)">
     <use xlink:href="#m16fd42fe3e" x="0" y="351.034375" style="fill: #d62728; fill-opacity: 0.2; stroke: #ffffff; stroke-opacity: 0.2"/>
    </g>
   </g>
   <g id="FillBetweenPolyCollection_5">
    <defs>
     <path id="m74feb6bd05" d="M 58.40517 -311.095941 
L 58.40517 -268.940174 
L 61.359497 -268.940174 
L 64.313824 -269.661717 
L 67.268151 -288.857687 
L 70.222478 -290.731932 
L 73.176805 -292.066008 
L 76.131133 -294.157128 
L 79.08546 -295.265646 
L 82.039787 -296.505092 
L 84.994114 -297.392247 
L 87.948441 -298.514182 
L 90.902769 -298.541957 
L 93.857096 -298.915136 
L 96.811423 -299.540186 
L 99.76575 -299.898371 
L 102.720077 -300.52443 
L 105.674405 -301.285446 
L 108.628732 -301.608348 
L 111.583059 -301.608348 
L 114.537386 -302.251917 
L 117.491713 -302.779416 
L 120.44604 -303.07916 
L 123.400368 -303.942913 
L 126.354695 -304.650408 
L 129.309022 -304.948881 
L 132.263349 -305.222065 
L 135.217676 -305.222065 
L 138.172004 -305.414685 
L 141.126331 -305.685431 
L 144.080658 -306.369225 
L 147.034985 -306.858333 
L 149.989312 -307.111247 
L 152.943639 -307.330225 
L 155.897967 -307.78838 
L 158.852294 -307.863173 
L 161.806621 -307.95557 
L 164.760948 -308.255297 
L 167.715275 -308.346321 
L 170.669603 -308.420632 
L 173.62393 -308.420632 
L 176.578257 -308.762628 
L 179.532584 -309.197359 
L 182.486911 -309.197359 
L 185.441239 -309.291341 
L 188.395566 -309.52642 
L 191.349893 -309.52642 
L 194.30422 -309.943276 
L 197.258547 -309.943276 
L 200.212874 -310.076 
L 203.167202 -310.076 
L 206.121529 -310.475485 
L 209.075856 -310.99994 
L 212.030183 -310.99994 
L 214.98451 -310.99994 
L 217.938838 -310.99994 
L 220.893165 -310.99994 
L 223.847492 -311.699837 
L 226.801819 -311.955754 
L 229.756146 -311.955754 
L 232.710473 -311.955754 
L 235.664801 -311.955754 
L 238.619128 -311.955754 
L 241.573455 -312.162315 
L 244.527782 -312.162315 
L 247.482109 -312.162315 
L 250.436437 -312.162315 
L 253.390764 -312.162315 
L 256.345091 -313.260315 
L 259.299418 -313.260315 
L 262.253745 -313.260315 
L 265.208073 -313.260315 
L 268.1624 -313.260315 
L 271.116727 -313.260315 
L 274.071054 -313.260315 
L 277.025381 -313.260315 
L 279.979708 -313.260315 
L 282.934036 -313.260315 
L 285.888363 -313.260315 
L 288.84269 -313.260315 
L 291.797017 -313.260315 
L 294.751344 -313.260315 
L 297.705672 -313.260315 
L 300.659999 -313.260315 
L 303.614326 -313.260315 
L 306.568653 -313.260315 
L 309.52298 -313.260315 
L 312.477307 -313.260315 
L 315.431635 -313.260315 
L 318.385962 -313.260315 
L 321.340289 -313.260315 
L 324.294616 -313.260315 
L 327.248943 -313.260315 
L 330.203271 -313.260315 
L 333.157598 -313.260315 
L 336.111925 -313.260315 
L 339.066252 -313.260315 
L 342.020579 -313.260315 
L 344.974907 -313.260315 
L 347.929234 -313.260315 
L 350.883561 -313.260315 
L 350.883561 -313.260315 
L 350.883561 -313.260315 
L 347.929234 -313.260315 
L 344.974907 -313.260315 
L 342.020579 -313.260315 
L 339.066252 -313.260315 
L 336.111925 -313.260315 
L 333.157598 -313.260315 
L 330.203271 -313.260315 
L 327.248943 -313.260315 
L 324.294616 -313.260315 
L 321.340289 -313.260315 
L 318.385962 -313.260315 
L 315.431635 -313.260315 
L 312.477307 -313.260315 
L 309.52298 -313.260315 
L 306.568653 -313.260315 
L 303.614326 -313.260315 
L 300.659999 -313.260315 
L 297.705672 -313.260315 
L 294.751344 -313.260315 
L 291.797017 -313.260315 
L 288.84269 -313.260315 
L 285.888363 -313.260315 
L 282.934036 -313.260315 
L 279.979708 -313.260315 
L 277.025381 -313.260315 
L 274.071054 -313.260315 
L 271.116727 -313.260315 
L 268.1624 -313.260315 
L 265.208073 -313.260315 
L 262.253745 -313.260315 
L 259.299418 -313.260315 
L 256.345091 -313.260315 
L 253.390764 -314.085205 
L 250.436437 -314.085205 
L 247.482109 -314.085205 
L 244.527782 -314.085205 
L 241.573455 -314.085205 
L 238.619128 -314.177649 
L 235.664801 -314.177649 
L 232.710473 -314.177649 
L 229.756146 -314.177649 
L 226.801819 -314.177649 
L 223.847492 -314.295424 
L 220.893165 -314.557708 
L 217.938838 -314.557708 
L 214.98451 -314.557708 
L 212.030183 -314.557708 
L 209.075856 -314.557708 
L 206.121529 -314.83091 
L 203.167202 -314.849189 
L 200.212874 -314.849189 
L 197.258547 -314.850679 
L 194.30422 -314.850679 
L 191.349893 -314.850507 
L 188.395566 -314.850507 
L 185.441239 -314.826241 
L 182.486911 -314.80357 
L 179.532584 -314.80357 
L 176.578257 -314.96979 
L 173.62393 -315.049317 
L 170.669603 -315.049317 
L 167.715275 -315.014265 
L 164.760948 -314.980304 
L 161.806621 -314.875713 
L 158.852294 -314.836875 
L 155.897967 -314.795015 
L 152.943639 -314.717563 
L 149.989312 -314.712758 
L 147.034985 -314.718333 
L 144.080658 -314.788515 
L 141.126331 -314.835203 
L 138.172004 -314.868553 
L 135.217676 -314.915357 
L 132.263349 -314.915357 
L 129.309022 -314.792185 
L 126.354695 -314.587263 
L 123.400368 -314.361088 
L 120.44604 -314.49632 
L 117.491713 -314.439796 
L 114.537386 -314.464789 
L 111.583059 -314.242097 
L 108.628732 -314.242097 
L 105.674405 -314.179146 
L 102.720077 -314.023735 
L 99.76575 -313.843329 
L 96.811423 -313.555756 
L 93.857096 -313.619529 
L 90.902769 -313.357593 
L 87.948441 -313.257334 
L 84.994114 -313.430713 
L 82.039787 -312.542877 
L 79.08546 -312.011653 
L 76.131133 -311.686516 
L 73.176805 -311.26408 
L 70.222478 -310.514676 
L 67.268151 -311.319402 
L 64.313824 -310.724357 
L 61.359497 -311.095941 
L 58.40517 -311.095941 
z
" style="stroke: #ffffff; stroke-opacity: 0.2"/>
    </defs>
    <g clip-path="url(#pee49da36fd)">
     <use xlink:href="#m74feb6bd05" x="0" y="351.034375" style="fill: #9467bd; fill-opacity: 0.2; stroke: #ffffff; stroke-opacity: 0.2"/>
    </g>
   </g>
   <g id="line2d_13">
    <path d="M 58.40517 48.955253 
L 61.359497 48.955253 
L 64.313824 48.955253 
L 67.268151 43.778505 
L 70.222478 43.636334 
L 73.176805 43.155428 
L 76.131133 42.842302 
L 79.08546 42.431845 
L 82.039787 41.897988 
L 84.994114 41.614579 
L 87.948441 41.35968 
L 90.902769 41.300028 
L 93.857096 40.990058 
L 96.811423 40.541024 
L 99.76575 40.345971 
L 102.720077 40.092947 
L 105.674405 39.919567 
L 108.628732 39.72487 
L 111.583059 39.345265 
L 114.537386 39.282772 
L 117.491713 39.149855 
L 120.44604 39.0149 
L 123.400368 39.0149 
L 126.354695 38.883665 
L 129.309022 38.883665 
L 132.263349 38.679662 
L 135.217676 38.679662 
L 138.172004 38.606754 
L 141.126331 38.47552 
L 144.080658 38.3547 
L 147.034985 38.3547 
L 149.989312 38.290683 
L 152.943639 38.290683 
L 155.897967 38.08549 
L 158.852294 38.08549 
L 161.806621 38.08549 
L 164.760948 38.08549 
L 167.715275 38.08549 
L 170.669603 38.030809 
L 173.62393 38.030809 
L 176.578257 37.959871 
L 179.532584 37.959871 
L 182.486911 37.959871 
L 185.441239 37.886963 
L 188.395566 37.829904 
L 191.349893 37.829904 
L 194.30422 37.829904 
L 197.258547 37.829904 
L 200.212874 37.829904 
L 203.167202 37.829904 
L 206.121529 37.829904 
L 209.075856 37.829904 
L 212.030183 37.829904 
L 214.98451 37.829904 
L 217.938838 37.829904 
L 220.893165 37.829904 
L 223.847492 37.829904 
L 226.801819 37.77406 
L 229.756146 37.77406 
L 232.710473 37.77406 
L 235.664801 37.77406 
L 238.619128 37.77406 
L 241.573455 37.77406 
L 244.527782 37.77406 
L 247.482109 37.77406 
L 250.436437 37.77406 
L 253.390764 37.77406 
L 256.345091 37.77406 
L 259.299418 37.77406 
L 262.253745 37.77406 
L 265.208073 37.77406 
L 268.1624 37.77406 
L 271.116727 37.77406 
L 274.071054 37.77406 
L 277.025381 37.77406 
L 279.979708 37.77406 
L 282.934036 37.77406 
L 285.888363 37.77406 
L 288.84269 37.77406 
L 291.797017 37.77406 
L 294.751344 37.77406 
L 297.705672 37.77406 
L 300.659999 37.77406 
L 303.614326 37.77406 
L 306.568653 37.77406 
L 309.52298 37.77406 
L 312.477307 37.77406 
L 315.431635 37.77406 
L 318.385962 37.77406 
L 321.340289 37.77406 
L 324.294616 37.77406 
L 327.248943 37.77406 
L 330.203271 37.77406 
L 333.157598 37.77406 
L 336.111925 37.77406 
L 339.066252 37.77406 
L 342.020579 37.77406 
L 344.974907 37.77406 
L 347.929234 37.77406 
L 350.883561 37.77406 
" clip-path="url(#pee49da36fd)" style="fill: none; stroke: #1f77b4; stroke-width: 1.5; stroke-linecap: round"/>
   </g>
   <g id="line2d_14">
    <path d="M 58.40517 49.72759 
L 61.359497 49.72759 
L 64.313824 49.72759 
L 67.268151 43.957615 
L 70.222478 43.957615 
L 73.176805 43.460592 
L 76.131133 42.623767 
L 79.08546 42.569086 
L 82.039787 42.0386 
L 84.994114 41.866156 
L 87.948441 41.478252 
L 90.902769 41.356107 
L 93.857096 41.243204 
L 96.811423 41.056722 
L 99.76575 41.056722 
L 102.720077 40.717839 
L 105.674405 40.449036 
L 108.628732 39.964912 
L 111.583059 39.877422 
L 114.537386 39.657259 
L 117.491713 39.36186 
L 120.44604 39.297843 
L 123.400368 39.18351 
L 126.354695 39.052275 
L 129.309022 38.849774 
L 132.263349 38.849774 
L 135.217676 38.849774 
L 138.172004 38.849774 
L 141.126331 38.72174 
L 144.080658 38.72174 
L 147.034985 38.656123 
L 149.989312 38.592106 
L 152.943639 38.41296 
L 155.897967 38.335763 
L 158.852294 38.335763 
L 161.806621 38.278704 
L 164.760948 38.205796 
L 167.715275 38.205796 
L 170.669603 38.205796 
L 173.62393 38.205796 
L 176.578257 38.205796 
L 179.532584 38.132888 
L 182.486911 38.132888 
L 185.441239 38.074561 
L 188.395566 38.01988 
L 191.349893 38.01988 
L 194.30422 38.01988 
L 197.258547 38.01988 
L 200.212874 38.01988 
L 203.167202 38.01988 
L 206.121529 37.962822 
L 209.075856 37.906977 
L 212.030183 37.84136 
L 214.98451 37.84136 
L 217.938838 37.84136 
L 220.893165 37.84136 
L 223.847492 37.77406 
L 226.801819 37.77406 
L 229.756146 37.77406 
L 232.710473 37.77406 
L 235.664801 37.77406 
L 238.619128 37.77406 
L 241.573455 37.77406 
L 244.527782 37.77406 
L 247.482109 37.77406 
L 250.436437 37.77406 
L 253.390764 37.77406 
L 256.345091 37.77406 
L 259.299418 37.77406 
L 262.253745 37.77406 
L 265.208073 37.77406 
L 268.1624 37.77406 
L 271.116727 37.77406 
L 274.071054 37.77406 
L 277.025381 37.77406 
L 279.979708 37.77406 
L 282.934036 37.77406 
L 285.888363 37.77406 
L 288.84269 37.77406 
L 291.797017 37.77406 
L 294.751344 37.77406 
L 297.705672 37.77406 
L 300.659999 37.77406 
L 303.614326 37.77406 
L 306.568653 37.77406 
L 309.52298 37.77406 
L 312.477307 37.77406 
L 315.431635 37.77406 
L 318.385962 37.77406 
L 321.340289 37.77406 
L 324.294616 37.77406 
L 327.248943 37.77406 
L 330.203271 37.77406 
L 333.157598 37.77406 
L 336.111925 37.77406 
L 339.066252 37.77406 
L 342.020579 37.77406 
L 344.974907 37.77406 
L 347.929234 37.77406 
L 350.883561 37.77406 
" clip-path="url(#pee49da36fd)" style="fill: none; stroke: #ff7f0e; stroke-width: 1.5; stroke-linecap: round"/>
   </g>
   <g id="line2d_15">
    <path d="M 58.40517 51.397195 
L 61.359497 51.397195 
L 64.313824 51.134725 
L 67.268151 44.689785 
L 70.222478 44.302643 
L 73.176805 43.83482 
L 76.131133 43.097869 
L 79.08546 42.810909 
L 82.039787 42.393568 
L 84.994114 42.038518 
L 87.948441 41.523497 
L 90.902769 41.523497 
L 93.857096 41.269371 
L 96.811423 40.853228 
L 99.76575 40.719797 
L 102.720077 40.650726 
L 105.674405 40.347031 
L 108.628732 40.024841 
L 111.583059 39.960824 
L 114.537386 39.898331 
L 117.491713 39.838679 
L 120.44604 39.776186 
L 123.400368 39.564944 
L 126.354695 39.090596 
L 129.309022 39.090596 
L 132.263349 38.965327 
L 135.217676 38.777736 
L 138.172004 38.637528 
L 141.126331 38.573511 
L 144.080658 38.573511 
L 147.034985 38.507894 
L 149.989312 38.507894 
L 152.943639 38.440594 
L 155.897967 38.440594 
L 158.852294 38.305193 
L 161.806621 38.248134 
L 164.760948 38.248134 
L 167.715275 38.113534 
L 170.669603 37.978846 
L 173.62393 37.905938 
L 176.578257 37.905938 
L 179.532584 37.905938 
L 182.486911 37.905938 
L 185.441239 37.905938 
L 188.395566 37.828741 
L 191.349893 37.828741 
L 194.30422 37.828741 
L 197.258547 37.828741 
L 200.212874 37.828741 
L 203.167202 37.828741 
L 206.121529 37.77406 
L 209.075856 37.77406 
L 212.030183 37.77406 
L 214.98451 37.77406 
L 217.938838 37.77406 
L 220.893165 37.77406 
L 223.847492 37.77406 
L 226.801819 37.77406 
L 229.756146 37.77406 
L 232.710473 37.77406 
L 235.664801 37.77406 
L 238.619128 37.77406 
L 241.573455 37.77406 
L 244.527782 37.77406 
L 247.482109 37.77406 
L 250.436437 37.77406 
L 253.390764 37.77406 
L 256.345091 37.77406 
L 259.299418 37.77406 
L 262.253745 37.77406 
L 265.208073 37.77406 
L 268.1624 37.77406 
L 271.116727 37.77406 
L 274.071054 37.77406 
L 277.025381 37.77406 
L 279.979708 37.77406 
L 282.934036 37.77406 
L 285.888363 37.77406 
L 288.84269 37.77406 
L 291.797017 37.77406 
L 294.751344 37.77406 
L 297.705672 37.77406 
L 300.659999 37.77406 
L 303.614326 37.77406 
L 306.568653 37.77406 
L 309.52298 37.77406 
L 312.477307 37.77406 
L 315.431635 37.77406 
L 318.385962 37.77406 
L 321.340289 37.77406 
L 324.294616 37.77406 
L 327.248943 37.77406 
L 330.203271 37.77406 
L 333.157598 37.77406 
L 336.111925 37.77406 
L 339.066252 37.77406 
L 342.020579 37.77406 
L 344.974907 37.77406 
L 347.929234 37.77406 
L 350.883561 37.77406 
" clip-path="url(#pee49da36fd)" style="fill: none; stroke: #2ca02c; stroke-width: 1.5; stroke-linecap: round"/>
   </g>
   <g id="line2d_16">
    <path d="M 58.40517 54.999097 
L 61.359497 54.999097 
L 64.313824 54.649137 
L 67.268151 47.454527 
L 70.222478 46.973333 
L 73.176805 45.996678 
L 76.131133 45.450973 
L 79.08546 44.915928 
L 82.039787 44.45932 
L 84.994114 44.049358 
L 87.948441 43.604906 
L 90.902769 43.139998 
L 93.857096 42.739299 
L 96.811423 42.333397 
L 99.76575 42.199967 
L 102.720077 41.81184 
L 105.674405 41.702478 
L 108.628732 41.509551 
L 111.583059 41.379917 
L 114.537386 41.379917 
L 117.491713 41.252965 
L 120.44604 40.856546 
L 123.400368 40.701756 
L 126.354695 40.506504 
L 129.309022 40.380375 
L 132.263349 40.017797 
L 135.217676 39.95947 
L 138.172004 39.742849 
L 141.126331 39.61918 
L 144.080658 39.544188 
L 147.034985 39.391081 
L 149.989312 39.327064 
L 152.943639 39.195829 
L 155.897967 39.064595 
L 158.852294 39.064595 
L 161.806621 38.92178 
L 164.760948 38.92178 
L 167.715275 38.863454 
L 170.669603 38.863454 
L 173.62393 38.745872 
L 176.578257 38.546824 
L 179.532584 38.419234 
L 182.486911 38.419234 
L 185.441239 38.22622 
L 188.395566 38.149023 
L 191.349893 38.08653 
L 194.30422 38.01923 
L 197.258547 37.836553 
L 200.212874 37.836553 
L 203.167202 37.836553 
L 206.121529 37.836553 
L 209.075856 37.836553 
L 212.030183 37.836553 
L 214.98451 37.836553 
L 217.938838 37.836553 
L 220.893165 37.836553 
L 223.847492 37.836553 
L 226.801819 37.836553 
L 229.756146 37.836553 
L 232.710473 37.836553 
L 235.664801 37.836553 
L 238.619128 37.836553 
L 241.573455 37.836553 
L 244.527782 37.77406 
L 247.482109 37.77406 
L 250.436437 37.77406 
L 253.390764 37.77406 
L 256.345091 37.77406 
L 259.299418 37.77406 
L 262.253745 37.77406 
L 265.208073 37.77406 
L 268.1624 37.77406 
L 271.116727 37.77406 
L 274.071054 37.77406 
L 277.025381 37.77406 
L 279.979708 37.77406 
L 282.934036 37.77406 
L 285.888363 37.77406 
L 288.84269 37.77406 
L 291.797017 37.77406 
L 294.751344 37.77406 
L 297.705672 37.77406 
L 300.659999 37.77406 
L 303.614326 37.77406 
L 306.568653 37.77406 
L 309.52298 37.77406 
L 312.477307 37.77406 
L 315.431635 37.77406 
L 318.385962 37.77406 
L 321.340289 37.77406 
L 324.294616 37.77406 
L 327.248943 37.77406 
L 330.203271 37.77406 
L 333.157598 37.77406 
L 336.111925 37.77406 
L 339.066252 37.77406 
L 342.020579 37.77406 
L 344.974907 37.77406 
L 347.929234 37.77406 
L 350.883561 37.77406 
" clip-path="url(#pee49da36fd)" style="fill: none; stroke: #d62728; stroke-width: 1.5; stroke-linecap: round"/>
   </g>
   <g id="line2d_17">
    <path d="M 58.40517 61.016318 
L 61.359497 61.016318 
L 64.313824 60.841338 
L 67.268151 50.94583 
L 70.222478 50.411071 
L 73.176805 49.369331 
L 76.131133 48.112553 
L 79.08546 47.395725 
L 82.039787 46.510391 
L 84.994114 45.622895 
L 87.948441 45.148617 
L 90.902769 45.0846 
L 93.857096 44.767042 
L 96.811423 44.486404 
L 99.76575 44.163525 
L 102.720077 43.760292 
L 105.674405 43.302079 
L 108.628732 43.109152 
L 111.583059 43.109152 
L 114.537386 42.676022 
L 117.491713 42.424769 
L 120.44604 42.246635 
L 123.400368 41.882374 
L 126.354695 41.41554 
L 129.309022 41.163842 
L 132.263349 40.965664 
L 135.217676 40.965664 
L 138.172004 40.892756 
L 141.126331 40.774058 
L 144.080658 40.455505 
L 147.034985 40.246042 
L 149.989312 40.122373 
L 152.943639 40.010481 
L 155.897967 39.742677 
L 158.852294 39.684351 
L 161.806621 39.618734 
L 164.760948 39.416575 
L 167.715275 39.354082 
L 170.669603 39.299401 
L 173.62393 39.299401 
L 176.578257 39.168166 
L 179.532584 39.033911 
L 182.486911 39.033911 
L 185.441239 38.975584 
L 188.395566 38.845912 
L 191.349893 38.845912 
L 194.30422 38.637398 
L 197.258547 38.637398 
L 200.212874 38.57178 
L 203.167202 38.57178 
L 206.121529 38.381178 
L 209.075856 38.255551 
L 212.030183 38.255551 
L 214.98451 38.255551 
L 217.938838 38.255551 
L 220.893165 38.255551 
L 223.847492 38.036744 
L 226.801819 37.967674 
L 229.756146 37.967674 
L 232.710473 37.967674 
L 235.664801 37.967674 
L 238.619128 37.967674 
L 241.573455 37.910615 
L 244.527782 37.910615 
L 247.482109 37.910615 
L 250.436437 37.910615 
L 253.390764 37.910615 
L 256.345091 37.77406 
L 259.299418 37.77406 
L 262.253745 37.77406 
L 265.208073 37.77406 
L 268.1624 37.77406 
L 271.116727 37.77406 
L 274.071054 37.77406 
L 277.025381 37.77406 
L 279.979708 37.77406 
L 282.934036 37.77406 
L 285.888363 37.77406 
L 288.84269 37.77406 
L 291.797017 37.77406 
L 294.751344 37.77406 
L 297.705672 37.77406 
L 300.659999 37.77406 
L 303.614326 37.77406 
L 306.568653 37.77406 
L 309.52298 37.77406 
L 312.477307 37.77406 
L 315.431635 37.77406 
L 318.385962 37.77406 
L 321.340289 37.77406 
L 324.294616 37.77406 
L 327.248943 37.77406 
L 330.203271 37.77406 
L 333.157598 37.77406 
L 336.111925 37.77406 
L 339.066252 37.77406 
L 342.020579 37.77406 
L 344.974907 37.77406 
L 347.929234 37.77406 
L 350.883561 37.77406 
" clip-path="url(#pee49da36fd)" style="fill: none; stroke: #9467bd; stroke-width: 1.5; stroke-linecap: round"/>
   </g>
   <g id="line2d_18">
    <path d="M 58.40517 300.24358 
L 350.883561 37.77406 
" clip-path="url(#pee49da36fd)" style="fill: none; stroke-dasharray: 7.4,3.2; stroke-dashoffset: 0; stroke: #000000; stroke-width: 2"/>
   </g>
   <g id="patch_3">
    <path d="M 43.78125 313.478125 
L 43.78125 22.318125 
" style="fill: none; stroke: #ffffff; stroke-width: 0.8; stroke-linejoin: miter; stroke-linecap: square"/>
   </g>
   <g id="patch_4">
    <path d="M 365.50748 313.478125 
L 365.50748 22.318125 
" style="fill: none; stroke: #ffffff; stroke-width: 0.8; stroke-linejoin: miter; stroke-linecap: square"/>
   </g>
   <g id="patch_5">
    <path d="M 43.78125 313.478125 
L 365.50748 313.478125 
" style="fill: none; stroke: #ffffff; stroke-width: 0.8; stroke-linejoin: miter; stroke-linecap: square"/>
   </g>
   <g id="patch_6">
    <path d="M 43.78125 22.318125 
L 365.50748 22.318125 
" style="fill: none; stroke: #ffffff; stroke-width: 0.8; stroke-linejoin: miter; stroke-linecap: square"/>
   </g>
   <g id="text_15">
    <!-- ROC Curve -->
    <g style="fill: #262626" transform="translate(171.95374 16.318125) scale(0.12 -0.12)">
     <defs>
      <path id="DejaVuSans-4f" d="M 2522 4238 
Q 1834 4238 1429 3725 
Q 1025 3213 1025 2328 
Q 1025 1447 1429 934 
Q 1834 422 2522 422 
Q 3209 422 3611 934 
Q 4013 1447 4013 2328 
Q 4013 3213 3611 3725 
Q 3209 4238 2522 4238 
z
M 2522 4750 
Q 3503 4750 4090 4092 
Q 4678 3434 4678 2328 
Q 4678 1225 4090 567 
Q 3503 -91 2522 -91 
Q 1538 -91 948 565 
Q 359 1222 359 2328 
Q 359 3434 948 4092 
Q 1538 4750 2522 4750 
z
" transform="scale(0.015625)"/>
      <path id="DejaVuSans-43" d="M 4122 4306 
L 4122 3641 
Q 3803 3938 3442 4084 
Q 3081 4231 2675 4231 
Q 1875 4231 1450 3742 
Q 1025 3253 1025 2328 
Q 1025 1406 1450 917 
Q 1875 428 2675 428 
Q 3081 428 3442 575 
Q 3803 722 4122 1019 
L 4122 359 
Q 3791 134 3420 21 
Q 3050 -91 2638 -91 
Q 1578 -91 968 557 
Q 359 1206 359 2328 
Q 359 3453 968 4101 
Q 1578 4750 2638 4750 
Q 3056 4750 3426 4639 
Q 3797 4528 4122 4306 
z
" transform="scale(0.015625)"/>
     </defs>
     <use xlink:href="#DejaVuSans-52"/>
     <use xlink:href="#DejaVuSans-4f" transform="translate(69.482422 0)"/>
     <use xlink:href="#DejaVuSans-43" transform="translate(148.193359 0)"/>
     <use xlink:href="#DejaVuSans-20" transform="translate(218.017578 0)"/>
     <use xlink:href="#DejaVuSans-43" transform="translate(249.804688 0)"/>
     <use xlink:href="#DejaVuSans-75" transform="translate(319.628906 0)"/>
     <use xlink:href="#DejaVuSans-72" transform="translate(383.007812 0)"/>
     <use xlink:href="#DejaVuSans-76" transform="translate(424.121094 0)"/>
     <use xlink:href="#DejaVuSans-65" transform="translate(483.300781 0)"/>
    </g>
   </g>
   <g id="legend_1">
    <g id="patch_7">
     <path d="M 372.50748 213.4325 
L 558.90748 213.4325 
Q 560.90748 213.4325 560.90748 211.4325 
L 560.90748 124.36375 
Q 560.90748 122.36375 558.90748 122.36375 
L 372.50748 122.36375 
Q 370.50748 122.36375 370.50748 124.36375 
L 370.50748 211.4325 
Q 370.50748 213.4325 372.50748 213.4325 
z
" style="fill: #eaeaf2; opacity: 0.8; stroke: #cccccc; stroke-linejoin: miter"/>
    </g>
    <g id="line2d_19">
     <path d="M 374.50748 130.462188 
L 384.50748 130.462188 
L 394.50748 130.462188 
" style="fill: none; stroke: #1f77b4; stroke-width: 1.5; stroke-linecap: round"/>
    </g>
    <g id="text_16">
     <!-- 0% Noise (AUC$ = 1.00 \pm  0.01$) -->
     <g style="fill: #262626" transform="translate(402.50748 133.962188) scale(0.1 -0.1)">
      <defs>
       <path id="DejaVuSans-25" d="M 4653 2053 
Q 4381 2053 4226 1822 
Q 4072 1591 4072 1178 
Q 4072 772 4226 539 
Q 4381 306 4653 306 
Q 4919 306 5073 539 
Q 5228 772 5228 1178 
Q 5228 1588 5073 1820 
Q 4919 2053 4653 2053 
z
M 4653 2450 
Q 5147 2450 5437 2106 
Q 5728 1763 5728 1178 
Q 5728 594 5436 251 
Q 5144 -91 4653 -91 
Q 4153 -91 3862 251 
Q 3572 594 3572 1178 
Q 3572 1766 3864 2108 
Q 4156 2450 4653 2450 
z
M 1428 4353 
Q 1159 4353 1004 4120 
Q 850 3888 850 3481 
Q 850 3069 1003 2837 
Q 1156 2606 1428 2606 
Q 1700 2606 1854 2837 
Q 2009 3069 2009 3481 
Q 2009 3884 1853 4118 
Q 1697 4353 1428 4353 
z
M 4250 4750 
L 4750 4750 
L 1831 -91 
L 1331 -91 
L 4250 4750 
z
M 1428 4750 
Q 1922 4750 2215 4408 
Q 2509 4066 2509 3481 
Q 2509 2891 2217 2550 
Q 1925 2209 1428 2209 
Q 931 2209 642 2551 
Q 353 2894 353 3481 
Q 353 4063 643 4406 
Q 934 4750 1428 4750 
z
" transform="scale(0.015625)"/>
       <path id="DejaVuSans-4e" d="M 628 4666 
L 1478 4666 
L 3547 763 
L 3547 4666 
L 4159 4666 
L 4159 0 
L 3309 0 
L 1241 3903 
L 1241 0 
L 628 0 
L 628 4666 
z
" transform="scale(0.015625)"/>
       <path id="DejaVuSans-28" d="M 1984 4856 
Q 1566 4138 1362 3434 
Q 1159 2731 1159 2009 
Q 1159 1288 1364 580 
Q 1569 -128 1984 -844 
L 1484 -844 
Q 1016 -109 783 600 
Q 550 1309 550 2009 
Q 550 2706 781 3412 
Q 1013 4119 1484 4856 
L 1984 4856 
z
" transform="scale(0.015625)"/>
       <path id="DejaVuSans-41" d="M 2188 4044 
L 1331 1722 
L 3047 1722 
L 2188 4044 
z
M 1831 4666 
L 2547 4666 
L 4325 0 
L 3669 0 
L 3244 1197 
L 1141 1197 
L 716 0 
L 50 0 
L 1831 4666 
z
" transform="scale(0.015625)"/>
       <path id="DejaVuSans-55" d="M 556 4666 
L 1191 4666 
L 1191 1831 
Q 1191 1081 1462 751 
Q 1734 422 2344 422 
Q 2950 422 3222 751 
Q 3494 1081 3494 1831 
L 3494 4666 
L 4128 4666 
L 4128 1753 
Q 4128 841 3676 375 
Q 3225 -91 2344 -91 
Q 1459 -91 1007 375 
Q 556 841 556 1753 
L 556 4666 
z
" transform="scale(0.015625)"/>
       <path id="DejaVuSans-3d" d="M 678 2906 
L 4684 2906 
L 4684 2381 
L 678 2381 
L 678 2906 
z
M 678 1631 
L 4684 1631 
L 4684 1100 
L 678 1100 
L 678 1631 
z
" transform="scale(0.015625)"/>
       <path id="DejaVuSans-b1" d="M 2944 4013 
L 2944 2803 
L 4684 2803 
L 4684 2272 
L 2944 2272 
L 2944 1063 
L 2419 1063 
L 2419 2272 
L 678 2272 
L 678 2803 
L 2419 2803 
L 2419 4013 
L 2944 4013 
z
M 678 531 
L 4684 531 
L 4684 0 
L 678 0 
L 678 531 
z
" transform="scale(0.015625)"/>
       <path id="DejaVuSans-29" d="M 513 4856 
L 1013 4856 
Q 1481 4119 1714 3412 
Q 1947 2706 1947 2009 
Q 1947 1309 1714 600 
Q 1481 -109 1013 -844 
L 513 -844 
Q 928 -128 1133 580 
Q 1338 1288 1338 2009 
Q 1338 2731 1133 3434 
Q 928 4138 513 4856 
z
" transform="scale(0.015625)"/>
      </defs>
      <use xlink:href="#DejaVuSans-30" transform="translate(0 0.015625)"/>
      <use xlink:href="#DejaVuSans-25" transform="translate(63.623047 0.015625)"/>
      <use xlink:href="#DejaVuSans-20" transform="translate(158.642578 0.015625)"/>
      <use xlink:href="#DejaVuSans-4e" transform="translate(190.429688 0.015625)"/>
      <use xlink:href="#DejaVuSans-6f" transform="translate(265.234375 0.015625)"/>
      <use xlink:href="#DejaVuSans-69" transform="translate(326.416016 0.015625)"/>
      <use xlink:href="#DejaVuSans-73" transform="translate(354.199219 0.015625)"/>
      <use xlink:href="#DejaVuSans-65" transform="translate(406.298828 0.015625)"/>
      <use xlink:href="#DejaVuSans-20" transform="translate(467.822266 0.015625)"/>
      <use xlink:href="#DejaVuSans-28" transform="translate(499.609375 0.015625)"/>
      <use xlink:href="#DejaVuSans-41" transform="translate(538.623047 0.015625)"/>
      <use xlink:href="#DejaVuSans-55" transform="translate(607.03125 0.015625)"/>
      <use xlink:href="#DejaVuSans-43" transform="translate(680.224609 0.015625)"/>
      <use xlink:href="#DejaVuSans-3d" transform="translate(769.53125 0.015625)"/>
      <use xlink:href="#DejaVuSans-31" transform="translate(872.802734 0.015625)"/>
      <use xlink:href="#DejaVuSans-2e" transform="translate(936.425781 0.015625)"/>
      <use xlink:href="#DejaVuSans-30" transform="translate(968.212891 0.015625)"/>
      <use xlink:href="#DejaVuSans-30" transform="translate(1031.835938 0.015625)"/>
      <use xlink:href="#DejaVuSans-b1" transform="translate(1114.941406 0.015625)"/>
      <use xlink:href="#DejaVuSans-30" transform="translate(1218.212891 0.015625)"/>
      <use xlink:href="#DejaVuSans-2e" transform="translate(1281.835938 0.015625)"/>
      <use xlink:href="#DejaVuSans-30" transform="translate(1313.623047 0.015625)"/>
      <use xlink:href="#DejaVuSans-31" transform="translate(1377.246094 0.015625)"/>
      <use xlink:href="#DejaVuSans-29" transform="translate(1440.869141 0.015625)"/>
     </g>
    </g>
    <g id="line2d_20">
     <path d="M 374.50748 145.140313 
L 384.50748 145.140313 
L 394.50748 145.140313 
" style="fill: none; stroke: #ff7f0e; stroke-width: 1.5; stroke-linecap: round"/>
    </g>
    <g id="text_17">
     <!-- 5% Noise (AUC$ = 1.00 \pm  0.01$) -->
     <g style="fill: #262626" transform="translate(402.50748 148.640313) scale(0.1 -0.1)">
      <defs>
       <path id="DejaVuSans-35" d="M 691 4666 
L 3169 4666 
L 3169 4134 
L 1269 4134 
L 1269 2991 
Q 1406 3038 1543 3061 
Q 1681 3084 1819 3084 
Q 2600 3084 3056 2656 
Q 3513 2228 3513 1497 
Q 3513 744 3044 326 
Q 2575 -91 1722 -91 
Q 1428 -91 1123 -41 
Q 819 9 494 109 
L 494 744 
Q 775 591 1075 516 
Q 1375 441 1709 441 
Q 2250 441 2565 725 
Q 2881 1009 2881 1497 
Q 2881 1984 2565 2268 
Q 2250 2553 1709 2553 
Q 1456 2553 1204 2497 
Q 953 2441 691 2322 
L 691 4666 
z
" transform="scale(0.015625)"/>
      </defs>
      <use xlink:href="#DejaVuSans-35" transform="translate(0 0.015625)"/>
      <use xlink:href="#DejaVuSans-25" transform="translate(63.623047 0.015625)"/>
      <use xlink:href="#DejaVuSans-20" transform="translate(158.642578 0.015625)"/>
      <use xlink:href="#DejaVuSans-4e" transform="translate(190.429688 0.015625)"/>
      <use xlink:href="#DejaVuSans-6f" transform="translate(265.234375 0.015625)"/>
      <use xlink:href="#DejaVuSans-69" transform="translate(326.416016 0.015625)"/>
      <use xlink:href="#DejaVuSans-73" transform="translate(354.199219 0.015625)"/>
      <use xlink:href="#DejaVuSans-65" transform="translate(406.298828 0.015625)"/>
      <use xlink:href="#DejaVuSans-20" transform="translate(467.822266 0.015625)"/>
      <use xlink:href="#DejaVuSans-28" transform="translate(499.609375 0.015625)"/>
      <use xlink:href="#DejaVuSans-41" transform="translate(538.623047 0.015625)"/>
      <use xlink:href="#DejaVuSans-55" transform="translate(607.03125 0.015625)"/>
      <use xlink:href="#DejaVuSans-43" transform="translate(680.224609 0.015625)"/>
      <use xlink:href="#DejaVuSans-3d" transform="translate(769.53125 0.015625)"/>
      <use xlink:href="#DejaVuSans-31" transform="translate(872.802734 0.015625)"/>
      <use xlink:href="#DejaVuSans-2e" transform="translate(936.425781 0.015625)"/>
      <use xlink:href="#DejaVuSans-30" transform="translate(968.212891 0.015625)"/>
      <use xlink:href="#DejaVuSans-30" transform="translate(1031.835938 0.015625)"/>
      <use xlink:href="#DejaVuSans-b1" transform="translate(1114.941406 0.015625)"/>
      <use xlink:href="#DejaVuSans-30" transform="translate(1218.212891 0.015625)"/>
      <use xlink:href="#DejaVuSans-2e" transform="translate(1281.835938 0.015625)"/>
      <use xlink:href="#DejaVuSans-30" transform="translate(1313.623047 0.015625)"/>
      <use xlink:href="#DejaVuSans-31" transform="translate(1377.246094 0.015625)"/>
      <use xlink:href="#DejaVuSans-29" transform="translate(1440.869141 0.015625)"/>
     </g>
    </g>
    <g id="line2d_21">
     <path d="M 374.50748 159.818438 
L 384.50748 159.818438 
L 394.50748 159.818438 
" style="fill: none; stroke: #2ca02c; stroke-width: 1.5; stroke-linecap: round"/>
    </g>
    <g id="text_18">
     <!-- 10% Noise (AUC$ = 1.00 \pm  0.01$) -->
     <g style="fill: #262626" transform="translate(402.50748 163.318438) scale(0.1 -0.1)">
      <use xlink:href="#DejaVuSans-31" transform="translate(0 0.015625)"/>
      <use xlink:href="#DejaVuSans-30" transform="translate(63.623047 0.015625)"/>
      <use xlink:href="#DejaVuSans-25" transform="translate(127.246094 0.015625)"/>
      <use xlink:href="#DejaVuSans-20" transform="translate(222.265625 0.015625)"/>
      <use xlink:href="#DejaVuSans-4e" transform="translate(254.052734 0.015625)"/>
      <use xlink:href="#DejaVuSans-6f" transform="translate(328.857422 0.015625)"/>
      <use xlink:href="#DejaVuSans-69" transform="translate(390.039062 0.015625)"/>
      <use xlink:href="#DejaVuSans-73" transform="translate(417.822266 0.015625)"/>
      <use xlink:href="#DejaVuSans-65" transform="translate(469.921875 0.015625)"/>
      <use xlink:href="#DejaVuSans-20" transform="translate(531.445312 0.015625)"/>
      <use xlink:href="#DejaVuSans-28" transform="translate(563.232422 0.015625)"/>
      <use xlink:href="#DejaVuSans-41" transform="translate(602.246094 0.015625)"/>
      <use xlink:href="#DejaVuSans-55" transform="translate(670.654297 0.015625)"/>
      <use xlink:href="#DejaVuSans-43" transform="translate(743.847656 0.015625)"/>
      <use xlink:href="#DejaVuSans-3d" transform="translate(833.154297 0.015625)"/>
      <use xlink:href="#DejaVuSans-31" transform="translate(936.425781 0.015625)"/>
      <use xlink:href="#DejaVuSans-2e" transform="translate(1000.048828 0.015625)"/>
      <use xlink:href="#DejaVuSans-30" transform="translate(1031.835938 0.015625)"/>
      <use xlink:href="#DejaVuSans-30" transform="translate(1095.458984 0.015625)"/>
      <use xlink:href="#DejaVuSans-b1" transform="translate(1178.564453 0.015625)"/>
      <use xlink:href="#DejaVuSans-30" transform="translate(1281.835938 0.015625)"/>
      <use xlink:href="#DejaVuSans-2e" transform="translate(1345.458984 0.015625)"/>
      <use xlink:href="#DejaVuSans-30" transform="translate(1377.246094 0.015625)"/>
      <use xlink:href="#DejaVuSans-31" transform="translate(1440.869141 0.015625)"/>
      <use xlink:href="#DejaVuSans-29" transform="translate(1504.492188 0.015625)"/>
     </g>
    </g>
    <g id="line2d_22">
     <path d="M 374.50748 174.496563 
L 384.50748 174.496563 
L 394.50748 174.496563 
" style="fill: none; stroke: #d62728; stroke-width: 1.5; stroke-linecap: round"/>
    </g>
    <g id="text_19">
     <!-- 15% Noise (AUC$ = 0.99 \pm  0.01$) -->
     <g style="fill: #262626" transform="translate(402.50748 177.996563) scale(0.1 -0.1)">
      <defs>
       <path id="DejaVuSans-39" d="M 703 97 
L 703 672 
Q 941 559 1184 500 
Q 1428 441 1663 441 
Q 2288 441 2617 861 
Q 2947 1281 2994 2138 
Q 2813 1869 2534 1725 
Q 2256 1581 1919 1581 
Q 1219 1581 811 2004 
Q 403 2428 403 3163 
Q 403 3881 828 4315 
Q 1253 4750 1959 4750 
Q 2769 4750 3195 4129 
Q 3622 3509 3622 2328 
Q 3622 1225 3098 567 
Q 2575 -91 1691 -91 
Q 1453 -91 1209 -44 
Q 966 3 703 97 
z
M 1959 2075 
Q 2384 2075 2632 2365 
Q 2881 2656 2881 3163 
Q 2881 3666 2632 3958 
Q 2384 4250 1959 4250 
Q 1534 4250 1286 3958 
Q 1038 3666 1038 3163 
Q 1038 2656 1286 2365 
Q 1534 2075 1959 2075 
z
" transform="scale(0.015625)"/>
      </defs>
      <use xlink:href="#DejaVuSans-31" transform="translate(0 0.015625)"/>
      <use xlink:href="#DejaVuSans-35" transform="translate(63.623047 0.015625)"/>
      <use xlink:href="#DejaVuSans-25" transform="translate(127.246094 0.015625)"/>
      <use xlink:href="#DejaVuSans-20" transform="translate(222.265625 0.015625)"/>
      <use xlink:href="#DejaVuSans-4e" transform="translate(254.052734 0.015625)"/>
      <use xlink:href="#DejaVuSans-6f" transform="translate(328.857422 0.015625)"/>
      <use xlink:href="#DejaVuSans-69" transform="translate(390.039062 0.015625)"/>
      <use xlink:href="#DejaVuSans-73" transform="translate(417.822266 0.015625)"/>
      <use xlink:href="#DejaVuSans-65" transform="translate(469.921875 0.015625)"/>
      <use xlink:href="#DejaVuSans-20" transform="translate(531.445312 0.015625)"/>
      <use xlink:href="#DejaVuSans-28" transform="translate(563.232422 0.015625)"/>
      <use xlink:href="#DejaVuSans-41" transform="translate(602.246094 0.015625)"/>
      <use xlink:href="#DejaVuSans-55" transform="translate(670.654297 0.015625)"/>
      <use xlink:href="#DejaVuSans-43" transform="translate(743.847656 0.015625)"/>
      <use xlink:href="#DejaVuSans-3d" transform="translate(833.154297 0.015625)"/>
      <use xlink:href="#DejaVuSans-30" transform="translate(936.425781 0.015625)"/>
      <use xlink:href="#DejaVuSans-2e" transform="translate(1000.048828 0.015625)"/>
      <use xlink:href="#DejaVuSans-39" transform="translate(1031.835938 0.015625)"/>
      <use xlink:href="#DejaVuSans-39" transform="translate(1095.458984 0.015625)"/>
      <use xlink:href="#DejaVuSans-b1" transform="translate(1178.564453 0.015625)"/>
      <use xlink:href="#DejaVuSans-30" transform="translate(1281.835938 0.015625)"/>
      <use xlink:href="#DejaVuSans-2e" transform="translate(1345.458984 0.015625)"/>
      <use xlink:href="#DejaVuSans-30" transform="translate(1377.246094 0.015625)"/>
      <use xlink:href="#DejaVuSans-31" transform="translate(1440.869141 0.015625)"/>
      <use xlink:href="#DejaVuSans-29" transform="translate(1504.492188 0.015625)"/>
     </g>
    </g>
    <g id="line2d_23">
     <path d="M 374.50748 189.174688 
L 384.50748 189.174688 
L 394.50748 189.174688 
" style="fill: none; stroke: #9467bd; stroke-width: 1.5; stroke-linecap: round"/>
    </g>
    <g id="text_20">
     <!-- 20% Noise (AUC$ = 0.99 \pm  0.01$) -->
     <g style="fill: #262626" transform="translate(402.50748 192.674688) scale(0.1 -0.1)">
      <use xlink:href="#DejaVuSans-32" transform="translate(0 0.015625)"/>
      <use xlink:href="#DejaVuSans-30" transform="translate(63.623047 0.015625)"/>
      <use xlink:href="#DejaVuSans-25" transform="translate(127.246094 0.015625)"/>
      <use xlink:href="#DejaVuSans-20" transform="translate(222.265625 0.015625)"/>
      <use xlink:href="#DejaVuSans-4e" transform="translate(254.052734 0.015625)"/>
      <use xlink:href="#DejaVuSans-6f" transform="translate(328.857422 0.015625)"/>
      <use xlink:href="#DejaVuSans-69" transform="translate(390.039062 0.015625)"/>
      <use xlink:href="#DejaVuSans-73" transform="translate(417.822266 0.015625)"/>
      <use xlink:href="#DejaVuSans-65" transform="translate(469.921875 0.015625)"/>
      <use xlink:href="#DejaVuSans-20" transform="translate(531.445312 0.015625)"/>
      <use xlink:href="#DejaVuSans-28" transform="translate(563.232422 0.015625)"/>
      <use xlink:href="#DejaVuSans-41" transform="translate(602.246094 0.015625)"/>
      <use xlink:href="#DejaVuSans-55" transform="translate(670.654297 0.015625)"/>
      <use xlink:href="#DejaVuSans-43" transform="translate(743.847656 0.015625)"/>
      <use xlink:href="#DejaVuSans-3d" transform="translate(833.154297 0.015625)"/>
      <use xlink:href="#DejaVuSans-30" transform="translate(936.425781 0.015625)"/>
      <use xlink:href="#DejaVuSans-2e" transform="translate(1000.048828 0.015625)"/>
      <use xlink:href="#DejaVuSans-39" transform="translate(1031.835938 0.015625)"/>
      <use xlink:href="#DejaVuSans-39" transform="translate(1095.458984 0.015625)"/>
      <use xlink:href="#DejaVuSans-b1" transform="translate(1178.564453 0.015625)"/>
      <use xlink:href="#DejaVuSans-30" transform="translate(1281.835938 0.015625)"/>
      <use xlink:href="#DejaVuSans-2e" transform="translate(1345.458984 0.015625)"/>
      <use xlink:href="#DejaVuSans-30" transform="translate(1377.246094 0.015625)"/>
      <use xlink:href="#DejaVuSans-31" transform="translate(1440.869141 0.015625)"/>
      <use xlink:href="#DejaVuSans-29" transform="translate(1504.492188 0.015625)"/>
     </g>
    </g>
    <g id="line2d_24">
     <path d="M 374.50748 203.852813 
L 384.50748 203.852813 
L 394.50748 203.852813 
" style="fill: none; stroke-dasharray: 7.4,3.2; stroke-dashoffset: 0; stroke: #000000; stroke-width: 2"/>
    </g>
    <g id="text_21">
     <!-- Random Chance -->
     <g style="fill: #262626" transform="translate(402.50748 207.352813) scale(0.1 -0.1)">
      <defs>
       <path id="DejaVuSans-6e" d="M 3513 2113 
L 3513 0 
L 2938 0 
L 2938 2094 
Q 2938 2591 2744 2837 
Q 2550 3084 2163 3084 
Q 1697 3084 1428 2787 
Q 1159 2491 1159 1978 
L 1159 0 
L 581 0 
L 581 3500 
L 1159 3500 
L 1159 2956 
Q 1366 3272 1645 3428 
Q 1925 3584 2291 3584 
Q 2894 3584 3203 3211 
Q 3513 2838 3513 2113 
z
" transform="scale(0.015625)"/>
       <path id="DejaVuSans-64" d="M 2906 2969 
L 2906 4863 
L 3481 4863 
L 3481 0 
L 2906 0 
L 2906 525 
Q 2725 213 2448 61 
Q 2172 -91 1784 -91 
Q 1150 -91 751 415 
Q 353 922 353 1747 
Q 353 2572 751 3078 
Q 1150 3584 1784 3584 
Q 2172 3584 2448 3432 
Q 2725 3281 2906 2969 
z
M 947 1747 
Q 947 1113 1208 752 
Q 1469 391 1925 391 
Q 2381 391 2643 752 
Q 2906 1113 2906 1747 
Q 2906 2381 2643 2742 
Q 2381 3103 1925 3103 
Q 1469 3103 1208 2742 
Q 947 2381 947 1747 
z
" transform="scale(0.015625)"/>
       <path id="DejaVuSans-6d" d="M 3328 2828 
Q 3544 3216 3844 3400 
Q 4144 3584 4550 3584 
Q 5097 3584 5394 3201 
Q 5691 2819 5691 2113 
L 5691 0 
L 5113 0 
L 5113 2094 
Q 5113 2597 4934 2840 
Q 4756 3084 4391 3084 
Q 3944 3084 3684 2787 
Q 3425 2491 3425 1978 
L 3425 0 
L 2847 0 
L 2847 2094 
Q 2847 2600 2669 2842 
Q 2491 3084 2119 3084 
Q 1678 3084 1418 2786 
Q 1159 2488 1159 1978 
L 1159 0 
L 581 0 
L 581 3500 
L 1159 3500 
L 1159 2956 
Q 1356 3278 1631 3431 
Q 1906 3584 2284 3584 
Q 2666 3584 2933 3390 
Q 3200 3197 3328 2828 
z
" transform="scale(0.015625)"/>
       <path id="DejaVuSans-68" d="M 3513 2113 
L 3513 0 
L 2938 0 
L 2938 2094 
Q 2938 2591 2744 2837 
Q 2550 3084 2163 3084 
Q 1697 3084 1428 2787 
Q 1159 2491 1159 1978 
L 1159 0 
L 581 0 
L 581 4863 
L 1159 4863 
L 1159 2956 
Q 1366 3272 1645 3428 
Q 1925 3584 2291 3584 
Q 2894 3584 3203 3211 
Q 3513 2838 3513 2113 
z
" transform="scale(0.015625)"/>
       <path id="DejaVuSans-63" d="M 3122 3366 
L 3122 2828 
Q 2878 2963 2633 3030 
Q 2388 3097 2138 3097 
Q 1578 3097 1268 2742 
Q 959 2388 959 1747 
Q 959 1106 1268 751 
Q 1578 397 2138 397 
Q 2388 397 2633 464 
Q 2878 531 3122 666 
L 3122 134 
Q 2881 22 2623 -34 
Q 2366 -91 2075 -91 
Q 1284 -91 818 406 
Q 353 903 353 1747 
Q 353 2603 823 3093 
Q 1294 3584 2113 3584 
Q 2378 3584 2631 3529 
Q 2884 3475 3122 3366 
z
" transform="scale(0.015625)"/>
      </defs>
      <use xlink:href="#DejaVuSans-52"/>
      <use xlink:href="#DejaVuSans-61" transform="translate(67.232422 0)"/>
      <use xlink:href="#DejaVuSans-6e" transform="translate(128.511719 0)"/>
      <use xlink:href="#DejaVuSans-64" transform="translate(191.890625 0)"/>
      <use xlink:href="#DejaVuSans-6f" transform="translate(255.367188 0)"/>
      <use xlink:href="#DejaVuSans-6d" transform="translate(316.548828 0)"/>
      <use xlink:href="#DejaVuSans-20" transform="translate(413.960938 0)"/>
      <use xlink:href="#DejaVuSans-43" transform="translate(445.748047 0)"/>
      <use xlink:href="#DejaVuSans-68" transform="translate(515.572266 0)"/>
      <use xlink:href="#DejaVuSans-61" transform="translate(578.951172 0)"/>
      <use xlink:href="#DejaVuSans-6e" transform="translate(640.230469 0)"/>
      <use xlink:href="#DejaVuSans-63" transform="translate(703.609375 0)"/>
      <use xlink:href="#DejaVuSans-65" transform="translate(758.589844 0)"/>
     </g>
    </g>
   </g>
  </g>
 </g>
 <defs>
  <clipPath id="pee49da36fd">
   <rect x="43.78125" y="22.318125" width="321.72623" height="291.16"/>
  </clipPath>
 </defs>
</svg>
